G04*
G04 #@! TF.GenerationSoftware,Altium Limited,Altium Designer,20.2.6 (244)*
G04*
G04 Layer_Color=8421504*
%FSLAX43Y43*%
%MOMM*%
G71*
G04*
G04 #@! TF.SameCoordinates,3E902E38-8288-4ECE-AB23-8A7451E8E44E*
G04*
G04*
G04 #@! TF.FilePolarity,Positive*
G04*
G01*
G75*
%ADD10C,0.102*%
%ADD11C,0.025*%
%ADD12C,0.254*%
%ADD13R,0.950X0.400*%
%ADD14R,0.350X1.300*%
%ADD15R,2.300X0.350*%
%ADD16R,0.813X0.889*%
%ADD17C,0.152*%
%ADD18R,0.559X0.559*%
%ADD19R,0.787X0.813*%
%ADD20R,0.813X0.787*%
%ADD21C,1.016*%
G36*
X45847Y6191D02*
X45339Y5683D01*
X44831Y6191D01*
Y7112D01*
X45847D01*
Y6191D01*
D02*
G37*
G36*
Y4572D02*
X44831D01*
Y5933D01*
X45337Y5427D01*
X45479Y5569D01*
X45847Y5937D01*
Y4572D01*
D02*
G37*
G36*
X10414Y124333D02*
X9053D01*
X9559Y124839D01*
X9417Y124981D01*
X9049Y125349D01*
X10414D01*
Y124333D01*
D02*
G37*
G36*
X9303Y124841D02*
X8795Y124333D01*
X7874D01*
Y125349D01*
X8795D01*
X9303Y124841D01*
D02*
G37*
D10*
X56515Y-47970D02*
X56370Y-47825D01*
X56152Y-47752D01*
X55862D01*
X55644Y-47825D01*
X55499Y-47970D01*
Y-48115D01*
X55572Y-48260D01*
X55644Y-48333D01*
X55789Y-48405D01*
X56225Y-48550D01*
X56370Y-48623D01*
X56442Y-48696D01*
X56515Y-48841D01*
Y-49058D01*
X56370Y-49203D01*
X56152Y-49276D01*
X55862D01*
X55644Y-49203D01*
X55499Y-49058D01*
X57291Y-47752D02*
X57146Y-47825D01*
X57001Y-47970D01*
X56928Y-48115D01*
X56856Y-48333D01*
Y-48696D01*
X56928Y-48913D01*
X57001Y-49058D01*
X57146Y-49203D01*
X57291Y-49276D01*
X57581D01*
X57726Y-49203D01*
X57872Y-49058D01*
X57944Y-48913D01*
X58017Y-48696D01*
Y-48333D01*
X57944Y-48115D01*
X57872Y-47970D01*
X57726Y-47825D01*
X57581Y-47752D01*
X57291D01*
X58372D02*
Y-49276D01*
X59243D01*
X59410Y-47752D02*
Y-49276D01*
Y-47752D02*
X59918D01*
X60135Y-47825D01*
X60280Y-47970D01*
X60353Y-48115D01*
X60426Y-48333D01*
Y-48696D01*
X60353Y-48913D01*
X60280Y-49058D01*
X60135Y-49203D01*
X59918Y-49276D01*
X59410D01*
X61710Y-47752D02*
X60767D01*
Y-49276D01*
X61710D01*
X60767Y-48478D02*
X61347D01*
X61964Y-47752D02*
Y-49276D01*
Y-47752D02*
X62617D01*
X62834Y-47825D01*
X62907Y-47897D01*
X62980Y-48043D01*
Y-48188D01*
X62907Y-48333D01*
X62834Y-48405D01*
X62617Y-48478D01*
X61964D01*
X62472D02*
X62980Y-49276D01*
X64518Y-48550D02*
X65171D01*
X65388Y-48478D01*
X65461Y-48405D01*
X65533Y-48260D01*
Y-48043D01*
X65461Y-47897D01*
X65388Y-47825D01*
X65171Y-47752D01*
X64518D01*
Y-49276D01*
X67035D02*
X66455Y-47752D01*
X65874Y-49276D01*
X66092Y-48768D02*
X66818D01*
X68407Y-47970D02*
X68262Y-47825D01*
X68044Y-47752D01*
X67754D01*
X67536Y-47825D01*
X67391Y-47970D01*
Y-48115D01*
X67463Y-48260D01*
X67536Y-48333D01*
X67681Y-48405D01*
X68116Y-48550D01*
X68262Y-48623D01*
X68334Y-48696D01*
X68407Y-48841D01*
Y-49058D01*
X68262Y-49203D01*
X68044Y-49276D01*
X67754D01*
X67536Y-49203D01*
X67391Y-49058D01*
X69256Y-47752D02*
Y-49276D01*
X68748Y-47752D02*
X69763D01*
X70888D02*
X69945D01*
Y-49276D01*
X70888D01*
X69945Y-48478D02*
X70525D01*
X72847Y-47462D02*
X72702Y-47607D01*
X72557Y-47825D01*
X72412Y-48115D01*
X72339Y-48478D01*
Y-48768D01*
X72412Y-49131D01*
X72557Y-49421D01*
X72702Y-49639D01*
X72847Y-49784D01*
X72702Y-47607D02*
X72557Y-47897D01*
X72484Y-48115D01*
X72412Y-48478D01*
Y-48768D01*
X72484Y-49131D01*
X72557Y-49349D01*
X72702Y-49639D01*
X73137Y-48550D02*
X73790D01*
X74008Y-48478D01*
X74081Y-48405D01*
X74153Y-48260D01*
Y-48043D01*
X74081Y-47897D01*
X74008Y-47825D01*
X73790Y-47752D01*
X73137D01*
Y-49276D01*
X74494Y-47752D02*
Y-49276D01*
Y-47752D02*
X75147D01*
X75365Y-47825D01*
X75437Y-47897D01*
X75510Y-48043D01*
Y-48188D01*
X75437Y-48333D01*
X75365Y-48405D01*
X75147Y-48478D01*
X74494D01*
X75002D02*
X75510Y-49276D01*
X75851Y-47752D02*
Y-49276D01*
X76170Y-47752D02*
Y-49276D01*
Y-47752D02*
X76751Y-49276D01*
X77331Y-47752D02*
X76751Y-49276D01*
X77331Y-47752D02*
Y-49276D01*
X78927D02*
X78347Y-47752D01*
X77766Y-49276D01*
X77984Y-48768D02*
X78710D01*
X79283Y-47752D02*
Y-49276D01*
Y-47752D02*
X79936D01*
X80153Y-47825D01*
X80226Y-47897D01*
X80299Y-48043D01*
Y-48188D01*
X80226Y-48333D01*
X80153Y-48405D01*
X79936Y-48478D01*
X79283D01*
X79791D02*
X80299Y-49276D01*
X80640Y-47752D02*
X81220Y-48478D01*
Y-49276D01*
X81801Y-47752D02*
X81220Y-48478D01*
X81996Y-47462D02*
X82142Y-47607D01*
X82287Y-47825D01*
X82432Y-48115D01*
X82504Y-48478D01*
Y-48768D01*
X82432Y-49131D01*
X82287Y-49421D01*
X82142Y-49639D01*
X81996Y-49784D01*
X82142Y-47607D02*
X82287Y-47897D01*
X82359Y-48115D01*
X82432Y-48478D01*
Y-48768D01*
X82359Y-49131D01*
X82287Y-49349D01*
X82142Y-49639D01*
D11*
X59746Y26797D02*
G03*
X60000Y27051I0J254D01*
G01*
X0Y29845D02*
G03*
X0Y41402I-25591J5779D01*
G01*
X60000Y16510D02*
G03*
X59746Y16764I-254J0D01*
G01*
X58713Y17018D02*
G03*
X58967Y16764I254J0D01*
G01*
Y26797D02*
G03*
X58713Y26543I0J-254D01*
G01*
X-90424Y-128016D02*
Y283464D01*
X458216D01*
Y-128016D02*
Y283464D01*
X-90424Y-128016D02*
X458216D01*
X183896Y275844D02*
Y283464D01*
Y-128016D02*
X188976Y-116586D01*
X178816D02*
X188976D01*
X178816D02*
X183896Y-128016D01*
Y-110236D01*
Y-121666D02*
X188976Y-116586D01*
X178816D02*
X183896Y-121666D01*
X450596Y176784D02*
X458216D01*
X450596Y77724D02*
X458216D01*
X450596Y-21336D02*
X458216D01*
X361696Y-128016D02*
Y-120396D01*
X272796Y-128016D02*
Y-120396D01*
X183896Y-128016D02*
Y-120396D01*
X94996Y-128016D02*
Y-120396D01*
X6096Y-128016D02*
Y-120396D01*
X361696Y275844D02*
Y283464D01*
X272796Y275844D02*
Y283464D01*
X94996Y275844D02*
Y283464D01*
X6096Y275844D02*
Y283464D01*
X-90424Y176784D02*
X-82804D01*
X-90424Y77724D02*
X-82804D01*
X-90424Y-21336D02*
X-82804D01*
X326136Y-120396D02*
X450596D01*
Y123444D01*
X-82804Y275844D02*
X450596D01*
Y82804D02*
Y275844D01*
Y123444D02*
Y219964D01*
X-82804Y-120396D02*
X326136D01*
X-82804D02*
Y275844D01*
X-90424Y-21336D02*
X-82804D01*
X450596Y77724D02*
X458216D01*
X361696Y275844D02*
Y283464D01*
X-90424Y176784D02*
X-82804D01*
X6096Y-128016D02*
Y-120396D01*
X450596Y-21336D02*
X458216D01*
X326136Y-120396D02*
X450596D01*
Y123444D01*
X-90424Y-128016D02*
Y283464D01*
X458216D01*
Y-128016D02*
Y283464D01*
X-90424Y-128016D02*
X458216D01*
X272796D02*
Y-120396D01*
X-82804D02*
Y275844D01*
X183896Y-128016D02*
Y-120396D01*
Y-121666D02*
X188976Y-116586D01*
X178816D02*
X183896Y-121666D01*
Y-128016D02*
X188976Y-116586D01*
X178816D02*
X188976D01*
X178816D02*
X183896Y-128016D01*
Y-110236D01*
X361696Y-128016D02*
Y-120396D01*
X-90424Y77724D02*
X-82804D01*
X272796Y275844D02*
Y283464D01*
X450596Y176784D02*
X458216D01*
X94996Y275844D02*
Y283464D01*
X183896Y275844D02*
Y283464D01*
X450596Y123444D02*
Y219964D01*
X-82804Y275844D02*
X450596D01*
Y82804D02*
Y275844D01*
X6096D02*
Y283464D01*
X-82804Y-120396D02*
X326136D01*
X94996Y-128016D02*
Y-120396D01*
X0Y41402D02*
Y127000D01*
X60000D01*
Y27051D02*
Y127000D01*
Y27051D02*
Y127000D01*
X0D02*
X60000D01*
X0Y41402D02*
Y127000D01*
Y0D02*
Y29845D01*
Y0D02*
X18917D01*
Y1785D01*
X19017Y1885D01*
X19667D01*
X19767Y1785D01*
Y0D02*
Y1785D01*
Y0D02*
X23667D01*
Y1785D01*
X23767Y1885D01*
X24417D01*
X24517Y1785D01*
Y0D02*
Y1785D01*
Y0D02*
X60000D01*
Y16510D01*
X58967Y16764D02*
X59746D01*
X58713Y17018D02*
Y26543D01*
X58967Y26797D02*
X59746D01*
X58967D02*
X59746D01*
D12*
X453136Y223265D02*
Y219964D01*
Y223265D02*
X454236D01*
X454708Y223108D01*
X455022Y222794D01*
X455180Y222479D01*
X455337Y222008D01*
Y221222D01*
X455180Y220750D01*
X455022Y220436D01*
X454708Y220121D01*
X454236Y219964D01*
X453136D01*
X455494Y123419D02*
X455337Y123734D01*
X455022Y124048D01*
X454708Y124205D01*
X454079D01*
X453765Y124048D01*
X453450Y123734D01*
X453293Y123419D01*
X453136Y122948D01*
Y122162D01*
X453293Y121690D01*
X453450Y121376D01*
X453765Y121061D01*
X454079Y120904D01*
X454708D01*
X455022Y121061D01*
X455337Y121376D01*
X455494Y121690D01*
X453136Y30225D02*
Y26924D01*
Y30225D02*
X454551D01*
X455022Y30068D01*
X455180Y29911D01*
X455337Y29596D01*
Y29282D01*
X455180Y28968D01*
X455022Y28810D01*
X454551Y28653D01*
X453136D02*
X454551D01*
X455022Y28496D01*
X455180Y28339D01*
X455337Y28024D01*
Y27553D01*
X455180Y27238D01*
X455022Y27081D01*
X454551Y26924D01*
X453136D01*
X455651Y-79756D02*
X454394Y-76455D01*
X453136Y-79756D01*
X453608Y-78656D02*
X455180D01*
X407416Y-122804D02*
X407730Y-122646D01*
X408202Y-122175D01*
Y-125476D01*
X318673Y-122961D02*
Y-122804D01*
X318830Y-122489D01*
X318988Y-122332D01*
X319302Y-122175D01*
X319931D01*
X320245Y-122332D01*
X320402Y-122489D01*
X320560Y-122804D01*
Y-123118D01*
X320402Y-123432D01*
X320088Y-123904D01*
X318516Y-125476D01*
X320717D01*
X229930Y-122175D02*
X231660D01*
X230716Y-123432D01*
X231188D01*
X231502Y-123590D01*
X231660Y-123747D01*
X231817Y-124218D01*
Y-124533D01*
X231660Y-125004D01*
X231345Y-125319D01*
X230874Y-125476D01*
X230402D01*
X229930Y-125319D01*
X229773Y-125162D01*
X229616Y-124847D01*
X142288Y-122175D02*
X140716Y-124376D01*
X143074D01*
X142288Y-122175D02*
Y-125476D01*
X53702Y-122175D02*
X52130D01*
X51973Y-123590D01*
X52130Y-123432D01*
X52602Y-123275D01*
X53074D01*
X53545Y-123432D01*
X53860Y-123747D01*
X54017Y-124218D01*
Y-124533D01*
X53860Y-125004D01*
X53545Y-125319D01*
X53074Y-125476D01*
X52602D01*
X52130Y-125319D01*
X51973Y-125162D01*
X51816Y-124847D01*
X-35198Y-122646D02*
X-35355Y-122332D01*
X-35826Y-122175D01*
X-36141D01*
X-36612Y-122332D01*
X-36927Y-122804D01*
X-37084Y-123590D01*
Y-124376D01*
X-36927Y-125004D01*
X-36612Y-125319D01*
X-36141Y-125476D01*
X-35984D01*
X-35512Y-125319D01*
X-35198Y-125004D01*
X-35040Y-124533D01*
Y-124376D01*
X-35198Y-123904D01*
X-35512Y-123590D01*
X-35984Y-123432D01*
X-36141D01*
X-36612Y-123590D01*
X-36927Y-123904D01*
X-37084Y-124376D01*
X407416Y281056D02*
X407730Y281214D01*
X408202Y281685D01*
Y278384D01*
X318673Y280899D02*
Y281056D01*
X318830Y281371D01*
X318988Y281528D01*
X319302Y281685D01*
X319931D01*
X320245Y281528D01*
X320402Y281371D01*
X320560Y281056D01*
Y280742D01*
X320402Y280428D01*
X320088Y279956D01*
X318516Y278384D01*
X320717D01*
X229930Y281685D02*
X231660D01*
X230716Y280428D01*
X231188D01*
X231502Y280270D01*
X231660Y280113D01*
X231817Y279642D01*
Y279327D01*
X231660Y278856D01*
X231345Y278541D01*
X230874Y278384D01*
X230402D01*
X229930Y278541D01*
X229773Y278698D01*
X229616Y279013D01*
X142288Y281685D02*
X140716Y279484D01*
X143074D01*
X142288Y281685D02*
Y278384D01*
X53702Y281685D02*
X52130D01*
X51973Y280270D01*
X52130Y280428D01*
X52602Y280585D01*
X53074D01*
X53545Y280428D01*
X53860Y280113D01*
X54017Y279642D01*
Y279327D01*
X53860Y278856D01*
X53545Y278541D01*
X53074Y278384D01*
X52602D01*
X52130Y278541D01*
X51973Y278698D01*
X51816Y279013D01*
X-35198Y281214D02*
X-35355Y281528D01*
X-35826Y281685D01*
X-36141D01*
X-36612Y281528D01*
X-36927Y281056D01*
X-37084Y280270D01*
Y279484D01*
X-36927Y278856D01*
X-36612Y278541D01*
X-36141Y278384D01*
X-35984D01*
X-35512Y278541D01*
X-35198Y278856D01*
X-35040Y279327D01*
Y279484D01*
X-35198Y279956D01*
X-35512Y280270D01*
X-35984Y280428D01*
X-36141D01*
X-36612Y280270D01*
X-36927Y279956D01*
X-37084Y279484D01*
X-85369Y-79756D02*
X-86626Y-76455D01*
X-87884Y-79756D01*
X-87412Y-78656D02*
X-85840D01*
X-87884Y30225D02*
Y26924D01*
Y30225D02*
X-86469D01*
X-85998Y30068D01*
X-85840Y29911D01*
X-85683Y29596D01*
Y29282D01*
X-85840Y28968D01*
X-85998Y28810D01*
X-86469Y28653D01*
X-87884D02*
X-86469D01*
X-85998Y28496D01*
X-85840Y28339D01*
X-85683Y28024D01*
Y27553D01*
X-85840Y27238D01*
X-85998Y27081D01*
X-86469Y26924D01*
X-87884D01*
X-85526Y123419D02*
X-85683Y123734D01*
X-85998Y124048D01*
X-86312Y124205D01*
X-86941D01*
X-87255Y124048D01*
X-87570Y123734D01*
X-87727Y123419D01*
X-87884Y122948D01*
Y122162D01*
X-87727Y121690D01*
X-87570Y121376D01*
X-87255Y121061D01*
X-86941Y120904D01*
X-86312D01*
X-85998Y121061D01*
X-85683Y121376D01*
X-85526Y121690D01*
X-87884Y223265D02*
Y219964D01*
Y223265D02*
X-86784D01*
X-86312Y223108D01*
X-85998Y222794D01*
X-85840Y222479D01*
X-85683Y222008D01*
Y221222D01*
X-85840Y220750D01*
X-85998Y220436D01*
X-86312Y220121D01*
X-86784Y219964D01*
X-87884D01*
X-85369Y-79756D02*
X-86626Y-76455D01*
X-87884Y-79756D01*
X-87412Y-78656D02*
X-85840D01*
X453136Y223265D02*
Y219964D01*
Y223265D02*
X454236D01*
X454708Y223108D01*
X455022Y222794D01*
X455180Y222479D01*
X455337Y222008D01*
Y221222D01*
X455180Y220750D01*
X455022Y220436D01*
X454708Y220121D01*
X454236Y219964D01*
X453136D01*
X-85526Y123419D02*
X-85683Y123734D01*
X-85998Y124048D01*
X-86312Y124205D01*
X-86941D01*
X-87255Y124048D01*
X-87570Y123734D01*
X-87727Y123419D01*
X-87884Y122948D01*
Y122162D01*
X-87727Y121690D01*
X-87570Y121376D01*
X-87255Y121061D01*
X-86941Y120904D01*
X-86312D01*
X-85998Y121061D01*
X-85683Y121376D01*
X-85526Y121690D01*
X407416Y281056D02*
X407730Y281214D01*
X408202Y281685D01*
Y278384D01*
X53702Y-122175D02*
X52130D01*
X51973Y-123590D01*
X52130Y-123432D01*
X52602Y-123275D01*
X53074D01*
X53545Y-123432D01*
X53860Y-123747D01*
X54017Y-124218D01*
Y-124533D01*
X53860Y-125004D01*
X53545Y-125319D01*
X53074Y-125476D01*
X52602D01*
X52130Y-125319D01*
X51973Y-125162D01*
X51816Y-124847D01*
X455494Y123419D02*
X455337Y123734D01*
X455022Y124048D01*
X454708Y124205D01*
X454079D01*
X453765Y124048D01*
X453450Y123734D01*
X453293Y123419D01*
X453136Y122948D01*
Y122162D01*
X453293Y121690D01*
X453450Y121376D01*
X453765Y121061D01*
X454079Y120904D01*
X454708D01*
X455022Y121061D01*
X455337Y121376D01*
X455494Y121690D01*
X142288Y-122175D02*
X140716Y-124376D01*
X143074D01*
X142288Y-122175D02*
Y-125476D01*
X318673Y280899D02*
Y281056D01*
X318830Y281371D01*
X318988Y281528D01*
X319302Y281685D01*
X319931D01*
X320245Y281528D01*
X320402Y281371D01*
X320560Y281056D01*
Y280742D01*
X320402Y280428D01*
X320088Y279956D01*
X318516Y278384D01*
X320717D01*
X-35198Y281214D02*
X-35355Y281528D01*
X-35826Y281685D01*
X-36141D01*
X-36612Y281528D01*
X-36927Y281056D01*
X-37084Y280270D01*
Y279484D01*
X-36927Y278856D01*
X-36612Y278541D01*
X-36141Y278384D01*
X-35984D01*
X-35512Y278541D01*
X-35198Y278856D01*
X-35040Y279327D01*
Y279484D01*
X-35198Y279956D01*
X-35512Y280270D01*
X-35984Y280428D01*
X-36141D01*
X-36612Y280270D01*
X-36927Y279956D01*
X-37084Y279484D01*
X-87884Y223265D02*
Y219964D01*
Y223265D02*
X-86784D01*
X-86312Y223108D01*
X-85998Y222794D01*
X-85840Y222479D01*
X-85683Y222008D01*
Y221222D01*
X-85840Y220750D01*
X-85998Y220436D01*
X-86312Y220121D01*
X-86784Y219964D01*
X-87884D01*
X53702Y281685D02*
X52130D01*
X51973Y280270D01*
X52130Y280428D01*
X52602Y280585D01*
X53074D01*
X53545Y280428D01*
X53860Y280113D01*
X54017Y279642D01*
Y279327D01*
X53860Y278856D01*
X53545Y278541D01*
X53074Y278384D01*
X52602D01*
X52130Y278541D01*
X51973Y278698D01*
X51816Y279013D01*
X-35198Y-122646D02*
X-35355Y-122332D01*
X-35826Y-122175D01*
X-36141D01*
X-36612Y-122332D01*
X-36927Y-122804D01*
X-37084Y-123590D01*
Y-124376D01*
X-36927Y-125004D01*
X-36612Y-125319D01*
X-36141Y-125476D01*
X-35984D01*
X-35512Y-125319D01*
X-35198Y-125004D01*
X-35040Y-124533D01*
Y-124376D01*
X-35198Y-123904D01*
X-35512Y-123590D01*
X-35984Y-123432D01*
X-36141D01*
X-36612Y-123590D01*
X-36927Y-123904D01*
X-37084Y-124376D01*
X229930Y-122175D02*
X231660D01*
X230716Y-123432D01*
X231188D01*
X231502Y-123590D01*
X231660Y-123747D01*
X231817Y-124218D01*
Y-124533D01*
X231660Y-125004D01*
X231345Y-125319D01*
X230874Y-125476D01*
X230402D01*
X229930Y-125319D01*
X229773Y-125162D01*
X229616Y-124847D01*
X453136Y30225D02*
Y26924D01*
Y30225D02*
X454551D01*
X455022Y30068D01*
X455180Y29911D01*
X455337Y29596D01*
Y29282D01*
X455180Y28968D01*
X455022Y28810D01*
X454551Y28653D01*
X453136D02*
X454551D01*
X455022Y28496D01*
X455180Y28339D01*
X455337Y28024D01*
Y27553D01*
X455180Y27238D01*
X455022Y27081D01*
X454551Y26924D01*
X453136D01*
X229930Y281685D02*
X231660D01*
X230716Y280428D01*
X231188D01*
X231502Y280270D01*
X231660Y280113D01*
X231817Y279642D01*
Y279327D01*
X231660Y278856D01*
X231345Y278541D01*
X230874Y278384D01*
X230402D01*
X229930Y278541D01*
X229773Y278698D01*
X229616Y279013D01*
X455651Y-79756D02*
X454394Y-76455D01*
X453136Y-79756D01*
X453608Y-78656D02*
X455180D01*
X-87884Y30225D02*
Y26924D01*
Y30225D02*
X-86469D01*
X-85998Y30068D01*
X-85840Y29911D01*
X-85683Y29596D01*
Y29282D01*
X-85840Y28968D01*
X-85998Y28810D01*
X-86469Y28653D01*
X-87884D02*
X-86469D01*
X-85998Y28496D01*
X-85840Y28339D01*
X-85683Y28024D01*
Y27553D01*
X-85840Y27238D01*
X-85998Y27081D01*
X-86469Y26924D01*
X-87884D01*
X407416Y-122804D02*
X407730Y-122646D01*
X408202Y-122175D01*
Y-125476D01*
X142288Y281685D02*
X140716Y279484D01*
X143074D01*
X142288Y281685D02*
Y278384D01*
X318673Y-122961D02*
Y-122804D01*
X318830Y-122489D01*
X318988Y-122332D01*
X319302Y-122175D01*
X319931D01*
X320245Y-122332D01*
X320402Y-122489D01*
X320560Y-122804D01*
Y-123118D01*
X320402Y-123432D01*
X320088Y-123904D01*
X318516Y-125476D01*
X320717D01*
D13*
X28155Y5165D02*
D03*
Y6065D02*
D03*
X29505Y5165D02*
D03*
Y6065D02*
D03*
X49156Y5163D02*
D03*
Y6063D02*
D03*
X50506Y5163D02*
D03*
Y6063D02*
D03*
X12152Y123146D02*
D03*
Y124046D02*
D03*
X13502Y123146D02*
D03*
Y124046D02*
D03*
D14*
X27105Y5615D02*
D03*
X30555D02*
D03*
X48106Y5613D02*
D03*
X51556D02*
D03*
X11102Y123596D02*
D03*
X14552D02*
D03*
D15*
X28830Y4390D02*
D03*
Y6840D02*
D03*
X49831Y4388D02*
D03*
Y6838D02*
D03*
X12827Y122371D02*
D03*
Y124821D02*
D03*
D16*
X21971Y123444D02*
D03*
Y124968D02*
D03*
X17272D02*
D03*
Y123444D02*
D03*
X24892Y8509D02*
D03*
Y6985D02*
D03*
X26670Y124968D02*
D03*
Y123444D02*
D03*
X31369Y124968D02*
D03*
Y123444D02*
D03*
D17*
X9906Y124841D02*
D03*
X8382D02*
D03*
X45339Y5080D02*
D03*
Y6604D02*
D03*
D18*
X13208Y121158D02*
D03*
X12192D02*
D03*
X29210Y3302D02*
D03*
X28194D02*
D03*
D19*
X10795Y121031D02*
D03*
X9271D02*
D03*
D20*
X26670Y121666D02*
D03*
Y120142D02*
D03*
X31369Y121666D02*
D03*
Y120142D02*
D03*
X17272Y121666D02*
D03*
Y120142D02*
D03*
X21971Y121666D02*
D03*
Y120142D02*
D03*
D21*
X54610Y9271D02*
D03*
X6604Y118491D02*
D03*
X54356Y118110D02*
D03*
M02*
