G04*
G04 #@! TF.GenerationSoftware,Altium Limited,Altium Designer,20.2.6 (244)*
G04*
G04 Layer_Color=128*
%FSLAX43Y43*%
%MOMM*%
G71*
G04*
G04 #@! TF.SameCoordinates,3E902E38-8288-4ECE-AB23-8A7451E8E44E*
G04*
G04*
G04 #@! TF.FilePolarity,Positive*
G04*
G01*
G75*
%ADD10C,0.102*%
%ADD11C,0.025*%
%ADD12C,0.254*%
%ADD16R,0.813X0.889*%
%ADD17C,0.152*%
%ADD18R,0.559X0.559*%
%ADD19R,0.787X0.813*%
%ADD20R,0.813X0.787*%
%ADD21C,1.016*%
%ADD22R,1.803X2.692*%
%ADD23R,2.692X1.803*%
%ADD24R,1.600X1.295*%
%ADD25R,1.270X3.683*%
%ADD26R,3.683X1.270*%
%ADD27R,1.270X3.429*%
%ADD28R,3.429X1.270*%
%ADD29R,2.413X1.016*%
%ADD30R,2.286X1.016*%
%ADD31R,0.635X1.143*%
%ADD32R,1.143X0.635*%
%ADD33R,1.016X1.803*%
%ADD34R,3.302X1.803*%
%ADD35R,1.803X3.302*%
%ADD36R,1.803X1.016*%
%ADD37R,0.406X0.787*%
%ADD38P,0.027X8X22.5*%
%ADD39R,1.778X0.559*%
%ADD40R,0.813X0.813*%
%ADD41O,0.813X0.279*%
%ADD42O,0.279X0.813*%
%ADD43R,4.115X4.115*%
%ADD44R,1.219X2.489*%
%ADD45R,2.007X2.489*%
%ADD46R,2.489X2.007*%
%ADD47R,1.524X1.016*%
%ADD48R,1.905X1.956*%
%ADD49R,3.505X1.600*%
%ADD50R,3.099X1.194*%
%ADD51R,1.600X0.813*%
%ADD52R,1.600X0.838*%
%ADD53R,3.429X1.397*%
%ADD54R,3.073X1.524*%
%ADD55R,0.406X1.346*%
%ADD56R,2.896X2.007*%
%ADD57R,2.007X2.515*%
%ADD58R,0.508X2.261*%
%ADD59R,0.279X1.346*%
%ADD60R,1.346X0.279*%
%ADD61R,1.118X1.499*%
%ADD62R,1.350X0.800*%
%ADD63R,4.000X5.000*%
%ADD64C,0.400*%
%ADD65R,0.813X0.305*%
%ADD66R,1.118X0.406*%
%ADD67R,2.007X2.184*%
%ADD68R,1.245X0.279*%
%ADD69R,1.143X0.813*%
%ADD70R,2.286X2.261*%
%ADD71R,2.800X1.350*%
%ADD72R,1.600X1.450*%
%ADD73C,0.406*%
%ADD74C,0.249*%
%ADD75R,2.540X1.168*%
%ADD76R,1.168X1.524*%
%ADD77R,1.524X1.168*%
%ADD78R,0.889X0.813*%
%ADD79R,1.450X1.600*%
G36*
X24638Y18034D02*
X23717D01*
X23209Y18542D01*
X23717Y19050D01*
X24638D01*
Y18034D01*
D02*
G37*
G36*
X23095Y18682D02*
X22953Y18540D01*
X23459Y18034D01*
X22098D01*
Y19050D01*
X23463D01*
X23095Y18682D01*
D02*
G37*
G36*
X33020Y16923D02*
X32652Y17291D01*
X32510Y17433D01*
X32004Y16927D01*
Y18288D01*
X33020D01*
Y16923D01*
D02*
G37*
G36*
Y16669D02*
Y15748D01*
X32004D01*
Y16669D01*
X32512Y17177D01*
X33020Y16669D01*
D02*
G37*
G36*
X39497Y14319D02*
X38989Y13811D01*
X38481Y14319D01*
Y15240D01*
X39497D01*
Y14319D01*
D02*
G37*
G36*
X38849Y13697D02*
X38991Y13555D01*
X39497Y14061D01*
Y12700D01*
X38481D01*
Y14065D01*
X38849Y13697D01*
D02*
G37*
G36*
X39497Y16923D02*
X39129Y17291D01*
X38987Y17433D01*
X38481Y16927D01*
Y18288D01*
X39497D01*
Y16923D01*
D02*
G37*
G36*
Y16669D02*
Y15748D01*
X38481D01*
Y16669D01*
X38989Y17177D01*
X39497Y16669D01*
D02*
G37*
G36*
X49657Y28543D02*
X49149Y28035D01*
X48641Y28543D01*
Y29464D01*
X49657D01*
Y28543D01*
D02*
G37*
G36*
X49009Y27921D02*
X49151Y27779D01*
X49657Y28285D01*
Y26924D01*
X48641D01*
Y28289D01*
X49009Y27921D01*
D02*
G37*
G36*
X56118Y40784D02*
X57018D01*
Y40384D01*
X56118D01*
Y40134D01*
X57018D01*
Y39734D01*
X56118D01*
Y39459D01*
X54118D01*
Y39734D01*
X53218D01*
Y40134D01*
X54118D01*
Y40384D01*
X53218D01*
Y40784D01*
X54118D01*
Y41059D01*
X56118D01*
Y40784D01*
D02*
G37*
G36*
X50546Y53118D02*
X50178Y53486D01*
X50036Y53628D01*
X49530Y53122D01*
Y54483D01*
X50546D01*
Y53118D01*
D02*
G37*
G36*
Y52864D02*
Y51943D01*
X49530D01*
Y52864D01*
X50038Y53372D01*
X50546Y52864D01*
D02*
G37*
G36*
X49403Y57404D02*
X48482D01*
X47974Y57912D01*
X48482Y58420D01*
X49403D01*
Y57404D01*
D02*
G37*
G36*
X47860Y58052D02*
X47718Y57910D01*
X48224Y57404D01*
X46863D01*
Y58420D01*
X48228D01*
X47860Y58052D01*
D02*
G37*
G36*
X49403Y55880D02*
X48482D01*
X47974Y56388D01*
X48482Y56896D01*
X49403D01*
Y55880D01*
D02*
G37*
G36*
X47860Y56528D02*
X47718Y56386D01*
X48224Y55880D01*
X46863D01*
Y56896D01*
X48228D01*
X47860Y56528D01*
D02*
G37*
G36*
X20066Y117856D02*
X18701D01*
X19069Y118224D01*
X19211Y118366D01*
X18705Y118872D01*
X20066D01*
Y117856D01*
D02*
G37*
G36*
X18955Y118364D02*
X18447Y117856D01*
X17526D01*
Y118872D01*
X18447D01*
X18955Y118364D01*
D02*
G37*
G36*
X20066Y116332D02*
X19145D01*
X18637Y116840D01*
X19145Y117348D01*
X20066D01*
Y116332D01*
D02*
G37*
G36*
X18523Y116980D02*
X18381Y116838D01*
X18887Y116332D01*
X17526D01*
Y117348D01*
X18891D01*
X18523Y116980D01*
D02*
G37*
G36*
X26289Y111982D02*
X25781Y111474D01*
X25273Y111982D01*
Y112903D01*
X26289D01*
Y111982D01*
D02*
G37*
G36*
X31369Y111411D02*
X31001Y111779D01*
X30859Y111921D01*
X30353Y111415D01*
Y112776D01*
X31369D01*
Y111411D01*
D02*
G37*
G36*
X25641Y111360D02*
X25783Y111218D01*
X26289Y111724D01*
Y110363D01*
X25273D01*
Y111728D01*
X25641Y111360D01*
D02*
G37*
G36*
X31369Y111157D02*
Y110236D01*
X30353D01*
Y111157D01*
X30861Y111665D01*
X31369Y111157D01*
D02*
G37*
G36*
X24257Y97885D02*
X23749Y97377D01*
X23241Y97885D01*
Y98806D01*
X24257D01*
Y97885D01*
D02*
G37*
G36*
X23609Y97263D02*
X23751Y97121D01*
X24257Y97627D01*
Y96266D01*
X23241D01*
Y97631D01*
X23609Y97263D01*
D02*
G37*
G36*
X12700Y80899D02*
X11335D01*
X11703Y81267D01*
X11845Y81409D01*
X11339Y81915D01*
X12700D01*
Y80899D01*
D02*
G37*
G36*
X11589Y81407D02*
X11081Y80899D01*
X10160D01*
Y81915D01*
X11081D01*
X11589Y81407D01*
D02*
G37*
G36*
X17907Y64008D02*
X16542D01*
X16910Y64376D01*
X17052Y64518D01*
X16546Y65024D01*
X17907D01*
Y64008D01*
D02*
G37*
G36*
X16796Y64516D02*
X16288Y64008D01*
X15367D01*
Y65024D01*
X16288D01*
X16796Y64516D01*
D02*
G37*
G36*
X49403Y60706D02*
X48482D01*
X47974Y61214D01*
X48482Y61722D01*
X49403D01*
Y60706D01*
D02*
G37*
G36*
X47860Y61354D02*
X47718Y61212D01*
X48224Y60706D01*
X46863D01*
Y61722D01*
X48228D01*
X47860Y61354D01*
D02*
G37*
G36*
X49403Y59055D02*
X48482D01*
X47974Y59563D01*
X48482Y60071D01*
X49403D01*
Y59055D01*
D02*
G37*
G36*
X47860Y59703D02*
X47718Y59561D01*
X48224Y59055D01*
X46863D01*
Y60071D01*
X48228D01*
X47860Y59703D01*
D02*
G37*
D10*
X55499Y-47752D02*
Y-49276D01*
Y-47752D02*
X56152D01*
X56370Y-47825D01*
X56442Y-47897D01*
X56515Y-48043D01*
Y-48188D01*
X56442Y-48333D01*
X56370Y-48405D01*
X56152Y-48478D01*
X55499D02*
X56152D01*
X56370Y-48550D01*
X56442Y-48623D01*
X56515Y-48768D01*
Y-48986D01*
X56442Y-49131D01*
X56370Y-49203D01*
X56152Y-49276D01*
X55499D01*
X57291Y-47752D02*
X57146Y-47825D01*
X57001Y-47970D01*
X56928Y-48115D01*
X56856Y-48333D01*
Y-48696D01*
X56928Y-48913D01*
X57001Y-49058D01*
X57146Y-49203D01*
X57291Y-49276D01*
X57581D01*
X57726Y-49203D01*
X57872Y-49058D01*
X57944Y-48913D01*
X58017Y-48696D01*
Y-48333D01*
X57944Y-48115D01*
X57872Y-47970D01*
X57726Y-47825D01*
X57581Y-47752D01*
X57291D01*
X58880D02*
Y-49276D01*
X58372Y-47752D02*
X59388D01*
X60077D02*
Y-49276D01*
X59569Y-47752D02*
X60585D01*
X61202D02*
X61057Y-47825D01*
X60912Y-47970D01*
X60839Y-48115D01*
X60767Y-48333D01*
Y-48696D01*
X60839Y-48913D01*
X60912Y-49058D01*
X61057Y-49203D01*
X61202Y-49276D01*
X61492D01*
X61637Y-49203D01*
X61782Y-49058D01*
X61855Y-48913D01*
X61927Y-48696D01*
Y-48333D01*
X61855Y-48115D01*
X61782Y-47970D01*
X61637Y-47825D01*
X61492Y-47752D01*
X61202D01*
X62283D02*
Y-49276D01*
Y-47752D02*
X62863Y-49276D01*
X63444Y-47752D02*
X62863Y-49276D01*
X63444Y-47752D02*
Y-49276D01*
X66092Y-47970D02*
X65947Y-47825D01*
X65729Y-47752D01*
X65439D01*
X65221Y-47825D01*
X65076Y-47970D01*
Y-48115D01*
X65149Y-48260D01*
X65221Y-48333D01*
X65367Y-48405D01*
X65802Y-48550D01*
X65947Y-48623D01*
X66020Y-48696D01*
X66092Y-48841D01*
Y-49058D01*
X65947Y-49203D01*
X65729Y-49276D01*
X65439D01*
X65221Y-49203D01*
X65076Y-49058D01*
X66869Y-47752D02*
X66723Y-47825D01*
X66578Y-47970D01*
X66506Y-48115D01*
X66433Y-48333D01*
Y-48696D01*
X66506Y-48913D01*
X66578Y-49058D01*
X66723Y-49203D01*
X66869Y-49276D01*
X67159D01*
X67304Y-49203D01*
X67449Y-49058D01*
X67522Y-48913D01*
X67594Y-48696D01*
Y-48333D01*
X67522Y-48115D01*
X67449Y-47970D01*
X67304Y-47825D01*
X67159Y-47752D01*
X66869D01*
X67950D02*
Y-49276D01*
X68820D01*
X68987Y-47752D02*
Y-49276D01*
Y-47752D02*
X69495D01*
X69713Y-47825D01*
X69858Y-47970D01*
X69930Y-48115D01*
X70003Y-48333D01*
Y-48696D01*
X69930Y-48913D01*
X69858Y-49058D01*
X69713Y-49203D01*
X69495Y-49276D01*
X68987D01*
X71287Y-47752D02*
X70344D01*
Y-49276D01*
X71287D01*
X70344Y-48478D02*
X70924D01*
X71541Y-47752D02*
Y-49276D01*
Y-47752D02*
X72194D01*
X72412Y-47825D01*
X72484Y-47897D01*
X72557Y-48043D01*
Y-48188D01*
X72484Y-48333D01*
X72412Y-48405D01*
X72194Y-48478D01*
X71541D01*
X72049D02*
X72557Y-49276D01*
X74095Y-48550D02*
X74748D01*
X74966Y-48478D01*
X75038Y-48405D01*
X75111Y-48260D01*
Y-48043D01*
X75038Y-47897D01*
X74966Y-47825D01*
X74748Y-47752D01*
X74095D01*
Y-49276D01*
X76613D02*
X76032Y-47752D01*
X75452Y-49276D01*
X75670Y-48768D02*
X76395D01*
X77984Y-47970D02*
X77839Y-47825D01*
X77621Y-47752D01*
X77331D01*
X77113Y-47825D01*
X76968Y-47970D01*
Y-48115D01*
X77041Y-48260D01*
X77113Y-48333D01*
X77259Y-48405D01*
X77694Y-48550D01*
X77839Y-48623D01*
X77912Y-48696D01*
X77984Y-48841D01*
Y-49058D01*
X77839Y-49203D01*
X77621Y-49276D01*
X77331D01*
X77113Y-49203D01*
X76968Y-49058D01*
X78833Y-47752D02*
Y-49276D01*
X78325Y-47752D02*
X79341D01*
X80465D02*
X79522D01*
Y-49276D01*
X80465D01*
X79522Y-48478D02*
X80103D01*
D11*
X59746Y26797D02*
G03*
X60000Y27051I0J254D01*
G01*
X0Y29845D02*
G03*
X0Y41402I-25591J5779D01*
G01*
X60000Y16510D02*
G03*
X59746Y16764I-254J0D01*
G01*
X58713Y17018D02*
G03*
X58967Y16764I254J0D01*
G01*
Y26797D02*
G03*
X58713Y26543I0J-254D01*
G01*
X-90424Y-128016D02*
Y283464D01*
X458216D01*
Y-128016D02*
Y283464D01*
X-90424Y-128016D02*
X458216D01*
X183896Y275844D02*
Y283464D01*
Y-128016D02*
X188976Y-116586D01*
X178816D02*
X188976D01*
X178816D02*
X183896Y-128016D01*
Y-110236D01*
Y-121666D02*
X188976Y-116586D01*
X178816D02*
X183896Y-121666D01*
X450596Y176784D02*
X458216D01*
X450596Y77724D02*
X458216D01*
X450596Y-21336D02*
X458216D01*
X361696Y-128016D02*
Y-120396D01*
X272796Y-128016D02*
Y-120396D01*
X183896Y-128016D02*
Y-120396D01*
X94996Y-128016D02*
Y-120396D01*
X6096Y-128016D02*
Y-120396D01*
X361696Y275844D02*
Y283464D01*
X272796Y275844D02*
Y283464D01*
X94996Y275844D02*
Y283464D01*
X6096Y275844D02*
Y283464D01*
X-90424Y176784D02*
X-82804D01*
X-90424Y77724D02*
X-82804D01*
X-90424Y-21336D02*
X-82804D01*
X326136Y-120396D02*
X450596D01*
Y123444D01*
X-82804Y275844D02*
X450596D01*
Y82804D02*
Y275844D01*
Y123444D02*
Y219964D01*
X-82804Y-120396D02*
X326136D01*
X-82804D02*
Y275844D01*
X-90424Y-21336D02*
X-82804D01*
X450596Y77724D02*
X458216D01*
X361696Y275844D02*
Y283464D01*
X-90424Y176784D02*
X-82804D01*
X6096Y-128016D02*
Y-120396D01*
X450596Y-21336D02*
X458216D01*
X326136Y-120396D02*
X450596D01*
Y123444D01*
X-90424Y-128016D02*
Y283464D01*
X458216D01*
Y-128016D02*
Y283464D01*
X-90424Y-128016D02*
X458216D01*
X272796D02*
Y-120396D01*
X-82804D02*
Y275844D01*
X183896Y-128016D02*
Y-120396D01*
Y-121666D02*
X188976Y-116586D01*
X178816D02*
X183896Y-121666D01*
Y-128016D02*
X188976Y-116586D01*
X178816D02*
X188976D01*
X178816D02*
X183896Y-128016D01*
Y-110236D01*
X361696Y-128016D02*
Y-120396D01*
X-90424Y77724D02*
X-82804D01*
X272796Y275844D02*
Y283464D01*
X450596Y176784D02*
X458216D01*
X94996Y275844D02*
Y283464D01*
X183896Y275844D02*
Y283464D01*
X450596Y123444D02*
Y219964D01*
X-82804Y275844D02*
X450596D01*
Y82804D02*
Y275844D01*
X6096D02*
Y283464D01*
X-82804Y-120396D02*
X326136D01*
X94996Y-128016D02*
Y-120396D01*
X0Y41402D02*
Y127000D01*
X60000D01*
Y27051D02*
Y127000D01*
Y27051D02*
Y127000D01*
X0D02*
X60000D01*
X0Y41402D02*
Y127000D01*
Y0D02*
Y29845D01*
Y0D02*
X18917D01*
Y1785D01*
X19017Y1885D01*
X19667D01*
X19767Y1785D01*
Y0D02*
Y1785D01*
Y0D02*
X23667D01*
Y1785D01*
X23767Y1885D01*
X24417D01*
X24517Y1785D01*
Y0D02*
Y1785D01*
Y0D02*
X60000D01*
Y16510D01*
X58967Y16764D02*
X59746D01*
X58713Y17018D02*
Y26543D01*
X58967Y26797D02*
X59746D01*
X58967D02*
X59746D01*
D12*
X453136Y223265D02*
Y219964D01*
Y223265D02*
X454236D01*
X454708Y223108D01*
X455022Y222794D01*
X455180Y222479D01*
X455337Y222008D01*
Y221222D01*
X455180Y220750D01*
X455022Y220436D01*
X454708Y220121D01*
X454236Y219964D01*
X453136D01*
X455494Y123419D02*
X455337Y123734D01*
X455022Y124048D01*
X454708Y124205D01*
X454079D01*
X453765Y124048D01*
X453450Y123734D01*
X453293Y123419D01*
X453136Y122948D01*
Y122162D01*
X453293Y121690D01*
X453450Y121376D01*
X453765Y121061D01*
X454079Y120904D01*
X454708D01*
X455022Y121061D01*
X455337Y121376D01*
X455494Y121690D01*
X453136Y30225D02*
Y26924D01*
Y30225D02*
X454551D01*
X455022Y30068D01*
X455180Y29911D01*
X455337Y29596D01*
Y29282D01*
X455180Y28968D01*
X455022Y28810D01*
X454551Y28653D01*
X453136D02*
X454551D01*
X455022Y28496D01*
X455180Y28339D01*
X455337Y28024D01*
Y27553D01*
X455180Y27238D01*
X455022Y27081D01*
X454551Y26924D01*
X453136D01*
X455651Y-79756D02*
X454394Y-76455D01*
X453136Y-79756D01*
X453608Y-78656D02*
X455180D01*
X407416Y-122804D02*
X407730Y-122646D01*
X408202Y-122175D01*
Y-125476D01*
X318673Y-122961D02*
Y-122804D01*
X318830Y-122489D01*
X318988Y-122332D01*
X319302Y-122175D01*
X319931D01*
X320245Y-122332D01*
X320402Y-122489D01*
X320560Y-122804D01*
Y-123118D01*
X320402Y-123432D01*
X320088Y-123904D01*
X318516Y-125476D01*
X320717D01*
X229930Y-122175D02*
X231660D01*
X230716Y-123432D01*
X231188D01*
X231502Y-123590D01*
X231660Y-123747D01*
X231817Y-124218D01*
Y-124533D01*
X231660Y-125004D01*
X231345Y-125319D01*
X230874Y-125476D01*
X230402D01*
X229930Y-125319D01*
X229773Y-125162D01*
X229616Y-124847D01*
X142288Y-122175D02*
X140716Y-124376D01*
X143074D01*
X142288Y-122175D02*
Y-125476D01*
X53702Y-122175D02*
X52130D01*
X51973Y-123590D01*
X52130Y-123432D01*
X52602Y-123275D01*
X53074D01*
X53545Y-123432D01*
X53860Y-123747D01*
X54017Y-124218D01*
Y-124533D01*
X53860Y-125004D01*
X53545Y-125319D01*
X53074Y-125476D01*
X52602D01*
X52130Y-125319D01*
X51973Y-125162D01*
X51816Y-124847D01*
X-35198Y-122646D02*
X-35355Y-122332D01*
X-35826Y-122175D01*
X-36141D01*
X-36612Y-122332D01*
X-36927Y-122804D01*
X-37084Y-123590D01*
Y-124376D01*
X-36927Y-125004D01*
X-36612Y-125319D01*
X-36141Y-125476D01*
X-35984D01*
X-35512Y-125319D01*
X-35198Y-125004D01*
X-35040Y-124533D01*
Y-124376D01*
X-35198Y-123904D01*
X-35512Y-123590D01*
X-35984Y-123432D01*
X-36141D01*
X-36612Y-123590D01*
X-36927Y-123904D01*
X-37084Y-124376D01*
X407416Y281056D02*
X407730Y281214D01*
X408202Y281685D01*
Y278384D01*
X318673Y280899D02*
Y281056D01*
X318830Y281371D01*
X318988Y281528D01*
X319302Y281685D01*
X319931D01*
X320245Y281528D01*
X320402Y281371D01*
X320560Y281056D01*
Y280742D01*
X320402Y280428D01*
X320088Y279956D01*
X318516Y278384D01*
X320717D01*
X229930Y281685D02*
X231660D01*
X230716Y280428D01*
X231188D01*
X231502Y280270D01*
X231660Y280113D01*
X231817Y279642D01*
Y279327D01*
X231660Y278856D01*
X231345Y278541D01*
X230874Y278384D01*
X230402D01*
X229930Y278541D01*
X229773Y278698D01*
X229616Y279013D01*
X142288Y281685D02*
X140716Y279484D01*
X143074D01*
X142288Y281685D02*
Y278384D01*
X53702Y281685D02*
X52130D01*
X51973Y280270D01*
X52130Y280428D01*
X52602Y280585D01*
X53074D01*
X53545Y280428D01*
X53860Y280113D01*
X54017Y279642D01*
Y279327D01*
X53860Y278856D01*
X53545Y278541D01*
X53074Y278384D01*
X52602D01*
X52130Y278541D01*
X51973Y278698D01*
X51816Y279013D01*
X-35198Y281214D02*
X-35355Y281528D01*
X-35826Y281685D01*
X-36141D01*
X-36612Y281528D01*
X-36927Y281056D01*
X-37084Y280270D01*
Y279484D01*
X-36927Y278856D01*
X-36612Y278541D01*
X-36141Y278384D01*
X-35984D01*
X-35512Y278541D01*
X-35198Y278856D01*
X-35040Y279327D01*
Y279484D01*
X-35198Y279956D01*
X-35512Y280270D01*
X-35984Y280428D01*
X-36141D01*
X-36612Y280270D01*
X-36927Y279956D01*
X-37084Y279484D01*
X-85369Y-79756D02*
X-86626Y-76455D01*
X-87884Y-79756D01*
X-87412Y-78656D02*
X-85840D01*
X-87884Y30225D02*
Y26924D01*
Y30225D02*
X-86469D01*
X-85998Y30068D01*
X-85840Y29911D01*
X-85683Y29596D01*
Y29282D01*
X-85840Y28968D01*
X-85998Y28810D01*
X-86469Y28653D01*
X-87884D02*
X-86469D01*
X-85998Y28496D01*
X-85840Y28339D01*
X-85683Y28024D01*
Y27553D01*
X-85840Y27238D01*
X-85998Y27081D01*
X-86469Y26924D01*
X-87884D01*
X-85526Y123419D02*
X-85683Y123734D01*
X-85998Y124048D01*
X-86312Y124205D01*
X-86941D01*
X-87255Y124048D01*
X-87570Y123734D01*
X-87727Y123419D01*
X-87884Y122948D01*
Y122162D01*
X-87727Y121690D01*
X-87570Y121376D01*
X-87255Y121061D01*
X-86941Y120904D01*
X-86312D01*
X-85998Y121061D01*
X-85683Y121376D01*
X-85526Y121690D01*
X-87884Y223265D02*
Y219964D01*
Y223265D02*
X-86784D01*
X-86312Y223108D01*
X-85998Y222794D01*
X-85840Y222479D01*
X-85683Y222008D01*
Y221222D01*
X-85840Y220750D01*
X-85998Y220436D01*
X-86312Y220121D01*
X-86784Y219964D01*
X-87884D01*
X-85369Y-79756D02*
X-86626Y-76455D01*
X-87884Y-79756D01*
X-87412Y-78656D02*
X-85840D01*
X453136Y223265D02*
Y219964D01*
Y223265D02*
X454236D01*
X454708Y223108D01*
X455022Y222794D01*
X455180Y222479D01*
X455337Y222008D01*
Y221222D01*
X455180Y220750D01*
X455022Y220436D01*
X454708Y220121D01*
X454236Y219964D01*
X453136D01*
X-85526Y123419D02*
X-85683Y123734D01*
X-85998Y124048D01*
X-86312Y124205D01*
X-86941D01*
X-87255Y124048D01*
X-87570Y123734D01*
X-87727Y123419D01*
X-87884Y122948D01*
Y122162D01*
X-87727Y121690D01*
X-87570Y121376D01*
X-87255Y121061D01*
X-86941Y120904D01*
X-86312D01*
X-85998Y121061D01*
X-85683Y121376D01*
X-85526Y121690D01*
X407416Y281056D02*
X407730Y281214D01*
X408202Y281685D01*
Y278384D01*
X53702Y-122175D02*
X52130D01*
X51973Y-123590D01*
X52130Y-123432D01*
X52602Y-123275D01*
X53074D01*
X53545Y-123432D01*
X53860Y-123747D01*
X54017Y-124218D01*
Y-124533D01*
X53860Y-125004D01*
X53545Y-125319D01*
X53074Y-125476D01*
X52602D01*
X52130Y-125319D01*
X51973Y-125162D01*
X51816Y-124847D01*
X455494Y123419D02*
X455337Y123734D01*
X455022Y124048D01*
X454708Y124205D01*
X454079D01*
X453765Y124048D01*
X453450Y123734D01*
X453293Y123419D01*
X453136Y122948D01*
Y122162D01*
X453293Y121690D01*
X453450Y121376D01*
X453765Y121061D01*
X454079Y120904D01*
X454708D01*
X455022Y121061D01*
X455337Y121376D01*
X455494Y121690D01*
X142288Y-122175D02*
X140716Y-124376D01*
X143074D01*
X142288Y-122175D02*
Y-125476D01*
X318673Y280899D02*
Y281056D01*
X318830Y281371D01*
X318988Y281528D01*
X319302Y281685D01*
X319931D01*
X320245Y281528D01*
X320402Y281371D01*
X320560Y281056D01*
Y280742D01*
X320402Y280428D01*
X320088Y279956D01*
X318516Y278384D01*
X320717D01*
X-35198Y281214D02*
X-35355Y281528D01*
X-35826Y281685D01*
X-36141D01*
X-36612Y281528D01*
X-36927Y281056D01*
X-37084Y280270D01*
Y279484D01*
X-36927Y278856D01*
X-36612Y278541D01*
X-36141Y278384D01*
X-35984D01*
X-35512Y278541D01*
X-35198Y278856D01*
X-35040Y279327D01*
Y279484D01*
X-35198Y279956D01*
X-35512Y280270D01*
X-35984Y280428D01*
X-36141D01*
X-36612Y280270D01*
X-36927Y279956D01*
X-37084Y279484D01*
X-87884Y223265D02*
Y219964D01*
Y223265D02*
X-86784D01*
X-86312Y223108D01*
X-85998Y222794D01*
X-85840Y222479D01*
X-85683Y222008D01*
Y221222D01*
X-85840Y220750D01*
X-85998Y220436D01*
X-86312Y220121D01*
X-86784Y219964D01*
X-87884D01*
X53702Y281685D02*
X52130D01*
X51973Y280270D01*
X52130Y280428D01*
X52602Y280585D01*
X53074D01*
X53545Y280428D01*
X53860Y280113D01*
X54017Y279642D01*
Y279327D01*
X53860Y278856D01*
X53545Y278541D01*
X53074Y278384D01*
X52602D01*
X52130Y278541D01*
X51973Y278698D01*
X51816Y279013D01*
X-35198Y-122646D02*
X-35355Y-122332D01*
X-35826Y-122175D01*
X-36141D01*
X-36612Y-122332D01*
X-36927Y-122804D01*
X-37084Y-123590D01*
Y-124376D01*
X-36927Y-125004D01*
X-36612Y-125319D01*
X-36141Y-125476D01*
X-35984D01*
X-35512Y-125319D01*
X-35198Y-125004D01*
X-35040Y-124533D01*
Y-124376D01*
X-35198Y-123904D01*
X-35512Y-123590D01*
X-35984Y-123432D01*
X-36141D01*
X-36612Y-123590D01*
X-36927Y-123904D01*
X-37084Y-124376D01*
X229930Y-122175D02*
X231660D01*
X230716Y-123432D01*
X231188D01*
X231502Y-123590D01*
X231660Y-123747D01*
X231817Y-124218D01*
Y-124533D01*
X231660Y-125004D01*
X231345Y-125319D01*
X230874Y-125476D01*
X230402D01*
X229930Y-125319D01*
X229773Y-125162D01*
X229616Y-124847D01*
X453136Y30225D02*
Y26924D01*
Y30225D02*
X454551D01*
X455022Y30068D01*
X455180Y29911D01*
X455337Y29596D01*
Y29282D01*
X455180Y28968D01*
X455022Y28810D01*
X454551Y28653D01*
X453136D02*
X454551D01*
X455022Y28496D01*
X455180Y28339D01*
X455337Y28024D01*
Y27553D01*
X455180Y27238D01*
X455022Y27081D01*
X454551Y26924D01*
X453136D01*
X229930Y281685D02*
X231660D01*
X230716Y280428D01*
X231188D01*
X231502Y280270D01*
X231660Y280113D01*
X231817Y279642D01*
Y279327D01*
X231660Y278856D01*
X231345Y278541D01*
X230874Y278384D01*
X230402D01*
X229930Y278541D01*
X229773Y278698D01*
X229616Y279013D01*
X455651Y-79756D02*
X454394Y-76455D01*
X453136Y-79756D01*
X453608Y-78656D02*
X455180D01*
X-87884Y30225D02*
Y26924D01*
Y30225D02*
X-86469D01*
X-85998Y30068D01*
X-85840Y29911D01*
X-85683Y29596D01*
Y29282D01*
X-85840Y28968D01*
X-85998Y28810D01*
X-86469Y28653D01*
X-87884D02*
X-86469D01*
X-85998Y28496D01*
X-85840Y28339D01*
X-85683Y28024D01*
Y27553D01*
X-85840Y27238D01*
X-85998Y27081D01*
X-86469Y26924D01*
X-87884D01*
X407416Y-122804D02*
X407730Y-122646D01*
X408202Y-122175D01*
Y-125476D01*
X142288Y281685D02*
X140716Y279484D01*
X143074D01*
X142288Y281685D02*
Y278384D01*
X318673Y-122961D02*
Y-122804D01*
X318830Y-122489D01*
X318988Y-122332D01*
X319302Y-122175D01*
X319931D01*
X320245Y-122332D01*
X320402Y-122489D01*
X320560Y-122804D01*
Y-123118D01*
X320402Y-123432D01*
X320088Y-123904D01*
X318516Y-125476D01*
X320717D01*
D16*
X51308Y46736D02*
D03*
Y48260D02*
D03*
X11684Y90551D02*
D03*
Y92075D02*
D03*
X46736Y53975D02*
D03*
Y52451D02*
D03*
X48514Y53975D02*
D03*
Y52451D02*
D03*
X21971Y37592D02*
D03*
Y36068D02*
D03*
X22606Y112395D02*
D03*
Y110871D02*
D03*
X27686Y98298D02*
D03*
Y96774D02*
D03*
X20828Y91948D02*
D03*
Y90424D02*
D03*
X20955Y20066D02*
D03*
Y18542D02*
D03*
Y23114D02*
D03*
Y21590D02*
D03*
X15748Y91948D02*
D03*
Y90424D02*
D03*
X14351Y91948D02*
D03*
Y90424D02*
D03*
X36830Y66040D02*
D03*
Y64516D02*
D03*
X26162Y98298D02*
D03*
Y96774D02*
D03*
X15240Y80899D02*
D03*
Y79375D02*
D03*
X36703Y73279D02*
D03*
Y71755D02*
D03*
D17*
X19558Y118364D02*
D03*
X18034D02*
D03*
X24130Y18542D02*
D03*
X22606D02*
D03*
X30861Y110744D02*
D03*
Y112268D02*
D03*
X17399Y64516D02*
D03*
X15875D02*
D03*
X23749Y98298D02*
D03*
Y96774D02*
D03*
X47371Y61214D02*
D03*
X48895D02*
D03*
Y57912D02*
D03*
X47371D02*
D03*
X38989Y13208D02*
D03*
Y14732D02*
D03*
X50038Y52451D02*
D03*
Y53975D02*
D03*
X32512Y17780D02*
D03*
Y16256D02*
D03*
X49149Y28956D02*
D03*
Y27432D02*
D03*
X12192Y81407D02*
D03*
X10668D02*
D03*
X48895Y59563D02*
D03*
X47371D02*
D03*
Y56388D02*
D03*
X48895D02*
D03*
X38989Y16256D02*
D03*
Y17780D02*
D03*
X25781Y110871D02*
D03*
Y112395D02*
D03*
X19558Y116840D02*
D03*
X18034D02*
D03*
D18*
X15748Y94361D02*
D03*
Y93345D02*
D03*
X8636Y46355D02*
D03*
X9652D02*
D03*
X27305Y25273D02*
D03*
X26289D02*
D03*
X16129Y66294D02*
D03*
X17145D02*
D03*
X23876Y51562D02*
D03*
X22860D02*
D03*
X27305Y26543D02*
D03*
X26289D02*
D03*
X34036Y37084D02*
D03*
Y36068D02*
D03*
X20574Y37084D02*
D03*
Y36068D02*
D03*
X24892Y33655D02*
D03*
X25908D02*
D03*
X28829Y37084D02*
D03*
Y36068D02*
D03*
X38735Y37084D02*
D03*
Y36068D02*
D03*
X27305Y19054D02*
D03*
X26289D02*
D03*
X27305Y24003D02*
D03*
X26289D02*
D03*
X27559Y56642D02*
D03*
X26543D02*
D03*
X30861Y62611D02*
D03*
Y61595D02*
D03*
X27559Y57912D02*
D03*
X26543D02*
D03*
X27559Y53975D02*
D03*
X26543D02*
D03*
X42545Y49530D02*
D03*
Y48514D02*
D03*
X45974Y57658D02*
D03*
X44958D02*
D03*
X34925Y72771D02*
D03*
Y71755D02*
D03*
X11430Y86868D02*
D03*
X10414D02*
D03*
X11430Y85344D02*
D03*
X10414D02*
D03*
X49149Y43434D02*
D03*
X48133D02*
D03*
X50419Y17653D02*
D03*
X49403D02*
D03*
X48260Y51054D02*
D03*
X47244D02*
D03*
X23876Y52705D02*
D03*
X22860D02*
D03*
X21336Y46355D02*
D03*
X20320D02*
D03*
X58166Y108458D02*
D03*
Y107442D02*
D03*
X16510Y80899D02*
D03*
Y79883D02*
D03*
X17018Y91821D02*
D03*
Y90805D02*
D03*
X13081Y91821D02*
D03*
Y90805D02*
D03*
X25019Y98044D02*
D03*
Y97028D02*
D03*
X48641Y93599D02*
D03*
Y92583D02*
D03*
X35052Y64389D02*
D03*
X34036D02*
D03*
X31623Y98044D02*
D03*
Y97028D02*
D03*
X32258Y102489D02*
D03*
Y101473D02*
D03*
X29591Y110744D02*
D03*
X28575D02*
D03*
X19812Y107696D02*
D03*
X18796D02*
D03*
X40513Y62611D02*
D03*
Y61595D02*
D03*
X39116Y49530D02*
D03*
Y48514D02*
D03*
X37592Y62611D02*
D03*
Y61595D02*
D03*
X45974Y56515D02*
D03*
X44958D02*
D03*
X33528Y49530D02*
D03*
X32512D02*
D03*
X34163Y62611D02*
D03*
Y61595D02*
D03*
X39370Y62611D02*
D03*
Y61595D02*
D03*
X32639Y62611D02*
D03*
Y61595D02*
D03*
X36449Y37084D02*
D03*
Y36068D02*
D03*
X27305Y20320D02*
D03*
X26289D02*
D03*
X30353Y37084D02*
D03*
Y36068D02*
D03*
X27305Y21590D02*
D03*
X26289D02*
D03*
X41402Y37084D02*
D03*
Y36068D02*
D03*
X49022Y24892D02*
D03*
Y25908D02*
D03*
X27305Y22733D02*
D03*
X26289D02*
D03*
X31369Y37084D02*
D03*
Y36068D02*
D03*
X44069Y37084D02*
D03*
Y36068D02*
D03*
X24892Y35179D02*
D03*
X25908D02*
D03*
X14986Y118364D02*
D03*
Y117348D02*
D03*
X56642Y97409D02*
D03*
Y96393D02*
D03*
X29718Y14351D02*
D03*
Y13335D02*
D03*
X20701Y34290D02*
D03*
Y33274D02*
D03*
X30480Y98044D02*
D03*
Y97028D02*
D03*
X39370Y94488D02*
D03*
Y93472D02*
D03*
X27305Y116840D02*
D03*
X26289D02*
D03*
X13081Y12700D02*
D03*
Y11684D02*
D03*
X14351Y94361D02*
D03*
Y93345D02*
D03*
D19*
X57531Y115316D02*
D03*
X56007D02*
D03*
X20320Y109601D02*
D03*
X18796D02*
D03*
X24130Y24892D02*
D03*
X22606D02*
D03*
X7620Y108458D02*
D03*
X6096D02*
D03*
X20701Y9017D02*
D03*
X19177D02*
D03*
X23622D02*
D03*
X22098D02*
D03*
X12192Y80010D02*
D03*
X10668D02*
D03*
X44704Y90424D02*
D03*
X43180D02*
D03*
X19939Y105664D02*
D03*
X18415D02*
D03*
X39497Y117475D02*
D03*
X37973D02*
D03*
X18796Y34163D02*
D03*
X17272D02*
D03*
X18796Y32893D02*
D03*
X17272D02*
D03*
X50292Y95758D02*
D03*
X48768D02*
D03*
X24130Y21590D02*
D03*
X22606D02*
D03*
X24130Y20066D02*
D03*
X22606D02*
D03*
X18796Y38227D02*
D03*
X17272D02*
D03*
X18796Y35560D02*
D03*
X17272D02*
D03*
X6477Y44958D02*
D03*
X4953D02*
D03*
X18796Y41148D02*
D03*
X17272D02*
D03*
X19431Y115443D02*
D03*
X17907D02*
D03*
X18796Y39751D02*
D03*
X17272D02*
D03*
X4064Y108458D02*
D03*
X2540D02*
D03*
X43815Y117475D02*
D03*
X42291D02*
D03*
X18796Y36830D02*
D03*
X17272D02*
D03*
D20*
X28956Y113919D02*
D03*
Y115443D02*
D03*
X10033Y13259D02*
D03*
Y11735D02*
D03*
X47498Y40894D02*
D03*
Y39370D02*
D03*
X42418Y17780D02*
D03*
Y16256D02*
D03*
X21971Y34417D02*
D03*
Y32893D02*
D03*
X54229Y112268D02*
D03*
Y110744D02*
D03*
X11557Y10160D02*
D03*
Y8636D02*
D03*
Y13259D02*
D03*
Y11735D02*
D03*
X10287Y92202D02*
D03*
Y90678D02*
D03*
X54229Y115316D02*
D03*
Y113792D02*
D03*
X26289Y115443D02*
D03*
Y113919D02*
D03*
X31115Y17780D02*
D03*
Y16256D02*
D03*
X20955Y80772D02*
D03*
Y79248D02*
D03*
X24892Y7747D02*
D03*
Y6223D02*
D03*
X8509Y10160D02*
D03*
Y8636D02*
D03*
X27686Y12700D02*
D03*
Y11176D02*
D03*
X32258Y105410D02*
D03*
Y103886D02*
D03*
X22479Y98298D02*
D03*
Y96774D02*
D03*
X54356Y44958D02*
D03*
Y43434D02*
D03*
X29591Y17780D02*
D03*
Y16256D02*
D03*
X21209Y98298D02*
D03*
Y96774D02*
D03*
X51689Y36576D02*
D03*
Y35052D02*
D03*
X23876Y112395D02*
D03*
Y110871D02*
D03*
X20828Y12700D02*
D03*
Y11176D02*
D03*
X36068Y17780D02*
D03*
Y16256D02*
D03*
X33782Y17780D02*
D03*
Y16256D02*
D03*
X19558Y80772D02*
D03*
Y79248D02*
D03*
X18161Y80772D02*
D03*
Y79248D02*
D03*
X10033Y10160D02*
D03*
Y8636D02*
D03*
X19304Y12700D02*
D03*
Y11176D02*
D03*
X32258Y108458D02*
D03*
Y106934D02*
D03*
X18669Y98298D02*
D03*
Y96774D02*
D03*
X19939Y98298D02*
D03*
Y96774D02*
D03*
X53213Y36576D02*
D03*
Y35052D02*
D03*
X53594Y97663D02*
D03*
Y96139D02*
D03*
X32131Y112268D02*
D03*
Y110744D02*
D03*
X56388Y44958D02*
D03*
Y43434D02*
D03*
X54737Y36576D02*
D03*
Y35052D02*
D03*
X16129Y113792D02*
D03*
Y112268D02*
D03*
X14478Y113792D02*
D03*
Y112268D02*
D03*
X31115Y14478D02*
D03*
Y12954D02*
D03*
X24892Y115443D02*
D03*
Y113919D02*
D03*
X30226Y115443D02*
D03*
Y113919D02*
D03*
X27686Y115443D02*
D03*
Y113919D02*
D03*
X16510Y118364D02*
D03*
Y116840D02*
D03*
X29210Y98298D02*
D03*
Y96774D02*
D03*
D21*
X54610Y9271D02*
D03*
X54356Y118110D02*
D03*
X6604Y118491D02*
D03*
D22*
X28836Y93980D02*
D03*
X26536D02*
D03*
D23*
X18288Y27185D02*
D03*
Y24885D02*
D03*
D24*
X18542Y19805D02*
D03*
Y22105D02*
D03*
D25*
X29718Y3113D02*
D03*
Y8063D02*
D03*
X32258Y3113D02*
D03*
Y8063D02*
D03*
X34798Y3113D02*
D03*
Y8063D02*
D03*
X37338Y3113D02*
D03*
Y8063D02*
D03*
X39878Y3113D02*
D03*
Y8063D02*
D03*
X42418Y3113D02*
D03*
Y8063D02*
D03*
X44958Y3113D02*
D03*
Y8063D02*
D03*
X47498Y3113D02*
D03*
Y8063D02*
D03*
D26*
X42229Y119634D02*
D03*
Y122174D02*
D03*
Y124714D02*
D03*
X47179Y119634D02*
D03*
Y122174D02*
D03*
Y124714D02*
D03*
D27*
X11811Y123761D02*
D03*
X9271Y120841D02*
D03*
D28*
X10351Y4953D02*
D03*
X13271Y2413D02*
D03*
D29*
X4128Y71755D02*
D03*
Y76835D02*
D03*
Y81915D02*
D03*
Y86995D02*
D03*
Y92075D02*
D03*
X7556Y74295D02*
D03*
Y79375D02*
D03*
Y84455D02*
D03*
Y89535D02*
D03*
Y94615D02*
D03*
X52388Y67691D02*
D03*
Y72771D02*
D03*
Y77851D02*
D03*
Y82931D02*
D03*
X55817Y70231D02*
D03*
Y75311D02*
D03*
Y80391D02*
D03*
Y85471D02*
D03*
X52388Y49911D02*
D03*
Y54991D02*
D03*
Y60071D02*
D03*
X55817Y52451D02*
D03*
Y57531D02*
D03*
Y62611D02*
D03*
X7556Y67691D02*
D03*
Y62611D02*
D03*
Y57531D02*
D03*
Y52451D02*
D03*
X4128Y65151D02*
D03*
Y60071D02*
D03*
Y54991D02*
D03*
Y49911D02*
D03*
D30*
X2922Y15240D02*
D03*
Y17780D02*
D03*
Y20320D02*
D03*
Y22860D02*
D03*
X12318Y15240D02*
D03*
Y17780D02*
D03*
Y20320D02*
D03*
Y22860D02*
D03*
D31*
X14920Y9963D02*
D03*
Y7563D02*
D03*
X13970D02*
D03*
X13020Y9963D02*
D03*
Y7563D02*
D03*
X34864Y67888D02*
D03*
Y70288D02*
D03*
X35814D02*
D03*
X36764Y67888D02*
D03*
Y70288D02*
D03*
D32*
X22395Y11115D02*
D03*
Y13015D02*
D03*
X24595Y12065D02*
D03*
X23325Y115885D02*
D03*
Y113985D02*
D03*
X21125Y114935D02*
D03*
D33*
X24751Y77445D02*
D03*
X29351D02*
D03*
X27051D02*
D03*
D34*
Y71145D02*
D03*
D35*
X39141Y66802D02*
D03*
X10566Y70485D02*
D03*
D36*
X45441Y64502D02*
D03*
Y66802D02*
D03*
Y69102D02*
D03*
X16866Y72785D02*
D03*
Y70485D02*
D03*
Y68185D02*
D03*
D37*
X54143Y38784D02*
D03*
Y41734D02*
D03*
X54793Y38784D02*
D03*
Y41734D02*
D03*
X55443Y38784D02*
D03*
Y41734D02*
D03*
X56093Y38784D02*
D03*
Y41734D02*
D03*
D38*
X55118Y40259D02*
D03*
D39*
X41318Y91948D02*
D03*
Y93218D02*
D03*
Y94488D02*
D03*
Y95758D02*
D03*
X46566Y91948D02*
D03*
Y93218D02*
D03*
Y94488D02*
D03*
Y95758D02*
D03*
D40*
X32131Y113556D02*
D03*
Y115806D02*
D03*
X45720Y88628D02*
D03*
Y86378D02*
D03*
X47752Y88628D02*
D03*
Y86378D02*
D03*
X43688Y88628D02*
D03*
Y86378D02*
D03*
D41*
X13179Y83348D02*
D03*
Y83848D02*
D03*
Y84348D02*
D03*
Y84848D02*
D03*
Y85348D02*
D03*
Y85848D02*
D03*
Y86348D02*
D03*
Y86848D02*
D03*
Y87348D02*
D03*
Y87848D02*
D03*
X19079Y83348D02*
D03*
Y83848D02*
D03*
Y84348D02*
D03*
Y84848D02*
D03*
Y85348D02*
D03*
Y85848D02*
D03*
Y86348D02*
D03*
Y86848D02*
D03*
Y87348D02*
D03*
Y87848D02*
D03*
D42*
X13879Y82648D02*
D03*
Y88548D02*
D03*
X14379Y82648D02*
D03*
Y88548D02*
D03*
X14879Y82648D02*
D03*
Y88548D02*
D03*
X15379Y82648D02*
D03*
Y88548D02*
D03*
X15879Y82648D02*
D03*
Y88548D02*
D03*
X16379Y82648D02*
D03*
Y88548D02*
D03*
X16879Y82648D02*
D03*
Y88548D02*
D03*
X17379Y82648D02*
D03*
Y88548D02*
D03*
X17879Y82648D02*
D03*
Y88548D02*
D03*
X18379Y82648D02*
D03*
Y88548D02*
D03*
D43*
X16129Y85598D02*
D03*
D44*
X2953Y98108D02*
D03*
X1053Y106108D02*
D03*
D45*
X3953D02*
D03*
X5753Y98108D02*
D03*
X13153Y106108D02*
D03*
D46*
X17203Y101308D02*
D03*
D47*
X23931Y124523D02*
D03*
Y120078D02*
D03*
X14931Y124523D02*
D03*
Y120078D02*
D03*
X11739Y115507D02*
D03*
Y111062D02*
D03*
X2739Y115507D02*
D03*
Y111062D02*
D03*
D48*
X4871Y42467D02*
D03*
D49*
X12921Y27842D02*
D03*
D50*
X13421Y42842D02*
D03*
D51*
X15071Y32717D02*
D03*
Y33817D02*
D03*
Y34917D02*
D03*
Y36017D02*
D03*
Y37117D02*
D03*
Y38217D02*
D03*
Y39317D02*
D03*
Y40417D02*
D03*
D52*
Y41567D02*
D03*
D53*
X1914Y27739D02*
D03*
D54*
X1921Y42692D02*
D03*
D55*
X20417Y4135D02*
D03*
X21067D02*
D03*
X21717D02*
D03*
X22367D02*
D03*
X23017D02*
D03*
D56*
X21717Y1460D02*
D03*
D57*
X27068Y119426D02*
D03*
Y124926D02*
D03*
X35568Y119426D02*
D03*
Y124926D02*
D03*
D58*
X29718Y119126D02*
D03*
X30518D02*
D03*
X31318D02*
D03*
X32118D02*
D03*
X32918D02*
D03*
D59*
X25412Y100552D02*
D03*
Y109252D02*
D03*
X25912Y100552D02*
D03*
Y109252D02*
D03*
X26412Y100552D02*
D03*
Y109252D02*
D03*
X26912Y100552D02*
D03*
Y109252D02*
D03*
X27412Y100552D02*
D03*
Y109252D02*
D03*
X27912Y100552D02*
D03*
Y109252D02*
D03*
X28412Y100552D02*
D03*
Y109252D02*
D03*
X28912Y100552D02*
D03*
Y109252D02*
D03*
X23412Y100552D02*
D03*
Y109252D02*
D03*
X23912Y100552D02*
D03*
Y109252D02*
D03*
X24412Y100552D02*
D03*
Y109252D02*
D03*
X24912Y100552D02*
D03*
Y109252D02*
D03*
D60*
X30512Y102152D02*
D03*
Y102652D02*
D03*
Y103152D02*
D03*
Y103652D02*
D03*
Y104152D02*
D03*
Y104652D02*
D03*
Y105152D02*
D03*
Y105652D02*
D03*
Y106152D02*
D03*
Y106652D02*
D03*
Y107152D02*
D03*
Y107652D02*
D03*
X21812Y102152D02*
D03*
Y102652D02*
D03*
Y103152D02*
D03*
Y103652D02*
D03*
Y104152D02*
D03*
Y104652D02*
D03*
Y105152D02*
D03*
Y105652D02*
D03*
Y106152D02*
D03*
Y106652D02*
D03*
Y107152D02*
D03*
Y107652D02*
D03*
D61*
X56055Y110767D02*
D03*
Y113767D02*
D03*
X57555Y110767D02*
D03*
Y113767D02*
D03*
D62*
X18700Y46350D02*
D03*
Y47620D02*
D03*
Y48890D02*
D03*
Y50160D02*
D03*
X11550Y46350D02*
D03*
Y47620D02*
D03*
Y48890D02*
D03*
Y50160D02*
D03*
D63*
X15125Y48255D02*
D03*
D64*
X30595Y58826D02*
D03*
Y58026D02*
D03*
Y57226D02*
D03*
Y54026D02*
D03*
Y53226D02*
D03*
Y52426D02*
D03*
X31395Y58826D02*
D03*
Y58026D02*
D03*
Y57226D02*
D03*
Y54026D02*
D03*
Y53226D02*
D03*
Y52426D02*
D03*
X32195Y58826D02*
D03*
Y58026D02*
D03*
Y57226D02*
D03*
Y54026D02*
D03*
Y53226D02*
D03*
Y52426D02*
D03*
X32995Y58826D02*
D03*
Y58026D02*
D03*
Y57226D02*
D03*
Y54026D02*
D03*
Y53226D02*
D03*
Y52426D02*
D03*
X33795Y58826D02*
D03*
Y58026D02*
D03*
Y57226D02*
D03*
Y54026D02*
D03*
Y53226D02*
D03*
Y52426D02*
D03*
X34595Y58826D02*
D03*
Y58026D02*
D03*
Y57226D02*
D03*
Y54026D02*
D03*
Y53226D02*
D03*
Y52426D02*
D03*
X35395Y58826D02*
D03*
Y58026D02*
D03*
Y57226D02*
D03*
Y54026D02*
D03*
Y53226D02*
D03*
Y52426D02*
D03*
X36195Y58826D02*
D03*
Y58026D02*
D03*
Y57226D02*
D03*
Y54026D02*
D03*
Y53226D02*
D03*
Y52426D02*
D03*
X36995Y58826D02*
D03*
Y58026D02*
D03*
Y57226D02*
D03*
Y54026D02*
D03*
Y53226D02*
D03*
Y52426D02*
D03*
X37795Y58826D02*
D03*
Y58026D02*
D03*
Y57226D02*
D03*
Y54026D02*
D03*
Y53226D02*
D03*
Y52426D02*
D03*
X38595Y58826D02*
D03*
Y58026D02*
D03*
Y57226D02*
D03*
Y54026D02*
D03*
Y53226D02*
D03*
Y52426D02*
D03*
X39395Y58826D02*
D03*
Y58026D02*
D03*
Y57226D02*
D03*
Y54026D02*
D03*
Y53226D02*
D03*
Y52426D02*
D03*
X40195Y58826D02*
D03*
Y58026D02*
D03*
Y57226D02*
D03*
Y54026D02*
D03*
Y53226D02*
D03*
Y52426D02*
D03*
X40995Y58826D02*
D03*
Y58026D02*
D03*
Y57226D02*
D03*
Y54026D02*
D03*
Y53226D02*
D03*
Y52426D02*
D03*
X41795Y58826D02*
D03*
Y58026D02*
D03*
Y57226D02*
D03*
Y54026D02*
D03*
Y53226D02*
D03*
Y52426D02*
D03*
D65*
X52175Y18417D02*
D03*
Y19017D02*
D03*
Y19617D02*
D03*
Y20217D02*
D03*
Y20817D02*
D03*
Y21417D02*
D03*
Y22017D02*
D03*
Y22617D02*
D03*
Y23217D02*
D03*
Y23817D02*
D03*
Y24417D02*
D03*
Y25017D02*
D03*
X55075Y18117D02*
D03*
Y18717D02*
D03*
Y19317D02*
D03*
Y19917D02*
D03*
Y20517D02*
D03*
Y21117D02*
D03*
Y21717D02*
D03*
Y22317D02*
D03*
Y22917D02*
D03*
Y23517D02*
D03*
Y24117D02*
D03*
Y24717D02*
D03*
Y25317D02*
D03*
D66*
X54725Y26017D02*
D03*
Y17417D02*
D03*
D67*
X54910Y100709D02*
D03*
Y106809D02*
D03*
D68*
X57635Y102509D02*
D03*
Y103009D02*
D03*
Y103509D02*
D03*
Y104009D02*
D03*
Y104509D02*
D03*
Y105009D02*
D03*
D69*
X49784Y32385D02*
D03*
D70*
X52070D02*
D03*
D71*
X48514Y68050D02*
D03*
Y65300D02*
D03*
D72*
X23368Y46958D02*
D03*
Y49308D02*
D03*
X26924Y14700D02*
D03*
Y17050D02*
D03*
X19000Y93375D02*
D03*
Y91025D02*
D03*
X46980Y24520D02*
D03*
Y26870D02*
D03*
X16891Y9938D02*
D03*
Y7588D02*
D03*
X21590Y72803D02*
D03*
Y70453D02*
D03*
D73*
X30849Y25451D02*
D03*
Y26251D02*
D03*
Y27051D02*
D03*
Y27851D02*
D03*
Y28651D02*
D03*
Y29451D02*
D03*
Y30251D02*
D03*
Y31051D02*
D03*
Y31851D02*
D03*
Y32651D02*
D03*
Y21451D02*
D03*
Y22251D02*
D03*
Y23051D02*
D03*
Y23851D02*
D03*
Y24651D02*
D03*
X31649Y25451D02*
D03*
Y26251D02*
D03*
Y27051D02*
D03*
Y27851D02*
D03*
Y28651D02*
D03*
Y29451D02*
D03*
Y30251D02*
D03*
Y31051D02*
D03*
Y31851D02*
D03*
Y32651D02*
D03*
Y21451D02*
D03*
Y22251D02*
D03*
Y23051D02*
D03*
Y23851D02*
D03*
Y24651D02*
D03*
X32449Y25451D02*
D03*
Y26251D02*
D03*
Y27051D02*
D03*
Y27851D02*
D03*
Y28651D02*
D03*
Y29451D02*
D03*
Y30251D02*
D03*
Y31051D02*
D03*
Y31851D02*
D03*
Y32651D02*
D03*
Y21451D02*
D03*
Y22251D02*
D03*
Y23051D02*
D03*
Y23851D02*
D03*
Y24651D02*
D03*
X33249Y25451D02*
D03*
Y26251D02*
D03*
Y27051D02*
D03*
Y27851D02*
D03*
Y28651D02*
D03*
Y29451D02*
D03*
Y30251D02*
D03*
Y31051D02*
D03*
Y31851D02*
D03*
Y32651D02*
D03*
Y21451D02*
D03*
Y22251D02*
D03*
Y23051D02*
D03*
Y23851D02*
D03*
Y24651D02*
D03*
X34049Y25451D02*
D03*
Y26251D02*
D03*
Y27051D02*
D03*
Y27851D02*
D03*
Y28651D02*
D03*
Y29451D02*
D03*
Y30251D02*
D03*
Y31051D02*
D03*
Y31851D02*
D03*
Y32651D02*
D03*
Y21451D02*
D03*
Y22251D02*
D03*
Y23051D02*
D03*
Y23851D02*
D03*
Y24651D02*
D03*
X34849Y25451D02*
D03*
Y26251D02*
D03*
Y27051D02*
D03*
Y27851D02*
D03*
Y28651D02*
D03*
Y29451D02*
D03*
Y30251D02*
D03*
Y31051D02*
D03*
Y31851D02*
D03*
Y32651D02*
D03*
Y21451D02*
D03*
Y22251D02*
D03*
Y23051D02*
D03*
Y23851D02*
D03*
Y24651D02*
D03*
X35649Y25451D02*
D03*
Y28651D02*
D03*
Y29451D02*
D03*
Y30251D02*
D03*
Y31051D02*
D03*
Y31851D02*
D03*
Y32651D02*
D03*
Y21451D02*
D03*
Y22251D02*
D03*
Y23051D02*
D03*
Y23851D02*
D03*
Y24651D02*
D03*
X36449Y25451D02*
D03*
Y28651D02*
D03*
Y29451D02*
D03*
Y30251D02*
D03*
Y31051D02*
D03*
Y31851D02*
D03*
Y32651D02*
D03*
Y21451D02*
D03*
Y22251D02*
D03*
Y23051D02*
D03*
Y23851D02*
D03*
Y24651D02*
D03*
X37249Y25451D02*
D03*
Y28651D02*
D03*
Y29451D02*
D03*
Y30251D02*
D03*
Y31051D02*
D03*
Y31851D02*
D03*
Y32651D02*
D03*
Y21451D02*
D03*
Y22251D02*
D03*
Y23051D02*
D03*
Y23851D02*
D03*
Y24651D02*
D03*
X38049Y25451D02*
D03*
Y26251D02*
D03*
Y27051D02*
D03*
Y27851D02*
D03*
Y28651D02*
D03*
Y29451D02*
D03*
Y30251D02*
D03*
Y31051D02*
D03*
Y31851D02*
D03*
Y32651D02*
D03*
Y21451D02*
D03*
Y22251D02*
D03*
Y23051D02*
D03*
Y23851D02*
D03*
Y24651D02*
D03*
X38849Y25451D02*
D03*
Y26251D02*
D03*
Y27051D02*
D03*
Y27851D02*
D03*
Y28651D02*
D03*
Y29451D02*
D03*
Y30251D02*
D03*
Y31051D02*
D03*
Y31851D02*
D03*
Y32651D02*
D03*
Y21451D02*
D03*
Y22251D02*
D03*
Y23051D02*
D03*
Y23851D02*
D03*
Y24651D02*
D03*
X39649Y25451D02*
D03*
Y26251D02*
D03*
Y27051D02*
D03*
Y27851D02*
D03*
Y28651D02*
D03*
Y29451D02*
D03*
Y30251D02*
D03*
Y31051D02*
D03*
Y31851D02*
D03*
Y32651D02*
D03*
Y21451D02*
D03*
Y22251D02*
D03*
Y23051D02*
D03*
Y23851D02*
D03*
Y24651D02*
D03*
X40449Y25451D02*
D03*
Y26251D02*
D03*
Y27051D02*
D03*
Y27851D02*
D03*
Y28651D02*
D03*
Y29451D02*
D03*
Y30251D02*
D03*
Y31051D02*
D03*
Y31851D02*
D03*
Y32651D02*
D03*
Y21451D02*
D03*
Y22251D02*
D03*
Y23051D02*
D03*
Y23851D02*
D03*
Y24651D02*
D03*
X41249Y25451D02*
D03*
Y26251D02*
D03*
Y27051D02*
D03*
Y27851D02*
D03*
Y28651D02*
D03*
Y29451D02*
D03*
Y30251D02*
D03*
Y31051D02*
D03*
Y31851D02*
D03*
Y32651D02*
D03*
Y21451D02*
D03*
Y22251D02*
D03*
Y23051D02*
D03*
Y23851D02*
D03*
Y24651D02*
D03*
X42049Y25451D02*
D03*
Y26251D02*
D03*
Y27051D02*
D03*
Y27851D02*
D03*
Y28651D02*
D03*
Y29451D02*
D03*
Y30251D02*
D03*
Y31051D02*
D03*
Y31851D02*
D03*
Y32651D02*
D03*
Y21451D02*
D03*
Y22251D02*
D03*
Y23051D02*
D03*
Y23851D02*
D03*
Y24651D02*
D03*
D74*
X21145Y6739D02*
D03*
Y7239D02*
D03*
Y7739D02*
D03*
X21645Y6739D02*
D03*
Y7239D02*
D03*
Y7739D02*
D03*
X22145Y6739D02*
D03*
Y7239D02*
D03*
Y7739D02*
D03*
X22645Y7239D02*
D03*
Y7739D02*
D03*
D75*
X51054Y38659D02*
D03*
Y41605D02*
D03*
D76*
X58115Y32385D02*
D03*
X55169D02*
D03*
X49352Y46736D02*
D03*
X46406D02*
D03*
D77*
X46228Y16688D02*
D03*
Y19634D02*
D03*
X47117Y32334D02*
D03*
Y29388D02*
D03*
Y37287D02*
D03*
Y34341D02*
D03*
D78*
X46863Y117475D02*
D03*
X45339D02*
D03*
X49403Y44831D02*
D03*
X47879D02*
D03*
X35179Y66040D02*
D03*
X33655D02*
D03*
X12192Y78613D02*
D03*
X10668D02*
D03*
X10033Y7112D02*
D03*
X8509D02*
D03*
X11811Y94107D02*
D03*
X10287D02*
D03*
X24130Y26289D02*
D03*
X22606D02*
D03*
X24130Y27813D02*
D03*
X22606D02*
D03*
X11684Y88519D02*
D03*
X10160D02*
D03*
X57785Y36576D02*
D03*
X56261D02*
D03*
X22479Y85344D02*
D03*
X20955D02*
D03*
X16002Y115443D02*
D03*
X14478D02*
D03*
X22479Y83947D02*
D03*
X20955D02*
D03*
D79*
X46704Y49149D02*
D03*
X49054D02*
D03*
X24225Y31623D02*
D03*
X26575D02*
D03*
X55277Y28067D02*
D03*
X52927D02*
D03*
X24225Y36957D02*
D03*
X26575D02*
D03*
X25368Y82296D02*
D03*
X27718D02*
D03*
X14129Y75184D02*
D03*
X11779D02*
D03*
X43339Y71501D02*
D03*
X40989D02*
D03*
M02*
