M48
;Layer_Color=9474304
;FILE_FORMAT=4:3
METRIC,TZ
;TYPE=PLATED
T1F00S00C0.150
T2F00S00C0.250
T3F00S00C0.750
T4F00S00C0.800
T5F00S00C1.000
T6F00S00C1.425
;TYPE=NON_PLATED
T7F00S00C2.000
%
T01
X36722Y1437
X35612Y8637
X38041Y8601
Y9042
X38101Y9442
X39612Y10130
X40261Y9923
X40336Y9553
X40735Y9812
X41459Y11112
X41253Y13302
X41275Y13848
X41875Y13851
X41864Y13173
X42528Y13144
X42581Y13897
X43207Y13889
X43951Y13902
X43832Y15444
X41680Y16248
X40929Y15519
X40868Y13586
X43947Y12055
X43787Y10255
X43133Y10262
X41926Y7770
X55202Y4966
X57555Y4949
X58441Y4944
X32782Y8174
X32462Y7859
X32013Y7902
X31094Y9163
X32337Y12847
X32725Y12899
X30212Y15394
X30320Y15838
X25785Y7324
X25580Y24192
X24361Y24201
X23539Y25064
X23552Y27917
X26469Y27697
X26461Y28180
X33649Y21263
X33482Y17730
X33172Y17388
X33025Y17956
X32499Y17961
X32767Y18413
X35534Y18291
X36068Y17777
X36368Y19118
X36357Y19560
X36347Y19944
X35782Y19830
X34819Y21351
X38055Y19442
X37808Y19052
X38134Y18680
X38140Y18099
X41471Y19357
X42289Y16858
X43150Y16832
X43832Y16794
X44014Y17559
X55682Y23610
X57667Y23594
X58596Y23527
T02
X36722Y2100
X35392Y4655
X37516Y5840
X37429Y7272
X38615Y6883
X39631Y6853
X40713Y6916
X41991Y6907
X41509Y9102
X43920Y9520
X45134Y8617
X44920Y7520
X45405Y4741
X44920Y3520
X46920
X47534Y4687
X48920Y3520
X50920
X51277Y5108
X49920Y5520
X49640Y6794
X50062Y9398
X51920Y9520
X51500Y8009
X53310Y6893
X53260Y4984
X52920Y3520
X54920
X56920
X58920
X59773Y4867
X59920Y1520
X61920
X57920
X55920
X53920
X51920
X49920
X47920
X45920
X43920
X41410Y4706
X39135Y4631
X38865Y11602
X38862Y11605
X36862
X36845Y11602
X34862Y11605
X34860Y11606
X34862Y13605
X34849Y13604
X36862Y13605
X36861Y15604
X36862Y15605
X34869Y15605
X34862Y15605
X38858Y15606
X38862Y15605
X38859Y13611
X38862Y13605
X44810Y13929
X45920Y13520
X46987Y13960
X47061Y12572
X49392Y12646
X49920Y13520
X49367Y14432
X49752Y15958
X50920Y15520
X52920
X54920
X56920
X58920
X60920
X62920
X61920Y13520
X59920
X57920
X55920
X53920
X51920
X52920Y11520
X54920
X56920
X58920
X60920
X62920
X59920Y9520
X57920
X55920
X53920
X55269Y6893
X56920Y7520
X58920
X56228Y4841
X50920Y11520
X48871Y10489
X46516Y9770
X47508Y8753
X45469Y10924
X46203Y14816
X34396Y9377
X33361Y9429
X33719Y3763
X26294Y3803
X24623Y4848
X23549Y4785
X21500Y3975
X21075Y3010
X18238Y3744
X17333Y3613
X16127Y4598
X15094Y4663
X12990Y3606
X11718Y3559
X13833Y1763
X16421Y1466
X19149Y1285
X24511Y1081
X25566Y951
X27481Y6749
X27535Y8677
X27375Y12336
X27444Y13762
X31016Y15538
X19920Y13520
X15920
X11920
X9920
X7427Y13180
X8021Y12172
X8920Y15520
X12920
Y11520
X11920Y9520
X21920
X8918Y1520
X6536Y1530
X1920Y1520
X920Y3520
Y11520
X764Y14028
X784Y16263
X5920Y17520
X9920
X11920
X13920
X15920
X17920
Y21520
X13920
X13190Y22526
X10920Y23520
X10875Y25065
X13116Y27687
X13181Y28743
X16643Y28347
X18676Y28268
X21249Y26860
X22639Y26431
X19920Y25520
X15920
X12920Y19520
X10920
X8920
X6103Y28318
X3818Y28294
X920Y27520
X27590Y26464
X29517Y26546
X27508Y24537
Y23615
X27558Y19379
X27533Y17634
X27527Y16384
X31812Y21545
X33823Y22630
X33123Y25337
X35398Y26587
X36402Y28677
X38493Y26341
X39128Y25541
X38378Y23667
X38391Y22941
X35746Y22693
X35025Y20041
X38946Y20374
X40716Y19904
X41306Y20168
X41401Y18486
X41174Y22650
X42425Y22790
X42632Y24127
X41464Y24168
X45127Y24504
X44920Y23520
X45085Y21190
X45920Y21520
X47255Y22377
X48152Y20854
X49920Y21520
X51920
X53498Y22173
X52920Y23520
X54599Y23389
X56920Y23520
X57427Y21606
X55920Y21520
X56920Y19520
X58920
X59722Y21504
X59804Y23717
X59920Y25520
X57920
X55920
X53920
X51920
X49920
X49284Y24587
X50920Y23520
Y27520
X52920
X54920
X56920
X58920
X60920
X62920
X61920Y17520
X59920
X57920
X55920
X53920
X51920
X51154Y17360
X50798Y19557
X49343Y18597
X47185Y18647
X46920Y19520
X44920
X45920Y17520
X47207Y16621
X52451Y18637
X53686Y19871
X54920Y19520
X48920Y27520
X44920
T03
X13593Y8450
X14863Y9950
X16133
X18673
X19943
X21213Y8450
X17403
Y13596
X18673Y15096
X19943
X21213Y13596
X16133Y15096
X14863
X13593Y13596
Y18692
X14863Y20192
X16133
X18673
X19943
X21213Y18692
X17403
T04
X62826Y3175
Y8825
X62802Y19733
Y25383
T05
X38272Y2335
X40812
X30471Y2582
X27931
X5070Y3570
X2530
Y6110
X5070
Y8650
Y11190
X2530
Y13730
X5070
X2530Y8650
Y16270
X5070
Y18810
Y21350
X2530
Y23890
Y26430
X5070
Y23890
X2530Y18810
X30873Y27910
X33413
X38329
X40869
T06
X10843Y10950
Y16096
X23673Y15096
Y9950
Y20192
X10843Y21192
T07
X8000Y7380
Y22620
M30
