G04*
G04 #@! TF.GenerationSoftware,Altium Limited,Altium Designer,20.2.6 (244)*
G04*
G04 Layer_Color=8388736*
%FSLAX43Y43*%
%MOMM*%
G71*
G04*
G04 #@! TF.SameCoordinates,ADE9251E-79DE-46AD-AD66-6379AD971F3A*
G04*
G04*
G04 #@! TF.FilePolarity,Negative*
G04*
G01*
G75*
%ADD14C,0.102*%
%ADD15C,0.025*%
%ADD16C,0.254*%
%ADD17R,1.050X0.500*%
%ADD18R,0.450X1.400*%
%ADD19R,2.400X0.450*%
%ADD20R,0.965X1.041*%
%ADD21C,0.305*%
%ADD22R,0.711X0.711*%
%ADD23R,0.940X0.965*%
%ADD24R,0.965X0.940*%
%ADD25C,3.048*%
%ADD26C,1.346*%
%ADD27C,2.159*%
%ADD28C,0.864*%
%ADD29O,1.549X2.057*%
%ADD30O,1.219X1.753*%
%ADD31C,1.143*%
%ADD32C,5.664*%
%ADD33C,1.676*%
%ADD34R,1.676X1.676*%
%ADD35C,0.457*%
%ADD36C,0.406*%
%ADD37C,0.356*%
G36*
X45847Y6191D02*
X45339Y5683D01*
X44831Y6191D01*
Y7112D01*
X45847D01*
Y6191D01*
D02*
G37*
G36*
Y4572D02*
X44831D01*
Y5933D01*
X45337Y5427D01*
X45479Y5569D01*
X45847Y5937D01*
Y4572D01*
D02*
G37*
G36*
X10414Y124333D02*
X9053D01*
X9559Y124839D01*
X9417Y124981D01*
X9049Y125349D01*
X10414D01*
Y124333D01*
D02*
G37*
G36*
X9303Y124841D02*
X8795Y124333D01*
X7874D01*
Y125349D01*
X8795D01*
X9303Y124841D01*
D02*
G37*
D14*
X97543Y-49215D02*
X97470Y-49287D01*
X97543Y-49360D01*
X97615Y-49287D01*
X97543Y-49215D01*
X99037Y-48199D02*
X98965Y-48054D01*
X98820Y-47909D01*
X98674Y-47836D01*
X98384D01*
X98239Y-47909D01*
X98094Y-48054D01*
X98021Y-48199D01*
X97949Y-48417D01*
Y-48780D01*
X98021Y-48997D01*
X98094Y-49142D01*
X98239Y-49287D01*
X98384Y-49360D01*
X98674D01*
X98820Y-49287D01*
X98965Y-49142D01*
X99037Y-48997D01*
Y-48780D01*
X98674D02*
X99037D01*
X99893Y-47836D02*
Y-49360D01*
X99385Y-47836D02*
X100401D01*
X101598Y-48054D02*
X101453Y-47909D01*
X101236Y-47836D01*
X100945D01*
X100728Y-47909D01*
X100583Y-48054D01*
Y-48199D01*
X100655Y-48344D01*
X100728Y-48417D01*
X100873Y-48489D01*
X101308Y-48634D01*
X101453Y-48707D01*
X101526Y-48780D01*
X101598Y-48925D01*
Y-49142D01*
X101453Y-49287D01*
X101236Y-49360D01*
X100945D01*
X100728Y-49287D01*
X100583Y-49142D01*
X56007Y-47752D02*
Y-49276D01*
X55499Y-47752D02*
X56515D01*
X57132D02*
X56986Y-47825D01*
X56841Y-47970D01*
X56769Y-48115D01*
X56696Y-48333D01*
Y-48696D01*
X56769Y-48913D01*
X56841Y-49058D01*
X56986Y-49203D01*
X57132Y-49276D01*
X57422D01*
X57567Y-49203D01*
X57712Y-49058D01*
X57785Y-48913D01*
X57857Y-48696D01*
Y-48333D01*
X57785Y-48115D01*
X57712Y-47970D01*
X57567Y-47825D01*
X57422Y-47752D01*
X57132D01*
X58213Y-48550D02*
X58866D01*
X59083Y-48478D01*
X59156Y-48405D01*
X59228Y-48260D01*
Y-48043D01*
X59156Y-47897D01*
X59083Y-47825D01*
X58866Y-47752D01*
X58213D01*
Y-49276D01*
X61782Y-47970D02*
X61637Y-47825D01*
X61420Y-47752D01*
X61129D01*
X60912Y-47825D01*
X60767Y-47970D01*
Y-48115D01*
X60839Y-48260D01*
X60912Y-48333D01*
X61057Y-48405D01*
X61492Y-48550D01*
X61637Y-48623D01*
X61710Y-48696D01*
X61782Y-48841D01*
Y-49058D01*
X61637Y-49203D01*
X61420Y-49276D01*
X61129D01*
X60912Y-49203D01*
X60767Y-49058D01*
X62559Y-47752D02*
X62414Y-47825D01*
X62268Y-47970D01*
X62196Y-48115D01*
X62123Y-48333D01*
Y-48696D01*
X62196Y-48913D01*
X62268Y-49058D01*
X62414Y-49203D01*
X62559Y-49276D01*
X62849D01*
X62994Y-49203D01*
X63139Y-49058D01*
X63212Y-48913D01*
X63284Y-48696D01*
Y-48333D01*
X63212Y-48115D01*
X63139Y-47970D01*
X62994Y-47825D01*
X62849Y-47752D01*
X62559D01*
X63640D02*
Y-49276D01*
X64510D01*
X64677Y-47752D02*
Y-49276D01*
Y-47752D02*
X65185D01*
X65403Y-47825D01*
X65548Y-47970D01*
X65621Y-48115D01*
X65693Y-48333D01*
Y-48696D01*
X65621Y-48913D01*
X65548Y-49058D01*
X65403Y-49203D01*
X65185Y-49276D01*
X64677D01*
X66977Y-47752D02*
X66034D01*
Y-49276D01*
X66977D01*
X66034Y-48478D02*
X66615D01*
X67231Y-47752D02*
Y-49276D01*
Y-47752D02*
X67884D01*
X68102Y-47825D01*
X68175Y-47897D01*
X68247Y-48043D01*
Y-48188D01*
X68175Y-48333D01*
X68102Y-48405D01*
X67884Y-48478D01*
X67231D01*
X67739D02*
X68247Y-49276D01*
X69785Y-47752D02*
Y-49276D01*
Y-47752D02*
X70366Y-49276D01*
X70946Y-47752D02*
X70366Y-49276D01*
X70946Y-47752D02*
Y-49276D01*
X72542D02*
X71962Y-47752D01*
X71381Y-49276D01*
X71599Y-48768D02*
X72325D01*
X73914Y-47970D02*
X73769Y-47825D01*
X73551Y-47752D01*
X73261D01*
X73043Y-47825D01*
X72898Y-47970D01*
Y-48115D01*
X72970Y-48260D01*
X73043Y-48333D01*
X73188Y-48405D01*
X73623Y-48550D01*
X73769Y-48623D01*
X73841Y-48696D01*
X73914Y-48841D01*
Y-49058D01*
X73769Y-49203D01*
X73551Y-49276D01*
X73261D01*
X73043Y-49203D01*
X72898Y-49058D01*
X74255Y-47752D02*
Y-49276D01*
X75270Y-47752D02*
X74255Y-48768D01*
X74617Y-48405D02*
X75270Y-49276D01*
D15*
X59746Y26797D02*
G03*
X60000Y27051I0J254D01*
G01*
X0Y29845D02*
G03*
X0Y41402I-25591J5779D01*
G01*
X60000Y16510D02*
G03*
X59746Y16764I-254J0D01*
G01*
X58713Y17018D02*
G03*
X58967Y16764I254J0D01*
G01*
Y26797D02*
G03*
X58713Y26543I0J-254D01*
G01*
X-90424Y-128016D02*
Y283464D01*
X458216D01*
Y-128016D02*
Y283464D01*
X-90424Y-128016D02*
X458216D01*
X183896Y275844D02*
Y283464D01*
Y-128016D02*
X188976Y-116586D01*
X178816D02*
X188976D01*
X178816D02*
X183896Y-128016D01*
Y-110236D01*
Y-121666D02*
X188976Y-116586D01*
X178816D02*
X183896Y-121666D01*
X450596Y176784D02*
X458216D01*
X450596Y77724D02*
X458216D01*
X450596Y-21336D02*
X458216D01*
X361696Y-128016D02*
Y-120396D01*
X272796Y-128016D02*
Y-120396D01*
X183896Y-128016D02*
Y-120396D01*
X94996Y-128016D02*
Y-120396D01*
X6096Y-128016D02*
Y-120396D01*
X361696Y275844D02*
Y283464D01*
X272796Y275844D02*
Y283464D01*
X94996Y275844D02*
Y283464D01*
X6096Y275844D02*
Y283464D01*
X-90424Y176784D02*
X-82804D01*
X-90424Y77724D02*
X-82804D01*
X-90424Y-21336D02*
X-82804D01*
X326136Y-120396D02*
X450596D01*
Y123444D01*
X-82804Y275844D02*
X450596D01*
Y82804D02*
Y275844D01*
Y123444D02*
Y219964D01*
X-82804Y-120396D02*
X326136D01*
X-82804D02*
Y275844D01*
X-90424Y-21336D02*
X-82804D01*
X450596Y77724D02*
X458216D01*
X361696Y275844D02*
Y283464D01*
X-90424Y176784D02*
X-82804D01*
X6096Y-128016D02*
Y-120396D01*
X450596Y-21336D02*
X458216D01*
X326136Y-120396D02*
X450596D01*
Y123444D01*
X-90424Y-128016D02*
Y283464D01*
X458216D01*
Y-128016D02*
Y283464D01*
X-90424Y-128016D02*
X458216D01*
X272796D02*
Y-120396D01*
X-82804D02*
Y275844D01*
X183896Y-128016D02*
Y-120396D01*
Y-121666D02*
X188976Y-116586D01*
X178816D02*
X183896Y-121666D01*
Y-128016D02*
X188976Y-116586D01*
X178816D02*
X188976D01*
X178816D02*
X183896Y-128016D01*
Y-110236D01*
X361696Y-128016D02*
Y-120396D01*
X-90424Y77724D02*
X-82804D01*
X272796Y275844D02*
Y283464D01*
X450596Y176784D02*
X458216D01*
X94996Y275844D02*
Y283464D01*
X183896Y275844D02*
Y283464D01*
X450596Y123444D02*
Y219964D01*
X-82804Y275844D02*
X450596D01*
Y82804D02*
Y275844D01*
X6096D02*
Y283464D01*
X-82804Y-120396D02*
X326136D01*
X94996Y-128016D02*
Y-120396D01*
X0Y41402D02*
Y127000D01*
X60000D01*
Y27051D02*
Y127000D01*
Y27051D02*
Y127000D01*
X0D02*
X60000D01*
X0Y41402D02*
Y127000D01*
Y0D02*
Y29845D01*
Y0D02*
X18917D01*
Y1785D01*
X19017Y1885D01*
X19667D01*
X19767Y1785D01*
Y0D02*
Y1785D01*
Y0D02*
X23667D01*
Y1785D01*
X23767Y1885D01*
X24417D01*
X24517Y1785D01*
Y0D02*
Y1785D01*
Y0D02*
X60000D01*
Y16510D01*
X58967Y16764D02*
X59746D01*
X58713Y17018D02*
Y26543D01*
X58967Y26797D02*
X59746D01*
X58967D02*
X59746D01*
D16*
X453136Y223265D02*
Y219964D01*
Y223265D02*
X454236D01*
X454708Y223108D01*
X455022Y222794D01*
X455180Y222479D01*
X455337Y222008D01*
Y221222D01*
X455180Y220750D01*
X455022Y220436D01*
X454708Y220121D01*
X454236Y219964D01*
X453136D01*
X455494Y123419D02*
X455337Y123734D01*
X455022Y124048D01*
X454708Y124205D01*
X454079D01*
X453765Y124048D01*
X453450Y123734D01*
X453293Y123419D01*
X453136Y122948D01*
Y122162D01*
X453293Y121690D01*
X453450Y121376D01*
X453765Y121061D01*
X454079Y120904D01*
X454708D01*
X455022Y121061D01*
X455337Y121376D01*
X455494Y121690D01*
X453136Y30225D02*
Y26924D01*
Y30225D02*
X454551D01*
X455022Y30068D01*
X455180Y29911D01*
X455337Y29596D01*
Y29282D01*
X455180Y28968D01*
X455022Y28810D01*
X454551Y28653D01*
X453136D02*
X454551D01*
X455022Y28496D01*
X455180Y28339D01*
X455337Y28024D01*
Y27553D01*
X455180Y27238D01*
X455022Y27081D01*
X454551Y26924D01*
X453136D01*
X455651Y-79756D02*
X454394Y-76455D01*
X453136Y-79756D01*
X453608Y-78656D02*
X455180D01*
X407416Y-122804D02*
X407730Y-122646D01*
X408202Y-122175D01*
Y-125476D01*
X318673Y-122961D02*
Y-122804D01*
X318830Y-122489D01*
X318988Y-122332D01*
X319302Y-122175D01*
X319931D01*
X320245Y-122332D01*
X320402Y-122489D01*
X320560Y-122804D01*
Y-123118D01*
X320402Y-123432D01*
X320088Y-123904D01*
X318516Y-125476D01*
X320717D01*
X229930Y-122175D02*
X231660D01*
X230716Y-123432D01*
X231188D01*
X231502Y-123590D01*
X231660Y-123747D01*
X231817Y-124218D01*
Y-124533D01*
X231660Y-125004D01*
X231345Y-125319D01*
X230874Y-125476D01*
X230402D01*
X229930Y-125319D01*
X229773Y-125162D01*
X229616Y-124847D01*
X142288Y-122175D02*
X140716Y-124376D01*
X143074D01*
X142288Y-122175D02*
Y-125476D01*
X53702Y-122175D02*
X52130D01*
X51973Y-123590D01*
X52130Y-123432D01*
X52602Y-123275D01*
X53074D01*
X53545Y-123432D01*
X53860Y-123747D01*
X54017Y-124218D01*
Y-124533D01*
X53860Y-125004D01*
X53545Y-125319D01*
X53074Y-125476D01*
X52602D01*
X52130Y-125319D01*
X51973Y-125162D01*
X51816Y-124847D01*
X-35198Y-122646D02*
X-35355Y-122332D01*
X-35826Y-122175D01*
X-36141D01*
X-36612Y-122332D01*
X-36927Y-122804D01*
X-37084Y-123590D01*
Y-124376D01*
X-36927Y-125004D01*
X-36612Y-125319D01*
X-36141Y-125476D01*
X-35984D01*
X-35512Y-125319D01*
X-35198Y-125004D01*
X-35040Y-124533D01*
Y-124376D01*
X-35198Y-123904D01*
X-35512Y-123590D01*
X-35984Y-123432D01*
X-36141D01*
X-36612Y-123590D01*
X-36927Y-123904D01*
X-37084Y-124376D01*
X407416Y281056D02*
X407730Y281214D01*
X408202Y281685D01*
Y278384D01*
X318673Y280899D02*
Y281056D01*
X318830Y281371D01*
X318988Y281528D01*
X319302Y281685D01*
X319931D01*
X320245Y281528D01*
X320402Y281371D01*
X320560Y281056D01*
Y280742D01*
X320402Y280428D01*
X320088Y279956D01*
X318516Y278384D01*
X320717D01*
X229930Y281685D02*
X231660D01*
X230716Y280428D01*
X231188D01*
X231502Y280270D01*
X231660Y280113D01*
X231817Y279642D01*
Y279327D01*
X231660Y278856D01*
X231345Y278541D01*
X230874Y278384D01*
X230402D01*
X229930Y278541D01*
X229773Y278698D01*
X229616Y279013D01*
X142288Y281685D02*
X140716Y279484D01*
X143074D01*
X142288Y281685D02*
Y278384D01*
X53702Y281685D02*
X52130D01*
X51973Y280270D01*
X52130Y280428D01*
X52602Y280585D01*
X53074D01*
X53545Y280428D01*
X53860Y280113D01*
X54017Y279642D01*
Y279327D01*
X53860Y278856D01*
X53545Y278541D01*
X53074Y278384D01*
X52602D01*
X52130Y278541D01*
X51973Y278698D01*
X51816Y279013D01*
X-35198Y281214D02*
X-35355Y281528D01*
X-35826Y281685D01*
X-36141D01*
X-36612Y281528D01*
X-36927Y281056D01*
X-37084Y280270D01*
Y279484D01*
X-36927Y278856D01*
X-36612Y278541D01*
X-36141Y278384D01*
X-35984D01*
X-35512Y278541D01*
X-35198Y278856D01*
X-35040Y279327D01*
Y279484D01*
X-35198Y279956D01*
X-35512Y280270D01*
X-35984Y280428D01*
X-36141D01*
X-36612Y280270D01*
X-36927Y279956D01*
X-37084Y279484D01*
X-85369Y-79756D02*
X-86626Y-76455D01*
X-87884Y-79756D01*
X-87412Y-78656D02*
X-85840D01*
X-87884Y30225D02*
Y26924D01*
Y30225D02*
X-86469D01*
X-85998Y30068D01*
X-85840Y29911D01*
X-85683Y29596D01*
Y29282D01*
X-85840Y28968D01*
X-85998Y28810D01*
X-86469Y28653D01*
X-87884D02*
X-86469D01*
X-85998Y28496D01*
X-85840Y28339D01*
X-85683Y28024D01*
Y27553D01*
X-85840Y27238D01*
X-85998Y27081D01*
X-86469Y26924D01*
X-87884D01*
X-85526Y123419D02*
X-85683Y123734D01*
X-85998Y124048D01*
X-86312Y124205D01*
X-86941D01*
X-87255Y124048D01*
X-87570Y123734D01*
X-87727Y123419D01*
X-87884Y122948D01*
Y122162D01*
X-87727Y121690D01*
X-87570Y121376D01*
X-87255Y121061D01*
X-86941Y120904D01*
X-86312D01*
X-85998Y121061D01*
X-85683Y121376D01*
X-85526Y121690D01*
X-87884Y223265D02*
Y219964D01*
Y223265D02*
X-86784D01*
X-86312Y223108D01*
X-85998Y222794D01*
X-85840Y222479D01*
X-85683Y222008D01*
Y221222D01*
X-85840Y220750D01*
X-85998Y220436D01*
X-86312Y220121D01*
X-86784Y219964D01*
X-87884D01*
X-85369Y-79756D02*
X-86626Y-76455D01*
X-87884Y-79756D01*
X-87412Y-78656D02*
X-85840D01*
X453136Y223265D02*
Y219964D01*
Y223265D02*
X454236D01*
X454708Y223108D01*
X455022Y222794D01*
X455180Y222479D01*
X455337Y222008D01*
Y221222D01*
X455180Y220750D01*
X455022Y220436D01*
X454708Y220121D01*
X454236Y219964D01*
X453136D01*
X-85526Y123419D02*
X-85683Y123734D01*
X-85998Y124048D01*
X-86312Y124205D01*
X-86941D01*
X-87255Y124048D01*
X-87570Y123734D01*
X-87727Y123419D01*
X-87884Y122948D01*
Y122162D01*
X-87727Y121690D01*
X-87570Y121376D01*
X-87255Y121061D01*
X-86941Y120904D01*
X-86312D01*
X-85998Y121061D01*
X-85683Y121376D01*
X-85526Y121690D01*
X407416Y281056D02*
X407730Y281214D01*
X408202Y281685D01*
Y278384D01*
X53702Y-122175D02*
X52130D01*
X51973Y-123590D01*
X52130Y-123432D01*
X52602Y-123275D01*
X53074D01*
X53545Y-123432D01*
X53860Y-123747D01*
X54017Y-124218D01*
Y-124533D01*
X53860Y-125004D01*
X53545Y-125319D01*
X53074Y-125476D01*
X52602D01*
X52130Y-125319D01*
X51973Y-125162D01*
X51816Y-124847D01*
X455494Y123419D02*
X455337Y123734D01*
X455022Y124048D01*
X454708Y124205D01*
X454079D01*
X453765Y124048D01*
X453450Y123734D01*
X453293Y123419D01*
X453136Y122948D01*
Y122162D01*
X453293Y121690D01*
X453450Y121376D01*
X453765Y121061D01*
X454079Y120904D01*
X454708D01*
X455022Y121061D01*
X455337Y121376D01*
X455494Y121690D01*
X142288Y-122175D02*
X140716Y-124376D01*
X143074D01*
X142288Y-122175D02*
Y-125476D01*
X318673Y280899D02*
Y281056D01*
X318830Y281371D01*
X318988Y281528D01*
X319302Y281685D01*
X319931D01*
X320245Y281528D01*
X320402Y281371D01*
X320560Y281056D01*
Y280742D01*
X320402Y280428D01*
X320088Y279956D01*
X318516Y278384D01*
X320717D01*
X-35198Y281214D02*
X-35355Y281528D01*
X-35826Y281685D01*
X-36141D01*
X-36612Y281528D01*
X-36927Y281056D01*
X-37084Y280270D01*
Y279484D01*
X-36927Y278856D01*
X-36612Y278541D01*
X-36141Y278384D01*
X-35984D01*
X-35512Y278541D01*
X-35198Y278856D01*
X-35040Y279327D01*
Y279484D01*
X-35198Y279956D01*
X-35512Y280270D01*
X-35984Y280428D01*
X-36141D01*
X-36612Y280270D01*
X-36927Y279956D01*
X-37084Y279484D01*
X-87884Y223265D02*
Y219964D01*
Y223265D02*
X-86784D01*
X-86312Y223108D01*
X-85998Y222794D01*
X-85840Y222479D01*
X-85683Y222008D01*
Y221222D01*
X-85840Y220750D01*
X-85998Y220436D01*
X-86312Y220121D01*
X-86784Y219964D01*
X-87884D01*
X53702Y281685D02*
X52130D01*
X51973Y280270D01*
X52130Y280428D01*
X52602Y280585D01*
X53074D01*
X53545Y280428D01*
X53860Y280113D01*
X54017Y279642D01*
Y279327D01*
X53860Y278856D01*
X53545Y278541D01*
X53074Y278384D01*
X52602D01*
X52130Y278541D01*
X51973Y278698D01*
X51816Y279013D01*
X-35198Y-122646D02*
X-35355Y-122332D01*
X-35826Y-122175D01*
X-36141D01*
X-36612Y-122332D01*
X-36927Y-122804D01*
X-37084Y-123590D01*
Y-124376D01*
X-36927Y-125004D01*
X-36612Y-125319D01*
X-36141Y-125476D01*
X-35984D01*
X-35512Y-125319D01*
X-35198Y-125004D01*
X-35040Y-124533D01*
Y-124376D01*
X-35198Y-123904D01*
X-35512Y-123590D01*
X-35984Y-123432D01*
X-36141D01*
X-36612Y-123590D01*
X-36927Y-123904D01*
X-37084Y-124376D01*
X229930Y-122175D02*
X231660D01*
X230716Y-123432D01*
X231188D01*
X231502Y-123590D01*
X231660Y-123747D01*
X231817Y-124218D01*
Y-124533D01*
X231660Y-125004D01*
X231345Y-125319D01*
X230874Y-125476D01*
X230402D01*
X229930Y-125319D01*
X229773Y-125162D01*
X229616Y-124847D01*
X453136Y30225D02*
Y26924D01*
Y30225D02*
X454551D01*
X455022Y30068D01*
X455180Y29911D01*
X455337Y29596D01*
Y29282D01*
X455180Y28968D01*
X455022Y28810D01*
X454551Y28653D01*
X453136D02*
X454551D01*
X455022Y28496D01*
X455180Y28339D01*
X455337Y28024D01*
Y27553D01*
X455180Y27238D01*
X455022Y27081D01*
X454551Y26924D01*
X453136D01*
X229930Y281685D02*
X231660D01*
X230716Y280428D01*
X231188D01*
X231502Y280270D01*
X231660Y280113D01*
X231817Y279642D01*
Y279327D01*
X231660Y278856D01*
X231345Y278541D01*
X230874Y278384D01*
X230402D01*
X229930Y278541D01*
X229773Y278698D01*
X229616Y279013D01*
X455651Y-79756D02*
X454394Y-76455D01*
X453136Y-79756D01*
X453608Y-78656D02*
X455180D01*
X-87884Y30225D02*
Y26924D01*
Y30225D02*
X-86469D01*
X-85998Y30068D01*
X-85840Y29911D01*
X-85683Y29596D01*
Y29282D01*
X-85840Y28968D01*
X-85998Y28810D01*
X-86469Y28653D01*
X-87884D02*
X-86469D01*
X-85998Y28496D01*
X-85840Y28339D01*
X-85683Y28024D01*
Y27553D01*
X-85840Y27238D01*
X-85998Y27081D01*
X-86469Y26924D01*
X-87884D01*
X407416Y-122804D02*
X407730Y-122646D01*
X408202Y-122175D01*
Y-125476D01*
X142288Y281685D02*
X140716Y279484D01*
X143074D01*
X142288Y281685D02*
Y278384D01*
X318673Y-122961D02*
Y-122804D01*
X318830Y-122489D01*
X318988Y-122332D01*
X319302Y-122175D01*
X319931D01*
X320245Y-122332D01*
X320402Y-122489D01*
X320560Y-122804D01*
Y-123118D01*
X320402Y-123432D01*
X320088Y-123904D01*
X318516Y-125476D01*
X320717D01*
D17*
X28155Y5165D02*
D03*
Y6065D02*
D03*
X29505Y5165D02*
D03*
Y6065D02*
D03*
X49156Y5163D02*
D03*
Y6063D02*
D03*
X50506Y5163D02*
D03*
Y6063D02*
D03*
X12152Y123146D02*
D03*
Y124046D02*
D03*
X13502Y123146D02*
D03*
Y124046D02*
D03*
D18*
X27105Y5615D02*
D03*
X30555D02*
D03*
X48106Y5613D02*
D03*
X51556D02*
D03*
X11102Y123596D02*
D03*
X14552D02*
D03*
D19*
X28830Y4390D02*
D03*
Y6840D02*
D03*
X49831Y4388D02*
D03*
Y6838D02*
D03*
X12827Y122371D02*
D03*
Y124821D02*
D03*
D20*
X21971Y123444D02*
D03*
Y124968D02*
D03*
X17272D02*
D03*
Y123444D02*
D03*
X24892Y8509D02*
D03*
Y6985D02*
D03*
X26670Y124968D02*
D03*
Y123444D02*
D03*
X31369Y124968D02*
D03*
Y123444D02*
D03*
D21*
X9906Y124841D02*
D03*
X8382D02*
D03*
X45339Y5080D02*
D03*
Y6604D02*
D03*
D22*
X13208Y121158D02*
D03*
X12192D02*
D03*
X29210Y3302D02*
D03*
X28194D02*
D03*
D23*
X10795Y121031D02*
D03*
X9271D02*
D03*
D24*
X26670Y121666D02*
D03*
Y120142D02*
D03*
X31369Y121666D02*
D03*
Y120142D02*
D03*
X17272Y121666D02*
D03*
Y120142D02*
D03*
X21971Y121666D02*
D03*
Y120142D02*
D03*
D25*
X54610Y9271D02*
D03*
X6604Y118491D02*
D03*
X54356Y118110D02*
D03*
D26*
X7620Y16510D02*
D03*
Y21590D02*
D03*
D27*
X4953Y102108D02*
D03*
X11953D02*
D03*
D28*
X9271Y31242D02*
D03*
Y38792D02*
D03*
D29*
X25867Y1280D02*
D03*
X17567D02*
D03*
D30*
X19442Y4460D02*
D03*
X23992D02*
D03*
D31*
X29118Y122151D02*
D03*
X33518D02*
D03*
D32*
X4191Y4191D02*
D03*
Y122809D02*
D03*
X55809D02*
D03*
Y4191D02*
D03*
D33*
X31496Y84836D02*
D03*
X34036D02*
D03*
Y87376D02*
D03*
X36576D02*
D03*
D34*
X31496D02*
D03*
D35*
X25273Y31509D02*
D03*
X25019Y96012D02*
D03*
X24912Y99207D02*
D03*
X24663Y113081D02*
D03*
X24384Y38354D02*
D03*
X24130Y35179D02*
D03*
X24003Y82550D02*
D03*
Y81788D02*
D03*
Y80899D02*
D03*
Y33528D02*
D03*
X23931Y125802D02*
D03*
X23876Y50800D02*
D03*
X23749Y95631D02*
D03*
Y53696D02*
D03*
X23470Y11570D02*
D03*
X23368Y47879D02*
D03*
Y35179D02*
D03*
X23290Y84709D02*
D03*
X23114Y82550D02*
D03*
Y80899D02*
D03*
X23109Y81765D02*
D03*
X23017Y5334D02*
D03*
X22860Y8280D02*
D03*
Y53721D02*
D03*
Y31496D02*
D03*
X22479Y95885D02*
D03*
Y86360D02*
D03*
X22339Y32017D02*
D03*
X22174Y46736D02*
D03*
X22098Y51562D02*
D03*
Y50241D02*
D03*
Y49276D02*
D03*
X21565Y27813D02*
D03*
X21336Y111125D02*
D03*
X21209Y95885D02*
D03*
Y45644D02*
D03*
X21125Y113919D02*
D03*
X21082Y94996D02*
D03*
X20955Y124968D02*
D03*
X20828Y93091D02*
D03*
X20701Y106934D02*
D03*
X20447Y7620D02*
D03*
X20320Y24257D02*
D03*
X20193Y10033D02*
D03*
X20066Y11938D02*
D03*
Y73914D02*
D03*
Y73152D02*
D03*
X20041Y19202D02*
D03*
X19990Y112446D02*
D03*
X19964Y22301D02*
D03*
X19939Y34290D02*
D03*
X19788Y35790D02*
D03*
X19558Y78232D02*
D03*
X19431Y114427D02*
D03*
X19329Y108509D02*
D03*
X19177Y73914D02*
D03*
Y73152D02*
D03*
X18669Y94869D02*
D03*
X18415Y106553D02*
D03*
X18288Y124968D02*
D03*
Y8070D02*
D03*
Y7211D02*
D03*
X18161Y78232D02*
D03*
X18148Y44536D02*
D03*
X18136Y41986D02*
D03*
X18059Y34874D02*
D03*
X18058Y39083D02*
D03*
X18057Y40482D02*
D03*
X18034Y37465D02*
D03*
X17932Y103581D02*
D03*
X17907Y107696D02*
D03*
Y66294D02*
D03*
X17729Y93218D02*
D03*
Y90932D02*
D03*
X17379Y81808D02*
D03*
X17272Y11227D02*
D03*
X17018Y92837D02*
D03*
X16969Y89388D02*
D03*
X16764Y96774D02*
D03*
X16612Y32029D02*
D03*
X16510Y78842D02*
D03*
X16434Y20980D02*
D03*
X16383Y24765D02*
D03*
Y11227D02*
D03*
X15748Y95377D02*
D03*
X15723Y117678D02*
D03*
X15561Y77038D02*
D03*
X15367Y123546D02*
D03*
X15291Y76352D02*
D03*
X15037Y22860D02*
D03*
X14931Y125802D02*
D03*
X14920Y11049D02*
D03*
X14735Y77035D02*
D03*
X14478Y111125D02*
D03*
Y78613D02*
D03*
X14402Y76378D02*
D03*
X14351Y95377D02*
D03*
X14224Y65913D02*
D03*
Y65151D02*
D03*
X14199Y64389D02*
D03*
X14122Y117348D02*
D03*
X13970Y8636D02*
D03*
X13939Y77000D02*
D03*
X13843Y79629D02*
D03*
X13589Y5715D02*
D03*
Y4953D02*
D03*
X13462Y65913D02*
D03*
Y65151D02*
D03*
Y64389D02*
D03*
Y41275D02*
D03*
X13208Y120269D02*
D03*
X13081Y124841D02*
D03*
Y92837D02*
D03*
Y79121D02*
D03*
Y38217D02*
D03*
Y36017D02*
D03*
X12954Y122301D02*
D03*
X12827Y89916D02*
D03*
Y5715D02*
D03*
Y4953D02*
D03*
X12370Y76378D02*
D03*
X12319Y12446D02*
D03*
X12192Y120117D02*
D03*
X11989Y77013D02*
D03*
X11811Y125984D02*
D03*
Y95123D02*
D03*
X11608Y76378D02*
D03*
X11430Y84582D02*
D03*
X11422Y87681D02*
D03*
X11100Y77013D02*
D03*
X10795Y120117D02*
D03*
X10719Y76378D02*
D03*
X10541Y20320D02*
D03*
X10414Y1905D02*
D03*
Y84582D02*
D03*
Y2794D02*
D03*
X10160Y123825D02*
D03*
Y50139D02*
D03*
X10097Y111062D02*
D03*
X10084Y41275D02*
D03*
X9652Y1905D02*
D03*
Y2794D02*
D03*
X9601Y86868D02*
D03*
X9271Y123190D02*
D03*
X9169Y88519D02*
D03*
X8636Y45466D02*
D03*
X8534Y44628D02*
D03*
X8255Y14478D02*
D03*
X7620Y109601D02*
D03*
X7493Y80416D02*
D03*
X7366Y10414D02*
D03*
X6731Y69342D02*
D03*
X5994Y86995D02*
D03*
X59182Y107442D02*
D03*
X58801Y102362D02*
D03*
X58699Y110767D02*
D03*
X58674Y83820D02*
D03*
X58420Y109347D02*
D03*
Y78486D02*
D03*
X56642Y94996D02*
D03*
Y28067D02*
D03*
X56226Y22317D02*
D03*
Y21117D02*
D03*
Y19917D02*
D03*
Y18117D02*
D03*
X55499Y29464D02*
D03*
X54102Y23517D02*
D03*
Y70231D02*
D03*
X53594Y93345D02*
D03*
X5334Y74397D02*
D03*
X53086Y19431D02*
D03*
Y110744D02*
D03*
X52705Y29591D02*
D03*
X52426Y35839D02*
D03*
X51584Y4318D02*
D03*
X51460Y96215D02*
D03*
X51232Y24765D02*
D03*
X50648Y25730D02*
D03*
X50546Y22860D02*
D03*
Y124079D02*
D03*
Y122174D02*
D03*
Y120015D02*
D03*
X50419Y18669D02*
D03*
X50215Y72771D02*
D03*
X50038Y55347D02*
D03*
X49809Y4369D02*
D03*
X49759Y6807D02*
D03*
X49530Y94361D02*
D03*
Y93599D02*
D03*
Y92583D02*
D03*
X49403Y18644D02*
D03*
X49022Y70993D02*
D03*
Y70104D02*
D03*
X48743Y30886D02*
D03*
X48641Y3683D02*
D03*
X48387Y75565D02*
D03*
Y74803D02*
D03*
X48133Y117475D02*
D03*
Y70993D02*
D03*
Y70104D02*
D03*
X48108Y5613D02*
D03*
X47955Y23368D02*
D03*
X47879Y19050D02*
D03*
X47752Y17069D02*
D03*
Y89637D02*
D03*
X47625Y16256D02*
D03*
Y75565D02*
D03*
Y74803D02*
D03*
X47473Y38481D02*
D03*
X47244Y70993D02*
D03*
Y70104D02*
D03*
X47168Y23343D02*
D03*
X47117Y36271D02*
D03*
X46736Y54991D02*
D03*
X45974Y58547D02*
D03*
Y55753D02*
D03*
X45923Y32334D02*
D03*
X45720Y89611D02*
D03*
X45568Y54051D02*
D03*
X45212Y58547D02*
D03*
X44958Y55753D02*
D03*
X44907Y17551D02*
D03*
X44069Y37795D02*
D03*
X4381Y111062D02*
D03*
X43586Y48514D02*
D03*
X43561Y49530D02*
D03*
X43180Y95758D02*
D03*
X41402Y37795D02*
D03*
X41300Y61595D02*
D03*
X41148Y117856D02*
D03*
X4064Y109474D02*
D03*
X40513Y117475D02*
D03*
Y63627D02*
D03*
X39624Y72390D02*
D03*
X38735Y37846D02*
D03*
X38608Y118453D02*
D03*
X38557Y61595D02*
D03*
X38456Y62611D02*
D03*
X38303Y48514D02*
D03*
X38252Y49555D02*
D03*
X37719Y73279D02*
D03*
X36830Y63627D02*
D03*
X36703Y61595D02*
D03*
X36678Y62611D02*
D03*
X36449Y37846D02*
D03*
X36068Y15113D02*
D03*
X35814Y72771D02*
D03*
Y69215D02*
D03*
Y63881D02*
D03*
X35052Y63627D02*
D03*
Y62611D02*
D03*
Y61595D02*
D03*
X34519Y49733D02*
D03*
X34493Y48666D02*
D03*
X34036Y63627D02*
D03*
X33655Y66929D02*
D03*
X33401Y61574D02*
D03*
X33350Y62636D02*
D03*
X33325Y14910D02*
D03*
X33249Y37156D02*
D03*
X33020Y106172D02*
D03*
Y101854D02*
D03*
X32918Y120752D02*
D03*
X32893Y103124D02*
D03*
X32639Y124968D02*
D03*
X32512Y18796D02*
D03*
X32080Y37171D02*
D03*
X31877Y116840D02*
D03*
X31623Y99314D02*
D03*
Y96012D02*
D03*
Y62636D02*
D03*
Y61595D02*
D03*
X31369Y109220D02*
D03*
X31242Y5588D02*
D03*
X31115Y113411D02*
D03*
X30480Y96266D02*
D03*
X30353Y12192D02*
D03*
X29718Y111506D02*
D03*
Y10338D02*
D03*
Y840D02*
D03*
X29591Y15367D02*
D03*
Y12192D02*
D03*
Y37084D02*
D03*
X29337Y84455D02*
D03*
Y83693D02*
D03*
X29312Y95834D02*
D03*
X29007Y91846D02*
D03*
X28829Y111506D02*
D03*
X28575Y84455D02*
D03*
Y83693D02*
D03*
Y6858D02*
D03*
Y4318D02*
D03*
X28461Y14605D02*
D03*
X28412Y107986D02*
D03*
X28194Y9957D02*
D03*
Y2540D02*
D03*
X28016Y18339D02*
D03*
X27813Y84455D02*
D03*
Y83693D02*
D03*
X27737Y55651D02*
D03*
X27686Y95758D02*
D03*
X27559Y58674D02*
D03*
Y52832D02*
D03*
X27102Y5715D02*
D03*
X27068Y117619D02*
D03*
X26924Y91821D02*
D03*
X26543Y58674D02*
D03*
Y52832D02*
D03*
X26162Y95758D02*
D03*
X25654Y56642D02*
D03*
X25603Y18136D02*
D03*
X25531Y21590D02*
D03*
Y20320D02*
D03*
Y26543D02*
D03*
X25527Y25260D02*
D03*
Y24105D02*
D03*
Y22860D02*
D03*
X25502Y19054D02*
D03*
X25446Y119426D02*
D03*
X25412Y102096D02*
D03*
X25400Y124968D02*
D03*
D36*
X25150Y30289D02*
D03*
X25146Y29654D02*
D03*
X24954Y28257D02*
D03*
X24912Y108184D02*
D03*
X24765Y112395D02*
D03*
X24320Y114681D02*
D03*
X24232Y29604D02*
D03*
X24130Y23851D02*
D03*
Y17297D02*
D03*
X23876Y102108D02*
D03*
Y6858D02*
D03*
X23749Y44450D02*
D03*
X2375Y52451D02*
D03*
Y51689D02*
D03*
X23622Y45339D02*
D03*
X23153Y102152D02*
D03*
X23139Y7595D02*
D03*
X22606Y17272D02*
D03*
X22454Y42037D02*
D03*
X21768Y38684D02*
D03*
X21730Y10163D02*
D03*
X21717Y110236D02*
D03*
X21641Y29642D02*
D03*
X21387Y42012D02*
D03*
X21336Y41199D02*
D03*
X21285Y112395D02*
D03*
X21209Y30607D02*
D03*
X21069Y10147D02*
D03*
X20574Y37795D02*
D03*
X20523Y38456D02*
D03*
X20475Y103152D02*
D03*
X20472Y41961D02*
D03*
X20447Y115976D02*
D03*
X19939Y50139D02*
D03*
X19875Y47599D02*
D03*
X19851Y48869D02*
D03*
X18898Y119634D02*
D03*
X18796Y30861D02*
D03*
Y30226D02*
D03*
X18288Y104652D02*
D03*
X18161Y12497D02*
D03*
X17780Y87249D02*
D03*
Y85598D02*
D03*
Y83947D02*
D03*
X17145Y56134D02*
D03*
X17018Y115951D02*
D03*
X16510Y13589D02*
D03*
X16129Y124587D02*
D03*
Y111125D02*
D03*
Y87249D02*
D03*
Y85598D02*
D03*
Y83947D02*
D03*
X15240Y81788D02*
D03*
X14605Y85598D02*
D03*
X14478Y87249D02*
D03*
Y83947D02*
D03*
X13970Y14986D02*
D03*
X13462Y32639D02*
D03*
X13437Y33274D02*
D03*
X13335Y34036D02*
D03*
X13144Y81534D02*
D03*
X12929Y38961D02*
D03*
X12319Y11049D02*
D03*
Y83348D02*
D03*
X12294Y39014D02*
D03*
X12065Y34798D02*
D03*
X12040Y34036D02*
D03*
X11811Y93218D02*
D03*
X11557Y64389D02*
D03*
X11049Y83160D02*
D03*
X10795Y65405D02*
D03*
X10541Y119253D02*
D03*
X10312Y46329D02*
D03*
X10288Y47600D02*
D03*
X10287Y58293D02*
D03*
Y48869D02*
D03*
X9754Y79629D02*
D03*
X9601Y91516D02*
D03*
X9093Y83363D02*
D03*
Y82169D02*
D03*
X8763Y65151D02*
D03*
X8407Y82118D02*
D03*
X8382Y56261D02*
D03*
Y55626D02*
D03*
X8001Y77216D02*
D03*
X7899Y61519D02*
D03*
Y60833D02*
D03*
X7874Y76581D02*
D03*
X7798Y92075D02*
D03*
X7747Y85598D02*
D03*
Y75565D02*
D03*
X7722Y86233D02*
D03*
X7620Y73000D02*
D03*
X7556Y93345D02*
D03*
Y63881D02*
D03*
X6960Y60909D02*
D03*
X6350Y82677D02*
D03*
X57277Y43434D02*
D03*
X56896Y98552D02*
D03*
X56642Y94107D02*
D03*
X56515Y92964D02*
D03*
X56261Y19050D02*
D03*
Y47752D02*
D03*
X56134Y24892D02*
D03*
Y24117D02*
D03*
X54381Y61189D02*
D03*
X54229Y46101D02*
D03*
X54102Y54991D02*
D03*
Y35750D02*
D03*
X53975Y57531D02*
D03*
Y31242D02*
D03*
X53848Y80899D02*
D03*
Y80010D02*
D03*
Y79248D02*
D03*
X53594Y92456D02*
D03*
X53569Y46101D02*
D03*
X53543Y45466D02*
D03*
X53349Y20847D02*
D03*
Y20186D02*
D03*
X53340Y62611D02*
D03*
X53197Y23247D02*
D03*
Y22586D02*
D03*
X52832Y70231D02*
D03*
X52388Y61468D02*
D03*
X51308Y18669D02*
D03*
X51181Y8255D02*
D03*
X51054Y35750D02*
D03*
X51052Y22047D02*
D03*
Y21387D02*
D03*
X50292Y58801D02*
D03*
X4953Y70612D02*
D03*
Y67691D02*
D03*
X49403Y117729D02*
D03*
X49085Y85661D02*
D03*
X48387Y40640D02*
D03*
Y37465D02*
D03*
X48063Y14789D02*
D03*
X47676Y55220D02*
D03*
X47625Y62865D02*
D03*
X47269Y43891D02*
D03*
Y43028D02*
D03*
X47117Y5461D02*
D03*
X47015Y45288D02*
D03*
X4699Y58674D02*
D03*
X46431Y30607D02*
D03*
X46355Y5461D02*
D03*
X46203Y25679D02*
D03*
X46076Y33299D02*
D03*
X45974Y40513D02*
D03*
Y39497D02*
D03*
X45085Y60198D02*
D03*
X44958Y40513D02*
D03*
X44933Y39624D02*
D03*
X44856Y11659D02*
D03*
X44831Y18974D02*
D03*
X44298Y16282D02*
D03*
X44069Y35306D02*
D03*
X43332Y39141D02*
D03*
X43231Y11811D02*
D03*
X43180Y10795D02*
D03*
X43053Y14732D02*
D03*
X42545Y5461D02*
D03*
X42418Y14986D02*
D03*
X42393Y38964D02*
D03*
X42367Y41021D02*
D03*
Y40335D02*
D03*
X42291Y19583D02*
D03*
X41859Y20447D02*
D03*
X41783Y14351D02*
D03*
X41402Y38532D02*
D03*
Y35306D02*
D03*
X40615Y16053D02*
D03*
X40589Y15392D02*
D03*
X39878Y11303D02*
D03*
Y5461D02*
D03*
X39370Y95250D02*
D03*
Y40996D02*
D03*
X39116Y19431D02*
D03*
X38735Y35306D02*
D03*
X38481Y93218D02*
D03*
Y92456D02*
D03*
X38227Y41986D02*
D03*
Y41021D02*
D03*
X37973Y71755D02*
D03*
X37363Y18758D02*
D03*
Y15621D02*
D03*
X37338Y10490D02*
D03*
Y5588D02*
D03*
X37211Y41046D02*
D03*
X37186Y42037D02*
D03*
X36449Y35306D02*
D03*
X36170Y40919D02*
D03*
X36144Y39192D02*
D03*
X36119Y14326D02*
D03*
X3556Y53594D02*
D03*
X35433Y76327D02*
D03*
X35128Y10795D02*
D03*
X34823Y5563D02*
D03*
X34722Y40919D02*
D03*
X34569Y39167D02*
D03*
X34493Y18542D02*
D03*
X34290Y14859D02*
D03*
Y14148D02*
D03*
X33884Y18771D02*
D03*
X33274Y76327D02*
D03*
Y36068D02*
D03*
X32588Y38823D02*
D03*
X32258Y5639D02*
D03*
X32105Y36067D02*
D03*
X31877Y80391D02*
D03*
Y76454D02*
D03*
X31750Y18796D02*
D03*
X31572Y41783D02*
D03*
X31550Y41123D02*
D03*
X31115Y18796D02*
D03*
Y38799D02*
D03*
X30988Y914D02*
D03*
X30937Y6629D02*
D03*
X29591Y114681D02*
D03*
Y36068D02*
D03*
X29489Y41402D02*
D03*
X29362Y107925D02*
D03*
Y107152D02*
D03*
X28981Y39040D02*
D03*
X28321Y107188D02*
D03*
X28118Y25273D02*
D03*
Y24003D02*
D03*
Y21590D02*
D03*
Y19054D02*
D03*
Y26543D02*
D03*
X28092Y22936D02*
D03*
X28067Y117602D02*
D03*
X27991Y20320D02*
D03*
X27813Y7544D02*
D03*
X27483Y39040D02*
D03*
X27457Y40945D02*
D03*
X26924Y7544D02*
D03*
X26619Y40843D02*
D03*
X26035Y8509D02*
D03*
Y7874D02*
D03*
X25933Y43155D02*
D03*
X25912Y108081D02*
D03*
X25832Y30328D02*
D03*
X25527Y114681D02*
D03*
X25479Y27900D02*
D03*
X25451Y116357D02*
D03*
X25425Y38329D02*
D03*
D37*
X46863Y20828D02*
D03*
X46736Y21463D02*
D03*
X44399Y26060D02*
D03*
X44221Y24982D02*
D03*
X44145Y31267D02*
D03*
X44069Y29718D02*
D03*
X43853Y26061D02*
D03*
X43683Y24982D02*
D03*
X43180Y52959D02*
D03*
X43155Y53569D02*
D03*
X43078Y25019D02*
D03*
X42955Y30710D02*
D03*
X42582Y23851D02*
D03*
Y23051D02*
D03*
X42582Y22223D02*
D03*
X42545Y58776D02*
D03*
X42520Y25121D02*
D03*
X42426Y33028D02*
D03*
Y29028D02*
D03*
X42393Y29871D02*
D03*
X42172Y53649D02*
D03*
X42113Y59360D02*
D03*
X41732Y54737D02*
D03*
X41626Y33028D02*
D03*
Y29828D02*
D03*
Y29028D02*
D03*
Y27428D02*
D03*
X41372Y58403D02*
D03*
Y53649D02*
D03*
X40995Y59359D02*
D03*
X40869Y25874D02*
D03*
X40826Y24274D02*
D03*
Y23474D02*
D03*
Y33028D02*
D03*
Y32228D02*
D03*
Y30628D02*
D03*
Y29028D02*
D03*
Y28228D02*
D03*
X40640Y57658D02*
D03*
X40589Y53645D02*
D03*
X40572Y58403D02*
D03*
Y52049D02*
D03*
X40056Y27444D02*
D03*
Y25832D02*
D03*
X40030Y23442D02*
D03*
Y31428D02*
D03*
Y26670D02*
D03*
X40026Y25074D02*
D03*
Y24274D02*
D03*
Y22674D02*
D03*
Y32228D02*
D03*
Y29028D02*
D03*
Y28228D02*
D03*
X40005Y29845D02*
D03*
X39787Y52882D02*
D03*
X39772Y52049D02*
D03*
X39766Y57643D02*
D03*
X39370Y56693D02*
D03*
X39264Y31428D02*
D03*
X39260Y29062D02*
D03*
X39255Y28245D02*
D03*
X39243Y24232D02*
D03*
Y21844D02*
D03*
Y29845D02*
D03*
Y25832D02*
D03*
X39238Y22617D02*
D03*
X39226Y25074D02*
D03*
Y23474D02*
D03*
Y30628D02*
D03*
Y27428D02*
D03*
X38989Y57658D02*
D03*
Y53594D02*
D03*
X38972Y52849D02*
D03*
X38964Y54458D02*
D03*
X38595Y59385D02*
D03*
X38464Y31428D02*
D03*
X38445Y22702D02*
D03*
X38430Y24257D02*
D03*
Y25832D02*
D03*
X38426Y25074D02*
D03*
Y23474D02*
D03*
Y21874D02*
D03*
Y30628D02*
D03*
Y29828D02*
D03*
Y29028D02*
D03*
Y28228D02*
D03*
Y27428D02*
D03*
X38354Y20993D02*
D03*
Y54686D02*
D03*
X38176Y52019D02*
D03*
X37744Y51435D02*
D03*
X37672Y25874D02*
D03*
X37665Y22681D02*
D03*
X37664Y31428D02*
D03*
X37626Y25074D02*
D03*
Y24274D02*
D03*
Y23474D02*
D03*
Y21874D02*
D03*
Y30628D02*
D03*
Y29828D02*
D03*
Y29028D02*
D03*
X37414Y52832D02*
D03*
X37389Y57607D02*
D03*
X37372Y58403D02*
D03*
X37363Y19507D02*
D03*
X36855Y55524D02*
D03*
X36641Y55028D02*
D03*
X36614Y56845D02*
D03*
X36599Y53668D02*
D03*
X36576Y59258D02*
D03*
Y58445D02*
D03*
X36566Y57642D02*
D03*
X36072Y25074D02*
D03*
Y24274D02*
D03*
Y23474D02*
D03*
Y22674D02*
D03*
Y21874D02*
D03*
Y32228D02*
D03*
Y30628D02*
D03*
Y29828D02*
D03*
Y29028D02*
D03*
X36068Y31471D02*
D03*
X35839Y55905D02*
D03*
X35814Y57658D02*
D03*
Y56769D02*
D03*
X35789Y52823D02*
D03*
X35763Y52019D02*
D03*
X35757Y58434D02*
D03*
X35272Y25074D02*
D03*
Y24274D02*
D03*
Y33028D02*
D03*
Y32228D02*
D03*
Y30628D02*
D03*
Y29828D02*
D03*
Y29028D02*
D03*
X35255Y23444D02*
D03*
X35246Y22687D02*
D03*
X35234Y28228D02*
D03*
Y27428D02*
D03*
X34950Y55677D02*
D03*
X34492Y21846D02*
D03*
X34472Y25074D02*
D03*
Y24274D02*
D03*
Y23474D02*
D03*
Y22674D02*
D03*
Y33028D02*
D03*
Y32228D02*
D03*
Y31428D02*
D03*
Y30628D02*
D03*
Y29828D02*
D03*
Y29028D02*
D03*
Y25874D02*
D03*
X34434Y28228D02*
D03*
Y27428D02*
D03*
X34392Y59741D02*
D03*
X34218Y58403D02*
D03*
X34198Y57582D02*
D03*
X34188Y56845D02*
D03*
X34172Y53649D02*
D03*
X33833Y20921D02*
D03*
X33672Y25074D02*
D03*
Y24274D02*
D03*
Y23474D02*
D03*
Y22674D02*
D03*
Y32228D02*
D03*
Y31428D02*
D03*
Y30628D02*
D03*
Y29828D02*
D03*
Y29028D02*
D03*
Y25874D02*
D03*
X33655Y28270D02*
D03*
X33631Y21869D02*
D03*
X33630Y27435D02*
D03*
X33414Y53607D02*
D03*
X33401Y58420D02*
D03*
Y56769D02*
D03*
Y52832D02*
D03*
X33388Y57632D02*
D03*
X33249Y20918D02*
D03*
Y33195D02*
D03*
X32903Y30623D02*
D03*
X32872Y25074D02*
D03*
Y24274D02*
D03*
Y23474D02*
D03*
Y22674D02*
D03*
Y32228D02*
D03*
Y31428D02*
D03*
Y29845D02*
D03*
Y27428D02*
D03*
Y25874D02*
D03*
X32867Y29078D02*
D03*
X32765Y33551D02*
D03*
X32639Y52832D02*
D03*
Y51435D02*
D03*
X32618Y53649D02*
D03*
Y52049D02*
D03*
X32561Y57578D02*
D03*
X32530Y58442D02*
D03*
X32072Y25074D02*
D03*
Y24274D02*
D03*
Y23474D02*
D03*
Y22674D02*
D03*
Y21874D02*
D03*
Y21074D02*
D03*
Y33028D02*
D03*
Y32228D02*
D03*
Y31428D02*
D03*
Y29828D02*
D03*
Y29028D02*
D03*
Y28228D02*
D03*
Y27428D02*
D03*
Y25874D02*
D03*
X31876Y58422D02*
D03*
X31828Y53674D02*
D03*
X31818Y56849D02*
D03*
X31776Y52806D02*
D03*
X31765Y57641D02*
D03*
X31272Y25074D02*
D03*
Y24274D02*
D03*
Y22674D02*
D03*
Y21874D02*
D03*
Y21074D02*
D03*
Y32228D02*
D03*
Y31428D02*
D03*
Y28228D02*
D03*
Y27428D02*
D03*
Y25874D02*
D03*
X30988Y58445D02*
D03*
Y54574D02*
D03*
X30963Y57633D02*
D03*
X30940Y55601D02*
D03*
X30764Y33536D02*
D03*
X30472Y21874D02*
D03*
Y21074D02*
D03*
Y31428D02*
D03*
X30242Y23749D02*
D03*
X30226Y30251D02*
D03*
X30218Y53649D02*
D03*
Y52849D02*
D03*
X30201Y51943D02*
D03*
X29591Y30251D02*
D03*
X29185Y19964D02*
D03*
X27976Y27610D02*
D03*
M02*
