G04*
G04 #@! TF.GenerationSoftware,Altium Limited,Altium Designer,20.2.6 (244)*
G04*
G04 Layer_Physical_Order=2*
G04 Layer_Color=32768*
%FSLAX43Y43*%
%MOMM*%
G71*
G04*
G04 #@! TF.SameCoordinates,ADE9251E-79DE-46AD-AD66-6379AD971F3A*
G04*
G04*
G04 #@! TF.FilePolarity,Negative*
G04*
G01*
G75*
%ADD14C,0.102*%
%ADD15C,0.025*%
%ADD16C,0.254*%
%ADD53C,0.142*%
%ADD55C,2.007*%
%ADD56C,0.711*%
%ADD61C,1.524*%
%ADD65C,1.016*%
%ADD66C,2.819*%
%AMTHOVALD67*
21,1,0.660,1.600,0,0,90.0*
1,1,1.600,0.000,-0.330*
1,1,1.600,0.000,0.330*
21,0,0.660,1.245,0,0,90.0*
1,0,1.245,0.000,-0.330*
1,0,1.245,0.000,0.330*
4,0,4,0.135,-0.196,0.700,-0.761,0.431,-1.031,-0.135,-0.465,0.135,-0.196,0.0*
4,0,4,0.135,0.465,-0.431,1.031,-0.700,0.761,-0.135,0.196,0.135,0.465,0.0*
4,0,4,0.135,-0.465,-0.431,-1.031,-0.700,-0.761,-0.135,-0.196,0.135,-0.465,0.0*
4,0,4,0.135,0.196,0.700,0.761,0.431,1.031,-0.135,0.465,0.135,0.196,0.0*
%
%ADD67THOVALD67*%

%AMTHOVALD68*
21,1,0.076,1.524,0,0,90.0*
1,1,1.524,0.000,-0.038*
1,1,1.524,0.000,0.038*
21,0,0.076,1.168,0,0,90.0*
1,0,1.168,0.000,-0.038*
1,0,1.168,0.000,0.038*
4,0,4,0.135,0.097,0.674,-0.442,0.404,-0.712,-0.135,-0.173,0.135,0.097,0.0*
4,0,4,0.135,0.173,-0.404,0.712,-0.674,0.442,-0.135,-0.097,0.135,0.173,0.0*
4,0,4,0.135,-0.173,-0.404,-0.712,-0.674,-0.442,-0.135,0.097,0.135,-0.173,0.0*
4,0,4,0.135,-0.097,0.674,0.442,0.404,0.712,-0.135,0.173,0.135,-0.097,0.0*
%
%ADD68THOVALD68*%

%ADD69C,1.803*%
G04:AMPARAMS|DCode=70|XSize=3.7592mm|YSize=3.7592mm|CornerRadius=0mm|HoleSize=0mm|Usage=FLASHONLY|Rotation=0.000|XOffset=0mm|YOffset=0mm|HoleType=Round|Shape=Relief|Width=0.762mm|Gap=0.178mm|Entries=4|*
%AMTHD70*
7,0,0,3.759,3.404,0.762,45*
%
%ADD70THD70*%
G04:AMPARAMS|DCode=71|XSize=1.778mm|YSize=1.778mm|CornerRadius=0mm|HoleSize=0mm|Usage=FLASHONLY|Rotation=0.000|XOffset=0mm|YOffset=0mm|HoleType=Round|Shape=Relief|Width=0.381mm|Gap=0.178mm|Entries=4|*
%AMTHD71*
7,0,0,1.778,1.422,0.381,45*
%
%ADD71THD71*%
%ADD72C,1.778*%
%ADD73C,0.762*%
%ADD74C,0.813*%
G36*
X33753Y123028D02*
X33972Y122938D01*
X34160Y122793D01*
X34305Y122605D01*
X34396Y122386D01*
X34427Y122151D01*
X34396Y121916D01*
X34305Y121697D01*
X34160Y121509D01*
X33972Y121364D01*
X33753Y121273D01*
X33518Y121242D01*
X33283Y121273D01*
X33064Y121364D01*
X32876Y121509D01*
X32731Y121697D01*
X32641Y121916D01*
X32610Y122151D01*
X32641Y122386D01*
X32731Y122605D01*
X32876Y122793D01*
X33064Y122938D01*
X33283Y123028D01*
X33518Y123059D01*
X33753Y123028D01*
D02*
G37*
G36*
X29353D02*
X29572Y122938D01*
X29760Y122793D01*
X29905Y122605D01*
X29996Y122386D01*
X30027Y122151D01*
X29996Y121916D01*
X29905Y121697D01*
X29760Y121509D01*
X29572Y121364D01*
X29353Y121273D01*
X29118Y121242D01*
X28883Y121273D01*
X28664Y121364D01*
X28476Y121509D01*
X28331Y121697D01*
X28241Y121916D01*
X28210Y122151D01*
X28241Y122386D01*
X28331Y122605D01*
X28476Y122793D01*
X28664Y122938D01*
X28883Y123028D01*
X29118Y123059D01*
X29353Y123028D01*
D02*
G37*
G36*
X12313Y103453D02*
X12649Y103314D01*
X12938Y103093D01*
X13159Y102804D01*
X13298Y102468D01*
X13346Y102108D01*
X13298Y101748D01*
X13159Y101412D01*
X12938Y101123D01*
X12649Y100902D01*
X12313Y100763D01*
X11953Y100715D01*
X11593Y100763D01*
X11257Y100902D01*
X10968Y101123D01*
X10747Y101412D01*
X10608Y101748D01*
X10560Y102108D01*
X10608Y102468D01*
X10747Y102804D01*
X10968Y103093D01*
X11257Y103314D01*
X11593Y103453D01*
X11953Y103501D01*
X12313Y103453D01*
D02*
G37*
G36*
X5313D02*
X5649Y103314D01*
X5938Y103093D01*
X6159Y102804D01*
X6298Y102468D01*
X6346Y102108D01*
X6298Y101748D01*
X6159Y101412D01*
X5938Y101123D01*
X5649Y100902D01*
X5313Y100763D01*
X4953Y100715D01*
X4593Y100763D01*
X4257Y100902D01*
X3968Y101123D01*
X3747Y101412D01*
X3608Y101748D01*
X3560Y102108D01*
X3608Y102468D01*
X3747Y102804D01*
X3968Y103093D01*
X4257Y103314D01*
X4593Y103453D01*
X4953Y103501D01*
X5313Y103453D01*
D02*
G37*
G36*
X52508Y97027D02*
X33491D01*
Y116044D01*
X52508D01*
Y97027D01*
D02*
G37*
G36*
X16637Y62230D02*
X25401Y62230D01*
X25655Y61976D01*
X25655Y60452D01*
X25506Y60303D01*
X25655Y60155D01*
X25655Y58420D01*
X25527Y58292D01*
X14986D01*
Y58420D01*
X16637D01*
Y60071D01*
X14986D01*
Y60452D01*
X16637D01*
Y62103D01*
X14986D01*
Y62230D01*
X16637Y62230D01*
D02*
G37*
G36*
X14986D02*
X14986Y58292D01*
X11430Y58292D01*
X11175Y58547D01*
Y60028D01*
X11405Y60258D01*
X11134Y60528D01*
Y62103D01*
X11261Y62230D01*
X14986Y62230D01*
D02*
G37*
G36*
X9463Y39510D02*
X9643Y39436D01*
X9797Y39318D01*
X9915Y39164D01*
X9989Y38984D01*
X10015Y38792D01*
X9989Y38599D01*
X9915Y38420D01*
X9797Y38266D01*
X9643Y38148D01*
X9463Y38074D01*
X9271Y38048D01*
X9079Y38074D01*
X8899Y38148D01*
X8745Y38266D01*
X8627Y38420D01*
X8553Y38599D01*
X8527Y38792D01*
X8553Y38984D01*
X8627Y39164D01*
X8745Y39318D01*
X8899Y39436D01*
X9079Y39510D01*
X9271Y39536D01*
X9463Y39510D01*
D02*
G37*
G36*
Y31960D02*
X9643Y31886D01*
X9797Y31768D01*
X9915Y31614D01*
X9989Y31434D01*
X10015Y31242D01*
X9989Y31050D01*
X9915Y30870D01*
X9797Y30716D01*
X9643Y30598D01*
X9463Y30524D01*
X9271Y30498D01*
X9079Y30524D01*
X8899Y30598D01*
X8745Y30716D01*
X8627Y30870D01*
X8553Y31050D01*
X8527Y31242D01*
X8553Y31434D01*
X8627Y31614D01*
X8745Y31768D01*
X8899Y31886D01*
X9079Y31960D01*
X9271Y31986D01*
X9463Y31960D01*
D02*
G37*
G36*
X7881Y22565D02*
X8125Y22464D01*
X8334Y22304D01*
X8494Y22095D01*
X8595Y21851D01*
X8629Y21590D01*
X8595Y21329D01*
X8494Y21085D01*
X8334Y20876D01*
X8125Y20716D01*
X7881Y20615D01*
X7620Y20581D01*
X7359Y20615D01*
X7115Y20716D01*
X6906Y20876D01*
X6746Y21085D01*
X6645Y21329D01*
X6611Y21590D01*
X6645Y21851D01*
X6746Y22095D01*
X6906Y22304D01*
X7115Y22464D01*
X7359Y22565D01*
X7620Y22599D01*
X7881Y22565D01*
D02*
G37*
G36*
Y17485D02*
X8125Y17384D01*
X8334Y17224D01*
X8494Y17015D01*
X8595Y16771D01*
X8629Y16510D01*
X8595Y16249D01*
X8494Y16005D01*
X8334Y15796D01*
X8125Y15636D01*
X7881Y15535D01*
X7620Y15501D01*
X7359Y15535D01*
X7115Y15636D01*
X6906Y15796D01*
X6746Y16005D01*
X6645Y16249D01*
X6611Y16510D01*
X6645Y16771D01*
X6746Y17015D01*
X6906Y17224D01*
X7115Y17384D01*
X7359Y17485D01*
X7620Y17519D01*
X7881Y17485D01*
D02*
G37*
G36*
X15840Y61741D02*
X15850Y61740D01*
X15863Y61738D01*
X15877Y61736D01*
X15892Y61733D01*
X15908Y61729D01*
X15925Y61724D01*
X15942Y61719D01*
X15959Y61712D01*
X15976Y61703D01*
X15993Y61693D01*
X16008Y61683D01*
X16023Y61670D01*
X16023Y61669D01*
X16025Y61667D01*
X16029Y61662D01*
X16034Y61658D01*
X16040Y61651D01*
X16047Y61642D01*
X16053Y61632D01*
X16060Y61621D01*
X16067Y61609D01*
X16074Y61596D01*
X16081Y61581D01*
X16086Y61566D01*
X16091Y61548D01*
X16095Y61531D01*
X16097Y61512D01*
X16098Y61493D01*
Y61492D01*
Y61491D01*
Y61488D01*
Y61484D01*
X16097Y61474D01*
X16095Y61460D01*
X16092Y61444D01*
X16088Y61426D01*
X16083Y61407D01*
X16076Y61388D01*
Y61387D01*
X16075Y61386D01*
X16074Y61383D01*
X16072Y61379D01*
X16066Y61368D01*
X16058Y61355D01*
X16048Y61338D01*
X16035Y61320D01*
X16021Y61301D01*
X16002Y61279D01*
X16001Y61278D01*
X16000Y61276D01*
X15996Y61273D01*
X15993Y61269D01*
X15987Y61263D01*
X15980Y61256D01*
X15972Y61247D01*
X15963Y61239D01*
X15951Y61228D01*
X15938Y61216D01*
X15925Y61203D01*
X15909Y61189D01*
X15893Y61174D01*
X15874Y61158D01*
X15854Y61141D01*
X15833Y61122D01*
X15832Y61122D01*
X15829Y61119D01*
X15823Y61115D01*
X15817Y61109D01*
X15809Y61102D01*
X15800Y61094D01*
X15780Y61077D01*
X15758Y61059D01*
X15738Y61039D01*
X15728Y61031D01*
X15720Y61023D01*
X15712Y61015D01*
X15706Y61009D01*
X15705Y61008D01*
X15701Y61004D01*
X15696Y60999D01*
X15690Y60991D01*
X15682Y60982D01*
X15674Y60972D01*
X15659Y60951D01*
X16099D01*
Y60846D01*
X15508D01*
Y60848D01*
Y60852D01*
Y60860D01*
X15509Y60870D01*
X15510Y60882D01*
X15513Y60894D01*
X15515Y60908D01*
X15520Y60921D01*
Y60922D01*
X15521Y60924D01*
X15522Y60927D01*
X15524Y60932D01*
X15527Y60937D01*
X15530Y60943D01*
X15538Y60959D01*
X15547Y60977D01*
X15560Y60998D01*
X15574Y61019D01*
X15592Y61040D01*
X15593Y61041D01*
X15594Y61043D01*
X15597Y61046D01*
X15602Y61051D01*
X15606Y61056D01*
X15613Y61062D01*
X15620Y61070D01*
X15629Y61079D01*
X15638Y61089D01*
X15649Y61098D01*
X15661Y61110D01*
X15674Y61122D01*
X15688Y61134D01*
X15703Y61147D01*
X15719Y61160D01*
X15736Y61175D01*
X15738Y61176D01*
X15743Y61181D01*
X15750Y61186D01*
X15759Y61195D01*
X15771Y61205D01*
X15784Y61216D01*
X15800Y61229D01*
X15815Y61243D01*
X15848Y61273D01*
X15880Y61305D01*
X15896Y61321D01*
X15910Y61336D01*
X15923Y61351D01*
X15933Y61364D01*
X15934Y61365D01*
X15935Y61367D01*
X15938Y61371D01*
X15941Y61376D01*
X15946Y61383D01*
X15950Y61390D01*
X15960Y61407D01*
X15969Y61427D01*
X15978Y61450D01*
X15984Y61473D01*
X15985Y61484D01*
X15986Y61496D01*
Y61497D01*
Y61499D01*
Y61503D01*
X15985Y61507D01*
Y61512D01*
X15983Y61519D01*
X15980Y61534D01*
X15974Y61551D01*
X15965Y61570D01*
X15961Y61579D01*
X15954Y61588D01*
X15947Y61597D01*
X15938Y61605D01*
X15937Y61606D01*
X15936Y61607D01*
X15933Y61609D01*
X15930Y61612D01*
X15925Y61616D01*
X15919Y61620D01*
X15905Y61629D01*
X15887Y61636D01*
X15867Y61644D01*
X15843Y61649D01*
X15829Y61651D01*
X15808D01*
X15802Y61650D01*
X15795D01*
X15787Y61648D01*
X15770Y61645D01*
X15750Y61639D01*
X15728Y61631D01*
X15718Y61625D01*
X15707Y61619D01*
X15697Y61611D01*
X15688Y61602D01*
X15687Y61602D01*
X15686Y61601D01*
X15684Y61598D01*
X15680Y61594D01*
X15677Y61589D01*
X15673Y61583D01*
X15668Y61576D01*
X15664Y61569D01*
X15660Y61560D01*
X15656Y61550D01*
X15648Y61527D01*
X15642Y61502D01*
X15641Y61487D01*
X15640Y61472D01*
X15528Y61483D01*
Y61485D01*
X15529Y61489D01*
X15530Y61495D01*
X15531Y61504D01*
X15533Y61514D01*
X15536Y61527D01*
X15539Y61541D01*
X15543Y61555D01*
X15548Y61570D01*
X15554Y61586D01*
X15562Y61602D01*
X15570Y61617D01*
X15579Y61633D01*
X15590Y61648D01*
X15602Y61662D01*
X15615Y61675D01*
X15616Y61676D01*
X15619Y61678D01*
X15623Y61681D01*
X15629Y61686D01*
X15636Y61691D01*
X15646Y61696D01*
X15657Y61702D01*
X15669Y61709D01*
X15683Y61715D01*
X15698Y61721D01*
X15715Y61726D01*
X15733Y61731D01*
X15753Y61736D01*
X15773Y61739D01*
X15795Y61741D01*
X15818Y61742D01*
X15831D01*
X15840Y61741D01*
D02*
G37*
G36*
X15829Y59744D02*
X15839D01*
X15850Y59743D01*
X15862Y59741D01*
X15888Y59738D01*
X15916Y59733D01*
X15942Y59727D01*
X15967Y59717D01*
X15968D01*
X15970Y59716D01*
X15973Y59714D01*
X15978Y59712D01*
X15988Y59705D01*
X16003Y59697D01*
X16018Y59685D01*
X16034Y59671D01*
X16049Y59653D01*
X16064Y59634D01*
Y59633D01*
X16066Y59631D01*
X16067Y59628D01*
X16070Y59624D01*
X16072Y59619D01*
X16075Y59612D01*
X16082Y59598D01*
X16088Y59581D01*
X16094Y59560D01*
X16098Y59539D01*
X16100Y59516D01*
Y59515D01*
Y59513D01*
Y59510D01*
Y59506D01*
X16098Y59495D01*
X16096Y59481D01*
X16092Y59464D01*
X16086Y59446D01*
X16078Y59428D01*
X16068Y59408D01*
Y59407D01*
X16067Y59406D01*
X16065Y59403D01*
X16062Y59400D01*
X16055Y59391D01*
X16044Y59379D01*
X16032Y59367D01*
X16015Y59353D01*
X15997Y59340D01*
X15975Y59327D01*
X15976D01*
X15979Y59326D01*
X15982Y59324D01*
X15988Y59322D01*
X15995Y59319D01*
X16003Y59316D01*
X16020Y59308D01*
X16041Y59297D01*
X16061Y59282D01*
X16081Y59266D01*
X16099Y59246D01*
X16100Y59245D01*
X16101Y59243D01*
X16102Y59240D01*
X16105Y59236D01*
X16109Y59230D01*
X16113Y59223D01*
X16117Y59216D01*
X16121Y59207D01*
X16129Y59188D01*
X16136Y59164D01*
X16141Y59138D01*
X16143Y59125D01*
Y59110D01*
Y59109D01*
Y59107D01*
Y59104D01*
Y59100D01*
X16142Y59094D01*
Y59088D01*
X16140Y59072D01*
X16136Y59054D01*
X16132Y59035D01*
X16125Y59013D01*
X16116Y58993D01*
Y58992D01*
X16115Y58991D01*
X16113Y58988D01*
X16111Y58984D01*
X16105Y58975D01*
X16098Y58963D01*
X16089Y58950D01*
X16077Y58936D01*
X16065Y58922D01*
X16050Y58910D01*
X16048Y58909D01*
X16043Y58905D01*
X16035Y58900D01*
X16023Y58893D01*
X16010Y58887D01*
X15993Y58879D01*
X15974Y58872D01*
X15952Y58866D01*
X15951D01*
X15950Y58865D01*
X15947D01*
X15942Y58864D01*
X15936Y58863D01*
X15929Y58861D01*
X15922Y58861D01*
X15913Y58860D01*
X15903Y58858D01*
X15892Y58857D01*
X15867Y58854D01*
X15839Y58853D01*
X15808Y58852D01*
X15469D01*
Y59745D01*
X15820D01*
X15829Y59744D01*
D02*
G37*
%LPC*%
G36*
X15782Y59640D02*
X15587D01*
Y59370D01*
X15799D01*
X15806Y59371D01*
X15823D01*
X15841Y59371D01*
X15861Y59373D01*
X15878Y59376D01*
X15886Y59377D01*
X15892Y59379D01*
X15893D01*
X15894Y59380D01*
X15900Y59382D01*
X15908Y59385D01*
X15918Y59390D01*
X15928Y59396D01*
X15940Y59403D01*
X15951Y59413D01*
X15960Y59424D01*
X15961Y59426D01*
X15964Y59430D01*
X15968Y59436D01*
X15972Y59445D01*
X15976Y59457D01*
X15980Y59470D01*
X15982Y59485D01*
X15983Y59502D01*
Y59503D01*
Y59504D01*
Y59510D01*
X15982Y59518D01*
X15981Y59528D01*
X15978Y59541D01*
X15974Y59554D01*
X15969Y59568D01*
X15961Y59581D01*
X15960Y59582D01*
X15957Y59586D01*
X15952Y59592D01*
X15946Y59599D01*
X15937Y59607D01*
X15926Y59614D01*
X15915Y59621D01*
X15900Y59627D01*
X15898Y59628D01*
X15896D01*
X15892Y59629D01*
X15889Y59630D01*
X15883Y59631D01*
X15876Y59632D01*
X15869Y59634D01*
X15861Y59635D01*
X15850Y59636D01*
X15839Y59637D01*
X15827Y59638D01*
X15813Y59639D01*
X15799D01*
X15782Y59640D01*
D02*
G37*
G36*
X15793Y59264D02*
X15587D01*
Y58957D01*
X15829D01*
X15841Y58958D01*
X15854D01*
X15867Y58959D01*
X15880Y58960D01*
X15890Y58961D01*
X15892D01*
X15896Y58962D01*
X15904Y58964D01*
X15914Y58967D01*
X15924Y58970D01*
X15935Y58975D01*
X15947Y58980D01*
X15957Y58985D01*
X15958Y58986D01*
X15962Y58988D01*
X15967Y58992D01*
X15974Y58998D01*
X15981Y59005D01*
X15988Y59013D01*
X15996Y59023D01*
X16003Y59035D01*
X16004Y59037D01*
X16006Y59041D01*
X16009Y59047D01*
X16012Y59057D01*
X16015Y59068D01*
X16018Y59080D01*
X16020Y59095D01*
X16021Y59110D01*
Y59111D01*
Y59112D01*
Y59115D01*
Y59119D01*
X16020Y59128D01*
X16018Y59140D01*
X16014Y59154D01*
X16011Y59168D01*
X16004Y59183D01*
X15995Y59197D01*
X15994Y59199D01*
X15990Y59203D01*
X15984Y59210D01*
X15977Y59218D01*
X15966Y59226D01*
X15953Y59234D01*
X15940Y59242D01*
X15923Y59249D01*
X15922D01*
X15922Y59250D01*
X15919Y59251D01*
X15915Y59251D01*
X15910Y59252D01*
X15905Y59253D01*
X15898Y59255D01*
X15891Y59256D01*
X15881Y59258D01*
X15871Y59259D01*
X15861Y59260D01*
X15849Y59262D01*
X15823Y59263D01*
X15793Y59264D01*
D02*
G37*
%LPD*%
D14*
X97663Y-49325D02*
X97590Y-49397D01*
X97663Y-49470D01*
X97735Y-49397D01*
X97663Y-49325D01*
X99157Y-48309D02*
X99085Y-48164D01*
X98940Y-48019D01*
X98794Y-47946D01*
X98504D01*
X98359Y-48019D01*
X98214Y-48164D01*
X98141Y-48309D01*
X98069Y-48527D01*
Y-48890D01*
X98141Y-49107D01*
X98214Y-49252D01*
X98359Y-49397D01*
X98504Y-49470D01*
X98794D01*
X98940Y-49397D01*
X99085Y-49252D01*
X99157Y-49107D01*
Y-48890D01*
X98794D02*
X99157D01*
X99505Y-48744D02*
X100158D01*
X100376Y-48672D01*
X100449Y-48599D01*
X100521Y-48454D01*
Y-48237D01*
X100449Y-48091D01*
X100376Y-48019D01*
X100158Y-47946D01*
X99505D01*
Y-49470D01*
X100862Y-48237D02*
X101007Y-48164D01*
X101225Y-47946D01*
Y-49470D01*
X55770Y-47886D02*
Y-49410D01*
X56641D01*
X56880Y-48249D02*
Y-48177D01*
X56953Y-48031D01*
X57025Y-47959D01*
X57170Y-47886D01*
X57461D01*
X57606Y-47959D01*
X57678Y-48031D01*
X57751Y-48177D01*
Y-48322D01*
X57678Y-48467D01*
X57533Y-48684D01*
X56808Y-49410D01*
X57823D01*
X60450Y-48249D02*
X60377Y-48104D01*
X60232Y-47959D01*
X60087Y-47886D01*
X59797D01*
X59652Y-47959D01*
X59507Y-48104D01*
X59434Y-48249D01*
X59362Y-48467D01*
Y-48830D01*
X59434Y-49047D01*
X59507Y-49192D01*
X59652Y-49337D01*
X59797Y-49410D01*
X60087D01*
X60232Y-49337D01*
X60377Y-49192D01*
X60450Y-49047D01*
Y-48830D01*
X60087D02*
X60450D01*
X60798Y-47886D02*
Y-49410D01*
Y-47886D02*
X61814Y-49410D01*
Y-47886D02*
Y-49410D01*
X62235Y-47886D02*
Y-49410D01*
Y-47886D02*
X62743D01*
X62960Y-47959D01*
X63105Y-48104D01*
X63178Y-48249D01*
X63251Y-48467D01*
Y-48830D01*
X63178Y-49047D01*
X63105Y-49192D01*
X62960Y-49337D01*
X62743Y-49410D01*
X62235D01*
D15*
X59746Y26797D02*
G03*
X60000Y27051I0J254D01*
G01*
X0Y29845D02*
G03*
X0Y41402I-25591J5779D01*
G01*
X60000Y16510D02*
G03*
X59746Y16764I-254J0D01*
G01*
X58713Y17018D02*
G03*
X58967Y16764I254J0D01*
G01*
Y26797D02*
G03*
X58713Y26543I0J-254D01*
G01*
X-90424Y-128016D02*
Y283464D01*
X458216D01*
Y-128016D02*
Y283464D01*
X-90424Y-128016D02*
X458216D01*
X183896Y275844D02*
Y283464D01*
Y-128016D02*
X188976Y-116586D01*
X178816D02*
X188976D01*
X178816D02*
X183896Y-128016D01*
Y-110236D01*
Y-121666D02*
X188976Y-116586D01*
X178816D02*
X183896Y-121666D01*
X450596Y176784D02*
X458216D01*
X450596Y77724D02*
X458216D01*
X450596Y-21336D02*
X458216D01*
X361696Y-128016D02*
Y-120396D01*
X272796Y-128016D02*
Y-120396D01*
X183896Y-128016D02*
Y-120396D01*
X94996Y-128016D02*
Y-120396D01*
X6096Y-128016D02*
Y-120396D01*
X361696Y275844D02*
Y283464D01*
X272796Y275844D02*
Y283464D01*
X94996Y275844D02*
Y283464D01*
X6096Y275844D02*
Y283464D01*
X-90424Y176784D02*
X-82804D01*
X-90424Y77724D02*
X-82804D01*
X-90424Y-21336D02*
X-82804D01*
X326136Y-120396D02*
X450596D01*
Y123444D01*
X-82804Y275844D02*
X450596D01*
Y82804D02*
Y275844D01*
Y123444D02*
Y219964D01*
X-82804Y-120396D02*
X326136D01*
X-82804D02*
Y275844D01*
X-90424Y-21336D02*
X-82804D01*
X450596Y77724D02*
X458216D01*
X361696Y275844D02*
Y283464D01*
X-90424Y176784D02*
X-82804D01*
X6096Y-128016D02*
Y-120396D01*
X450596Y-21336D02*
X458216D01*
X326136Y-120396D02*
X450596D01*
Y123444D01*
X-90424Y-128016D02*
Y283464D01*
X458216D01*
Y-128016D02*
Y283464D01*
X-90424Y-128016D02*
X458216D01*
X272796D02*
Y-120396D01*
X-82804D02*
Y275844D01*
X183896Y-128016D02*
Y-120396D01*
Y-121666D02*
X188976Y-116586D01*
X178816D02*
X183896Y-121666D01*
Y-128016D02*
X188976Y-116586D01*
X178816D02*
X188976D01*
X178816D02*
X183896Y-128016D01*
Y-110236D01*
X361696Y-128016D02*
Y-120396D01*
X-90424Y77724D02*
X-82804D01*
X272796Y275844D02*
Y283464D01*
X450596Y176784D02*
X458216D01*
X94996Y275844D02*
Y283464D01*
X183896Y275844D02*
Y283464D01*
X450596Y123444D02*
Y219964D01*
X-82804Y275844D02*
X450596D01*
Y82804D02*
Y275844D01*
X6096D02*
Y283464D01*
X-82804Y-120396D02*
X326136D01*
X94996Y-128016D02*
Y-120396D01*
X0Y41402D02*
Y127000D01*
X60000D01*
Y27051D02*
Y127000D01*
Y27051D02*
Y127000D01*
X0D02*
X60000D01*
X0Y41402D02*
Y127000D01*
Y0D02*
Y29845D01*
Y0D02*
X18917D01*
Y1785D01*
X19017Y1885D01*
X19667D01*
X19767Y1785D01*
Y0D02*
Y1785D01*
Y0D02*
X23667D01*
Y1785D01*
X23767Y1885D01*
X24417D01*
X24517Y1785D01*
Y0D02*
Y1785D01*
Y0D02*
X60000D01*
Y16510D01*
X58967Y16764D02*
X59746D01*
X58713Y17018D02*
Y26543D01*
X58967Y26797D02*
X59746D01*
X58967D02*
X59746D01*
D16*
X59492Y126629D02*
X59589Y126589D01*
X508Y126629D02*
X59492D01*
X508Y126629D02*
X508Y126629D01*
X508D02*
X508Y126629D01*
X462Y126610D02*
X508Y126629D01*
X411Y126589D02*
X462Y126610D01*
X411Y126589D02*
X411Y126589D01*
X411Y126589D02*
X411Y126589D01*
X392Y126544D02*
X411Y126589D01*
X371Y126492D02*
X392Y126544D01*
X371Y126492D02*
X371Y126492D01*
X371Y126492D02*
X371Y126492D01*
X371Y126492D02*
X396Y41453D01*
X402Y41438D01*
X399Y41423D02*
X402Y41438D01*
X399Y41423D02*
X728Y39931D01*
X955Y37986D01*
X1031Y36824D01*
X1056Y35409D01*
X1006Y34043D02*
X1056Y35409D01*
X905Y32654D02*
X1006Y34043D01*
X703Y31215D02*
X905Y32654D01*
X374Y29670D02*
X703Y31215D01*
X374Y29670D02*
X376Y29656D01*
X371Y29642D02*
X376Y29656D01*
X371Y508D02*
Y29642D01*
Y508D02*
X411Y411D01*
X508Y371D01*
X18669D01*
X18766Y411D01*
X18766Y411D01*
X18842Y487D01*
X18883Y584D01*
X18883Y584D02*
X18883Y584D01*
X18883Y584D02*
Y1975D01*
X18904Y1996D01*
X19806D01*
X19827Y1975D01*
Y660D02*
Y1975D01*
X19827Y660D02*
X19827Y660D01*
X19827Y660D02*
X19855Y592D01*
X19867Y563D01*
X19867Y563D01*
X20020Y411D01*
X20117Y371D01*
X20117Y371D01*
X23393D01*
X23491Y411D01*
X23491Y411D01*
X23541Y462D01*
X23582Y559D01*
X23582Y559D02*
X23582Y559D01*
X23582Y559D02*
Y1950D01*
X23603Y1971D01*
X24454D01*
X24526Y1899D01*
Y584D02*
Y1899D01*
Y584D02*
X24566Y487D01*
X24566Y487D01*
X24642Y411D01*
X24740Y371D01*
X24740Y371D01*
X59492D01*
X59589Y411D01*
X59629Y508D01*
Y16256D01*
X59589Y16353D02*
X59629Y16256D01*
X59492Y16393D02*
X59589Y16353D01*
X58970Y16393D02*
X59492D01*
X58913Y16396D02*
X58970Y16393D01*
X58859Y16403D02*
X58913Y16396D01*
X58806Y16415D02*
X58859Y16403D01*
X58754Y16431D02*
X58806Y16415D01*
X58703Y16452D02*
X58754Y16431D01*
X58655Y16477D02*
X58703Y16452D01*
X58609Y16506D02*
X58655Y16477D01*
X58566Y16539D02*
X58609Y16506D01*
X58526Y16576D02*
X58566Y16539D01*
X58489Y16616D02*
X58526Y16576D01*
X58456Y16660D02*
X58489Y16616D01*
X58426Y16706D02*
X58456Y16660D01*
X58401Y16754D02*
X58426Y16706D01*
X58380Y16804D02*
X58401Y16754D01*
X58364Y16856D02*
X58380Y16804D01*
X58352Y16909D02*
X58364Y16856D01*
X58345Y16963D02*
X58352Y16909D01*
X58343Y17021D02*
X58345Y16963D01*
X58343Y17021D02*
Y26540D01*
X58345Y26597D01*
X58352Y26651D01*
X58364Y26704D01*
X58380Y26756D01*
X58401Y26807D01*
X58426Y26855D01*
X58456Y26901D01*
X58489Y26944D01*
X58526Y26984D01*
X58566Y27021D01*
X58609Y27054D01*
X58655Y27083D01*
X58703Y27109D01*
X58754Y27129D01*
X58806Y27146D01*
X58859Y27158D01*
X58913Y27165D01*
X58970Y27167D01*
X59492D01*
X59589Y27208D01*
X59629Y27305D01*
Y126492D01*
X59589Y126589D02*
X59629Y126492D01*
X453136Y223265D02*
Y219964D01*
Y223265D02*
X454236D01*
X454708Y223108D01*
X455022Y222794D01*
X455180Y222479D01*
X455337Y222008D01*
Y221222D01*
X455180Y220750D01*
X455022Y220436D01*
X454708Y220121D01*
X454236Y219964D01*
X453136D01*
X455494Y123419D02*
X455337Y123734D01*
X455022Y124048D01*
X454708Y124205D01*
X454079D01*
X453765Y124048D01*
X453450Y123734D01*
X453293Y123419D01*
X453136Y122948D01*
Y122162D01*
X453293Y121690D01*
X453450Y121376D01*
X453765Y121061D01*
X454079Y120904D01*
X454708D01*
X455022Y121061D01*
X455337Y121376D01*
X455494Y121690D01*
X453136Y30225D02*
Y26924D01*
Y30225D02*
X454551D01*
X455022Y30068D01*
X455180Y29911D01*
X455337Y29596D01*
Y29282D01*
X455180Y28968D01*
X455022Y28810D01*
X454551Y28653D01*
X453136D02*
X454551D01*
X455022Y28496D01*
X455180Y28339D01*
X455337Y28024D01*
Y27553D01*
X455180Y27238D01*
X455022Y27081D01*
X454551Y26924D01*
X453136D01*
X455651Y-79756D02*
X454394Y-76455D01*
X453136Y-79756D01*
X453608Y-78656D02*
X455180D01*
X407416Y-122804D02*
X407730Y-122646D01*
X408202Y-122175D01*
Y-125476D01*
X318673Y-122961D02*
Y-122804D01*
X318830Y-122489D01*
X318988Y-122332D01*
X319302Y-122175D01*
X319931D01*
X320245Y-122332D01*
X320402Y-122489D01*
X320560Y-122804D01*
Y-123118D01*
X320402Y-123432D01*
X320088Y-123904D01*
X318516Y-125476D01*
X320717D01*
X229930Y-122175D02*
X231660D01*
X230716Y-123432D01*
X231188D01*
X231502Y-123590D01*
X231660Y-123747D01*
X231817Y-124218D01*
Y-124533D01*
X231660Y-125004D01*
X231345Y-125319D01*
X230874Y-125476D01*
X230402D01*
X229930Y-125319D01*
X229773Y-125162D01*
X229616Y-124847D01*
X142288Y-122175D02*
X140716Y-124376D01*
X143074D01*
X142288Y-122175D02*
Y-125476D01*
X53702Y-122175D02*
X52130D01*
X51973Y-123590D01*
X52130Y-123432D01*
X52602Y-123275D01*
X53074D01*
X53545Y-123432D01*
X53860Y-123747D01*
X54017Y-124218D01*
Y-124533D01*
X53860Y-125004D01*
X53545Y-125319D01*
X53074Y-125476D01*
X52602D01*
X52130Y-125319D01*
X51973Y-125162D01*
X51816Y-124847D01*
X-35198Y-122646D02*
X-35355Y-122332D01*
X-35826Y-122175D01*
X-36141D01*
X-36612Y-122332D01*
X-36927Y-122804D01*
X-37084Y-123590D01*
Y-124376D01*
X-36927Y-125004D01*
X-36612Y-125319D01*
X-36141Y-125476D01*
X-35984D01*
X-35512Y-125319D01*
X-35198Y-125004D01*
X-35040Y-124533D01*
Y-124376D01*
X-35198Y-123904D01*
X-35512Y-123590D01*
X-35984Y-123432D01*
X-36141D01*
X-36612Y-123590D01*
X-36927Y-123904D01*
X-37084Y-124376D01*
X407416Y281056D02*
X407730Y281214D01*
X408202Y281685D01*
Y278384D01*
X318673Y280899D02*
Y281056D01*
X318830Y281371D01*
X318988Y281528D01*
X319302Y281685D01*
X319931D01*
X320245Y281528D01*
X320402Y281371D01*
X320560Y281056D01*
Y280742D01*
X320402Y280428D01*
X320088Y279956D01*
X318516Y278384D01*
X320717D01*
X229930Y281685D02*
X231660D01*
X230716Y280428D01*
X231188D01*
X231502Y280270D01*
X231660Y280113D01*
X231817Y279642D01*
Y279327D01*
X231660Y278856D01*
X231345Y278541D01*
X230874Y278384D01*
X230402D01*
X229930Y278541D01*
X229773Y278698D01*
X229616Y279013D01*
X142288Y281685D02*
X140716Y279484D01*
X143074D01*
X142288Y281685D02*
Y278384D01*
X53702Y281685D02*
X52130D01*
X51973Y280270D01*
X52130Y280428D01*
X52602Y280585D01*
X53074D01*
X53545Y280428D01*
X53860Y280113D01*
X54017Y279642D01*
Y279327D01*
X53860Y278856D01*
X53545Y278541D01*
X53074Y278384D01*
X52602D01*
X52130Y278541D01*
X51973Y278698D01*
X51816Y279013D01*
X-35198Y281214D02*
X-35355Y281528D01*
X-35826Y281685D01*
X-36141D01*
X-36612Y281528D01*
X-36927Y281056D01*
X-37084Y280270D01*
Y279484D01*
X-36927Y278856D01*
X-36612Y278541D01*
X-36141Y278384D01*
X-35984D01*
X-35512Y278541D01*
X-35198Y278856D01*
X-35040Y279327D01*
Y279484D01*
X-35198Y279956D01*
X-35512Y280270D01*
X-35984Y280428D01*
X-36141D01*
X-36612Y280270D01*
X-36927Y279956D01*
X-37084Y279484D01*
X-85369Y-79756D02*
X-86626Y-76455D01*
X-87884Y-79756D01*
X-87412Y-78656D02*
X-85840D01*
X-87884Y30225D02*
Y26924D01*
Y30225D02*
X-86469D01*
X-85998Y30068D01*
X-85840Y29911D01*
X-85683Y29596D01*
Y29282D01*
X-85840Y28968D01*
X-85998Y28810D01*
X-86469Y28653D01*
X-87884D02*
X-86469D01*
X-85998Y28496D01*
X-85840Y28339D01*
X-85683Y28024D01*
Y27553D01*
X-85840Y27238D01*
X-85998Y27081D01*
X-86469Y26924D01*
X-87884D01*
X-85526Y123419D02*
X-85683Y123734D01*
X-85998Y124048D01*
X-86312Y124205D01*
X-86941D01*
X-87255Y124048D01*
X-87570Y123734D01*
X-87727Y123419D01*
X-87884Y122948D01*
Y122162D01*
X-87727Y121690D01*
X-87570Y121376D01*
X-87255Y121061D01*
X-86941Y120904D01*
X-86312D01*
X-85998Y121061D01*
X-85683Y121376D01*
X-85526Y121690D01*
X-87884Y223265D02*
Y219964D01*
Y223265D02*
X-86784D01*
X-86312Y223108D01*
X-85998Y222794D01*
X-85840Y222479D01*
X-85683Y222008D01*
Y221222D01*
X-85840Y220750D01*
X-85998Y220436D01*
X-86312Y220121D01*
X-86784Y219964D01*
X-87884D01*
X-85369Y-79756D02*
X-86626Y-76455D01*
X-87884Y-79756D01*
X-87412Y-78656D02*
X-85840D01*
X453136Y223265D02*
Y219964D01*
Y223265D02*
X454236D01*
X454708Y223108D01*
X455022Y222794D01*
X455180Y222479D01*
X455337Y222008D01*
Y221222D01*
X455180Y220750D01*
X455022Y220436D01*
X454708Y220121D01*
X454236Y219964D01*
X453136D01*
X-85526Y123419D02*
X-85683Y123734D01*
X-85998Y124048D01*
X-86312Y124205D01*
X-86941D01*
X-87255Y124048D01*
X-87570Y123734D01*
X-87727Y123419D01*
X-87884Y122948D01*
Y122162D01*
X-87727Y121690D01*
X-87570Y121376D01*
X-87255Y121061D01*
X-86941Y120904D01*
X-86312D01*
X-85998Y121061D01*
X-85683Y121376D01*
X-85526Y121690D01*
X407416Y281056D02*
X407730Y281214D01*
X408202Y281685D01*
Y278384D01*
X53702Y-122175D02*
X52130D01*
X51973Y-123590D01*
X52130Y-123432D01*
X52602Y-123275D01*
X53074D01*
X53545Y-123432D01*
X53860Y-123747D01*
X54017Y-124218D01*
Y-124533D01*
X53860Y-125004D01*
X53545Y-125319D01*
X53074Y-125476D01*
X52602D01*
X52130Y-125319D01*
X51973Y-125162D01*
X51816Y-124847D01*
X455494Y123419D02*
X455337Y123734D01*
X455022Y124048D01*
X454708Y124205D01*
X454079D01*
X453765Y124048D01*
X453450Y123734D01*
X453293Y123419D01*
X453136Y122948D01*
Y122162D01*
X453293Y121690D01*
X453450Y121376D01*
X453765Y121061D01*
X454079Y120904D01*
X454708D01*
X455022Y121061D01*
X455337Y121376D01*
X455494Y121690D01*
X142288Y-122175D02*
X140716Y-124376D01*
X143074D01*
X142288Y-122175D02*
Y-125476D01*
X318673Y280899D02*
Y281056D01*
X318830Y281371D01*
X318988Y281528D01*
X319302Y281685D01*
X319931D01*
X320245Y281528D01*
X320402Y281371D01*
X320560Y281056D01*
Y280742D01*
X320402Y280428D01*
X320088Y279956D01*
X318516Y278384D01*
X320717D01*
X-35198Y281214D02*
X-35355Y281528D01*
X-35826Y281685D01*
X-36141D01*
X-36612Y281528D01*
X-36927Y281056D01*
X-37084Y280270D01*
Y279484D01*
X-36927Y278856D01*
X-36612Y278541D01*
X-36141Y278384D01*
X-35984D01*
X-35512Y278541D01*
X-35198Y278856D01*
X-35040Y279327D01*
Y279484D01*
X-35198Y279956D01*
X-35512Y280270D01*
X-35984Y280428D01*
X-36141D01*
X-36612Y280270D01*
X-36927Y279956D01*
X-37084Y279484D01*
X-87884Y223265D02*
Y219964D01*
Y223265D02*
X-86784D01*
X-86312Y223108D01*
X-85998Y222794D01*
X-85840Y222479D01*
X-85683Y222008D01*
Y221222D01*
X-85840Y220750D01*
X-85998Y220436D01*
X-86312Y220121D01*
X-86784Y219964D01*
X-87884D01*
X53702Y281685D02*
X52130D01*
X51973Y280270D01*
X52130Y280428D01*
X52602Y280585D01*
X53074D01*
X53545Y280428D01*
X53860Y280113D01*
X54017Y279642D01*
Y279327D01*
X53860Y278856D01*
X53545Y278541D01*
X53074Y278384D01*
X52602D01*
X52130Y278541D01*
X51973Y278698D01*
X51816Y279013D01*
X-35198Y-122646D02*
X-35355Y-122332D01*
X-35826Y-122175D01*
X-36141D01*
X-36612Y-122332D01*
X-36927Y-122804D01*
X-37084Y-123590D01*
Y-124376D01*
X-36927Y-125004D01*
X-36612Y-125319D01*
X-36141Y-125476D01*
X-35984D01*
X-35512Y-125319D01*
X-35198Y-125004D01*
X-35040Y-124533D01*
Y-124376D01*
X-35198Y-123904D01*
X-35512Y-123590D01*
X-35984Y-123432D01*
X-36141D01*
X-36612Y-123590D01*
X-36927Y-123904D01*
X-37084Y-124376D01*
X229930Y-122175D02*
X231660D01*
X230716Y-123432D01*
X231188D01*
X231502Y-123590D01*
X231660Y-123747D01*
X231817Y-124218D01*
Y-124533D01*
X231660Y-125004D01*
X231345Y-125319D01*
X230874Y-125476D01*
X230402D01*
X229930Y-125319D01*
X229773Y-125162D01*
X229616Y-124847D01*
X453136Y30225D02*
Y26924D01*
Y30225D02*
X454551D01*
X455022Y30068D01*
X455180Y29911D01*
X455337Y29596D01*
Y29282D01*
X455180Y28968D01*
X455022Y28810D01*
X454551Y28653D01*
X453136D02*
X454551D01*
X455022Y28496D01*
X455180Y28339D01*
X455337Y28024D01*
Y27553D01*
X455180Y27238D01*
X455022Y27081D01*
X454551Y26924D01*
X453136D01*
X229930Y281685D02*
X231660D01*
X230716Y280428D01*
X231188D01*
X231502Y280270D01*
X231660Y280113D01*
X231817Y279642D01*
Y279327D01*
X231660Y278856D01*
X231345Y278541D01*
X230874Y278384D01*
X230402D01*
X229930Y278541D01*
X229773Y278698D01*
X229616Y279013D01*
X455651Y-79756D02*
X454394Y-76455D01*
X453136Y-79756D01*
X453608Y-78656D02*
X455180D01*
X-87884Y30225D02*
Y26924D01*
Y30225D02*
X-86469D01*
X-85998Y30068D01*
X-85840Y29911D01*
X-85683Y29596D01*
Y29282D01*
X-85840Y28968D01*
X-85998Y28810D01*
X-86469Y28653D01*
X-87884D02*
X-86469D01*
X-85998Y28496D01*
X-85840Y28339D01*
X-85683Y28024D01*
Y27553D01*
X-85840Y27238D01*
X-85998Y27081D01*
X-86469Y26924D01*
X-87884D01*
X407416Y-122804D02*
X407730Y-122646D01*
X408202Y-122175D01*
Y-125476D01*
X142288Y281685D02*
X140716Y279484D01*
X143074D01*
X142288Y281685D02*
Y278384D01*
X318673Y-122961D02*
Y-122804D01*
X318830Y-122489D01*
X318988Y-122332D01*
X319302Y-122175D01*
X319931D01*
X320245Y-122332D01*
X320402Y-122489D01*
X320560Y-122804D01*
Y-123118D01*
X320402Y-123432D01*
X320088Y-123904D01*
X318516Y-125476D01*
X320717D01*
D53*
X65241Y-47859D02*
Y-47768D01*
X65331Y-47587D01*
X65422Y-47496D01*
X65603Y-47405D01*
X65966D01*
X66148Y-47496D01*
X66238Y-47587D01*
X66329Y-47768D01*
Y-47950D01*
X66238Y-48131D01*
X66057Y-48403D01*
X65150Y-49310D01*
X66420D01*
D55*
X7620Y16510D02*
D03*
Y21590D02*
D03*
D56*
X46863Y20828D02*
D03*
X46736Y21463D02*
D03*
X44399Y26060D02*
D03*
X44221Y24982D02*
D03*
X44145Y31267D02*
D03*
X44069Y29718D02*
D03*
X43853Y26061D02*
D03*
X43683Y24982D02*
D03*
X43180Y52959D02*
D03*
X43155Y53569D02*
D03*
X43078Y25019D02*
D03*
X42955Y30710D02*
D03*
X42582Y23851D02*
D03*
Y23051D02*
D03*
X42582Y22223D02*
D03*
X42545Y58776D02*
D03*
X42520Y25121D02*
D03*
X42426Y33028D02*
D03*
Y29028D02*
D03*
X42393Y29871D02*
D03*
X42113Y59360D02*
D03*
X41732Y54737D02*
D03*
X41626Y33028D02*
D03*
Y29828D02*
D03*
Y29028D02*
D03*
Y27428D02*
D03*
X40995Y59359D02*
D03*
X40869Y25874D02*
D03*
X40826Y24274D02*
D03*
Y23474D02*
D03*
Y33028D02*
D03*
Y32228D02*
D03*
Y30628D02*
D03*
Y29028D02*
D03*
Y28228D02*
D03*
X40640Y57658D02*
D03*
X40589Y53645D02*
D03*
X40572Y58403D02*
D03*
X40056Y27444D02*
D03*
Y25832D02*
D03*
X40030Y23442D02*
D03*
Y31428D02*
D03*
Y26670D02*
D03*
X40026Y25074D02*
D03*
Y24274D02*
D03*
Y22674D02*
D03*
Y32228D02*
D03*
Y29028D02*
D03*
Y28228D02*
D03*
X40005Y29845D02*
D03*
X39787Y52882D02*
D03*
X39766Y57643D02*
D03*
X39370Y56693D02*
D03*
X39264Y31428D02*
D03*
X39260Y29062D02*
D03*
X39255Y28245D02*
D03*
X39243Y24232D02*
D03*
Y21844D02*
D03*
Y29845D02*
D03*
X39238Y22617D02*
D03*
X39226Y25074D02*
D03*
Y23474D02*
D03*
Y30628D02*
D03*
Y27428D02*
D03*
X38989Y57658D02*
D03*
Y53594D02*
D03*
X38972Y52849D02*
D03*
X38964Y54458D02*
D03*
X38464Y31428D02*
D03*
X38445Y22702D02*
D03*
X38430Y24257D02*
D03*
Y25832D02*
D03*
X38426Y23474D02*
D03*
Y21874D02*
D03*
Y30628D02*
D03*
Y29828D02*
D03*
X38354Y20993D02*
D03*
Y54686D02*
D03*
X37744Y51435D02*
D03*
X37665Y22681D02*
D03*
X37664Y31428D02*
D03*
X37626Y24274D02*
D03*
Y23474D02*
D03*
Y21874D02*
D03*
Y30628D02*
D03*
Y29828D02*
D03*
X37414Y52832D02*
D03*
X37389Y57607D02*
D03*
X37372Y58403D02*
D03*
X37363Y19507D02*
D03*
X36855Y55524D02*
D03*
X36641Y55028D02*
D03*
X36614Y56845D02*
D03*
X36599Y53668D02*
D03*
X36576Y59258D02*
D03*
Y58445D02*
D03*
X36566Y57642D02*
D03*
X36072Y24274D02*
D03*
Y23474D02*
D03*
Y22674D02*
D03*
Y21874D02*
D03*
Y32228D02*
D03*
Y30628D02*
D03*
Y29828D02*
D03*
X36068Y31471D02*
D03*
X35839Y55905D02*
D03*
X35814Y57658D02*
D03*
Y56769D02*
D03*
X35789Y52823D02*
D03*
X35763Y52019D02*
D03*
X35757Y58434D02*
D03*
X35272Y24274D02*
D03*
Y33028D02*
D03*
Y32228D02*
D03*
Y30628D02*
D03*
Y29828D02*
D03*
X35255Y23444D02*
D03*
X35246Y22687D02*
D03*
X34950Y55677D02*
D03*
X34492Y21846D02*
D03*
X34472Y24274D02*
D03*
Y23474D02*
D03*
Y22674D02*
D03*
Y33028D02*
D03*
Y32228D02*
D03*
Y31428D02*
D03*
Y30628D02*
D03*
X34434Y28228D02*
D03*
Y27428D02*
D03*
X34392Y59741D02*
D03*
X34218Y58403D02*
D03*
X34198Y57582D02*
D03*
X34188Y56845D02*
D03*
X33833Y20921D02*
D03*
X33672Y25074D02*
D03*
Y24274D02*
D03*
Y23474D02*
D03*
Y22674D02*
D03*
Y32228D02*
D03*
Y31428D02*
D03*
Y30628D02*
D03*
Y29828D02*
D03*
Y29028D02*
D03*
Y25874D02*
D03*
X33655Y28270D02*
D03*
X33631Y21869D02*
D03*
X33630Y27435D02*
D03*
X33414Y53607D02*
D03*
X33401Y56769D02*
D03*
Y52832D02*
D03*
X33388Y57632D02*
D03*
X33249Y20918D02*
D03*
Y33195D02*
D03*
X32903Y30623D02*
D03*
X32872Y25074D02*
D03*
Y24274D02*
D03*
Y23474D02*
D03*
Y22674D02*
D03*
Y32228D02*
D03*
Y31428D02*
D03*
Y29845D02*
D03*
Y27428D02*
D03*
Y25874D02*
D03*
X32867Y29078D02*
D03*
X32765Y33551D02*
D03*
X32639Y52832D02*
D03*
Y51435D02*
D03*
X32618Y53649D02*
D03*
X32561Y57578D02*
D03*
X32530Y58442D02*
D03*
X32072Y25074D02*
D03*
Y24274D02*
D03*
Y23474D02*
D03*
Y22674D02*
D03*
Y21874D02*
D03*
Y21074D02*
D03*
Y33028D02*
D03*
Y32228D02*
D03*
Y31428D02*
D03*
Y29828D02*
D03*
Y29028D02*
D03*
Y28228D02*
D03*
Y27428D02*
D03*
Y25874D02*
D03*
X31876Y58422D02*
D03*
X31828Y53674D02*
D03*
X31818Y56849D02*
D03*
X31272Y24274D02*
D03*
Y22674D02*
D03*
Y21874D02*
D03*
Y21074D02*
D03*
Y32228D02*
D03*
Y31428D02*
D03*
Y28228D02*
D03*
Y27428D02*
D03*
Y25874D02*
D03*
X30988Y58445D02*
D03*
X30963Y57633D02*
D03*
X30940Y55601D02*
D03*
X30764Y33536D02*
D03*
X30472Y21874D02*
D03*
Y21074D02*
D03*
X30242Y23749D02*
D03*
X30218Y52849D02*
D03*
X30201Y51943D02*
D03*
X29591Y30251D02*
D03*
X29185Y19964D02*
D03*
X27976Y27610D02*
D03*
D61*
X9271Y31242D02*
D03*
Y38792D02*
D03*
D65*
X52000Y97536D02*
Y115536D01*
X34000Y97536D02*
X52000D01*
X34000D02*
Y115536D01*
X52000D01*
X60002Y127013D02*
X60013Y127000D01*
X0Y127013D02*
X60002D01*
X-13Y127002D02*
X0Y127013D01*
X-13Y41402D02*
Y127002D01*
Y41402D02*
X138Y40686D01*
X379Y39250D01*
X540Y37804D01*
X621Y36351D01*
X631Y35624D01*
X621Y34896D02*
X631Y35624D01*
X540Y33443D02*
X621Y34896D01*
X379Y31997D02*
X540Y33443D01*
X138Y30561D02*
X379Y31997D01*
X-12Y29849D02*
X138Y30561D01*
X-13Y0D02*
X-12Y29849D01*
X-13Y0D02*
X-3Y-13D01*
X18917D01*
X18930Y-3D01*
Y1780D01*
X19022Y1872D01*
X19662D01*
X19754Y1780D01*
Y0D02*
Y1780D01*
Y0D02*
X19764Y-13D01*
X23667D01*
X23680Y-3D01*
Y1780D01*
X23772Y1872D01*
X24412D01*
X24504Y1780D01*
Y0D02*
Y1780D01*
Y0D02*
X24514Y-13D01*
X60000D01*
X60013Y-3D01*
Y16510D01*
Y16563D01*
X59972Y16661D02*
X60013Y16563D01*
X59897Y16736D02*
X59972Y16661D01*
X59799Y16777D02*
X59897Y16736D01*
X58967Y16777D02*
X59799D01*
X58920Y16781D02*
X58967Y16777D01*
X58833Y16817D02*
X58920Y16781D01*
X58767Y16884D02*
X58833Y16817D01*
X58731Y16971D02*
X58767Y16884D01*
X58726Y17018D02*
X58731Y16971D01*
X58726Y17018D02*
Y26543D01*
X58731Y26590D01*
X58767Y26677D01*
X58833Y26743D01*
X58920Y26779D01*
X58967Y26784D01*
X59799D01*
X59897Y26824D01*
X59972Y26899D01*
X60013Y26998D01*
Y27051D01*
Y127000D01*
D66*
X4953Y102108D02*
D03*
X11953D02*
D03*
D67*
X25867Y1280D02*
D03*
X17567D02*
D03*
D68*
X19442Y4460D02*
D03*
X23992D02*
D03*
D69*
X29118Y122151D02*
D03*
X33518D02*
D03*
D70*
X4191Y4191D02*
D03*
Y122809D02*
D03*
X55809D02*
D03*
Y4191D02*
D03*
D71*
X31496Y84836D02*
D03*
D72*
Y87376D02*
D03*
X34036Y84836D02*
D03*
Y87376D02*
D03*
X36576D02*
D03*
D73*
X25150Y30289D02*
D03*
X25146Y29654D02*
D03*
X24954Y28257D02*
D03*
X24912Y108184D02*
D03*
X24765Y112395D02*
D03*
X24320Y114681D02*
D03*
X24232Y29604D02*
D03*
X24130Y23851D02*
D03*
Y17297D02*
D03*
X23876Y102108D02*
D03*
Y6858D02*
D03*
X23749Y44450D02*
D03*
X2375Y52451D02*
D03*
Y51689D02*
D03*
X23622Y45339D02*
D03*
X23153Y102152D02*
D03*
X23139Y7595D02*
D03*
X22606Y17272D02*
D03*
X22454Y42037D02*
D03*
X21768Y38684D02*
D03*
X21730Y10163D02*
D03*
X21717Y110236D02*
D03*
X21641Y29642D02*
D03*
X21387Y42012D02*
D03*
X21336Y41199D02*
D03*
X21285Y112395D02*
D03*
X21209Y30607D02*
D03*
X21069Y10147D02*
D03*
X20574Y37795D02*
D03*
X20523Y38456D02*
D03*
X20475Y103152D02*
D03*
X20472Y41961D02*
D03*
X20447Y115976D02*
D03*
X19939Y50139D02*
D03*
X19875Y47599D02*
D03*
X19851Y48869D02*
D03*
X18898Y119634D02*
D03*
X18796Y30861D02*
D03*
Y30226D02*
D03*
X18288Y104652D02*
D03*
X18161Y12497D02*
D03*
X17145Y56134D02*
D03*
X17018Y115951D02*
D03*
X16510Y13589D02*
D03*
X16129Y124587D02*
D03*
Y111125D02*
D03*
X15240Y81788D02*
D03*
X13970Y14986D02*
D03*
X13462Y32639D02*
D03*
X13437Y33274D02*
D03*
X13335Y34036D02*
D03*
X13144Y81534D02*
D03*
X12929Y38961D02*
D03*
X12319Y11049D02*
D03*
Y83348D02*
D03*
X12294Y39014D02*
D03*
X12065Y34798D02*
D03*
X12040Y34036D02*
D03*
X11811Y93218D02*
D03*
X11557Y64389D02*
D03*
X11049Y83160D02*
D03*
X10795Y65405D02*
D03*
X10541Y119253D02*
D03*
X10312Y46329D02*
D03*
X10288Y47600D02*
D03*
X10287Y58293D02*
D03*
Y48869D02*
D03*
X9754Y79629D02*
D03*
X9601Y91516D02*
D03*
X9093Y83363D02*
D03*
Y82169D02*
D03*
X8763Y65151D02*
D03*
X8407Y82118D02*
D03*
X8382Y56261D02*
D03*
Y55626D02*
D03*
X8001Y77216D02*
D03*
X7899Y61519D02*
D03*
Y60833D02*
D03*
X7874Y76581D02*
D03*
X7798Y92075D02*
D03*
X7747Y85598D02*
D03*
Y75565D02*
D03*
X7722Y86233D02*
D03*
X7620Y73000D02*
D03*
X7556Y93345D02*
D03*
Y63881D02*
D03*
X6960Y60909D02*
D03*
X6350Y82677D02*
D03*
X57277Y43434D02*
D03*
X56896Y98552D02*
D03*
X56642Y94107D02*
D03*
X56515Y92964D02*
D03*
X56261Y19050D02*
D03*
Y47752D02*
D03*
X56134Y24892D02*
D03*
Y24117D02*
D03*
X54381Y61189D02*
D03*
X54229Y46101D02*
D03*
X54102Y54991D02*
D03*
Y35750D02*
D03*
X53975Y57531D02*
D03*
Y31242D02*
D03*
X53848Y80899D02*
D03*
Y80010D02*
D03*
Y79248D02*
D03*
X53594Y92456D02*
D03*
X53569Y46101D02*
D03*
X53543Y45466D02*
D03*
X53349Y20847D02*
D03*
Y20186D02*
D03*
X53340Y62611D02*
D03*
X53197Y23247D02*
D03*
Y22586D02*
D03*
X52832Y70231D02*
D03*
X52388Y61468D02*
D03*
X51308Y18669D02*
D03*
X51181Y8255D02*
D03*
X51054Y35750D02*
D03*
X51052Y22047D02*
D03*
Y21387D02*
D03*
X50292Y58801D02*
D03*
X4953Y70612D02*
D03*
Y67691D02*
D03*
X49403Y117729D02*
D03*
X49085Y85661D02*
D03*
X48387Y40640D02*
D03*
Y37465D02*
D03*
X48063Y14789D02*
D03*
X47676Y55220D02*
D03*
X47625Y62865D02*
D03*
X47269Y43891D02*
D03*
Y43028D02*
D03*
X47117Y5461D02*
D03*
X47015Y45288D02*
D03*
X4699Y58674D02*
D03*
X46431Y30607D02*
D03*
X46355Y5461D02*
D03*
X46203Y25679D02*
D03*
X46076Y33299D02*
D03*
X45974Y40513D02*
D03*
Y39497D02*
D03*
X45085Y60198D02*
D03*
X44958Y40513D02*
D03*
X44933Y39624D02*
D03*
X44856Y11659D02*
D03*
X44831Y18974D02*
D03*
X44298Y16282D02*
D03*
X44069Y35306D02*
D03*
X43332Y39141D02*
D03*
X43231Y11811D02*
D03*
X43180Y10795D02*
D03*
X43053Y14732D02*
D03*
X42545Y5461D02*
D03*
X42418Y14986D02*
D03*
X42393Y38964D02*
D03*
X42367Y41021D02*
D03*
Y40335D02*
D03*
X42291Y19583D02*
D03*
X41859Y20447D02*
D03*
X41783Y14351D02*
D03*
X41402Y38532D02*
D03*
Y35306D02*
D03*
X40615Y16053D02*
D03*
X40589Y15392D02*
D03*
X39878Y11303D02*
D03*
Y5461D02*
D03*
X39370Y95250D02*
D03*
Y40996D02*
D03*
X39116Y19431D02*
D03*
X38735Y35306D02*
D03*
X38481Y93218D02*
D03*
Y92456D02*
D03*
X38227Y41986D02*
D03*
Y41021D02*
D03*
X37973Y71755D02*
D03*
X37363Y18758D02*
D03*
Y15621D02*
D03*
X37338Y10490D02*
D03*
Y5588D02*
D03*
X37211Y41046D02*
D03*
X37186Y42037D02*
D03*
X36449Y35306D02*
D03*
X36170Y40919D02*
D03*
X36144Y39192D02*
D03*
X36119Y14326D02*
D03*
X3556Y53594D02*
D03*
X35433Y76327D02*
D03*
X35128Y10795D02*
D03*
X34823Y5563D02*
D03*
X34722Y40919D02*
D03*
X34569Y39167D02*
D03*
X34493Y18542D02*
D03*
X34290Y14859D02*
D03*
Y14148D02*
D03*
X33884Y18771D02*
D03*
X33274Y76327D02*
D03*
Y36068D02*
D03*
X32588Y38823D02*
D03*
X32258Y5639D02*
D03*
X32105Y36067D02*
D03*
X31877Y80391D02*
D03*
Y76454D02*
D03*
X31750Y18796D02*
D03*
X31572Y41783D02*
D03*
X31550Y41123D02*
D03*
X31115Y18796D02*
D03*
Y38799D02*
D03*
X30988Y914D02*
D03*
X30937Y6629D02*
D03*
X29591Y114681D02*
D03*
Y36068D02*
D03*
X29489Y41402D02*
D03*
X29362Y107925D02*
D03*
Y107152D02*
D03*
X28981Y39040D02*
D03*
X28321Y107188D02*
D03*
X28118Y25273D02*
D03*
Y24003D02*
D03*
Y21590D02*
D03*
Y19054D02*
D03*
Y26543D02*
D03*
X28092Y22936D02*
D03*
X28067Y117602D02*
D03*
X27991Y20320D02*
D03*
X27813Y7544D02*
D03*
X27483Y39040D02*
D03*
X27457Y40945D02*
D03*
X26924Y7544D02*
D03*
X26619Y40843D02*
D03*
X26035Y8509D02*
D03*
Y7874D02*
D03*
X25933Y43155D02*
D03*
X25912Y108081D02*
D03*
X25832Y30328D02*
D03*
X25527Y114681D02*
D03*
X25479Y27900D02*
D03*
X25451Y116357D02*
D03*
X25425Y38329D02*
D03*
D74*
X24912Y99207D02*
D03*
X23876Y50800D02*
D03*
X23749Y53696D02*
D03*
X22860Y8280D02*
D03*
X22479Y95885D02*
D03*
X22339Y32017D02*
D03*
X22098Y50241D02*
D03*
Y49276D02*
D03*
X21209Y95885D02*
D03*
X21125Y113919D02*
D03*
X20955Y124968D02*
D03*
X19431Y114427D02*
D03*
X19329Y108509D02*
D03*
X18288Y124968D02*
D03*
Y8070D02*
D03*
Y7211D02*
D03*
X18148Y44536D02*
D03*
X18136Y41986D02*
D03*
X18059Y34874D02*
D03*
X18058Y39083D02*
D03*
X18057Y40482D02*
D03*
X18034Y37465D02*
D03*
X17729Y90932D02*
D03*
X17379Y81808D02*
D03*
X16764Y96774D02*
D03*
X16612Y32029D02*
D03*
X15723Y117678D02*
D03*
X14920Y11049D02*
D03*
X14224Y65913D02*
D03*
Y65151D02*
D03*
X14199Y64389D02*
D03*
X13843Y79629D02*
D03*
X13589Y5715D02*
D03*
Y4953D02*
D03*
X13462Y65913D02*
D03*
Y65151D02*
D03*
Y64389D02*
D03*
X13081Y36017D02*
D03*
X12827Y89916D02*
D03*
Y5715D02*
D03*
Y4953D02*
D03*
X12370Y76378D02*
D03*
X12192Y120117D02*
D03*
X11989Y77013D02*
D03*
X11608Y76378D02*
D03*
X11430Y84582D02*
D03*
X11422Y87681D02*
D03*
X11100Y77013D02*
D03*
X10795Y120117D02*
D03*
X10719Y76378D02*
D03*
X10541Y20320D02*
D03*
X10414Y1905D02*
D03*
Y2794D02*
D03*
X10097Y111062D02*
D03*
X9652Y1905D02*
D03*
Y2794D02*
D03*
X8636Y45466D02*
D03*
X8255Y14478D02*
D03*
X7366Y10414D02*
D03*
X59182Y107442D02*
D03*
X58674Y83820D02*
D03*
X58420Y78486D02*
D03*
X56642Y94996D02*
D03*
X53594Y93345D02*
D03*
X53086Y110744D02*
D03*
X52705Y29591D02*
D03*
X52426Y35839D02*
D03*
X50546Y124079D02*
D03*
Y122174D02*
D03*
Y120015D02*
D03*
X50419Y18669D02*
D03*
X50038Y55347D02*
D03*
X49530Y94361D02*
D03*
Y93599D02*
D03*
X48743Y30886D02*
D03*
X48641Y3683D02*
D03*
X48387Y75565D02*
D03*
Y74803D02*
D03*
X47879Y19050D02*
D03*
X47752Y89637D02*
D03*
X47625Y75565D02*
D03*
Y74803D02*
D03*
X45720Y89611D02*
D03*
X45212Y58547D02*
D03*
X44958Y55753D02*
D03*
X44907Y17551D02*
D03*
X4381Y111062D02*
D03*
X43561Y49530D02*
D03*
X41300Y61595D02*
D03*
X41148Y117856D02*
D03*
X40513Y117475D02*
D03*
X39624Y72390D02*
D03*
X38557Y61595D02*
D03*
X38252Y49555D02*
D03*
X36703Y61595D02*
D03*
X36068Y15113D02*
D03*
X35814Y63881D02*
D03*
X35052Y63627D02*
D03*
Y61595D02*
D03*
X34519Y49733D02*
D03*
X33401Y61574D02*
D03*
X33325Y14910D02*
D03*
X33020Y101854D02*
D03*
X32639Y124968D02*
D03*
X31877Y116840D02*
D03*
X31623Y99314D02*
D03*
Y61595D02*
D03*
X31115Y113411D02*
D03*
X30353Y12192D02*
D03*
X29718Y10338D02*
D03*
X29591Y12192D02*
D03*
X29337Y84455D02*
D03*
Y83693D02*
D03*
X28829Y111506D02*
D03*
X28575Y84455D02*
D03*
Y83693D02*
D03*
X28194Y9957D02*
D03*
Y2540D02*
D03*
X28016Y18339D02*
D03*
X27813Y84455D02*
D03*
Y83693D02*
D03*
X27737Y55651D02*
D03*
X27559Y58674D02*
D03*
Y52832D02*
D03*
X25603Y18136D02*
D03*
X25400Y124968D02*
D03*
M02*
