M48
;Layer_Color=9474304
;FILE_FORMAT=4:3
METRIC,LZ
;TYPE=PLATED
T1F00S00C0.203
T2F00S00C0.254
T3F00S00C0.305
T6F00S00C1.016
T7F00S00C2.997
%
T01
X0029185Y0019964
X0030472Y0021074
X0031272
Y0021874
X0030472
X0032072
Y0021074
X0033249Y0020918
X0033833Y0020921
X0033631Y0021869
X0033672Y0022674
X0032872
Y0023474
X0033672
Y0024274
X0032872
Y0025074
X0033672
Y0025874
X0032872
X0032072
Y0025074
Y0024274
Y0023474
Y0022674
X0031272
Y0024274
Y0025074
Y0025874
Y0027428
X0032072
X0032872
X003363Y0027435
X0034434Y0027428
X0035234
Y0028228
X0034434
X0033655Y002827
X0033672Y0029028
X0034472
X0035272
X0036072
Y0029828
Y0030628
X0035272
Y0029828
X0034472
Y0030628
Y0031428
Y0032228
X0035272
Y0033028
X0034472
X0033249Y0033195
X0032765Y0033551
X0032072Y0033028
Y0032228
X0032872
X0033672
Y0031428
X0032872
X0032072
X0031272
X0030472
X0030226Y0030251
X0029591
X0032072Y0029828
Y0029028
Y0028228
X0031272
X0032867Y0029078
X0032872Y0029845
X0032903Y0030623
X0033672Y0030628
Y0029828
X0037626
X0038426
Y0030628
X0037626
X0037664Y0031428
X0038464
X0039264
X004003
X0040026Y0032228
X0040826
Y0033028
X0041626
X0042426
X0042955Y003071
X0042393Y0029871
X0041626Y0029828
Y0029028
X0042426
X0040826
Y0028228
X0040026
X0039255Y0028245
X003926Y0029062
X0039243Y0029845
X0040005
X0040026Y0029028
X0038426
Y0028228
Y0027428
X0039226
X0040056Y0027444
X004003Y002667
X0040056Y0025832
X0040026Y0025074
X0039226
X0039243Y0025832
X003843
X0038426Y0025074
X0037626
Y0024274
Y0023474
X0038426
X003843Y0024257
X0039243Y0024232
X0039226Y0023474
X004003Y0023442
X0040026Y0022674
X0039238Y0022617
X0039243Y0021844
X0038426Y0021874
X0037626
X0037665Y0022681
X0038445Y0022702
X0038354Y0020993
X0037363Y0019507
X0036072Y0021874
Y0022674
Y0023474
Y0024274
Y0025074
X0035272
X0034472
Y0025874
Y0024274
X0035272
X0035255Y0023444
X0035246Y0022687
X0034472Y0022674
Y0023474
X0034492Y0021846
X0030242Y0023749
X0027976Y002761
X0031272Y0032228
X0030764Y0033536
X0036072Y0032228
X0036068Y0031471
X0039226Y0030628
X0040826
X0044145Y0031267
X0044069Y0029718
X0043853Y0026061
X0044399Y002606
X0044221Y0024982
X0043683
X0043078Y0025019
X004252Y0025121
X0042582Y0023851
Y0023051
X0042582Y0022223
X0040826Y0023474
Y0024274
X0040026
X0040869Y0025874
X0041626Y0027428
X0037672Y0025874
X0037626Y0029028
X0046736Y0021463
X0046863Y0020828
X004318Y0052959
X0043155Y0053569
X0042172Y0053649
X0041372
X0040589Y0053645
X0039787Y0052882
X0039772Y0052049
X0040572
X0038972Y0052849
X0038989Y0053594
X0038964Y0054458
X0038354Y0054686
X0036641Y0055028
X0036855Y0055524
X0035839Y0055905
X0035814Y0056769
X0036614Y0056845
X0034188
X0033401Y0056769
X0031818Y0056849
X003094Y0055601
X0030988Y0054574
X0030218Y0053649
Y0052849
X0030201Y0051943
X0031776Y0052806
X0032639Y0052832
X0033401
X0033414Y0053607
X0034172Y0053649
X0032618
X0031828Y0053674
X0032618Y0052049
X0032639Y0051435
X0035763Y0052019
X0035789Y0052823
X0037414Y0052832
X0038176Y0052019
X0037744Y0051435
X0036599Y0053668
X003495Y0055677
X003937Y0056693
X0041732Y0054737
X004064Y0057658
X0040572Y0058403
X0041372
X0040995Y0059359
X0042113Y005936
X0042545Y0058776
X0039766Y0057643
X0038989Y0057658
X0037389Y0057607
X0037372Y0058403
X0036576Y0058445
X0036566Y0057642
X0035814Y0057658
X0035757Y0058434
X0034218Y0058403
X0033401Y005842
X0033388Y0057632
X0034198Y0057582
X0032561Y0057578
X0031765Y0057641
X0030963Y0057633
X0030988Y0058445
X0031876Y0058422
X003253Y0058442
X0034392Y0059741
X0036576Y0059258
X0038595Y0059385
T02
X0018161Y0012497
X0021069Y0010147
X002173Y0010163
X0023139Y0007595
X0023876Y0006858
X0026035Y0007874
Y0008509
X0026924Y0007544
X0027813
X0030937Y0006629
X0032258Y0005639
X0034823Y0005563
X0037338Y0005588
X0039878Y0005461
X0042545
X0046355
X0047117
X0051181Y0008255
X0048063Y0014789
X0043053Y0014732
X0042418Y0014986
X0041783Y0014351
X0040589Y0015392
X0040615Y0016053
X0037363Y0015621
X0036119Y0014326
X003429Y0014148
Y0014859
X0035128Y0010795
X0037338Y001049
X0039878Y0011303
X004318Y0010795
X0043231Y0011811
X0044856Y0011659
X0044298Y0016282
X002413Y0017297
X0022606Y0017272
X0030988Y0000914
X001651Y0013589
X001397Y0014986
X0012319Y0011049
X0013462Y0032639
X0013437Y0033274
X0013335Y0034036
X001204
X0012065Y0034798
X0012294Y0039014
X0012929Y0038961
X0010312Y0046329
X0010288Y00476
X0010287Y0048869
X0008382Y0055626
Y0056261
X0003556Y0053594
X0002375Y0052451
Y0051689
X0017145Y0056134
X0019939Y0050139
X0019851Y0048869
X0019875Y0047599
X0023622Y0045339
X0023749Y004445
X0025933Y0043155
X0026619Y0040843
X0027457Y0040945
X0027483Y003904
X0028981
X0031115Y0038799
X0032588Y0038823
X0034569Y0039167
X0036144Y0039192
X003617Y0040919
X0037211Y0041046
X0037186Y0042037
X0038227Y0041986
Y0041021
X003937Y0040996
X0042367Y0041021
Y0040335
X0042393Y0038964
X0043332Y0039141
X0044933Y0039624
X0044958Y0040513
X0045974
Y0039497
X0048387Y004064
Y0037465
X0051054Y003575
X0054102
X0053975Y0031242
X0046431Y0030607
X0046076Y0033299
X0044069Y0035306
X0041402
X0038735
X0036449
X0033274Y0036068
X0032105Y0036067
X0029591Y0036068
X0029489Y0041402
X003155Y0041123
X0031572Y0041783
X0034722Y0040919
X0041402Y0038532
X0047269Y0043028
Y0043891
X0047015Y0045288
X0053543Y0045466
X0053569Y0046101
X0054229
X0056261Y0047752
X0054102Y0054991
X0047676Y005522
X0046203Y0025679
X0044831Y0018974
X0042291Y0019583
X0041859Y0020447
X0039116Y0019431
X0037363Y0018758
X0034493Y0018542
X0033884Y0018771
X003175Y0018796
X0031115
X0028118Y0019054
X0027991Y002032
X0028118Y002159
X0028092Y0022936
X0028118Y0024003
Y0025273
Y0026543
X0025479Y00279
X0024954Y0028257
X0025146Y0029654
X002515Y0030289
X0025832Y0030328
X0024232Y0029604
X0021641Y0029642
X0021209Y0030607
X0018796Y0030861
Y0030226
X0020574Y0037795
X0020523Y0038456
X0021768Y0038684
X0021336Y0041199
X0021387Y0042012
X0020472Y0041961
X0022454Y0042037
X0025425Y0038329
X002413Y0023851
X0051052Y0022047
Y0021387
X0053349Y0020847
Y0020186
X0053197Y0022586
Y0023247
X0056134Y0024117
Y0024892
X0056261Y001905
X0051308Y0018669
X0057277Y0043434
X0053975Y0057531
X0054381Y0061189
X0052388Y0061468
X005334Y0062611
X0047625Y0062865
X0045085Y0060198
X0050292Y0058801
X0052832Y0070231
X0053848Y0079248
Y008001
Y0080899
X0049085Y0085661
X0053594Y0092456
X0056515Y0092964
X0056642Y0094107
X003937Y009525
X0038481Y0093218
Y0092456
X0031877Y0080391
Y0076454
X0033274Y0076327
X0035433
X0037973Y0071755
X001778Y0083947
Y0085598
Y0087249
X0016129
Y0085598
X0014605
X0014478Y0087249
Y0083947
X0016129
X001524Y0081788
X0013144Y0081534
X0012319Y0083348
X0011049Y008316
X0009093Y0083363
Y0082169
X0008407Y0082118
X000635Y0082677
X0007747Y0085598
X0007722Y0086233
X0007798Y0092075
X0007556Y0093345
X0009601Y0091516
X0011811Y0093218
X0009754Y0079629
X0008001Y0077216
X0007874Y0076581
X0007747Y0075565
X000762Y0073
X0004953Y0070612
Y0067691
X0008763Y0065151
X0010795Y0065405
X0011557Y0064389
X0007556Y0063881
X0007899Y0061519
Y0060833
X000696Y0060909
X0004699Y0058674
X0010287Y0058293
X0016129Y0111125
X0017018Y0115951
X0016129Y0124587
X0010541Y0119253
X0018898Y0119634
X0020447Y0115976
X0021285Y0112395
X0021717Y0110236
X0024765Y0112395
X002432Y0114681
X0025527
X0025451Y0116357
X0028067Y0117602
X0029591Y0114681
X0029362Y0107925
Y0107152
X0028321Y0107188
X0025912Y0108081
X0024912Y0108184
X0023876Y0102108
X0023153Y0102152
X0020475Y0103152
X0018288Y0104652
X0049403Y0117729
X0056896Y0098552
T03
X0018288Y0007211
Y000807
X0020447Y000762
X0020193Y0010033
X0020066Y0011938
X002347Y001157
X002286Y000828
X0023017Y0005334
X0027102Y0005715
X0028575Y0006858
Y0004318
X0028194Y000254
X0029718Y000084
X0031242Y0005588
X0029718Y0010338
X0028194Y0009957
X0029591Y0012192
X0030353
X0029591Y0015367
X0028461Y0014605
X0033325Y001491
X0036068Y0015113
X0047625Y0016256
X0047752Y0017069
X0048108Y0005613
X0048641Y0003683
X0049809Y0004369
X0051584Y0004318
X0049759Y0006807
X0017272Y0011227
X0016383
X001492Y0011049
X001397Y0008636
X0013589Y0005715
Y0004953
X0012827
Y0005715
X0010414Y0002794
X0009652
Y0001905
X0010414
X0007366Y0010414
X0008255Y0014478
X0012319Y0012446
X0010541Y002032
X0016434Y002098
X0015037Y002286
X0016383Y0024765
X0016612Y0032029
X0013081Y0036017
Y0038217
X0013462Y0041275
X0010084
X0008534Y0044628
X0008636Y0045466
X001016Y0050139
X0022098Y0050241
Y0049276
Y0051562
X0023876Y00508
X0023749Y0053696
X002286Y0053721
X0026543Y0052832
X0027559
X0027737Y0055651
X0025654Y0056642
X0023368Y0047879
X0022174Y0046736
X0021209Y0045644
X0018148Y0044536
X0018136Y0041986
X0018057Y0040482
X0018058Y0039083
X0018034Y0037465
X0018059Y0034874
X0019939Y003429
X0019788Y003579
X0023368Y0035179
X002413
X0024003Y0033528
X002286Y0031496
X0022339Y0032017
X0025273Y0031509
X0025531Y0026543
X0025527Y002526
Y0024105
Y002286
X0025531Y002159
Y002032
X0025502Y0019054
X0025603Y0018136
X0028016Y0018339
X0032512Y0018796
X0020041Y0019202
X0019964Y0022301
X002032Y0024257
X0021565Y0027813
X0024384Y0038354
X0029591Y0037084
X003208Y0037171
X0033249Y0037156
X0036449Y0037846
X0038735
X0041402Y0037795
X0044069
X0047473Y0038481
X0047117Y0036271
X0045923Y0032334
X0048743Y0030886
X0052705Y0029591
X0055499Y0029464
X0056642Y0028067
X0056226Y0022317
Y0021117
Y0019917
Y0018117
X0053086Y0019431
X0050419Y0018669
X0049403Y0018644
X0047879Y001905
X0047955Y0023368
X0047168Y0023343
X0050546Y002286
X0051232Y0024765
X0050648Y002573
X0054102Y0023517
X0052426Y0035839
X0043586Y0048514
X0043561Y004953
X0038252Y0049555
X0038303Y0048514
X0034493Y0048666
X0034519Y0049733
X0045568Y0054051
X0046736Y0054991
X0045974Y0055753
X0044958
X0050038Y0055347
X0044907Y0017551
X005842Y0078486
X0058674Y008382
X0056642Y0094996
X0053594Y0093345
X004953Y0093599
Y0094361
Y0092583
X0047752Y0089637
X004572Y0089611
X004318Y0095758
X005146Y0096215
X0031623Y0096012
X003048Y0096266
X0029312Y0095834
X0027686Y0095758
X0026162
X0025019Y0096012
X0023749Y0095631
X0022479Y0095885
X0021209
X0021082Y0094996
X0020828Y0093091
X0017729Y0093218
Y0090932
X0018669Y0094869
X0026924Y0091821
X0029007Y0091846
X0029337Y0084455
Y0083693
X0028575
Y0084455
X0027813
Y0083693
X0024003Y008255
Y0081788
Y0080899
X0023114
X0023109Y0081765
X0023114Y008255
X002329Y0084709
X0022479Y008636
X0019558Y0078232
X0018161
X0019177Y0073914
Y0073152
X0020066
Y0073914
X0017907Y0066294
X0026543Y0058674
X0027559
X0031623Y0061595
Y0062636
X003335
X0033401Y0061574
X0035052Y0061595
Y0062611
Y0063627
X0035814Y0063881
X003683Y0063627
X0036678Y0062611
X0036703Y0061595
X0038557
X0038456Y0062611
X0040513Y0063627
X00413Y0061595
X0045212Y0058547
X0045974
X0047244Y0070104
X0048133
X0049022
Y0070993
X0048133
X0047244
X0047625Y0074803
X0048387
Y0075565
X0047625
X0050215Y0072771
X0054102Y0070231
X0039624Y007239
X0037719Y0073279
X0035814Y0072771
Y0069215
X0033655Y0066929
X0034036Y0063627
X0014199Y0064389
X0013462
Y0065151
X0014224
Y0065913
X0013462
X0006731Y0069342
X0005334Y0074397
X0010719Y0076378
X0011608
X001237
X0011989Y0077013
X00111
X0013939Y0077
X0014735Y0077035
X0015561Y0077038
X0015291Y0076352
X0014402Y0076378
X0014478Y0078613
X0013843Y0079629
X0013081Y0079121
X001651Y0078842
X0017379Y0081808
X0016969Y0089388
X0017018Y0092837
X0015748Y0095377
X0014351
X0011811Y0095123
X0013081Y0092837
X0012827Y0089916
X0011422Y0087681
X0009601Y0086868
X0009169Y0088519
X0005994Y0086995
X0010414Y0084582
X001143
X0007493Y0080416
X0016764Y0096774
X0014478Y0111125
X0010097Y0111062
X000762Y0109601
X0004064Y0109474
X0004381Y0111062
X0010795Y0120117
X0012192
X0013208Y0120269
X0012954Y0122301
X0013081Y0124841
X0011811Y0125984
X0014931Y0125802
X0015367Y0123546
X001016Y0123825
X0009271Y012319
X0014122Y0117348
X0015723Y0117678
X0019431Y0114427
X0021125Y0113919
X001999Y0112446
X0021336Y0111125
X0019329Y0108509
X0017907Y0107696
X0018415Y0106553
X0020701Y0106934
X0017932Y0103581
X0025412Y0102096
X0024912Y0099207
X0031623Y0099314
X003302Y0101854
X0032893Y0103124
X003302Y0106172
X0031369Y010922
X0029718Y0111506
X0028829
X0028412Y0107986
X0031115Y0113411
X0031877Y011684
X0032918Y0120752
X0032639Y0124968
X00254
X0023931Y0125802
X0020955Y0124968
X0018288
X0025446Y0119426
X0027068Y0117619
X0024663Y0113081
X0038608Y0118453
X0040513Y0117475
X0041148Y0117856
X0048133Y0117475
X0050546Y0120015
Y0122174
Y0124079
X0053086Y0110744
X0058699Y0110767
X005842Y0109347
X0059182Y0107442
X0058801Y0102362
T06
X0031496Y0084836
Y0087376
X0034036
Y0084836
X0036576Y0087376
T07
X0055809Y0004191
X0004191
Y0122809
X0055809
M30
