G04*
G04 #@! TF.GenerationSoftware,Altium Limited,Altium Designer,20.2.6 (244)*
G04*
G04 Layer_Physical_Order=4*
G04 Layer_Color=36540*
%FSLAX43Y43*%
%MOMM*%
G71*
G04*
G04 #@! TF.SameCoordinates,ADE9251E-79DE-46AD-AD66-6379AD971F3A*
G04*
G04*
G04 #@! TF.FilePolarity,Positive*
G04*
G01*
G75*
%ADD11C,0.127*%
%ADD13C,0.305*%
%ADD14C,0.102*%
%ADD15C,0.025*%
%ADD16C,0.254*%
%ADD36C,0.406*%
%ADD47C,0.508*%
%ADD48C,0.381*%
%ADD53C,0.142*%
%ADD54C,1.194*%
%ADD55C,2.007*%
%ADD56C,0.711*%
%ADD57O,1.397X1.905*%
%ADD58O,1.067X1.600*%
%ADD59C,0.991*%
%ADD61C,1.524*%
%ADD63C,0.610*%
%ADD64C,0.508*%
%ADD77C,3.759*%
G36*
X13513Y93726D02*
Y92507D01*
X13310Y92304D01*
X10058D01*
X9671Y91917D01*
X9601Y91931D01*
X9443Y91899D01*
X9308Y91809D01*
X9218Y91675D01*
X9201Y91586D01*
X9074Y91599D01*
Y92454D01*
X9527Y92907D01*
X11545D01*
X11652Y92835D01*
X11811Y92804D01*
X11970Y92835D01*
X12104Y92925D01*
X12194Y93059D01*
X12225Y93218D01*
X12194Y93377D01*
X12104Y93511D01*
X11970Y93601D01*
X11811Y93632D01*
X11652Y93601D01*
X11545Y93529D01*
X9398D01*
X9279Y93505D01*
X9178Y93438D01*
X8543Y92803D01*
X8476Y92702D01*
X8452Y92583D01*
Y90246D01*
X8476Y90127D01*
X8543Y90026D01*
X9925Y88644D01*
Y86108D01*
X9559Y85742D01*
X9492Y85641D01*
X9468Y85522D01*
Y84252D01*
X9492Y84133D01*
X9559Y84032D01*
X9875Y83717D01*
Y81993D01*
X5724Y77842D01*
X5656Y77741D01*
X5633Y77622D01*
Y65966D01*
X4809Y65142D01*
X4742Y65041D01*
X4718Y64922D01*
Y59817D01*
X4742Y59698D01*
X4809Y59597D01*
X5709Y58698D01*
Y54635D01*
X5733Y54516D01*
X5800Y54416D01*
X7157Y53059D01*
Y44755D01*
X7180Y44636D01*
X7248Y44535D01*
X10105Y41678D01*
X10206Y41610D01*
X10325Y41587D01*
X11822D01*
X14015Y39394D01*
Y35687D01*
X14038Y35568D01*
X14106Y35467D01*
X15005Y34568D01*
Y31267D01*
X15029Y31148D01*
X15096Y31048D01*
X15374Y30770D01*
Y18351D01*
X15397Y18233D01*
X15465Y18132D01*
X16544Y17052D01*
X16645Y16985D01*
X16764Y16961D01*
X22340D01*
X22447Y16889D01*
X22606Y16858D01*
X22765Y16889D01*
X22899Y16979D01*
X22989Y17113D01*
X23020Y17272D01*
X22989Y17431D01*
X22899Y17565D01*
X22765Y17655D01*
X22606Y17686D01*
X22447Y17655D01*
X22340Y17583D01*
X16893D01*
X15995Y18480D01*
Y30899D01*
X15972Y31018D01*
X15904Y31119D01*
X15627Y31396D01*
Y34696D01*
X15603Y34815D01*
X15536Y34916D01*
X14636Y35816D01*
Y39522D01*
X14613Y39641D01*
X14545Y39742D01*
X12170Y42117D01*
X12070Y42184D01*
X11951Y42208D01*
X10454D01*
X7778Y44884D01*
Y53188D01*
X7755Y53307D01*
X7687Y53407D01*
X6331Y54764D01*
Y58826D01*
X6307Y58945D01*
X6240Y59046D01*
X5340Y59946D01*
Y64794D01*
X6163Y65617D01*
X6231Y65718D01*
X6254Y65837D01*
Y77494D01*
X10405Y81644D01*
X10473Y81745D01*
X10496Y81864D01*
Y83845D01*
X10473Y83964D01*
X10405Y84065D01*
X10090Y84381D01*
Y85393D01*
X10456Y85759D01*
X10523Y85860D01*
X10547Y85979D01*
Y88773D01*
X10523Y88892D01*
X10456Y88993D01*
X9074Y90375D01*
Y91434D01*
X9201Y91446D01*
X9218Y91358D01*
X9308Y91223D01*
X11481Y89051D01*
Y88195D01*
X11422Y88147D01*
X11243Y88111D01*
X11092Y88010D01*
X10991Y87859D01*
X10956Y87681D01*
X10991Y87502D01*
X11092Y87351D01*
X11243Y87250D01*
X11422Y87215D01*
X11481Y87166D01*
Y85090D01*
X11430Y85048D01*
X11252Y85013D01*
X11100Y84912D01*
X10999Y84760D01*
X10964Y84582D01*
X10999Y84404D01*
X11100Y84252D01*
X11252Y84151D01*
X11430Y84116D01*
X11481Y84074D01*
Y83473D01*
X11354Y83435D01*
X11342Y83453D01*
X11208Y83542D01*
X11049Y83574D01*
X10890Y83542D01*
X10756Y83453D01*
X10666Y83318D01*
X10635Y83160D01*
X10666Y83001D01*
X10756Y82867D01*
X10842Y82809D01*
Y81276D01*
X9543Y79977D01*
X9461Y79922D01*
X9406Y79840D01*
X7061Y77495D01*
Y65761D01*
X5588Y64287D01*
Y60198D01*
X6905Y58881D01*
Y55016D01*
X6905Y55016D01*
X6909Y54996D01*
Y54839D01*
X8331Y53416D01*
Y45812D01*
X8306Y45796D01*
X8205Y45644D01*
X8170Y45466D01*
X8205Y45288D01*
X8306Y45136D01*
X8458Y45035D01*
X8584Y45010D01*
X10922Y42672D01*
X12534D01*
X14859Y40347D01*
Y35941D01*
X15875Y34925D01*
Y32029D01*
X21057Y26848D01*
X25730D01*
X26492Y26086D01*
Y20498D01*
X27076Y19914D01*
Y16739D01*
X26721Y16383D01*
X16510D01*
X14757Y18136D01*
Y34315D01*
X14677Y34396D01*
X14650Y34437D01*
X13771Y35316D01*
Y39065D01*
X13767Y39085D01*
Y39167D01*
X11989Y40945D01*
X9957D01*
X6629Y44272D01*
Y52984D01*
X5029Y54585D01*
Y58437D01*
X5082Y58515D01*
X5113Y58674D01*
X5082Y58833D01*
X4992Y58967D01*
X4858Y59057D01*
X4752Y59078D01*
X4420Y59411D01*
Y65634D01*
X4991Y66205D01*
Y67284D01*
X5112Y67308D01*
X5246Y67398D01*
X5336Y67532D01*
X5367Y67691D01*
X5336Y67850D01*
X5246Y67984D01*
X5112Y68074D01*
X4991Y68098D01*
Y70205D01*
X5112Y70229D01*
X5246Y70319D01*
X5336Y70453D01*
X5367Y70612D01*
X5336Y70771D01*
X5246Y70905D01*
X5112Y70995D01*
X4991Y71019D01*
Y78359D01*
X8348Y81716D01*
X8407Y81704D01*
X8566Y81735D01*
X8700Y81825D01*
X8860Y81836D01*
X8935Y81786D01*
X9093Y81755D01*
X9252Y81786D01*
X9386Y81876D01*
X9476Y82010D01*
X9508Y82169D01*
X9476Y82328D01*
X9386Y82462D01*
X9252Y82552D01*
X9155Y82571D01*
X9220Y82917D01*
Y82974D01*
X9252Y82980D01*
X9386Y83070D01*
X9476Y83204D01*
X9508Y83363D01*
X9476Y83521D01*
X9386Y83656D01*
X9252Y83746D01*
X9220Y83752D01*
Y83902D01*
X9224Y83922D01*
Y86589D01*
X9224Y86589D01*
X9220Y86609D01*
Y86843D01*
X8128Y87935D01*
Y91838D01*
X8181Y91916D01*
X8212Y92075D01*
X8181Y92234D01*
X8128Y92312D01*
Y92837D01*
X9220Y93929D01*
X13310D01*
X13513Y93726D01*
D02*
G37*
G36*
X32131Y96012D02*
Y90297D01*
X31877Y90043D01*
X23495D01*
X23114Y90424D01*
Y96063D01*
X23724Y96672D01*
X31471D01*
X32131Y96012D01*
D02*
G37*
G36*
X21209Y89662D02*
Y79248D01*
Y78867D01*
X18288Y75946D01*
X15717D01*
X15654Y76073D01*
X15721Y76174D01*
X15757Y76352D01*
X15721Y76531D01*
X15784Y76637D01*
X15890Y76708D01*
X15991Y76860D01*
X16027Y77038D01*
X15991Y77216D01*
X15890Y77368D01*
X15739Y77469D01*
X15561Y77504D01*
X15382Y77469D01*
X15231Y77368D01*
X15210Y77336D01*
X15083D01*
X15065Y77365D01*
X14913Y77466D01*
X14735Y77501D01*
X14557Y77466D01*
X14405Y77365D01*
X14391Y77343D01*
X14263Y77333D01*
X14117Y77431D01*
X13939Y77466D01*
X13761Y77431D01*
X13609Y77330D01*
X13508Y77178D01*
X13473Y77000D01*
X13508Y76822D01*
X13609Y76670D01*
X13761Y76569D01*
X13841Y76553D01*
X13943Y76415D01*
X13936Y76378D01*
X13971Y76199D01*
X14056Y76073D01*
X14026Y75984D01*
X13999Y75946D01*
X10541D01*
X10160Y76327D01*
Y77597D01*
X12700Y80137D01*
X17780D01*
X19050Y81407D01*
Y88011D01*
X18415Y88646D01*
X13057D01*
X12192Y89511D01*
Y91186D01*
X12319Y91313D01*
X19558D01*
X21209Y89662D01*
D02*
G37*
G36*
X19710Y58801D02*
X19371D01*
X19340Y58802D01*
X19312Y58803D01*
X19288Y58806D01*
X19276Y58807D01*
X19266Y58809D01*
X19257Y58810D01*
X19250Y58811D01*
X19243Y58813D01*
X19237Y58814D01*
X19232Y58815D01*
X19229D01*
X19228Y58816D01*
X19227D01*
X19205Y58821D01*
X19186Y58828D01*
X19169Y58836D01*
X19156Y58843D01*
X19144Y58849D01*
X19136Y58854D01*
X19131Y58858D01*
X19129Y58859D01*
X19114Y58872D01*
X19102Y58885D01*
X19090Y58899D01*
X19081Y58912D01*
X19074Y58924D01*
X19068Y58934D01*
X19066Y58937D01*
X19064Y58940D01*
X19063Y58941D01*
Y58942D01*
X19054Y58963D01*
X19048Y58984D01*
X19043Y59003D01*
X19039Y59022D01*
X19037Y59037D01*
Y59043D01*
X19036Y59049D01*
Y59054D01*
Y59056D01*
Y59058D01*
Y59059D01*
Y59074D01*
X19038Y59087D01*
X19043Y59114D01*
X19050Y59137D01*
X19058Y59156D01*
X19062Y59165D01*
X19066Y59173D01*
X19070Y59179D01*
X19074Y59185D01*
X19077Y59189D01*
X19078Y59192D01*
X19079Y59194D01*
X19080Y59195D01*
X19098Y59215D01*
X19118Y59232D01*
X19138Y59246D01*
X19159Y59257D01*
X19176Y59266D01*
X19184Y59268D01*
X19191Y59271D01*
X19197Y59273D01*
X19200Y59275D01*
X19203Y59276D01*
X19204D01*
X19182Y59289D01*
X19164Y59302D01*
X19147Y59316D01*
X19135Y59328D01*
X19124Y59340D01*
X19117Y59349D01*
X19114Y59353D01*
X19112Y59356D01*
X19111Y59356D01*
Y59357D01*
X19101Y59377D01*
X19093Y59395D01*
X19087Y59414D01*
X19083Y59430D01*
X19081Y59445D01*
X19079Y59455D01*
Y59459D01*
Y59462D01*
Y59464D01*
Y59465D01*
X19081Y59488D01*
X19085Y59509D01*
X19091Y59530D01*
X19097Y59547D01*
X19104Y59562D01*
X19107Y59568D01*
X19109Y59573D01*
X19112Y59577D01*
X19113Y59580D01*
X19115Y59582D01*
Y59583D01*
X19130Y59602D01*
X19145Y59620D01*
X19161Y59634D01*
X19176Y59646D01*
X19191Y59655D01*
X19201Y59661D01*
X19206Y59663D01*
X19209Y59665D01*
X19211Y59666D01*
X19212D01*
X19237Y59676D01*
X19263Y59683D01*
X19291Y59687D01*
X19317Y59690D01*
X19329Y59692D01*
X19340Y59693D01*
X19350D01*
X19359Y59694D01*
X19710D01*
Y58801D01*
D02*
G37*
G36*
Y61148D02*
Y61047D01*
X19321D01*
Y60833D01*
X19212D01*
Y61047D01*
X19091D01*
Y61148D01*
X19212D01*
Y61726D01*
X19302D01*
X19710Y61148D01*
D02*
G37*
%LPC*%
G36*
X24130Y24265D02*
X23971Y24234D01*
X23837Y24144D01*
X23747Y24009D01*
X23715Y23851D01*
X23747Y23692D01*
X23837Y23557D01*
X23971Y23467D01*
X24130Y23436D01*
X24289Y23467D01*
X24423Y23557D01*
X24513Y23692D01*
X24545Y23851D01*
X24513Y24009D01*
X24423Y24144D01*
X24289Y24234D01*
X24130Y24265D01*
D02*
G37*
G36*
X25603Y18602D02*
X25425Y18567D01*
X25273Y18466D01*
X25172Y18314D01*
X25137Y18136D01*
X25172Y17957D01*
X25273Y17806D01*
X25425Y17704D01*
X25603Y17669D01*
X25782Y17704D01*
X25933Y17806D01*
X26034Y17957D01*
X26070Y18136D01*
X26034Y18314D01*
X25933Y18466D01*
X25782Y18567D01*
X25603Y18602D01*
D02*
G37*
G36*
X24130Y17712D02*
X23971Y17681D01*
X23837Y17591D01*
X23747Y17456D01*
X23715Y17297D01*
X23747Y17139D01*
X23837Y17004D01*
X23971Y16914D01*
X24130Y16883D01*
X24289Y16914D01*
X24423Y17004D01*
X24513Y17139D01*
X24545Y17297D01*
X24513Y17456D01*
X24423Y17591D01*
X24289Y17681D01*
X24130Y17712D01*
D02*
G37*
G36*
X16969Y89855D02*
X16790Y89819D01*
X16740Y89785D01*
X16639Y89718D01*
X16538Y89567D01*
X16502Y89388D01*
X16538Y89210D01*
X16639Y89058D01*
X16740Y88991D01*
X16790Y88957D01*
X16969Y88922D01*
X17148Y88957D01*
X17299Y89058D01*
X17400Y89210D01*
X17436Y89388D01*
X17400Y89567D01*
X17299Y89718D01*
X17148Y89819D01*
X16969Y89855D01*
D02*
G37*
G36*
X13081Y79588D02*
X12902Y79552D01*
X12852Y79518D01*
X12751Y79451D01*
X12650Y79300D01*
X12614Y79121D01*
X12650Y78942D01*
X12751Y78791D01*
X12852Y78724D01*
X12902Y78690D01*
X13081Y78654D01*
X13260Y78690D01*
X13411Y78791D01*
X13512Y78942D01*
X13548Y79121D01*
X13512Y79300D01*
X13411Y79451D01*
X13260Y79552D01*
X13081Y79588D01*
D02*
G37*
G36*
X16510Y79308D02*
X16331Y79273D01*
X16281Y79239D01*
X16180Y79172D01*
X16079Y79020D01*
X16043Y78842D01*
X16079Y78663D01*
X16180Y78512D01*
X16281Y78444D01*
X16331Y78410D01*
X16510Y78375D01*
X16689Y78410D01*
X16840Y78512D01*
X16941Y78663D01*
X16977Y78842D01*
X16941Y79020D01*
X16840Y79172D01*
X16689Y79273D01*
X16510Y79308D01*
D02*
G37*
G36*
X14478Y79080D02*
X14299Y79044D01*
X14249Y79010D01*
X14148Y78943D01*
X14047Y78792D01*
X14011Y78613D01*
X14047Y78434D01*
X14148Y78283D01*
X14249Y78216D01*
X14299Y78182D01*
X14478Y78146D01*
X14657Y78182D01*
X14808Y78283D01*
X14909Y78434D01*
X14945Y78613D01*
X14909Y78792D01*
X14808Y78943D01*
X14657Y79044D01*
X14478Y79080D01*
D02*
G37*
G36*
X19558Y78699D02*
X19379Y78663D01*
X19329Y78629D01*
X19228Y78562D01*
X19127Y78411D01*
X19091Y78232D01*
X19127Y78053D01*
X19228Y77902D01*
X19329Y77835D01*
X19379Y77801D01*
X19558Y77765D01*
X19737Y77801D01*
X19888Y77902D01*
X19989Y78053D01*
X20025Y78232D01*
X19989Y78411D01*
X19888Y78562D01*
X19737Y78663D01*
X19558Y78699D01*
D02*
G37*
G36*
X18161D02*
X17982Y78663D01*
X17932Y78629D01*
X17831Y78562D01*
X17730Y78411D01*
X17694Y78232D01*
X17730Y78053D01*
X17831Y77902D01*
X17932Y77835D01*
X17982Y77801D01*
X18161Y77765D01*
X18340Y77801D01*
X18491Y77902D01*
X18592Y78053D01*
X18628Y78232D01*
X18592Y78411D01*
X18491Y78562D01*
X18340Y78663D01*
X18161Y78699D01*
D02*
G37*
G36*
X19592Y59589D02*
X19397D01*
X19380Y59588D01*
X19366D01*
X19352Y59587D01*
X19340Y59586D01*
X19329Y59585D01*
X19318Y59584D01*
X19310Y59583D01*
X19303Y59581D01*
X19296Y59580D01*
X19290Y59579D01*
X19287Y59578D01*
X19283Y59577D01*
X19281D01*
X19279Y59576D01*
X19264Y59570D01*
X19253Y59564D01*
X19242Y59556D01*
X19233Y59548D01*
X19227Y59541D01*
X19222Y59536D01*
X19219Y59532D01*
X19218Y59530D01*
X19210Y59517D01*
X19205Y59504D01*
X19201Y59490D01*
X19198Y59477D01*
X19197Y59467D01*
X19196Y59459D01*
Y59453D01*
Y59452D01*
Y59451D01*
X19197Y59434D01*
X19199Y59419D01*
X19203Y59406D01*
X19207Y59394D01*
X19211Y59386D01*
X19215Y59379D01*
X19218Y59375D01*
X19219Y59373D01*
X19228Y59362D01*
X19239Y59353D01*
X19251Y59345D01*
X19261Y59339D01*
X19271Y59334D01*
X19279Y59331D01*
X19285Y59329D01*
X19286Y59328D01*
X19287D01*
X19293Y59326D01*
X19301Y59326D01*
X19318Y59323D01*
X19338Y59321D01*
X19356Y59320D01*
X19373D01*
X19380Y59319D01*
X19592D01*
Y59589D01*
D02*
G37*
G36*
Y59213D02*
X19386D01*
X19356Y59212D01*
X19330Y59211D01*
X19318Y59209D01*
X19308Y59208D01*
X19298Y59207D01*
X19288Y59206D01*
X19281Y59205D01*
X19274Y59203D01*
X19269Y59202D01*
X19264Y59201D01*
X19260Y59200D01*
X19257Y59199D01*
X19257Y59198D01*
X19256D01*
X19239Y59191D01*
X19226Y59183D01*
X19213Y59176D01*
X19202Y59167D01*
X19195Y59159D01*
X19189Y59152D01*
X19185Y59148D01*
X19184Y59146D01*
X19175Y59132D01*
X19168Y59117D01*
X19165Y59103D01*
X19161Y59089D01*
X19159Y59077D01*
X19158Y59068D01*
Y59064D01*
Y59061D01*
Y59060D01*
Y59059D01*
X19159Y59044D01*
X19161Y59029D01*
X19164Y59017D01*
X19167Y59006D01*
X19170Y58996D01*
X19173Y58990D01*
X19175Y58986D01*
X19176Y58984D01*
X19183Y58972D01*
X19191Y58963D01*
X19198Y58954D01*
X19205Y58947D01*
X19212Y58941D01*
X19217Y58937D01*
X19221Y58936D01*
X19222Y58935D01*
X19232Y58929D01*
X19244Y58924D01*
X19255Y58919D01*
X19265Y58916D01*
X19275Y58913D01*
X19283Y58911D01*
X19288Y58910D01*
X19289D01*
X19299Y58909D01*
X19312Y58908D01*
X19325Y58907D01*
X19338D01*
X19350Y58906D01*
X19592D01*
Y59213D01*
D02*
G37*
G36*
X19321Y61550D02*
Y61148D01*
X19603D01*
X19321Y61550D01*
D02*
G37*
%LPD*%
D11*
X38858Y23245D02*
Y23830D01*
Y23245D02*
X39116Y22987D01*
X39497D01*
X39624Y22860D01*
Y22479D02*
Y22860D01*
Y22479D02*
X40005Y22098D01*
X40640D01*
D13*
X54864Y20447D02*
X56261Y19050D01*
X54864Y20447D02*
Y30480D01*
X57277Y32893D01*
Y43434D01*
D14*
X44297Y16282D02*
X44298D01*
X39586Y20993D02*
X44297Y16282D01*
X38354Y20993D02*
X39586D01*
X53848Y79248D02*
X54864Y78232D01*
Y34011D02*
Y78232D01*
X49276Y28423D02*
X54864Y34011D01*
X49276Y23241D02*
Y28423D01*
X47498Y21463D02*
X49276Y23241D01*
X46736Y21463D02*
X47498D01*
X34544Y39167D02*
X34569D01*
X34417Y39294D02*
X34544Y39167D01*
X34417Y39294D02*
Y39522D01*
X34544Y39649D01*
X36279D01*
X36398Y39769D01*
Y39937D01*
X36279Y40056D02*
X36398Y39937D01*
X34519Y40056D02*
X36279D01*
X34392Y40183D02*
X34519Y40056D01*
X34392Y40183D02*
Y40361D01*
X34519Y40488D01*
X35585D01*
X35712Y40615D01*
Y40843D01*
X35585Y40970D02*
X35712Y40843D01*
X35255Y40970D02*
X35585D01*
X35128Y41097D02*
X35255Y40970D01*
X35128Y41097D02*
Y41300D01*
X35255Y41427D01*
X35941D01*
X36068Y41554D01*
Y41758D01*
X35941Y41885D02*
X36068Y41758D01*
X35103Y41885D02*
X35941D01*
X34976Y42012D02*
X35103Y41885D01*
X34976Y42012D02*
Y45542D01*
X34887Y45631D02*
X34976Y45542D01*
X34099Y45631D02*
X34887D01*
X32512Y47219D02*
X34099Y45631D01*
X29794Y47219D02*
X32512D01*
X29566Y47447D02*
X29794Y47219D01*
X29566Y47447D02*
Y50089D01*
X29439Y50216D02*
X29566Y50089D01*
X29261Y50216D02*
X29439D01*
X29134Y50089D02*
X29261Y50216D01*
X29134Y47803D02*
Y50089D01*
X29007Y47676D02*
X29134Y47803D01*
X28143Y47676D02*
X29007D01*
X28016Y47803D02*
X28143Y47676D01*
X28016Y47803D02*
Y49962D01*
X27889Y50089D02*
X28016Y49962D01*
X27813Y50089D02*
X27889D01*
X27686Y50216D02*
X27813Y50089D01*
X27686Y50216D02*
Y50368D01*
X27813Y50495D01*
X28245D01*
X28372Y50368D01*
Y48132D02*
Y50368D01*
Y48132D02*
X28498Y48006D01*
X28677D01*
X28804Y48132D01*
Y50368D01*
X28931Y50495D01*
X31115D01*
X31242Y50622D01*
Y52146D01*
X30785Y52603D02*
X31242Y52146D01*
X30785Y52603D02*
Y53497D01*
X31709Y54422D01*
Y54798D01*
X32561Y55650D01*
Y57578D01*
X39446Y57643D02*
X39766D01*
X39319Y57516D02*
X39446Y57643D01*
X39319Y57328D02*
Y57516D01*
Y57328D02*
X39446Y57201D01*
X40691D01*
X40818Y57074D01*
Y56845D02*
Y57074D01*
X40716Y56744D02*
X40818Y56845D01*
X40353Y56744D02*
X40716D01*
X40234Y56624D02*
X40353Y56744D01*
X40234Y56456D02*
Y56624D01*
Y56456D02*
X40353Y56337D01*
X40673D01*
X40792Y56218D01*
Y56050D02*
Y56218D01*
X40673Y55931D02*
X40792Y56050D01*
X39362Y55931D02*
X40673D01*
X39243Y55812D02*
X39362Y55931D01*
X39243Y55644D02*
Y55812D01*
Y55644D02*
X39362Y55524D01*
X40716D01*
X40818Y55423D01*
Y54051D02*
Y55423D01*
Y54051D02*
X40996Y53873D01*
Y53365D02*
Y53873D01*
Y53365D02*
X41123Y53238D01*
X42139D01*
X42266Y53111D01*
Y52095D02*
Y53111D01*
Y52095D02*
X42393Y51968D01*
X47422D01*
X47549Y51841D01*
Y46076D02*
Y51841D01*
X47422Y45949D02*
X47549Y46076D01*
X44399Y45949D02*
X47422D01*
X44272Y45822D02*
X44399Y45949D01*
X44272Y45593D02*
Y45822D01*
Y45593D02*
X44399Y45466D01*
X46406D01*
X46533Y45340D01*
Y45161D02*
Y45340D01*
X46406Y45034D02*
X46533Y45161D01*
X44221Y45034D02*
X46406D01*
X44094Y44907D02*
X44221Y45034D01*
X44094Y44729D02*
Y44907D01*
Y44729D02*
X44221Y44602D01*
X46380D01*
X46507Y44475D01*
Y44247D02*
Y44475D01*
X46380Y44120D02*
X46507Y44247D01*
X44221Y44120D02*
X46380D01*
X44094Y43993D02*
X44221Y44120D01*
X44094Y43764D02*
Y43993D01*
Y43764D02*
X44196Y43663D01*
X46388D01*
X46507Y43543D01*
Y43375D02*
Y43543D01*
X46388Y43256D02*
X46507Y43375D01*
X44196Y43256D02*
X46388D01*
X44094Y43155D02*
X44196Y43256D01*
X44094Y42748D02*
Y43155D01*
X43967Y42621D02*
X44094Y42748D01*
X43358Y42621D02*
X43967D01*
X43231Y42494D02*
X43358Y42621D01*
X43231Y40030D02*
Y42494D01*
X43129Y39929D02*
X43231Y40030D01*
X42824Y39929D02*
X43129D01*
X42393Y39497D02*
X42824Y39929D01*
X42393Y38964D02*
Y39497D01*
X31272Y27428D02*
Y27686D01*
X31399Y27813D01*
X33122D01*
X33249Y27940D01*
Y30074D01*
X33122Y30201D02*
X33249Y30074D01*
X32643Y30201D02*
X33122D01*
X32516Y30328D02*
X32643Y30201D01*
X32516Y30328D02*
Y32355D01*
X32199Y32673D02*
X32516Y32355D01*
X31801Y32673D02*
X32199D01*
X31674Y32800D02*
X31801Y32673D01*
X31674Y32800D02*
Y33553D01*
X31547Y33680D02*
X31674Y33553D01*
X31293Y33680D02*
X31547D01*
X31166Y33553D02*
X31293Y33680D01*
X31166Y32800D02*
Y33553D01*
X31039Y32673D02*
X31166Y32800D01*
X30463Y32673D02*
X31039D01*
X30175Y32385D02*
X30463Y32673D01*
X29997Y32385D02*
X30175D01*
X29820Y32563D02*
X29997Y32385D01*
X29820Y32563D02*
Y32707D01*
X30400Y33287D01*
Y33456D01*
X30281Y33574D02*
X30400Y33456D01*
X30112Y33574D02*
X30281D01*
X29532Y32994D02*
X30112Y33574D01*
X29388Y32994D02*
X29532D01*
X29245Y33138D02*
X29388Y32994D01*
X29245Y33138D02*
Y33282D01*
X29838Y33875D01*
Y34043D01*
X29719Y34162D02*
X29838Y34043D01*
X29550Y34162D02*
X29719D01*
X28988Y33600D02*
X29550Y34162D01*
X28808Y33600D02*
X28988D01*
X28652Y33756D02*
X28808Y33600D01*
X28652Y33756D02*
Y33935D01*
X29210Y34493D01*
Y34646D01*
X27610Y36246D02*
X29210Y34646D01*
X27610Y36246D02*
Y38430D01*
X27483Y38557D02*
X27610Y38430D01*
X27483Y38557D02*
Y39040D01*
X23109Y102108D02*
X23153Y102152D01*
X23070Y102108D02*
X23109D01*
X20066Y99104D02*
X23070Y102108D01*
X20066Y92583D02*
Y99104D01*
Y92583D02*
X26035Y86614D01*
Y84201D02*
Y86614D01*
Y84201D02*
X29146Y81090D01*
X32068D01*
X32766Y80391D01*
Y76835D02*
Y80391D01*
Y76835D02*
X33274Y76327D01*
X23749Y44450D02*
X23825Y44374D01*
Y42182D02*
Y44374D01*
Y42182D02*
X23944Y42062D01*
X24112D01*
X24232Y42182D01*
Y43188D01*
X24351Y43307D01*
X24519D01*
X24638Y43188D01*
Y42207D02*
Y43188D01*
Y42207D02*
X24757Y42088D01*
X24925D01*
X25044Y42207D01*
Y43188D01*
X25164Y43307D01*
X25332D01*
X25451Y43188D01*
Y42182D02*
Y43188D01*
Y42182D02*
X25570Y42062D01*
X25738D01*
X25857Y42182D01*
Y42604D01*
X25976Y42723D01*
X26144D01*
X26264Y42604D01*
Y42182D02*
Y42604D01*
Y42182D02*
X26383Y42062D01*
X26551D01*
X26670Y42182D01*
Y42807D01*
X26789Y42926D01*
X26957D01*
X27076Y42807D01*
Y42182D02*
Y42807D01*
Y42182D02*
X27196Y42062D01*
X27364D01*
X27483Y42182D01*
Y42799D01*
X27610Y42926D01*
X28092D01*
X28219Y42799D01*
Y36601D02*
Y42799D01*
Y36601D02*
X30480Y34341D01*
X34112D01*
X34849Y33604D01*
Y32605D02*
Y33604D01*
X34472Y32228D02*
X34849Y32605D01*
X41732Y54737D02*
Y54813D01*
X41859Y54940D01*
X43028D01*
X43155Y54813D01*
Y54178D02*
Y54813D01*
Y54178D02*
X43282Y54051D01*
X43490D01*
X43609Y54170D01*
Y54813D01*
X43736Y54940D01*
X43993D01*
X44120Y54813D01*
Y53721D02*
Y54813D01*
Y53721D02*
X44247Y53594D01*
X44450D01*
X44577Y53721D01*
Y54839D01*
X44704Y54966D01*
X44933D01*
X45060Y54839D01*
Y53696D02*
Y54839D01*
Y53696D02*
X45187Y53569D01*
X49352D01*
X49479Y53442D01*
Y39929D02*
Y53442D01*
X49352Y39802D02*
X49479Y39929D01*
X46838Y39802D02*
X49352D01*
X46711Y39929D02*
X46838Y39802D01*
X46711Y39929D02*
Y41326D01*
X46584Y41453D02*
X46711Y41326D01*
X46101Y41453D02*
X46584D01*
X45974Y41326D02*
X46101Y41453D01*
X45974Y40513D02*
Y41326D01*
X12548Y16408D02*
X13970Y14986D01*
X12548Y16408D02*
Y24740D01*
X5994Y31293D02*
X12548Y24740D01*
X5994Y31293D02*
Y52807D01*
X3886Y54915D02*
X5994Y52807D01*
X3886Y54915D02*
Y78791D01*
X9017Y83922D01*
Y86589D01*
X7798Y87808D02*
X9017Y86589D01*
X7798Y87808D02*
Y92075D01*
X15265Y50139D02*
X19939D01*
X15138Y50012D02*
X15265Y50139D01*
X15138Y45027D02*
Y50012D01*
X15011Y44900D02*
X15138Y45027D01*
X14470Y44900D02*
X15011D01*
X14351Y44781D02*
X14470Y44900D01*
X14351Y44613D02*
Y44781D01*
Y44613D02*
X14470Y44494D01*
X16104D01*
X16205Y44392D01*
Y44189D02*
Y44392D01*
X16104Y44088D02*
X16205Y44189D01*
X14470Y44088D02*
X16104D01*
X14351Y43968D02*
X14470Y44088D01*
X14351Y43800D02*
Y43968D01*
Y43800D02*
X14470Y43681D01*
X16104D01*
X16205Y43580D01*
Y43376D02*
Y43580D01*
X16104Y43275D02*
X16205Y43376D01*
X15088Y43275D02*
X16104D01*
X14986Y43173D02*
X15088Y43275D01*
X14986Y42970D02*
Y43173D01*
Y42970D02*
X15088Y42868D01*
X16104D01*
X16332Y42640D01*
Y36500D02*
Y42640D01*
Y36500D02*
X17272Y35560D01*
Y34468D02*
Y35560D01*
Y34468D02*
X20599Y31140D01*
Y29870D02*
Y31140D01*
Y29870D02*
X21285Y29185D01*
X23812D01*
X24232Y29604D01*
X40640Y57658D02*
X41021D01*
X41123Y57556D01*
Y54204D02*
Y57556D01*
Y54204D02*
X41250Y54077D01*
X42418D01*
X42545Y53950D01*
Y52400D02*
Y53950D01*
Y52400D02*
X42672Y52273D01*
X47828D01*
X47955Y52146D01*
Y44958D02*
Y52146D01*
X47828Y44831D02*
X47955Y44958D01*
X46939Y44831D02*
X47828D01*
X46812Y44704D02*
X46939Y44831D01*
X46812Y43028D02*
Y44704D01*
X46685Y42901D02*
X46812Y43028D01*
X44526Y42901D02*
X46685D01*
X44399Y42774D02*
X44526Y42901D01*
X44399Y42342D02*
Y42774D01*
X44272Y42215D02*
X44399Y42342D01*
X43688Y42215D02*
X44272D01*
X43561Y42088D02*
X43688Y42215D01*
X43561Y39700D02*
Y42088D01*
X43434Y39573D02*
X43561Y39700D01*
X43028Y39573D02*
X43434D01*
X42901Y39446D02*
X43028Y39573D01*
X42901Y38837D02*
Y39446D01*
Y38837D02*
X43028Y38710D01*
X45796D01*
X45923Y38583D01*
Y35535D02*
Y38583D01*
Y35535D02*
X46025Y35433D01*
X46845D01*
X46965Y35314D01*
Y35146D02*
Y35314D01*
X46845Y35027D02*
X46965Y35146D01*
X46025Y35027D02*
X46845D01*
X45923Y34925D02*
X46025Y35027D01*
X45923Y34722D02*
Y34925D01*
Y34722D02*
X46025Y34620D01*
X46820D01*
X46939Y34501D01*
Y34333D02*
Y34501D01*
X46820Y34214D02*
X46939Y34333D01*
X46025Y34214D02*
X46820D01*
X45923Y34112D02*
X46025Y34214D01*
X45923Y33884D02*
Y34112D01*
Y33884D02*
X46050Y33757D01*
X46965D01*
X47092Y33630D01*
Y27432D02*
Y33630D01*
X46965Y27305D02*
X47092Y27432D01*
X43544Y27305D02*
X46965D01*
X41080Y24841D02*
X43544Y27305D01*
X41080Y24528D02*
Y24841D01*
X40826Y24274D02*
X41080Y24528D01*
X39787Y52882D02*
X39980D01*
X40386Y52476D01*
X41275D01*
X41402Y52349D01*
Y51181D02*
Y52349D01*
Y51181D02*
X41529Y51054D01*
X45034D01*
X45161Y50927D01*
Y48082D02*
Y50927D01*
X43129Y46050D02*
X45161Y48082D01*
X43129Y43739D02*
Y46050D01*
X43002Y43612D02*
X43129Y43739D01*
X41758Y43612D02*
X43002D01*
X41631Y43485D02*
X41758Y43612D01*
X41631Y39141D02*
Y43485D01*
Y39141D02*
X41986Y38786D01*
Y37719D02*
Y38786D01*
Y37719D02*
X42088Y37617D01*
X42291D01*
X42393Y37719D01*
Y38387D01*
X42512Y38506D01*
X42680D01*
X42799Y38387D01*
Y37719D02*
Y38387D01*
Y37719D02*
X42901Y37617D01*
X43104D01*
X43205Y37719D01*
Y38278D01*
X43332Y38405D01*
X45491D01*
X45618Y38278D01*
Y38125D02*
Y38278D01*
X45491Y37998D02*
X45618Y38125D01*
X44780Y37998D02*
X45491D01*
X44653Y37872D02*
X44780Y37998D01*
X44653Y37693D02*
Y37872D01*
Y37693D02*
X44780Y37567D01*
X45491D01*
X45618Y37440D01*
Y32995D02*
Y37440D01*
Y32995D02*
X45745Y32868D01*
X46558D01*
X46685Y32741D01*
Y31242D02*
Y32741D01*
X46558Y31115D02*
X46685Y31242D01*
X45745Y31115D02*
X46558D01*
X45618Y30988D02*
X45745Y31115D01*
X45618Y29972D02*
Y30988D01*
Y29972D02*
X45745Y29845D01*
X46558D01*
X46685Y29718D01*
Y29515D02*
Y29718D01*
X46558Y29388D02*
X46685Y29515D01*
X45720Y29388D02*
X46558D01*
X45593Y29261D02*
X45720Y29388D01*
X45593Y29083D02*
Y29261D01*
Y29083D02*
X45720Y28956D01*
X46617D01*
X46736Y28837D01*
Y28669D02*
Y28837D01*
X46617Y28550D02*
X46736Y28669D01*
X45720Y28550D02*
X46617D01*
X45593Y28423D02*
X45720Y28550D01*
X45593Y28194D02*
Y28423D01*
Y28194D02*
X45720Y28067D01*
X46558D01*
X46685Y27940D01*
Y27737D02*
Y27940D01*
X46558Y27610D02*
X46685Y27737D01*
X43358Y27610D02*
X46558D01*
X42824Y27076D02*
X43358Y27610D01*
X42824Y26949D02*
Y27076D01*
X40513Y24638D02*
X42824Y26949D01*
X39878Y24638D02*
X40513D01*
X39624Y24384D02*
X39878Y24638D01*
X39624Y24006D02*
Y24384D01*
Y24006D02*
X40030Y23599D01*
Y23442D02*
Y23599D01*
X46863Y20828D02*
X47371D01*
X49657Y23114D01*
Y28296D01*
X55220Y33858D01*
Y78638D01*
X53848Y80010D02*
X55220Y78638D01*
X43853Y26061D02*
X44676Y25239D01*
Y19840D02*
Y25239D01*
Y19840D02*
X45720Y18796D01*
Y12751D02*
Y18796D01*
Y12751D02*
X46101Y12370D01*
Y10668D02*
Y12370D01*
X40259Y4826D02*
X46101Y10668D01*
X38100Y4826D02*
X40259D01*
X37338Y5588D02*
X38100Y4826D01*
X25146Y29654D02*
X25911Y28890D01*
Y27689D02*
Y28890D01*
X25654Y27432D02*
X25911Y27689D01*
X22428Y27432D02*
X25654D01*
X22301Y27559D02*
X22428Y27432D01*
X22301Y27559D02*
Y28321D01*
X22174Y28448D02*
X22301Y28321D01*
X20625Y28448D02*
X22174D01*
X19812Y29261D02*
X20625Y28448D01*
X19812Y29261D02*
Y31013D01*
X16713Y34112D02*
X19812Y31013D01*
X16713Y34112D02*
Y35331D01*
X15723Y36322D02*
X16713Y35331D01*
X15723Y36322D02*
Y41148D01*
X12551Y44319D02*
X15723Y41148D01*
X12551Y44319D02*
Y44463D01*
X13043Y44955D01*
Y45123D01*
X12924Y45242D02*
X13043Y45123D01*
X12755Y45242D02*
X12924D01*
X12264Y44751D02*
X12755Y45242D01*
X12120Y44751D02*
X12264D01*
X11976Y44895D02*
X12120Y44751D01*
X11976Y44895D02*
Y45038D01*
X12810Y45872D01*
Y46016D01*
X12666Y46160D02*
X12810Y46016D01*
X12523Y46160D02*
X12666D01*
X11689Y45326D02*
X12523Y46160D01*
X11545Y45326D02*
X11689D01*
X11401Y45470D02*
X11545Y45326D01*
X11401Y45470D02*
Y45613D01*
X12235Y46447D01*
Y46591D01*
X12091Y46735D02*
X12235Y46591D01*
X11948Y46735D02*
X12091D01*
X11127Y45914D02*
X11948Y46735D01*
X10956Y45914D02*
X11127D01*
X10836Y46035D02*
X10956Y45914D01*
X10836Y46035D02*
Y46205D01*
X11532Y46901D01*
Y47041D01*
X11328Y47244D02*
X11532Y47041D01*
X11201Y47244D02*
X11328D01*
X10795Y46838D02*
X11201Y47244D01*
X10439Y46838D02*
X10795D01*
X10288Y46989D02*
X10439Y46838D01*
X10288Y46989D02*
Y47600D01*
X39370Y40767D02*
Y40996D01*
Y40767D02*
X39497Y40640D01*
X39929D01*
X40056Y40767D01*
Y45923D01*
X40157Y46025D01*
X41326D01*
X41427Y46126D01*
Y46330D01*
X41326Y46431D02*
X41427Y46330D01*
X40157Y46431D02*
X41326D01*
X40056Y46533D02*
X40157Y46431D01*
X40056Y46533D02*
Y46761D01*
X40157Y46863D01*
X41689D01*
X41808Y46982D01*
Y47150D01*
X41689Y47269D02*
X41808Y47150D01*
X40157Y47269D02*
X41689D01*
X40056Y47371D02*
X40157Y47269D01*
X40056Y47371D02*
Y47600D01*
X40183Y47727D01*
X42520D01*
X42774Y47981D01*
Y49403D01*
X42647Y49530D02*
X42774Y49403D01*
X39827Y49530D02*
X42647D01*
X39675Y49682D02*
X39827Y49530D01*
X39675Y49682D02*
Y50317D01*
X38913Y51079D02*
X39675Y50317D01*
X38633Y51079D02*
X38913D01*
X38506Y51206D02*
X38633Y51079D01*
X38506Y51206D02*
Y51511D01*
X38379Y51638D02*
X38506Y51511D01*
X38227Y51638D02*
X38379D01*
X38100Y51511D02*
X38227Y51638D01*
X38100Y51206D02*
Y51511D01*
X37973Y51079D02*
X38100Y51206D01*
X36805Y51079D02*
X37973D01*
X36678Y51206D02*
X36805Y51079D01*
X36678Y51206D02*
Y51511D01*
X36805Y51638D01*
X37364D01*
X37490Y51765D01*
Y51944D01*
X37364Y52070D02*
X37490Y51944D01*
X36754Y52070D02*
X37364D01*
X36627Y52197D02*
X36754Y52070D01*
X36627Y52197D02*
Y52840D01*
X36746Y52959D01*
X36914D01*
X37033Y52840D01*
Y52553D02*
Y52840D01*
Y52553D02*
X37160Y52426D01*
X37694D01*
X37821Y52553D01*
Y53035D01*
X37592Y53264D02*
X37821Y53035D01*
X36525Y53264D02*
X37592D01*
X36347Y53086D02*
X36525Y53264D01*
X36119Y53086D02*
X36347D01*
X35992Y53213D02*
X36119Y53086D01*
X35992Y53213D02*
Y53467D01*
X35865Y53594D02*
X35992Y53467D01*
X35560Y53594D02*
X35865D01*
X35433Y53467D02*
X35560Y53594D01*
X35433Y52883D02*
Y53467D01*
X35306Y52756D02*
X35433Y52883D01*
X33477Y52756D02*
X35306D01*
X33401Y52832D02*
X33477Y52756D01*
X33672Y23474D02*
X34027Y23830D01*
X34625D01*
X34900Y24105D01*
Y24460D01*
X35103Y24663D01*
X35408D01*
X35687Y24943D01*
Y25425D01*
X36551Y26289D01*
X41565D01*
X42388Y27112D01*
Y27605D01*
X43180Y28397D01*
X44856D01*
X44983Y28524D01*
Y35967D01*
X44857Y36093D02*
X44983Y35967D01*
X44678Y36093D02*
X44857D01*
X44552Y35967D02*
X44678Y36093D01*
X44552Y34900D02*
Y35967D01*
X44425Y34773D02*
X44552Y34900D01*
X43739Y34773D02*
X44425D01*
X43612Y34900D02*
X43739Y34773D01*
X43612Y34900D02*
Y35306D01*
X43485Y35433D02*
X43612Y35306D01*
X43282Y35433D02*
X43485D01*
X43155Y35306D02*
X43282Y35433D01*
X43155Y34925D02*
Y35306D01*
X43028Y34798D02*
X43155Y34925D01*
X42824Y34798D02*
X43028D01*
X42697Y34925D02*
X42824Y34798D01*
X42697Y34925D02*
Y35357D01*
X42570Y35484D02*
X42697Y35357D01*
X42393Y35484D02*
X42570D01*
X42266Y35357D02*
X42393Y35484D01*
X42266Y34925D02*
Y35357D01*
X42139Y34798D02*
X42266Y34925D01*
X41961Y34798D02*
X42139D01*
X41834Y34925D02*
X41961Y34798D01*
X41834Y34925D02*
Y35535D01*
X41554Y35814D02*
X41834Y35535D01*
X40767Y35814D02*
X41554D01*
X40615Y35966D02*
X40767Y35814D01*
X40615Y35966D02*
Y39268D01*
X40742Y39395D01*
X41199D01*
X41326Y39522D01*
Y43790D01*
X41453Y43917D01*
X42596D01*
X42723Y44044D01*
Y46101D01*
X44856Y48235D01*
Y50622D01*
X44729Y50749D02*
X44856Y50622D01*
X41224Y50749D02*
X44729D01*
X41097Y50876D02*
X41224Y50749D01*
X41097Y50876D02*
Y51537D01*
X40970Y51664D02*
X41097Y51537D01*
X40361Y51664D02*
X40970D01*
X40183Y51841D02*
X40361Y51664D01*
X40183Y51841D02*
Y52248D01*
X39980Y52451D02*
X40183Y52248D01*
X39522Y52451D02*
X39980D01*
X39395Y52578D02*
X39522Y52451D01*
X39395Y52578D02*
Y53086D01*
X39268Y53213D02*
X39395Y53086D01*
X39099Y53213D02*
X39268D01*
X38972Y53086D02*
X39099Y53213D01*
X38972Y52849D02*
Y53086D01*
X30150Y6629D02*
X30937D01*
X29870Y6350D02*
X30150Y6629D01*
X26162Y6350D02*
X29870D01*
X25400Y7112D02*
X26162Y6350D01*
X25400Y7112D02*
Y8890D01*
X21514Y12776D02*
X25400Y8890D01*
X18542Y12776D02*
X21514D01*
X18237Y13081D02*
X18542Y12776D01*
X14580Y13081D02*
X18237D01*
X12040Y15621D02*
X14580Y13081D01*
X12040Y15621D02*
Y24409D01*
X5359Y31090D02*
X12040Y24409D01*
X5359Y31090D02*
Y52527D01*
X3302Y54585D02*
X5359Y52527D01*
X3302Y54585D02*
Y78969D01*
X8382Y84049D01*
Y86208D01*
X7010Y87579D02*
X8382Y86208D01*
X7010Y87579D02*
Y93523D01*
X9068Y95580D01*
Y115113D01*
X16129Y122174D01*
Y124587D01*
X31876Y58422D02*
X32206Y58092D01*
Y55624D02*
Y58092D01*
X31451Y54870D02*
X32206Y55624D01*
X31451Y54514D02*
Y54870D01*
X30582Y53645D02*
X31451Y54514D01*
X30582Y52502D02*
Y53645D01*
Y52502D02*
X30937Y52146D01*
Y50927D02*
Y52146D01*
X30810Y50800D02*
X30937Y50927D01*
X27508Y50800D02*
X30810D01*
X27381Y50673D02*
X27508Y50800D01*
X27381Y49987D02*
Y50673D01*
Y49987D02*
X27661Y49708D01*
Y47447D02*
Y49708D01*
Y47447D02*
X27788Y47320D01*
X28931D01*
X29058Y47193D01*
Y46990D02*
Y47193D01*
Y46990D02*
X29185Y46863D01*
X32436D01*
X34023Y45276D01*
X34519D01*
X34646Y45149D01*
Y40996D02*
Y45149D01*
Y40996D02*
X34722Y40919D01*
X16764Y17272D02*
X22606D01*
X15684Y18351D02*
X16764Y17272D01*
X15684Y18351D02*
Y30899D01*
X15316Y31267D02*
X15684Y30899D01*
X15316Y31267D02*
Y34696D01*
X14326Y35687D02*
X15316Y34696D01*
X14326Y35687D02*
Y39522D01*
X11951Y41897D02*
X14326Y39522D01*
X10325Y41897D02*
X11951D01*
X7468Y44755D02*
X10325Y41897D01*
X7468Y44755D02*
Y53188D01*
X6020Y54635D02*
X7468Y53188D01*
X6020Y54635D02*
Y58826D01*
X5029Y59817D02*
X6020Y58826D01*
X5029Y59817D02*
Y64922D01*
X5944Y65837D01*
Y77622D01*
X10185Y81864D01*
Y83845D01*
X9779Y84252D02*
X10185Y83845D01*
X9779Y84252D02*
Y85522D01*
X10236Y85979D01*
Y88773D01*
X8763Y90246D02*
X10236Y88773D01*
X8763Y90246D02*
Y92583D01*
X9398Y93218D01*
X11811D01*
X42113Y58496D02*
Y59360D01*
Y58496D02*
X42240Y58369D01*
X43536D01*
X43663Y58242D01*
Y57633D02*
Y58242D01*
Y57633D02*
X43790Y57506D01*
X44704D01*
X44831Y57379D01*
Y56515D02*
Y57379D01*
Y56515D02*
X44958Y56388D01*
X46355D01*
X46482Y56261D01*
Y55524D02*
Y56261D01*
X46228Y55270D02*
X46482Y55524D01*
X46228Y54534D02*
Y55270D01*
Y54534D02*
X46380Y54381D01*
X49962D01*
X50089Y54254D01*
Y39141D02*
Y54254D01*
X49962Y39014D02*
X50089Y39141D01*
X46507Y39014D02*
X49962D01*
X46380Y38887D02*
X46507Y39014D01*
X46380Y38275D02*
Y38887D01*
Y38275D02*
X46482Y38173D01*
X46812D01*
X46914Y38072D01*
Y37868D02*
Y38072D01*
X46812Y37767D02*
X46914Y37868D01*
X46482Y37767D02*
X46812D01*
X46380Y37665D02*
X46482Y37767D01*
X46380Y37462D02*
Y37665D01*
Y37462D02*
X46482Y37360D01*
X47379D01*
X47498Y37241D01*
Y37073D02*
Y37241D01*
X47379Y36954D02*
X47498Y37073D01*
X46482Y36954D02*
X47379D01*
X46380Y36852D02*
X46482Y36954D01*
X46380Y35890D02*
Y36852D01*
Y35890D02*
X46507Y35763D01*
X47295D01*
X47422Y35636D01*
Y27178D02*
Y35636D01*
X47202Y26958D02*
X47422Y27178D01*
X43748Y26958D02*
X47202D01*
X42740Y25950D02*
X43748Y26958D01*
X42477Y25950D02*
X42740D01*
X41707Y25180D02*
X42477Y25950D01*
X41707Y25171D02*
Y25180D01*
X41656Y25121D02*
X41707Y25171D01*
X41656Y24257D02*
Y25121D01*
X41275Y23876D02*
X41656Y24257D01*
X40424Y23876D02*
X41275D01*
X40026Y24274D02*
X40424Y23876D01*
X39370Y56693D02*
X39776D01*
X39903Y56566D01*
Y56363D02*
Y56566D01*
X39776Y56236D02*
X39903Y56363D01*
X39065Y56236D02*
X39776D01*
X38938Y56109D02*
X39065Y56236D01*
X38938Y55296D02*
Y56109D01*
Y55296D02*
X39065Y55169D01*
X40437D01*
X40564Y55042D01*
Y54889D02*
Y55042D01*
X40437Y54762D02*
X40564Y54889D01*
X39827Y54762D02*
X40437D01*
X39700Y54635D02*
X39827Y54762D01*
X39700Y54483D02*
Y54635D01*
Y54483D02*
X39827Y54356D01*
X40361D01*
X40488Y54229D01*
Y54102D02*
Y54229D01*
X40361Y53975D02*
X40488Y54102D01*
X39827Y53975D02*
X40361D01*
X39700Y53848D02*
X39827Y53975D01*
X39700Y53696D02*
Y53848D01*
Y53696D02*
X39827Y53569D01*
X40157D01*
X40792Y52934D01*
X41859D01*
X41986Y52807D01*
Y51791D02*
Y52807D01*
Y51791D02*
X42113Y51664D01*
X47015D01*
X47142Y51537D01*
Y49759D02*
Y51537D01*
X47041Y49657D02*
X47142Y49759D01*
X45915Y49657D02*
X47041D01*
X45796Y49538D02*
X45915Y49657D01*
X45796Y49370D02*
Y49538D01*
Y49370D02*
X45915Y49251D01*
X47041D01*
X47142Y49149D01*
Y48946D02*
Y49149D01*
X47041Y48844D02*
X47142Y48946D01*
X45915Y48844D02*
X47041D01*
X45796Y48725D02*
X45915Y48844D01*
X45796Y48557D02*
Y48725D01*
Y48557D02*
X45915Y48438D01*
X47041D01*
X47142Y48336D01*
Y48108D02*
Y48336D01*
X47041Y48006D02*
X47142Y48108D01*
X45941Y48006D02*
X47041D01*
X45822Y47887D02*
X45941Y48006D01*
X45822Y47719D02*
Y47887D01*
Y47719D02*
X45941Y47600D01*
X47041D01*
X47142Y47498D01*
Y47295D02*
Y47498D01*
X47041Y47193D02*
X47142Y47295D01*
X45179Y47193D02*
X47041D01*
X45060Y47074D02*
X45179Y47193D01*
X45060Y46906D02*
Y47074D01*
Y46906D02*
X45179Y46787D01*
X47015D01*
X47142Y46660D01*
Y46457D02*
Y46660D01*
X47015Y46330D02*
X47142Y46457D01*
X44298Y46330D02*
X47015D01*
X43764Y45796D02*
X44298Y46330D01*
X43764Y43053D02*
Y45796D01*
X43637Y42926D02*
X43764Y43053D01*
X42393Y42926D02*
X43637D01*
X42266Y42799D02*
X42393Y42926D01*
X42266Y42596D02*
Y42799D01*
Y42596D02*
X42393Y42469D01*
X42774D01*
X42901Y42342D01*
Y42163D02*
Y42342D01*
X42774Y42037D02*
X42901Y42163D01*
X42367Y42037D02*
X42774D01*
X42240Y41910D02*
X42367Y42037D01*
X42240Y41656D02*
Y41910D01*
Y41656D02*
X42367Y41529D01*
X42799D01*
X42926Y41402D01*
Y41148D02*
Y41402D01*
X42799Y41021D02*
X42926Y41148D01*
X42367Y41021D02*
X42799D01*
X44399Y26060D02*
X44404D01*
X45085Y25379D01*
Y20447D02*
Y25379D01*
Y20447D02*
X46228Y19304D01*
Y13335D02*
Y19304D01*
Y13335D02*
X46609Y12954D01*
Y10668D02*
Y12954D01*
X40519Y4578D02*
X46609Y10668D01*
X35808Y4578D02*
X40519D01*
X34823Y5563D02*
X35808Y4578D01*
X53848Y80899D02*
X55626Y79121D01*
Y33782D02*
Y79121D01*
X49911Y28067D02*
X55626Y33782D01*
X49911Y16637D02*
Y28067D01*
X48063Y14789D02*
X49911Y16637D01*
X42393Y29871D02*
Y31029D01*
X42520Y31156D01*
X43239D01*
X43358Y31275D01*
Y31443D01*
X43239Y31562D02*
X43358Y31443D01*
X42482Y31562D02*
X43239D01*
X42367Y31677D02*
X42482Y31562D01*
X42367Y31677D02*
Y31839D01*
X42482Y31953D01*
X43892D01*
X44018Y32080D01*
Y32259D01*
X43892Y32385D02*
X44018Y32259D01*
X42113Y32385D02*
X43892D01*
X41986Y32512D02*
X42113Y32385D01*
X41986Y32512D02*
Y33274D01*
X42113Y33401D01*
X43866D01*
X43993Y33527D01*
Y33706D01*
X43866Y33833D02*
X43993Y33706D01*
X41251Y33833D02*
X43866D01*
X39675Y35409D02*
X41251Y33833D01*
X39675Y35409D02*
Y35763D01*
X36703Y38735D02*
X39675Y35763D01*
X34239Y38735D02*
X36703D01*
X34087Y38887D02*
X34239Y38735D01*
X34087Y38887D02*
Y43053D01*
X33960Y43180D02*
X34087Y43053D01*
X33477Y43180D02*
X33960D01*
X33350Y43307D02*
X33477Y43180D01*
X33350Y43307D02*
Y43555D01*
X33452Y43657D01*
X34222D01*
X34341Y43776D01*
Y43944D01*
X34222Y44063D02*
X34341Y43944D01*
X33452Y44063D02*
X34222D01*
X33350Y44165D02*
X33452Y44063D01*
X33350Y44165D02*
Y44368D01*
X33452Y44470D01*
X34222D01*
X34341Y44589D01*
Y44757D01*
X34222Y44876D02*
X34341Y44757D01*
X33452Y44876D02*
X34222D01*
X33350Y44978D02*
X33452Y44876D01*
X33350Y44978D02*
Y45339D01*
X33172Y45517D02*
X33350Y45339D01*
X32969Y45517D02*
X33172D01*
X32842Y45644D02*
X32969Y45517D01*
X32842Y45644D02*
Y46025D01*
X32716Y46152D02*
X32842Y46025D01*
X32537Y46152D02*
X32716D01*
X32410Y46025D02*
X32537Y46152D01*
X32410Y45644D02*
Y46025D01*
X32283Y45517D02*
X32410Y45644D01*
X32106Y45517D02*
X32283D01*
X32004Y45618D02*
X32106Y45517D01*
X32004Y45618D02*
Y46439D01*
X31885Y46558D02*
X32004Y46439D01*
X31717Y46558D02*
X31885D01*
X31598Y46439D02*
X31717Y46558D01*
X31598Y45618D02*
Y46439D01*
X31496Y45517D02*
X31598Y45618D01*
X31267Y45517D02*
X31496D01*
X31140Y45644D02*
X31267Y45517D01*
X31140Y45644D02*
Y46431D01*
X31013Y46558D02*
X31140Y46431D01*
X28905Y46558D02*
X31013D01*
X28778Y46685D02*
X28905Y46558D01*
X28778Y46685D02*
Y46838D01*
X28651Y46965D02*
X28778Y46838D01*
X27457Y46965D02*
X28651D01*
X27330Y47092D02*
X27457Y46965D01*
X27330Y47092D02*
Y49581D01*
X27076Y49835D02*
X27330Y49581D01*
X27076Y49835D02*
Y50978D01*
X27203Y51105D01*
X28346D01*
X28473Y51232D01*
Y51740D01*
X28600Y51867D01*
X28753D01*
X28880Y51740D01*
Y51257D02*
Y51740D01*
Y51257D02*
X29007Y51130D01*
X29159D01*
X29286Y51257D01*
Y52172D01*
X29413Y52299D01*
X29592D01*
X29718Y52172D01*
Y51257D02*
Y52172D01*
Y51257D02*
X29845Y51130D01*
X30480D01*
X30607Y51257D01*
Y51816D01*
X30480Y51943D02*
X30607Y51816D01*
X30201Y51943D02*
X30480D01*
X27661Y27294D02*
X27976Y27610D01*
X27661Y22555D02*
Y27294D01*
Y22555D02*
X28118Y22098D01*
X28880D01*
X30531Y20447D01*
X34798D01*
X36957Y18288D01*
X41529D01*
X44425Y15392D01*
Y10782D02*
Y15392D01*
X43676Y10033D02*
X44425Y10782D01*
X35890Y10033D02*
X43676D01*
X35128Y10795D02*
X35890Y10033D01*
X44221Y19583D02*
X44831Y18974D01*
X44221Y19583D02*
Y24982D01*
X44628Y39624D02*
X44933D01*
X44501Y39751D02*
X44628Y39624D01*
X44501Y39751D02*
Y40970D01*
X44628Y41097D01*
X45415D01*
X45542Y41224D01*
Y41631D01*
X45669Y41758D01*
X46939D01*
X47066Y41631D01*
Y40310D02*
Y41631D01*
Y40310D02*
X47193Y40183D01*
X49047D01*
X49174Y40310D01*
Y53111D01*
X49047Y53238D02*
X49174Y53111D01*
X43485Y53238D02*
X49047D01*
X43155Y53569D02*
X43485Y53238D01*
X31716Y22318D02*
X32072Y22674D01*
X30895Y22318D02*
X31716D01*
X30734Y22479D02*
X30895Y22318D01*
X29972Y22479D02*
X30734D01*
X29007Y23444D02*
X29972Y22479D01*
X29007Y23444D02*
Y27638D01*
X27305Y29340D02*
X29007Y27638D01*
X27305Y29340D02*
Y30178D01*
X24971Y32512D02*
X27305Y30178D01*
X23876Y32512D02*
X24971D01*
X21717Y34671D02*
X23876Y32512D01*
X21717Y34671D02*
Y34975D01*
X19380Y37312D02*
X21717Y34975D01*
X19380Y37312D02*
Y43663D01*
X20663Y44945D01*
Y45910D01*
X23292Y48539D01*
Y51841D01*
X24663Y53213D01*
Y54229D01*
X30124Y59690D01*
X33909D01*
X34315Y59284D01*
X35509D01*
X36170Y58623D01*
Y58293D02*
Y58623D01*
Y58293D02*
X36424Y58039D01*
X36957D01*
X37389Y57607D01*
X33477Y17526D02*
X34493Y18542D01*
X28804Y17526D02*
X33477D01*
X26772Y15494D02*
X28804Y17526D01*
X19307Y15494D02*
X26772D01*
X18723Y16078D02*
X19307Y15494D01*
X16459Y16078D02*
X18723D01*
X14503Y18034D02*
X16459Y16078D01*
X14503Y18034D02*
Y34290D01*
X13564Y35230D02*
X14503Y34290D01*
X13564Y35230D02*
Y39065D01*
X12040Y40589D02*
X13564Y39065D01*
X9906Y40589D02*
X12040D01*
X6299Y44196D02*
X9906Y40589D01*
X6299Y44196D02*
Y53010D01*
X4191Y55118D02*
X6299Y53010D01*
X4191Y55118D02*
Y78359D01*
X7950Y82118D01*
X8407D01*
X18161Y30861D02*
X18796Y30226D01*
X18161Y30861D02*
Y31623D01*
X16129Y33655D02*
X18161Y31623D01*
X16129Y33655D02*
Y35052D01*
X15113Y36068D02*
X16129Y35052D01*
X15113Y36068D02*
Y40386D01*
X8763Y46736D02*
X15113Y40386D01*
X8763Y46736D02*
Y53365D01*
X7112Y55016D02*
X8763Y53365D01*
X7112Y55016D02*
Y59055D01*
X5867Y60300D02*
X7112Y59055D01*
X5867Y60300D02*
Y64186D01*
X7341Y65659D01*
Y71730D01*
X8738Y73127D01*
Y77902D01*
X11049Y80213D01*
Y83160D01*
X21031Y40894D02*
X21336Y41199D01*
X21031Y38354D02*
Y40894D01*
Y38354D02*
X21387Y37998D01*
Y36754D02*
Y37998D01*
Y36754D02*
X22733Y35408D01*
Y35077D02*
Y35408D01*
Y35077D02*
X23317Y34493D01*
X24284D01*
X28296Y30482D01*
Y29643D02*
Y30482D01*
Y29643D02*
X29947Y27992D01*
Y24680D02*
Y27992D01*
Y24680D02*
X29972Y24655D01*
Y24019D02*
Y24655D01*
Y24019D02*
X30242Y23749D01*
X32588Y38557D02*
Y38823D01*
Y38557D02*
X33782Y37363D01*
Y36068D02*
Y37363D01*
Y36068D02*
X33934Y35916D01*
X36474D01*
X37073Y35317D01*
Y35174D02*
Y35317D01*
X36721Y34822D02*
X37073Y35174D01*
X36721Y34679D02*
Y34822D01*
Y34679D02*
X36865Y34534D01*
X37008D01*
X37360Y34887D01*
X37503D01*
X37648Y34742D01*
Y34599D02*
Y34742D01*
X37296Y34247D02*
X37648Y34599D01*
X37296Y34104D02*
Y34247D01*
Y34104D02*
X37440Y33959D01*
X37583D01*
X37935Y34312D01*
X38078D01*
X38223Y34167D01*
Y34024D02*
Y34167D01*
X37871Y33672D02*
X38223Y34024D01*
X37871Y33529D02*
Y33672D01*
Y33529D02*
X38015Y33384D01*
X38158D01*
X38403Y33630D01*
X38536Y33762D01*
X38704D01*
X38823Y33643D01*
Y33475D02*
Y33643D01*
X38446Y33097D02*
X38823Y33475D01*
X38446Y32953D02*
Y33097D01*
Y32953D02*
X39052Y32347D01*
X39256D01*
X39730Y31873D01*
X40310D01*
X40437Y31746D01*
Y31191D02*
Y31746D01*
X40310Y31064D02*
X40437Y31191D01*
X39980Y31064D02*
X40310D01*
X39853Y30937D02*
X39980Y31064D01*
X39853Y30353D02*
Y30937D01*
Y30353D02*
X39980Y30226D01*
X40310D01*
X40437Y30099D01*
Y29528D02*
Y30099D01*
X40310Y29401D02*
X40437Y29528D01*
X39840Y29401D02*
X40310D01*
X39501Y29062D02*
X39840Y29401D01*
X39260Y29062D02*
X39501D01*
X26924Y7544D02*
X27432Y8052D01*
X32842D01*
X34442Y9652D01*
X43618D01*
X44856Y10890D01*
Y11659D01*
X29591Y30251D02*
Y30988D01*
X25527Y35052D02*
X29591Y30988D01*
X25527Y35052D02*
Y35814D01*
X24613Y36728D02*
X25527Y35814D01*
X24611Y36728D02*
X24613D01*
X24523Y36817D02*
X24611Y36728D01*
X23610Y36817D02*
X24523D01*
X23368Y37058D02*
X23610Y36817D01*
X23368Y37058D02*
Y39243D01*
X23495Y39370D01*
X23749D01*
X23876Y39497D01*
Y41275D01*
X23749Y41402D02*
X23876Y41275D01*
X23063Y41402D02*
X23749D01*
X22936Y41529D02*
X23063Y41402D01*
X22936Y41529D02*
Y42393D01*
X22809Y42520D02*
X22936Y42393D01*
X20599Y42520D02*
X22809D01*
X20472Y42393D02*
X20599Y42520D01*
X20472Y41961D02*
Y42393D01*
X28321Y107188D02*
X29642Y105867D01*
Y98882D02*
Y105867D01*
Y98882D02*
X33071Y95453D01*
Y88951D02*
Y95453D01*
X31496Y87376D02*
X33071Y88951D01*
X32639Y52578D02*
Y52832D01*
Y52578D02*
X32766Y52451D01*
X36246D01*
X36373Y52324D01*
Y50902D02*
Y52324D01*
Y50902D02*
X36500Y50775D01*
X38557D01*
X38684Y50648D01*
Y50165D02*
Y50648D01*
X38557Y50038D02*
X38684Y50165D01*
X38354Y50038D02*
X38557D01*
X38227Y50165D02*
X38354Y50038D01*
X38227Y50165D02*
Y50343D01*
X38100Y50470D02*
X38227Y50343D01*
X37897Y50470D02*
X38100D01*
X37770Y50343D02*
X37897Y50470D01*
X37770Y49200D02*
Y50343D01*
Y49200D02*
X37897Y49073D01*
X38811D01*
X38938Y49200D01*
Y50089D01*
X39065Y50216D01*
X39244D01*
X39370Y50089D01*
Y49352D02*
Y50089D01*
Y49352D02*
X39497Y49225D01*
X42351D01*
X42469Y49108D01*
Y48941D02*
Y49108D01*
X42351Y48824D02*
X42469Y48941D01*
X38899Y48824D02*
X42351D01*
X38786Y48711D02*
X38899Y48824D01*
X38786Y48551D02*
Y48711D01*
Y48551D02*
X38899Y48438D01*
X42350D01*
X42469Y48319D01*
Y48151D02*
Y48319D01*
X42350Y48031D02*
X42469Y48151D01*
X38288Y48031D02*
X42350D01*
X38176Y47920D02*
X38288Y48031D01*
X38176Y47762D02*
Y47920D01*
Y47762D02*
X38288Y47650D01*
X39636D01*
X39751Y47535D01*
Y47372D02*
Y47535D01*
X39636Y47257D02*
X39751Y47372D01*
X38317Y47257D02*
X39636D01*
X38202Y47141D02*
X38317Y47257D01*
X38202Y46978D02*
Y47141D01*
Y46978D02*
X38317Y46863D01*
X39624D01*
X39751Y46736D01*
Y42926D02*
Y46736D01*
X39624Y42799D02*
X39751Y42926D01*
X38212Y42799D02*
X39624D01*
X38100Y42687D02*
X38212Y42799D01*
X38100Y42530D02*
Y42687D01*
Y42530D02*
X38212Y42418D01*
X39599D01*
X39726Y42292D01*
Y41631D02*
Y42292D01*
X39599Y41504D02*
X39726Y41631D01*
X39294Y41504D02*
X39599D01*
X39167Y41631D02*
X39294Y41504D01*
X39167Y41631D02*
Y41910D01*
X39040Y42037D02*
X39167Y41910D01*
X38887Y42037D02*
X39040D01*
X38760Y41910D02*
X38887Y42037D01*
X38760Y41605D02*
Y41910D01*
X38633Y41478D02*
X38760Y41605D01*
X38354Y41478D02*
X38633D01*
X38227Y41605D02*
X38354Y41478D01*
X38227Y41605D02*
Y41986D01*
X23317Y45034D02*
X23622Y45339D01*
X23317Y41859D02*
Y45034D01*
Y41859D02*
X23444Y41732D01*
X27788D01*
X27915Y41605D01*
Y36424D02*
Y41605D01*
Y36424D02*
X30315Y34023D01*
X33515D01*
X34116Y33422D01*
Y32081D02*
Y33422D01*
Y32081D02*
X34325Y31873D01*
X34625D01*
X34916Y31581D01*
Y30984D02*
Y31581D01*
Y30984D02*
X35272Y30628D01*
X7239Y85750D02*
X7722Y86233D01*
X7239Y84861D02*
Y85750D01*
X2667Y80289D02*
X7239Y84861D01*
X2667Y53340D02*
Y80289D01*
Y53340D02*
X4851Y51156D01*
Y30836D02*
Y51156D01*
Y30836D02*
X11532Y24155D01*
Y15342D02*
Y24155D01*
Y15342D02*
X14783Y12090D01*
X17551D01*
X18466Y11176D01*
X22225D01*
X24892Y8509D01*
Y6477D02*
Y8509D01*
Y6477D02*
X26543Y4826D01*
X29591D01*
X30988Y3429D01*
X45085D01*
X47117Y5461D01*
X23139Y7595D02*
X23876Y6858D01*
X10312Y45898D02*
Y46329D01*
Y45898D02*
X15418Y40792D01*
Y36170D02*
Y40792D01*
Y36170D02*
X16383Y35204D01*
Y34006D02*
Y35204D01*
Y34006D02*
X19431Y30958D01*
Y29083D02*
Y30958D01*
Y29083D02*
X21412Y27102D01*
X25857D01*
X26772Y26187D01*
Y20853D02*
Y26187D01*
Y20853D02*
X27940Y19685D01*
X31115Y18288D01*
X32766D01*
X33884Y18771D01*
X42291Y19583D02*
Y20980D01*
X41478Y21793D02*
X42291Y20980D01*
X41478Y21793D02*
Y23216D01*
X42164Y23901D01*
Y24765D01*
X42520Y25121D01*
X41626Y29828D02*
Y31983D01*
X40937Y32673D02*
X41626Y31983D01*
X40679Y32673D02*
X40937D01*
X36801Y36551D02*
X40679Y32673D01*
X35027Y36551D02*
X36801D01*
X34925Y36652D02*
X35027Y36551D01*
X34925Y36652D02*
Y37160D01*
X33452Y38633D02*
X34925Y37160D01*
X33452Y38633D02*
Y41351D01*
X33325Y41478D02*
X33452Y41351D01*
X32842Y41478D02*
X33325D01*
X32715Y41605D02*
X32842Y41478D01*
X32715Y41605D02*
Y44780D01*
X32588Y44907D02*
X32715Y44780D01*
X30569Y44907D02*
X32588D01*
X30442Y45034D02*
X30569Y44907D01*
X30442Y45034D02*
Y45822D01*
X30315Y45949D02*
X30442Y45822D01*
X30163Y45949D02*
X30315D01*
X30035Y45822D02*
X30163Y45949D01*
X30035Y45026D02*
Y45822D01*
X29916Y44907D02*
X30035Y45026D01*
X29748Y44907D02*
X29916D01*
X29629Y45026D02*
X29748Y44907D01*
X29629Y45026D02*
Y45822D01*
X29502Y45949D02*
X29629Y45822D01*
X29324Y45949D02*
X29502D01*
X29223Y45847D02*
X29324Y45949D01*
X29223Y45593D02*
Y45847D01*
X29121Y45491D02*
X29223Y45593D01*
X28918Y45491D02*
X29121D01*
X28816Y45593D02*
X28918Y45491D01*
X28816Y45593D02*
Y45847D01*
X28715Y45949D02*
X28816Y45847D01*
X28511Y45949D02*
X28715D01*
X28410Y45847D02*
X28511Y45949D01*
X28410Y45593D02*
Y45847D01*
X28308Y45491D02*
X28410Y45593D01*
X27686Y45491D02*
X28308D01*
X27584Y45593D02*
X27686Y45491D01*
X27584Y45593D02*
Y46210D01*
X27465Y46330D02*
X27584Y46210D01*
X27297Y46330D02*
X27465D01*
X27178Y46210D02*
X27297Y46330D01*
X27178Y45593D02*
Y46210D01*
X27076Y45491D02*
X27178Y45593D01*
X26848Y45491D02*
X27076D01*
X26721Y45618D02*
X26848Y45491D01*
X26721Y45618D02*
Y49309D01*
X26602Y49428D02*
X26721Y49309D01*
X26434Y49428D02*
X26602D01*
X26314Y49309D02*
X26434Y49428D01*
X26314Y46075D02*
Y49309D01*
X26188Y45949D02*
X26314Y46075D01*
X26009Y45949D02*
X26188D01*
X25883Y46075D02*
X26009Y45949D01*
X25883Y46075D02*
Y49352D01*
X26441Y49911D01*
Y51613D01*
X26568Y51740D01*
X27584D01*
X28397Y52553D01*
Y53772D01*
X28600Y53975D01*
X28969D01*
X29096Y54102D01*
Y54470D01*
X29616Y54991D01*
X30048D01*
X30175Y54864D01*
Y54188D02*
Y54864D01*
Y54188D02*
X30287Y54077D01*
X30445D01*
X30556Y54188D01*
Y54813D01*
X30683Y54940D01*
X30937D01*
X31064Y55067D01*
Y55476D01*
X30940Y55601D02*
X31064Y55476D01*
X32588Y38823D02*
Y39014D01*
X32461Y39141D02*
X32588Y39014D01*
X31394Y39141D02*
X32461D01*
X31039Y39497D02*
X31394Y39141D01*
X31039Y39497D02*
Y40132D01*
X31166Y40259D01*
X31914D01*
X32041Y40386D01*
Y44171D01*
X31914Y44298D02*
X32041Y44171D01*
X28778Y44298D02*
X31914D01*
X28651Y44425D02*
X28778Y44298D01*
X28651Y44425D02*
Y44755D01*
X28524Y44882D02*
X28651Y44755D01*
X27686Y44882D02*
X28524D01*
X27559Y44755D02*
X27686Y44882D01*
X27559Y44442D02*
Y44755D01*
X27440Y44323D02*
X27559Y44442D01*
X26332Y44323D02*
X27440D01*
X26213Y44442D02*
X26332Y44323D01*
X26213Y44442D02*
Y45110D01*
X25984Y45339D02*
X26213Y45110D01*
X25400Y45339D02*
X25984D01*
X25273Y45466D02*
X25400Y45339D01*
X25273Y45466D02*
Y49632D01*
X25832Y50190D01*
Y52095D01*
X26086Y52349D01*
X26899D01*
X27026Y52476D01*
Y53188D01*
X26899Y53315D02*
X27026Y53188D01*
X26419Y53315D02*
X26899D01*
X26314Y53419D02*
X26419Y53315D01*
X26314Y53419D02*
Y53619D01*
X26441Y53746D01*
X26746D01*
X26873Y53873D01*
Y54204D01*
X27203Y54534D01*
X28270D01*
X29185Y55448D01*
Y56363D01*
X29312Y56490D01*
X29540D01*
X29667Y56363D01*
Y55702D02*
Y56363D01*
Y55702D02*
X29794Y55575D01*
X30124D01*
X30251Y55702D01*
Y57328D01*
X30556Y57633D01*
X30963D01*
X21387Y42012D02*
X21666D01*
X21793Y41885D01*
Y40970D02*
Y41885D01*
X21336Y40513D02*
X21793Y40970D01*
X21336Y38480D02*
Y40513D01*
Y38480D02*
X21717Y38099D01*
Y37135D02*
Y38099D01*
Y37135D02*
X23038Y35814D01*
X24232D01*
X24613Y35433D01*
Y34596D02*
Y35433D01*
Y34596D02*
X28600Y30608D01*
Y29769D02*
Y30608D01*
Y29769D02*
X30150Y28220D01*
Y24764D02*
Y28220D01*
Y24764D02*
X30569Y24346D01*
X31200D01*
X31272Y24274D01*
X42418Y14986D02*
Y15469D01*
X41021Y16866D02*
X42418Y15469D01*
X28905Y16866D02*
X41021D01*
X27072Y15032D02*
X28905Y16866D01*
X19122Y15032D02*
X27072D01*
X18533Y15621D02*
X19122Y15032D01*
X16027Y15621D02*
X18533D01*
X13945Y17704D02*
X16027Y15621D01*
X13945Y17704D02*
Y34061D01*
X12319Y35687D02*
X13945Y34061D01*
X12319Y35687D02*
Y38989D01*
X12294Y39014D02*
X12319Y38989D01*
X19851Y48869D02*
Y49530D01*
X19724Y49657D02*
X19851Y49530D01*
X15748Y49657D02*
X19724D01*
X15621Y49530D02*
X15748Y49657D01*
X15621Y49352D02*
Y49530D01*
Y49352D02*
X15748Y49225D01*
X16358D01*
X16485Y49098D01*
Y48853D02*
Y49098D01*
X16358Y48726D02*
X16485Y48853D01*
X15646Y48726D02*
X16358D01*
X15545Y48625D02*
X15646Y48726D01*
X15545Y48422D02*
Y48625D01*
Y48422D02*
X15646Y48320D01*
X16408D01*
X16510Y48218D01*
Y48015D02*
Y48218D01*
X16408Y47914D02*
X16510Y48015D01*
X15646Y47914D02*
X16408D01*
X15545Y47812D02*
X15646Y47914D01*
X15545Y47609D02*
Y47812D01*
Y47609D02*
X15646Y47507D01*
X16408D01*
X16510Y47406D01*
Y47202D02*
Y47406D01*
X16408Y47101D02*
X16510Y47202D01*
X15646Y47101D02*
X16408D01*
X15545Y46999D02*
X15646Y47101D01*
X15545Y46796D02*
Y46999D01*
Y46796D02*
X15646Y46694D01*
X16408D01*
X16510Y46593D01*
Y46390D02*
Y46593D01*
X16408Y46288D02*
X16510Y46390D01*
X15646Y46288D02*
X16408D01*
X15545Y46186D02*
X15646Y46288D01*
X15545Y45983D02*
Y46186D01*
Y45983D02*
X15646Y45882D01*
X16408D01*
X16510Y45780D01*
Y45577D02*
Y45780D01*
X16408Y45475D02*
X16510Y45577D01*
X15646Y45475D02*
X16408D01*
X15545Y45374D02*
X15646Y45475D01*
X15545Y45170D02*
Y45374D01*
Y45170D02*
X15646Y45069D01*
X16408D01*
X16637Y44840D01*
Y36830D02*
Y44840D01*
Y36830D02*
X17526Y35941D01*
Y34696D02*
Y35941D01*
Y34696D02*
X20980Y31242D01*
X21209D01*
X21641Y30810D01*
Y29642D02*
Y30810D01*
X25425Y36830D02*
Y38329D01*
Y36830D02*
X26137Y36119D01*
Y35357D02*
Y36119D01*
Y35357D02*
X29642Y31852D01*
X30556D01*
X30916Y31492D01*
Y30755D02*
Y31492D01*
Y30755D02*
X31242Y30429D01*
Y29155D02*
Y30429D01*
Y29155D02*
X31369Y29028D01*
X32072D01*
X40310Y16358D02*
X40615Y16053D01*
X29108Y16358D02*
X40310D01*
X27305Y14554D02*
X29108Y16358D01*
X18953Y14554D02*
X27305D01*
X18344Y15164D02*
X18953Y14554D01*
X15672Y15164D02*
X18344D01*
X13386Y17450D02*
X15672Y15164D01*
X13386Y17450D02*
Y32029D01*
X12954Y32461D02*
X13386Y32029D01*
X12954Y32461D02*
Y33655D01*
X13335Y34036D01*
X13970Y14986D02*
X14884Y14072D01*
X18034D01*
X18644Y13462D01*
X31242D01*
X32131Y14351D01*
X33782D01*
X34290Y14859D01*
X37211Y38659D02*
Y41046D01*
Y38659D02*
X37338Y38532D01*
X37541D01*
X37668Y38659D01*
Y40514D01*
X37795Y40640D01*
X37974D01*
X38100Y40514D01*
Y38321D02*
Y40514D01*
Y38321D02*
X38219Y38202D01*
X38387D01*
X38506Y38321D01*
Y40335D01*
X38633Y40462D01*
X39116D01*
X39243Y40335D01*
Y36626D02*
Y40335D01*
Y36626D02*
X39369Y36500D01*
X39548D01*
X39675Y36626D01*
Y40208D01*
X39802Y40335D01*
X40284D01*
X40411Y40462D01*
Y45542D01*
X40538Y45669D01*
X41605D01*
X41732Y45796D01*
Y46457D01*
X43078Y47803D01*
Y49708D01*
X42951Y49835D02*
X43078Y49708D01*
X40132Y49835D02*
X42951D01*
X40005Y49962D02*
X40132Y49835D01*
X40005Y49962D02*
Y50470D01*
X38557Y51918D02*
X40005Y50470D01*
X38557Y51918D02*
Y52146D01*
X38075Y52629D02*
X38557Y52146D01*
X38075Y52629D02*
Y53137D01*
X37744Y53467D02*
X38075Y53137D01*
X37744Y53467D02*
Y53696D01*
X37617Y53823D02*
X37744Y53696D01*
X37059Y53823D02*
X37617D01*
X36932Y53950D02*
X37059Y53823D01*
X36932Y53950D02*
Y54127D01*
X37059Y54254D01*
X37549D01*
X37668Y54374D01*
Y54542D01*
X37549Y54661D02*
X37668Y54542D01*
X36601Y54661D02*
X37549D01*
X36500Y54559D02*
X36601Y54661D01*
X36500Y54102D02*
Y54559D01*
X36246Y53848D02*
X36500Y54102D01*
X35331Y53848D02*
X36246D01*
X35204Y53721D02*
X35331Y53848D01*
X35204Y53238D02*
Y53721D01*
X35077Y53111D02*
X35204Y53238D01*
X33934Y53111D02*
X35077D01*
X33807Y53238D02*
X33934Y53111D01*
X33807Y53238D02*
Y53492D01*
X33692Y53607D02*
X33807Y53492D01*
X33414Y53607D02*
X33692D01*
X47625Y62865D02*
X51054D01*
X52197Y64008D01*
Y89662D01*
X56642Y94107D01*
X34061Y60071D02*
X34392Y59741D01*
X29997Y60071D02*
X34061D01*
X24333Y54407D02*
X29997Y60071D01*
X24333Y53391D02*
Y54407D01*
X22936Y51994D02*
X24333Y53391D01*
X22936Y48641D02*
Y51994D01*
X20333Y46037D02*
X22936Y48641D01*
X20333Y45148D02*
Y46037D01*
X19075Y43891D02*
X20333Y45148D01*
X19075Y37186D02*
Y43891D01*
Y37186D02*
X21336Y34925D01*
Y34595D02*
Y34925D01*
Y34595D02*
X24905Y31026D01*
X25921D01*
X26924Y30023D01*
Y29289D02*
Y30023D01*
Y29289D02*
X28702Y27511D01*
Y23139D02*
Y27511D01*
Y23139D02*
X30378Y21463D01*
X33274D01*
X33816Y20921D01*
X33833D01*
X53340Y57531D02*
X53975D01*
X50673Y60198D02*
X53340Y57531D01*
X48133Y60198D02*
X50673D01*
X42494Y65837D02*
X48133Y60198D01*
X22022Y65837D02*
X42494D01*
X19939Y63754D02*
X22022Y65837D01*
X10287Y63754D02*
X19939D01*
X8890Y62357D02*
X10287Y63754D01*
X8890Y61214D02*
Y62357D01*
X8636Y60960D02*
X8890Y61214D01*
X8026Y60960D02*
X8636D01*
X7899Y60833D02*
X8026Y60960D01*
X44856Y11659D02*
Y16357D01*
X39929Y21285D02*
X44856Y16357D01*
X39929Y21285D02*
Y21742D01*
X39238Y22434D02*
X39929Y21742D01*
X39238Y22434D02*
Y22617D01*
X31991Y23393D02*
X32072Y23474D01*
X30095Y23393D02*
X31991D01*
X29718Y23770D02*
X30095Y23393D01*
X29718Y23770D02*
Y27789D01*
X27991Y29516D02*
X29718Y27789D01*
X27991Y29516D02*
Y30355D01*
X24284Y34061D02*
X27991Y30355D01*
X23266Y34061D02*
X24284D01*
X22352Y34976D02*
X23266Y34061D01*
X22352Y34976D02*
Y35203D01*
X20041Y37514D02*
X22352Y35203D01*
X20041Y37514D02*
Y43231D01*
X24219Y47409D01*
Y49949D01*
X24790Y50521D01*
Y52426D01*
X25273Y52908D01*
Y53899D01*
X30480Y59106D01*
X33274D01*
X33833Y58547D01*
Y58268D02*
Y58547D01*
Y58268D02*
X34112Y57988D01*
X34366D01*
X34849Y57506D01*
Y56337D02*
Y57506D01*
Y56337D02*
X35662Y55524D01*
X36855D01*
X41402Y38532D02*
Y38862D01*
X41275Y38989D02*
X41402Y38862D01*
X41046Y38989D02*
X41275D01*
X40919Y38862D02*
X41046Y38989D01*
X40919Y37465D02*
Y38862D01*
Y37465D02*
X41122Y37262D01*
Y36238D02*
Y37262D01*
Y36238D02*
X41241Y36119D01*
X41409D01*
X41528Y36238D01*
Y37186D01*
X41630Y37287D01*
X41833D01*
X41935Y37186D01*
Y35882D02*
Y37186D01*
Y35882D02*
X42054Y35763D01*
X42222D01*
X42341Y35882D01*
Y37186D01*
X42443Y37287D01*
X42646D01*
X42748Y37186D01*
Y35959D02*
Y37186D01*
Y35959D02*
X42867Y35839D01*
X43035D01*
X43154Y35959D01*
Y37186D01*
X43256Y37287D01*
X43459D01*
X43560Y37186D01*
Y35832D02*
Y37186D01*
Y35832D02*
X43680Y35712D01*
X43848D01*
X43967Y35832D01*
Y37186D01*
X44068Y37287D01*
X44272D01*
X44373Y37186D01*
Y36594D02*
Y37186D01*
Y36594D02*
X44492Y36474D01*
X44661D01*
X44780Y36594D01*
Y37059D01*
X44907Y37186D01*
X45161D01*
X45288Y37059D01*
Y32004D02*
Y37059D01*
Y32004D02*
X45415Y31877D01*
X45753D01*
X45872Y31758D01*
Y31590D02*
Y31758D01*
X45753Y31471D02*
X45872Y31590D01*
X45415Y31471D02*
X45753D01*
X45288Y31344D02*
X45415Y31471D01*
X45288Y28194D02*
Y31344D01*
X45161Y28067D02*
X45288Y28194D01*
X43307Y28067D02*
X45161D01*
X42621Y27381D02*
X43307Y28067D01*
X42621Y27058D02*
Y27381D01*
X40993Y25429D02*
X42621Y27058D01*
X36936Y25429D02*
X40993D01*
X36220Y24714D02*
X36936Y25429D01*
X35839Y24714D02*
X36220D01*
X35662Y24536D02*
X35839Y24714D01*
X35662Y24079D02*
Y24536D01*
X35433Y23851D02*
X35662Y24079D01*
X35027Y23851D02*
X35433D01*
X34650Y23474D02*
X35027Y23851D01*
X34472Y23474D02*
X34650D01*
X52832Y54991D02*
X54102D01*
X42291Y65532D02*
X52832Y54991D01*
X22225Y65532D02*
X42291D01*
X20066Y63373D02*
X22225Y65532D01*
X10414Y63373D02*
X20066D01*
X9271Y62230D02*
X10414Y63373D01*
X9271Y60960D02*
Y62230D01*
X8560Y60249D02*
X9271Y60960D01*
X7620Y60249D02*
X8560D01*
X6960Y60909D02*
X7620Y60249D01*
X41783Y14351D02*
Y15621D01*
X40818Y16586D02*
X41783Y15621D01*
X29014Y16586D02*
X40818D01*
X27210Y14783D02*
X29014Y16586D01*
X19048Y14783D02*
X27210D01*
X18438Y15392D02*
X19048Y14783D01*
X15824Y15392D02*
X18438D01*
X13665Y17551D02*
X15824Y15392D01*
X13665Y17551D02*
Y32436D01*
X13462Y32639D02*
X13665Y32436D01*
X33655Y28270D02*
X33858D01*
X34172Y28584D01*
X36331D01*
X36525Y28778D01*
Y32817D01*
X34696Y34646D02*
X36525Y32817D01*
X31039Y34646D02*
X34696D01*
X30912Y34773D02*
X31039Y34646D01*
X30912Y34773D02*
Y36373D01*
X30785Y36500D02*
X30912Y36373D01*
X30582Y36500D02*
X30785D01*
X30455Y36373D02*
X30582Y36500D01*
X30455Y35247D02*
Y36373D01*
X30335Y35128D02*
X30455Y35247D01*
X30167Y35128D02*
X30335D01*
X30048Y35247D02*
X30167Y35128D01*
X30048Y35247D02*
Y36474D01*
X29921Y36601D02*
X30048Y36474D01*
X28651Y36601D02*
X29921D01*
X28524Y36728D02*
X28651Y36601D01*
X28524Y36728D02*
Y39649D01*
X28626Y39751D01*
X30158D01*
X30277Y39870D01*
Y40038D01*
X30158Y40157D02*
X30277Y40038D01*
X28677Y40157D02*
X30158D01*
X28550Y40284D02*
X28677Y40157D01*
X28550Y40284D02*
Y40488D01*
X28677Y40615D01*
X30201D01*
X30328Y40742D01*
Y41275D01*
X30201Y41402D02*
X30328Y41275D01*
X29489Y41402D02*
X30201D01*
X43002Y14783D02*
X43053Y14732D01*
X43002Y14783D02*
Y15291D01*
X41173Y17120D02*
X43002Y15291D01*
X28778Y17120D02*
X41173D01*
X26920Y15261D02*
X28778Y17120D01*
X19216Y15261D02*
X26920D01*
X18628Y15850D02*
X19216Y15261D01*
X16205Y15850D02*
X18628D01*
X14249Y17805D02*
X16205Y15850D01*
X14249Y17805D02*
Y34163D01*
X12573Y35839D02*
X14249Y34163D01*
X12573Y35839D02*
Y38606D01*
X12929Y38961D01*
X40287Y23086D02*
X40513Y22860D01*
X39883Y23086D02*
X40287D01*
X39675Y23294D02*
X39883Y23086D01*
X39675Y23294D02*
Y23528D01*
X39374Y23830D02*
X39675Y23528D01*
X38858Y23830D02*
X39374D01*
X35465Y56527D02*
X35839Y55905D01*
X35361Y57220D02*
X35465Y56527D01*
X35049Y57896D02*
X35361Y57220D01*
X34557Y58611D02*
X35049Y57896D01*
X34392Y58776D02*
X34557Y58611D01*
X33401Y59411D02*
X34392Y58776D01*
X30353Y59411D02*
X33401D01*
X24968Y54026D02*
X30353Y59411D01*
X24968Y53061D02*
Y54026D01*
X24435Y52527D02*
X24968Y53061D01*
X24435Y50622D02*
Y52527D01*
X23876Y50063D02*
X24435Y50622D01*
X23876Y47600D02*
Y50063D01*
X19736Y43459D02*
X23876Y47600D01*
X19736Y37388D02*
Y43459D01*
Y37388D02*
X22047Y35076D01*
Y34773D02*
Y35076D01*
Y34773D02*
X23891Y32928D01*
X24986D01*
X27686Y30229D01*
Y29390D02*
Y30229D01*
Y29390D02*
X29337Y27739D01*
Y23698D02*
Y27739D01*
Y23698D02*
X29917Y23118D01*
X32130D01*
X32427Y22821D01*
Y22564D02*
Y22821D01*
Y22564D02*
X32690Y22301D01*
X33631Y21869D01*
X25150Y30289D02*
X26238Y29201D01*
Y28854D02*
Y29201D01*
Y28854D02*
X27127Y27965D01*
Y21387D02*
Y27965D01*
Y21387D02*
X27686Y20828D01*
X28999D01*
X30066Y19761D01*
X34493D01*
X36525Y17729D01*
X41326D01*
X43942Y15113D01*
Y11557D02*
Y15113D01*
X43180Y10795D02*
X43942Y11557D01*
X38684Y54458D02*
X38964D01*
X38316Y54089D02*
X38684Y54458D01*
X38316Y52692D02*
Y54089D01*
Y52692D02*
X38824Y52184D01*
Y52108D02*
Y52184D01*
Y52108D02*
X39802Y51130D01*
X40208D01*
X40335Y51003D01*
Y50267D02*
Y51003D01*
Y50267D02*
X40462Y50140D01*
X44120D01*
X44247Y50013D01*
Y48489D02*
Y50013D01*
X42062Y46304D02*
X44247Y48489D01*
X42062Y45491D02*
Y46304D01*
X41935Y45364D02*
X42062Y45491D01*
X40843Y45364D02*
X41935D01*
X40716Y45237D02*
X40843Y45364D01*
X40716Y40157D02*
Y45237D01*
X40589Y40030D02*
X40716Y40157D01*
X40132Y40030D02*
X40589D01*
X40005Y39903D02*
X40132Y40030D01*
X40005Y35510D02*
Y39903D01*
Y35510D02*
X41364Y34151D01*
X44221D01*
X44323Y34049D01*
Y33223D02*
Y34049D01*
X44196Y33096D02*
X44323Y33223D01*
X42977Y33096D02*
X44196D01*
X42850Y32969D02*
X42977Y33096D01*
X42850Y32817D02*
Y32969D01*
Y32817D02*
X42977Y32690D01*
X44196D01*
X44323Y32563D01*
Y31775D02*
Y32563D01*
X44196Y31648D02*
X44323Y31775D01*
X43840Y31648D02*
X44196D01*
X43713Y31521D02*
X43840Y31648D01*
X43713Y30251D02*
Y31521D01*
X43586Y30124D02*
X43713Y30251D01*
X42926Y30124D02*
X43586D01*
X42799Y29997D02*
X42926Y30124D01*
X42799Y29693D02*
Y29997D01*
Y29693D02*
X42926Y29566D01*
X43663D01*
X43790Y29439D01*
Y29210D02*
Y29439D01*
X43663Y29083D02*
X43790Y29210D01*
X43028Y29083D02*
X43663D01*
X41982Y28037D02*
X43028Y29083D01*
X41982Y27281D02*
Y28037D01*
X41625Y26924D02*
X41982Y27281D01*
X41275Y26924D02*
X41625D01*
X40386Y27813D02*
X41275Y26924D01*
X36982Y27813D02*
X40386D01*
X34599Y25429D02*
X36982Y27813D01*
X33524Y25429D02*
X34599D01*
X33274Y25179D02*
X33524Y25429D01*
X33274Y24892D02*
Y25179D01*
X32872Y24490D02*
X33274Y24892D01*
X32872Y24274D02*
Y24490D01*
X10541Y117145D02*
Y119253D01*
X8636Y115240D02*
X10541Y117145D01*
X8636Y95656D02*
Y115240D01*
X6680Y93701D02*
X8636Y95656D01*
X6680Y84760D02*
Y93701D01*
X2362Y80442D02*
X6680Y84760D01*
X2362Y53137D02*
Y80442D01*
Y53137D02*
X4521Y50978D01*
Y30785D02*
Y50978D01*
Y30785D02*
X11278Y24028D01*
Y15215D02*
Y24028D01*
Y15215D02*
X14681Y11811D01*
X17424D01*
X18313Y10922D01*
X22156D01*
X24638Y8440D01*
Y6223D02*
Y8440D01*
Y6223D02*
X27432Y3429D01*
X29210D01*
X30988Y1651D01*
Y914D02*
Y1651D01*
X31115Y38354D02*
Y38799D01*
Y38354D02*
X31242Y38227D01*
X32461D01*
X32588Y38100D01*
Y35738D02*
Y38100D01*
Y35738D02*
X32715Y35611D01*
X35331D01*
X38913Y32029D01*
X39188D01*
X39620Y31598D01*
Y29566D02*
Y31598D01*
X39493Y29439D02*
X39620Y29566D01*
X37008Y29439D02*
X39493D01*
X36881Y29312D02*
X37008Y29439D01*
X36881Y28728D02*
Y29312D01*
Y28728D02*
X37008Y28601D01*
X41605D01*
X41732Y28474D01*
Y28169D02*
Y28474D01*
X41605Y28042D02*
X41732Y28169D01*
X41326Y28042D02*
X41605D01*
X41199Y27915D02*
X41326Y28042D01*
X41199Y27555D02*
Y27915D01*
Y27555D02*
X41326Y27428D01*
X41626D01*
X48387Y31496D02*
Y37465D01*
X48158Y31267D02*
X48387Y31496D01*
X48158Y26441D02*
Y31267D01*
X45441Y23724D02*
X48158Y26441D01*
X45441Y20599D02*
Y23724D01*
Y20599D02*
X46609Y19431D01*
Y15037D02*
Y19431D01*
Y15037D02*
X51181Y10465D01*
Y8255D02*
Y10465D01*
X42426Y28880D02*
Y29028D01*
X42299Y28753D02*
X42426Y28880D01*
X42162Y28753D02*
X42299D01*
X42037Y28878D02*
X42162Y28753D01*
X42037Y28878D02*
Y32004D01*
X41271Y32770D02*
X42037Y32004D01*
X41271Y32770D02*
Y33329D01*
X40902Y33698D02*
X41271Y33329D01*
X40758Y33698D02*
X40902D01*
X40508Y33448D02*
X40758Y33698D01*
X40364Y33448D02*
X40508D01*
X40220Y33592D02*
X40364Y33448D01*
X40220Y33592D02*
Y33736D01*
X40470Y33986D01*
Y34129D01*
X40327Y34273D02*
X40470Y34129D01*
X40183Y34273D02*
X40327D01*
X39933Y34023D02*
X40183Y34273D01*
X39789Y34023D02*
X39933D01*
X39645Y34167D02*
X39789Y34023D01*
X39645Y34167D02*
Y34311D01*
X39895Y34561D01*
Y34705D01*
X39752Y34848D02*
X39895Y34705D01*
X39608Y34848D02*
X39752D01*
X39358Y34598D02*
X39608Y34848D01*
X39214Y34598D02*
X39358D01*
X39070Y34742D02*
X39214Y34598D01*
X39070Y34742D02*
Y34886D01*
X39345Y35160D01*
Y35662D01*
X38728Y36278D02*
X39345Y35662D01*
X38584Y36278D02*
X38728D01*
X38143Y35838D02*
X38584Y36278D01*
X37975Y35838D02*
X38143D01*
X37856Y35956D02*
X37975Y35838D01*
X37856Y35956D02*
Y36125D01*
X38297Y36566D01*
Y36710D01*
X38153Y36853D02*
X38297Y36710D01*
X38009Y36853D02*
X38153D01*
X37568Y36413D02*
X38009Y36853D01*
X37400Y36413D02*
X37568D01*
X37281Y36532D02*
X37400Y36413D01*
X37281Y36532D02*
Y36700D01*
X37722Y37141D01*
Y37285D01*
X37578Y37428D02*
X37722Y37285D01*
X37434Y37428D02*
X37578D01*
X36866Y36861D02*
X37434Y37428D01*
X36698Y36861D02*
X36866D01*
X36579Y36980D02*
X36698Y36861D01*
X36579Y36980D02*
Y37148D01*
X37146Y37716D01*
Y37860D01*
X36652Y38354D02*
X37146Y37860D01*
X36093Y38354D02*
X36652D01*
X35966Y38227D02*
X36093Y38354D01*
X35966Y36975D02*
Y38227D01*
X35847Y36855D02*
X35966Y36975D01*
X35679Y36855D02*
X35847D01*
X35560Y36975D02*
X35679Y36855D01*
X35560Y36975D02*
Y37430D01*
X35458Y37531D02*
X35560Y37430D01*
X34993Y37531D02*
X35458D01*
X34874Y37650D02*
X34993Y37531D01*
X34874Y37650D02*
Y37819D01*
X34993Y37938D01*
X35484D01*
X35611Y38065D01*
Y38252D01*
X35484Y38379D02*
X35611Y38252D01*
X34140Y38379D02*
X35484D01*
X33757Y38763D02*
X34140Y38379D01*
X33757Y38763D02*
Y41681D01*
X33630Y41808D02*
X33757Y41681D01*
X33132Y41808D02*
X33630D01*
X33020Y41920D02*
X33132Y41808D01*
X33020Y41920D02*
Y42078D01*
X33132Y42189D01*
X33656D01*
X33782Y42316D01*
Y42495D01*
X33656Y42621D02*
X33782Y42495D01*
X33172Y42621D02*
X33656D01*
X33045Y42748D02*
X33172Y42621D01*
X33045Y42748D02*
Y45085D01*
X32918Y45212D02*
X33045Y45085D01*
X30912Y45212D02*
X32918D01*
X30785Y45339D02*
X30912Y45212D01*
X30785Y45339D02*
Y46126D01*
X30658Y46253D02*
X30785Y46126D01*
X28575Y46253D02*
X30658D01*
X28448Y46380D02*
X28575Y46253D01*
X28448Y46380D02*
Y46533D01*
X28321Y46660D02*
X28448Y46533D01*
X27153Y46660D02*
X28321D01*
X27026Y46787D02*
X27153Y46660D01*
X27026Y46787D02*
Y49454D01*
X26772Y49708D02*
X27026Y49454D01*
X26772Y49708D02*
Y51283D01*
X26899Y51410D01*
X27686D01*
X28702Y52426D01*
Y53526D01*
X28821Y53645D01*
X28989D01*
X29108Y53526D01*
Y52733D02*
Y53526D01*
Y52733D02*
X29213Y52629D01*
X29360D01*
X29464Y52733D01*
Y54270D01*
X29576Y54381D01*
X29733D01*
X29845Y54270D01*
Y52865D02*
Y54270D01*
Y52865D02*
X29954Y52756D01*
X30125D01*
X30218Y52849D01*
X10286Y48870D02*
X10287Y48869D01*
X9881Y48870D02*
X10286D01*
X9754Y48743D02*
X9881Y48870D01*
X9754Y48387D02*
Y48743D01*
Y48387D02*
X9881Y48260D01*
X10820D01*
X10988Y48428D01*
X11383Y48823D01*
X11527D01*
X11671Y48679D01*
Y48536D02*
Y48679D01*
X11090Y47955D02*
X11671Y48536D01*
X11090Y47787D02*
Y47955D01*
Y47787D02*
X11209Y47668D01*
X11377D01*
X11958Y48248D01*
X12102D01*
X12246Y48104D01*
Y47961D02*
Y48104D01*
X11754Y47469D02*
X12246Y47961D01*
X11754Y47301D02*
Y47469D01*
Y47301D02*
X11873Y47182D01*
X12041D01*
X12533Y47673D01*
X12677D01*
X12821Y47529D01*
Y47386D02*
Y47529D01*
X12426Y46991D02*
X12821Y47386D01*
X12426Y46848D02*
Y46991D01*
Y46848D02*
X12570Y46703D01*
X12713D01*
X13108Y47098D01*
X13252D01*
X13396Y46954D01*
Y46811D02*
Y46954D01*
X13001Y46416D02*
X13396Y46811D01*
X13001Y46272D02*
Y46416D01*
Y46272D02*
X13145Y46128D01*
X13288D01*
X13683Y46523D01*
X13827D01*
X13971Y46379D01*
Y46236D02*
Y46379D01*
X13431Y45696D02*
X13971Y46236D01*
X13431Y45523D02*
Y45696D01*
Y45523D02*
X13553Y45400D01*
X13726D01*
X14265Y45939D01*
X14437D01*
X14557Y45818D01*
Y45647D02*
Y45818D01*
X13246Y44336D02*
X14557Y45647D01*
X13246Y44183D02*
Y44336D01*
Y44183D02*
X16002Y41427D01*
Y36398D02*
Y41427D01*
Y36398D02*
X17018Y35382D01*
Y34265D02*
Y35382D01*
Y34265D02*
X20244Y31039D01*
Y29439D02*
Y31039D01*
Y29439D02*
X20726Y28956D01*
X22581D01*
X22708Y28829D01*
Y27864D02*
Y28829D01*
Y27864D02*
X22835Y27737D01*
X25352D01*
X25479Y27864D01*
Y27900D01*
X52451Y62611D02*
X53340D01*
X52070Y62230D02*
X52451Y62611D01*
X47625Y62230D02*
X52070D01*
X43053Y66802D02*
X47625Y62230D01*
X35776Y66802D02*
X43053D01*
X34760Y67818D02*
X35776Y66802D01*
X13208Y67818D02*
X34760D01*
X10795Y65405D02*
X13208Y67818D01*
X36170Y40919D02*
X36246D01*
X36373Y41046D01*
Y42088D01*
X36246Y42215D02*
X36373Y42088D01*
X35408Y42215D02*
X36246D01*
X35281Y42342D02*
X35408Y42215D01*
X35281Y42342D02*
Y45822D01*
X35128Y45974D02*
X35281Y45822D01*
X34198Y45974D02*
X35128D01*
X34087Y46086D02*
X34198Y45974D01*
X34087Y46086D02*
Y46243D01*
X34198Y46355D01*
X35169D01*
X35281Y46467D01*
Y46624D01*
X35169Y46736D02*
X35281Y46624D01*
X33444Y46736D02*
X35169D01*
X33325Y46855D02*
X33444Y46736D01*
X33325Y46855D02*
Y47023D01*
X33444Y47142D01*
X35161D01*
X35281Y47262D01*
Y47430D01*
X35161Y47549D02*
X35281Y47430D01*
X32360Y47549D02*
X35161D01*
X32233Y47676D02*
X32360Y47549D01*
X32233Y47676D02*
Y49563D01*
X32113Y49682D02*
X32233Y49563D01*
X31945Y49682D02*
X32113D01*
X31826Y49563D02*
X31945Y49682D01*
X31826Y47650D02*
Y49563D01*
X31699Y47523D02*
X31826Y47650D01*
X29997Y47523D02*
X31699D01*
X29870Y47650D02*
X29997Y47523D01*
X29870Y47650D02*
Y50046D01*
X29990Y50165D01*
X30158D01*
X30277Y50046D01*
Y47922D02*
Y50046D01*
Y47922D02*
X30396Y47803D01*
X30564D01*
X30683Y47922D01*
Y50063D01*
X30810Y50190D01*
X30937D01*
X31064Y50063D01*
Y47930D02*
Y50063D01*
Y47930D02*
X31191Y47803D01*
X31394D01*
X31521Y47930D01*
Y49962D01*
X31547Y49987D01*
Y52146D01*
X31039Y52654D02*
X31547Y52146D01*
X31039Y52654D02*
Y53416D01*
X31953Y54331D01*
Y54712D01*
X32855Y55613D01*
Y57188D01*
X33299Y57632D01*
X33388D01*
X39040Y31652D02*
X39264Y31428D01*
X38807Y31652D02*
X39040D01*
X35179Y35281D02*
X38807Y31652D01*
X31750Y35281D02*
X35179D01*
X31572Y35458D02*
X31750Y35281D01*
X31572Y35458D02*
Y37795D01*
X31445Y37922D02*
X31572Y37795D01*
X30785Y37922D02*
X31445D01*
X30658Y38049D02*
X30785Y37922D01*
X30658Y38049D02*
Y38811D01*
X30531Y38938D02*
X30658Y38811D01*
X29693Y38938D02*
X30531D01*
X29566Y39065D02*
X29693Y38938D01*
X29566Y39065D02*
Y39268D01*
X29693Y39395D01*
X30531D01*
X30658Y39522D01*
Y43231D01*
X30531Y43358D02*
X30658Y43231D01*
X29779Y43358D02*
X30531D01*
X29677Y43256D02*
X29779Y43358D01*
X29677Y42139D02*
Y43256D01*
X29576Y42037D02*
X29677Y42139D01*
X29372Y42037D02*
X29576D01*
X29271Y42139D02*
X29372Y42037D01*
X29271Y42139D02*
Y43180D01*
X29144Y43307D02*
X29271Y43180D01*
X26060Y43307D02*
X29144D01*
X25933Y43180D02*
X26060Y43307D01*
X25933Y43155D02*
Y43180D01*
X38989Y53594D02*
Y53797D01*
X38862Y53924D02*
X38989Y53797D01*
X38684Y53924D02*
X38862D01*
X38557Y53797D02*
X38684Y53924D01*
X38557Y52756D02*
Y53797D01*
Y52756D02*
X39929Y51384D01*
X40564D01*
X40691Y51257D01*
Y50571D02*
Y51257D01*
Y50571D02*
X40818Y50444D01*
X44425D01*
X44552Y50317D01*
Y48362D02*
Y50317D01*
X42418Y46228D02*
X44552Y48362D01*
X42418Y45187D02*
Y46228D01*
X42291Y45060D02*
X42418Y45187D01*
X41148Y45060D02*
X42291D01*
X41021Y44933D02*
X41148Y45060D01*
X41021Y44755D02*
Y44933D01*
Y44755D02*
X41148Y44628D01*
X42299D01*
X42418Y44509D01*
Y44341D02*
Y44509D01*
X42299Y44221D02*
X42418Y44341D01*
X41148Y44221D02*
X42299D01*
X41021Y44094D02*
X41148Y44221D01*
X41021Y39827D02*
Y44094D01*
X40894Y39700D02*
X41021Y39827D01*
X40437Y39700D02*
X40894D01*
X40310Y39573D02*
X40437Y39700D01*
X40310Y35662D02*
Y39573D01*
Y35662D02*
X41504Y34468D01*
X44552D01*
X44679Y34341D01*
Y30860D02*
Y34341D01*
X44577Y30758D02*
X44679Y30860D01*
X44163Y30758D02*
X44577D01*
X44044Y30639D02*
X44163Y30758D01*
X44044Y30471D02*
Y30639D01*
Y30471D02*
X44163Y30352D01*
X44577D01*
X44679Y30250D01*
Y28905D02*
Y30250D01*
X44552Y28778D02*
X44679Y28905D01*
X43129Y28778D02*
X44552D01*
X42185Y27834D02*
X43129Y28778D01*
X42185Y27197D02*
Y27834D01*
X41608Y26619D02*
X42185Y27197D01*
X40919Y26619D02*
X41608D01*
X40513Y27026D02*
X40919Y26619D01*
X39726Y27026D02*
X40513D01*
X39319Y26619D02*
X39726Y27026D01*
X36144Y26619D02*
X39319D01*
X34874Y25349D02*
X36144Y26619D01*
X34874Y24790D02*
Y25349D01*
X34722Y24638D02*
X34874Y24790D01*
X33401Y24638D02*
X34722D01*
X33274Y24511D02*
X33401Y24638D01*
X33274Y23876D02*
Y24511D01*
X32872Y23474D02*
X33274Y23876D01*
X44958Y40513D02*
X45441Y40030D01*
X46279D01*
X46406Y39903D01*
Y39548D02*
Y39903D01*
Y39548D02*
X46533Y39421D01*
X49657D01*
X49784Y39548D01*
Y53950D01*
X49657Y54077D02*
X49784Y53950D01*
X46253Y54077D02*
X49657D01*
X45872Y54458D02*
X46253Y54077D01*
X45872Y54458D02*
Y55143D01*
X45745Y55270D02*
X45872Y55143D01*
X43053Y55270D02*
X45745D01*
X42926Y55397D02*
X43053Y55270D01*
X42926Y55397D02*
Y55626D01*
X43028Y55728D01*
X44280D01*
X44399Y55847D01*
Y56015D01*
X44280Y56134D02*
X44399Y56015D01*
X43028Y56134D02*
X44280D01*
X42926Y56236D02*
X43028Y56134D01*
X42926Y56236D02*
Y56388D01*
X43053Y56515D01*
X44298D01*
X44425Y56642D01*
Y56891D01*
X44298Y57018D02*
X44425Y56891D01*
X41885Y57018D02*
X44298D01*
X41783Y57119D02*
X41885Y57018D01*
X41783Y57119D02*
Y57322D01*
X41885Y57424D01*
X43180D01*
X43307Y57551D01*
Y57785D01*
X43180Y57912D02*
X43307Y57785D01*
X41910Y57912D02*
X43180D01*
X41783Y58039D02*
X41910Y57912D01*
X41783Y58039D02*
Y58826D01*
X41656Y58953D02*
X41783Y58826D01*
X40259Y58953D02*
X41656D01*
X40132Y58826D02*
X40259Y58953D01*
X40132Y58530D02*
Y58826D01*
Y58530D02*
X40259Y58403D01*
X40572D01*
X25912Y108081D02*
X26162Y108331D01*
Y117881D01*
X27280Y118999D01*
X48133D01*
X49403Y117729D01*
X22200Y42037D02*
X22454D01*
X22123Y41961D02*
X22200Y42037D01*
X22123Y41148D02*
Y41961D01*
Y41148D02*
X22250Y41021D01*
X23343D01*
X23470Y40894D01*
Y40767D02*
Y40894D01*
X23343Y40640D02*
X23470Y40767D01*
X22225Y40640D02*
X23343D01*
X22098Y40513D02*
X22225Y40640D01*
X22098Y40284D02*
Y40513D01*
Y40284D02*
X22225Y40157D01*
X23368D01*
X23495Y40030D01*
Y39827D02*
Y40030D01*
X23368Y39700D02*
X23495Y39827D01*
X22352Y39700D02*
X23368D01*
X22225Y39573D02*
X22352Y39700D01*
X22225Y39370D02*
Y39573D01*
Y39370D02*
X22352Y39243D01*
X22809D01*
X22936Y39116D01*
Y36982D02*
Y39116D01*
Y36982D02*
X23495Y36424D01*
X24232D01*
X24232Y36424D01*
X24484D01*
X25222Y35686D01*
Y34849D02*
Y35686D01*
Y34849D02*
X29210Y30861D01*
Y30093D02*
Y30861D01*
Y30093D02*
X29433Y29870D01*
X29439D01*
X30607Y28702D01*
Y27144D02*
Y28702D01*
Y27144D02*
X31110Y26641D01*
Y26035D02*
Y26641D01*
Y26035D02*
X31272Y25874D01*
X30977Y58457D02*
X30988Y58445D01*
X30694Y58457D02*
X30977D01*
X28524Y56287D02*
X30694Y58457D01*
X28524Y55245D02*
Y56287D01*
X28118Y54839D02*
X28524Y55245D01*
X27076Y54839D02*
X28118D01*
X25883Y53645D02*
X27076Y54839D01*
X25883Y52578D02*
Y53645D01*
X25476Y52172D02*
X25883Y52578D01*
X25476Y50292D02*
Y52172D01*
X24943Y49759D02*
X25476Y50292D01*
X24943Y44145D02*
Y49759D01*
Y44145D02*
X25070Y44018D01*
X25298D01*
X25425Y44145D01*
Y44907D01*
X25552Y45034D01*
X25730D01*
X25857Y44907D01*
Y44120D02*
Y44907D01*
Y44120D02*
X25984Y43993D01*
X31445D01*
X31572Y43866D01*
Y41783D02*
Y43866D01*
X43231Y11811D02*
X43586Y12167D01*
Y15088D01*
X41275Y17399D02*
X43586Y15088D01*
X36361Y17399D02*
X41275D01*
X34354Y19406D02*
X36361Y17399D01*
X29743Y19406D02*
X34354D01*
X29185Y19964D02*
X29743Y19406D01*
X14453Y13589D02*
X16510D01*
X12294Y15748D02*
X14453Y13589D01*
X12294Y15748D02*
Y24536D01*
X5664Y31166D02*
X12294Y24536D01*
X5664Y31166D02*
Y52629D01*
X3556Y54737D02*
X5664Y52629D01*
X3556Y54737D02*
Y78842D01*
X8700Y83985D01*
Y86398D01*
X7366Y87732D02*
X8700Y86398D01*
X7366Y87732D02*
Y93155D01*
X7556Y93345D01*
X12065Y34798D02*
X12548Y34315D01*
Y32487D02*
Y34315D01*
Y32487D02*
X13132Y31902D01*
Y17348D02*
Y31902D01*
Y17348D02*
X15545Y14935D01*
X18198D01*
X18808Y14326D01*
X27476D01*
X29279Y16129D01*
X39853D01*
X40589Y15392D01*
X40826Y29028D02*
Y29718D01*
X40953Y29845D01*
X41123D01*
X41250Y29972D01*
Y30124D01*
X41123Y30251D02*
X41250Y30124D01*
X40665Y30251D02*
X41123D01*
X40437Y30480D02*
X40665Y30251D01*
X40437Y30480D02*
Y30785D01*
X40691Y31039D01*
X41173D01*
X41300Y31166D01*
Y31746D01*
X41173Y31873D02*
X41300Y31746D01*
X40679Y31873D02*
X41173D01*
X40471Y32081D02*
X40679Y31873D01*
X40471Y32081D02*
Y32427D01*
X39743Y33155D02*
X40471Y32427D01*
X39599Y33155D02*
X39743D01*
X39239Y32795D02*
X39599Y33155D01*
X39095Y32795D02*
X39239D01*
X38951Y32939D02*
X39095Y32795D01*
X38951Y32939D02*
Y33083D01*
X39311Y33443D01*
Y33587D01*
X36678Y36220D02*
X39311Y33587D01*
X34214Y36220D02*
X36678D01*
X34087Y36347D02*
X34214Y36220D01*
X34087Y36347D02*
Y36525D01*
X34214Y36652D01*
X34493D01*
X34620Y36779D01*
Y36982D01*
X34493Y37109D02*
X34620Y36982D01*
X34215Y37109D02*
X34493D01*
X34088Y37236D02*
X34215Y37109D01*
X34088Y37236D02*
Y37489D01*
X33122Y38456D02*
X34088Y37489D01*
X33122Y38456D02*
Y39345D01*
X32995Y39472D02*
X33122Y39345D01*
X31597Y39472D02*
X32995D01*
X31471Y39598D02*
X31597Y39472D01*
X31471Y39598D02*
Y39777D01*
X31597Y39904D01*
X32977D01*
X33096Y40023D01*
Y40191D01*
X32977Y40310D02*
X33096Y40191D01*
X32511Y40310D02*
X32977D01*
X32385Y40437D02*
X32511Y40310D01*
X32385Y40437D02*
Y40616D01*
X32511Y40742D01*
X33002D01*
X33122Y40861D01*
Y41029D01*
X33002Y41149D02*
X33122Y41029D01*
X32487Y41149D02*
X33002D01*
X32385Y41250D02*
X32487Y41149D01*
X32385Y41250D02*
Y44475D01*
X32258Y44602D02*
X32385Y44475D01*
X29083Y44602D02*
X32258D01*
X28956Y44729D02*
X29083Y44602D01*
X28956Y44729D02*
Y45060D01*
X28829Y45187D02*
X28956Y45060D01*
X27203Y45187D02*
X28829D01*
X27076Y45060D02*
X27203Y45187D01*
X27076Y44755D02*
Y45060D01*
X26949Y44628D02*
X27076Y44755D01*
X26670Y44628D02*
X26949D01*
X26543Y44755D02*
X26670Y44628D01*
X26543Y44755D02*
Y45364D01*
X26264Y45644D02*
X26543Y45364D01*
X25705Y45644D02*
X26264D01*
X25578Y45771D02*
X25705Y45644D01*
X25578Y45771D02*
Y49505D01*
X26137Y50063D01*
Y51918D01*
X26264Y52045D01*
X27457D01*
X28067Y52654D01*
Y53848D01*
X27940Y53975D02*
X28067Y53848D01*
X27762Y53975D02*
X27940D01*
X27635Y53848D02*
X27762Y53975D01*
X27635Y53466D02*
Y53848D01*
X27509Y53340D02*
X27635Y53466D01*
X27330Y53340D02*
X27509D01*
X27203Y53466D02*
X27330Y53340D01*
X27203Y53466D02*
Y54102D01*
X27330Y54229D01*
X28397D01*
X29413Y55245D01*
X30429D01*
X30556Y55372D01*
Y56286D01*
X31119Y56849D01*
X31818D01*
X45974Y39141D02*
Y39497D01*
X45847Y39014D02*
X45974Y39141D01*
X44298Y39014D02*
X45847D01*
X44171Y39141D02*
X44298Y39014D01*
X44171Y39141D02*
Y41351D01*
X44298Y41478D01*
X45009D01*
X45136Y41605D01*
Y42139D01*
X45263Y42266D01*
X47320D01*
X47447Y42139D01*
Y40970D02*
Y42139D01*
Y40970D02*
X47574Y40843D01*
X47777D01*
X47904Y40970D01*
Y42113D01*
X48031Y42240D01*
Y43612D01*
X48158Y43739D01*
X48336D01*
X48463Y43612D01*
Y41250D02*
Y43612D01*
Y41250D02*
X48590Y41123D01*
X48641D01*
X48768Y41250D01*
Y52781D01*
X48641Y52908D02*
X48768Y52781D01*
X43231Y52908D02*
X48641D01*
X43180Y52959D02*
X43231Y52908D01*
X50570Y7644D02*
X51181Y8255D01*
X47522Y7644D02*
X50570D01*
X44196Y4318D02*
X47522Y7644D01*
X32309Y4318D02*
X44196D01*
X31775Y4851D02*
X32309Y4318D01*
X31775Y4851D02*
Y6248D01*
X31394Y6629D02*
X31775Y6248D01*
X30937Y6629D02*
X31394D01*
X32588Y53649D02*
X32618D01*
X32461Y53776D02*
X32588Y53649D01*
X32461Y53776D02*
Y54356D01*
X32588Y54483D01*
X36134D01*
X36246Y54371D01*
Y54214D02*
Y54371D01*
X36134Y54102D02*
X36246Y54214D01*
X35103Y54102D02*
X36134D01*
X34976Y53975D02*
X35103Y54102D01*
X34976Y53543D02*
Y53975D01*
X34849Y53416D02*
X34976Y53543D01*
X34670Y53416D02*
X34849D01*
X34544Y53543D02*
X34670Y53416D01*
X34544Y53543D02*
Y54026D01*
X34417Y54153D02*
X34544Y54026D01*
X33172Y54153D02*
X34417D01*
X33045Y54026D02*
X33172Y54153D01*
X33045Y53340D02*
Y54026D01*
X32918Y53213D02*
X33045Y53340D01*
X32283Y53213D02*
X32918D01*
X32156Y53086D02*
X32283Y53213D01*
X32156Y50419D02*
Y53086D01*
Y50419D02*
X32283Y50292D01*
X33401D01*
X33630Y50063D01*
Y48270D02*
Y50063D01*
Y48270D02*
X33741Y48158D01*
X33899D01*
X34011Y48270D01*
Y50114D01*
X34138Y50241D01*
X34823D01*
X35001Y50063D01*
Y48311D02*
Y50063D01*
Y48311D02*
X35128Y48184D01*
X35312D01*
X35439Y48311D01*
Y50020D01*
X35558Y50140D01*
X35726D01*
X35846Y50020D01*
Y48311D02*
Y50020D01*
Y48311D02*
X35972Y48184D01*
X36170D01*
X36297Y48311D01*
Y48972D01*
X36423Y49098D01*
X36602D01*
X36728Y48972D01*
Y45085D02*
Y48972D01*
X36601Y44958D02*
X36728Y45085D01*
X36424Y44958D02*
X36601D01*
X36297Y45085D02*
X36424Y44958D01*
X36297Y45085D02*
Y47717D01*
X36185Y47828D02*
X36297Y47717D01*
X36027Y47828D02*
X36185D01*
X35916Y47717D02*
X36027Y47828D01*
X35916Y44679D02*
Y47717D01*
Y44679D02*
X36043Y44552D01*
X38887D01*
X39014Y44425D01*
Y43536D02*
Y44425D01*
X38887Y43409D02*
X39014Y43536D01*
X37516Y43409D02*
X38887D01*
X37389Y43282D02*
X37516Y43409D01*
X37389Y42164D02*
Y43282D01*
X37262Y42037D02*
X37389Y42164D01*
X37186Y42037D02*
X37262D01*
X43683Y24982D02*
X43790Y24875D01*
Y19355D02*
Y24875D01*
Y19355D02*
X45491Y17653D01*
Y12421D02*
Y17653D01*
Y12421D02*
X45720Y12192D01*
Y10922D02*
Y12192D01*
X43815Y9017D02*
X45720Y10922D01*
X35636Y9017D02*
X43815D01*
X32258Y5639D02*
X35636Y9017D01*
X19177Y47599D02*
X19875D01*
X19050Y47726D02*
X19177Y47599D01*
X19050Y47726D02*
Y49200D01*
X18923Y49327D02*
X19050Y49200D01*
X18641Y49327D02*
X18923D01*
X18539Y49225D02*
X18641Y49327D01*
X18539Y47015D02*
Y49225D01*
X18438Y46914D02*
X18539Y47015D01*
X18234Y46914D02*
X18438D01*
X18133Y47015D02*
X18234Y46914D01*
X18133Y47015D02*
Y49225D01*
X18031Y49327D02*
X18133Y49225D01*
X17828Y49327D02*
X18031D01*
X17726Y49225D02*
X17828Y49327D01*
X17726Y46271D02*
Y49225D01*
X17607Y46152D02*
X17726Y46271D01*
X17439Y46152D02*
X17607D01*
X17320Y46271D02*
X17439Y46152D01*
X17320Y46271D02*
Y49225D01*
X17218Y49327D02*
X17320Y49225D01*
X16916Y49025D02*
X17218Y49327D01*
X16916Y36932D02*
Y49025D01*
Y36932D02*
X18923Y34925D01*
Y34455D02*
Y34925D01*
Y34455D02*
X23152Y30226D01*
X24435D01*
X24689Y29972D01*
Y28522D02*
Y29972D01*
Y28522D02*
X24954Y28257D01*
X8382Y55626D02*
X23622D01*
X25146Y57150D01*
X26035D01*
X27051Y58166D01*
Y60071D01*
X29083Y62103D01*
X42418D01*
X44831Y59690D01*
X46101D01*
X47625Y58166D01*
Y55270D02*
Y58166D01*
Y55270D02*
X47676Y55220D01*
X33630Y27407D02*
Y27435D01*
X33020Y26797D02*
X33630Y27407D01*
X31242Y26797D02*
X33020D01*
X30861Y27178D02*
X31242Y26797D01*
X30861Y27178D02*
Y30175D01*
X25832Y35204D02*
X30861Y30175D01*
X25832Y35204D02*
Y35941D01*
X24562Y37211D02*
X25832Y35941D01*
X23876Y37211D02*
X24562D01*
X23749Y37338D02*
X23876Y37211D01*
X23749Y37338D02*
Y38862D01*
X23876Y38989D01*
X24257D01*
X24384Y39116D01*
Y40132D01*
X24511Y40259D01*
X26035D01*
X26162Y40386D01*
Y40640D01*
X26035Y40767D02*
X26162Y40640D01*
X24333Y40767D02*
X26035D01*
X24206Y40894D02*
X24333Y40767D01*
X24206Y40894D02*
Y41173D01*
X24333Y41300D01*
X27330D01*
X27457Y41173D01*
Y40945D02*
Y41173D01*
X7747Y84709D02*
Y85598D01*
X2997Y79959D02*
X7747Y84709D01*
X2997Y53518D02*
Y79959D01*
Y53518D02*
X5105Y51410D01*
Y30963D02*
Y51410D01*
Y30963D02*
X11786Y24282D01*
Y15494D02*
Y24282D01*
Y15494D02*
X14808Y12471D01*
X17526D01*
X18567Y11430D01*
X22479D01*
X25146Y8763D01*
Y6731D02*
Y8763D01*
Y6731D02*
X26797Y5080D01*
X29718D01*
X30988Y3810D01*
X44704D01*
X46355Y5461D01*
X38837Y24638D02*
X39243Y24232D01*
X37160Y24638D02*
X38837D01*
X36449Y23927D02*
X37160Y24638D01*
X36449Y19672D02*
Y23927D01*
Y19672D02*
X37363Y18758D01*
X32170Y58801D02*
X32530Y58442D01*
X30607Y58801D02*
X32170D01*
X28219Y56413D02*
X30607Y58801D01*
X28219Y55397D02*
Y56413D01*
X27991Y55169D02*
X28219Y55397D01*
X26975Y55169D02*
X27991D01*
X25578Y53772D02*
X26975Y55169D01*
X25578Y52756D02*
Y53772D01*
X25171Y52349D02*
X25578Y52756D01*
X25171Y50444D02*
Y52349D01*
X24587Y49860D02*
X25171Y50444D01*
X24587Y43815D02*
Y49860D01*
Y43815D02*
X24714Y43688D01*
X30988D01*
X31115Y43561D01*
Y41250D02*
Y43561D01*
Y41250D02*
X31242Y41123D01*
X31550D01*
X11557Y64389D02*
Y64897D01*
X13589Y66929D01*
X20701D01*
X21463Y66167D01*
X42672D01*
X48006Y60833D01*
X54026D01*
X54381Y61189D01*
X41885Y23153D02*
X42582Y23851D01*
X41885Y21819D02*
Y23153D01*
Y21819D02*
X42748Y20955D01*
Y18974D02*
Y20955D01*
Y18974D02*
X45161Y16561D01*
Y12217D02*
Y16561D01*
Y12217D02*
X45339Y12040D01*
Y11049D02*
Y12040D01*
X43688Y9398D02*
X45339Y11049D01*
X34849Y9398D02*
X43688D01*
X32995Y7544D02*
X34849Y9398D01*
X27813Y7544D02*
X32995D01*
X21768Y38684D02*
X22035Y38417D01*
Y37376D02*
Y38417D01*
Y37376D02*
X23292Y36119D01*
X24358D01*
X24917Y35559D01*
Y34722D02*
Y35559D01*
Y34722D02*
X28905Y30735D01*
Y29966D02*
Y30735D01*
Y29966D02*
X29307Y29565D01*
X29313D01*
X30353Y28525D01*
Y25192D02*
Y28525D01*
Y25192D02*
X30907Y24638D01*
X31567D01*
X31716Y24489D01*
Y24126D02*
Y24489D01*
Y24126D02*
X31967Y23876D01*
X32385D01*
X32512Y23749D01*
Y23241D02*
Y23749D01*
Y23241D02*
X32639Y23114D01*
X34819D01*
X35246Y22687D01*
X29279Y80391D02*
X31877D01*
X25669Y84001D02*
X29279Y80391D01*
X25669Y84001D02*
Y86599D01*
X17780Y94488D02*
X25669Y86599D01*
X8700Y94488D02*
X17780D01*
X7556Y93345D02*
X8700Y94488D01*
X34188Y14046D02*
X34290Y14148D01*
X32334Y14046D02*
X34188D01*
X31445Y13157D02*
X32334Y14046D01*
X18567Y13157D02*
X31445D01*
X18136Y13589D02*
X18567Y13157D01*
X16510Y13589D02*
X18136D01*
X25832Y30328D02*
X26568Y29591D01*
Y29058D02*
Y29591D01*
Y29058D02*
X27407Y28219D01*
Y21615D02*
Y28219D01*
Y21615D02*
X27940Y21082D01*
X29286D01*
X30251Y20117D01*
X34620D01*
X36703Y18034D01*
X41402D01*
X44196Y15240D01*
Y10922D02*
Y15240D01*
X43561Y10287D02*
X44196Y10922D01*
X37541Y10287D02*
X43561D01*
X37338Y10490D02*
X37541Y10287D01*
X20320Y98552D02*
X23876Y102108D01*
X20320Y92710D02*
Y98552D01*
Y92710D02*
X26289Y86741D01*
Y84397D02*
Y86741D01*
Y84397D02*
X29181Y81505D01*
X32287D01*
X33655Y80137D01*
Y78105D02*
Y80137D01*
Y78105D02*
X35433Y76327D01*
X37871Y41021D02*
X38227D01*
X37744Y41148D02*
X37871Y41021D01*
X37744Y41148D02*
Y42977D01*
X37871Y43104D01*
X39243D01*
X39370Y43231D01*
Y44806D01*
X39243Y44933D02*
X39370Y44806D01*
X37160Y44933D02*
X39243D01*
X37033Y45060D02*
X37160Y44933D01*
X37033Y45060D02*
Y48420D01*
X37152Y48539D01*
X37320D01*
X37440Y48420D01*
Y45466D02*
Y48420D01*
Y45466D02*
X37567Y45339D01*
X39320D01*
X39446Y45465D01*
Y45644D01*
X39320Y45771D02*
X39446Y45644D01*
X37889Y45771D02*
X39320D01*
X37770Y45890D02*
X37889Y45771D01*
X37770Y45890D02*
Y46058D01*
X37889Y46177D01*
X39335D01*
X39446Y46289D01*
Y46447D01*
X39335Y46558D02*
X39446Y46447D01*
X37948Y46558D02*
X39335D01*
X37821Y46685D02*
X37948Y46558D01*
X37821Y46685D02*
Y48717D01*
X37694Y48844D02*
X37821Y48717D01*
X37389Y48844D02*
X37694D01*
X37262Y48971D02*
X37389Y48844D01*
X37262Y48971D02*
Y50343D01*
X37135Y50470D02*
X37262Y50343D01*
X36881Y50470D02*
X37135D01*
X36754Y50343D02*
X36881Y50470D01*
X36754Y49555D02*
Y50343D01*
X36627Y49428D02*
X36754Y49555D01*
X36424Y49428D02*
X36627D01*
X36297Y49555D02*
X36424Y49428D01*
X36297Y49555D02*
Y50343D01*
X36068Y50571D02*
X36297Y50343D01*
X36068Y50571D02*
Y51537D01*
X35941Y51664D02*
X36068Y51537D01*
X35738Y51664D02*
X35941D01*
X35611Y51537D02*
X35738Y51664D01*
X35611Y50597D02*
Y51537D01*
X35484Y50470D02*
X35611Y50597D01*
X35284Y50470D02*
X35484D01*
X35157Y50597D02*
X35284Y50470D01*
X35157Y50597D02*
Y52070D01*
X35030Y52197D02*
X35157Y52070D01*
X34878Y52197D02*
X35030D01*
X34751Y52070D02*
X34878Y52197D01*
X34751Y50665D02*
Y52070D01*
X34632Y50546D02*
X34751Y50665D01*
X34464Y50546D02*
X34632D01*
X34345Y50665D02*
X34464Y50546D01*
X34345Y50665D02*
Y52070D01*
X34218Y52197D02*
X34345Y52070D01*
X34065Y52197D02*
X34218D01*
X33938Y52070D02*
X34065Y52197D01*
X33938Y50622D02*
Y52070D01*
X33811Y50495D02*
X33938Y50622D01*
X33630Y50495D02*
X33811D01*
X33503Y50622D02*
X33630Y50495D01*
X33503Y50622D02*
Y52045D01*
X33376Y52172D02*
X33503Y52045D01*
X33147Y52172D02*
X33376D01*
X33020Y52045D02*
X33147Y52172D01*
X33020Y50724D02*
Y52045D01*
X32893Y50597D02*
X33020Y50724D01*
X32588Y50597D02*
X32893D01*
X32461Y50724D02*
X32588Y50597D01*
X32461Y50724D02*
Y51308D01*
X32588Y51435D01*
X32639D01*
X36144Y39192D02*
X36601D01*
X36728Y39319D01*
Y42418D01*
X36601Y42545D02*
X36728Y42418D01*
X35738Y42545D02*
X36601D01*
X35611Y42672D02*
X35738Y42545D01*
X35611Y42672D02*
Y42901D01*
X35712Y43002D01*
X36939D01*
X37059Y43121D01*
Y43289D01*
X36939Y43409D02*
X37059Y43289D01*
X35712Y43409D02*
X36939D01*
X35611Y43510D02*
X35712Y43409D01*
X35611Y43510D02*
Y43713D01*
X35712Y43815D01*
X38489D01*
X38608Y43934D01*
Y44102D01*
X38489Y44221D02*
X38608Y44102D01*
X35712Y44221D02*
X38489D01*
X35611Y44323D02*
X35712Y44221D01*
X35611Y44323D02*
Y47727D01*
X35484Y47854D02*
X35611Y47727D01*
X33452Y47854D02*
X35484D01*
X33325Y47981D02*
X33452Y47854D01*
X33325Y47981D02*
Y49843D01*
X33206Y49962D02*
X33325Y49843D01*
X33038Y49962D02*
X33206D01*
X32918Y49843D02*
X33038Y49962D01*
X32918Y47965D02*
Y49843D01*
X32807Y47854D02*
X32918Y47965D01*
X32649Y47854D02*
X32807D01*
X32537Y47965D02*
X32649Y47854D01*
X32537Y47965D02*
Y49860D01*
X32410Y49987D02*
X32537Y49860D01*
X31979Y49987D02*
X32410D01*
X31852Y50114D02*
X31979Y49987D01*
X31852Y50114D02*
Y52227D01*
X31267Y52812D02*
X31852Y52227D01*
X31267Y52812D02*
Y53162D01*
X31394Y53289D01*
X31979D01*
X32207Y53518D01*
Y54661D01*
X32334Y54788D01*
X36094D01*
X36220Y54914D01*
Y55042D01*
X36093Y55169D02*
X36220Y55042D01*
X33208Y55169D02*
X36093D01*
X33096Y55280D02*
X33208Y55169D01*
X33096Y55280D02*
Y55438D01*
X33208Y55550D01*
X34374D01*
X34493Y55669D01*
Y55837D01*
X34374Y55956D02*
X34493Y55837D01*
X33317Y55956D02*
X34374D01*
X33198Y56075D02*
X33317Y55956D01*
X33198Y56075D02*
Y56243D01*
X33317Y56363D01*
X34442D01*
X34569Y56490D01*
Y57099D01*
X34442Y57226D02*
X34569Y57099D01*
X33528Y57226D02*
X34442D01*
X33401Y57099D02*
X33528Y57226D01*
X33401Y56769D02*
Y57099D01*
X29362Y107925D02*
X29972Y107315D01*
Y99060D02*
Y107315D01*
Y99060D02*
X34036Y94996D01*
Y87376D02*
Y94996D01*
X38837Y57658D02*
X38989D01*
X38710Y57785D02*
X38837Y57658D01*
X38710Y57785D02*
Y58903D01*
X38583Y59030D02*
X38710Y58903D01*
X37897Y59030D02*
X38583D01*
X37770Y58903D02*
X37897Y59030D01*
X37770Y58559D02*
Y58903D01*
Y58559D02*
X37871Y58458D01*
X38286D01*
X38405Y58339D01*
Y58171D02*
Y58339D01*
X38286Y58051D02*
X38405Y58171D01*
X37871Y58051D02*
X38286D01*
X37770Y57950D02*
X37871Y58051D01*
X37770Y57747D02*
Y57950D01*
Y57747D02*
X37871Y57645D01*
X38413D01*
X38532Y57526D01*
Y57289D02*
Y57526D01*
X38405Y57162D02*
X38532Y57289D01*
X37610Y57162D02*
X38405D01*
X37490Y57043D02*
X37610Y57162D01*
X37490Y56875D02*
Y57043D01*
Y56875D02*
X37610Y56756D01*
X38489D01*
X38608Y56637D01*
Y56469D02*
Y56637D01*
X38489Y56350D02*
X38608Y56469D01*
X37610Y56350D02*
X38489D01*
X37490Y56231D02*
X37610Y56350D01*
X37490Y56062D02*
Y56231D01*
Y56062D02*
X37610Y55943D01*
X38489D01*
X38608Y55824D01*
Y55656D02*
Y55824D01*
X38489Y55537D02*
X38608Y55656D01*
X37617Y55537D02*
X38489D01*
X37490Y55410D02*
X37617Y55537D01*
X37490Y55220D02*
Y55410D01*
Y55220D02*
X37617Y55093D01*
X38456D01*
X38710Y54839D01*
X39294D01*
X39421Y54712D01*
Y53416D02*
Y54712D01*
Y53416D02*
X39548Y53289D01*
X39980D01*
X40564Y52705D01*
X41478D01*
X41707Y52476D01*
Y51486D02*
Y52476D01*
Y51486D02*
X41834Y51359D01*
X46711D01*
X46838Y51232D01*
Y51053D02*
Y51232D01*
X46711Y50927D02*
X46838Y51053D01*
X45618Y50927D02*
X46711D01*
X45491Y50800D02*
X45618Y50927D01*
X45491Y50571D02*
Y50800D01*
Y50571D02*
X45593Y50470D01*
X46718D01*
X46838Y50351D01*
Y50183D02*
Y50351D01*
X46718Y50063D02*
X46838Y50183D01*
X45593Y50063D02*
X46718D01*
X45491Y49962D02*
X45593Y50063D01*
X45491Y47955D02*
Y49962D01*
X43434Y45898D02*
X45491Y47955D01*
X43434Y43409D02*
Y45898D01*
X43307Y43282D02*
X43434Y43409D01*
X42062Y43282D02*
X43307D01*
X41935Y43155D02*
X42062Y43282D01*
X41935Y39903D02*
Y43155D01*
Y39903D02*
X42062Y39776D01*
X42241D01*
X42367Y39903D01*
Y40335D01*
X17145Y56134D02*
X23495D01*
X26035Y58674D01*
Y60370D01*
X28784Y63119D01*
X42164D01*
X45085Y60198D01*
X31877Y76454D02*
X32004Y76581D01*
Y77343D01*
X25273Y84074D02*
X32004Y77343D01*
X25273Y84074D02*
Y86487D01*
X17602Y94158D02*
X25273Y86487D01*
X9017Y94158D02*
X17602D01*
X7798Y92939D02*
X9017Y94158D01*
X7798Y92075D02*
Y92939D01*
X42545Y58776D02*
X43866D01*
X44044Y58598D01*
Y58039D02*
Y58598D01*
Y58039D02*
X44171Y57912D01*
X47092D01*
X47219Y57785D01*
Y57531D02*
Y57785D01*
X47092Y57404D02*
X47219Y57531D01*
X45314Y57404D02*
X47092D01*
X45187Y57277D02*
X45314Y57404D01*
X45187Y57023D02*
Y57277D01*
Y57023D02*
X45314Y56896D01*
X47092D01*
X47219Y56769D01*
Y54813D02*
Y56769D01*
Y54813D02*
X47346Y54686D01*
X50267D01*
X50394Y54559D01*
Y38252D02*
Y54559D01*
X50267Y38125D02*
X50394Y38252D01*
X47930Y38125D02*
X50267D01*
X47803Y37998D02*
X47930Y38125D01*
X47803Y26695D02*
Y37998D01*
X47676Y26568D02*
X47803Y26695D01*
X43790Y26568D02*
X47676D01*
X42799Y25578D02*
X43790Y26568D01*
X42393Y25578D02*
X42799D01*
X41910Y25095D02*
X42393Y25578D01*
X41910Y23978D02*
Y25095D01*
X41427Y23495D02*
X41910Y23978D01*
X40847Y23495D02*
X41427D01*
X40826Y23474D02*
X40847Y23495D01*
X32258Y15621D02*
X37363D01*
X30734Y14097D02*
X32258Y15621D01*
X18713Y14097D02*
X30734D01*
X18103Y14707D02*
X18713Y14097D01*
X15291Y14707D02*
X18103D01*
X12878Y17120D02*
X15291Y14707D01*
X12878Y17120D02*
Y31648D01*
X12040Y32487D02*
X12878Y31648D01*
X12040Y32487D02*
Y34036D01*
X47879Y61468D02*
X52388D01*
X42799Y66548D02*
X47879Y61468D01*
X35707Y66548D02*
X42799D01*
X34818Y67437D02*
X35707Y66548D01*
X13462Y67437D02*
X34818D01*
X7899Y61874D02*
X13462Y67437D01*
X7899Y61519D02*
Y61874D01*
X26619Y40513D02*
Y40843D01*
Y40513D02*
X26746Y40386D01*
X27178D01*
X27305Y40259D01*
Y40047D02*
Y40259D01*
X27178Y39920D02*
X27305Y40047D01*
X25019Y39920D02*
X27178D01*
X24892Y39793D02*
X25019Y39920D01*
X24892Y39641D02*
Y39793D01*
Y39641D02*
X25019Y39514D01*
X26848D01*
X26975Y39387D01*
Y39243D02*
Y39387D01*
X26848Y39116D02*
X26975Y39243D01*
X26035Y39116D02*
X26848D01*
X25908Y38989D02*
X26035Y39116D01*
X25908Y38735D02*
Y38989D01*
Y38735D02*
X26035Y38608D01*
X26848D01*
X26975Y38481D01*
Y38278D02*
Y38481D01*
X26848Y38151D02*
X26975Y38278D01*
X25951Y38151D02*
X26848D01*
X25832Y38032D02*
X25951Y38151D01*
X25832Y37864D02*
Y38032D01*
Y37864D02*
X25951Y37744D01*
X27168D01*
X27280Y37633D01*
Y37475D02*
Y37633D01*
X27168Y37363D02*
X27280Y37475D01*
X25857Y37363D02*
X27168D01*
X25730Y37236D02*
X25857Y37363D01*
X25730Y37033D02*
Y37236D01*
Y37033D02*
X25857Y36906D01*
X27179D01*
X27305Y36780D01*
Y36601D02*
Y36780D01*
X27179Y36474D02*
X27305Y36601D01*
X26568Y36474D02*
X27179D01*
X26441Y36347D02*
X26568Y36474D01*
X26441Y35509D02*
Y36347D01*
Y35509D02*
X26603Y35347D01*
X26747D01*
X27340Y35940D01*
X27484D01*
X27628Y35796D01*
Y35652D02*
Y35796D01*
X27035Y35060D02*
X27628Y35652D01*
X27035Y34916D02*
Y35060D01*
Y34916D02*
X27179Y34772D01*
X27322D01*
X27915Y35365D01*
X28059D01*
X28203Y35221D01*
Y35077D02*
Y35221D01*
X27610Y34485D02*
X28203Y35077D01*
X27610Y34341D02*
Y34485D01*
Y34341D02*
X27754Y34197D01*
X27897D01*
X28490Y34790D01*
X28634D01*
X28778Y34646D01*
Y34502D02*
Y34646D01*
X28185Y33910D02*
X28778Y34502D01*
X28185Y33766D02*
Y33910D01*
Y33766D02*
X29794Y32156D01*
X30683D01*
X30988Y31852D01*
X31547D01*
X31674Y31725D01*
Y29540D02*
Y31725D01*
Y29540D02*
X31801Y29413D01*
X32300D01*
X32427Y29286D01*
Y28753D02*
Y29286D01*
X32300Y28626D02*
X32427Y28753D01*
X31399Y28626D02*
X32300D01*
X31272Y28499D02*
X31399Y28626D01*
X31272Y28228D02*
Y28499D01*
X43332Y39141D02*
X43764D01*
X43866Y39243D01*
Y41707D01*
X43993Y41834D01*
X44602D01*
X44729Y41961D01*
Y42443D01*
X44856Y42570D01*
X47574D01*
X47701Y42697D01*
Y44018D01*
X47828Y44145D01*
X48260D01*
X48387Y44272D01*
Y52451D01*
X48260Y52578D02*
X48387Y52451D01*
X42901Y52578D02*
X48260D01*
X42774Y52705D02*
X42901Y52578D01*
X42774Y52705D02*
Y54254D01*
X42647Y54381D02*
X42774Y54254D01*
X41529Y54381D02*
X42647D01*
X41377Y54534D02*
X41529Y54381D01*
X41377Y54534D02*
Y55300D01*
X41478Y55402D01*
X42443D01*
X42545Y55503D01*
Y55707D01*
X42443Y55808D02*
X42545Y55707D01*
X41478Y55808D02*
X42443D01*
X41377Y55910D02*
X41478Y55808D01*
X41377Y55910D02*
Y56113D01*
X41478Y56215D01*
X42443D01*
X42545Y56316D01*
Y56519D01*
X42443Y56621D02*
X42545Y56519D01*
X41478Y56621D02*
X42443D01*
X41377Y56723D02*
X41478Y56621D01*
X41377Y56723D02*
Y57921D01*
X41250Y58048D02*
X41377Y57921D01*
X39116Y58048D02*
X41250D01*
X38989Y58175D02*
X39116Y58048D01*
X38989Y58175D02*
Y60503D01*
X39116Y60630D01*
X39319D01*
X39446Y60503D01*
Y58445D02*
Y60503D01*
Y58445D02*
X39573Y58318D01*
X39726D01*
X39853Y58445D01*
Y60528D01*
X39980Y60655D01*
X40183D01*
X40310Y60528D01*
Y59893D02*
Y60528D01*
Y59893D02*
X40437Y59766D01*
X41300D01*
X41427Y59639D01*
Y59486D02*
Y59639D01*
X41300Y59359D02*
X41427Y59486D01*
X40995Y59359D02*
X41300D01*
X52578Y70485D02*
X52832Y70231D01*
X52578Y70485D02*
Y89408D01*
X56134Y92964D01*
X56515D01*
X38447Y31428D02*
X38464D01*
X34925Y34950D02*
X38447Y31428D01*
X31344Y34950D02*
X34925D01*
X31217Y35077D02*
X31344Y34950D01*
X31217Y35077D02*
Y36678D01*
X31090Y36805D02*
X31217Y36678D01*
X30276Y36805D02*
X31090D01*
X30150Y36931D02*
X30276Y36805D01*
X30150Y36931D02*
Y37110D01*
X30276Y37236D01*
X31090D01*
X31217Y37363D01*
Y37490D01*
X31090Y37617D02*
X31217Y37490D01*
X29058Y37617D02*
X31090D01*
X28931Y37744D02*
X29058Y37617D01*
X28931Y37744D02*
Y37998D01*
X29058Y38125D01*
X30175D01*
X30302Y38252D01*
Y38481D01*
X30175Y38608D02*
X30302Y38481D01*
X29108Y38608D02*
X30175D01*
X28981Y38735D02*
X29108Y38608D01*
X28981Y38735D02*
Y39040D01*
X97503Y-49215D02*
X97430Y-49287D01*
X97503Y-49360D01*
X97575Y-49287D01*
X97503Y-49215D01*
X98997Y-48199D02*
X98925Y-48054D01*
X98780Y-47909D01*
X98634Y-47836D01*
X98344D01*
X98199Y-47909D01*
X98054Y-48054D01*
X97981Y-48199D01*
X97909Y-48417D01*
Y-48780D01*
X97981Y-48997D01*
X98054Y-49142D01*
X98199Y-49287D01*
X98344Y-49360D01*
X98634D01*
X98780Y-49287D01*
X98925Y-49142D01*
X98997Y-48997D01*
Y-48780D01*
X98634D02*
X98997D01*
X99345Y-48127D02*
X99491Y-48054D01*
X99708Y-47836D01*
Y-49360D01*
X55770Y-47686D02*
Y-49210D01*
X56641D01*
X57533Y-47686D02*
X56808Y-48702D01*
X57896D01*
X57533Y-47686D02*
Y-49210D01*
X60377Y-47904D02*
X60232Y-47759D01*
X60015Y-47686D01*
X59724D01*
X59507Y-47759D01*
X59362Y-47904D01*
Y-48049D01*
X59434Y-48194D01*
X59507Y-48267D01*
X59652Y-48339D01*
X60087Y-48484D01*
X60232Y-48557D01*
X60305Y-48630D01*
X60377Y-48775D01*
Y-48992D01*
X60232Y-49137D01*
X60015Y-49210D01*
X59724D01*
X59507Y-49137D01*
X59362Y-48992D01*
X60718Y-47686D02*
Y-49210D01*
X62126Y-48049D02*
X62053Y-47904D01*
X61908Y-47759D01*
X61763Y-47686D01*
X61473D01*
X61328Y-47759D01*
X61183Y-47904D01*
X61110Y-48049D01*
X61038Y-48267D01*
Y-48630D01*
X61110Y-48847D01*
X61183Y-48992D01*
X61328Y-49137D01*
X61473Y-49210D01*
X61763D01*
X61908Y-49137D01*
X62053Y-48992D01*
X62126Y-48847D01*
Y-48630D01*
X61763D02*
X62126D01*
X62474Y-47686D02*
Y-49210D01*
Y-47686D02*
X63490Y-49210D01*
Y-47686D02*
Y-49210D01*
X65072D02*
X64491Y-47686D01*
X63911Y-49210D01*
X64128Y-48702D02*
X64854D01*
X65427Y-47686D02*
Y-49210D01*
X66298D01*
D15*
X59746Y26797D02*
G03*
X60000Y27051I0J254D01*
G01*
X0Y29845D02*
G03*
X0Y41402I-25591J5779D01*
G01*
X60000Y16510D02*
G03*
X59746Y16764I-254J0D01*
G01*
X58713Y17018D02*
G03*
X58967Y16764I254J0D01*
G01*
Y26797D02*
G03*
X58713Y26543I0J-254D01*
G01*
X-90424Y-128016D02*
Y283464D01*
X458216D01*
Y-128016D02*
Y283464D01*
X-90424Y-128016D02*
X458216D01*
X183896Y275844D02*
Y283464D01*
Y-128016D02*
X188976Y-116586D01*
X178816D02*
X188976D01*
X178816D02*
X183896Y-128016D01*
Y-110236D01*
Y-121666D02*
X188976Y-116586D01*
X178816D02*
X183896Y-121666D01*
X450596Y176784D02*
X458216D01*
X450596Y77724D02*
X458216D01*
X450596Y-21336D02*
X458216D01*
X361696Y-128016D02*
Y-120396D01*
X272796Y-128016D02*
Y-120396D01*
X183896Y-128016D02*
Y-120396D01*
X94996Y-128016D02*
Y-120396D01*
X6096Y-128016D02*
Y-120396D01*
X361696Y275844D02*
Y283464D01*
X272796Y275844D02*
Y283464D01*
X94996Y275844D02*
Y283464D01*
X6096Y275844D02*
Y283464D01*
X-90424Y176784D02*
X-82804D01*
X-90424Y77724D02*
X-82804D01*
X-90424Y-21336D02*
X-82804D01*
X326136Y-120396D02*
X450596D01*
Y123444D01*
X-82804Y275844D02*
X450596D01*
Y82804D02*
Y275844D01*
Y123444D02*
Y219964D01*
X-82804Y-120396D02*
X326136D01*
X-82804D02*
Y275844D01*
X-90424Y-21336D02*
X-82804D01*
X450596Y77724D02*
X458216D01*
X361696Y275844D02*
Y283464D01*
X-90424Y176784D02*
X-82804D01*
X6096Y-128016D02*
Y-120396D01*
X450596Y-21336D02*
X458216D01*
X326136Y-120396D02*
X450596D01*
Y123444D01*
X-90424Y-128016D02*
Y283464D01*
X458216D01*
Y-128016D02*
Y283464D01*
X-90424Y-128016D02*
X458216D01*
X272796D02*
Y-120396D01*
X-82804D02*
Y275844D01*
X183896Y-128016D02*
Y-120396D01*
Y-121666D02*
X188976Y-116586D01*
X178816D02*
X183896Y-121666D01*
Y-128016D02*
X188976Y-116586D01*
X178816D02*
X188976D01*
X178816D02*
X183896Y-128016D01*
Y-110236D01*
X361696Y-128016D02*
Y-120396D01*
X-90424Y77724D02*
X-82804D01*
X272796Y275844D02*
Y283464D01*
X450596Y176784D02*
X458216D01*
X94996Y275844D02*
Y283464D01*
X183896Y275844D02*
Y283464D01*
X450596Y123444D02*
Y219964D01*
X-82804Y275844D02*
X450596D01*
Y82804D02*
Y275844D01*
X6096D02*
Y283464D01*
X-82804Y-120396D02*
X326136D01*
X94996Y-128016D02*
Y-120396D01*
X0Y41402D02*
Y127000D01*
X60000D01*
Y27051D02*
Y127000D01*
Y27051D02*
Y127000D01*
X0D02*
X60000D01*
X0Y41402D02*
Y127000D01*
Y0D02*
Y29845D01*
Y0D02*
X18917D01*
Y1785D01*
X19017Y1885D01*
X19667D01*
X19767Y1785D01*
Y0D02*
Y1785D01*
Y0D02*
X23667D01*
Y1785D01*
X23767Y1885D01*
X24417D01*
X24517Y1785D01*
Y0D02*
Y1785D01*
Y0D02*
X60000D01*
Y16510D01*
X58967Y16764D02*
X59746D01*
X58713Y17018D02*
Y26543D01*
X58967Y26797D02*
X59746D01*
X58967D02*
X59746D01*
D16*
X20066Y58547D02*
Y59944D01*
X18669Y58547D02*
Y59944D01*
X20066Y60579D02*
Y61976D01*
X18669Y60579D02*
Y61976D01*
X20066D01*
X18669Y59944D02*
X20066D01*
X18669Y60579D02*
X20066D01*
X18669Y58547D02*
X20066D01*
X453136Y223265D02*
Y219964D01*
Y223265D02*
X454236D01*
X454708Y223108D01*
X455022Y222794D01*
X455180Y222479D01*
X455337Y222008D01*
Y221222D01*
X455180Y220750D01*
X455022Y220436D01*
X454708Y220121D01*
X454236Y219964D01*
X453136D01*
X455494Y123419D02*
X455337Y123734D01*
X455022Y124048D01*
X454708Y124205D01*
X454079D01*
X453765Y124048D01*
X453450Y123734D01*
X453293Y123419D01*
X453136Y122948D01*
Y122162D01*
X453293Y121690D01*
X453450Y121376D01*
X453765Y121061D01*
X454079Y120904D01*
X454708D01*
X455022Y121061D01*
X455337Y121376D01*
X455494Y121690D01*
X453136Y30225D02*
Y26924D01*
Y30225D02*
X454551D01*
X455022Y30068D01*
X455180Y29911D01*
X455337Y29596D01*
Y29282D01*
X455180Y28968D01*
X455022Y28810D01*
X454551Y28653D01*
X453136D02*
X454551D01*
X455022Y28496D01*
X455180Y28339D01*
X455337Y28024D01*
Y27553D01*
X455180Y27238D01*
X455022Y27081D01*
X454551Y26924D01*
X453136D01*
X455651Y-79756D02*
X454394Y-76455D01*
X453136Y-79756D01*
X453608Y-78656D02*
X455180D01*
X407416Y-122804D02*
X407730Y-122646D01*
X408202Y-122175D01*
Y-125476D01*
X318673Y-122961D02*
Y-122804D01*
X318830Y-122489D01*
X318988Y-122332D01*
X319302Y-122175D01*
X319931D01*
X320245Y-122332D01*
X320402Y-122489D01*
X320560Y-122804D01*
Y-123118D01*
X320402Y-123432D01*
X320088Y-123904D01*
X318516Y-125476D01*
X320717D01*
X229930Y-122175D02*
X231660D01*
X230716Y-123432D01*
X231188D01*
X231502Y-123590D01*
X231660Y-123747D01*
X231817Y-124218D01*
Y-124533D01*
X231660Y-125004D01*
X231345Y-125319D01*
X230874Y-125476D01*
X230402D01*
X229930Y-125319D01*
X229773Y-125162D01*
X229616Y-124847D01*
X142288Y-122175D02*
X140716Y-124376D01*
X143074D01*
X142288Y-122175D02*
Y-125476D01*
X53702Y-122175D02*
X52130D01*
X51973Y-123590D01*
X52130Y-123432D01*
X52602Y-123275D01*
X53074D01*
X53545Y-123432D01*
X53860Y-123747D01*
X54017Y-124218D01*
Y-124533D01*
X53860Y-125004D01*
X53545Y-125319D01*
X53074Y-125476D01*
X52602D01*
X52130Y-125319D01*
X51973Y-125162D01*
X51816Y-124847D01*
X-35198Y-122646D02*
X-35355Y-122332D01*
X-35826Y-122175D01*
X-36141D01*
X-36612Y-122332D01*
X-36927Y-122804D01*
X-37084Y-123590D01*
Y-124376D01*
X-36927Y-125004D01*
X-36612Y-125319D01*
X-36141Y-125476D01*
X-35984D01*
X-35512Y-125319D01*
X-35198Y-125004D01*
X-35040Y-124533D01*
Y-124376D01*
X-35198Y-123904D01*
X-35512Y-123590D01*
X-35984Y-123432D01*
X-36141D01*
X-36612Y-123590D01*
X-36927Y-123904D01*
X-37084Y-124376D01*
X407416Y281056D02*
X407730Y281214D01*
X408202Y281685D01*
Y278384D01*
X318673Y280899D02*
Y281056D01*
X318830Y281371D01*
X318988Y281528D01*
X319302Y281685D01*
X319931D01*
X320245Y281528D01*
X320402Y281371D01*
X320560Y281056D01*
Y280742D01*
X320402Y280428D01*
X320088Y279956D01*
X318516Y278384D01*
X320717D01*
X229930Y281685D02*
X231660D01*
X230716Y280428D01*
X231188D01*
X231502Y280270D01*
X231660Y280113D01*
X231817Y279642D01*
Y279327D01*
X231660Y278856D01*
X231345Y278541D01*
X230874Y278384D01*
X230402D01*
X229930Y278541D01*
X229773Y278698D01*
X229616Y279013D01*
X142288Y281685D02*
X140716Y279484D01*
X143074D01*
X142288Y281685D02*
Y278384D01*
X53702Y281685D02*
X52130D01*
X51973Y280270D01*
X52130Y280428D01*
X52602Y280585D01*
X53074D01*
X53545Y280428D01*
X53860Y280113D01*
X54017Y279642D01*
Y279327D01*
X53860Y278856D01*
X53545Y278541D01*
X53074Y278384D01*
X52602D01*
X52130Y278541D01*
X51973Y278698D01*
X51816Y279013D01*
X-35198Y281214D02*
X-35355Y281528D01*
X-35826Y281685D01*
X-36141D01*
X-36612Y281528D01*
X-36927Y281056D01*
X-37084Y280270D01*
Y279484D01*
X-36927Y278856D01*
X-36612Y278541D01*
X-36141Y278384D01*
X-35984D01*
X-35512Y278541D01*
X-35198Y278856D01*
X-35040Y279327D01*
Y279484D01*
X-35198Y279956D01*
X-35512Y280270D01*
X-35984Y280428D01*
X-36141D01*
X-36612Y280270D01*
X-36927Y279956D01*
X-37084Y279484D01*
X-85369Y-79756D02*
X-86626Y-76455D01*
X-87884Y-79756D01*
X-87412Y-78656D02*
X-85840D01*
X-87884Y30225D02*
Y26924D01*
Y30225D02*
X-86469D01*
X-85998Y30068D01*
X-85840Y29911D01*
X-85683Y29596D01*
Y29282D01*
X-85840Y28968D01*
X-85998Y28810D01*
X-86469Y28653D01*
X-87884D02*
X-86469D01*
X-85998Y28496D01*
X-85840Y28339D01*
X-85683Y28024D01*
Y27553D01*
X-85840Y27238D01*
X-85998Y27081D01*
X-86469Y26924D01*
X-87884D01*
X-85526Y123419D02*
X-85683Y123734D01*
X-85998Y124048D01*
X-86312Y124205D01*
X-86941D01*
X-87255Y124048D01*
X-87570Y123734D01*
X-87727Y123419D01*
X-87884Y122948D01*
Y122162D01*
X-87727Y121690D01*
X-87570Y121376D01*
X-87255Y121061D01*
X-86941Y120904D01*
X-86312D01*
X-85998Y121061D01*
X-85683Y121376D01*
X-85526Y121690D01*
X-87884Y223265D02*
Y219964D01*
Y223265D02*
X-86784D01*
X-86312Y223108D01*
X-85998Y222794D01*
X-85840Y222479D01*
X-85683Y222008D01*
Y221222D01*
X-85840Y220750D01*
X-85998Y220436D01*
X-86312Y220121D01*
X-86784Y219964D01*
X-87884D01*
X-85369Y-79756D02*
X-86626Y-76455D01*
X-87884Y-79756D01*
X-87412Y-78656D02*
X-85840D01*
X453136Y223265D02*
Y219964D01*
Y223265D02*
X454236D01*
X454708Y223108D01*
X455022Y222794D01*
X455180Y222479D01*
X455337Y222008D01*
Y221222D01*
X455180Y220750D01*
X455022Y220436D01*
X454708Y220121D01*
X454236Y219964D01*
X453136D01*
X-85526Y123419D02*
X-85683Y123734D01*
X-85998Y124048D01*
X-86312Y124205D01*
X-86941D01*
X-87255Y124048D01*
X-87570Y123734D01*
X-87727Y123419D01*
X-87884Y122948D01*
Y122162D01*
X-87727Y121690D01*
X-87570Y121376D01*
X-87255Y121061D01*
X-86941Y120904D01*
X-86312D01*
X-85998Y121061D01*
X-85683Y121376D01*
X-85526Y121690D01*
X407416Y281056D02*
X407730Y281214D01*
X408202Y281685D01*
Y278384D01*
X53702Y-122175D02*
X52130D01*
X51973Y-123590D01*
X52130Y-123432D01*
X52602Y-123275D01*
X53074D01*
X53545Y-123432D01*
X53860Y-123747D01*
X54017Y-124218D01*
Y-124533D01*
X53860Y-125004D01*
X53545Y-125319D01*
X53074Y-125476D01*
X52602D01*
X52130Y-125319D01*
X51973Y-125162D01*
X51816Y-124847D01*
X455494Y123419D02*
X455337Y123734D01*
X455022Y124048D01*
X454708Y124205D01*
X454079D01*
X453765Y124048D01*
X453450Y123734D01*
X453293Y123419D01*
X453136Y122948D01*
Y122162D01*
X453293Y121690D01*
X453450Y121376D01*
X453765Y121061D01*
X454079Y120904D01*
X454708D01*
X455022Y121061D01*
X455337Y121376D01*
X455494Y121690D01*
X142288Y-122175D02*
X140716Y-124376D01*
X143074D01*
X142288Y-122175D02*
Y-125476D01*
X318673Y280899D02*
Y281056D01*
X318830Y281371D01*
X318988Y281528D01*
X319302Y281685D01*
X319931D01*
X320245Y281528D01*
X320402Y281371D01*
X320560Y281056D01*
Y280742D01*
X320402Y280428D01*
X320088Y279956D01*
X318516Y278384D01*
X320717D01*
X-35198Y281214D02*
X-35355Y281528D01*
X-35826Y281685D01*
X-36141D01*
X-36612Y281528D01*
X-36927Y281056D01*
X-37084Y280270D01*
Y279484D01*
X-36927Y278856D01*
X-36612Y278541D01*
X-36141Y278384D01*
X-35984D01*
X-35512Y278541D01*
X-35198Y278856D01*
X-35040Y279327D01*
Y279484D01*
X-35198Y279956D01*
X-35512Y280270D01*
X-35984Y280428D01*
X-36141D01*
X-36612Y280270D01*
X-36927Y279956D01*
X-37084Y279484D01*
X-87884Y223265D02*
Y219964D01*
Y223265D02*
X-86784D01*
X-86312Y223108D01*
X-85998Y222794D01*
X-85840Y222479D01*
X-85683Y222008D01*
Y221222D01*
X-85840Y220750D01*
X-85998Y220436D01*
X-86312Y220121D01*
X-86784Y219964D01*
X-87884D01*
X53702Y281685D02*
X52130D01*
X51973Y280270D01*
X52130Y280428D01*
X52602Y280585D01*
X53074D01*
X53545Y280428D01*
X53860Y280113D01*
X54017Y279642D01*
Y279327D01*
X53860Y278856D01*
X53545Y278541D01*
X53074Y278384D01*
X52602D01*
X52130Y278541D01*
X51973Y278698D01*
X51816Y279013D01*
X-35198Y-122646D02*
X-35355Y-122332D01*
X-35826Y-122175D01*
X-36141D01*
X-36612Y-122332D01*
X-36927Y-122804D01*
X-37084Y-123590D01*
Y-124376D01*
X-36927Y-125004D01*
X-36612Y-125319D01*
X-36141Y-125476D01*
X-35984D01*
X-35512Y-125319D01*
X-35198Y-125004D01*
X-35040Y-124533D01*
Y-124376D01*
X-35198Y-123904D01*
X-35512Y-123590D01*
X-35984Y-123432D01*
X-36141D01*
X-36612Y-123590D01*
X-36927Y-123904D01*
X-37084Y-124376D01*
X229930Y-122175D02*
X231660D01*
X230716Y-123432D01*
X231188D01*
X231502Y-123590D01*
X231660Y-123747D01*
X231817Y-124218D01*
Y-124533D01*
X231660Y-125004D01*
X231345Y-125319D01*
X230874Y-125476D01*
X230402D01*
X229930Y-125319D01*
X229773Y-125162D01*
X229616Y-124847D01*
X453136Y30225D02*
Y26924D01*
Y30225D02*
X454551D01*
X455022Y30068D01*
X455180Y29911D01*
X455337Y29596D01*
Y29282D01*
X455180Y28968D01*
X455022Y28810D01*
X454551Y28653D01*
X453136D02*
X454551D01*
X455022Y28496D01*
X455180Y28339D01*
X455337Y28024D01*
Y27553D01*
X455180Y27238D01*
X455022Y27081D01*
X454551Y26924D01*
X453136D01*
X229930Y281685D02*
X231660D01*
X230716Y280428D01*
X231188D01*
X231502Y280270D01*
X231660Y280113D01*
X231817Y279642D01*
Y279327D01*
X231660Y278856D01*
X231345Y278541D01*
X230874Y278384D01*
X230402D01*
X229930Y278541D01*
X229773Y278698D01*
X229616Y279013D01*
X455651Y-79756D02*
X454394Y-76455D01*
X453136Y-79756D01*
X453608Y-78656D02*
X455180D01*
X-87884Y30225D02*
Y26924D01*
Y30225D02*
X-86469D01*
X-85998Y30068D01*
X-85840Y29911D01*
X-85683Y29596D01*
Y29282D01*
X-85840Y28968D01*
X-85998Y28810D01*
X-86469Y28653D01*
X-87884D02*
X-86469D01*
X-85998Y28496D01*
X-85840Y28339D01*
X-85683Y28024D01*
Y27553D01*
X-85840Y27238D01*
X-85998Y27081D01*
X-86469Y26924D01*
X-87884D01*
X407416Y-122804D02*
X407730Y-122646D01*
X408202Y-122175D01*
Y-125476D01*
X142288Y281685D02*
X140716Y279484D01*
X143074D01*
X142288Y281685D02*
Y278384D01*
X318673Y-122961D02*
Y-122804D01*
X318830Y-122489D01*
X318988Y-122332D01*
X319302Y-122175D01*
X319931D01*
X320245Y-122332D01*
X320402Y-122489D01*
X320560Y-122804D01*
Y-123118D01*
X320402Y-123432D01*
X320088Y-123904D01*
X318516Y-125476D01*
X320717D01*
D36*
X46863Y20828D02*
D03*
X46736Y21463D02*
D03*
X44399Y26060D02*
D03*
X44221Y24982D02*
D03*
X44145Y31267D02*
D03*
X44069Y29718D02*
D03*
X43853Y26061D02*
D03*
X43683Y24982D02*
D03*
X43180Y52959D02*
D03*
X43155Y53569D02*
D03*
X43078Y25019D02*
D03*
X42955Y30710D02*
D03*
X42582Y23851D02*
D03*
Y23051D02*
D03*
X42582Y22223D02*
D03*
X42545Y58776D02*
D03*
X42520Y25121D02*
D03*
X42426Y33028D02*
D03*
Y29028D02*
D03*
X42393Y29871D02*
D03*
X42172Y53649D02*
D03*
X42113Y59360D02*
D03*
X41732Y54737D02*
D03*
X41626Y33028D02*
D03*
Y29828D02*
D03*
Y29028D02*
D03*
Y27428D02*
D03*
X41372Y58403D02*
D03*
Y53649D02*
D03*
X40995Y59359D02*
D03*
X40869Y25874D02*
D03*
X40826Y24274D02*
D03*
Y23474D02*
D03*
Y33028D02*
D03*
Y32228D02*
D03*
Y30628D02*
D03*
Y29028D02*
D03*
Y28228D02*
D03*
X40640Y57658D02*
D03*
X40589Y53645D02*
D03*
X40572Y58403D02*
D03*
Y52049D02*
D03*
X40056Y27444D02*
D03*
Y25832D02*
D03*
X40030Y23442D02*
D03*
Y31428D02*
D03*
Y26670D02*
D03*
X40026Y25074D02*
D03*
Y24274D02*
D03*
Y22674D02*
D03*
Y32228D02*
D03*
Y29028D02*
D03*
Y28228D02*
D03*
X40005Y29845D02*
D03*
X39787Y52882D02*
D03*
X39772Y52049D02*
D03*
X39766Y57643D02*
D03*
X39370Y56693D02*
D03*
X39264Y31428D02*
D03*
X39260Y29062D02*
D03*
X39255Y28245D02*
D03*
X39243Y24232D02*
D03*
Y21844D02*
D03*
Y29845D02*
D03*
Y25832D02*
D03*
X39238Y22617D02*
D03*
X39226Y25074D02*
D03*
Y23474D02*
D03*
Y30628D02*
D03*
Y27428D02*
D03*
X38989Y57658D02*
D03*
Y53594D02*
D03*
X38972Y52849D02*
D03*
X38964Y54458D02*
D03*
X38595Y59385D02*
D03*
X38464Y31428D02*
D03*
X38445Y22702D02*
D03*
X38430Y24257D02*
D03*
Y25832D02*
D03*
X38426Y25074D02*
D03*
Y23474D02*
D03*
Y21874D02*
D03*
Y30628D02*
D03*
Y29828D02*
D03*
Y29028D02*
D03*
Y28228D02*
D03*
Y27428D02*
D03*
X38354Y20993D02*
D03*
Y54686D02*
D03*
X38176Y52019D02*
D03*
X37744Y51435D02*
D03*
X37672Y25874D02*
D03*
X37665Y22681D02*
D03*
X37664Y31428D02*
D03*
X37626Y25074D02*
D03*
Y24274D02*
D03*
Y23474D02*
D03*
Y21874D02*
D03*
Y30628D02*
D03*
Y29828D02*
D03*
Y29028D02*
D03*
X37414Y52832D02*
D03*
X37389Y57607D02*
D03*
X37372Y58403D02*
D03*
X37363Y19507D02*
D03*
X36855Y55524D02*
D03*
X36641Y55028D02*
D03*
X36614Y56845D02*
D03*
X36599Y53668D02*
D03*
X36576Y59258D02*
D03*
Y58445D02*
D03*
X36566Y57642D02*
D03*
X36072Y25074D02*
D03*
Y24274D02*
D03*
Y23474D02*
D03*
Y22674D02*
D03*
Y21874D02*
D03*
Y32228D02*
D03*
Y30628D02*
D03*
Y29828D02*
D03*
Y29028D02*
D03*
X36068Y31471D02*
D03*
X35839Y55905D02*
D03*
X35814Y57658D02*
D03*
Y56769D02*
D03*
X35789Y52823D02*
D03*
X35763Y52019D02*
D03*
X35757Y58434D02*
D03*
X35272Y25074D02*
D03*
Y24274D02*
D03*
Y33028D02*
D03*
Y32228D02*
D03*
Y30628D02*
D03*
Y29828D02*
D03*
Y29028D02*
D03*
X35255Y23444D02*
D03*
X35246Y22687D02*
D03*
X35234Y28228D02*
D03*
Y27428D02*
D03*
X34950Y55677D02*
D03*
X34492Y21846D02*
D03*
X34472Y25074D02*
D03*
Y24274D02*
D03*
Y23474D02*
D03*
Y22674D02*
D03*
Y33028D02*
D03*
Y32228D02*
D03*
Y31428D02*
D03*
Y30628D02*
D03*
Y29828D02*
D03*
Y29028D02*
D03*
Y25874D02*
D03*
X34434Y28228D02*
D03*
Y27428D02*
D03*
X34392Y59741D02*
D03*
X34218Y58403D02*
D03*
X34198Y57582D02*
D03*
X34188Y56845D02*
D03*
X34172Y53649D02*
D03*
X33833Y20921D02*
D03*
X33672Y25074D02*
D03*
Y24274D02*
D03*
Y23474D02*
D03*
Y22674D02*
D03*
Y32228D02*
D03*
Y31428D02*
D03*
Y30628D02*
D03*
Y29828D02*
D03*
Y29028D02*
D03*
Y25874D02*
D03*
X33655Y28270D02*
D03*
X33631Y21869D02*
D03*
X33630Y27435D02*
D03*
X33414Y53607D02*
D03*
X33401Y58420D02*
D03*
Y56769D02*
D03*
Y52832D02*
D03*
X33388Y57632D02*
D03*
X33249Y20918D02*
D03*
Y33195D02*
D03*
X32903Y30623D02*
D03*
X32872Y25074D02*
D03*
Y24274D02*
D03*
Y23474D02*
D03*
Y22674D02*
D03*
Y32228D02*
D03*
Y31428D02*
D03*
Y29845D02*
D03*
Y27428D02*
D03*
Y25874D02*
D03*
X32867Y29078D02*
D03*
X32765Y33551D02*
D03*
X32639Y52832D02*
D03*
Y51435D02*
D03*
X32618Y53649D02*
D03*
Y52049D02*
D03*
X32561Y57578D02*
D03*
X32530Y58442D02*
D03*
X32072Y25074D02*
D03*
Y24274D02*
D03*
Y23474D02*
D03*
Y22674D02*
D03*
Y21874D02*
D03*
Y21074D02*
D03*
Y33028D02*
D03*
Y32228D02*
D03*
Y31428D02*
D03*
Y29828D02*
D03*
Y29028D02*
D03*
Y28228D02*
D03*
Y27428D02*
D03*
Y25874D02*
D03*
X31876Y58422D02*
D03*
X31828Y53674D02*
D03*
X31818Y56849D02*
D03*
X31776Y52806D02*
D03*
X31765Y57641D02*
D03*
X31272Y25074D02*
D03*
Y24274D02*
D03*
Y22674D02*
D03*
Y21874D02*
D03*
Y21074D02*
D03*
Y32228D02*
D03*
Y31428D02*
D03*
Y28228D02*
D03*
Y27428D02*
D03*
Y25874D02*
D03*
X30988Y58445D02*
D03*
Y54574D02*
D03*
X30963Y57633D02*
D03*
X30940Y55601D02*
D03*
X30764Y33536D02*
D03*
X30472Y21874D02*
D03*
Y21074D02*
D03*
Y31428D02*
D03*
X30242Y23749D02*
D03*
X30226Y30251D02*
D03*
X30218Y53649D02*
D03*
Y52849D02*
D03*
X30201Y51943D02*
D03*
X29591Y30251D02*
D03*
X29185Y19964D02*
D03*
X27976Y27610D02*
D03*
D47*
X18288Y7211D02*
X18565Y6934D01*
X21514D01*
X22860Y8280D01*
X28067Y110871D02*
Y117602D01*
Y110871D02*
X30607Y108331D01*
Y99187D02*
Y108331D01*
Y99187D02*
X33274Y96520D01*
X35865D01*
X38481Y93904D01*
Y93218D02*
Y93904D01*
X9601Y91516D02*
X13106Y88011D01*
Y82880D02*
Y88011D01*
X11989Y81763D02*
X13106Y82880D01*
X11989Y80239D02*
Y81763D01*
X9398Y77648D02*
X11989Y80239D01*
X9398Y72771D02*
Y77648D01*
X7950Y71323D02*
X9398Y72771D01*
X7950Y65481D02*
Y71323D01*
X6325Y63856D02*
X7950Y65481D01*
X6325Y60528D02*
Y63856D01*
Y60528D02*
X7620Y59233D01*
Y55372D02*
Y59233D01*
Y55372D02*
X8255Y54737D01*
X19177D01*
X21082Y52832D01*
Y47904D02*
Y52832D01*
X19914Y46736D02*
X21082Y47904D01*
X19304Y46736D02*
X19914D01*
X17348Y44780D02*
X19304Y46736D01*
X17348Y37160D02*
Y44780D01*
Y37160D02*
X19456Y35052D01*
X20193D01*
X20828Y34417D01*
Y33655D02*
Y34417D01*
Y33655D02*
X22339Y32144D01*
Y32017D02*
Y32144D01*
X50546Y122174D02*
X50673Y122047D01*
Y121158D02*
Y122047D01*
Y121158D02*
X55245Y116586D01*
Y97790D02*
Y116586D01*
X52095Y94640D02*
X55245Y97790D01*
X49809Y94640D02*
X52095D01*
X49530Y94361D02*
X49809Y94640D01*
X50546Y124079D02*
X50927D01*
X51816Y123190D01*
Y121285D02*
Y123190D01*
Y121285D02*
X56134Y116967D01*
Y97409D02*
Y116967D01*
X50165Y91440D02*
X56134Y97409D01*
X48895Y91440D02*
X50165D01*
X47752Y90297D02*
X48895Y91440D01*
X47752Y89637D02*
Y90297D01*
X53975Y25146D02*
Y31242D01*
X52476Y23647D02*
X53975Y25146D01*
X52476Y19964D02*
Y23647D01*
X51308Y18796D02*
X52476Y19964D01*
X51308Y18669D02*
Y18796D01*
X47371Y83947D02*
X49085Y85661D01*
X47371Y77470D02*
Y83947D01*
X41275Y71374D02*
X47371Y77470D01*
X38354Y71374D02*
X41275D01*
X37973Y71755D02*
X38354Y71374D01*
X56261Y47752D02*
Y90170D01*
X57531Y91440D01*
Y97917D01*
X56896Y98552D02*
X57531Y97917D01*
X56134Y24117D02*
X56502D01*
X57531Y25146D01*
Y29210D01*
X58166Y29845D01*
Y44196D01*
X56261Y46101D02*
X58166Y44196D01*
X56261Y46101D02*
Y47752D01*
X53086Y110744D02*
Y116205D01*
X52578Y116713D02*
X53086Y116205D01*
X33401Y116713D02*
X52578D01*
X31115Y114427D02*
X33401Y116713D01*
X31115Y113411D02*
Y114427D01*
X48743Y26010D02*
Y30886D01*
X46101Y23368D02*
X48743Y26010D01*
X46101Y20764D02*
Y23368D01*
Y20764D02*
X47815Y19050D01*
X47879D01*
X49530Y93599D02*
Y94361D01*
X10033Y58547D02*
X10287Y58293D01*
X10033Y58547D02*
Y61976D01*
X10922Y62865D01*
X20320D01*
X22479Y65024D01*
X41910D01*
X51054Y55880D01*
Y35750D02*
Y55880D01*
X47752Y86106D02*
Y89637D01*
X46355Y84709D02*
X47752Y86106D01*
X46355Y77978D02*
Y84709D01*
X40767Y72390D02*
X46355Y77978D01*
X39624Y72390D02*
X40767D01*
X43078Y24409D02*
Y25019D01*
Y24409D02*
X43307Y24181D01*
Y19152D02*
Y24181D01*
Y19152D02*
X44907Y17551D01*
X45720Y89611D02*
Y89662D01*
X48616Y92558D01*
Y94717D01*
X49352Y95453D01*
X51765D01*
X54483Y98171D01*
Y115951D01*
X50546Y119888D02*
X54483Y115951D01*
X50546Y119888D02*
Y120015D01*
D48*
X40640Y22098D02*
Y22733D01*
X40513Y22860D02*
X40640Y22733D01*
X38430Y24257D02*
X38858Y23830D01*
X40640Y21666D02*
Y22098D01*
Y21666D02*
X41859Y20447D01*
D53*
X68867Y-47505D02*
X67960Y-48775D01*
X69320D01*
X68867Y-47505D02*
Y-49410D01*
D54*
X7620Y16510D02*
D03*
Y21590D02*
D03*
D55*
X4953Y102108D02*
D03*
X11953D02*
D03*
D56*
X9271Y31242D02*
D03*
Y38792D02*
D03*
D57*
X25867Y1280D02*
D03*
X17567D02*
D03*
D58*
X19442Y4460D02*
D03*
X23992D02*
D03*
D59*
X29118Y122151D02*
D03*
X33518D02*
D03*
D61*
X31496Y84836D02*
D03*
Y87376D02*
D03*
X34036Y84836D02*
D03*
Y87376D02*
D03*
X36576D02*
D03*
D63*
X25273Y31509D02*
D03*
X25019Y96012D02*
D03*
X24912Y99207D02*
D03*
X24663Y113081D02*
D03*
X24384Y38354D02*
D03*
X24130Y35179D02*
D03*
X24003Y82550D02*
D03*
Y81788D02*
D03*
Y80899D02*
D03*
Y33528D02*
D03*
X23931Y125802D02*
D03*
X23876Y50800D02*
D03*
X23749Y95631D02*
D03*
Y53696D02*
D03*
X23470Y11570D02*
D03*
X23368Y47879D02*
D03*
Y35179D02*
D03*
X23290Y84709D02*
D03*
X23114Y82550D02*
D03*
Y80899D02*
D03*
X23109Y81765D02*
D03*
X23017Y5334D02*
D03*
X22860Y8280D02*
D03*
Y53721D02*
D03*
Y31496D02*
D03*
X22479Y95885D02*
D03*
Y86360D02*
D03*
X22339Y32017D02*
D03*
X22174Y46736D02*
D03*
X22098Y51562D02*
D03*
Y50241D02*
D03*
Y49276D02*
D03*
X21565Y27813D02*
D03*
X21336Y111125D02*
D03*
X21209Y95885D02*
D03*
Y45644D02*
D03*
X21125Y113919D02*
D03*
X21082Y94996D02*
D03*
X20955Y124968D02*
D03*
X20828Y93091D02*
D03*
X20701Y106934D02*
D03*
X20447Y7620D02*
D03*
X20320Y24257D02*
D03*
X20193Y10033D02*
D03*
X20066Y11938D02*
D03*
Y73914D02*
D03*
Y73152D02*
D03*
X20041Y19202D02*
D03*
X19990Y112446D02*
D03*
X19964Y22301D02*
D03*
X19939Y34290D02*
D03*
X19788Y35790D02*
D03*
X19558Y78232D02*
D03*
X19431Y114427D02*
D03*
X19329Y108509D02*
D03*
X19177Y73914D02*
D03*
Y73152D02*
D03*
X18669Y94869D02*
D03*
X18415Y106553D02*
D03*
X18288Y124968D02*
D03*
Y8070D02*
D03*
Y7211D02*
D03*
X18161Y78232D02*
D03*
X18148Y44536D02*
D03*
X18136Y41986D02*
D03*
X18059Y34874D02*
D03*
X18058Y39083D02*
D03*
X18057Y40482D02*
D03*
X18034Y37465D02*
D03*
X17932Y103581D02*
D03*
X17907Y107696D02*
D03*
Y66294D02*
D03*
X17729Y93218D02*
D03*
Y90932D02*
D03*
X17379Y81808D02*
D03*
X17272Y11227D02*
D03*
X17018Y92837D02*
D03*
X16969Y89388D02*
D03*
X16764Y96774D02*
D03*
X16612Y32029D02*
D03*
X16510Y78842D02*
D03*
X16434Y20980D02*
D03*
X16383Y24765D02*
D03*
Y11227D02*
D03*
X15748Y95377D02*
D03*
X15723Y117678D02*
D03*
X15561Y77038D02*
D03*
X15367Y123546D02*
D03*
X15291Y76352D02*
D03*
X15037Y22860D02*
D03*
X14931Y125802D02*
D03*
X14920Y11049D02*
D03*
X14735Y77035D02*
D03*
X14478Y111125D02*
D03*
Y78613D02*
D03*
X14402Y76378D02*
D03*
X14351Y95377D02*
D03*
X14224Y65913D02*
D03*
Y65151D02*
D03*
X14199Y64389D02*
D03*
X14122Y117348D02*
D03*
X13970Y8636D02*
D03*
X13939Y77000D02*
D03*
X13843Y79629D02*
D03*
X13589Y5715D02*
D03*
Y4953D02*
D03*
X13462Y65913D02*
D03*
Y65151D02*
D03*
Y64389D02*
D03*
Y41275D02*
D03*
X13208Y120269D02*
D03*
X13081Y124841D02*
D03*
Y92837D02*
D03*
Y79121D02*
D03*
Y38217D02*
D03*
Y36017D02*
D03*
X12954Y122301D02*
D03*
X12827Y89916D02*
D03*
Y5715D02*
D03*
Y4953D02*
D03*
X12370Y76378D02*
D03*
X12319Y12446D02*
D03*
X12192Y120117D02*
D03*
X11989Y77013D02*
D03*
X11811Y125984D02*
D03*
Y95123D02*
D03*
X11608Y76378D02*
D03*
X11430Y84582D02*
D03*
X11422Y87681D02*
D03*
X11100Y77013D02*
D03*
X10795Y120117D02*
D03*
X10719Y76378D02*
D03*
X10541Y20320D02*
D03*
X10414Y1905D02*
D03*
Y84582D02*
D03*
Y2794D02*
D03*
X10160Y123825D02*
D03*
Y50139D02*
D03*
X10097Y111062D02*
D03*
X10084Y41275D02*
D03*
X9652Y1905D02*
D03*
Y2794D02*
D03*
X9601Y86868D02*
D03*
X9271Y123190D02*
D03*
X9169Y88519D02*
D03*
X8636Y45466D02*
D03*
X8534Y44628D02*
D03*
X8255Y14478D02*
D03*
X7620Y109601D02*
D03*
X7493Y80416D02*
D03*
X7366Y10414D02*
D03*
X6731Y69342D02*
D03*
X5994Y86995D02*
D03*
X59182Y107442D02*
D03*
X58801Y102362D02*
D03*
X58699Y110767D02*
D03*
X58674Y83820D02*
D03*
X58420Y109347D02*
D03*
Y78486D02*
D03*
X56642Y94996D02*
D03*
Y28067D02*
D03*
X56226Y22317D02*
D03*
Y21117D02*
D03*
Y19917D02*
D03*
Y18117D02*
D03*
X55499Y29464D02*
D03*
X54102Y23517D02*
D03*
Y70231D02*
D03*
X53594Y93345D02*
D03*
X5334Y74397D02*
D03*
X53086Y19431D02*
D03*
Y110744D02*
D03*
X52705Y29591D02*
D03*
X52426Y35839D02*
D03*
X51584Y4318D02*
D03*
X51460Y96215D02*
D03*
X51232Y24765D02*
D03*
X50648Y25730D02*
D03*
X50546Y22860D02*
D03*
Y124079D02*
D03*
Y122174D02*
D03*
Y120015D02*
D03*
X50419Y18669D02*
D03*
X50215Y72771D02*
D03*
X50038Y55347D02*
D03*
X49809Y4369D02*
D03*
X49759Y6807D02*
D03*
X49530Y94361D02*
D03*
Y93599D02*
D03*
Y92583D02*
D03*
X49403Y18644D02*
D03*
X49022Y70993D02*
D03*
Y70104D02*
D03*
X48743Y30886D02*
D03*
X48641Y3683D02*
D03*
X48387Y75565D02*
D03*
Y74803D02*
D03*
X48133Y117475D02*
D03*
Y70993D02*
D03*
Y70104D02*
D03*
X48108Y5613D02*
D03*
X47955Y23368D02*
D03*
X47879Y19050D02*
D03*
X47752Y17069D02*
D03*
Y89637D02*
D03*
X47625Y16256D02*
D03*
Y75565D02*
D03*
Y74803D02*
D03*
X47473Y38481D02*
D03*
X47244Y70993D02*
D03*
Y70104D02*
D03*
X47168Y23343D02*
D03*
X47117Y36271D02*
D03*
X46736Y54991D02*
D03*
X45974Y58547D02*
D03*
Y55753D02*
D03*
X45923Y32334D02*
D03*
X45720Y89611D02*
D03*
X45568Y54051D02*
D03*
X45212Y58547D02*
D03*
X44958Y55753D02*
D03*
X44907Y17551D02*
D03*
X44069Y37795D02*
D03*
X4381Y111062D02*
D03*
X43586Y48514D02*
D03*
X43561Y49530D02*
D03*
X43180Y95758D02*
D03*
X41402Y37795D02*
D03*
X41300Y61595D02*
D03*
X41148Y117856D02*
D03*
X4064Y109474D02*
D03*
X40513Y117475D02*
D03*
Y63627D02*
D03*
X39624Y72390D02*
D03*
X38735Y37846D02*
D03*
X38608Y118453D02*
D03*
X38557Y61595D02*
D03*
X38456Y62611D02*
D03*
X38303Y48514D02*
D03*
X38252Y49555D02*
D03*
X37719Y73279D02*
D03*
X36830Y63627D02*
D03*
X36703Y61595D02*
D03*
X36678Y62611D02*
D03*
X36449Y37846D02*
D03*
X36068Y15113D02*
D03*
X35814Y72771D02*
D03*
Y69215D02*
D03*
Y63881D02*
D03*
X35052Y63627D02*
D03*
Y62611D02*
D03*
Y61595D02*
D03*
X34519Y49733D02*
D03*
X34493Y48666D02*
D03*
X34036Y63627D02*
D03*
X33655Y66929D02*
D03*
X33401Y61574D02*
D03*
X33350Y62636D02*
D03*
X33325Y14910D02*
D03*
X33249Y37156D02*
D03*
X33020Y106172D02*
D03*
Y101854D02*
D03*
X32918Y120752D02*
D03*
X32893Y103124D02*
D03*
X32639Y124968D02*
D03*
X32512Y18796D02*
D03*
X32080Y37171D02*
D03*
X31877Y116840D02*
D03*
X31623Y99314D02*
D03*
Y96012D02*
D03*
Y62636D02*
D03*
Y61595D02*
D03*
X31369Y109220D02*
D03*
X31242Y5588D02*
D03*
X31115Y113411D02*
D03*
X30480Y96266D02*
D03*
X30353Y12192D02*
D03*
X29718Y111506D02*
D03*
Y10338D02*
D03*
Y840D02*
D03*
X29591Y15367D02*
D03*
Y12192D02*
D03*
Y37084D02*
D03*
X29337Y84455D02*
D03*
Y83693D02*
D03*
X29312Y95834D02*
D03*
X29007Y91846D02*
D03*
X28829Y111506D02*
D03*
X28575Y84455D02*
D03*
Y83693D02*
D03*
Y6858D02*
D03*
Y4318D02*
D03*
X28461Y14605D02*
D03*
X28412Y107986D02*
D03*
X28194Y9957D02*
D03*
Y2540D02*
D03*
X28016Y18339D02*
D03*
X27813Y84455D02*
D03*
Y83693D02*
D03*
X27737Y55651D02*
D03*
X27686Y95758D02*
D03*
X27559Y58674D02*
D03*
Y52832D02*
D03*
X27102Y5715D02*
D03*
X27068Y117619D02*
D03*
X26924Y91821D02*
D03*
X26543Y58674D02*
D03*
Y52832D02*
D03*
X26162Y95758D02*
D03*
X25654Y56642D02*
D03*
X25603Y18136D02*
D03*
X25531Y21590D02*
D03*
Y20320D02*
D03*
Y26543D02*
D03*
X25527Y25260D02*
D03*
Y24105D02*
D03*
Y22860D02*
D03*
X25502Y19054D02*
D03*
X25446Y119426D02*
D03*
X25412Y102096D02*
D03*
X25400Y124968D02*
D03*
D64*
X25150Y30289D02*
D03*
X25146Y29654D02*
D03*
X24954Y28257D02*
D03*
X24912Y108184D02*
D03*
X24765Y112395D02*
D03*
X24320Y114681D02*
D03*
X24232Y29604D02*
D03*
X24130Y23851D02*
D03*
Y17297D02*
D03*
X23876Y102108D02*
D03*
Y6858D02*
D03*
X23749Y44450D02*
D03*
X2375Y52451D02*
D03*
Y51689D02*
D03*
X23622Y45339D02*
D03*
X23153Y102152D02*
D03*
X23139Y7595D02*
D03*
X22606Y17272D02*
D03*
X22454Y42037D02*
D03*
X21768Y38684D02*
D03*
X21730Y10163D02*
D03*
X21717Y110236D02*
D03*
X21641Y29642D02*
D03*
X21387Y42012D02*
D03*
X21336Y41199D02*
D03*
X21285Y112395D02*
D03*
X21209Y30607D02*
D03*
X21069Y10147D02*
D03*
X20574Y37795D02*
D03*
X20523Y38456D02*
D03*
X20475Y103152D02*
D03*
X20472Y41961D02*
D03*
X20447Y115976D02*
D03*
X19939Y50139D02*
D03*
X19875Y47599D02*
D03*
X19851Y48869D02*
D03*
X18898Y119634D02*
D03*
X18796Y30861D02*
D03*
Y30226D02*
D03*
X18288Y104652D02*
D03*
X18161Y12497D02*
D03*
X17780Y87249D02*
D03*
Y85598D02*
D03*
Y83947D02*
D03*
X17145Y56134D02*
D03*
X17018Y115951D02*
D03*
X16510Y13589D02*
D03*
X16129Y124587D02*
D03*
Y111125D02*
D03*
Y87249D02*
D03*
Y85598D02*
D03*
Y83947D02*
D03*
X15240Y81788D02*
D03*
X14605Y85598D02*
D03*
X14478Y87249D02*
D03*
Y83947D02*
D03*
X13970Y14986D02*
D03*
X13462Y32639D02*
D03*
X13437Y33274D02*
D03*
X13335Y34036D02*
D03*
X13144Y81534D02*
D03*
X12929Y38961D02*
D03*
X12319Y11049D02*
D03*
Y83348D02*
D03*
X12294Y39014D02*
D03*
X12065Y34798D02*
D03*
X12040Y34036D02*
D03*
X11811Y93218D02*
D03*
X11557Y64389D02*
D03*
X11049Y83160D02*
D03*
X10795Y65405D02*
D03*
X10541Y119253D02*
D03*
X10312Y46329D02*
D03*
X10288Y47600D02*
D03*
X10287Y58293D02*
D03*
Y48869D02*
D03*
X9754Y79629D02*
D03*
X9601Y91516D02*
D03*
X9093Y83363D02*
D03*
Y82169D02*
D03*
X8763Y65151D02*
D03*
X8407Y82118D02*
D03*
X8382Y56261D02*
D03*
Y55626D02*
D03*
X8001Y77216D02*
D03*
X7899Y61519D02*
D03*
Y60833D02*
D03*
X7874Y76581D02*
D03*
X7798Y92075D02*
D03*
X7747Y85598D02*
D03*
Y75565D02*
D03*
X7722Y86233D02*
D03*
X7620Y73000D02*
D03*
X7556Y93345D02*
D03*
Y63881D02*
D03*
X6960Y60909D02*
D03*
X6350Y82677D02*
D03*
X57277Y43434D02*
D03*
X56896Y98552D02*
D03*
X56642Y94107D02*
D03*
X56515Y92964D02*
D03*
X56261Y19050D02*
D03*
Y47752D02*
D03*
X56134Y24892D02*
D03*
Y24117D02*
D03*
X54381Y61189D02*
D03*
X54229Y46101D02*
D03*
X54102Y54991D02*
D03*
Y35750D02*
D03*
X53975Y57531D02*
D03*
Y31242D02*
D03*
X53848Y80899D02*
D03*
Y80010D02*
D03*
Y79248D02*
D03*
X53594Y92456D02*
D03*
X53569Y46101D02*
D03*
X53543Y45466D02*
D03*
X53349Y20847D02*
D03*
Y20186D02*
D03*
X53340Y62611D02*
D03*
X53197Y23247D02*
D03*
Y22586D02*
D03*
X52832Y70231D02*
D03*
X52388Y61468D02*
D03*
X51308Y18669D02*
D03*
X51181Y8255D02*
D03*
X51054Y35750D02*
D03*
X51052Y22047D02*
D03*
Y21387D02*
D03*
X50292Y58801D02*
D03*
X4953Y70612D02*
D03*
Y67691D02*
D03*
X49403Y117729D02*
D03*
X49085Y85661D02*
D03*
X48387Y40640D02*
D03*
Y37465D02*
D03*
X48063Y14789D02*
D03*
X47676Y55220D02*
D03*
X47625Y62865D02*
D03*
X47269Y43891D02*
D03*
Y43028D02*
D03*
X47117Y5461D02*
D03*
X47015Y45288D02*
D03*
X4699Y58674D02*
D03*
X46431Y30607D02*
D03*
X46355Y5461D02*
D03*
X46203Y25679D02*
D03*
X46076Y33299D02*
D03*
X45974Y40513D02*
D03*
Y39497D02*
D03*
X45085Y60198D02*
D03*
X44958Y40513D02*
D03*
X44933Y39624D02*
D03*
X44856Y11659D02*
D03*
X44831Y18974D02*
D03*
X44298Y16282D02*
D03*
X44069Y35306D02*
D03*
X43332Y39141D02*
D03*
X43231Y11811D02*
D03*
X43180Y10795D02*
D03*
X43053Y14732D02*
D03*
X42545Y5461D02*
D03*
X42418Y14986D02*
D03*
X42393Y38964D02*
D03*
X42367Y41021D02*
D03*
Y40335D02*
D03*
X42291Y19583D02*
D03*
X41859Y20447D02*
D03*
X41783Y14351D02*
D03*
X41402Y38532D02*
D03*
Y35306D02*
D03*
X40615Y16053D02*
D03*
X40589Y15392D02*
D03*
X39878Y11303D02*
D03*
Y5461D02*
D03*
X39370Y95250D02*
D03*
Y40996D02*
D03*
X39116Y19431D02*
D03*
X38735Y35306D02*
D03*
X38481Y93218D02*
D03*
Y92456D02*
D03*
X38227Y41986D02*
D03*
Y41021D02*
D03*
X37973Y71755D02*
D03*
X37363Y18758D02*
D03*
Y15621D02*
D03*
X37338Y10490D02*
D03*
Y5588D02*
D03*
X37211Y41046D02*
D03*
X37186Y42037D02*
D03*
X36449Y35306D02*
D03*
X36170Y40919D02*
D03*
X36144Y39192D02*
D03*
X36119Y14326D02*
D03*
X3556Y53594D02*
D03*
X35433Y76327D02*
D03*
X35128Y10795D02*
D03*
X34823Y5563D02*
D03*
X34722Y40919D02*
D03*
X34569Y39167D02*
D03*
X34493Y18542D02*
D03*
X34290Y14859D02*
D03*
Y14148D02*
D03*
X33884Y18771D02*
D03*
X33274Y76327D02*
D03*
Y36068D02*
D03*
X32588Y38823D02*
D03*
X32258Y5639D02*
D03*
X32105Y36067D02*
D03*
X31877Y80391D02*
D03*
Y76454D02*
D03*
X31750Y18796D02*
D03*
X31572Y41783D02*
D03*
X31550Y41123D02*
D03*
X31115Y18796D02*
D03*
Y38799D02*
D03*
X30988Y914D02*
D03*
X30937Y6629D02*
D03*
X29591Y114681D02*
D03*
Y36068D02*
D03*
X29489Y41402D02*
D03*
X29362Y107925D02*
D03*
Y107152D02*
D03*
X28981Y39040D02*
D03*
X28321Y107188D02*
D03*
X28118Y25273D02*
D03*
Y24003D02*
D03*
Y21590D02*
D03*
Y19054D02*
D03*
Y26543D02*
D03*
X28092Y22936D02*
D03*
X28067Y117602D02*
D03*
X27991Y20320D02*
D03*
X27813Y7544D02*
D03*
X27483Y39040D02*
D03*
X27457Y40945D02*
D03*
X26924Y7544D02*
D03*
X26619Y40843D02*
D03*
X26035Y8509D02*
D03*
Y7874D02*
D03*
X25933Y43155D02*
D03*
X25912Y108081D02*
D03*
X25832Y30328D02*
D03*
X25527Y114681D02*
D03*
X25479Y27900D02*
D03*
X25451Y116357D02*
D03*
X25425Y38329D02*
D03*
D77*
X4191Y4191D02*
D03*
Y122809D02*
D03*
X55809D02*
D03*
Y4191D02*
D03*
M02*
