G04*
G04 #@! TF.GenerationSoftware,Altium Limited,Altium Designer,20.2.6 (244)*
G04*
G04 Layer_Physical_Order=6*
G04 Layer_Color=16711680*
%FSLAX43Y43*%
%MOMM*%
G71*
G04*
G04 #@! TF.SameCoordinates,ADE9251E-79DE-46AD-AD66-6379AD971F3A*
G04*
G04*
G04 #@! TF.FilePolarity,Positive*
G04*
G01*
G75*
%ADD11C,0.127*%
%ADD13C,0.305*%
%ADD14C,0.102*%
%ADD15C,0.025*%
%ADD16C,0.254*%
%ADD36C,0.406*%
%ADD41R,0.813X0.889*%
%ADD42C,0.152*%
%ADD43R,0.559X0.559*%
%ADD44R,0.787X0.813*%
%ADD45R,0.813X0.787*%
%ADD46C,1.016*%
%ADD47C,0.508*%
%ADD48C,0.381*%
%ADD50C,0.155*%
%ADD51C,0.130*%
%ADD52C,0.203*%
%ADD53C,0.142*%
%ADD54C,1.194*%
%ADD55C,2.007*%
%ADD56C,0.711*%
%ADD57O,1.397X1.905*%
%ADD58O,1.067X1.600*%
%ADD59C,0.991*%
%ADD60C,5.512*%
%ADD61C,1.524*%
%ADD62R,1.524X1.524*%
%ADD63C,0.610*%
%ADD64C,0.508*%
%ADD65C,1.016*%
%ADD78R,1.803X2.692*%
%ADD79R,2.692X1.803*%
%ADD80R,1.600X1.295*%
%ADD81R,1.270X3.683*%
%ADD82R,3.683X1.270*%
%ADD83R,1.270X3.429*%
%ADD84R,3.429X1.270*%
%ADD85R,2.413X1.016*%
%ADD86R,2.286X1.016*%
%ADD87R,0.635X1.143*%
%ADD88R,1.143X0.635*%
%ADD89R,1.016X1.803*%
%ADD90R,3.302X1.803*%
%ADD91R,1.803X3.302*%
%ADD92R,1.803X1.016*%
%ADD93R,0.406X0.787*%
%ADD94P,0.027X8X22.5*%
%ADD95R,1.778X0.559*%
%ADD96R,0.813X0.813*%
%ADD97O,0.813X0.279*%
%ADD98O,0.279X0.813*%
%ADD99R,4.115X4.115*%
%ADD100R,1.219X2.489*%
%ADD101R,2.007X2.489*%
%ADD102R,2.489X2.007*%
%ADD103R,1.524X1.016*%
%ADD104R,1.905X1.956*%
%ADD105R,3.505X1.600*%
%ADD106R,3.099X1.194*%
%ADD107R,1.600X0.813*%
%ADD108R,1.600X0.838*%
%ADD109R,3.429X1.397*%
%ADD110R,3.073X1.524*%
%ADD111R,0.406X1.346*%
%ADD112R,2.896X2.007*%
%ADD113R,2.007X2.515*%
%ADD114R,0.508X2.261*%
%ADD115R,0.279X1.346*%
%ADD116R,1.346X0.279*%
%ADD117R,1.118X1.499*%
%ADD118R,1.350X0.800*%
%ADD119R,4.000X5.000*%
%ADD120C,0.400*%
%ADD121R,0.813X0.305*%
%ADD122R,1.118X0.406*%
%ADD123R,2.007X2.184*%
%ADD124R,1.245X0.279*%
%ADD125R,1.143X0.813*%
%ADD126R,2.286X2.261*%
%ADD127R,2.800X1.350*%
%ADD128R,1.600X1.450*%
%ADD129C,0.249*%
%ADD130R,2.540X1.168*%
%ADD131R,1.168X1.524*%
%ADD132R,1.524X1.168*%
%ADD133R,0.889X0.813*%
%ADD134R,1.450X1.600*%
%ADD135C,0.279*%
%ADD136C,0.762*%
G36*
X20066Y117856D02*
X18701D01*
X19069Y118224D01*
X19211Y118366D01*
X18705Y118872D01*
X20066D01*
Y117856D01*
D02*
G37*
G36*
X18955Y118364D02*
X18447Y117856D01*
X17526D01*
Y118872D01*
X18447D01*
X18955Y118364D01*
D02*
G37*
G36*
X44577Y125857D02*
Y118745D01*
X44323Y118491D01*
X43053D01*
X42799Y118237D01*
Y118034D01*
X42418D01*
Y117475D01*
Y116916D01*
X42799D01*
Y116840D01*
Y116713D01*
X42672Y116586D01*
X40259D01*
X40132Y116713D01*
Y116967D01*
Y117221D01*
Y117475D01*
Y118237D01*
X39751Y118618D01*
X39497Y118872D01*
Y125730D01*
X40005Y126238D01*
X44196D01*
X44577Y125857D01*
D02*
G37*
G36*
X20066Y116332D02*
X19145D01*
X18637Y116840D01*
X19145Y117348D01*
X20066D01*
Y116332D01*
D02*
G37*
G36*
X18523Y116980D02*
X18381Y116838D01*
X18887Y116332D01*
X17526D01*
Y117348D01*
X18891D01*
X18523Y116980D01*
D02*
G37*
G36*
X26289Y111982D02*
X25781Y111474D01*
X25273Y111982D01*
Y112903D01*
X26289D01*
Y111982D01*
D02*
G37*
G36*
X31369Y111411D02*
X31001Y111779D01*
X30859Y111921D01*
X30353Y111415D01*
Y112776D01*
X31369D01*
Y111411D01*
D02*
G37*
G36*
X25641Y111360D02*
X25783Y111218D01*
X26289Y111724D01*
Y110363D01*
X25273D01*
Y111728D01*
X25641Y111360D01*
D02*
G37*
G36*
X31369Y111157D02*
Y110236D01*
X30353D01*
Y111157D01*
X30861Y111665D01*
X31369Y111157D01*
D02*
G37*
G36*
X24257Y97885D02*
X23749Y97377D01*
X23241Y97885D01*
Y98806D01*
X24257D01*
Y97885D01*
D02*
G37*
G36*
X49911Y94742D02*
Y93345D01*
X49784Y93218D01*
X49073D01*
Y93472D01*
X48209D01*
Y93167D01*
X48209D01*
X48246Y93077D01*
X48006Y92837D01*
X47607D01*
Y93091D01*
X45524D01*
Y93031D01*
X45397Y92969D01*
X45339Y93013D01*
Y94693D01*
X45397Y94737D01*
X45524Y94675D01*
Y94615D01*
X47607D01*
Y94869D01*
X49784D01*
X49911Y94742D01*
D02*
G37*
G36*
X43561Y93345D02*
Y90983D01*
X43307D01*
Y90424D01*
Y89865D01*
X43344D01*
X43393Y89748D01*
X43307Y89662D01*
X39878D01*
X39624Y89916D01*
Y91821D01*
X39497Y91948D01*
X38100D01*
X37973Y92075D01*
Y93726D01*
X38227Y93980D01*
X38843D01*
X38938Y93904D01*
X38938Y93853D01*
Y93599D01*
X39802D01*
Y93853D01*
X39802Y93904D01*
X39897Y93980D01*
X42926D01*
X43561Y93345D01*
D02*
G37*
G36*
X23609Y97263D02*
X23751Y97121D01*
X24257Y97627D01*
Y96647D01*
X24587D01*
Y96596D01*
X25451D01*
Y96647D01*
X25603D01*
Y96177D01*
X26035D01*
Y96774D01*
X26289D01*
Y96177D01*
X26665D01*
Y95479D01*
X25482D01*
Y92481D01*
X27590D01*
Y95479D01*
X27183D01*
Y96177D01*
X27559D01*
Y96774D01*
X27813D01*
Y96177D01*
X28062D01*
Y95479D01*
X27782D01*
Y92481D01*
X29890D01*
Y95479D01*
X28580D01*
Y96130D01*
X28651Y96228D01*
X29083D01*
Y96774D01*
X29337D01*
Y96228D01*
X29769D01*
Y96647D01*
X30048D01*
Y96596D01*
X30912D01*
Y96647D01*
X31191D01*
Y96596D01*
X32055D01*
X32131Y96520D01*
Y90297D01*
X31877Y90043D01*
X23495D01*
X23114Y90424D01*
Y96088D01*
X23292Y96266D01*
X23241D01*
Y97631D01*
X23609Y97263D01*
D02*
G37*
G36*
X12700Y80899D02*
X11335D01*
X11703Y81267D01*
X11845Y81409D01*
X11339Y81915D01*
X12700D01*
Y80899D01*
D02*
G37*
G36*
X11589Y81407D02*
X11081Y80899D01*
X10160D01*
Y81915D01*
X11081D01*
X11589Y81407D01*
D02*
G37*
G36*
X30353Y84582D02*
Y84201D01*
Y83185D01*
X31369Y82169D01*
Y76708D01*
X30480Y75819D01*
X29083D01*
X28829Y76073D01*
X28702Y76200D01*
Y76391D01*
X29224D01*
Y77445D01*
Y78499D01*
X28702D01*
Y80645D01*
X28448Y80899D01*
X27686D01*
X27432Y81153D01*
Y81344D01*
X27591D01*
Y82296D01*
Y83248D01*
X27432D01*
Y84455D01*
Y84709D01*
X27559Y84836D01*
X30099D01*
X30353Y84582D01*
D02*
G37*
G36*
X57658Y76200D02*
Y74295D01*
X57531Y74168D01*
X47244D01*
X46990Y74422D01*
Y76073D01*
X47244Y76327D01*
X52324D01*
X52451Y76454D01*
X57404D01*
X57658Y76200D01*
D02*
G37*
G36*
X16002Y77343D02*
Y76708D01*
Y74803D01*
X16637Y74168D01*
X17780D01*
X18161Y73787D01*
Y72263D01*
X18047Y72149D01*
X17920Y72168D01*
Y72658D01*
X15812D01*
Y72136D01*
X14478D01*
X13462Y73152D01*
Y74232D01*
X14002D01*
Y75184D01*
Y76136D01*
X13462D01*
Y77343D01*
X13585Y77466D01*
X15879D01*
X16002Y77343D01*
D02*
G37*
G36*
X25981Y83366D02*
X25933Y83248D01*
X24491D01*
Y83211D01*
X24358D01*
Y81381D01*
X24491D01*
Y81344D01*
X26162D01*
Y81026D01*
X26035Y80899D01*
X25654D01*
X25273Y80518D01*
Y78499D01*
X24878D01*
Y77445D01*
Y76391D01*
X25273D01*
Y75946D01*
X25019Y75692D01*
X24257D01*
X23241Y74676D01*
Y72517D01*
X22860Y72136D01*
X22542D01*
Y72676D01*
X21590D01*
X20638D01*
Y72136D01*
X19050D01*
X18796Y72390D01*
Y74803D01*
X18923Y74930D01*
X21971Y77978D01*
Y81407D01*
Y81915D01*
X23749Y83693D01*
X25654D01*
X25981Y83366D01*
D02*
G37*
G36*
X28184Y80045D02*
Y78499D01*
X28194Y78449D01*
Y76441D01*
X28184Y76391D01*
Y76200D01*
X28184Y76200D01*
X28194Y76150D01*
Y75260D01*
X28397Y75057D01*
X32766D01*
X32893Y74930D01*
Y63500D01*
X32639Y63246D01*
X18796D01*
X18415Y63627D01*
Y65786D01*
X18669Y66040D01*
X18986Y66357D01*
Y70295D01*
X19685Y70993D01*
X20638D01*
Y70580D01*
X21590D01*
X22542D01*
Y70993D01*
X23368D01*
X23876Y71501D01*
Y74422D01*
X24511Y75057D01*
X25578D01*
X25984Y75463D01*
Y80035D01*
X26213Y80264D01*
X27965D01*
X28184Y80045D01*
D02*
G37*
G36*
X12700Y77089D02*
Y76245D01*
X12656Y76136D01*
X12573Y76136D01*
X10902D01*
Y76099D01*
X10769D01*
Y74269D01*
X10902D01*
Y74232D01*
X12573D01*
X12656Y74232D01*
X12700Y74123D01*
Y72644D01*
X13843Y71501D01*
X18034D01*
X18288Y71247D01*
Y69596D01*
X18034Y69342D01*
X13970D01*
X12827Y68199D01*
X9652D01*
X9271Y68580D01*
Y76200D01*
Y77089D01*
X9525Y77343D01*
X12446D01*
X12700Y77089D01*
D02*
G37*
G36*
X45339Y73152D02*
Y71882D01*
X45593Y71628D01*
X49530D01*
X50292Y70866D01*
Y67310D01*
X50185Y67203D01*
X50066Y67264D01*
Y68877D01*
X50064D01*
Y69292D01*
X46964D01*
Y68877D01*
X46962D01*
Y67264D01*
X46843Y67203D01*
X45847Y68199D01*
X43434D01*
X42418Y69215D01*
Y70440D01*
X42462Y70549D01*
X42545Y70549D01*
X44216D01*
Y70586D01*
X44349D01*
Y72416D01*
X44216D01*
Y72453D01*
X42545D01*
X42462Y72453D01*
X42418Y72562D01*
Y73152D01*
X42672Y73406D01*
X45085D01*
X45339Y73152D01*
D02*
G37*
G36*
X41656Y73025D02*
Y72453D01*
X41116D01*
Y71501D01*
Y70549D01*
X41656D01*
Y69088D01*
X42291Y68453D01*
X43434Y67310D01*
Y66294D01*
X41529Y64389D01*
X38227D01*
X37719Y64897D01*
Y69469D01*
X39116Y70866D01*
Y73025D01*
X39370Y73279D01*
X41402D01*
X41656Y73025D01*
D02*
G37*
G36*
X54102Y68580D02*
Y64770D01*
X52705Y63373D01*
X50927D01*
X50863Y63310D01*
X46418D01*
X46355Y63373D01*
X43942D01*
X43307Y64008D01*
Y65405D01*
X43688Y65786D01*
X46292D01*
X46736Y66230D01*
X46904D01*
X46962Y66127D01*
X46962Y66104D01*
Y64473D01*
X46964D01*
Y64058D01*
X50064D01*
Y64473D01*
X50066D01*
Y66104D01*
X50066Y66127D01*
X50124Y66230D01*
X50292D01*
X50800Y66739D01*
Y67260D01*
X50810Y67310D01*
Y68717D01*
X51054Y68961D01*
X53721D01*
X54102Y68580D01*
D02*
G37*
G36*
X17907Y64008D02*
X16542D01*
X16910Y64376D01*
X17052Y64518D01*
X16546Y65024D01*
X17907D01*
Y64008D01*
D02*
G37*
G36*
X16796Y64516D02*
X16288Y64008D01*
X15367D01*
Y65024D01*
X16288D01*
X16796Y64516D01*
D02*
G37*
G36*
X15812Y68312D02*
X17920D01*
Y68675D01*
X18047Y68694D01*
X18225Y68517D01*
Y67119D01*
X17907Y66802D01*
X16383D01*
Y66726D01*
X16256D01*
Y66294D01*
Y65862D01*
X16383D01*
Y65659D01*
X16256Y65532D01*
X14986D01*
X14859Y65405D01*
Y64008D01*
X14732Y63881D01*
X13208D01*
X12827Y64262D01*
Y65659D01*
Y66802D01*
X12954Y66929D01*
X14097D01*
X14732Y67564D01*
Y68580D01*
X14859Y68707D01*
X15812D01*
Y68312D01*
D02*
G37*
G36*
X35436Y68958D02*
X35484Y68885D01*
X35557Y68837D01*
X35687Y68707D01*
Y67310D01*
X36068Y66929D01*
Y63627D01*
X35687Y63246D01*
X34925D01*
X34544Y63627D01*
Y63862D01*
X34620Y63957D01*
X34671Y63957D01*
X34925D01*
Y64389D01*
Y64821D01*
X34671D01*
X34620Y64821D01*
X34544Y64916D01*
Y65370D01*
X34582Y65481D01*
X34671Y65481D01*
X35052D01*
Y66040D01*
Y66599D01*
X34650D01*
X34582Y66599D01*
X34466Y66626D01*
X34111Y66981D01*
X34086Y67107D01*
X33985Y67259D01*
X33909Y67309D01*
Y68834D01*
X34036Y68961D01*
X35433D01*
X35436Y68958D01*
D02*
G37*
G36*
X49403Y60706D02*
X48482D01*
X47974Y61214D01*
X48482Y61722D01*
X49403D01*
Y60706D01*
D02*
G37*
G36*
X47860Y61354D02*
X47718Y61212D01*
X48224Y60706D01*
X46863D01*
Y61722D01*
X48228D01*
X47860Y61354D01*
D02*
G37*
G36*
X49403Y59055D02*
X48482D01*
X47974Y59563D01*
X48482Y60071D01*
X49403D01*
Y59055D01*
D02*
G37*
G36*
X47860Y59703D02*
X47718Y59561D01*
X48224Y59055D01*
X46863D01*
Y60071D01*
X48228D01*
X47860Y59703D01*
D02*
G37*
G36*
X49403Y57404D02*
X48482D01*
X47974Y57912D01*
X48482Y58420D01*
X49403D01*
Y57404D01*
D02*
G37*
G36*
X47860Y58052D02*
X47718Y57910D01*
X48224Y57404D01*
X46863D01*
Y58420D01*
X48228D01*
X47860Y58052D01*
D02*
G37*
G36*
X49403Y55880D02*
X48482D01*
X47974Y56388D01*
X48482Y56896D01*
X49403D01*
Y55880D01*
D02*
G37*
G36*
X47860Y56528D02*
X47718Y56386D01*
X48224Y55880D01*
X46863D01*
Y56896D01*
X48228D01*
X47860Y56528D01*
D02*
G37*
G36*
X50546Y53118D02*
X50178Y53486D01*
X50036Y53628D01*
X49530Y53122D01*
Y54483D01*
X50546D01*
Y53118D01*
D02*
G37*
G36*
Y52864D02*
Y51943D01*
X49530D01*
Y52864D01*
X50038Y53372D01*
X50546Y52864D01*
D02*
G37*
G36*
X47752Y52832D02*
Y51581D01*
X47676Y51486D01*
X47625Y51486D01*
X47371D01*
Y51054D01*
Y50622D01*
X47625D01*
X47676Y50622D01*
X47752Y50527D01*
Y45974D01*
X48219Y45507D01*
X48170Y45390D01*
X48006D01*
Y44831D01*
Y44272D01*
X48387D01*
Y43866D01*
X48260D01*
Y43434D01*
Y43002D01*
X48387D01*
Y42799D01*
X48260Y42672D01*
X47117D01*
X46990Y42799D01*
Y44196D01*
X45466Y45720D01*
Y52832D01*
X45847Y53213D01*
X47371D01*
X47752Y52832D01*
D02*
G37*
G36*
X59055Y46355D02*
Y45720D01*
Y40640D01*
Y30988D01*
X58928Y30861D01*
X57531D01*
X57285Y31107D01*
X57287Y31115D01*
Y31385D01*
X57379Y31471D01*
X57414Y31471D01*
X57988D01*
Y32385D01*
Y33299D01*
X57414D01*
X57379Y33299D01*
X57287Y33385D01*
Y36017D01*
X57658D01*
Y36576D01*
Y37135D01*
X57287D01*
Y37465D01*
X57287Y37465D01*
X57277Y37515D01*
Y39370D01*
X57150Y39497D01*
X56118D01*
Y39459D01*
X54118D01*
Y39497D01*
X53467D01*
X53230Y39734D01*
X53218D01*
Y39746D01*
X53086Y39878D01*
Y40640D01*
X53218Y40772D01*
Y40784D01*
X53230D01*
X53467Y41021D01*
X54118D01*
Y41059D01*
X56118D01*
Y41021D01*
X57150D01*
X57658Y41529D01*
Y43273D01*
X57660Y43275D01*
X57691Y43434D01*
X57660Y43593D01*
X57658Y43595D01*
Y43942D01*
X57023Y44577D01*
X56947D01*
Y44831D01*
X55829D01*
Y44577D01*
X54915D01*
Y44831D01*
X53797D01*
Y44577D01*
X53340D01*
X53213Y44704D01*
Y46482D01*
X53467Y46736D01*
X58674D01*
X59055Y46355D01*
D02*
G37*
G36*
X52451Y47117D02*
Y44069D01*
X53848Y42672D01*
X54229D01*
X54356Y42545D01*
Y42280D01*
X54270D01*
Y41734D01*
X54143D01*
Y41607D01*
X53787D01*
Y41539D01*
X53467D01*
X53269Y41500D01*
X53101Y41387D01*
X52888Y41174D01*
X52852Y41150D01*
X52828Y41114D01*
X52720Y41006D01*
X52607Y40838D01*
X52568Y40640D01*
Y40630D01*
X52451Y40513D01*
X49403D01*
X48895Y41021D01*
Y42749D01*
X48905Y42799D01*
Y43002D01*
X49022D01*
Y43434D01*
Y43866D01*
X48905D01*
Y44272D01*
X49276D01*
Y44831D01*
Y45390D01*
X48895D01*
Y45466D01*
Y45822D01*
X49225D01*
Y46736D01*
X49352D01*
Y46863D01*
X50089D01*
Y47498D01*
X52070D01*
X52451Y47117D01*
D02*
G37*
G36*
X53086Y39116D02*
X53123D01*
X53269Y39018D01*
X53467Y38979D01*
X53787D01*
Y38911D01*
X54143D01*
Y38784D01*
X54270D01*
Y38238D01*
X54356D01*
Y37973D01*
X53975Y37592D01*
X51054D01*
X50546Y37084D01*
X50546Y34265D01*
X50292Y34011D01*
X50292Y33034D01*
X50202Y32944D01*
X49911D01*
Y32385D01*
Y31826D01*
X50292D01*
Y31369D01*
X48895D01*
X48641Y31623D01*
Y37146D01*
X48680Y37172D01*
X48770Y37306D01*
X48801Y37465D01*
X48770Y37624D01*
X48680Y37758D01*
X48641Y37784D01*
Y39116D01*
X49149Y39624D01*
X52578D01*
X53086Y39116D01*
D02*
G37*
G36*
X56261Y37592D02*
X56642D01*
X56769Y37465D01*
Y37135D01*
X56388D01*
Y36576D01*
Y36017D01*
X56769D01*
Y31115D01*
X56134Y30480D01*
X51054D01*
X50800Y30734D01*
Y31102D01*
X51943D01*
Y32385D01*
Y33668D01*
X50831D01*
X50813Y33795D01*
X51181Y34163D01*
X55118D01*
X55372Y34417D01*
Y37465D01*
Y37973D01*
X55499Y38100D01*
X55753D01*
X56261Y37592D01*
D02*
G37*
G36*
X49657Y28543D02*
X49149Y28035D01*
X48641Y28543D01*
Y29464D01*
X49657D01*
Y28543D01*
D02*
G37*
G36*
X23063Y28677D02*
Y28372D01*
X22733D01*
Y27813D01*
X22606D01*
Y27686D01*
X22009D01*
Y27330D01*
X19990D01*
X19837Y27483D01*
Y28219D01*
X19761Y28296D01*
X16764D01*
X16713Y28245D01*
Y23851D01*
X16815Y23749D01*
X19837D01*
X19863Y23774D01*
Y24486D01*
X19964Y24587D01*
X21793D01*
X21971Y24409D01*
Y22860D01*
X21717Y22606D01*
X21514D01*
Y22987D01*
X20396D01*
Y22517D01*
Y21869D01*
X20376Y21849D01*
X19494D01*
Y22905D01*
X17590D01*
Y21305D01*
X19406D01*
Y20605D01*
X17590D01*
Y19005D01*
X19494D01*
Y19736D01*
X20066D01*
X20396Y19406D01*
Y18669D01*
X20955D01*
Y18542D01*
X21082D01*
Y17945D01*
X21514D01*
X21590Y17850D01*
Y17386D01*
X21488Y17285D01*
X17145D01*
X15989Y18440D01*
Y28080D01*
Y28562D01*
X16256Y28829D01*
X22911D01*
X23063Y28677D01*
D02*
G37*
G36*
X49009Y27921D02*
X49151Y27779D01*
X49657Y28285D01*
Y26924D01*
X48641D01*
Y28289D01*
X49009Y27921D01*
D02*
G37*
G36*
X24638Y18034D02*
X23717D01*
X23209Y18542D01*
X23717Y19050D01*
X24638D01*
Y18034D01*
D02*
G37*
G36*
X23095Y18682D02*
X22953Y18540D01*
X23459Y18034D01*
X22098D01*
Y19050D01*
X23463D01*
X23095Y18682D01*
D02*
G37*
G36*
X39497Y16923D02*
X39129Y17291D01*
X38987Y17433D01*
X38481Y16927D01*
Y18288D01*
X39497D01*
Y16923D01*
D02*
G37*
G36*
X33020D02*
X32652Y17291D01*
X32510Y17433D01*
X32004Y16927D01*
Y18288D01*
X33020D01*
Y16923D01*
D02*
G37*
G36*
X39497Y16669D02*
Y15748D01*
X38481D01*
Y16669D01*
X38989Y17177D01*
X39497Y16669D01*
D02*
G37*
G36*
X33020D02*
Y15748D01*
X32004D01*
Y16669D01*
X32512Y17177D01*
X33020Y16669D01*
D02*
G37*
G36*
X39497Y14319D02*
X38989Y13811D01*
X38481Y14319D01*
Y15240D01*
X39497D01*
Y14319D01*
D02*
G37*
G36*
X38849Y13697D02*
X38991Y13555D01*
X39497Y14061D01*
Y12700D01*
X38481D01*
Y14065D01*
X38849Y13697D01*
D02*
G37*
G36*
X18669Y8382D02*
Y6477D01*
X18415Y6223D01*
X14859D01*
X14605Y6477D01*
Y6839D01*
X14793D01*
Y7563D01*
Y8287D01*
X14605D01*
Y8509D01*
Y8636D01*
X14859Y8890D01*
X18161D01*
X18669Y8382D01*
D02*
G37*
G36*
X24384Y5588D02*
X26416D01*
X26924Y5080D01*
Y1017D01*
X26829Y939D01*
X26721Y993D01*
X26725Y1026D01*
Y1153D01*
X25009D01*
Y1026D01*
X25038Y804D01*
X25087Y686D01*
X25002Y559D01*
X24689D01*
X24663Y584D01*
Y1930D01*
X24511Y2083D01*
X23597D01*
X23470Y1956D01*
Y508D01*
X19964D01*
Y1930D01*
X19812Y2083D01*
X18898D01*
X18745Y1930D01*
Y508D01*
X18387D01*
X18326Y635D01*
X18396Y804D01*
X18425Y1026D01*
Y1153D01*
X16709D01*
Y1026D01*
X16738Y804D01*
X16808Y635D01*
X16756Y528D01*
X16629Y516D01*
X16383Y762D01*
Y4826D01*
X17262Y5705D01*
X18415D01*
X18465Y5715D01*
X19558D01*
X19825Y5448D01*
X19753Y5340D01*
X19621Y5395D01*
X19569Y5402D01*
Y4460D01*
Y3519D01*
X19621Y3525D01*
X19788Y3594D01*
X19931Y3704D01*
X19934Y3709D01*
X20061Y3666D01*
Y3310D01*
X20066D01*
Y3048D01*
X20320Y2794D01*
X23241D01*
X23495Y3048D01*
Y3550D01*
X23622Y3613D01*
X23646Y3594D01*
X23813Y3525D01*
X23865Y3519D01*
Y4460D01*
Y5402D01*
X23813Y5395D01*
X23646Y5326D01*
X23622Y5307D01*
X23495Y5370D01*
Y5715D01*
X23622Y5842D01*
X24130D01*
X24384Y5588D01*
D02*
G37*
G36*
X13970Y6096D02*
Y4064D01*
X13843Y3937D01*
X8128D01*
X8001Y4064D01*
Y6096D01*
X8128Y6223D01*
X13843D01*
X13970Y6096D01*
D02*
G37*
G36*
X15494Y3048D02*
Y1651D01*
X15113Y1270D01*
X9271D01*
X9017Y1524D01*
Y3048D01*
X9388Y3419D01*
X13843D01*
X13893Y3429D01*
X15113D01*
X15494Y3048D01*
D02*
G37*
G36*
X22908Y61728D02*
X22932Y61724D01*
X22955Y61719D01*
X22976Y61713D01*
X22997Y61705D01*
X23015Y61696D01*
X23033Y61688D01*
X23048Y61678D01*
X23062Y61668D01*
X23073Y61659D01*
X23084Y61651D01*
X23092Y61643D01*
X23098Y61636D01*
X23103Y61631D01*
X23106Y61628D01*
X23107Y61627D01*
X23124Y61603D01*
X23139Y61577D01*
X23152Y61548D01*
X23162Y61518D01*
X23172Y61487D01*
X23180Y61456D01*
X23185Y61425D01*
X23191Y61394D01*
X23195Y61365D01*
X23198Y61338D01*
X23200Y61314D01*
X23201Y61293D01*
X23202Y61283D01*
Y61275D01*
X23203Y61268D01*
Y61262D01*
Y61257D01*
Y61253D01*
Y61251D01*
Y61250D01*
X23202Y61208D01*
X23199Y61170D01*
X23195Y61134D01*
X23189Y61101D01*
X23183Y61071D01*
X23176Y61044D01*
X23168Y61020D01*
X23159Y60998D01*
X23152Y60979D01*
X23144Y60963D01*
X23137Y60949D01*
X23130Y60938D01*
X23125Y60930D01*
X23121Y60924D01*
X23118Y60920D01*
X23117Y60919D01*
X23100Y60902D01*
X23082Y60886D01*
X23065Y60873D01*
X23045Y60861D01*
X23027Y60851D01*
X23008Y60843D01*
X22990Y60837D01*
X22973Y60831D01*
X22956Y60827D01*
X22942Y60824D01*
X22928Y60821D01*
X22916Y60820D01*
X22907Y60819D01*
X22899Y60818D01*
X22893D01*
X22864Y60820D01*
X22837Y60824D01*
X22812Y60830D01*
X22791Y60838D01*
X22782Y60841D01*
X22773Y60845D01*
X22766Y60848D01*
X22761Y60850D01*
X22756Y60852D01*
X22752Y60854D01*
X22750Y60856D01*
X22749D01*
X22727Y60872D01*
X22706Y60890D01*
X22689Y60908D01*
X22675Y60926D01*
X22664Y60942D01*
X22660Y60949D01*
X22656Y60955D01*
X22653Y60960D01*
X22651Y60964D01*
X22649Y60966D01*
Y60967D01*
X22637Y60995D01*
X22628Y61022D01*
X22621Y61048D01*
X22617Y61072D01*
X22615Y61083D01*
X22615Y61093D01*
X22614Y61102D01*
Y61109D01*
X22613Y61116D01*
Y61119D01*
Y61122D01*
Y61123D01*
X22614Y61147D01*
X22615Y61169D01*
X22619Y61190D01*
X22624Y61209D01*
X22631Y61228D01*
X22637Y61245D01*
X22645Y61261D01*
X22651Y61275D01*
X22658Y61288D01*
X22666Y61299D01*
X22672Y61309D01*
X22677Y61317D01*
X22683Y61324D01*
X22687Y61328D01*
X22689Y61330D01*
X22690Y61331D01*
X22705Y61346D01*
X22720Y61358D01*
X22735Y61369D01*
X22752Y61379D01*
X22767Y61387D01*
X22783Y61393D01*
X22798Y61398D01*
X22812Y61403D01*
X22825Y61406D01*
X22838Y61409D01*
X22849Y61410D01*
X22858Y61412D01*
X22866D01*
X22872Y61413D01*
X22877D01*
X22900Y61412D01*
X22922Y61408D01*
X22943Y61403D01*
X22961Y61398D01*
X22976Y61392D01*
X22982Y61389D01*
X22988Y61388D01*
X22992Y61386D01*
X22995Y61384D01*
X22997Y61383D01*
X22998D01*
X23018Y61370D01*
X23036Y61357D01*
X23053Y61342D01*
X23067Y61328D01*
X23078Y61314D01*
X23087Y61303D01*
X23090Y61299D01*
X23092Y61297D01*
X23094Y61295D01*
X23094Y61294D01*
Y61295D01*
X23094Y61295D01*
X23093Y61318D01*
X23092Y61341D01*
X23091Y61362D01*
X23089Y61382D01*
X23086Y61400D01*
X23083Y61418D01*
X23081Y61433D01*
X23078Y61447D01*
X23075Y61458D01*
X23072Y61469D01*
X23069Y61478D01*
X23067Y61485D01*
X23065Y61491D01*
X23064Y61496D01*
X23063Y61498D01*
Y61499D01*
X23050Y61524D01*
X23037Y61546D01*
X23024Y61566D01*
X23010Y61581D01*
X22999Y61594D01*
X22990Y61602D01*
X22986Y61605D01*
X22983Y61607D01*
X22982Y61609D01*
X22981D01*
X22966Y61619D01*
X22950Y61627D01*
X22935Y61631D01*
X22920Y61635D01*
X22908Y61637D01*
X22897Y61639D01*
X22888D01*
X22877Y61638D01*
X22865Y61637D01*
X22844Y61631D01*
X22825Y61625D01*
X22809Y61616D01*
X22795Y61607D01*
X22786Y61599D01*
X22783Y61597D01*
X22780Y61594D01*
X22779Y61593D01*
X22778Y61592D01*
X22768Y61579D01*
X22761Y61565D01*
X22753Y61549D01*
X22747Y61534D01*
X22742Y61520D01*
X22739Y61508D01*
X22738Y61504D01*
X22737Y61501D01*
X22736Y61499D01*
Y61498D01*
X22627Y61507D01*
X22630Y61526D01*
X22635Y61543D01*
X22640Y61560D01*
X22645Y61575D01*
X22652Y61590D01*
X22659Y61603D01*
X22666Y61616D01*
X22673Y61627D01*
X22679Y61636D01*
X22686Y61645D01*
X22692Y61653D01*
X22698Y61658D01*
X22702Y61663D01*
X22705Y61666D01*
X22707Y61668D01*
X22708Y61669D01*
X22722Y61680D01*
X22735Y61688D01*
X22749Y61697D01*
X22764Y61704D01*
X22779Y61710D01*
X22793Y61715D01*
X22821Y61721D01*
X22833Y61724D01*
X22845Y61726D01*
X22855Y61727D01*
X22864Y61728D01*
X22871Y61729D01*
X22882D01*
X22908Y61728D01*
D02*
G37*
G36*
X23216Y58801D02*
X22876D01*
X22845Y58802D01*
X22817Y58803D01*
X22793Y58806D01*
X22781Y58807D01*
X22771Y58809D01*
X22763Y58810D01*
X22755Y58811D01*
X22748Y58813D01*
X22742Y58814D01*
X22738Y58815D01*
X22735D01*
X22733Y58816D01*
X22732D01*
X22710Y58821D01*
X22691Y58828D01*
X22675Y58836D01*
X22661Y58843D01*
X22649Y58849D01*
X22641Y58854D01*
X22636Y58858D01*
X22634Y58859D01*
X22619Y58872D01*
X22607Y58885D01*
X22595Y58899D01*
X22587Y58912D01*
X22579Y58924D01*
X22573Y58934D01*
X22571Y58937D01*
X22569Y58940D01*
X22568Y58941D01*
Y58942D01*
X22559Y58963D01*
X22553Y58984D01*
X22548Y59003D01*
X22544Y59022D01*
X22542Y59037D01*
Y59043D01*
X22541Y59049D01*
Y59054D01*
Y59056D01*
Y59058D01*
Y59059D01*
Y59074D01*
X22543Y59087D01*
X22548Y59114D01*
X22556Y59137D01*
X22563Y59156D01*
X22567Y59165D01*
X22571Y59173D01*
X22575Y59179D01*
X22579Y59185D01*
X22582Y59189D01*
X22584Y59192D01*
X22585Y59194D01*
X22586Y59195D01*
X22603Y59215D01*
X22623Y59232D01*
X22644Y59246D01*
X22664Y59257D01*
X22681Y59266D01*
X22689Y59268D01*
X22696Y59271D01*
X22702Y59273D01*
X22706Y59275D01*
X22708Y59276D01*
X22709D01*
X22687Y59289D01*
X22669Y59302D01*
X22652Y59316D01*
X22640Y59328D01*
X22629Y59340D01*
X22622Y59349D01*
X22619Y59353D01*
X22618Y59356D01*
X22617Y59356D01*
Y59357D01*
X22606Y59377D01*
X22598Y59395D01*
X22592Y59414D01*
X22588Y59430D01*
X22587Y59445D01*
X22585Y59455D01*
Y59459D01*
Y59462D01*
Y59464D01*
Y59465D01*
X22587Y59488D01*
X22590Y59509D01*
X22596Y59530D01*
X22602Y59547D01*
X22609Y59562D01*
X22612Y59568D01*
X22615Y59573D01*
X22618Y59577D01*
X22618Y59580D01*
X22620Y59582D01*
Y59583D01*
X22635Y59602D01*
X22650Y59620D01*
X22666Y59634D01*
X22681Y59646D01*
X22696Y59655D01*
X22707Y59661D01*
X22711Y59663D01*
X22714Y59665D01*
X22716Y59666D01*
X22717D01*
X22742Y59676D01*
X22768Y59683D01*
X22797Y59687D01*
X22822Y59690D01*
X22834Y59692D01*
X22845Y59693D01*
X22856D01*
X22864Y59694D01*
X23216D01*
Y58801D01*
D02*
G37*
%LPC*%
G36*
X44223Y125502D02*
X40235D01*
Y123926D01*
X44223D01*
Y125502D01*
D02*
G37*
G36*
Y122962D02*
X40235D01*
Y121386D01*
X44223D01*
Y122962D01*
D02*
G37*
G36*
Y120422D02*
X40235D01*
Y118846D01*
X44223D01*
Y120422D01*
D02*
G37*
G36*
X42164Y118034D02*
X41745D01*
Y117602D01*
X42164D01*
Y118034D01*
D02*
G37*
G36*
Y117348D02*
X41745D01*
Y116916D01*
X42164D01*
Y117348D01*
D02*
G37*
G36*
X47607Y94361D02*
X46693D01*
Y94056D01*
X47607D01*
Y94361D01*
D02*
G37*
G36*
X46439D02*
X45524D01*
Y94056D01*
X46439D01*
Y94361D01*
D02*
G37*
G36*
X49073Y94031D02*
X48768D01*
Y93726D01*
X49073D01*
Y94031D01*
D02*
G37*
G36*
X48514D02*
X48209D01*
Y93726D01*
X48514D01*
Y94031D01*
D02*
G37*
G36*
X47607Y93650D02*
X46693D01*
Y93345D01*
X47607D01*
Y93650D01*
D02*
G37*
G36*
X46439D02*
X45524D01*
Y93345D01*
X46439D01*
Y93650D01*
D02*
G37*
G36*
X39802Y93345D02*
X39497D01*
Y93040D01*
X39802D01*
Y93345D01*
D02*
G37*
G36*
X39243D02*
X38938D01*
Y93040D01*
X39243D01*
Y93345D01*
D02*
G37*
G36*
X42360Y93650D02*
X40276D01*
Y92786D01*
X42360D01*
Y93650D01*
D02*
G37*
G36*
Y92380D02*
X40276D01*
Y91516D01*
X42360D01*
Y92380D01*
D02*
G37*
G36*
X43053Y90983D02*
X42634D01*
Y90551D01*
X43053D01*
Y90983D01*
D02*
G37*
G36*
Y90297D02*
X42634D01*
Y89865D01*
X43053D01*
Y90297D01*
D02*
G37*
G36*
X28595Y83248D02*
X27845D01*
Y82423D01*
X28595D01*
Y83248D01*
D02*
G37*
G36*
Y82169D02*
X27845D01*
Y81344D01*
X28595D01*
Y82169D01*
D02*
G37*
G36*
X30011Y78499D02*
X29478D01*
Y77572D01*
X30011D01*
Y78499D01*
D02*
G37*
G36*
Y77318D02*
X29478D01*
Y76391D01*
X30011D01*
Y77318D01*
D02*
G37*
G36*
X57176Y75972D02*
X54457D01*
Y74650D01*
X57176D01*
Y75972D01*
D02*
G37*
G36*
X15006Y76136D02*
X14256D01*
Y75311D01*
X15006D01*
Y76136D01*
D02*
G37*
G36*
Y75057D02*
X14256D01*
Y74232D01*
X15006D01*
Y75057D01*
D02*
G37*
G36*
X17920Y73445D02*
X16993D01*
Y72912D01*
X17920D01*
Y73445D01*
D02*
G37*
G36*
X16739D02*
X15812D01*
Y72912D01*
X16739D01*
Y73445D01*
D02*
G37*
G36*
X24624Y78499D02*
X24091D01*
Y77572D01*
X24624D01*
Y78499D01*
D02*
G37*
G36*
Y77318D02*
X24091D01*
Y76391D01*
X24624D01*
Y77318D01*
D02*
G37*
G36*
X22542Y73680D02*
X21717D01*
Y72930D01*
X22542D01*
Y73680D01*
D02*
G37*
G36*
X21463D02*
X20638D01*
Y72930D01*
X21463D01*
Y73680D01*
D02*
G37*
G36*
X27712Y78500D02*
X26390D01*
Y76391D01*
X27712D01*
Y78500D01*
D02*
G37*
G36*
X28855Y72200D02*
X25247D01*
Y70090D01*
X28855D01*
Y72200D01*
D02*
G37*
G36*
X22542Y70326D02*
X21717D01*
Y69576D01*
X22542D01*
Y70326D01*
D02*
G37*
G36*
X21463D02*
X20638D01*
Y69576D01*
X21463D01*
Y70326D01*
D02*
G37*
G36*
X17921Y71146D02*
X15811D01*
Y69824D01*
X17921D01*
Y71146D01*
D02*
G37*
G36*
X11620Y72289D02*
X9511D01*
Y68681D01*
X11620D01*
Y72289D01*
D02*
G37*
G36*
X46496Y69763D02*
X44387D01*
Y68441D01*
X46496D01*
Y69763D01*
D02*
G37*
G36*
X40862Y72453D02*
X40112D01*
Y71628D01*
X40862D01*
Y72453D01*
D02*
G37*
G36*
Y71374D02*
X40112D01*
Y70549D01*
X40862D01*
Y71374D01*
D02*
G37*
G36*
X40195Y68606D02*
X38086D01*
Y64998D01*
X40195D01*
Y68606D01*
D02*
G37*
G36*
X53747Y68352D02*
X51028D01*
Y67030D01*
X53747D01*
Y68352D01*
D02*
G37*
G36*
X46496Y65163D02*
X44387D01*
Y63841D01*
X46496D01*
Y65163D01*
D02*
G37*
G36*
X17920Y68058D02*
X16993D01*
Y67525D01*
X17920D01*
Y68058D01*
D02*
G37*
G36*
X16739D02*
X15812D01*
Y67525D01*
X16739D01*
Y68058D01*
D02*
G37*
G36*
X16002Y66726D02*
X15697D01*
Y66421D01*
X16002D01*
Y66726D01*
D02*
G37*
G36*
Y66167D02*
X15697D01*
Y65862D01*
X16002D01*
Y66167D01*
D02*
G37*
G36*
X35334Y68613D02*
X34394D01*
Y67164D01*
X35334D01*
Y68613D01*
D02*
G37*
G36*
X35306Y66599D02*
Y66167D01*
X35776D01*
Y66599D01*
X35306D01*
D02*
G37*
G36*
X35776Y65913D02*
X35306D01*
Y65481D01*
X35776D01*
Y65913D01*
D02*
G37*
G36*
X35179Y64821D02*
Y64516D01*
X35484D01*
Y64821D01*
X35179D01*
D02*
G37*
G36*
X35484Y64262D02*
X35179D01*
Y63957D01*
X35484D01*
Y64262D01*
D02*
G37*
G36*
X47295Y53048D02*
X46177D01*
Y51854D01*
X47295D01*
Y53048D01*
D02*
G37*
G36*
X47117Y51486D02*
X46812D01*
Y51181D01*
X47117D01*
Y51486D01*
D02*
G37*
G36*
Y50927D02*
X46812D01*
Y50622D01*
X47117D01*
Y50927D01*
D02*
G37*
G36*
X47581Y50101D02*
X45827D01*
Y50064D01*
X45694D01*
Y48234D01*
X45827D01*
Y48197D01*
X47581D01*
Y50101D01*
D02*
G37*
G36*
X47143Y47651D02*
X45669D01*
Y45821D01*
X47143D01*
Y47651D01*
D02*
G37*
G36*
X47752Y45390D02*
X47282D01*
Y44958D01*
X47752D01*
Y45390D01*
D02*
G37*
G36*
Y44704D02*
X47282D01*
Y44272D01*
X47752D01*
Y44704D01*
D02*
G37*
G36*
X48006Y43866D02*
X47701D01*
Y43561D01*
X48006D01*
Y43866D01*
D02*
G37*
G36*
Y43307D02*
X47701D01*
Y43002D01*
X48006D01*
Y43307D01*
D02*
G37*
G36*
X56947Y45504D02*
X56515D01*
Y45085D01*
X56947D01*
Y45504D01*
D02*
G37*
G36*
X56261D02*
X55829D01*
Y45085D01*
X56261D01*
Y45504D01*
D02*
G37*
G36*
X54915D02*
X54483D01*
Y45085D01*
X54915D01*
Y45504D01*
D02*
G37*
G36*
X54229D02*
X53797D01*
Y45085D01*
X54229D01*
Y45504D01*
D02*
G37*
G36*
X58382Y37135D02*
X57912D01*
Y36703D01*
X58382D01*
Y37135D01*
D02*
G37*
G36*
Y36449D02*
X57912D01*
Y36017D01*
X58382D01*
Y36449D01*
D02*
G37*
G36*
X58242Y33299D02*
Y32512D01*
X58852D01*
Y33299D01*
X58242D01*
D02*
G37*
G36*
X58852Y32258D02*
X58242D01*
Y31471D01*
X58852D01*
Y32258D01*
D02*
G37*
G36*
X51867Y47333D02*
X50749D01*
Y46139D01*
X51867D01*
Y47333D01*
D02*
G37*
G36*
X50089Y46609D02*
X49479D01*
Y45822D01*
X50089D01*
Y46609D01*
D02*
G37*
G36*
X50000Y45390D02*
X49530D01*
Y44958D01*
X50000D01*
Y45390D01*
D02*
G37*
G36*
Y44704D02*
X49530D01*
Y44272D01*
X50000D01*
Y44704D01*
D02*
G37*
G36*
X49581Y43866D02*
X49276D01*
Y43561D01*
X49581D01*
Y43866D01*
D02*
G37*
G36*
Y43307D02*
X49276D01*
Y43002D01*
X49581D01*
Y43307D01*
D02*
G37*
G36*
X54016Y42280D02*
X53787D01*
Y41861D01*
X54016D01*
Y42280D01*
D02*
G37*
G36*
X52477Y42342D02*
X49631D01*
Y40868D01*
X52477D01*
Y42342D01*
D02*
G37*
G36*
X52476Y39395D02*
X51181D01*
Y38786D01*
X52476D01*
Y39395D01*
D02*
G37*
G36*
X50927D02*
X49632D01*
Y38786D01*
X50927D01*
Y39395D01*
D02*
G37*
G36*
X54016Y38657D02*
X53787D01*
Y38238D01*
X54016D01*
Y38657D01*
D02*
G37*
G36*
X52476Y38532D02*
X51181D01*
Y37922D01*
X52476D01*
Y38532D01*
D02*
G37*
G36*
X50927D02*
X49632D01*
Y37922D01*
X50927D01*
Y38532D01*
D02*
G37*
G36*
X49657Y32944D02*
X49060D01*
Y32512D01*
X49657D01*
Y32944D01*
D02*
G37*
G36*
Y32258D02*
X49060D01*
Y31826D01*
X49657D01*
Y32258D01*
D02*
G37*
G36*
X56134Y37135D02*
X55664D01*
Y36703D01*
X56134D01*
Y37135D01*
D02*
G37*
G36*
Y36449D02*
X55664D01*
Y36017D01*
X56134D01*
Y36449D01*
D02*
G37*
G36*
X55905Y33299D02*
X55296D01*
Y32512D01*
X55905D01*
Y33299D01*
D02*
G37*
G36*
X55042D02*
X54432D01*
Y32512D01*
X55042D01*
Y33299D01*
D02*
G37*
G36*
X53365Y33668D02*
X52197D01*
Y32512D01*
X53365D01*
Y33668D01*
D02*
G37*
G36*
X55905Y32258D02*
X55296D01*
Y31471D01*
X55905D01*
Y32258D01*
D02*
G37*
G36*
X55042D02*
X54432D01*
Y31471D01*
X55042D01*
Y32258D01*
D02*
G37*
G36*
X53365D02*
X52197D01*
Y31102D01*
X53365D01*
Y32258D01*
D02*
G37*
G36*
X22479Y28372D02*
X22009D01*
Y27940D01*
X22479D01*
Y28372D01*
D02*
G37*
G36*
X21514Y23711D02*
X21082D01*
Y23241D01*
X21514D01*
Y23711D01*
D02*
G37*
G36*
X20828D02*
X20396D01*
Y23241D01*
X20828D01*
Y23711D01*
D02*
G37*
G36*
Y18415D02*
X20396D01*
Y17945D01*
X20828D01*
Y18415D01*
D02*
G37*
G36*
X15390Y8287D02*
X15047D01*
Y7690D01*
X15390D01*
Y8287D01*
D02*
G37*
G36*
Y7436D02*
X15047D01*
Y6839D01*
X15390D01*
Y7436D01*
D02*
G37*
G36*
X17843Y8465D02*
X15939D01*
Y6711D01*
X15976D01*
Y6578D01*
X17806D01*
Y6711D01*
X17843D01*
Y8465D01*
D02*
G37*
G36*
X24119Y5402D02*
Y4587D01*
X24684D01*
Y4727D01*
X24660Y4906D01*
X24591Y5073D01*
X24481Y5216D01*
X24338Y5326D01*
X24171Y5395D01*
X24119Y5402D01*
D02*
G37*
G36*
X19315D02*
X19263Y5395D01*
X19096Y5326D01*
X18953Y5216D01*
X18843Y5073D01*
X18774Y4906D01*
X18750Y4727D01*
Y4587D01*
X19315D01*
Y5402D01*
D02*
G37*
G36*
X24684Y4333D02*
X24119D01*
Y3519D01*
X24171Y3525D01*
X24338Y3594D01*
X24481Y3704D01*
X24591Y3848D01*
X24660Y4015D01*
X24684Y4194D01*
Y4333D01*
D02*
G37*
G36*
X19315D02*
X18750D01*
Y4194D01*
X18774Y4015D01*
X18843Y3848D01*
X18953Y3704D01*
X19096Y3594D01*
X19263Y3525D01*
X19315Y3519D01*
Y4333D01*
D02*
G37*
G36*
X25994Y2376D02*
Y1407D01*
X26725D01*
Y1534D01*
X26696Y1756D01*
X26610Y1963D01*
X26474Y2141D01*
X26296Y2277D01*
X26089Y2363D01*
X25994Y2376D01*
D02*
G37*
G36*
X25740D02*
X25645Y2363D01*
X25438Y2277D01*
X25260Y2141D01*
X25124Y1963D01*
X25038Y1756D01*
X25009Y1534D01*
Y1407D01*
X25740D01*
Y2376D01*
D02*
G37*
G36*
X17694D02*
Y1407D01*
X18425D01*
Y1534D01*
X18396Y1756D01*
X18310Y1963D01*
X18174Y2141D01*
X17996Y2277D01*
X17789Y2363D01*
X17694Y2376D01*
D02*
G37*
G36*
X17440D02*
X17345Y2363D01*
X17138Y2277D01*
X16960Y2141D01*
X16824Y1963D01*
X16738Y1756D01*
X16709Y1534D01*
Y1407D01*
X17440D01*
Y2376D01*
D02*
G37*
G36*
X12218Y5740D02*
X10478D01*
Y5080D01*
X12218D01*
Y5740D01*
D02*
G37*
G36*
X10224D02*
X8484D01*
Y5080D01*
X10224D01*
Y5740D01*
D02*
G37*
G36*
X12218Y4826D02*
X10478D01*
Y4166D01*
X12218D01*
Y4826D01*
D02*
G37*
G36*
X10224D02*
X8484D01*
Y4166D01*
X10224D01*
Y4826D01*
D02*
G37*
G36*
X15138Y3200D02*
X13398D01*
Y2540D01*
X15138D01*
Y3200D01*
D02*
G37*
G36*
X13144D02*
X11404D01*
Y2540D01*
X13144D01*
Y3200D01*
D02*
G37*
G36*
X15138Y2286D02*
X13398D01*
Y1626D01*
X15138D01*
Y2286D01*
D02*
G37*
G36*
X13144D02*
X11404D01*
Y1626D01*
X13144D01*
Y2286D01*
D02*
G37*
G36*
X22906Y61316D02*
X22899D01*
X22885Y61315D01*
X22872Y61314D01*
X22848Y61307D01*
X22826Y61298D01*
X22808Y61289D01*
X22794Y61279D01*
X22788Y61274D01*
X22783Y61270D01*
X22779Y61267D01*
X22776Y61264D01*
X22775Y61263D01*
X22774Y61262D01*
X22765Y61251D01*
X22758Y61240D01*
X22751Y61229D01*
X22745Y61216D01*
X22736Y61192D01*
X22731Y61169D01*
X22729Y61158D01*
X22728Y61148D01*
X22727Y61140D01*
X22726Y61132D01*
X22725Y61125D01*
Y61120D01*
Y61118D01*
Y61117D01*
X22726Y61099D01*
X22727Y61083D01*
X22730Y61066D01*
X22733Y61052D01*
X22736Y61038D01*
X22740Y61026D01*
X22745Y61014D01*
X22750Y61004D01*
X22755Y60995D01*
X22760Y60987D01*
X22764Y60980D01*
X22767Y60974D01*
X22770Y60969D01*
X22773Y60967D01*
X22774Y60965D01*
X22775Y60964D01*
X22785Y60954D01*
X22795Y60945D01*
X22804Y60938D01*
X22815Y60932D01*
X22825Y60927D01*
X22835Y60922D01*
X22854Y60915D01*
X22870Y60911D01*
X22877Y60910D01*
X22884Y60909D01*
X22888Y60908D01*
X22895D01*
X22913Y60909D01*
X22930Y60912D01*
X22945Y60917D01*
X22959Y60922D01*
X22971Y60927D01*
X22979Y60932D01*
X22985Y60935D01*
X22986Y60936D01*
X22987D01*
X23003Y60947D01*
X23015Y60960D01*
X23027Y60972D01*
X23036Y60985D01*
X23044Y60997D01*
X23049Y61005D01*
X23051Y61009D01*
X23053Y61012D01*
X23054Y61013D01*
Y61014D01*
X23062Y61033D01*
X23067Y61053D01*
X23071Y61071D01*
X23074Y61088D01*
X23076Y61102D01*
Y61108D01*
X23077Y61113D01*
Y61117D01*
Y61119D01*
Y61121D01*
Y61122D01*
X23076Y61138D01*
X23075Y61153D01*
X23069Y61180D01*
X23061Y61205D01*
X23056Y61215D01*
X23051Y61224D01*
X23047Y61233D01*
X23042Y61240D01*
X23037Y61247D01*
X23034Y61252D01*
X23031Y61256D01*
X23028Y61259D01*
X23027Y61261D01*
X23026Y61262D01*
X23016Y61271D01*
X23005Y61280D01*
X22995Y61287D01*
X22984Y61293D01*
X22963Y61302D01*
X22943Y61309D01*
X22925Y61313D01*
X22917Y61314D01*
X22912Y61315D01*
X22906Y61316D01*
D02*
G37*
G36*
X23098Y59589D02*
X22902D01*
X22886Y59588D01*
X22871D01*
X22858Y59587D01*
X22845Y59586D01*
X22834Y59585D01*
X22824Y59584D01*
X22815Y59583D01*
X22808Y59581D01*
X22801Y59580D01*
X22796Y59579D01*
X22792Y59578D01*
X22788Y59577D01*
X22786D01*
X22784Y59576D01*
X22769Y59570D01*
X22758Y59564D01*
X22747Y59556D01*
X22739Y59548D01*
X22732Y59541D01*
X22727Y59536D01*
X22724Y59532D01*
X22723Y59530D01*
X22715Y59517D01*
X22710Y59504D01*
X22707Y59490D01*
X22704Y59477D01*
X22702Y59467D01*
X22701Y59459D01*
Y59453D01*
Y59452D01*
Y59451D01*
X22702Y59434D01*
X22705Y59419D01*
X22708Y59406D01*
X22712Y59394D01*
X22716Y59386D01*
X22720Y59379D01*
X22723Y59375D01*
X22724Y59373D01*
X22734Y59362D01*
X22744Y59353D01*
X22756Y59345D01*
X22767Y59339D01*
X22776Y59334D01*
X22784Y59331D01*
X22790Y59329D01*
X22791Y59328D01*
X22792D01*
X22799Y59326D01*
X22806Y59326D01*
X22824Y59323D01*
X22843Y59321D01*
X22861Y59320D01*
X22878D01*
X22886Y59319D01*
X23098D01*
Y59589D01*
D02*
G37*
G36*
Y59213D02*
X22891D01*
X22861Y59212D01*
X22835Y59211D01*
X22824Y59209D01*
X22813Y59208D01*
X22803Y59207D01*
X22794Y59206D01*
X22786Y59205D01*
X22779Y59203D01*
X22774Y59202D01*
X22769Y59201D01*
X22766Y59200D01*
X22763Y59199D01*
X22762Y59198D01*
X22761D01*
X22744Y59191D01*
X22731Y59183D01*
X22718Y59176D01*
X22708Y59167D01*
X22700Y59159D01*
X22694Y59152D01*
X22690Y59148D01*
X22689Y59146D01*
X22680Y59132D01*
X22674Y59117D01*
X22670Y59103D01*
X22666Y59089D01*
X22664Y59077D01*
X22663Y59068D01*
Y59064D01*
Y59061D01*
Y59060D01*
Y59059D01*
X22664Y59044D01*
X22666Y59029D01*
X22669Y59017D01*
X22672Y59006D01*
X22676Y58996D01*
X22678Y58990D01*
X22680Y58986D01*
X22681Y58984D01*
X22688Y58972D01*
X22696Y58963D01*
X22704Y58954D01*
X22710Y58947D01*
X22717Y58941D01*
X22722Y58937D01*
X22726Y58936D01*
X22727Y58935D01*
X22738Y58929D01*
X22749Y58924D01*
X22760Y58919D01*
X22770Y58916D01*
X22780Y58913D01*
X22788Y58911D01*
X22793Y58910D01*
X22795D01*
X22804Y58909D01*
X22817Y58908D01*
X22830Y58907D01*
X22843D01*
X22856Y58906D01*
X23098D01*
Y59213D01*
D02*
G37*
%LPD*%
D11*
X32386Y51435D02*
X32639D01*
X31395Y52426D02*
X32386Y51435D01*
X38164Y40958D02*
X38227Y41021D01*
X38164Y35069D02*
Y40958D01*
Y35069D02*
X38536Y34696D01*
X39014D01*
X39243Y34468D01*
Y32245D02*
Y34468D01*
X39146Y32148D02*
X39243Y32245D01*
X38849Y31851D02*
X39146Y32148D01*
X38849Y31851D02*
X38849D01*
X17399Y80010D02*
X18161Y80772D01*
X17399Y78740D02*
Y80010D01*
X16637Y77978D02*
X17399Y78740D01*
X9906Y77978D02*
X16637D01*
X9754Y78130D02*
X9906Y77978D01*
X9754Y78130D02*
Y79629D01*
X48895Y59563D02*
X50165D01*
X52959Y56769D01*
X53696D01*
X55817Y54648D01*
Y52451D02*
Y54648D01*
X38989Y12192D02*
X39878Y11303D01*
X38989Y12192D02*
Y13208D01*
X14415Y115507D02*
X14478Y115443D01*
X11739Y115507D02*
X14415D01*
X37389Y52832D02*
X37414D01*
X36995Y53226D02*
X37389Y52832D01*
X22479Y98298D02*
X23749D01*
X32995Y53226D02*
X33389Y52832D01*
X33401D01*
X19939Y105664D02*
X19951Y105652D01*
X21812D01*
X31272Y25874D02*
X31649Y26251D01*
X30595Y58026D02*
X30963Y57658D01*
Y57633D02*
Y57658D01*
X34798Y8063D02*
Y9271D01*
X36119Y10592D01*
Y14326D01*
X43815Y117475D02*
X45339D01*
X35789Y52823D02*
X36191Y53226D01*
X36195D01*
X31255Y29845D02*
X31649Y29451D01*
X25337Y29845D02*
X31255D01*
X25146Y29654D02*
X25337Y29845D01*
X53975Y57531D02*
X55817D01*
X42889Y30645D02*
X42955Y30710D01*
X41643Y30645D02*
X42889D01*
X41249Y30251D02*
X41643Y30645D01*
X12318Y15240D02*
X12572Y14986D01*
X13970D01*
X40449Y24651D02*
X40826Y24274D01*
X31272Y32228D02*
X31649Y31851D01*
X7556Y62611D02*
Y63881D01*
X37249Y19622D02*
X37363Y19507D01*
X37249Y19622D02*
Y21451D01*
X16510Y118364D02*
X18034D01*
X12319Y83348D02*
X13179D01*
X41249Y29451D02*
X41626Y29828D01*
X24450Y115885D02*
X24892Y115443D01*
X23325Y115885D02*
X24450D01*
X33414Y53607D02*
X33795Y53226D01*
X52388Y60071D02*
Y61468D01*
X36072Y21874D02*
X36449Y22251D01*
X2375Y52451D02*
X7556D01*
X56896Y103509D02*
X57635D01*
X56261Y102874D02*
X56896Y103509D01*
X56261Y98933D02*
Y102874D01*
X55753Y98425D02*
X56261Y98933D01*
X55753Y94996D02*
Y98425D01*
Y94996D02*
X56642Y94107D01*
X39649Y20168D02*
Y21451D01*
Y20168D02*
X40005Y19812D01*
Y15977D02*
Y19812D01*
Y15977D02*
X40589Y15392D01*
X3429Y49911D02*
X4128D01*
X2375Y50965D02*
X3429Y49911D01*
X2375Y50965D02*
Y51689D01*
X33401Y56769D02*
Y56820D01*
X32995Y57226D02*
X33401Y56820D01*
X41249Y27051D02*
X41626Y27428D01*
X24892Y115443D02*
X26289D01*
X18796Y30861D02*
Y32893D01*
X37414Y53607D02*
X37795Y53226D01*
X37414Y53607D02*
Y54966D01*
X36855Y55524D02*
X37414Y54966D01*
X36995Y58026D02*
X37372Y58403D01*
X32131Y110744D02*
X33020Y109855D01*
Y107696D02*
Y109855D01*
X32258Y106934D02*
X33020Y107696D01*
X40449Y30251D02*
X40826Y30628D01*
X24003Y98044D02*
X25019D01*
X31272Y27428D02*
X31649Y27051D01*
X19939Y98298D02*
X21209D01*
X20459Y84848D02*
X20955Y85344D01*
X19079Y84848D02*
X20459D01*
X39260Y29062D02*
X39649Y29451D01*
X42418Y8063D02*
Y9271D01*
X41656Y10033D02*
X42418Y9271D01*
X41656Y10033D02*
Y13716D01*
X41275Y14097D02*
X41656Y13716D01*
X41275Y14097D02*
Y19812D01*
X40449Y20638D02*
X41275Y19812D01*
X40449Y20638D02*
Y21451D01*
X37783Y41542D02*
X38227Y41986D01*
X37783Y34911D02*
Y41542D01*
Y34911D02*
X38849Y33844D01*
Y32651D02*
Y33844D01*
X42291Y19583D02*
X42418Y19456D01*
Y17780D02*
Y19456D01*
X39243Y21845D02*
X39649Y22251D01*
X39243Y21844D02*
Y21845D01*
X32872Y23474D02*
X33249Y23851D01*
X7747Y85598D02*
X9017D01*
X9398Y85217D01*
Y84328D02*
Y85217D01*
Y84328D02*
X9906Y83820D01*
X11430D01*
X12458Y84848D01*
X13179D01*
X16637Y36195D02*
X17272Y36830D01*
X16637Y35433D02*
Y36195D01*
X16129Y34925D02*
X16637Y35433D01*
X16129Y34417D02*
Y34925D01*
X15529Y33817D02*
X16129Y34417D01*
X15071Y33817D02*
X15529D01*
X20701Y31115D02*
X21209Y30607D01*
X20701Y31115D02*
Y33274D01*
X46990Y59944D02*
X47371Y59563D01*
X40030Y23442D02*
X40421Y23051D01*
X40449D01*
X35255Y23444D02*
X35648Y23051D01*
X35649D01*
X12040Y34036D02*
X12921Y34917D01*
X15071D01*
X7556Y93345D02*
Y94615D01*
X37363Y15621D02*
Y18758D01*
X34049Y22251D02*
X34454Y21846D01*
X34492D01*
X14478Y113792D02*
X16129D01*
X42049Y30251D02*
X42723D01*
X42824Y30150D01*
X43104D01*
X43688Y30734D01*
Y31561D01*
X44196Y32069D01*
Y34417D01*
X44704Y34925D01*
Y38862D01*
X44577Y38989D02*
X44704Y38862D01*
X44450Y38989D02*
X44577D01*
X44323Y39116D02*
X44450Y38989D01*
X44323Y39116D02*
Y40386D01*
X44450Y40513D01*
X44958D01*
X22606Y112395D02*
X23876D01*
X42367Y41021D02*
X42723D01*
X42850Y40894D01*
Y38989D02*
Y40894D01*
Y38989D02*
X43117Y38722D01*
Y34911D02*
Y38722D01*
Y34911D02*
X43180Y34848D01*
Y34846D02*
Y34848D01*
Y34846D02*
X43434Y34592D01*
Y32487D02*
Y34592D01*
X42393Y31445D02*
X43434Y32487D01*
X41643Y31445D02*
X42393D01*
X41249Y31051D02*
X41643Y31445D01*
X36195Y58026D02*
X36566Y57655D01*
Y57642D02*
Y57655D01*
X38989Y14732D02*
Y16256D01*
X32072Y33028D02*
X32449Y32651D01*
X32872Y29874D02*
X33249Y30251D01*
X32872Y29845D02*
Y29874D01*
X18288Y104652D02*
X21812D01*
X38049Y32651D02*
Y33567D01*
X37021Y34595D02*
X38049Y33567D01*
X37021Y34595D02*
Y38083D01*
X36686Y38417D02*
X37021Y38083D01*
X36686Y38417D02*
Y41910D01*
X36813Y42037D01*
X37186D01*
X23912Y103922D02*
Y109252D01*
X23142Y103152D02*
X23912Y103922D01*
X21812Y103152D02*
X23142D01*
X38849Y30251D02*
X39226Y30628D01*
X47498Y3113D02*
Y4318D01*
X46355Y5461D02*
X47498Y4318D01*
X29591Y17780D02*
X30226Y17145D01*
Y14859D02*
Y17145D01*
X29718Y14351D02*
X30226Y14859D01*
X12318Y17780D02*
X12954D01*
X16510Y14224D01*
Y13589D02*
Y14224D01*
X7556Y56515D02*
Y57531D01*
Y56515D02*
X7811Y56261D01*
X8382D01*
X48895Y59563D02*
Y61087D01*
X33672Y30628D02*
X34049Y30251D01*
X47371Y55524D02*
X47676Y55220D01*
X47371Y55524D02*
Y56388D01*
X16002Y115443D02*
X17907D01*
X21812Y102152D02*
X23153D01*
X30988Y38925D02*
X31115Y38799D01*
X30988Y38925D02*
Y39878D01*
X17145Y38227D02*
X17272D01*
X16256Y37338D02*
X17145Y38227D01*
X16256Y35687D02*
Y37338D01*
X15486Y34917D02*
X16256Y35687D01*
X15071Y34917D02*
X15486D01*
X53848Y80899D02*
X54356Y80391D01*
X55817D01*
X33884Y18771D02*
X34908Y20472D01*
X35255Y21048D01*
Y21845D01*
X34849Y22251D02*
X35255Y21845D01*
X34849Y22251D02*
X34849D01*
X4128Y59245D02*
X4699Y58674D01*
X4128Y59245D02*
Y60071D01*
Y81915D02*
X4826D01*
X5461Y81280D01*
Y78740D02*
Y81280D01*
Y78740D02*
X7620Y76581D01*
X7874D01*
X29591Y17780D02*
X30607Y18796D01*
X31115D01*
X38049Y22251D02*
X38426Y21874D01*
X43155Y52934D02*
X43180Y52959D01*
X4128Y71755D02*
X4699D01*
X4953Y71501D01*
Y70612D02*
Y71501D01*
X16838Y39317D02*
X17272Y39751D01*
X15071Y39317D02*
X16838D01*
X32118Y117742D02*
Y119126D01*
Y117742D02*
X32385Y117475D01*
X37973D01*
X10668Y78613D02*
Y80010D01*
X19304Y11176D02*
X20828D01*
X40195Y58026D02*
X40572Y58403D01*
X31115Y17780D02*
X31496Y18161D01*
Y18542D01*
X31750Y18796D01*
X38049Y30251D02*
X38426Y30628D01*
X35272Y32228D02*
X35649Y31851D01*
X25912Y108081D02*
Y109252D01*
X19558Y116840D02*
Y118364D01*
X31395Y58826D02*
X31471D01*
X31876Y58422D01*
X1053Y106971D02*
X2540Y108458D01*
X1053Y106108D02*
Y106971D01*
X41249Y24359D02*
Y24651D01*
Y24359D02*
X41376Y24232D01*
X43637D01*
X43764Y24359D01*
Y24409D01*
X43891Y24536D01*
X44171D01*
X44298Y24409D01*
Y23597D02*
Y24409D01*
Y23597D02*
X44425Y23470D01*
X44729D01*
X44856Y23597D01*
Y27000D01*
X44729Y27127D02*
X44856Y27000D01*
X42723Y27127D02*
X44729D01*
X42596Y27254D02*
X42723Y27127D01*
X42596Y27254D02*
Y27483D01*
X42723Y27610D01*
X44729D01*
X44856Y27737D01*
Y28059D01*
X44729Y28186D02*
X44856Y28059D01*
X43739Y28186D02*
X44729D01*
X43612Y28313D02*
X43739Y28186D01*
X43612Y28313D02*
Y28567D01*
X43739Y28694D01*
X44729D01*
X44856Y28821D01*
Y31084D01*
X44577Y31363D02*
X44856Y31084D01*
X44577Y31363D02*
Y34112D01*
X45085Y34620D01*
Y39497D01*
X44958Y39624D02*
X45085Y39497D01*
X44933Y39624D02*
X44958D01*
X32765Y33551D02*
X32777Y33564D01*
X33619D01*
X34049Y33134D01*
Y32651D02*
Y33134D01*
X38464Y31428D02*
X38841Y31051D01*
X38849D01*
X23876Y110871D02*
X24384Y110363D01*
X24892D01*
X25412Y109843D01*
Y109252D02*
Y109843D01*
X22860Y5842D02*
X23876Y6858D01*
X22733Y5842D02*
X22860D01*
X22367Y5476D02*
X22733Y5842D01*
X22367Y4135D02*
Y5476D01*
X43402Y29051D02*
X44069Y29718D01*
X43402Y28911D02*
Y29051D01*
X42342Y27851D02*
X43402Y28911D01*
X42049Y27851D02*
X42342D01*
X35649Y31052D02*
X36068Y31471D01*
X35649Y31051D02*
Y31052D01*
X41249Y26251D02*
X41643Y25857D01*
X43221D01*
X43690Y25388D01*
X43979D01*
X44221Y25146D01*
Y24982D02*
Y25146D01*
X40615Y16053D02*
Y19888D01*
X40048Y20455D02*
X40615Y19888D01*
X40048Y20455D02*
Y21850D01*
X40449Y22251D01*
X10289Y47599D02*
X11213D01*
X10288Y47600D02*
X10289Y47599D01*
X9169Y47600D02*
X10288D01*
X8763Y48006D02*
X9169Y47600D01*
X44958Y3113D02*
Y4318D01*
X43815Y5461D02*
X44958Y4318D01*
X43815Y5461D02*
Y10160D01*
X43370Y10604D02*
X43815Y10160D01*
X43370Y10604D02*
Y10605D01*
X43180Y10795D02*
X43370Y10605D01*
X34472Y23474D02*
X34849Y23851D01*
X40449Y32651D02*
X40826Y33028D01*
X26162Y11176D02*
X27686Y12700D01*
X26162Y8636D02*
Y11176D01*
X26035Y8509D02*
X26162Y8636D01*
X19013Y47599D02*
X19875D01*
X21717Y110236D02*
X24010D01*
X24412Y109834D01*
Y109252D02*
Y109834D01*
X40906Y54737D02*
X41732D01*
X40195Y54026D02*
X40906Y54737D01*
X38989Y53594D02*
X39027D01*
X39395Y53226D01*
X14931Y118419D02*
X14986Y118364D01*
X14931Y118419D02*
Y120078D01*
X32072Y32228D02*
X32449Y31851D01*
X35649Y18199D02*
X36068Y17780D01*
X35649Y18199D02*
Y21451D01*
X38227Y16256D02*
X38989D01*
X37846Y16637D02*
X38227Y16256D01*
X37846Y16637D02*
Y21248D01*
X38049Y21451D01*
X13615Y82384D02*
X13879Y82648D01*
X12952Y82384D02*
X13615D01*
X12634Y82702D02*
X12952Y82384D01*
X9754Y82702D02*
X12634D01*
X9093Y83363D02*
X9754Y82702D01*
X16129Y111125D02*
Y112268D01*
X31242Y110744D02*
X32131D01*
X42049Y29528D02*
X42393Y29871D01*
X42049Y29451D02*
Y29528D01*
X37211Y38431D02*
Y41046D01*
Y38431D02*
X37402Y38241D01*
Y34753D02*
Y38241D01*
Y34753D02*
X38451Y33704D01*
Y32253D02*
Y33704D01*
X38049Y31851D02*
X38451Y32253D01*
X29185Y19964D02*
X29337Y20117D01*
Y23368D01*
X30099Y24130D01*
X30570D01*
X30849Y23851D01*
X40130Y53226D02*
X40195D01*
X39787Y52882D02*
X40130Y53226D01*
X31992Y104152D02*
X32258Y103886D01*
X30512Y104152D02*
X31992D01*
X27912Y107597D02*
X28321Y107188D01*
X27912Y107597D02*
Y109252D01*
X20669D02*
X23412D01*
X20320Y109601D02*
X20669Y109252D01*
X38872Y22251D02*
X39238Y22617D01*
X38849Y22251D02*
X38872D01*
X36068Y17526D02*
Y17780D01*
X35433Y16891D02*
X36068Y17526D01*
X35433Y15291D02*
Y16891D01*
X34290Y14148D02*
X35433Y15291D01*
X14379Y82248D02*
Y82648D01*
X14173Y82042D02*
X14379Y82248D01*
X12935Y82042D02*
X14173D01*
X12631Y82347D02*
X12935Y82042D01*
X9271Y82347D02*
X12631D01*
X9093Y82169D02*
X9271Y82347D01*
X42812Y53226D02*
X43155Y53569D01*
X41795Y53226D02*
X42812D01*
X17879Y81054D02*
X18161Y80772D01*
X17879Y81054D02*
Y82648D01*
X27912Y99596D02*
X29210Y98298D01*
X27912Y99596D02*
Y100552D01*
X19939Y42494D02*
X20472Y41961D01*
X19939Y42494D02*
Y43180D01*
X7556Y89535D02*
X9144D01*
X10287Y90678D01*
Y48869D02*
X11213D01*
X34188Y56845D02*
X34569Y57226D01*
X34595D01*
X39264Y31428D02*
X39641Y31051D01*
X39649D01*
X29362Y107152D02*
X30512D01*
X19013Y48869D02*
X19851D01*
X31272Y28228D02*
X31649Y27851D01*
X38621Y58026D02*
X38989Y57658D01*
X38595Y58026D02*
X38621D01*
X42049Y32651D02*
X42426Y33028D01*
X43332Y39141D02*
X43498Y38976D01*
Y35069D02*
Y38976D01*
Y35069D02*
X43561Y35006D01*
Y35004D02*
Y35006D01*
Y35004D02*
X43815Y34750D01*
Y32283D02*
Y34750D01*
X42583Y31051D02*
X43815Y32283D01*
X42049Y31051D02*
X42583D01*
X34472Y22674D02*
X34849Y23051D01*
X13284Y39317D02*
X15071D01*
X12929Y38961D02*
X13284Y39317D01*
X34472Y31428D02*
X34849Y31051D01*
X34569Y39167D02*
Y39878D01*
X34696Y40005D01*
X34925D01*
X35052Y39878D01*
Y34767D02*
Y39878D01*
Y34767D02*
X36848Y32971D01*
Y31452D02*
Y32971D01*
Y31452D02*
X37249Y31051D01*
X9652Y46355D02*
X10286D01*
X10312Y46329D01*
X45593Y40513D02*
X45974D01*
X45466Y40386D02*
X45593Y40513D01*
X45466Y34290D02*
Y40386D01*
X44958Y33782D02*
X45466Y34290D01*
X44958Y31598D02*
Y33782D01*
Y31598D02*
X45237Y31318D01*
Y23216D02*
Y31318D01*
X45110Y23089D02*
X45237Y23216D01*
X43256Y23089D02*
X45110D01*
X42888Y23457D02*
X43256Y23089D01*
X41363Y23457D02*
X42888D01*
X41249Y23571D02*
X41363Y23457D01*
X41249Y23571D02*
Y23851D01*
X30218Y52849D02*
X30595Y53226D01*
X40208Y57226D02*
X40640Y57658D01*
X40195Y57226D02*
X40208D01*
X32072Y31428D02*
X32449Y31051D01*
X44704Y18974D02*
X44831D01*
X43434Y17704D02*
X44704Y18974D01*
X43434Y15113D02*
Y17704D01*
X43053Y14732D02*
X43434Y15113D01*
X41249Y22784D02*
Y23051D01*
Y22784D02*
X41376Y22657D01*
X45517D01*
X45644Y22784D01*
Y31547D01*
X45415Y31775D02*
X45644Y31547D01*
X45415Y31775D02*
Y33604D01*
X45847Y34036D01*
Y39370D01*
X45974Y39497D01*
X19013Y50139D02*
X19939D01*
X20554Y84348D02*
X20955Y83947D01*
X19079Y84348D02*
X20554D01*
X27976Y27610D02*
X27991D01*
X28232Y27851D01*
X30849D01*
X33631Y21869D02*
X34049Y21451D01*
X41249Y32651D02*
X41626Y33028D01*
X11684Y88519D02*
X12355Y87848D01*
X13179D01*
X24892Y6223D02*
X25654Y6985D01*
X27178D01*
X27737Y7544D01*
X27813D01*
X22645Y7739D02*
X22995D01*
X23139Y7595D01*
X18669Y98298D02*
X19939D01*
X12093Y83848D02*
X13179D01*
X11405Y83160D02*
X12093Y83848D01*
X11049Y83160D02*
X11405D01*
X32258Y5639D02*
Y8063D01*
X53594Y97663D02*
X54229Y97028D01*
Y93091D02*
Y97028D01*
X53594Y92456D02*
X54229Y93091D01*
X13595Y40417D02*
X15071D01*
X12294Y39116D02*
X13595Y40417D01*
X12294Y39014D02*
Y39116D01*
X32588Y38823D02*
X33020Y39255D01*
Y39878D01*
X18379Y81951D02*
X19558Y80772D01*
X18379Y81951D02*
Y82648D01*
X36195Y58826D02*
X36576Y58445D01*
X52388Y54991D02*
X54102D01*
X53340Y62611D02*
X55817D01*
X17379Y88548D02*
Y89098D01*
X17780Y89499D01*
Y89662D01*
X18923Y90805D01*
X32195Y53226D02*
X32589Y52832D01*
X32639D01*
X47371Y61214D02*
X47625Y61468D01*
X48895Y56388D02*
X50165D01*
X50800Y55753D01*
Y50673D02*
Y55753D01*
Y50673D02*
X51562Y49911D01*
X52388D01*
X36396Y55028D02*
X36641D01*
X35395Y54026D02*
X36396Y55028D01*
X35941Y39192D02*
X36144D01*
X35814Y39065D02*
X35941Y39192D01*
X35814Y35083D02*
Y39065D01*
Y35083D02*
X37647Y33250D01*
Y32249D02*
Y33250D01*
X37249Y31851D02*
X37647Y32249D01*
X35763Y52019D02*
X36170Y52426D01*
X36195D01*
X19851Y48869D02*
X20600D01*
X20955Y48514D01*
X20475Y103152D02*
X21812D01*
X11557Y64262D02*
Y64389D01*
X9652Y62357D02*
X11557Y64262D01*
X9652Y52070D02*
Y62357D01*
X6477Y48895D02*
X9652Y52070D01*
X6477Y44958D02*
Y48895D01*
X44145Y30632D02*
Y31267D01*
X42956Y29443D02*
X44145Y30632D01*
X42956Y28986D02*
Y29443D01*
X42220Y28250D02*
X42956Y28986D01*
X41648Y28250D02*
X42220D01*
X41249Y27851D02*
X41648Y28250D01*
X47371Y57912D02*
X48260Y58801D01*
X50292D01*
X33401Y18161D02*
X33782Y17780D01*
X33401Y18161D02*
Y20193D01*
X32855Y20739D02*
X33401Y20193D01*
X32855Y20739D02*
Y21857D01*
X33249Y22251D01*
X4128Y76835D02*
X6477D01*
X7747Y75565D01*
X13462Y32639D02*
X13540Y32717D01*
X15071D01*
X35446Y58026D02*
X35814Y57658D01*
X35395Y58026D02*
X35446D01*
X44958Y8063D02*
Y10084D01*
X43231Y11811D02*
X44958Y10084D01*
X35272Y33028D02*
X35649Y32651D01*
X32530Y58361D02*
Y58442D01*
X32195Y58026D02*
X32530Y58361D01*
X41656Y14478D02*
X41783Y14351D01*
X41656Y14478D02*
Y19939D01*
X40843Y20752D02*
X41656Y19939D01*
X40843Y20752D02*
Y21845D01*
X41249Y22251D01*
X7722Y86233D02*
X12192D01*
X12577Y85848D01*
X13179D01*
X34392Y59741D02*
X34595Y59537D01*
Y58826D02*
Y59537D01*
X26289Y115443D02*
Y116840D01*
X32618Y53649D02*
X32995Y54026D01*
X29635Y107652D02*
X30512D01*
X29362Y107925D02*
X29635Y107652D01*
X13879Y88548D02*
Y88610D01*
X13589Y88900D02*
X13879Y88610D01*
X12700Y88900D02*
X13589D01*
X11938Y89662D02*
X12700Y88900D01*
X11303Y89662D02*
X11938D01*
X11049Y89916D02*
X11303Y89662D01*
X11049Y89916D02*
Y91440D01*
X11684Y92075D01*
X13589Y33817D02*
X15071D01*
X13335Y34071D02*
X13589Y33817D01*
X13335Y34036D02*
Y34071D01*
X54229Y115316D02*
X56007D01*
X39878Y3113D02*
Y5461D01*
X15443Y12497D02*
X18161D01*
X14681Y13259D02*
X15443Y12497D01*
X11557Y13259D02*
X14681D01*
X54606Y104009D02*
X57635D01*
X53467Y102870D02*
X54606Y104009D01*
X53467Y99314D02*
Y102870D01*
Y99314D02*
X54991Y97790D01*
Y94488D02*
Y97790D01*
Y94488D02*
X56515Y92964D01*
X32131Y112268D02*
Y113556D01*
X36072Y32228D02*
X36449Y31851D01*
X35246Y22687D02*
X35649Y22284D01*
Y22251D02*
Y22284D01*
X25527Y114681D02*
X26289Y113919D01*
X48133Y40894D02*
X48387Y40640D01*
X47498Y40894D02*
X48133D01*
X37338Y3113D02*
Y5588D01*
X34472Y33028D02*
X34849Y32651D01*
X30480Y17145D02*
X31115Y17780D01*
X30480Y15113D02*
Y17145D01*
Y15113D02*
X31115Y14478D01*
X46863Y60071D02*
X46990Y59944D01*
X39395Y58014D02*
X39766Y57643D01*
X39395Y58014D02*
Y58026D01*
X2739Y115507D02*
X11739D01*
X33249Y32651D02*
Y33195D01*
X4871Y44876D02*
X4953Y44958D01*
X4871Y42467D02*
Y44876D01*
X36614Y56845D02*
X36995Y57226D01*
X37338Y8063D02*
Y10490D01*
X31272Y31428D02*
X31649Y31051D01*
X47625Y61468D02*
Y62865D01*
X36995Y52057D02*
Y52426D01*
Y52057D02*
X37617Y51435D01*
X37744D01*
X42544Y58776D02*
X42545D01*
X41795Y58026D02*
X42544Y58776D01*
X24765Y112395D02*
X25781D01*
X25908Y110744D02*
X26412Y110240D01*
Y109252D02*
Y110240D01*
X32072Y29828D02*
X32449Y29451D01*
X30201Y51943D02*
X30595Y52337D01*
Y52426D01*
X38964Y54457D02*
Y54458D01*
Y54457D02*
X39395Y54026D01*
X32195D02*
Y55029D01*
X31623Y55601D02*
X32195Y55029D01*
X30940Y55601D02*
X31623D01*
X46724Y21451D02*
X46736Y21463D01*
X42049Y21451D02*
X46724D01*
X46736Y60198D02*
X46863Y60071D01*
X45085Y60198D02*
X46736D01*
X53086Y98171D02*
X53594Y97663D01*
X53086Y98171D02*
Y103251D01*
X54344Y104509D01*
X57635D01*
X25019Y98044D02*
X25400Y98425D01*
Y98933D01*
X25912Y99445D01*
Y100552D01*
X31818Y56849D02*
X32195Y57226D01*
X38989Y19304D02*
X39116Y19431D01*
X38989Y17780D02*
Y19304D01*
X7556Y77660D02*
X8001Y77216D01*
X7556Y77660D02*
Y79375D01*
X30480Y98044D02*
Y98425D01*
X29591Y99314D02*
X30480Y98425D01*
X28829Y99314D02*
X29591D01*
X28412Y99731D02*
X28829Y99314D01*
X28412Y99731D02*
Y100552D01*
X35395Y52955D02*
Y53226D01*
X35018Y52578D02*
X35395Y52955D01*
X35018Y47752D02*
Y52578D01*
X34891Y47625D02*
X35018Y47752D01*
X31725Y47625D02*
X34891D01*
X31598Y47752D02*
X31725Y47625D01*
X31598Y47752D02*
Y49911D01*
X31471Y50038D02*
X31598Y49911D01*
X31166Y50038D02*
X31471D01*
X31039Y49911D02*
X31166Y50038D01*
X31039Y47752D02*
Y49911D01*
X30912Y47625D02*
X31039Y47752D01*
X30607Y47625D02*
X30912D01*
X30480Y47752D02*
X30607Y47625D01*
X30480Y47752D02*
Y49911D01*
X30353Y50038D02*
X30480Y49911D01*
X29972Y50038D02*
X30353D01*
X29845Y49911D02*
X29972Y50038D01*
X29845Y41529D02*
Y49911D01*
X29718Y41402D02*
X29845Y41529D01*
X29489Y41402D02*
X29718D01*
X37389Y57607D02*
X37795Y58013D01*
Y58026D01*
X43663Y26251D02*
X43853Y26061D01*
X42049Y26251D02*
X43663D01*
X41935Y40335D02*
X42367D01*
X41808Y40208D02*
X41935Y40335D01*
X41808Y38887D02*
Y40208D01*
Y38887D02*
X42291Y38405D01*
Y34925D02*
Y38405D01*
X42164Y34798D02*
X42291Y34925D01*
X40767Y34798D02*
X42164D01*
X40640Y34671D02*
X40767Y34798D01*
X40640Y34442D02*
Y34671D01*
Y34442D02*
X40767Y34315D01*
X42545D01*
X42672Y34188D01*
Y33528D02*
Y34188D01*
Y33528D02*
X42824Y33376D01*
Y32842D02*
Y33376D01*
X42238Y32255D02*
X42824Y32842D01*
X41653Y32255D02*
X42238D01*
X41249Y31851D02*
X41653Y32255D01*
X54229Y113792D02*
X54254Y113767D01*
X56055D01*
X14379Y88548D02*
Y88872D01*
X14097Y89154D02*
X14379Y88872D01*
X12827Y89154D02*
X14097D01*
X11684Y90297D02*
X12827Y89154D01*
X11684Y90297D02*
Y90551D01*
X3953Y106315D02*
X6096Y108458D01*
X3953Y106108D02*
Y106315D01*
X42448Y25049D02*
X42520Y25121D01*
X41651Y25049D02*
X42448D01*
X41249Y25451D02*
X41651Y25049D01*
X32531Y30251D02*
X32903Y30623D01*
X32449Y30251D02*
X32531D01*
X18034Y118364D02*
Y119750D01*
X18363Y120078D01*
X23931D01*
X16541Y40417D02*
X17272Y41148D01*
X15071Y40417D02*
X16541D01*
X48895Y56388D02*
Y57912D01*
X40995Y58826D02*
Y59359D01*
X32258Y3113D02*
Y4318D01*
X33401Y5461D01*
Y10033D01*
X34163Y10795D01*
X35128D01*
X18796Y34163D02*
X19558Y33401D01*
Y30988D02*
Y33401D01*
X18796Y30226D02*
X19558Y30988D01*
X42049Y28651D02*
X42426Y29028D01*
X32876Y29078D02*
X33249Y29451D01*
X32867Y29078D02*
X32876D01*
X17879Y88548D02*
Y88999D01*
X18415Y89535D01*
X19939D01*
X20828Y90424D01*
X7556Y73063D02*
X7620Y73000D01*
X7556Y73063D02*
Y74295D01*
X40995Y50139D02*
Y52426D01*
X40767Y49911D02*
X40995Y50139D01*
X40767Y38659D02*
Y49911D01*
Y38659D02*
X40894Y38532D01*
X41402D01*
X4953Y67691D02*
X7556D01*
X37795Y54127D02*
X38354Y54686D01*
X37795Y54026D02*
Y54127D01*
X17907Y116840D02*
X18034D01*
X33672Y32228D02*
X34049Y31851D01*
X42393Y38862D02*
Y38964D01*
Y38862D02*
X42736Y38519D01*
Y34753D02*
Y38519D01*
Y34753D02*
X42799Y34690D01*
Y34688D02*
Y34690D01*
Y34688D02*
X43053Y34434D01*
Y32664D02*
Y34434D01*
X42240Y31851D02*
X43053Y32664D01*
X42049Y31851D02*
X42240D01*
X34472Y32228D02*
X34849Y31851D01*
X33672Y23474D02*
X34049Y23851D01*
X34798Y3113D02*
Y5537D01*
X34823Y5563D01*
X31976Y106652D02*
X32258Y106934D01*
X30512Y106652D02*
X31976D01*
X17018Y115951D02*
X17907Y116840D01*
X37249Y32651D02*
Y33109D01*
X35433Y34925D02*
X37249Y33109D01*
X35433Y34925D02*
Y41834D01*
X35560Y41961D01*
X36043D01*
X36170Y41834D01*
Y40919D02*
Y41834D01*
X36576Y59258D02*
X36995Y58839D01*
Y58826D02*
Y58839D01*
X39370Y56693D02*
X39395Y56717D01*
Y57226D01*
X31649Y30251D02*
X31649D01*
X31252Y30648D02*
X31649Y30251D01*
X29988Y30648D02*
X31252D01*
X29591Y30251D02*
X29988Y30648D01*
X31272Y24274D02*
X31649Y24651D01*
X10312Y46329D02*
X11213D01*
X18796Y109601D02*
X19431Y110236D01*
X21717D01*
X14351Y91948D02*
Y93345D01*
X39649Y23051D02*
X40026Y22674D01*
X35757Y58434D02*
Y58477D01*
X35408Y58826D02*
X35757Y58477D01*
X35395Y58826D02*
X35408D01*
X39649Y24651D02*
X40026Y24274D01*
X26924Y59690D02*
X30595Y58026D01*
X30608Y58826D02*
X30988Y58445D01*
X30595Y58826D02*
X30608D01*
X34556Y34544D02*
X36449Y32651D01*
X28753Y34544D02*
X34556D01*
X28626Y34671D02*
X28753Y34544D01*
X28626Y34671D02*
Y35027D01*
X28753Y35154D01*
X34468D01*
X34595Y35281D01*
Y37592D01*
X34468Y37719D02*
X34595Y37592D01*
X30759Y37719D02*
X34468D01*
X30632Y37846D02*
X30759Y37719D01*
X30632Y37846D02*
Y38075D01*
X30759Y38202D01*
X34544D01*
X34671Y38329D01*
Y38557D01*
X34544Y38684D02*
X34671Y38557D01*
X34214Y38684D02*
X34544D01*
X34087Y38811D02*
X34214Y38684D01*
X34087Y38811D02*
Y41910D01*
X34214Y42037D01*
X34595D01*
X34722Y41910D01*
Y40919D02*
Y41910D01*
X19558Y80772D02*
X20955D01*
X3556Y53594D02*
X4128Y54166D01*
Y54991D01*
X32872Y31428D02*
X33249Y31051D01*
X42418Y14986D02*
Y16256D01*
X35395Y57188D02*
X35814Y56769D01*
X35395Y57188D02*
Y57226D01*
X37665Y22681D02*
X38035Y23051D01*
X38049D01*
X38445Y22702D02*
X38794Y23051D01*
X38849D01*
X23412Y100552D02*
Y101644D01*
X23876Y102108D01*
X57531Y115316D02*
X57555Y115292D01*
Y113767D02*
Y115292D01*
X11557Y10160D02*
X12319Y10922D01*
Y11049D01*
X21209Y98298D02*
X22225Y99314D01*
X24257D01*
X24412Y99469D01*
Y100552D01*
X54229Y112268D02*
X54553D01*
X56055Y110767D01*
X2922Y17780D02*
X3556D01*
X5334Y19558D01*
Y22987D01*
X7366Y25019D01*
X14605D01*
X15240Y25654D01*
Y29007D01*
X12954Y31293D02*
X15240Y29007D01*
X12954Y31293D02*
Y32893D01*
X13335Y33274D01*
X13437D01*
X15240Y81788D02*
X15379Y81927D01*
Y82648D01*
X33672Y31428D02*
X34049Y31051D01*
X40449Y28651D02*
X40826Y29028D01*
X34290Y14859D02*
X34417Y14986D01*
Y17145D01*
X33782Y17780D02*
X34417Y17145D01*
X35331Y52363D02*
X35395Y52426D01*
X35331Y50863D02*
Y52363D01*
Y50863D02*
X35522Y50673D01*
X37186D01*
X37313Y50546D01*
Y50292D02*
Y50546D01*
X37186Y50165D02*
X37313Y50292D01*
X35560Y50165D02*
X37186D01*
X35433Y50038D02*
X35560Y50165D01*
X35433Y49784D02*
Y50038D01*
Y49784D02*
X35560Y49657D01*
X37186D01*
X37313Y49530D01*
Y49276D02*
Y49530D01*
X37186Y49149D02*
X37313Y49276D01*
X35560Y49149D02*
X37186D01*
X35433Y49022D02*
X35560Y49149D01*
X35433Y48768D02*
Y49022D01*
Y48768D02*
X35560Y48641D01*
X37211D01*
X37338Y48514D01*
Y48260D02*
Y48514D01*
X37211Y48133D02*
X37338Y48260D01*
X35560Y48133D02*
X37211D01*
X35433Y48006D02*
X35560Y48133D01*
X35433Y47752D02*
Y48006D01*
Y47752D02*
X35560Y47625D01*
X37211D01*
X37338Y47498D01*
Y47041D02*
Y47498D01*
X37211Y46914D02*
X37338Y47041D01*
X31115Y46914D02*
X37211D01*
X30988Y46787D02*
X31115Y46914D01*
X30988Y39878D02*
Y46787D01*
X19939Y50139D02*
X20548D01*
X20955Y50546D01*
X9119Y81407D02*
X10668D01*
X8407Y82118D02*
X9119Y81407D01*
X12192Y80010D02*
Y81407D01*
X7556Y82969D02*
X8407Y82118D01*
X7556Y82969D02*
Y84455D01*
X16510Y34798D02*
X17272Y35560D01*
X16510Y33655D02*
Y34798D01*
X15572Y32717D02*
X16510Y33655D01*
X15071Y32717D02*
X15572D01*
X32872Y24274D02*
X33249Y24651D01*
X30242Y23749D02*
X30543Y23449D01*
X31246D01*
X31649Y23851D01*
X34472Y30628D02*
X34849Y30251D01*
X33388Y57632D02*
X33401Y57645D01*
X33414D01*
X33795Y58026D01*
X14986Y118364D02*
X16510D01*
X51816Y117729D02*
X54229Y115316D01*
X49403Y117729D02*
X51816D01*
X25479Y27900D02*
X26230Y28651D01*
X30849D01*
X14478Y113792D02*
Y115443D01*
X13081Y37117D02*
X15071D01*
X12065Y36101D02*
X13081Y37117D01*
X12065Y34798D02*
Y36101D01*
X41249Y21451D02*
X41745Y20955D01*
X46736D01*
X46863Y20828D01*
X4128Y92075D02*
X7798D01*
X33672Y29828D02*
X34049Y29451D01*
X43663Y25002D02*
X43683Y24982D01*
X43663Y25002D02*
Y25044D01*
X43155Y25552D02*
X43663Y25044D01*
X42150Y25552D02*
X43155D01*
X42049Y25451D02*
X42150Y25552D01*
X39649Y31851D02*
X40026Y32228D01*
X31115Y16256D02*
X32512D01*
X37249Y22251D02*
X37626Y21874D01*
X40449Y31851D02*
X40826Y32228D01*
X36072Y30628D02*
X36449Y30251D01*
X37664Y31428D02*
X38041Y31051D01*
X38049D01*
X24257Y7112D02*
X24892Y7747D01*
X24130Y7112D02*
X24257D01*
X23876Y6858D02*
X24130Y7112D01*
X40005Y29845D02*
X40399Y29451D01*
X40449D01*
X31245Y29055D02*
X31649Y28651D01*
X25880Y29055D02*
X31245D01*
X25083Y28257D02*
X25880Y29055D01*
X24954Y28257D02*
X25083D01*
X35272Y30628D02*
X35649Y30251D01*
X20955Y78359D02*
Y79248D01*
X20282Y77686D02*
X20955Y78359D01*
X9563Y77686D02*
X20282D01*
X9271Y77978D02*
X9563Y77686D01*
X9271Y77978D02*
Y80137D01*
X6731Y82677D02*
X9271Y80137D01*
X6350Y82677D02*
X6731D01*
X40449Y23851D02*
X40826Y23474D01*
X38595Y53226D02*
X38972Y52849D01*
X44399Y26060D02*
Y26065D01*
X44348Y26116D02*
X44399Y26065D01*
X44348Y26116D02*
Y26289D01*
X43942Y26695D02*
X44348Y26289D01*
X42405Y26695D02*
X43942D01*
X42049Y27051D02*
X42405Y26695D01*
X42418Y3113D02*
Y5334D01*
X42545Y5461D01*
X36072Y22674D02*
X36449Y23051D01*
X47498Y39370D02*
X48133Y38735D01*
Y37719D02*
Y38735D01*
Y37719D02*
X48387Y37465D01*
X51689Y19017D02*
X52175D01*
X51275Y19431D02*
X51689Y19017D01*
X49276Y19431D02*
X51275D01*
X48641Y18796D02*
X49276Y19431D01*
X48641Y16256D02*
Y18796D01*
X47244Y14859D02*
X48641Y16256D01*
X45720Y14859D02*
X47244D01*
X44298Y16281D02*
X45720Y14859D01*
X44298Y16281D02*
Y16282D01*
X32561Y57578D02*
Y57592D01*
X32995Y58026D01*
X24595Y12065D02*
X25527Y11133D01*
Y8255D02*
Y11133D01*
Y8255D02*
X25908Y7874D01*
X26035D01*
X37249Y30251D02*
X37626Y30628D01*
X18898Y119634D02*
X22174D01*
X25451Y116357D01*
X21285Y112395D02*
X22606D01*
X41795Y59042D02*
X42113Y59360D01*
X41795Y58826D02*
Y59042D01*
X22334Y11176D02*
X22395Y11115D01*
X20828Y11176D02*
X22334D01*
X41249Y28651D02*
X41626Y29028D01*
X47498Y5842D02*
Y8063D01*
X47117Y5461D02*
X47498Y5842D01*
X36599Y53668D02*
X36957Y54026D01*
X36995D01*
X39878Y8063D02*
Y10287D01*
X36703Y13462D02*
X39878Y10287D01*
X36703Y13462D02*
Y18542D01*
X36449Y18796D02*
X36703Y18542D01*
X36449Y18796D02*
Y21451D01*
X15748Y91948D02*
Y93345D01*
X34218Y58403D02*
X34595Y58026D01*
X34595D01*
X4128Y65151D02*
X8763D01*
X19558Y116840D02*
X20193Y116205D01*
X20218D01*
X20447Y115976D01*
X32072Y29028D02*
X32449Y28651D01*
X39649Y32651D02*
Y33299D01*
X39776Y33426D01*
X42012D01*
X42139Y33553D01*
Y33782D01*
X42012Y33909D02*
X42139Y33782D01*
X40310Y33909D02*
X42012D01*
X40183Y34036D02*
X40310Y33909D01*
X40183Y34036D02*
Y34773D01*
X40056Y34900D02*
X40183Y34773D01*
X39370Y34900D02*
X40056D01*
X39243Y35027D02*
X39370Y34900D01*
X39243Y35027D02*
Y35281D01*
X39370Y35408D01*
X40589D01*
X40716Y35535D01*
Y35789D01*
X40589Y35916D02*
X40716Y35789D01*
X39497Y35916D02*
X40589D01*
X39370Y36043D02*
X39497Y35916D01*
X39370Y36043D02*
Y36297D01*
X39497Y36424D01*
X40589D01*
X40716Y36551D01*
Y36805D01*
X40589Y36932D02*
X40716Y36805D01*
X39497Y36932D02*
X40589D01*
X39370Y37059D02*
X39497Y36932D01*
X39370Y37059D02*
Y37313D01*
X39497Y37440D01*
X40589D01*
X40716Y37567D01*
Y37846D01*
X40589Y37973D02*
X40716Y37846D01*
X39497Y37973D02*
X40589D01*
X39370Y38100D02*
X39497Y37973D01*
X39370Y38100D02*
Y40996D01*
X25717Y29451D02*
X30849D01*
X25222Y28956D02*
X25717Y29451D01*
X24003Y28956D02*
X25222D01*
X23317Y29642D02*
X24003Y28956D01*
X21641Y29642D02*
X23317D01*
X14879Y82189D02*
Y82648D01*
X14224Y81534D02*
X14879Y82189D01*
X13144Y81534D02*
X14224D01*
X37008Y56439D02*
X37795Y57226D01*
X36220Y56439D02*
X37008D01*
X36093Y56312D02*
X36220Y56439D01*
X35585Y56312D02*
X36093D01*
X34950Y55677D02*
X35585Y56312D01*
D13*
X55075Y24117D02*
X56134D01*
X55928Y18717D02*
X56261Y19050D01*
X55075Y18717D02*
X55928D01*
X51232Y24765D02*
X51580Y24417D01*
X52175D01*
X51484Y25017D02*
X52175D01*
X51232Y24765D02*
X51484Y25017D01*
D14*
X38849Y23851D02*
X39226Y23474D01*
X32072D02*
X32449Y23851D01*
X37249D02*
X37626Y23474D01*
X38049Y23851D02*
X38426Y23474D01*
X32872Y25874D02*
X33249Y26251D01*
X34472Y24274D02*
X34849Y24651D01*
X32872Y27428D02*
X33249Y27051D01*
X41795Y52426D02*
X42647D01*
X43155Y52934D01*
X32072Y27428D02*
X32449Y27051D01*
X33672Y24274D02*
X34049Y24651D01*
X31272Y22674D02*
X31649Y23051D01*
X34595Y52426D02*
Y52578D01*
X35001Y52984D01*
Y54610D01*
X35839Y55448D01*
Y55905D01*
X32072Y21074D02*
X32449Y21451D01*
X32072Y25874D02*
X32449Y26251D01*
X33249Y20918D02*
Y21451D01*
X33672Y22674D02*
X34049Y23051D01*
X30472Y21874D02*
X30849Y22251D01*
X33833Y20921D02*
X34319D01*
X34849Y21451D01*
X32072Y22674D02*
X32449Y23051D01*
X32072Y24274D02*
X32449Y24651D01*
X32072Y25074D02*
X32449Y25451D01*
X31272Y21874D02*
X31649Y22251D01*
X42049Y23851D02*
X42582D01*
X32072Y28228D02*
X32449Y27851D01*
X32872Y32228D02*
X33249Y31851D01*
X33630Y28270D02*
X33655D01*
X33249Y28651D02*
X33630Y28270D01*
X33249Y27816D02*
X33630Y27435D01*
X33249Y27816D02*
Y27851D01*
X30472Y21074D02*
X30849Y21451D01*
X32072Y21874D02*
X32449Y22251D01*
X32872Y22674D02*
X33249Y23051D01*
X31272Y21074D02*
X31649Y21451D01*
X36072Y23474D02*
X36449Y23851D01*
X39243Y24232D02*
X39623Y23851D01*
X39649D01*
X98013Y-48975D02*
X97940Y-49047D01*
X98013Y-49120D01*
X98085Y-49047D01*
X98013Y-48975D01*
X99507Y-47959D02*
X99435Y-47814D01*
X99290Y-47669D01*
X99144Y-47596D01*
X98854D01*
X98709Y-47669D01*
X98564Y-47814D01*
X98491Y-47959D01*
X98419Y-48177D01*
Y-48540D01*
X98491Y-48757D01*
X98564Y-48902D01*
X98709Y-49047D01*
X98854Y-49120D01*
X99144D01*
X99290Y-49047D01*
X99435Y-48902D01*
X99507Y-48757D01*
Y-48540D01*
X99144D02*
X99507D01*
X99855Y-47596D02*
Y-49120D01*
Y-47596D02*
X100508D01*
X100726Y-47669D01*
X100799Y-47741D01*
X100871Y-47887D01*
Y-48032D01*
X100799Y-48177D01*
X100726Y-48249D01*
X100508Y-48322D01*
X99855D02*
X100508D01*
X100726Y-48394D01*
X100799Y-48467D01*
X100871Y-48612D01*
Y-48830D01*
X100799Y-48975D01*
X100726Y-49047D01*
X100508Y-49120D01*
X99855D01*
X101212Y-47596D02*
Y-49120D01*
X102083D01*
X55499Y-47752D02*
Y-49276D01*
Y-47752D02*
X56152D01*
X56370Y-47825D01*
X56442Y-47897D01*
X56515Y-48043D01*
Y-48188D01*
X56442Y-48333D01*
X56370Y-48405D01*
X56152Y-48478D01*
X55499D02*
X56152D01*
X56370Y-48550D01*
X56442Y-48623D01*
X56515Y-48768D01*
Y-48986D01*
X56442Y-49131D01*
X56370Y-49203D01*
X56152Y-49276D01*
X55499D01*
X57291Y-47752D02*
X57146Y-47825D01*
X57001Y-47970D01*
X56928Y-48115D01*
X56856Y-48333D01*
Y-48696D01*
X56928Y-48913D01*
X57001Y-49058D01*
X57146Y-49203D01*
X57291Y-49276D01*
X57581D01*
X57726Y-49203D01*
X57872Y-49058D01*
X57944Y-48913D01*
X58017Y-48696D01*
Y-48333D01*
X57944Y-48115D01*
X57872Y-47970D01*
X57726Y-47825D01*
X57581Y-47752D01*
X57291D01*
X58880D02*
Y-49276D01*
X58372Y-47752D02*
X59388D01*
X60077D02*
Y-49276D01*
X59569Y-47752D02*
X60585D01*
X61202D02*
X61057Y-47825D01*
X60912Y-47970D01*
X60839Y-48115D01*
X60767Y-48333D01*
Y-48696D01*
X60839Y-48913D01*
X60912Y-49058D01*
X61057Y-49203D01*
X61202Y-49276D01*
X61492D01*
X61637Y-49203D01*
X61782Y-49058D01*
X61855Y-48913D01*
X61927Y-48696D01*
Y-48333D01*
X61855Y-48115D01*
X61782Y-47970D01*
X61637Y-47825D01*
X61492Y-47752D01*
X61202D01*
X62283D02*
Y-49276D01*
Y-47752D02*
X62863Y-49276D01*
X63444Y-47752D02*
X62863Y-49276D01*
X63444Y-47752D02*
Y-49276D01*
D15*
X59746Y26797D02*
G03*
X60000Y27051I0J254D01*
G01*
X0Y29845D02*
G03*
X0Y41402I-25591J5779D01*
G01*
X60000Y16510D02*
G03*
X59746Y16764I-254J0D01*
G01*
X58713Y17018D02*
G03*
X58967Y16764I254J0D01*
G01*
Y26797D02*
G03*
X58713Y26543I0J-254D01*
G01*
X-90424Y-128016D02*
Y283464D01*
X458216D01*
Y-128016D02*
Y283464D01*
X-90424Y-128016D02*
X458216D01*
X183896Y275844D02*
Y283464D01*
Y-128016D02*
X188976Y-116586D01*
X178816D02*
X188976D01*
X178816D02*
X183896Y-128016D01*
Y-110236D01*
Y-121666D02*
X188976Y-116586D01*
X178816D02*
X183896Y-121666D01*
X450596Y176784D02*
X458216D01*
X450596Y77724D02*
X458216D01*
X450596Y-21336D02*
X458216D01*
X361696Y-128016D02*
Y-120396D01*
X272796Y-128016D02*
Y-120396D01*
X183896Y-128016D02*
Y-120396D01*
X94996Y-128016D02*
Y-120396D01*
X6096Y-128016D02*
Y-120396D01*
X361696Y275844D02*
Y283464D01*
X272796Y275844D02*
Y283464D01*
X94996Y275844D02*
Y283464D01*
X6096Y275844D02*
Y283464D01*
X-90424Y176784D02*
X-82804D01*
X-90424Y77724D02*
X-82804D01*
X-90424Y-21336D02*
X-82804D01*
X326136Y-120396D02*
X450596D01*
Y123444D01*
X-82804Y275844D02*
X450596D01*
Y82804D02*
Y275844D01*
Y123444D02*
Y219964D01*
X-82804Y-120396D02*
X326136D01*
X-82804D02*
Y275844D01*
X-90424Y-21336D02*
X-82804D01*
X450596Y77724D02*
X458216D01*
X361696Y275844D02*
Y283464D01*
X-90424Y176784D02*
X-82804D01*
X6096Y-128016D02*
Y-120396D01*
X450596Y-21336D02*
X458216D01*
X326136Y-120396D02*
X450596D01*
Y123444D01*
X-90424Y-128016D02*
Y283464D01*
X458216D01*
Y-128016D02*
Y283464D01*
X-90424Y-128016D02*
X458216D01*
X272796D02*
Y-120396D01*
X-82804D02*
Y275844D01*
X183896Y-128016D02*
Y-120396D01*
Y-121666D02*
X188976Y-116586D01*
X178816D02*
X183896Y-121666D01*
Y-128016D02*
X188976Y-116586D01*
X178816D02*
X188976D01*
X178816D02*
X183896Y-128016D01*
Y-110236D01*
X361696Y-128016D02*
Y-120396D01*
X-90424Y77724D02*
X-82804D01*
X272796Y275844D02*
Y283464D01*
X450596Y176784D02*
X458216D01*
X94996Y275844D02*
Y283464D01*
X183896Y275844D02*
Y283464D01*
X450596Y123444D02*
Y219964D01*
X-82804Y275844D02*
X450596D01*
Y82804D02*
Y275844D01*
X6096D02*
Y283464D01*
X-82804Y-120396D02*
X326136D01*
X94996Y-128016D02*
Y-120396D01*
X0Y41402D02*
Y127000D01*
X60000D01*
Y27051D02*
Y127000D01*
Y27051D02*
Y127000D01*
X0D02*
X60000D01*
X0Y41402D02*
Y127000D01*
Y0D02*
Y29845D01*
Y0D02*
X18917D01*
Y1785D01*
X19017Y1885D01*
X19667D01*
X19767Y1785D01*
Y0D02*
Y1785D01*
Y0D02*
X23667D01*
Y1785D01*
X23767Y1885D01*
X24417D01*
X24517Y1785D01*
Y0D02*
Y1785D01*
Y0D02*
X60000D01*
Y16510D01*
X58967Y16764D02*
X59746D01*
X58713Y17018D02*
Y26543D01*
X58967Y26797D02*
X59746D01*
X58967D02*
X59746D01*
D16*
X22225Y60579D02*
Y61976D01*
Y60579D02*
X23622D01*
Y61976D01*
X22225D02*
X23622D01*
X22225Y58547D02*
Y59944D01*
Y58547D02*
X23622D01*
Y59944D01*
X22225D02*
X23622D01*
X57635Y105009D02*
X58166Y105540D01*
Y107442D01*
X19856Y107652D02*
X21812D01*
X19812Y107696D02*
X19856Y107652D01*
X16379Y88548D02*
Y89658D01*
X17018Y90805D01*
X56908Y103009D02*
X57635D01*
X56642Y102743D02*
X56908Y103009D01*
X56642Y102108D02*
Y102743D01*
Y102108D02*
X56896Y101854D01*
X28912Y100120D02*
Y100552D01*
Y100120D02*
X29210Y99822D01*
X29845D01*
X31623Y98044D01*
X16510Y80899D02*
Y81800D01*
X16879Y82169D01*
Y82648D01*
X28575Y110744D02*
X28912Y110446D01*
Y109252D02*
Y110446D01*
X54496Y19317D02*
X55075D01*
X52832Y17653D02*
X54496Y19317D01*
X50419Y17653D02*
X52832D01*
X51308Y18669D02*
X51560Y18417D01*
X52175D01*
X24912Y108184D02*
Y109252D01*
X22145Y7739D02*
Y8048D01*
X22377Y8280D01*
X22860D01*
X31579Y102152D02*
X32258Y101473D01*
X30512Y102152D02*
X31579D01*
X30764Y33536D02*
X31649Y32651D01*
X24912Y99207D02*
Y100552D01*
X14879Y88548D02*
Y89261D01*
X14605Y89535D02*
X14879Y89261D01*
X13970Y89535D02*
X14605D01*
X13462Y90043D02*
X13970Y89535D01*
X13462Y90043D02*
Y90424D01*
X13081Y90805D02*
X13462Y90424D01*
X453136Y223265D02*
Y219964D01*
Y223265D02*
X454236D01*
X454708Y223108D01*
X455022Y222794D01*
X455180Y222479D01*
X455337Y222008D01*
Y221222D01*
X455180Y220750D01*
X455022Y220436D01*
X454708Y220121D01*
X454236Y219964D01*
X453136D01*
X455494Y123419D02*
X455337Y123734D01*
X455022Y124048D01*
X454708Y124205D01*
X454079D01*
X453765Y124048D01*
X453450Y123734D01*
X453293Y123419D01*
X453136Y122948D01*
Y122162D01*
X453293Y121690D01*
X453450Y121376D01*
X453765Y121061D01*
X454079Y120904D01*
X454708D01*
X455022Y121061D01*
X455337Y121376D01*
X455494Y121690D01*
X453136Y30225D02*
Y26924D01*
Y30225D02*
X454551D01*
X455022Y30068D01*
X455180Y29911D01*
X455337Y29596D01*
Y29282D01*
X455180Y28968D01*
X455022Y28810D01*
X454551Y28653D01*
X453136D02*
X454551D01*
X455022Y28496D01*
X455180Y28339D01*
X455337Y28024D01*
Y27553D01*
X455180Y27238D01*
X455022Y27081D01*
X454551Y26924D01*
X453136D01*
X455651Y-79756D02*
X454394Y-76455D01*
X453136Y-79756D01*
X453608Y-78656D02*
X455180D01*
X407416Y-122804D02*
X407730Y-122646D01*
X408202Y-122175D01*
Y-125476D01*
X318673Y-122961D02*
Y-122804D01*
X318830Y-122489D01*
X318988Y-122332D01*
X319302Y-122175D01*
X319931D01*
X320245Y-122332D01*
X320402Y-122489D01*
X320560Y-122804D01*
Y-123118D01*
X320402Y-123432D01*
X320088Y-123904D01*
X318516Y-125476D01*
X320717D01*
X229930Y-122175D02*
X231660D01*
X230716Y-123432D01*
X231188D01*
X231502Y-123590D01*
X231660Y-123747D01*
X231817Y-124218D01*
Y-124533D01*
X231660Y-125004D01*
X231345Y-125319D01*
X230874Y-125476D01*
X230402D01*
X229930Y-125319D01*
X229773Y-125162D01*
X229616Y-124847D01*
X142288Y-122175D02*
X140716Y-124376D01*
X143074D01*
X142288Y-122175D02*
Y-125476D01*
X53702Y-122175D02*
X52130D01*
X51973Y-123590D01*
X52130Y-123432D01*
X52602Y-123275D01*
X53074D01*
X53545Y-123432D01*
X53860Y-123747D01*
X54017Y-124218D01*
Y-124533D01*
X53860Y-125004D01*
X53545Y-125319D01*
X53074Y-125476D01*
X52602D01*
X52130Y-125319D01*
X51973Y-125162D01*
X51816Y-124847D01*
X-35198Y-122646D02*
X-35355Y-122332D01*
X-35826Y-122175D01*
X-36141D01*
X-36612Y-122332D01*
X-36927Y-122804D01*
X-37084Y-123590D01*
Y-124376D01*
X-36927Y-125004D01*
X-36612Y-125319D01*
X-36141Y-125476D01*
X-35984D01*
X-35512Y-125319D01*
X-35198Y-125004D01*
X-35040Y-124533D01*
Y-124376D01*
X-35198Y-123904D01*
X-35512Y-123590D01*
X-35984Y-123432D01*
X-36141D01*
X-36612Y-123590D01*
X-36927Y-123904D01*
X-37084Y-124376D01*
X407416Y281056D02*
X407730Y281214D01*
X408202Y281685D01*
Y278384D01*
X318673Y280899D02*
Y281056D01*
X318830Y281371D01*
X318988Y281528D01*
X319302Y281685D01*
X319931D01*
X320245Y281528D01*
X320402Y281371D01*
X320560Y281056D01*
Y280742D01*
X320402Y280428D01*
X320088Y279956D01*
X318516Y278384D01*
X320717D01*
X229930Y281685D02*
X231660D01*
X230716Y280428D01*
X231188D01*
X231502Y280270D01*
X231660Y280113D01*
X231817Y279642D01*
Y279327D01*
X231660Y278856D01*
X231345Y278541D01*
X230874Y278384D01*
X230402D01*
X229930Y278541D01*
X229773Y278698D01*
X229616Y279013D01*
X142288Y281685D02*
X140716Y279484D01*
X143074D01*
X142288Y281685D02*
Y278384D01*
X53702Y281685D02*
X52130D01*
X51973Y280270D01*
X52130Y280428D01*
X52602Y280585D01*
X53074D01*
X53545Y280428D01*
X53860Y280113D01*
X54017Y279642D01*
Y279327D01*
X53860Y278856D01*
X53545Y278541D01*
X53074Y278384D01*
X52602D01*
X52130Y278541D01*
X51973Y278698D01*
X51816Y279013D01*
X-35198Y281214D02*
X-35355Y281528D01*
X-35826Y281685D01*
X-36141D01*
X-36612Y281528D01*
X-36927Y281056D01*
X-37084Y280270D01*
Y279484D01*
X-36927Y278856D01*
X-36612Y278541D01*
X-36141Y278384D01*
X-35984D01*
X-35512Y278541D01*
X-35198Y278856D01*
X-35040Y279327D01*
Y279484D01*
X-35198Y279956D01*
X-35512Y280270D01*
X-35984Y280428D01*
X-36141D01*
X-36612Y280270D01*
X-36927Y279956D01*
X-37084Y279484D01*
X-85369Y-79756D02*
X-86626Y-76455D01*
X-87884Y-79756D01*
X-87412Y-78656D02*
X-85840D01*
X-87884Y30225D02*
Y26924D01*
Y30225D02*
X-86469D01*
X-85998Y30068D01*
X-85840Y29911D01*
X-85683Y29596D01*
Y29282D01*
X-85840Y28968D01*
X-85998Y28810D01*
X-86469Y28653D01*
X-87884D02*
X-86469D01*
X-85998Y28496D01*
X-85840Y28339D01*
X-85683Y28024D01*
Y27553D01*
X-85840Y27238D01*
X-85998Y27081D01*
X-86469Y26924D01*
X-87884D01*
X-85526Y123419D02*
X-85683Y123734D01*
X-85998Y124048D01*
X-86312Y124205D01*
X-86941D01*
X-87255Y124048D01*
X-87570Y123734D01*
X-87727Y123419D01*
X-87884Y122948D01*
Y122162D01*
X-87727Y121690D01*
X-87570Y121376D01*
X-87255Y121061D01*
X-86941Y120904D01*
X-86312D01*
X-85998Y121061D01*
X-85683Y121376D01*
X-85526Y121690D01*
X-87884Y223265D02*
Y219964D01*
Y223265D02*
X-86784D01*
X-86312Y223108D01*
X-85998Y222794D01*
X-85840Y222479D01*
X-85683Y222008D01*
Y221222D01*
X-85840Y220750D01*
X-85998Y220436D01*
X-86312Y220121D01*
X-86784Y219964D01*
X-87884D01*
X-85369Y-79756D02*
X-86626Y-76455D01*
X-87884Y-79756D01*
X-87412Y-78656D02*
X-85840D01*
X453136Y223265D02*
Y219964D01*
Y223265D02*
X454236D01*
X454708Y223108D01*
X455022Y222794D01*
X455180Y222479D01*
X455337Y222008D01*
Y221222D01*
X455180Y220750D01*
X455022Y220436D01*
X454708Y220121D01*
X454236Y219964D01*
X453136D01*
X-85526Y123419D02*
X-85683Y123734D01*
X-85998Y124048D01*
X-86312Y124205D01*
X-86941D01*
X-87255Y124048D01*
X-87570Y123734D01*
X-87727Y123419D01*
X-87884Y122948D01*
Y122162D01*
X-87727Y121690D01*
X-87570Y121376D01*
X-87255Y121061D01*
X-86941Y120904D01*
X-86312D01*
X-85998Y121061D01*
X-85683Y121376D01*
X-85526Y121690D01*
X407416Y281056D02*
X407730Y281214D01*
X408202Y281685D01*
Y278384D01*
X53702Y-122175D02*
X52130D01*
X51973Y-123590D01*
X52130Y-123432D01*
X52602Y-123275D01*
X53074D01*
X53545Y-123432D01*
X53860Y-123747D01*
X54017Y-124218D01*
Y-124533D01*
X53860Y-125004D01*
X53545Y-125319D01*
X53074Y-125476D01*
X52602D01*
X52130Y-125319D01*
X51973Y-125162D01*
X51816Y-124847D01*
X455494Y123419D02*
X455337Y123734D01*
X455022Y124048D01*
X454708Y124205D01*
X454079D01*
X453765Y124048D01*
X453450Y123734D01*
X453293Y123419D01*
X453136Y122948D01*
Y122162D01*
X453293Y121690D01*
X453450Y121376D01*
X453765Y121061D01*
X454079Y120904D01*
X454708D01*
X455022Y121061D01*
X455337Y121376D01*
X455494Y121690D01*
X142288Y-122175D02*
X140716Y-124376D01*
X143074D01*
X142288Y-122175D02*
Y-125476D01*
X318673Y280899D02*
Y281056D01*
X318830Y281371D01*
X318988Y281528D01*
X319302Y281685D01*
X319931D01*
X320245Y281528D01*
X320402Y281371D01*
X320560Y281056D01*
Y280742D01*
X320402Y280428D01*
X320088Y279956D01*
X318516Y278384D01*
X320717D01*
X-35198Y281214D02*
X-35355Y281528D01*
X-35826Y281685D01*
X-36141D01*
X-36612Y281528D01*
X-36927Y281056D01*
X-37084Y280270D01*
Y279484D01*
X-36927Y278856D01*
X-36612Y278541D01*
X-36141Y278384D01*
X-35984D01*
X-35512Y278541D01*
X-35198Y278856D01*
X-35040Y279327D01*
Y279484D01*
X-35198Y279956D01*
X-35512Y280270D01*
X-35984Y280428D01*
X-36141D01*
X-36612Y280270D01*
X-36927Y279956D01*
X-37084Y279484D01*
X-87884Y223265D02*
Y219964D01*
Y223265D02*
X-86784D01*
X-86312Y223108D01*
X-85998Y222794D01*
X-85840Y222479D01*
X-85683Y222008D01*
Y221222D01*
X-85840Y220750D01*
X-85998Y220436D01*
X-86312Y220121D01*
X-86784Y219964D01*
X-87884D01*
X53702Y281685D02*
X52130D01*
X51973Y280270D01*
X52130Y280428D01*
X52602Y280585D01*
X53074D01*
X53545Y280428D01*
X53860Y280113D01*
X54017Y279642D01*
Y279327D01*
X53860Y278856D01*
X53545Y278541D01*
X53074Y278384D01*
X52602D01*
X52130Y278541D01*
X51973Y278698D01*
X51816Y279013D01*
X-35198Y-122646D02*
X-35355Y-122332D01*
X-35826Y-122175D01*
X-36141D01*
X-36612Y-122332D01*
X-36927Y-122804D01*
X-37084Y-123590D01*
Y-124376D01*
X-36927Y-125004D01*
X-36612Y-125319D01*
X-36141Y-125476D01*
X-35984D01*
X-35512Y-125319D01*
X-35198Y-125004D01*
X-35040Y-124533D01*
Y-124376D01*
X-35198Y-123904D01*
X-35512Y-123590D01*
X-35984Y-123432D01*
X-36141D01*
X-36612Y-123590D01*
X-36927Y-123904D01*
X-37084Y-124376D01*
X229930Y-122175D02*
X231660D01*
X230716Y-123432D01*
X231188D01*
X231502Y-123590D01*
X231660Y-123747D01*
X231817Y-124218D01*
Y-124533D01*
X231660Y-125004D01*
X231345Y-125319D01*
X230874Y-125476D01*
X230402D01*
X229930Y-125319D01*
X229773Y-125162D01*
X229616Y-124847D01*
X453136Y30225D02*
Y26924D01*
Y30225D02*
X454551D01*
X455022Y30068D01*
X455180Y29911D01*
X455337Y29596D01*
Y29282D01*
X455180Y28968D01*
X455022Y28810D01*
X454551Y28653D01*
X453136D02*
X454551D01*
X455022Y28496D01*
X455180Y28339D01*
X455337Y28024D01*
Y27553D01*
X455180Y27238D01*
X455022Y27081D01*
X454551Y26924D01*
X453136D01*
X229930Y281685D02*
X231660D01*
X230716Y280428D01*
X231188D01*
X231502Y280270D01*
X231660Y280113D01*
X231817Y279642D01*
Y279327D01*
X231660Y278856D01*
X231345Y278541D01*
X230874Y278384D01*
X230402D01*
X229930Y278541D01*
X229773Y278698D01*
X229616Y279013D01*
X455651Y-79756D02*
X454394Y-76455D01*
X453136Y-79756D01*
X453608Y-78656D02*
X455180D01*
X-87884Y30225D02*
Y26924D01*
Y30225D02*
X-86469D01*
X-85998Y30068D01*
X-85840Y29911D01*
X-85683Y29596D01*
Y29282D01*
X-85840Y28968D01*
X-85998Y28810D01*
X-86469Y28653D01*
X-87884D02*
X-86469D01*
X-85998Y28496D01*
X-85840Y28339D01*
X-85683Y28024D01*
Y27553D01*
X-85840Y27238D01*
X-85998Y27081D01*
X-86469Y26924D01*
X-87884D01*
X407416Y-122804D02*
X407730Y-122646D01*
X408202Y-122175D01*
Y-125476D01*
X142288Y281685D02*
X140716Y279484D01*
X143074D01*
X142288Y281685D02*
Y278384D01*
X318673Y-122961D02*
Y-122804D01*
X318830Y-122489D01*
X318988Y-122332D01*
X319302Y-122175D01*
X319931D01*
X320245Y-122332D01*
X320402Y-122489D01*
X320560Y-122804D01*
Y-123118D01*
X320402Y-123432D01*
X320088Y-123904D01*
X318516Y-125476D01*
X320717D01*
D36*
X30849Y25451D02*
D03*
Y26251D02*
D03*
Y27051D02*
D03*
Y27851D02*
D03*
Y28651D02*
D03*
Y29451D02*
D03*
Y30251D02*
D03*
Y31051D02*
D03*
Y31851D02*
D03*
Y32651D02*
D03*
Y21451D02*
D03*
Y22251D02*
D03*
Y23051D02*
D03*
Y23851D02*
D03*
Y24651D02*
D03*
X31649Y25451D02*
D03*
Y26251D02*
D03*
Y27051D02*
D03*
Y27851D02*
D03*
Y28651D02*
D03*
Y29451D02*
D03*
Y30251D02*
D03*
Y31051D02*
D03*
Y31851D02*
D03*
Y32651D02*
D03*
Y21451D02*
D03*
Y22251D02*
D03*
Y23051D02*
D03*
Y23851D02*
D03*
Y24651D02*
D03*
X32449Y25451D02*
D03*
Y26251D02*
D03*
Y27051D02*
D03*
Y27851D02*
D03*
Y28651D02*
D03*
Y29451D02*
D03*
Y30251D02*
D03*
Y31051D02*
D03*
Y31851D02*
D03*
Y32651D02*
D03*
Y21451D02*
D03*
Y22251D02*
D03*
Y23051D02*
D03*
Y23851D02*
D03*
Y24651D02*
D03*
X33249Y25451D02*
D03*
Y26251D02*
D03*
Y27051D02*
D03*
Y27851D02*
D03*
Y28651D02*
D03*
Y29451D02*
D03*
Y30251D02*
D03*
Y31051D02*
D03*
Y31851D02*
D03*
Y32651D02*
D03*
Y21451D02*
D03*
Y22251D02*
D03*
Y23051D02*
D03*
Y23851D02*
D03*
Y24651D02*
D03*
X34049Y25451D02*
D03*
Y26251D02*
D03*
Y27051D02*
D03*
Y27851D02*
D03*
Y28651D02*
D03*
Y29451D02*
D03*
Y30251D02*
D03*
Y31051D02*
D03*
Y31851D02*
D03*
Y32651D02*
D03*
Y21451D02*
D03*
Y22251D02*
D03*
Y23051D02*
D03*
Y23851D02*
D03*
Y24651D02*
D03*
X34849Y25451D02*
D03*
Y26251D02*
D03*
Y27051D02*
D03*
Y27851D02*
D03*
Y28651D02*
D03*
Y29451D02*
D03*
Y30251D02*
D03*
Y31051D02*
D03*
Y31851D02*
D03*
Y32651D02*
D03*
Y21451D02*
D03*
Y22251D02*
D03*
Y23051D02*
D03*
Y23851D02*
D03*
Y24651D02*
D03*
X35649Y25451D02*
D03*
Y28651D02*
D03*
Y29451D02*
D03*
Y30251D02*
D03*
Y31051D02*
D03*
Y31851D02*
D03*
Y32651D02*
D03*
Y21451D02*
D03*
Y22251D02*
D03*
Y23051D02*
D03*
Y23851D02*
D03*
Y24651D02*
D03*
X36449Y25451D02*
D03*
Y28651D02*
D03*
Y29451D02*
D03*
Y30251D02*
D03*
Y31051D02*
D03*
Y31851D02*
D03*
Y32651D02*
D03*
Y21451D02*
D03*
Y22251D02*
D03*
Y23051D02*
D03*
Y23851D02*
D03*
Y24651D02*
D03*
X37249Y25451D02*
D03*
Y28651D02*
D03*
Y29451D02*
D03*
Y30251D02*
D03*
Y31051D02*
D03*
Y31851D02*
D03*
Y32651D02*
D03*
Y21451D02*
D03*
Y22251D02*
D03*
Y23051D02*
D03*
Y23851D02*
D03*
Y24651D02*
D03*
X38049Y25451D02*
D03*
Y26251D02*
D03*
Y27051D02*
D03*
Y27851D02*
D03*
Y28651D02*
D03*
Y29451D02*
D03*
Y30251D02*
D03*
Y31051D02*
D03*
Y31851D02*
D03*
Y32651D02*
D03*
Y21451D02*
D03*
Y22251D02*
D03*
Y23051D02*
D03*
Y23851D02*
D03*
Y24651D02*
D03*
X38849Y25451D02*
D03*
Y26251D02*
D03*
Y27051D02*
D03*
Y27851D02*
D03*
Y28651D02*
D03*
Y29451D02*
D03*
Y30251D02*
D03*
Y31051D02*
D03*
Y31851D02*
D03*
Y32651D02*
D03*
Y21451D02*
D03*
Y22251D02*
D03*
Y23051D02*
D03*
Y23851D02*
D03*
Y24651D02*
D03*
X39649Y25451D02*
D03*
Y26251D02*
D03*
Y27051D02*
D03*
Y27851D02*
D03*
Y28651D02*
D03*
Y29451D02*
D03*
Y30251D02*
D03*
Y31051D02*
D03*
Y31851D02*
D03*
Y32651D02*
D03*
Y21451D02*
D03*
Y22251D02*
D03*
Y23051D02*
D03*
Y23851D02*
D03*
Y24651D02*
D03*
X40449Y25451D02*
D03*
Y26251D02*
D03*
Y27051D02*
D03*
Y27851D02*
D03*
Y28651D02*
D03*
Y29451D02*
D03*
Y30251D02*
D03*
Y31051D02*
D03*
Y31851D02*
D03*
Y32651D02*
D03*
Y21451D02*
D03*
Y22251D02*
D03*
Y23051D02*
D03*
Y23851D02*
D03*
Y24651D02*
D03*
X41249Y25451D02*
D03*
Y26251D02*
D03*
Y27051D02*
D03*
Y27851D02*
D03*
Y28651D02*
D03*
Y29451D02*
D03*
Y30251D02*
D03*
Y31051D02*
D03*
Y31851D02*
D03*
Y32651D02*
D03*
Y21451D02*
D03*
Y22251D02*
D03*
Y23051D02*
D03*
Y23851D02*
D03*
Y24651D02*
D03*
X42049Y25451D02*
D03*
Y26251D02*
D03*
Y27051D02*
D03*
Y27851D02*
D03*
Y28651D02*
D03*
Y29451D02*
D03*
Y30251D02*
D03*
Y31051D02*
D03*
Y31851D02*
D03*
Y32651D02*
D03*
Y21451D02*
D03*
Y22251D02*
D03*
Y23051D02*
D03*
Y23851D02*
D03*
Y24651D02*
D03*
X46863Y20828D02*
D03*
X46736Y21463D02*
D03*
X44399Y26060D02*
D03*
X44221Y24982D02*
D03*
X44145Y31267D02*
D03*
X44069Y29718D02*
D03*
X43853Y26061D02*
D03*
X43683Y24982D02*
D03*
X43180Y52959D02*
D03*
X43155Y53569D02*
D03*
X43078Y25019D02*
D03*
X42955Y30710D02*
D03*
X42582Y23851D02*
D03*
Y23051D02*
D03*
X42582Y22223D02*
D03*
X42545Y58776D02*
D03*
X42520Y25121D02*
D03*
X42426Y33028D02*
D03*
Y29028D02*
D03*
X42393Y29871D02*
D03*
X42172Y53649D02*
D03*
X42113Y59360D02*
D03*
X41732Y54737D02*
D03*
X41626Y33028D02*
D03*
Y29828D02*
D03*
Y29028D02*
D03*
Y27428D02*
D03*
X41372Y58403D02*
D03*
Y53649D02*
D03*
X40995Y59359D02*
D03*
X40869Y25874D02*
D03*
X40826Y24274D02*
D03*
Y23474D02*
D03*
Y33028D02*
D03*
Y32228D02*
D03*
Y30628D02*
D03*
Y29028D02*
D03*
Y28228D02*
D03*
X40640Y57658D02*
D03*
X40589Y53645D02*
D03*
X40572Y58403D02*
D03*
Y52049D02*
D03*
X40056Y27444D02*
D03*
Y25832D02*
D03*
X40030Y23442D02*
D03*
Y31428D02*
D03*
Y26670D02*
D03*
X40026Y25074D02*
D03*
Y24274D02*
D03*
Y22674D02*
D03*
Y32228D02*
D03*
Y29028D02*
D03*
Y28228D02*
D03*
X40005Y29845D02*
D03*
X39787Y52882D02*
D03*
X39772Y52049D02*
D03*
X39766Y57643D02*
D03*
X39370Y56693D02*
D03*
X39264Y31428D02*
D03*
X39260Y29062D02*
D03*
X39255Y28245D02*
D03*
X39243Y24232D02*
D03*
Y21844D02*
D03*
Y29845D02*
D03*
Y25832D02*
D03*
X39238Y22617D02*
D03*
X39226Y25074D02*
D03*
Y23474D02*
D03*
Y30628D02*
D03*
Y27428D02*
D03*
X38989Y57658D02*
D03*
Y53594D02*
D03*
X38972Y52849D02*
D03*
X38964Y54458D02*
D03*
X38595Y59385D02*
D03*
X38464Y31428D02*
D03*
X38445Y22702D02*
D03*
X38430Y24257D02*
D03*
Y25832D02*
D03*
X38426Y25074D02*
D03*
Y23474D02*
D03*
Y21874D02*
D03*
Y30628D02*
D03*
Y29828D02*
D03*
Y29028D02*
D03*
Y28228D02*
D03*
Y27428D02*
D03*
X38354Y20993D02*
D03*
Y54686D02*
D03*
X38176Y52019D02*
D03*
X37744Y51435D02*
D03*
X37672Y25874D02*
D03*
X37665Y22681D02*
D03*
X37664Y31428D02*
D03*
X37626Y25074D02*
D03*
Y24274D02*
D03*
Y23474D02*
D03*
Y21874D02*
D03*
Y30628D02*
D03*
Y29828D02*
D03*
Y29028D02*
D03*
X37414Y52832D02*
D03*
X37389Y57607D02*
D03*
X37372Y58403D02*
D03*
X37363Y19507D02*
D03*
X36855Y55524D02*
D03*
X36641Y55028D02*
D03*
X36614Y56845D02*
D03*
X36599Y53668D02*
D03*
X36576Y59258D02*
D03*
Y58445D02*
D03*
X36566Y57642D02*
D03*
X36072Y25074D02*
D03*
Y24274D02*
D03*
Y23474D02*
D03*
Y22674D02*
D03*
Y21874D02*
D03*
Y32228D02*
D03*
Y30628D02*
D03*
Y29828D02*
D03*
Y29028D02*
D03*
X36068Y31471D02*
D03*
X35839Y55905D02*
D03*
X35814Y57658D02*
D03*
Y56769D02*
D03*
X35789Y52823D02*
D03*
X35763Y52019D02*
D03*
X35757Y58434D02*
D03*
X35272Y25074D02*
D03*
Y24274D02*
D03*
Y33028D02*
D03*
Y32228D02*
D03*
Y30628D02*
D03*
Y29828D02*
D03*
Y29028D02*
D03*
X35255Y23444D02*
D03*
X35246Y22687D02*
D03*
X35234Y28228D02*
D03*
Y27428D02*
D03*
X34950Y55677D02*
D03*
X34492Y21846D02*
D03*
X34472Y25074D02*
D03*
Y24274D02*
D03*
Y23474D02*
D03*
Y22674D02*
D03*
Y33028D02*
D03*
Y32228D02*
D03*
Y31428D02*
D03*
Y30628D02*
D03*
Y29828D02*
D03*
Y29028D02*
D03*
Y25874D02*
D03*
X34434Y28228D02*
D03*
Y27428D02*
D03*
X34392Y59741D02*
D03*
X34218Y58403D02*
D03*
X34198Y57582D02*
D03*
X34188Y56845D02*
D03*
X34172Y53649D02*
D03*
X33833Y20921D02*
D03*
X33672Y25074D02*
D03*
Y24274D02*
D03*
Y23474D02*
D03*
Y22674D02*
D03*
Y32228D02*
D03*
Y31428D02*
D03*
Y30628D02*
D03*
Y29828D02*
D03*
Y29028D02*
D03*
Y25874D02*
D03*
X33655Y28270D02*
D03*
X33631Y21869D02*
D03*
X33630Y27435D02*
D03*
X33414Y53607D02*
D03*
X33401Y58420D02*
D03*
Y56769D02*
D03*
Y52832D02*
D03*
X33388Y57632D02*
D03*
X33249Y20918D02*
D03*
Y33195D02*
D03*
X32903Y30623D02*
D03*
X32872Y25074D02*
D03*
Y24274D02*
D03*
Y23474D02*
D03*
Y22674D02*
D03*
Y32228D02*
D03*
Y31428D02*
D03*
Y29845D02*
D03*
Y27428D02*
D03*
Y25874D02*
D03*
X32867Y29078D02*
D03*
X32765Y33551D02*
D03*
X32639Y52832D02*
D03*
Y51435D02*
D03*
X32618Y53649D02*
D03*
Y52049D02*
D03*
X32561Y57578D02*
D03*
X32530Y58442D02*
D03*
X32072Y25074D02*
D03*
Y24274D02*
D03*
Y23474D02*
D03*
Y22674D02*
D03*
Y21874D02*
D03*
Y21074D02*
D03*
Y33028D02*
D03*
Y32228D02*
D03*
Y31428D02*
D03*
Y29828D02*
D03*
Y29028D02*
D03*
Y28228D02*
D03*
Y27428D02*
D03*
Y25874D02*
D03*
X31876Y58422D02*
D03*
X31828Y53674D02*
D03*
X31818Y56849D02*
D03*
X31776Y52806D02*
D03*
X31765Y57641D02*
D03*
X31272Y25074D02*
D03*
Y24274D02*
D03*
Y22674D02*
D03*
Y21874D02*
D03*
Y21074D02*
D03*
Y32228D02*
D03*
Y31428D02*
D03*
Y28228D02*
D03*
Y27428D02*
D03*
Y25874D02*
D03*
X30988Y58445D02*
D03*
Y54574D02*
D03*
X30963Y57633D02*
D03*
X30940Y55601D02*
D03*
X30764Y33536D02*
D03*
X30472Y21874D02*
D03*
Y21074D02*
D03*
Y31428D02*
D03*
X30242Y23749D02*
D03*
X30226Y30251D02*
D03*
X30218Y53649D02*
D03*
Y52849D02*
D03*
X30201Y51943D02*
D03*
X29591Y30251D02*
D03*
X29185Y19964D02*
D03*
X27976Y27610D02*
D03*
D41*
X51308Y46736D02*
D03*
Y48260D02*
D03*
X11684Y90551D02*
D03*
Y92075D02*
D03*
X46736Y53975D02*
D03*
Y52451D02*
D03*
X48514Y53975D02*
D03*
Y52451D02*
D03*
X21971Y37592D02*
D03*
Y36068D02*
D03*
X22606Y112395D02*
D03*
Y110871D02*
D03*
X27686Y98298D02*
D03*
Y96774D02*
D03*
X20828Y91948D02*
D03*
Y90424D02*
D03*
X20955Y20066D02*
D03*
Y18542D02*
D03*
Y23114D02*
D03*
Y21590D02*
D03*
X15748Y91948D02*
D03*
Y90424D02*
D03*
X14351Y91948D02*
D03*
Y90424D02*
D03*
X36830Y66040D02*
D03*
Y64516D02*
D03*
X26162Y98298D02*
D03*
Y96774D02*
D03*
X15240Y80899D02*
D03*
Y79375D02*
D03*
X36703Y73279D02*
D03*
Y71755D02*
D03*
D42*
X19558Y118364D02*
D03*
X18034D02*
D03*
X24130Y18542D02*
D03*
X22606D02*
D03*
X30861Y110744D02*
D03*
Y112268D02*
D03*
X17399Y64516D02*
D03*
X15875D02*
D03*
X23749Y98298D02*
D03*
Y96774D02*
D03*
X47371Y61214D02*
D03*
X48895D02*
D03*
Y57912D02*
D03*
X47371D02*
D03*
X38989Y13208D02*
D03*
Y14732D02*
D03*
X50038Y52451D02*
D03*
Y53975D02*
D03*
X32512Y17780D02*
D03*
Y16256D02*
D03*
X49149Y28956D02*
D03*
Y27432D02*
D03*
X12192Y81407D02*
D03*
X10668D02*
D03*
X48895Y59563D02*
D03*
X47371D02*
D03*
Y56388D02*
D03*
X48895D02*
D03*
X38989Y16256D02*
D03*
Y17780D02*
D03*
X25781Y110871D02*
D03*
Y112395D02*
D03*
X19558Y116840D02*
D03*
X18034D02*
D03*
D43*
X15748Y94361D02*
D03*
Y93345D02*
D03*
X8636Y46355D02*
D03*
X9652D02*
D03*
X27305Y25273D02*
D03*
X26289D02*
D03*
X16129Y66294D02*
D03*
X17145D02*
D03*
X23876Y51562D02*
D03*
X22860D02*
D03*
X27305Y26543D02*
D03*
X26289D02*
D03*
X34036Y37084D02*
D03*
Y36068D02*
D03*
X20574Y37084D02*
D03*
Y36068D02*
D03*
X24892Y33655D02*
D03*
X25908D02*
D03*
X28829Y37084D02*
D03*
Y36068D02*
D03*
X38735Y37084D02*
D03*
Y36068D02*
D03*
X27305Y19054D02*
D03*
X26289D02*
D03*
X27305Y24003D02*
D03*
X26289D02*
D03*
X27559Y56642D02*
D03*
X26543D02*
D03*
X30861Y62611D02*
D03*
Y61595D02*
D03*
X27559Y57912D02*
D03*
X26543D02*
D03*
X27559Y53975D02*
D03*
X26543D02*
D03*
X42545Y49530D02*
D03*
Y48514D02*
D03*
X45974Y57658D02*
D03*
X44958D02*
D03*
X34925Y72771D02*
D03*
Y71755D02*
D03*
X11430Y86868D02*
D03*
X10414D02*
D03*
X11430Y85344D02*
D03*
X10414D02*
D03*
X49149Y43434D02*
D03*
X48133D02*
D03*
X50419Y17653D02*
D03*
X49403D02*
D03*
X48260Y51054D02*
D03*
X47244D02*
D03*
X23876Y52705D02*
D03*
X22860D02*
D03*
X21336Y46355D02*
D03*
X20320D02*
D03*
X58166Y108458D02*
D03*
Y107442D02*
D03*
X16510Y80899D02*
D03*
Y79883D02*
D03*
X17018Y91821D02*
D03*
Y90805D02*
D03*
X13081Y91821D02*
D03*
Y90805D02*
D03*
X25019Y98044D02*
D03*
Y97028D02*
D03*
X48641Y93599D02*
D03*
Y92583D02*
D03*
X35052Y64389D02*
D03*
X34036D02*
D03*
X31623Y98044D02*
D03*
Y97028D02*
D03*
X32258Y102489D02*
D03*
Y101473D02*
D03*
X29591Y110744D02*
D03*
X28575D02*
D03*
X19812Y107696D02*
D03*
X18796D02*
D03*
X40513Y62611D02*
D03*
Y61595D02*
D03*
X39116Y49530D02*
D03*
Y48514D02*
D03*
X37592Y62611D02*
D03*
Y61595D02*
D03*
X45974Y56515D02*
D03*
X44958D02*
D03*
X33528Y49530D02*
D03*
X32512D02*
D03*
X34163Y62611D02*
D03*
Y61595D02*
D03*
X39370Y62611D02*
D03*
Y61595D02*
D03*
X32639Y62611D02*
D03*
Y61595D02*
D03*
X36449Y37084D02*
D03*
Y36068D02*
D03*
X27305Y20320D02*
D03*
X26289D02*
D03*
X30353Y37084D02*
D03*
Y36068D02*
D03*
X27305Y21590D02*
D03*
X26289D02*
D03*
X41402Y37084D02*
D03*
Y36068D02*
D03*
X49022Y24892D02*
D03*
Y25908D02*
D03*
X27305Y22733D02*
D03*
X26289D02*
D03*
X31369Y37084D02*
D03*
Y36068D02*
D03*
X44069Y37084D02*
D03*
Y36068D02*
D03*
X24892Y35179D02*
D03*
X25908D02*
D03*
X14986Y118364D02*
D03*
Y117348D02*
D03*
X56642Y97409D02*
D03*
Y96393D02*
D03*
X29718Y14351D02*
D03*
Y13335D02*
D03*
X20701Y34290D02*
D03*
Y33274D02*
D03*
X30480Y98044D02*
D03*
Y97028D02*
D03*
X39370Y94488D02*
D03*
Y93472D02*
D03*
X27305Y116840D02*
D03*
X26289D02*
D03*
X13081Y12700D02*
D03*
Y11684D02*
D03*
X14351Y94361D02*
D03*
Y93345D02*
D03*
D44*
X57531Y115316D02*
D03*
X56007D02*
D03*
X20320Y109601D02*
D03*
X18796D02*
D03*
X24130Y24892D02*
D03*
X22606D02*
D03*
X7620Y108458D02*
D03*
X6096D02*
D03*
X20701Y9017D02*
D03*
X19177D02*
D03*
X23622D02*
D03*
X22098D02*
D03*
X12192Y80010D02*
D03*
X10668D02*
D03*
X44704Y90424D02*
D03*
X43180D02*
D03*
X19939Y105664D02*
D03*
X18415D02*
D03*
X39497Y117475D02*
D03*
X37973D02*
D03*
X18796Y34163D02*
D03*
X17272D02*
D03*
X18796Y32893D02*
D03*
X17272D02*
D03*
X50292Y95758D02*
D03*
X48768D02*
D03*
X24130Y21590D02*
D03*
X22606D02*
D03*
X24130Y20066D02*
D03*
X22606D02*
D03*
X18796Y38227D02*
D03*
X17272D02*
D03*
X18796Y35560D02*
D03*
X17272D02*
D03*
X6477Y44958D02*
D03*
X4953D02*
D03*
X18796Y41148D02*
D03*
X17272D02*
D03*
X19431Y115443D02*
D03*
X17907D02*
D03*
X18796Y39751D02*
D03*
X17272D02*
D03*
X4064Y108458D02*
D03*
X2540D02*
D03*
X43815Y117475D02*
D03*
X42291D02*
D03*
X18796Y36830D02*
D03*
X17272D02*
D03*
D45*
X28956Y113919D02*
D03*
Y115443D02*
D03*
X10033Y13259D02*
D03*
Y11735D02*
D03*
X47498Y40894D02*
D03*
Y39370D02*
D03*
X42418Y17780D02*
D03*
Y16256D02*
D03*
X21971Y34417D02*
D03*
Y32893D02*
D03*
X54229Y112268D02*
D03*
Y110744D02*
D03*
X11557Y10160D02*
D03*
Y8636D02*
D03*
Y13259D02*
D03*
Y11735D02*
D03*
X10287Y92202D02*
D03*
Y90678D02*
D03*
X54229Y115316D02*
D03*
Y113792D02*
D03*
X26289Y115443D02*
D03*
Y113919D02*
D03*
X31115Y17780D02*
D03*
Y16256D02*
D03*
X20955Y80772D02*
D03*
Y79248D02*
D03*
X24892Y7747D02*
D03*
Y6223D02*
D03*
X8509Y10160D02*
D03*
Y8636D02*
D03*
X27686Y12700D02*
D03*
Y11176D02*
D03*
X32258Y105410D02*
D03*
Y103886D02*
D03*
X22479Y98298D02*
D03*
Y96774D02*
D03*
X54356Y44958D02*
D03*
Y43434D02*
D03*
X29591Y17780D02*
D03*
Y16256D02*
D03*
X21209Y98298D02*
D03*
Y96774D02*
D03*
X51689Y36576D02*
D03*
Y35052D02*
D03*
X23876Y112395D02*
D03*
Y110871D02*
D03*
X20828Y12700D02*
D03*
Y11176D02*
D03*
X36068Y17780D02*
D03*
Y16256D02*
D03*
X33782Y17780D02*
D03*
Y16256D02*
D03*
X19558Y80772D02*
D03*
Y79248D02*
D03*
X18161Y80772D02*
D03*
Y79248D02*
D03*
X10033Y10160D02*
D03*
Y8636D02*
D03*
X19304Y12700D02*
D03*
Y11176D02*
D03*
X32258Y108458D02*
D03*
Y106934D02*
D03*
X18669Y98298D02*
D03*
Y96774D02*
D03*
X19939Y98298D02*
D03*
Y96774D02*
D03*
X53213Y36576D02*
D03*
Y35052D02*
D03*
X53594Y97663D02*
D03*
Y96139D02*
D03*
X32131Y112268D02*
D03*
Y110744D02*
D03*
X56388Y44958D02*
D03*
Y43434D02*
D03*
X54737Y36576D02*
D03*
Y35052D02*
D03*
X16129Y113792D02*
D03*
Y112268D02*
D03*
X14478Y113792D02*
D03*
Y112268D02*
D03*
X31115Y14478D02*
D03*
Y12954D02*
D03*
X24892Y115443D02*
D03*
Y113919D02*
D03*
X30226Y115443D02*
D03*
Y113919D02*
D03*
X27686Y115443D02*
D03*
Y113919D02*
D03*
X16510Y118364D02*
D03*
Y116840D02*
D03*
X29210Y98298D02*
D03*
Y96774D02*
D03*
D46*
X30988Y39878D02*
D03*
X8763Y48006D02*
D03*
X20955Y50546D02*
D03*
Y48514D02*
D03*
X19939Y43180D02*
D03*
X33020Y39878D02*
D03*
X26924Y59690D02*
D03*
X54610Y9271D02*
D03*
X54356Y118110D02*
D03*
X6604Y118491D02*
D03*
D47*
X58166Y107442D02*
X59182D01*
X48369Y86378D02*
X49085Y85661D01*
X47752Y86378D02*
X48369D01*
X15925Y7366D02*
X16891D01*
X38557Y61595D02*
X39370D01*
X54143Y41734D02*
Y42331D01*
X41318Y93218D02*
X42411D01*
X16866Y72785D02*
X17972D01*
X34036Y63627D02*
Y64389D01*
X51054Y41605D02*
X52528D01*
X34864Y71694D02*
X34925Y71755D01*
X34864Y70288D02*
Y71694D01*
X19442Y3456D02*
Y4460D01*
X54356Y44958D02*
Y45555D01*
X57785Y36576D02*
Y37186D01*
X10566Y70485D02*
Y72340D01*
X20955Y17894D02*
Y18542D01*
X51308Y46088D02*
Y46736D01*
X29591Y13208D02*
X29718Y13335D01*
X29591Y12192D02*
Y13208D01*
X47179Y119634D02*
X50165D01*
X50546Y120015D01*
X43561Y70535D02*
Y71501D01*
X19329Y108509D02*
X19812Y108026D01*
Y107696D02*
Y108026D01*
X40184Y119634D02*
X42229D01*
X46566Y94488D02*
X47659D01*
X53594Y93345D02*
Y96139D01*
X30353Y12192D02*
X31115Y12954D01*
X29351Y76340D02*
Y77445D01*
X46253Y26568D02*
X46990Y27305D01*
X46253Y25730D02*
Y26568D01*
X46203Y25679D02*
X46253Y25730D01*
X24751Y76340D02*
Y77445D01*
X25867Y1280D02*
X26769D01*
X10033Y11735D02*
X11557D01*
X20955Y23114D02*
Y23762D01*
X46566Y93218D02*
X47659D01*
X36703Y61595D02*
X37592D01*
X40225Y93218D02*
X41318D01*
X25146Y82296D02*
X25985D01*
X14920Y7563D02*
X15441D01*
X46990Y24511D02*
X47396D01*
X47955Y23952D01*
Y23368D02*
Y23952D01*
X40513Y61595D02*
X41300D01*
X24039Y77445D02*
X24751D01*
X25196Y71145D02*
X27051D01*
X49403Y44831D02*
Y45441D01*
X25146Y82296D02*
Y83262D01*
X27051Y76340D02*
Y77445D01*
X10351Y4114D02*
Y4953D01*
X46736Y52451D02*
X47346D01*
X51054Y41605D02*
Y42393D01*
X23876Y50800D02*
Y51562D01*
X46566Y93218D02*
Y93701D01*
X22098Y49276D02*
X23114D01*
X23368Y49530D01*
X45441Y69102D02*
X46547D01*
X26797Y36957D02*
X27686Y36068D01*
Y33909D02*
Y36068D01*
Y33909D02*
X28829Y32766D01*
X30734D01*
X30849Y32651D01*
X45643Y49149D02*
X46482D01*
X56261Y35966D02*
Y36576D01*
X42291Y116865D02*
Y117475D01*
X13030Y11735D02*
X13081Y11684D01*
X11557Y11735D02*
X13030D01*
X55169Y31419D02*
Y32385D01*
X24751Y77445D02*
Y78551D01*
X52388Y66979D02*
Y67691D01*
X56896Y98552D02*
Y101854D01*
X16665Y1280D02*
X17567D01*
X18705Y4460D02*
X19442D01*
X19647Y6261D02*
X20417Y5491D01*
X18707Y6261D02*
X19647D01*
X18288Y6680D02*
X18707Y6261D01*
X35052Y64389D02*
X35535D01*
X17272Y32893D02*
Y34163D01*
X50215Y72771D02*
X52388D01*
X46990Y27305D02*
X48387Y25908D01*
X49022D01*
X41318Y92735D02*
Y93218D01*
X32618Y61574D02*
X33401D01*
X43561Y71501D02*
Y72467D01*
X16866Y70485D02*
X17972D01*
X18057Y40482D02*
X18266Y40273D01*
Y40259D02*
Y40273D01*
Y40259D02*
X18774Y39751D01*
X18796D01*
X33655Y66040D02*
Y66929D01*
X49149Y26035D02*
Y27432D01*
X49022Y25908D02*
X49149Y26035D01*
X21336Y111125D02*
X22352D01*
X22606Y110871D01*
X11557Y74218D02*
Y75184D01*
X41318Y91948D02*
X42411D01*
X9460Y70485D02*
X10566D01*
X13271Y2413D02*
X15189D01*
X12319Y12446D02*
X12573Y12700D01*
X13081D01*
X42229Y119634D02*
Y120473D01*
X39370Y94488D02*
Y95250D01*
X48260Y52197D02*
X48514Y52451D01*
X48260Y51054D02*
Y52197D01*
X57785Y36576D02*
X58433D01*
X43688Y86378D02*
X45720D01*
X15761Y72785D02*
X16866D01*
X53746Y44958D02*
X54356D01*
X27305Y116840D02*
X28067Y117602D01*
X43180Y90424D02*
Y91034D01*
X45473Y94488D02*
X46566D01*
Y95758D02*
X48768D01*
X19442Y4460D02*
Y5464D01*
X39928Y71501D02*
X40767D01*
X52070Y32385D02*
X53417D01*
X16866Y70485D02*
Y71197D01*
X22479Y95885D02*
Y96774D01*
X45974Y55753D02*
Y56515D01*
X50165Y52451D02*
X50292Y52324D01*
X33325Y14910D02*
X33782Y15367D01*
Y16256D01*
X25908Y35179D02*
Y36068D01*
X26797Y36957D01*
X46736Y51803D02*
Y52451D01*
X49403Y44831D02*
X50051D01*
X38887Y93472D02*
X39370D01*
X46566Y94005D02*
Y94488D01*
X39370D02*
X41318D01*
X36764Y70288D02*
Y71694D01*
X36703Y71755D02*
X36764Y71694D01*
X49784Y32385D02*
Y32995D01*
X21590Y70231D02*
X22556D01*
X4128Y86995D02*
X5994D01*
X45441Y64502D02*
Y65214D01*
X47244Y50571D02*
Y51054D01*
X45441Y64502D02*
X46547D01*
X10351Y4953D02*
Y5792D01*
X55817Y75311D02*
Y76023D01*
X47879Y44221D02*
Y44831D01*
X56642Y94996D02*
Y96393D01*
X39141Y64947D02*
Y66802D01*
X40246D01*
X35179Y65430D02*
Y66040D01*
X20955Y23114D02*
X21565D01*
X26797Y31623D02*
X28067D01*
X28448Y32004D01*
X30696D01*
X30849Y31851D01*
X42229Y118795D02*
Y119634D01*
X41318Y91948D02*
Y92431D01*
X48844Y29388D02*
X49149Y29083D01*
X10287Y92202D02*
Y94107D01*
X22098Y51562D02*
X22860D01*
X39141Y66802D02*
Y68657D01*
X29351Y77445D02*
X30063D01*
X16866Y68185D02*
X17972D01*
X46406Y46736D02*
Y47702D01*
X47231Y44831D02*
X47879D01*
X42229Y119634D02*
X44274D01*
X49352Y45770D02*
Y46736D01*
X44958Y55753D02*
Y56515D01*
X35052Y63906D02*
Y64389D01*
X25908Y34925D02*
Y35179D01*
X25400Y34417D02*
X25908Y34925D01*
X21971Y34417D02*
X25400D01*
X18288Y6680D02*
Y7211D01*
X46406Y46736D02*
X47194D01*
X42545Y49530D02*
X43561D01*
X29351Y77445D02*
Y78551D01*
X29591Y15367D02*
Y16256D01*
X14920Y7563D02*
Y8338D01*
X49149Y43434D02*
Y43917D01*
X54102Y70231D02*
X55817D01*
X20294Y45948D02*
Y46329D01*
X18882Y44536D02*
X20294Y45948D01*
X18148Y44536D02*
X18882D01*
X46482Y49149D02*
X47321D01*
X44704Y90424D02*
X46228Y91948D01*
X46566D01*
X39370Y93472D02*
X39853D01*
X16129Y66294D02*
Y66777D01*
X51054Y37871D02*
Y38659D01*
X21971Y32385D02*
Y32893D01*
Y32385D02*
X22339Y32017D01*
X49580Y38659D02*
X51054D01*
X11557Y8636D02*
X12319D01*
X13020Y7935D01*
Y7563D02*
Y7935D01*
X34925Y71755D02*
X36703D01*
X45441Y68390D02*
Y69102D01*
X47650Y43434D02*
X48133D01*
X27940Y82296D02*
Y83262D01*
X46761Y51054D02*
X47244D01*
X34315Y49530D02*
X34519Y49733D01*
X33528Y49530D02*
X34315D01*
X49403Y44221D02*
Y44831D01*
X46736Y29769D02*
X47117Y29388D01*
X46736Y29769D02*
Y30302D01*
X46431Y30607D02*
X46736Y30302D01*
X16891Y7366D02*
X17857D01*
X50038Y53975D02*
Y55347D01*
X34343Y67888D02*
X34864D01*
X58115Y31419D02*
Y32385D01*
X11353Y2413D02*
X13271D01*
X52070Y31051D02*
Y32385D01*
X8255Y14478D02*
X9474Y13259D01*
X10033D01*
X47244Y51054D02*
Y51537D01*
X31115Y112522D02*
Y113411D01*
X46406Y45770D02*
Y46736D01*
X21590Y69392D02*
Y70231D01*
X10566Y68630D02*
Y70485D01*
X53736Y41734D02*
X54143D01*
X27051Y77445D02*
X27763D01*
X48514Y52451D02*
X50038D01*
X27051Y71145D02*
X28906D01*
X52070Y32385D02*
Y33719D01*
X23992Y4460D02*
X24729D01*
X46228Y16688D02*
X46609Y17069D01*
X47752D01*
X48514Y68390D02*
X50115D01*
X10033Y7112D02*
Y8636D01*
X42229Y122174D02*
X44274D01*
X30861Y61595D02*
X31623D01*
X48133Y43434D02*
Y43917D01*
X49149Y43434D02*
X49632D01*
X49352Y46736D02*
X50140D01*
X42229Y122174D02*
Y123013D01*
X49784Y31775D02*
Y32385D01*
X34864Y67113D02*
Y67888D01*
X10541Y20320D02*
X12318D01*
X49149Y42951D02*
Y43434D01*
X40184Y124714D02*
X42229D01*
X23749Y53696D02*
X23876Y53569D01*
Y52705D02*
Y53569D01*
X46126Y52451D02*
X46736D01*
X43561Y71501D02*
X44400D01*
X18796Y41148D02*
Y41275D01*
X18136Y41935D02*
X18796Y41275D01*
X18136Y41935D02*
Y41986D01*
X18058Y39083D02*
X18161Y38981D01*
Y38840D02*
Y38981D01*
Y38840D02*
X18774Y38227D01*
X18796D01*
X48133Y42951D02*
Y43434D01*
X21209Y95885D02*
Y96774D01*
X50977Y67691D02*
X52388D01*
X46482Y49149D02*
Y50115D01*
X52388Y82931D02*
X57785D01*
X58674Y83820D01*
X46990Y23520D02*
X47168Y23343D01*
X46990Y23520D02*
Y24511D01*
X26467Y17272D02*
X26924D01*
X25603Y18136D02*
X26467Y17272D01*
X16891Y7366D02*
Y8205D01*
X49580Y41605D02*
X51054D01*
X9601Y91516D02*
X10287Y92202D01*
X30861Y112268D02*
X31115Y112522D01*
X19939Y96139D02*
X21082Y94996D01*
X19939Y96139D02*
Y96774D01*
X43180Y89814D02*
Y90424D01*
X8433Y4953D02*
X10351D01*
X27051Y70039D02*
Y71145D01*
X36068Y15113D02*
Y16256D01*
X15646Y66294D02*
X16129D01*
X55778Y44958D02*
X56388D01*
X8509Y7112D02*
Y8636D01*
X42229Y123875D02*
Y124714D01*
X35179Y66040D02*
Y66650D01*
X48641Y93599D02*
Y94082D01*
X14351Y75184D02*
Y76150D01*
X54381Y32385D02*
X55169D01*
X35179Y66040D02*
X35827D01*
X42583Y90424D02*
X43180D01*
X55613Y36576D02*
X56261D01*
X15761Y68185D02*
X16866D01*
X39370Y92989D02*
Y93472D01*
X52388Y67691D02*
Y68403D01*
X23992Y4460D02*
Y5464D01*
X10033Y8636D02*
X11557D01*
X36703Y71755D02*
X37973D01*
X31623Y98044D02*
Y99314D01*
X48158Y93599D02*
X48641D01*
X12573Y78613D02*
X13081Y79121D01*
X12192Y78613D02*
X12573D01*
X18288Y8070D02*
Y11684D01*
X19304Y12700D01*
X16866Y69773D02*
Y70485D01*
X26924Y17272D02*
X26949D01*
X28016Y18339D01*
X34163Y61595D02*
X35052D01*
X24307Y82296D02*
X25146D01*
X14920Y6788D02*
Y7563D01*
X11557Y75184D02*
X12396D01*
X52388Y67691D02*
X53798D01*
X57785Y35966D02*
Y36576D01*
X20624Y70231D02*
X21590D01*
X8509Y10160D02*
X10033D01*
X50038Y52451D02*
X50165D01*
X47179Y122174D02*
X50546D01*
X51054Y40817D02*
Y41605D01*
X21590Y73025D02*
X22556D01*
X20294Y46329D02*
X20320Y46355D01*
X22606Y27813D02*
Y28499D01*
X57785Y77851D02*
X58420Y78486D01*
X52388Y77851D02*
X57785D01*
X16866Y67473D02*
Y68185D01*
X46736Y52451D02*
Y53099D01*
X16866Y72785D02*
Y73497D01*
X13020Y9963D02*
Y11623D01*
X13081Y11684D01*
X29718Y118618D02*
Y119126D01*
X28702Y117602D02*
X29718Y118618D01*
X28067Y117602D02*
X28702D01*
X21971Y32893D02*
X22022Y32842D01*
X25400D01*
X25908Y33350D01*
Y33655D01*
X49276Y49149D02*
X50165Y48260D01*
X51308D01*
X56896Y97663D02*
Y98552D01*
X56642Y97409D02*
X56896Y97663D01*
X16764Y96774D02*
X18669D01*
X58115Y32385D02*
Y33351D01*
X40767Y71501D02*
Y72467D01*
X14351Y75184D02*
X15190D01*
X51308Y46736D02*
X51918D01*
X19939Y34290D02*
X20701D01*
X17018Y90805D02*
X17602D01*
X17729Y90932D01*
X48260Y50165D02*
Y51054D01*
Y50165D02*
X49276Y49149D01*
X54143Y38187D02*
Y38784D01*
X44336Y69102D02*
X45441D01*
X55817Y74599D02*
Y75311D01*
X45618Y46736D02*
X46406D01*
X13271Y1574D02*
Y2413D01*
X55169Y32385D02*
Y33351D01*
X21590Y73025D02*
Y73864D01*
X42722Y71501D02*
X43561D01*
X7366Y10414D02*
X7620Y10160D01*
X8509D01*
X48514Y53975D02*
X50038D01*
X48641Y93599D02*
X49124D01*
X21125Y113919D02*
Y114935D01*
X26339Y77445D02*
X27051D01*
X48514Y64961D02*
Y65914D01*
X55817Y75311D02*
X57227D01*
X19788Y35790D02*
X19812D01*
X19836Y35814D01*
X20320D01*
X20574Y36068D01*
X22657Y50241D02*
X23368Y49530D01*
X22098Y50241D02*
X22657D01*
X42229Y124714D02*
X44274D01*
X42291Y117475D02*
Y118085D01*
X26797Y31623D02*
Y33274D01*
X26416Y33655D02*
X26797Y33274D01*
X25908Y33655D02*
X26416D01*
X17567Y1280D02*
X18469D01*
X10566Y70485D02*
X11671D01*
X17567Y1280D02*
Y2436D01*
X8636Y45466D02*
Y46355D01*
X27940Y81330D02*
Y82296D01*
X46076Y33299D02*
X47117Y34341D01*
X45720Y88628D02*
Y89611D01*
X27051Y71145D02*
Y72250D01*
X15240Y80899D02*
X16510D01*
X18059Y34874D02*
X18089D01*
X18415Y35201D01*
X18437D01*
X18796Y35560D01*
X40225Y91948D02*
X41318D01*
X14920Y9963D02*
Y11049D01*
X21565Y27813D02*
X22606D01*
X11557Y75184D02*
Y76150D01*
X32639Y101473D02*
X33020Y101854D01*
X32258Y101473D02*
X32639D01*
X26924Y14478D02*
X28334D01*
X28461Y14605D01*
X20574Y37084D02*
Y37795D01*
X44958Y58293D02*
X45212Y58547D01*
X44958Y57658D02*
Y58293D01*
X17272Y32690D02*
Y32893D01*
X16612Y32029D02*
X17272Y32690D01*
X51054Y38659D02*
Y39447D01*
X46913Y68390D02*
X48514D01*
X41694Y117475D02*
X42291D01*
X42229Y121335D02*
Y122174D01*
X47117Y29388D02*
X48844D01*
X48514Y68390D02*
Y69343D01*
X10351Y4953D02*
X12269D01*
X35052Y64389D02*
Y64872D01*
X28575Y111252D02*
X28829Y111506D01*
X28575Y110744D02*
Y111252D01*
X13081Y36017D02*
X15071D01*
X19013Y46329D02*
X20294D01*
X21971Y34417D02*
Y36068D01*
X50698Y46736D02*
X51308D01*
X45473Y93218D02*
X46566D01*
X20345Y18542D02*
X20955D01*
X22860Y52705D02*
Y53721D01*
X40184Y122174D02*
X42229D01*
Y124714D02*
Y125553D01*
X14351Y74218D02*
Y75184D01*
X45441Y63790D02*
Y64502D01*
X54356Y44958D02*
X54966D01*
X49009Y32385D02*
X49784D01*
X51308Y46736D02*
Y47384D01*
X18669Y36830D02*
X18796D01*
X18415Y37084D02*
X18669Y36830D01*
X18415Y37084D02*
Y37189D01*
X18266Y37338D02*
X18415Y37189D01*
X18161Y37338D02*
X18266D01*
X18034Y37465D02*
X18161Y37338D01*
X48514Y64007D02*
Y64961D01*
X56388Y44958D02*
Y45555D01*
X34864Y67888D02*
X35385D01*
X54406Y75311D02*
X55817D01*
X38252Y49555D02*
X38278Y49530D01*
X39116D01*
X25146Y81330D02*
Y82296D01*
X20624Y73025D02*
X21590D01*
X25867Y1280D02*
Y2436D01*
X29718Y8063D02*
Y10338D01*
X15761Y70485D02*
X16866D01*
X41318Y91465D02*
Y91948D01*
X53086Y110744D02*
X54229D01*
X16891Y6527D02*
Y7366D01*
X34864Y67888D02*
Y68663D01*
X45720Y86378D02*
X47752D01*
X47879Y44831D02*
Y45441D01*
X10718Y75184D02*
X11557D01*
X46913Y64961D02*
X48514D01*
X58115Y32385D02*
X58903D01*
X23992Y3456D02*
Y4460D01*
X20066Y11938D02*
X20828Y12700D01*
X12827Y90551D02*
X13081Y90805D01*
X12827Y89916D02*
Y90551D01*
X55169Y32385D02*
X55957D01*
X45974Y57658D02*
Y58547D01*
X56388Y44958D02*
X56998D01*
X15723Y117627D02*
X16510Y116840D01*
X15723Y117627D02*
Y117678D01*
X53736Y38784D02*
X54143D01*
X40767Y70535D02*
Y71501D01*
X46228Y16688D02*
X46660Y16256D01*
X47625D01*
X41318Y93218D02*
Y93701D01*
X31877Y116840D02*
X32131Y116586D01*
Y115806D02*
Y116586D01*
X13271Y2413D02*
Y3150D01*
X46482Y48183D02*
Y49149D01*
X36764Y66233D02*
Y67888D01*
Y66233D02*
X36830Y66040D01*
X56261Y36576D02*
Y37186D01*
X44336Y64502D02*
X45441D01*
X51054Y38659D02*
X52528D01*
X20345Y23114D02*
X20955D01*
X38481Y89408D02*
Y92456D01*
Y89408D02*
X39243Y88646D01*
X43670D01*
X43688Y88628D01*
X48514Y64961D02*
X50115D01*
X49403Y17653D02*
Y18644D01*
X38035Y66802D02*
X39141D01*
X48514Y67436D02*
Y68390D01*
X47752Y88628D02*
Y89637D01*
X27940Y82296D02*
X28779D01*
X50419Y17653D02*
Y18669D01*
X47179Y124714D02*
X49022D01*
X49657Y124079D01*
X50546D01*
X52705Y28067D02*
Y29591D01*
X24965Y1280D02*
X25867D01*
X27051Y77445D02*
Y78551D01*
X13843Y79629D02*
X15113Y80899D01*
X15240D01*
X49022Y24892D02*
X49555D01*
X50394Y25730D01*
X50648D01*
X45441Y69102D02*
Y69814D01*
X28194Y9957D02*
Y10668D01*
X27686Y11176D02*
X28194Y10668D01*
X16129Y65811D02*
Y66294D01*
D48*
X28829Y37084D02*
X29591D01*
X31369Y109220D02*
X32131Y108458D01*
X32258D01*
X52426Y35839D02*
X53213Y35052D01*
X38456Y62611D02*
X39370D01*
X15875Y64516D02*
Y65557D01*
X4064Y108458D02*
Y109474D01*
X17907Y107696D02*
X18796D01*
X41318Y95758D02*
X43180D01*
X27559Y57912D02*
X28245Y57226D01*
X30595D01*
X17729Y93218D02*
X17780D01*
X18161Y93599D01*
X18923D01*
X41402Y35306D02*
Y36068D01*
X38849Y25451D02*
X39226Y25074D01*
X27305Y25273D02*
X28118D01*
X22174Y46736D02*
X23368D01*
X36449Y35306D02*
Y36068D01*
X35226Y27428D02*
X35234D01*
X34849Y27051D02*
X35226Y27428D01*
X33401Y58420D02*
X33696Y58715D01*
Y58727D01*
X33795Y58826D01*
X24003Y36957D02*
Y37973D01*
X24384Y38354D01*
X40995Y54026D02*
X41372Y53649D01*
X32995Y58826D02*
X32995D01*
X32618Y59203D02*
X32995Y58826D01*
X32618Y59203D02*
Y61574D01*
X30472Y31428D02*
X30849Y31051D01*
X27305Y26543D02*
X28118D01*
X33672Y25074D02*
X34049Y25451D01*
X35226Y28228D02*
X35234D01*
X34849Y27851D02*
X35226Y28228D01*
X23017Y4135D02*
Y5334D01*
X27559Y55829D02*
X27737Y55651D01*
X27559Y55829D02*
Y56642D01*
X34925Y72771D02*
X35814D01*
X31395Y58012D02*
Y58026D01*
Y58012D02*
X31765Y57641D01*
X58654Y102509D02*
X58801Y102362D01*
X57635Y102509D02*
X58654D01*
X35272Y25074D02*
X35649Y25451D01*
X10414Y84582D02*
Y85344D01*
X27305Y20320D02*
X27991D01*
X25654Y56642D02*
X26543D01*
X37249Y28651D02*
X37626Y29028D01*
X32095Y102652D02*
X32258Y102489D01*
X30512Y102652D02*
X32095D01*
X55499Y28067D02*
X56642D01*
X39497Y117475D02*
Y117551D01*
X38608Y118440D02*
X39497Y117551D01*
X38608Y118440D02*
Y118453D01*
X39395Y52426D02*
X39772Y52049D01*
X39395Y52426D02*
X39395D01*
X16510Y78842D02*
Y79883D01*
X20417Y4135D02*
Y5491D01*
X35272Y29828D02*
X35649Y29451D01*
X41706Y56515D02*
X44958D01*
X40995Y57226D02*
X41706Y56515D01*
X41402Y37084D02*
Y37795D01*
X56388Y43434D02*
X57277D01*
X31272Y25074D02*
X31649Y25451D01*
X9601Y86868D02*
X10414D01*
X34426Y28228D02*
X34434D01*
X34049Y27851D02*
X34426Y28228D01*
X51689Y36576D02*
X53213D01*
X32258Y102489D02*
X32893Y103124D01*
X33325Y62611D02*
X33350Y62636D01*
X32639Y62611D02*
X33325D01*
X34472Y25874D02*
X34849Y26251D01*
X38049Y27851D02*
X38426Y28228D01*
X14122Y117348D02*
X14986D01*
X33528Y49530D02*
Y50673D01*
X33795Y50940D01*
Y52426D01*
X36449Y37084D02*
Y37846D01*
X21107Y38456D02*
X21971Y37592D01*
X20523Y38456D02*
X21107D01*
X27305Y21590D02*
X28118D01*
X33842Y57226D02*
X34198Y57582D01*
X33795Y57226D02*
X33842D01*
X53213Y36576D02*
X54737D01*
X20701Y106934D02*
X20919Y107152D01*
X21812D01*
X38735Y35306D02*
Y36068D01*
X41795Y54026D02*
X42172Y53649D01*
X41795Y54026D02*
X41795D01*
X58166Y109093D02*
X58420Y109347D01*
X58166Y108458D02*
Y109093D01*
X37249Y25451D02*
X37626Y25074D01*
X26543Y57912D02*
Y58674D01*
X32105Y36068D02*
X32105Y36067D01*
X31369Y36068D02*
X32105D01*
X55075Y18117D02*
X56226D01*
X33672Y29028D02*
X34049Y28651D01*
X29083Y13970D02*
X29718Y13335D01*
X29083Y13970D02*
Y14986D01*
X28702Y15367D02*
X29083Y14986D01*
X28702Y15367D02*
Y18339D01*
X29794Y19431D01*
Y22670D01*
X30175Y23051D01*
X30849D01*
X37249Y29451D02*
X37626Y29828D01*
X9169Y88519D02*
X10160D01*
X38049Y25451D02*
X38426Y25074D01*
X14478Y78613D02*
X15240Y79375D01*
X45923Y32334D02*
X47117D01*
X7620Y108458D02*
Y109601D01*
X27559Y52832D02*
Y53975D01*
X42545Y48514D02*
X43586D01*
X27559Y57912D02*
Y58674D01*
X29108Y96672D02*
X29210Y96774D01*
X29108Y96037D02*
Y96672D01*
X37626Y24274D02*
X37672D01*
X38049Y24651D01*
X33274Y36068D02*
X34036D01*
X29591D02*
X30353D01*
X12318Y22860D02*
X15037D01*
X30861Y60160D02*
Y61595D01*
Y60160D02*
X32195Y58826D01*
X20828Y91948D02*
Y93091D01*
X25531Y26543D02*
X26289D01*
X17145Y66294D02*
X17907D01*
X37249Y24651D02*
X37626Y24274D01*
X11430Y84582D02*
Y85344D01*
X32156Y52426D02*
X32195D01*
X31776Y52806D02*
X32156Y52426D01*
X35272Y29028D02*
X35649Y28651D01*
X46863Y117475D02*
X48133D01*
X39649Y28651D02*
X40026Y29028D01*
X13462Y41275D02*
X13754Y41567D01*
X15071D01*
X29591Y111379D02*
X29718Y111506D01*
X29591Y110744D02*
Y111379D01*
X11430Y86868D02*
Y87317D01*
X11422Y87325D02*
X11430Y87317D01*
X11422Y87325D02*
Y87681D01*
X36072Y29028D02*
X36449Y28651D01*
X36072Y25074D02*
X36449Y25451D01*
X40995Y58026D02*
X41372Y58403D01*
X33249Y37156D02*
X33320Y37084D01*
X34036D01*
X54737Y36576D02*
X54793Y36632D01*
Y38784D01*
X43078Y24790D02*
Y25019D01*
X42901Y24613D02*
X43078Y24790D01*
X42087Y24613D02*
X42901D01*
X42049Y24651D02*
X42087Y24613D01*
X10097Y111062D02*
X11739D01*
X55075Y22317D02*
X56226D01*
X41859Y20447D02*
X42291D01*
X42931Y19807D01*
X46055D01*
X46228Y19634D01*
X50292Y95758D02*
X51003D01*
X51460Y96215D01*
X55075Y24717D02*
X55959D01*
X56134Y24892D01*
X40195Y58826D02*
Y61277D01*
X40513Y61595D01*
X38430Y24257D02*
X38824Y24651D01*
X38849D01*
X25527Y22860D02*
X25654Y22733D01*
X26289D01*
X37592Y61595D02*
X37795Y61392D01*
Y58826D02*
Y61392D01*
X30226Y30251D02*
X30849D01*
X18669Y94869D02*
X18923Y94615D01*
Y93599D02*
Y94615D01*
X27305Y19054D02*
X28118D01*
X38849Y28651D02*
X39255Y28245D01*
X55075Y19917D02*
X56226D01*
X40030Y31428D02*
X40408Y31051D01*
X40449D01*
X25531Y21590D02*
X26289D01*
X2739Y111062D02*
X4381D01*
X38049Y28651D02*
X38426Y29028D01*
X19431Y114427D02*
Y115443D01*
X29591Y37084D02*
X30353D01*
X22528Y83947D02*
X23290Y84709D01*
X22479Y83947D02*
X22528D01*
X31598Y62611D02*
X31623Y62636D01*
X30861Y62611D02*
X31598D01*
X44069Y35306D02*
Y36068D01*
X34472Y29028D02*
X34849Y28651D01*
X54102Y23517D02*
X55075D01*
X35814Y69215D02*
Y70288D01*
X34472Y29828D02*
X34849Y29451D01*
X48641Y92583D02*
X49530D01*
X36678Y62611D02*
X37592D01*
X32618Y52049D02*
X32995Y52426D01*
X13081Y38217D02*
X15071D01*
X39116Y49530D02*
Y51905D01*
X38595Y52426D02*
X39116Y51905D01*
X38849Y27805D02*
X39226Y27428D01*
X38849Y27805D02*
Y27851D01*
X38303Y48514D02*
X39116D01*
X22395Y13015D02*
X22418D01*
X23470Y11963D01*
Y11570D02*
Y11963D01*
X40449Y26251D02*
X40826Y25874D01*
X40869D01*
X14478Y111125D02*
Y112268D01*
X40195Y52426D02*
X40572Y52049D01*
X57555Y110767D02*
X58699D01*
X30218Y53649D02*
X30595Y54026D01*
X31623Y96012D02*
Y97028D01*
X36830Y63627D02*
Y64516D01*
X34426Y27428D02*
X34434D01*
X34049Y27051D02*
X34426Y27428D01*
X24384Y26543D02*
X25531D01*
X24130Y26289D02*
X24384Y26543D01*
X16879Y88548D02*
Y89298D01*
X16969Y89388D01*
X14931Y124523D02*
Y125802D01*
X45568Y54051D02*
X45644Y53975D01*
X46736D01*
X38430Y25832D02*
Y25832D01*
X38849Y26251D01*
X32258Y105410D02*
X33020Y106172D01*
X31369Y37084D02*
X31993D01*
X32080Y37171D01*
X11811Y94107D02*
Y95123D01*
X28412Y107986D02*
Y109252D01*
X30480Y96266D02*
Y97028D01*
X42227Y57658D02*
X44958D01*
X41795Y57226D02*
X42227Y57658D01*
X17272Y10541D02*
Y11227D01*
X16891Y10160D02*
X17272Y10541D01*
X18161Y78232D02*
Y79248D01*
X15748Y94361D02*
Y95377D01*
X14351Y94361D02*
Y95377D01*
X25527Y24105D02*
X25552D01*
X25654Y24003D01*
X26289D01*
X36072Y29828D02*
X36449Y29451D01*
X26543Y52832D02*
Y53975D01*
X47117Y37287D02*
Y38125D01*
X47473Y38481D01*
X39395Y58826D02*
Y61570D01*
X39370Y61595D02*
X39395Y61570D01*
X29718Y840D02*
Y3113D01*
X18415Y105664D02*
Y106553D01*
X16764Y10160D02*
X16891D01*
X16383Y10541D02*
X16764Y10160D01*
X16383Y10541D02*
Y11227D01*
X33672Y25874D02*
X34049Y26251D01*
X25531Y20320D02*
X26289D01*
X55499Y28067D02*
Y29464D01*
X28829Y36068D02*
X29591D01*
X32918Y119126D02*
Y120752D01*
X40589Y53645D02*
X40995Y53239D01*
Y53226D02*
Y53239D01*
X38595Y58826D02*
Y59385D01*
X27559Y56642D02*
X30811D01*
X31395Y57226D01*
X32872Y25074D02*
X33249Y25451D01*
X47117Y36271D02*
Y37287D01*
X38049Y27051D02*
X38426Y27428D01*
X27305Y24003D02*
X28118D01*
X23931Y124523D02*
Y125802D01*
X32512Y49276D02*
Y49530D01*
Y49276D02*
X33274Y48514D01*
X34290D01*
X34442Y48666D01*
X34493D01*
X37795Y52426D02*
X37795D01*
X38176Y52045D01*
Y52019D02*
Y52045D01*
X26162Y95758D02*
Y96774D01*
X24892Y113309D02*
Y113919D01*
X24663Y113081D02*
X24892Y113309D01*
X36072Y24274D02*
X36449Y24651D01*
X25502Y19054D02*
X26289D01*
X25446Y119426D02*
X27068D01*
X46736Y53975D02*
Y54991D01*
X34163Y62611D02*
X35052D01*
X38049Y29451D02*
X38426Y29828D01*
X34472Y25074D02*
X34849Y25451D01*
X52705Y28067D02*
X53086Y27686D01*
Y24071D02*
Y27686D01*
X52832Y23817D02*
X53086Y24071D01*
X52175Y23817D02*
X52832D01*
X55118Y40259D02*
X55443Y40584D01*
X23368Y46736D02*
Y47879D01*
X24130Y35179D02*
X24892D01*
X11430Y86868D02*
X11450Y86848D01*
X13179D01*
X32618Y61574D02*
X32639Y61595D01*
X13081Y91821D02*
Y92837D01*
X23749Y95631D02*
Y96774D01*
X20447Y7620D02*
X20828Y7239D01*
X21145D01*
X44069Y37084D02*
Y37795D01*
X17018Y91821D02*
Y92837D01*
X10160Y50139D02*
X11213D01*
X13970Y7563D02*
Y8636D01*
X17379Y81808D02*
Y82648D01*
X27686Y95758D02*
Y96774D01*
X55443Y38156D02*
Y38784D01*
Y38156D02*
X55753Y37846D01*
X38849Y27051D02*
X39226Y27428D01*
X25412Y100552D02*
Y102096D01*
X25019Y96012D02*
Y97028D01*
X9271Y120841D02*
Y123190D01*
X37672Y25874D02*
X38049Y26251D01*
X25159Y31623D02*
X25273Y31509D01*
X24003Y31623D02*
X25159D01*
X32512Y17780D02*
Y18796D01*
X11815Y85348D02*
X13179D01*
X11430Y85344D02*
X11815Y85348D01*
X21336Y45771D02*
Y46355D01*
X21209Y45644D02*
X21336Y45771D01*
X22479Y85344D02*
Y86360D01*
X39243Y25832D02*
Y25845D01*
X39649Y26251D01*
X54102Y35687D02*
Y35750D01*
Y35687D02*
X54737Y35052D01*
X56093Y43139D02*
X56388Y43434D01*
X56093Y41734D02*
Y43139D01*
X29108Y96037D02*
X29312Y95834D01*
X51054Y35687D02*
Y35750D01*
Y35687D02*
X51689Y35052D01*
X25527Y25260D02*
X25540Y25273D01*
X26289D01*
X24003Y33528D02*
X24130Y33655D01*
X24892D01*
X27068Y117619D02*
Y119426D01*
X30988Y54433D02*
Y54574D01*
Y54433D02*
X31395Y54026D01*
X19558Y78232D02*
Y79248D01*
X33795Y54026D02*
X34172Y53649D01*
X55443Y40584D02*
Y41734D01*
X36703Y73279D02*
X37719D01*
X38849Y29451D02*
X39243Y29845D01*
X11811Y123761D02*
Y125984D01*
X27889Y22733D02*
X28092Y22936D01*
X27305Y22733D02*
X27889D01*
X24003Y36576D02*
Y36957D01*
X23368Y35941D02*
X24003Y36576D01*
X23368Y35179D02*
Y35941D01*
X40513Y62611D02*
Y63627D01*
X54356Y43434D02*
X54793Y42997D01*
Y41734D02*
Y42997D01*
X31828Y53659D02*
Y53674D01*
X31395Y53226D02*
X31828Y53659D01*
X38735Y37084D02*
Y37846D01*
X22987Y31623D02*
X24003D01*
X22860Y31496D02*
X22987Y31623D01*
X35272Y24274D02*
X35649Y24651D01*
X55075Y21117D02*
X56226D01*
D50*
X28575Y115824D02*
X28956Y115443D01*
X28575Y115824D02*
Y116177D01*
X28857Y116459D01*
X30254D01*
X31109Y117314D01*
Y118110D01*
X31318Y118319D01*
Y119126D01*
X27686Y113919D02*
X28131Y113475D01*
Y112997D02*
Y113475D01*
X26972Y111838D02*
X28131Y112997D01*
X26972Y110239D02*
Y111838D01*
X26912Y110180D02*
X26972Y110239D01*
X26912Y109252D02*
Y110180D01*
X21717Y4135D02*
Y4988D01*
X21582Y5122D02*
X21717Y4988D01*
X21582Y5122D02*
Y6676D01*
X21645Y6739D01*
X42554Y22251D02*
X42582Y22223D01*
X42049Y22251D02*
X42554D01*
X21645Y6739D02*
X21983Y6401D01*
X22377D01*
X23228Y7023D01*
X23622Y7417D01*
Y9017D01*
X28511Y113475D02*
X28956Y113919D01*
X28511Y112840D02*
Y113475D01*
X27353Y111680D02*
X28511Y112840D01*
X27353Y110239D02*
Y111680D01*
Y110239D02*
X27412Y110180D01*
Y109252D02*
Y110180D01*
X21585Y7799D02*
X21645Y7739D01*
X21585Y7799D02*
Y8504D01*
X22098Y9017D01*
X21590Y9525D02*
X22098Y9017D01*
X21590Y9525D02*
Y10023D01*
X21730Y10163D01*
X30518Y118237D02*
Y119126D01*
Y118237D02*
X30728Y118027D01*
Y117472D02*
Y118027D01*
X30096Y116840D02*
X30728Y117472D01*
X28699Y116840D02*
X30096D01*
X28194Y116335D02*
X28699Y116840D01*
X28194Y115951D02*
Y116335D01*
X27686Y115443D02*
X28194Y115951D01*
X23325Y113985D02*
X24021Y114681D01*
X24320D01*
X42049Y23051D02*
X42582D01*
X29591Y114681D02*
X30226Y114046D01*
Y113919D02*
Y114046D01*
X21067Y4135D02*
Y4988D01*
X21201Y5122D01*
Y6682D01*
X21145Y6739D02*
X21201Y6682D01*
X28956Y115443D02*
X30226D01*
X21145Y7739D02*
X21204Y7799D01*
Y8514D01*
X20701Y9017D02*
X21204Y8514D01*
X20701Y9017D02*
X21209Y9525D01*
Y10008D01*
X21069Y10147D02*
X21209Y10008D01*
X20883Y6477D02*
X21145Y6739D01*
X20244Y6477D02*
X20883D01*
X19177Y7544D02*
X20244Y6477D01*
X19177Y7544D02*
Y9017D01*
D51*
X40030Y26670D02*
X40030D01*
X39649Y27051D02*
X40030Y26670D01*
X40056Y27444D02*
X40449Y27051D01*
X52175Y23217D02*
X52411D01*
X52521Y23107D01*
X53057D01*
X53197Y23247D01*
X39649Y25451D02*
X40026Y25074D01*
X52175Y20817D02*
X52411D01*
X52521Y20707D01*
X53209D01*
X53349Y20847D01*
X39649Y27851D02*
X40026Y28228D01*
X51903Y21417D02*
X52175D01*
X51794Y21526D02*
X51903Y21417D01*
X51192Y21526D02*
X51794D01*
X51052Y21387D02*
X51192Y21526D01*
X52175Y22617D02*
X52411D01*
X52521Y22726D01*
X53057D01*
X53197Y22586D01*
X40449Y27851D02*
X40826Y28228D01*
X40068Y25832D02*
X40449Y25451D01*
X40056Y25832D02*
X40068D01*
X52175Y20217D02*
X52411D01*
X52521Y20326D01*
X53209D01*
X53349Y20186D01*
X51052Y22047D02*
X51192Y21907D01*
X51794D01*
X51903Y22017D01*
X52175D01*
D52*
X15748Y90424D02*
X15879Y90293D01*
Y88548D02*
Y90293D01*
X28321Y94495D02*
X28836Y93980D01*
X28321Y94495D02*
Y97663D01*
X27686Y98298D02*
X28321Y97663D01*
X22606Y17272D02*
Y18542D01*
X20955Y20066D02*
X22606D01*
X15113Y91059D02*
X15748Y90424D01*
X15113Y91059D02*
Y103886D01*
X13153Y105846D02*
X15113Y103886D01*
X13153Y105846D02*
Y106108D01*
X14351Y90424D02*
X15379Y89396D01*
Y88548D02*
Y89396D01*
X26912Y99072D02*
X27686Y98298D01*
X26912Y99072D02*
Y100552D01*
X18542Y19805D02*
X18803Y20066D01*
X20955D01*
X18288Y27185D02*
X18442Y27031D01*
X23348D01*
X24130Y27813D01*
Y17297D02*
Y18542D01*
X20955Y21590D02*
X22606D01*
X26162Y98298D02*
X26412Y98548D01*
Y100552D01*
X22606Y24892D02*
Y26289D01*
X24130Y27813D02*
X24765Y27178D01*
X28702D01*
X28829Y27051D01*
X30849D01*
X18542Y22105D02*
X19057Y21590D01*
X20955D01*
X24130Y20066D02*
X25019Y20955D01*
X28321D01*
X28956Y21590D01*
Y23495D01*
X30112Y24651D01*
X30849D01*
X24130Y23851D02*
Y24892D01*
X30277Y25451D02*
X30849D01*
X28575Y23749D02*
X30277Y25451D01*
X28575Y22479D02*
Y23749D01*
X28321Y22225D02*
X28575Y22479D01*
X24765Y22225D02*
X28321D01*
X24130Y21590D02*
X24765Y22225D01*
X24130Y24892D02*
X24384Y24638D01*
X28448D01*
X30061Y26251D01*
X30849D01*
X5753Y98108D02*
X11366D01*
X13716Y95758D01*
Y91059D02*
Y95758D01*
Y91059D02*
X14351Y90424D01*
X26536Y93980D02*
X26924Y94368D01*
Y97536D01*
X26162Y98298D02*
X26924Y97536D01*
X18288Y24885D02*
X18295Y24892D01*
X22606D01*
D53*
X66588Y-47577D02*
X66498Y-47396D01*
X66226Y-47305D01*
X66044D01*
X65772Y-47396D01*
X65591Y-47668D01*
X65500Y-48122D01*
Y-48575D01*
X65591Y-48938D01*
X65772Y-49119D01*
X66044Y-49210D01*
X66135D01*
X66407Y-49119D01*
X66588Y-48938D01*
X66679Y-48666D01*
Y-48575D01*
X66588Y-48303D01*
X66407Y-48122D01*
X66135Y-48031D01*
X66044D01*
X65772Y-48122D01*
X65591Y-48303D01*
X65500Y-48575D01*
D54*
X7620Y16510D02*
D03*
Y21590D02*
D03*
D55*
X4953Y102108D02*
D03*
X11953D02*
D03*
D56*
X9271Y31242D02*
D03*
Y38792D02*
D03*
D57*
X25867Y1280D02*
D03*
X17567D02*
D03*
D58*
X19442Y4460D02*
D03*
X23992D02*
D03*
D59*
X29118Y122151D02*
D03*
X33518D02*
D03*
D60*
X4191Y4191D02*
D03*
Y122809D02*
D03*
X55809D02*
D03*
Y4191D02*
D03*
D61*
X31496Y84836D02*
D03*
X34036D02*
D03*
Y87376D02*
D03*
X36576D02*
D03*
D62*
X31496D02*
D03*
D63*
X25273Y31509D02*
D03*
X25019Y96012D02*
D03*
X24912Y99207D02*
D03*
X24663Y113081D02*
D03*
X24384Y38354D02*
D03*
X24130Y35179D02*
D03*
X24003Y82550D02*
D03*
Y81788D02*
D03*
Y80899D02*
D03*
Y33528D02*
D03*
X23931Y125802D02*
D03*
X23876Y50800D02*
D03*
X23749Y95631D02*
D03*
Y53696D02*
D03*
X23470Y11570D02*
D03*
X23368Y47879D02*
D03*
Y35179D02*
D03*
X23290Y84709D02*
D03*
X23114Y82550D02*
D03*
Y80899D02*
D03*
X23109Y81765D02*
D03*
X23017Y5334D02*
D03*
X22860Y8280D02*
D03*
Y53721D02*
D03*
Y31496D02*
D03*
X22479Y95885D02*
D03*
Y86360D02*
D03*
X22339Y32017D02*
D03*
X22174Y46736D02*
D03*
X22098Y51562D02*
D03*
Y50241D02*
D03*
Y49276D02*
D03*
X21565Y27813D02*
D03*
X21336Y111125D02*
D03*
X21209Y95885D02*
D03*
Y45644D02*
D03*
X21125Y113919D02*
D03*
X21082Y94996D02*
D03*
X20955Y124968D02*
D03*
X20828Y93091D02*
D03*
X20701Y106934D02*
D03*
X20447Y7620D02*
D03*
X20320Y24257D02*
D03*
X20193Y10033D02*
D03*
X20066Y11938D02*
D03*
Y73914D02*
D03*
Y73152D02*
D03*
X20041Y19202D02*
D03*
X19990Y112446D02*
D03*
X19964Y22301D02*
D03*
X19939Y34290D02*
D03*
X19788Y35790D02*
D03*
X19558Y78232D02*
D03*
X19431Y114427D02*
D03*
X19329Y108509D02*
D03*
X19177Y73914D02*
D03*
Y73152D02*
D03*
X18669Y94869D02*
D03*
X18415Y106553D02*
D03*
X18288Y124968D02*
D03*
Y8070D02*
D03*
Y7211D02*
D03*
X18161Y78232D02*
D03*
X18148Y44536D02*
D03*
X18136Y41986D02*
D03*
X18059Y34874D02*
D03*
X18058Y39083D02*
D03*
X18057Y40482D02*
D03*
X18034Y37465D02*
D03*
X17932Y103581D02*
D03*
X17907Y107696D02*
D03*
Y66294D02*
D03*
X17729Y93218D02*
D03*
Y90932D02*
D03*
X17379Y81808D02*
D03*
X17272Y11227D02*
D03*
X17018Y92837D02*
D03*
X16969Y89388D02*
D03*
X16764Y96774D02*
D03*
X16612Y32029D02*
D03*
X16510Y78842D02*
D03*
X16434Y20980D02*
D03*
X16383Y24765D02*
D03*
Y11227D02*
D03*
X15748Y95377D02*
D03*
X15723Y117678D02*
D03*
X15561Y77038D02*
D03*
X15367Y123546D02*
D03*
X15291Y76352D02*
D03*
X15037Y22860D02*
D03*
X14931Y125802D02*
D03*
X14920Y11049D02*
D03*
X14735Y77035D02*
D03*
X14478Y111125D02*
D03*
Y78613D02*
D03*
X14402Y76378D02*
D03*
X14351Y95377D02*
D03*
X14224Y65913D02*
D03*
Y65151D02*
D03*
X14199Y64389D02*
D03*
X14122Y117348D02*
D03*
X13970Y8636D02*
D03*
X13939Y77000D02*
D03*
X13843Y79629D02*
D03*
X13589Y5715D02*
D03*
Y4953D02*
D03*
X13462Y65913D02*
D03*
Y65151D02*
D03*
Y64389D02*
D03*
Y41275D02*
D03*
X13208Y120269D02*
D03*
X13081Y124841D02*
D03*
Y92837D02*
D03*
Y79121D02*
D03*
Y38217D02*
D03*
Y36017D02*
D03*
X12954Y122301D02*
D03*
X12827Y89916D02*
D03*
Y5715D02*
D03*
Y4953D02*
D03*
X12370Y76378D02*
D03*
X12319Y12446D02*
D03*
X12192Y120117D02*
D03*
X11989Y77013D02*
D03*
X11811Y125984D02*
D03*
Y95123D02*
D03*
X11608Y76378D02*
D03*
X11430Y84582D02*
D03*
X11422Y87681D02*
D03*
X11100Y77013D02*
D03*
X10795Y120117D02*
D03*
X10719Y76378D02*
D03*
X10541Y20320D02*
D03*
X10414Y1905D02*
D03*
Y84582D02*
D03*
Y2794D02*
D03*
X10160Y123825D02*
D03*
Y50139D02*
D03*
X10097Y111062D02*
D03*
X10084Y41275D02*
D03*
X9652Y1905D02*
D03*
Y2794D02*
D03*
X9601Y86868D02*
D03*
X9271Y123190D02*
D03*
X9169Y88519D02*
D03*
X8636Y45466D02*
D03*
X8534Y44628D02*
D03*
X8255Y14478D02*
D03*
X7620Y109601D02*
D03*
X7493Y80416D02*
D03*
X7366Y10414D02*
D03*
X6731Y69342D02*
D03*
X5994Y86995D02*
D03*
X59182Y107442D02*
D03*
X58801Y102362D02*
D03*
X58699Y110767D02*
D03*
X58674Y83820D02*
D03*
X58420Y109347D02*
D03*
Y78486D02*
D03*
X56642Y94996D02*
D03*
Y28067D02*
D03*
X56226Y22317D02*
D03*
Y21117D02*
D03*
Y19917D02*
D03*
Y18117D02*
D03*
X55499Y29464D02*
D03*
X54102Y23517D02*
D03*
Y70231D02*
D03*
X53594Y93345D02*
D03*
X5334Y74397D02*
D03*
X53086Y19431D02*
D03*
Y110744D02*
D03*
X52705Y29591D02*
D03*
X52426Y35839D02*
D03*
X51584Y4318D02*
D03*
X51460Y96215D02*
D03*
X51232Y24765D02*
D03*
X50648Y25730D02*
D03*
X50546Y22860D02*
D03*
Y124079D02*
D03*
Y122174D02*
D03*
Y120015D02*
D03*
X50419Y18669D02*
D03*
X50215Y72771D02*
D03*
X50038Y55347D02*
D03*
X49809Y4369D02*
D03*
X49759Y6807D02*
D03*
X49530Y94361D02*
D03*
Y93599D02*
D03*
Y92583D02*
D03*
X49403Y18644D02*
D03*
X49022Y70993D02*
D03*
Y70104D02*
D03*
X48743Y30886D02*
D03*
X48641Y3683D02*
D03*
X48387Y75565D02*
D03*
Y74803D02*
D03*
X48133Y117475D02*
D03*
Y70993D02*
D03*
Y70104D02*
D03*
X48108Y5613D02*
D03*
X47955Y23368D02*
D03*
X47879Y19050D02*
D03*
X47752Y17069D02*
D03*
Y89637D02*
D03*
X47625Y16256D02*
D03*
Y75565D02*
D03*
Y74803D02*
D03*
X47473Y38481D02*
D03*
X47244Y70993D02*
D03*
Y70104D02*
D03*
X47168Y23343D02*
D03*
X47117Y36271D02*
D03*
X46736Y54991D02*
D03*
X45974Y58547D02*
D03*
Y55753D02*
D03*
X45923Y32334D02*
D03*
X45720Y89611D02*
D03*
X45568Y54051D02*
D03*
X45212Y58547D02*
D03*
X44958Y55753D02*
D03*
X44907Y17551D02*
D03*
X44069Y37795D02*
D03*
X4381Y111062D02*
D03*
X43586Y48514D02*
D03*
X43561Y49530D02*
D03*
X43180Y95758D02*
D03*
X41402Y37795D02*
D03*
X41300Y61595D02*
D03*
X41148Y117856D02*
D03*
X4064Y109474D02*
D03*
X40513Y117475D02*
D03*
Y63627D02*
D03*
X39624Y72390D02*
D03*
X38735Y37846D02*
D03*
X38608Y118453D02*
D03*
X38557Y61595D02*
D03*
X38456Y62611D02*
D03*
X38303Y48514D02*
D03*
X38252Y49555D02*
D03*
X37719Y73279D02*
D03*
X36830Y63627D02*
D03*
X36703Y61595D02*
D03*
X36678Y62611D02*
D03*
X36449Y37846D02*
D03*
X36068Y15113D02*
D03*
X35814Y72771D02*
D03*
Y69215D02*
D03*
Y63881D02*
D03*
X35052Y63627D02*
D03*
Y62611D02*
D03*
Y61595D02*
D03*
X34519Y49733D02*
D03*
X34493Y48666D02*
D03*
X34036Y63627D02*
D03*
X33655Y66929D02*
D03*
X33401Y61574D02*
D03*
X33350Y62636D02*
D03*
X33325Y14910D02*
D03*
X33249Y37156D02*
D03*
X33020Y106172D02*
D03*
Y101854D02*
D03*
X32918Y120752D02*
D03*
X32893Y103124D02*
D03*
X32639Y124968D02*
D03*
X32512Y18796D02*
D03*
X32080Y37171D02*
D03*
X31877Y116840D02*
D03*
X31623Y99314D02*
D03*
Y96012D02*
D03*
Y62636D02*
D03*
Y61595D02*
D03*
X31369Y109220D02*
D03*
X31242Y5588D02*
D03*
X31115Y113411D02*
D03*
X30480Y96266D02*
D03*
X30353Y12192D02*
D03*
X29718Y111506D02*
D03*
Y10338D02*
D03*
Y840D02*
D03*
X29591Y15367D02*
D03*
Y12192D02*
D03*
Y37084D02*
D03*
X29337Y84455D02*
D03*
Y83693D02*
D03*
X29312Y95834D02*
D03*
X29007Y91846D02*
D03*
X28829Y111506D02*
D03*
X28575Y84455D02*
D03*
Y83693D02*
D03*
Y6858D02*
D03*
Y4318D02*
D03*
X28461Y14605D02*
D03*
X28412Y107986D02*
D03*
X28194Y9957D02*
D03*
Y2540D02*
D03*
X28016Y18339D02*
D03*
X27813Y84455D02*
D03*
Y83693D02*
D03*
X27737Y55651D02*
D03*
X27686Y95758D02*
D03*
X27559Y58674D02*
D03*
Y52832D02*
D03*
X27102Y5715D02*
D03*
X27068Y117619D02*
D03*
X26924Y91821D02*
D03*
X26543Y58674D02*
D03*
Y52832D02*
D03*
X26162Y95758D02*
D03*
X25654Y56642D02*
D03*
X25603Y18136D02*
D03*
X25531Y21590D02*
D03*
Y20320D02*
D03*
Y26543D02*
D03*
X25527Y25260D02*
D03*
Y24105D02*
D03*
Y22860D02*
D03*
X25502Y19054D02*
D03*
X25446Y119426D02*
D03*
X25412Y102096D02*
D03*
X25400Y124968D02*
D03*
D64*
X25150Y30289D02*
D03*
X25146Y29654D02*
D03*
X24954Y28257D02*
D03*
X24912Y108184D02*
D03*
X24765Y112395D02*
D03*
X24320Y114681D02*
D03*
X24232Y29604D02*
D03*
X24130Y23851D02*
D03*
Y17297D02*
D03*
X23876Y102108D02*
D03*
Y6858D02*
D03*
X23749Y44450D02*
D03*
X2375Y52451D02*
D03*
Y51689D02*
D03*
X23622Y45339D02*
D03*
X23153Y102152D02*
D03*
X23139Y7595D02*
D03*
X22606Y17272D02*
D03*
X22454Y42037D02*
D03*
X21768Y38684D02*
D03*
X21730Y10163D02*
D03*
X21717Y110236D02*
D03*
X21641Y29642D02*
D03*
X21387Y42012D02*
D03*
X21336Y41199D02*
D03*
X21285Y112395D02*
D03*
X21209Y30607D02*
D03*
X21069Y10147D02*
D03*
X20574Y37795D02*
D03*
X20523Y38456D02*
D03*
X20475Y103152D02*
D03*
X20472Y41961D02*
D03*
X20447Y115976D02*
D03*
X19939Y50139D02*
D03*
X19875Y47599D02*
D03*
X19851Y48869D02*
D03*
X18898Y119634D02*
D03*
X18796Y30861D02*
D03*
Y30226D02*
D03*
X18288Y104652D02*
D03*
X18161Y12497D02*
D03*
X17780Y87249D02*
D03*
Y85598D02*
D03*
Y83947D02*
D03*
X17145Y56134D02*
D03*
X17018Y115951D02*
D03*
X16510Y13589D02*
D03*
X16129Y124587D02*
D03*
Y111125D02*
D03*
Y87249D02*
D03*
Y85598D02*
D03*
Y83947D02*
D03*
X15240Y81788D02*
D03*
X14605Y85598D02*
D03*
X14478Y87249D02*
D03*
Y83947D02*
D03*
X13970Y14986D02*
D03*
X13462Y32639D02*
D03*
X13437Y33274D02*
D03*
X13335Y34036D02*
D03*
X13144Y81534D02*
D03*
X12929Y38961D02*
D03*
X12319Y11049D02*
D03*
Y83348D02*
D03*
X12294Y39014D02*
D03*
X12065Y34798D02*
D03*
X12040Y34036D02*
D03*
X11811Y93218D02*
D03*
X11557Y64389D02*
D03*
X11049Y83160D02*
D03*
X10795Y65405D02*
D03*
X10541Y119253D02*
D03*
X10312Y46329D02*
D03*
X10288Y47600D02*
D03*
X10287Y58293D02*
D03*
Y48869D02*
D03*
X9754Y79629D02*
D03*
X9601Y91516D02*
D03*
X9093Y83363D02*
D03*
Y82169D02*
D03*
X8763Y65151D02*
D03*
X8407Y82118D02*
D03*
X8382Y56261D02*
D03*
Y55626D02*
D03*
X8001Y77216D02*
D03*
X7899Y61519D02*
D03*
Y60833D02*
D03*
X7874Y76581D02*
D03*
X7798Y92075D02*
D03*
X7747Y85598D02*
D03*
Y75565D02*
D03*
X7722Y86233D02*
D03*
X7620Y73000D02*
D03*
X7556Y93345D02*
D03*
Y63881D02*
D03*
X6960Y60909D02*
D03*
X6350Y82677D02*
D03*
X57277Y43434D02*
D03*
X56896Y98552D02*
D03*
X56642Y94107D02*
D03*
X56515Y92964D02*
D03*
X56261Y19050D02*
D03*
Y47752D02*
D03*
X56134Y24892D02*
D03*
Y24117D02*
D03*
X54381Y61189D02*
D03*
X54229Y46101D02*
D03*
X54102Y54991D02*
D03*
Y35750D02*
D03*
X53975Y57531D02*
D03*
Y31242D02*
D03*
X53848Y80899D02*
D03*
Y80010D02*
D03*
Y79248D02*
D03*
X53594Y92456D02*
D03*
X53569Y46101D02*
D03*
X53543Y45466D02*
D03*
X53349Y20847D02*
D03*
Y20186D02*
D03*
X53340Y62611D02*
D03*
X53197Y23247D02*
D03*
Y22586D02*
D03*
X52832Y70231D02*
D03*
X52388Y61468D02*
D03*
X51308Y18669D02*
D03*
X51181Y8255D02*
D03*
X51054Y35750D02*
D03*
X51052Y22047D02*
D03*
Y21387D02*
D03*
X50292Y58801D02*
D03*
X4953Y70612D02*
D03*
Y67691D02*
D03*
X49403Y117729D02*
D03*
X49085Y85661D02*
D03*
X48387Y40640D02*
D03*
Y37465D02*
D03*
X48063Y14789D02*
D03*
X47676Y55220D02*
D03*
X47625Y62865D02*
D03*
X47269Y43891D02*
D03*
Y43028D02*
D03*
X47117Y5461D02*
D03*
X47015Y45288D02*
D03*
X4699Y58674D02*
D03*
X46431Y30607D02*
D03*
X46355Y5461D02*
D03*
X46203Y25679D02*
D03*
X46076Y33299D02*
D03*
X45974Y40513D02*
D03*
Y39497D02*
D03*
X45085Y60198D02*
D03*
X44958Y40513D02*
D03*
X44933Y39624D02*
D03*
X44856Y11659D02*
D03*
X44831Y18974D02*
D03*
X44298Y16282D02*
D03*
X44069Y35306D02*
D03*
X43332Y39141D02*
D03*
X43231Y11811D02*
D03*
X43180Y10795D02*
D03*
X43053Y14732D02*
D03*
X42545Y5461D02*
D03*
X42418Y14986D02*
D03*
X42393Y38964D02*
D03*
X42367Y41021D02*
D03*
Y40335D02*
D03*
X42291Y19583D02*
D03*
X41859Y20447D02*
D03*
X41783Y14351D02*
D03*
X41402Y38532D02*
D03*
Y35306D02*
D03*
X40615Y16053D02*
D03*
X40589Y15392D02*
D03*
X39878Y11303D02*
D03*
Y5461D02*
D03*
X39370Y95250D02*
D03*
Y40996D02*
D03*
X39116Y19431D02*
D03*
X38735Y35306D02*
D03*
X38481Y93218D02*
D03*
Y92456D02*
D03*
X38227Y41986D02*
D03*
Y41021D02*
D03*
X37973Y71755D02*
D03*
X37363Y18758D02*
D03*
Y15621D02*
D03*
X37338Y10490D02*
D03*
Y5588D02*
D03*
X37211Y41046D02*
D03*
X37186Y42037D02*
D03*
X36449Y35306D02*
D03*
X36170Y40919D02*
D03*
X36144Y39192D02*
D03*
X36119Y14326D02*
D03*
X3556Y53594D02*
D03*
X35433Y76327D02*
D03*
X35128Y10795D02*
D03*
X34823Y5563D02*
D03*
X34722Y40919D02*
D03*
X34569Y39167D02*
D03*
X34493Y18542D02*
D03*
X34290Y14859D02*
D03*
Y14148D02*
D03*
X33884Y18771D02*
D03*
X33274Y76327D02*
D03*
Y36068D02*
D03*
X32588Y38823D02*
D03*
X32258Y5639D02*
D03*
X32105Y36067D02*
D03*
X31877Y80391D02*
D03*
Y76454D02*
D03*
X31750Y18796D02*
D03*
X31572Y41783D02*
D03*
X31550Y41123D02*
D03*
X31115Y18796D02*
D03*
Y38799D02*
D03*
X30988Y914D02*
D03*
X30937Y6629D02*
D03*
X29591Y114681D02*
D03*
Y36068D02*
D03*
X29489Y41402D02*
D03*
X29362Y107925D02*
D03*
Y107152D02*
D03*
X28981Y39040D02*
D03*
X28321Y107188D02*
D03*
X28118Y25273D02*
D03*
Y24003D02*
D03*
Y21590D02*
D03*
Y19054D02*
D03*
Y26543D02*
D03*
X28092Y22936D02*
D03*
X28067Y117602D02*
D03*
X27991Y20320D02*
D03*
X27813Y7544D02*
D03*
X27483Y39040D02*
D03*
X27457Y40945D02*
D03*
X26924Y7544D02*
D03*
X26619Y40843D02*
D03*
X26035Y8509D02*
D03*
Y7874D02*
D03*
X25933Y43155D02*
D03*
X25912Y108081D02*
D03*
X25832Y30328D02*
D03*
X25527Y114681D02*
D03*
X25479Y27900D02*
D03*
X25451Y116357D02*
D03*
X25425Y38329D02*
D03*
D65*
X43078Y66802D02*
X45441D01*
D78*
X28836Y93980D02*
D03*
X26536D02*
D03*
D79*
X18288Y27185D02*
D03*
Y24885D02*
D03*
D80*
X18542Y19805D02*
D03*
Y22105D02*
D03*
D81*
X29718Y3113D02*
D03*
Y8063D02*
D03*
X32258Y3113D02*
D03*
Y8063D02*
D03*
X34798Y3113D02*
D03*
Y8063D02*
D03*
X37338Y3113D02*
D03*
Y8063D02*
D03*
X39878Y3113D02*
D03*
Y8063D02*
D03*
X42418Y3113D02*
D03*
Y8063D02*
D03*
X44958Y3113D02*
D03*
Y8063D02*
D03*
X47498Y3113D02*
D03*
Y8063D02*
D03*
D82*
X42229Y119634D02*
D03*
Y122174D02*
D03*
Y124714D02*
D03*
X47179Y119634D02*
D03*
Y122174D02*
D03*
Y124714D02*
D03*
D83*
X11811Y123761D02*
D03*
X9271Y120841D02*
D03*
D84*
X10351Y4953D02*
D03*
X13271Y2413D02*
D03*
D85*
X4128Y71755D02*
D03*
Y76835D02*
D03*
Y81915D02*
D03*
Y86995D02*
D03*
Y92075D02*
D03*
X7556Y74295D02*
D03*
Y79375D02*
D03*
Y84455D02*
D03*
Y89535D02*
D03*
Y94615D02*
D03*
X52388Y67691D02*
D03*
Y72771D02*
D03*
Y77851D02*
D03*
Y82931D02*
D03*
X55817Y70231D02*
D03*
Y75311D02*
D03*
Y80391D02*
D03*
Y85471D02*
D03*
X52388Y49911D02*
D03*
Y54991D02*
D03*
Y60071D02*
D03*
X55817Y52451D02*
D03*
Y57531D02*
D03*
Y62611D02*
D03*
X7556Y67691D02*
D03*
Y62611D02*
D03*
Y57531D02*
D03*
Y52451D02*
D03*
X4128Y65151D02*
D03*
Y60071D02*
D03*
Y54991D02*
D03*
Y49911D02*
D03*
D86*
X2922Y15240D02*
D03*
Y17780D02*
D03*
Y20320D02*
D03*
Y22860D02*
D03*
X12318Y15240D02*
D03*
Y17780D02*
D03*
Y20320D02*
D03*
Y22860D02*
D03*
D87*
X14920Y9963D02*
D03*
Y7563D02*
D03*
X13970D02*
D03*
X13020Y9963D02*
D03*
Y7563D02*
D03*
X34864Y67888D02*
D03*
Y70288D02*
D03*
X35814D02*
D03*
X36764Y67888D02*
D03*
Y70288D02*
D03*
D88*
X22395Y11115D02*
D03*
Y13015D02*
D03*
X24595Y12065D02*
D03*
X23325Y115885D02*
D03*
Y113985D02*
D03*
X21125Y114935D02*
D03*
D89*
X24751Y77445D02*
D03*
X29351D02*
D03*
X27051D02*
D03*
D90*
Y71145D02*
D03*
D91*
X39141Y66802D02*
D03*
X10566Y70485D02*
D03*
D92*
X45441Y64502D02*
D03*
Y66802D02*
D03*
Y69102D02*
D03*
X16866Y72785D02*
D03*
Y70485D02*
D03*
Y68185D02*
D03*
D93*
X54143Y38784D02*
D03*
Y41734D02*
D03*
X54793Y38784D02*
D03*
Y41734D02*
D03*
X55443Y38784D02*
D03*
Y41734D02*
D03*
X56093Y38784D02*
D03*
Y41734D02*
D03*
D94*
X55118Y40259D02*
D03*
D95*
X41318Y91948D02*
D03*
Y93218D02*
D03*
Y94488D02*
D03*
Y95758D02*
D03*
X46566Y91948D02*
D03*
Y93218D02*
D03*
Y94488D02*
D03*
Y95758D02*
D03*
D96*
X32131Y113556D02*
D03*
Y115806D02*
D03*
X45720Y88628D02*
D03*
Y86378D02*
D03*
X47752Y88628D02*
D03*
Y86378D02*
D03*
X43688Y88628D02*
D03*
Y86378D02*
D03*
D97*
X13179Y83348D02*
D03*
Y83848D02*
D03*
Y84348D02*
D03*
Y84848D02*
D03*
Y85348D02*
D03*
Y85848D02*
D03*
Y86348D02*
D03*
Y86848D02*
D03*
Y87348D02*
D03*
Y87848D02*
D03*
X19079Y83348D02*
D03*
Y83848D02*
D03*
Y84348D02*
D03*
Y84848D02*
D03*
Y85348D02*
D03*
Y85848D02*
D03*
Y86348D02*
D03*
Y86848D02*
D03*
Y87348D02*
D03*
Y87848D02*
D03*
D98*
X13879Y82648D02*
D03*
Y88548D02*
D03*
X14379Y82648D02*
D03*
Y88548D02*
D03*
X14879Y82648D02*
D03*
Y88548D02*
D03*
X15379Y82648D02*
D03*
Y88548D02*
D03*
X15879Y82648D02*
D03*
Y88548D02*
D03*
X16379Y82648D02*
D03*
Y88548D02*
D03*
X16879Y82648D02*
D03*
Y88548D02*
D03*
X17379Y82648D02*
D03*
Y88548D02*
D03*
X17879Y82648D02*
D03*
Y88548D02*
D03*
X18379Y82648D02*
D03*
Y88548D02*
D03*
D99*
X16129Y85598D02*
D03*
D100*
X2953Y98108D02*
D03*
X1053Y106108D02*
D03*
D101*
X3953D02*
D03*
X5753Y98108D02*
D03*
X13153Y106108D02*
D03*
D102*
X17203Y101308D02*
D03*
D103*
X23931Y124523D02*
D03*
Y120078D02*
D03*
X14931Y124523D02*
D03*
Y120078D02*
D03*
X11739Y115507D02*
D03*
Y111062D02*
D03*
X2739Y115507D02*
D03*
Y111062D02*
D03*
D104*
X4871Y42467D02*
D03*
D105*
X12921Y27842D02*
D03*
D106*
X13421Y42842D02*
D03*
D107*
X15071Y32717D02*
D03*
Y33817D02*
D03*
Y34917D02*
D03*
Y36017D02*
D03*
Y37117D02*
D03*
Y38217D02*
D03*
Y39317D02*
D03*
Y40417D02*
D03*
D108*
Y41567D02*
D03*
D109*
X1914Y27739D02*
D03*
D110*
X1921Y42692D02*
D03*
D111*
X20417Y4135D02*
D03*
X21067D02*
D03*
X21717D02*
D03*
X22367D02*
D03*
X23017D02*
D03*
D112*
X21717Y1460D02*
D03*
D113*
X27068Y119426D02*
D03*
Y124926D02*
D03*
X35568Y119426D02*
D03*
Y124926D02*
D03*
D114*
X29718Y119126D02*
D03*
X30518D02*
D03*
X31318D02*
D03*
X32118D02*
D03*
X32918D02*
D03*
D115*
X25412Y100552D02*
D03*
Y109252D02*
D03*
X25912Y100552D02*
D03*
Y109252D02*
D03*
X26412Y100552D02*
D03*
Y109252D02*
D03*
X26912Y100552D02*
D03*
Y109252D02*
D03*
X27412Y100552D02*
D03*
Y109252D02*
D03*
X27912Y100552D02*
D03*
Y109252D02*
D03*
X28412Y100552D02*
D03*
Y109252D02*
D03*
X28912Y100552D02*
D03*
Y109252D02*
D03*
X23412Y100552D02*
D03*
Y109252D02*
D03*
X23912Y100552D02*
D03*
Y109252D02*
D03*
X24412Y100552D02*
D03*
Y109252D02*
D03*
X24912Y100552D02*
D03*
Y109252D02*
D03*
D116*
X30512Y102152D02*
D03*
Y102652D02*
D03*
Y103152D02*
D03*
Y103652D02*
D03*
Y104152D02*
D03*
Y104652D02*
D03*
Y105152D02*
D03*
Y105652D02*
D03*
Y106152D02*
D03*
Y106652D02*
D03*
Y107152D02*
D03*
Y107652D02*
D03*
X21812Y102152D02*
D03*
Y102652D02*
D03*
Y103152D02*
D03*
Y103652D02*
D03*
Y104152D02*
D03*
Y104652D02*
D03*
Y105152D02*
D03*
Y105652D02*
D03*
Y106152D02*
D03*
Y106652D02*
D03*
Y107152D02*
D03*
Y107652D02*
D03*
D117*
X56055Y110767D02*
D03*
Y113767D02*
D03*
X57555Y110767D02*
D03*
Y113767D02*
D03*
D118*
X18700Y46350D02*
D03*
Y47620D02*
D03*
Y48890D02*
D03*
Y50160D02*
D03*
X11550Y46350D02*
D03*
Y47620D02*
D03*
Y48890D02*
D03*
Y50160D02*
D03*
D119*
X15125Y48255D02*
D03*
D120*
X30595Y58826D02*
D03*
Y58026D02*
D03*
Y57226D02*
D03*
Y54026D02*
D03*
Y53226D02*
D03*
Y52426D02*
D03*
X31395Y58826D02*
D03*
Y58026D02*
D03*
Y57226D02*
D03*
Y54026D02*
D03*
Y53226D02*
D03*
Y52426D02*
D03*
X32195Y58826D02*
D03*
Y58026D02*
D03*
Y57226D02*
D03*
Y54026D02*
D03*
Y53226D02*
D03*
Y52426D02*
D03*
X32995Y58826D02*
D03*
Y58026D02*
D03*
Y57226D02*
D03*
Y54026D02*
D03*
Y53226D02*
D03*
Y52426D02*
D03*
X33795Y58826D02*
D03*
Y58026D02*
D03*
Y57226D02*
D03*
Y54026D02*
D03*
Y53226D02*
D03*
Y52426D02*
D03*
X34595Y58826D02*
D03*
Y58026D02*
D03*
Y57226D02*
D03*
Y54026D02*
D03*
Y53226D02*
D03*
Y52426D02*
D03*
X35395Y58826D02*
D03*
Y58026D02*
D03*
Y57226D02*
D03*
Y54026D02*
D03*
Y53226D02*
D03*
Y52426D02*
D03*
X36195Y58826D02*
D03*
Y58026D02*
D03*
Y57226D02*
D03*
Y54026D02*
D03*
Y53226D02*
D03*
Y52426D02*
D03*
X36995Y58826D02*
D03*
Y58026D02*
D03*
Y57226D02*
D03*
Y54026D02*
D03*
Y53226D02*
D03*
Y52426D02*
D03*
X37795Y58826D02*
D03*
Y58026D02*
D03*
Y57226D02*
D03*
Y54026D02*
D03*
Y53226D02*
D03*
Y52426D02*
D03*
X38595Y58826D02*
D03*
Y58026D02*
D03*
Y57226D02*
D03*
Y54026D02*
D03*
Y53226D02*
D03*
Y52426D02*
D03*
X39395Y58826D02*
D03*
Y58026D02*
D03*
Y57226D02*
D03*
Y54026D02*
D03*
Y53226D02*
D03*
Y52426D02*
D03*
X40195Y58826D02*
D03*
Y58026D02*
D03*
Y57226D02*
D03*
Y54026D02*
D03*
Y53226D02*
D03*
Y52426D02*
D03*
X40995Y58826D02*
D03*
Y58026D02*
D03*
Y57226D02*
D03*
Y54026D02*
D03*
Y53226D02*
D03*
Y52426D02*
D03*
X41795Y58826D02*
D03*
Y58026D02*
D03*
Y57226D02*
D03*
Y54026D02*
D03*
Y53226D02*
D03*
Y52426D02*
D03*
D121*
X52175Y18417D02*
D03*
Y19017D02*
D03*
Y19617D02*
D03*
Y20217D02*
D03*
Y20817D02*
D03*
Y21417D02*
D03*
Y22017D02*
D03*
Y22617D02*
D03*
Y23217D02*
D03*
Y23817D02*
D03*
Y24417D02*
D03*
Y25017D02*
D03*
X55075Y18117D02*
D03*
Y18717D02*
D03*
Y19317D02*
D03*
Y19917D02*
D03*
Y20517D02*
D03*
Y21117D02*
D03*
Y21717D02*
D03*
Y22317D02*
D03*
Y22917D02*
D03*
Y23517D02*
D03*
Y24117D02*
D03*
Y24717D02*
D03*
Y25317D02*
D03*
D122*
X54725Y26017D02*
D03*
Y17417D02*
D03*
D123*
X54910Y100709D02*
D03*
Y106809D02*
D03*
D124*
X57635Y102509D02*
D03*
Y103009D02*
D03*
Y103509D02*
D03*
Y104009D02*
D03*
Y104509D02*
D03*
Y105009D02*
D03*
D125*
X49784Y32385D02*
D03*
D126*
X52070D02*
D03*
D127*
X48514Y68050D02*
D03*
Y65300D02*
D03*
D128*
X23368Y46958D02*
D03*
Y49308D02*
D03*
X26924Y14700D02*
D03*
Y17050D02*
D03*
X19000Y93375D02*
D03*
Y91025D02*
D03*
X46980Y24520D02*
D03*
Y26870D02*
D03*
X16891Y9938D02*
D03*
Y7588D02*
D03*
X21590Y72803D02*
D03*
Y70453D02*
D03*
D129*
X21145Y6739D02*
D03*
Y7239D02*
D03*
Y7739D02*
D03*
X21645Y6739D02*
D03*
Y7239D02*
D03*
Y7739D02*
D03*
X22145Y6739D02*
D03*
Y7239D02*
D03*
Y7739D02*
D03*
X22645Y7239D02*
D03*
Y7739D02*
D03*
D130*
X51054Y38659D02*
D03*
Y41605D02*
D03*
D131*
X58115Y32385D02*
D03*
X55169D02*
D03*
X49352Y46736D02*
D03*
X46406D02*
D03*
D132*
X46228Y16688D02*
D03*
Y19634D02*
D03*
X47117Y32334D02*
D03*
Y29388D02*
D03*
Y37287D02*
D03*
Y34341D02*
D03*
D133*
X46863Y117475D02*
D03*
X45339D02*
D03*
X49403Y44831D02*
D03*
X47879D02*
D03*
X35179Y66040D02*
D03*
X33655D02*
D03*
X12192Y78613D02*
D03*
X10668D02*
D03*
X10033Y7112D02*
D03*
X8509D02*
D03*
X11811Y94107D02*
D03*
X10287D02*
D03*
X24130Y26289D02*
D03*
X22606D02*
D03*
X24130Y27813D02*
D03*
X22606D02*
D03*
X11684Y88519D02*
D03*
X10160D02*
D03*
X57785Y36576D02*
D03*
X56261D02*
D03*
X22479Y85344D02*
D03*
X20955D02*
D03*
X16002Y115443D02*
D03*
X14478D02*
D03*
X22479Y83947D02*
D03*
X20955D02*
D03*
D134*
X46704Y49149D02*
D03*
X49054D02*
D03*
X24225Y31623D02*
D03*
X26575D02*
D03*
X55277Y28067D02*
D03*
X52927D02*
D03*
X24225Y36957D02*
D03*
X26575D02*
D03*
X25368Y82296D02*
D03*
X27718D02*
D03*
X14129Y75184D02*
D03*
X11779D02*
D03*
X43339Y71501D02*
D03*
X40989D02*
D03*
D135*
X14077Y84348D02*
X14478Y83947D01*
X13179Y84348D02*
X14077D01*
X16129Y83947D02*
X16379Y83697D01*
Y82648D02*
Y83697D01*
D136*
X17399Y64516D02*
X18923D01*
M02*
