G04*
G04 #@! TF.GenerationSoftware,Altium Limited,Altium Designer,20.2.6 (244)*
G04*
G04 Layer_Color=16711935*
%FSLAX43Y43*%
%MOMM*%
G71*
G04*
G04 #@! TF.SameCoordinates,ADE9251E-79DE-46AD-AD66-6379AD971F3A*
G04*
G04*
G04 #@! TF.FilePolarity,Negative*
G04*
G01*
G75*
%ADD14C,0.102*%
%ADD15C,0.025*%
%ADD16C,0.254*%
%ADD20R,0.965X1.041*%
%ADD21C,0.305*%
%ADD22R,0.711X0.711*%
%ADD23R,0.940X0.965*%
%ADD24R,0.965X0.940*%
%ADD25C,3.048*%
%ADD26C,1.346*%
%ADD27C,2.159*%
%ADD28C,0.864*%
%ADD29O,1.549X2.057*%
%ADD30O,1.219X1.753*%
%ADD31C,1.143*%
%ADD32C,5.664*%
%ADD33C,1.676*%
%ADD34R,1.676X1.676*%
%ADD35C,0.457*%
%ADD36C,0.406*%
%ADD37C,0.356*%
%ADD137R,1.956X2.845*%
%ADD138R,2.845X1.956*%
%ADD139R,1.753X1.448*%
%ADD140R,1.422X3.835*%
%ADD141R,3.835X1.422*%
%ADD142R,1.422X3.581*%
%ADD143R,3.581X1.422*%
%ADD144C,1.168*%
%ADD145R,2.565X1.168*%
%ADD146R,2.438X1.168*%
%ADD147R,0.787X1.295*%
%ADD148R,1.295X0.787*%
%ADD149R,1.168X1.956*%
%ADD150R,3.454X1.956*%
%ADD151R,1.956X3.454*%
%ADD152R,1.956X1.168*%
%ADD153R,0.559X0.940*%
%ADD154P,0.192X8X22.5*%
%ADD155R,1.930X0.711*%
%ADD156R,0.965X0.965*%
%ADD157O,0.965X0.432*%
%ADD158O,0.432X0.965*%
%ADD159R,4.267X4.267*%
%ADD160R,1.372X2.642*%
%ADD161R,2.159X2.642*%
%ADD162R,2.642X2.159*%
%ADD163R,1.676X1.168*%
%ADD164R,2.057X2.108*%
%ADD165R,3.658X1.753*%
%ADD166R,3.251X1.346*%
%ADD167R,1.753X0.965*%
%ADD168R,1.753X0.991*%
%ADD169R,3.581X1.549*%
%ADD170R,3.226X1.676*%
%ADD171R,0.559X1.499*%
%ADD172R,3.048X2.159*%
%ADD173R,2.159X2.667*%
%ADD174R,0.660X2.413*%
%ADD175R,0.432X1.499*%
%ADD176R,1.499X0.432*%
%ADD177R,1.270X1.651*%
%ADD178R,1.450X0.900*%
%ADD179R,4.100X5.100*%
%ADD180C,0.500*%
%ADD181R,0.965X0.457*%
%ADD182R,1.270X0.559*%
%ADD183R,2.159X2.337*%
%ADD184R,1.397X0.432*%
%ADD185R,1.295X0.965*%
%ADD186R,2.438X2.413*%
%ADD187R,2.900X1.450*%
%ADD188R,1.700X1.550*%
%ADD189C,0.559*%
%ADD190C,0.401*%
%ADD191R,2.692X1.321*%
%ADD192R,1.321X1.676*%
%ADD193R,1.676X1.321*%
%ADD194R,1.041X0.965*%
%ADD195R,1.550X1.700*%
G36*
X24638Y18034D02*
X23717D01*
X23209Y18542D01*
X23717Y19050D01*
X24638D01*
Y18034D01*
D02*
G37*
G36*
X23095Y18682D02*
X22953Y18540D01*
X23459Y18034D01*
X22098D01*
Y19050D01*
X23463D01*
X23095Y18682D01*
D02*
G37*
G36*
X33020Y16923D02*
X32652Y17291D01*
X32510Y17433D01*
X32004Y16927D01*
Y18288D01*
X33020D01*
Y16923D01*
D02*
G37*
G36*
Y16669D02*
Y15748D01*
X32004D01*
Y16669D01*
X32512Y17177D01*
X33020Y16669D01*
D02*
G37*
G36*
X39497Y14319D02*
X38989Y13811D01*
X38481Y14319D01*
Y15240D01*
X39497D01*
Y14319D01*
D02*
G37*
G36*
X38849Y13697D02*
X38991Y13555D01*
X39497Y14061D01*
Y12700D01*
X38481D01*
Y14065D01*
X38849Y13697D01*
D02*
G37*
G36*
X39497Y16923D02*
X39129Y17291D01*
X38987Y17433D01*
X38481Y16927D01*
Y18288D01*
X39497D01*
Y16923D01*
D02*
G37*
G36*
Y16669D02*
Y15748D01*
X38481D01*
Y16669D01*
X38989Y17177D01*
X39497Y16669D01*
D02*
G37*
G36*
X49657Y28543D02*
X49149Y28035D01*
X48641Y28543D01*
Y29464D01*
X49657D01*
Y28543D01*
D02*
G37*
G36*
X49009Y27921D02*
X49151Y27779D01*
X49657Y28285D01*
Y26924D01*
X48641D01*
Y28289D01*
X49009Y27921D01*
D02*
G37*
G36*
X56118Y40784D02*
X57018D01*
Y40384D01*
X56118D01*
Y40134D01*
X57018D01*
Y39734D01*
X56118D01*
Y39459D01*
X54118D01*
Y39734D01*
X53218D01*
Y40134D01*
X54118D01*
Y40384D01*
X53218D01*
Y40784D01*
X54118D01*
Y41059D01*
X56118D01*
Y40784D01*
D02*
G37*
G36*
X50546Y53118D02*
X50178Y53486D01*
X50036Y53628D01*
X49530Y53122D01*
Y54483D01*
X50546D01*
Y53118D01*
D02*
G37*
G36*
Y52864D02*
Y51943D01*
X49530D01*
Y52864D01*
X50038Y53372D01*
X50546Y52864D01*
D02*
G37*
G36*
X49403Y57404D02*
X48482D01*
X47974Y57912D01*
X48482Y58420D01*
X49403D01*
Y57404D01*
D02*
G37*
G36*
X47860Y58052D02*
X47718Y57910D01*
X48224Y57404D01*
X46863D01*
Y58420D01*
X48228D01*
X47860Y58052D01*
D02*
G37*
G36*
X49403Y55880D02*
X48482D01*
X47974Y56388D01*
X48482Y56896D01*
X49403D01*
Y55880D01*
D02*
G37*
G36*
X47860Y56528D02*
X47718Y56386D01*
X48224Y55880D01*
X46863D01*
Y56896D01*
X48228D01*
X47860Y56528D01*
D02*
G37*
G36*
X20066Y117856D02*
X18701D01*
X19069Y118224D01*
X19211Y118366D01*
X18705Y118872D01*
X20066D01*
Y117856D01*
D02*
G37*
G36*
X18955Y118364D02*
X18447Y117856D01*
X17526D01*
Y118872D01*
X18447D01*
X18955Y118364D01*
D02*
G37*
G36*
X20066Y116332D02*
X19145D01*
X18637Y116840D01*
X19145Y117348D01*
X20066D01*
Y116332D01*
D02*
G37*
G36*
X18523Y116980D02*
X18381Y116838D01*
X18887Y116332D01*
X17526D01*
Y117348D01*
X18891D01*
X18523Y116980D01*
D02*
G37*
G36*
X26289Y111982D02*
X25781Y111474D01*
X25273Y111982D01*
Y112903D01*
X26289D01*
Y111982D01*
D02*
G37*
G36*
X31369Y111411D02*
X31001Y111779D01*
X30859Y111921D01*
X30353Y111415D01*
Y112776D01*
X31369D01*
Y111411D01*
D02*
G37*
G36*
X25641Y111360D02*
X25783Y111218D01*
X26289Y111724D01*
Y110363D01*
X25273D01*
Y111728D01*
X25641Y111360D01*
D02*
G37*
G36*
X31369Y111157D02*
Y110236D01*
X30353D01*
Y111157D01*
X30861Y111665D01*
X31369Y111157D01*
D02*
G37*
G36*
X24257Y97885D02*
X23749Y97377D01*
X23241Y97885D01*
Y98806D01*
X24257D01*
Y97885D01*
D02*
G37*
G36*
X23609Y97263D02*
X23751Y97121D01*
X24257Y97627D01*
Y96266D01*
X23241D01*
Y97631D01*
X23609Y97263D01*
D02*
G37*
G36*
X12700Y80899D02*
X11335D01*
X11703Y81267D01*
X11845Y81409D01*
X11339Y81915D01*
X12700D01*
Y80899D01*
D02*
G37*
G36*
X11589Y81407D02*
X11081Y80899D01*
X10160D01*
Y81915D01*
X11081D01*
X11589Y81407D01*
D02*
G37*
G36*
X17907Y64008D02*
X16542D01*
X16910Y64376D01*
X17052Y64518D01*
X16546Y65024D01*
X17907D01*
Y64008D01*
D02*
G37*
G36*
X16796Y64516D02*
X16288Y64008D01*
X15367D01*
Y65024D01*
X16288D01*
X16796Y64516D01*
D02*
G37*
G36*
X49403Y60706D02*
X48482D01*
X47974Y61214D01*
X48482Y61722D01*
X49403D01*
Y60706D01*
D02*
G37*
G36*
X47860Y61354D02*
X47718Y61212D01*
X48224Y60706D01*
X46863D01*
Y61722D01*
X48228D01*
X47860Y61354D01*
D02*
G37*
G36*
X49403Y59055D02*
X48482D01*
X47974Y59563D01*
X48482Y60071D01*
X49403D01*
Y59055D01*
D02*
G37*
G36*
X47860Y59703D02*
X47718Y59561D01*
X48224Y59055D01*
X46863D01*
Y60071D01*
X48228D01*
X47860Y59703D01*
D02*
G37*
D14*
X97403Y-49145D02*
X97330Y-49217D01*
X97403Y-49290D01*
X97475Y-49217D01*
X97403Y-49145D01*
X98897Y-48129D02*
X98825Y-47984D01*
X98680Y-47839D01*
X98534Y-47766D01*
X98244D01*
X98099Y-47839D01*
X97954Y-47984D01*
X97881Y-48129D01*
X97809Y-48347D01*
Y-48710D01*
X97881Y-48927D01*
X97954Y-49072D01*
X98099Y-49217D01*
X98244Y-49290D01*
X98534D01*
X98680Y-49217D01*
X98825Y-49072D01*
X98897Y-48927D01*
Y-48710D01*
X98534D02*
X98897D01*
X99245Y-47766D02*
Y-49290D01*
Y-47766D02*
X99898D01*
X100116Y-47839D01*
X100189Y-47911D01*
X100261Y-48057D01*
Y-48202D01*
X100189Y-48347D01*
X100116Y-48419D01*
X99898Y-48492D01*
X99245D02*
X99898D01*
X100116Y-48564D01*
X100189Y-48637D01*
X100261Y-48782D01*
Y-49000D01*
X100189Y-49145D01*
X100116Y-49217D01*
X99898Y-49290D01*
X99245D01*
X101618Y-47984D02*
X101473Y-47839D01*
X101255Y-47766D01*
X100965D01*
X100747Y-47839D01*
X100602Y-47984D01*
Y-48129D01*
X100675Y-48274D01*
X100747Y-48347D01*
X100892Y-48419D01*
X101328Y-48564D01*
X101473Y-48637D01*
X101546Y-48710D01*
X101618Y-48855D01*
Y-49072D01*
X101473Y-49217D01*
X101255Y-49290D01*
X100965D01*
X100747Y-49217D01*
X100602Y-49072D01*
X55499Y-47752D02*
Y-49276D01*
Y-47752D02*
X56152D01*
X56370Y-47825D01*
X56442Y-47897D01*
X56515Y-48043D01*
Y-48188D01*
X56442Y-48333D01*
X56370Y-48405D01*
X56152Y-48478D01*
X55499D02*
X56152D01*
X56370Y-48550D01*
X56442Y-48623D01*
X56515Y-48768D01*
Y-48986D01*
X56442Y-49131D01*
X56370Y-49203D01*
X56152Y-49276D01*
X55499D01*
X57291Y-47752D02*
X57146Y-47825D01*
X57001Y-47970D01*
X56928Y-48115D01*
X56856Y-48333D01*
Y-48696D01*
X56928Y-48913D01*
X57001Y-49058D01*
X57146Y-49203D01*
X57291Y-49276D01*
X57581D01*
X57726Y-49203D01*
X57872Y-49058D01*
X57944Y-48913D01*
X58017Y-48696D01*
Y-48333D01*
X57944Y-48115D01*
X57872Y-47970D01*
X57726Y-47825D01*
X57581Y-47752D01*
X57291D01*
X58880D02*
Y-49276D01*
X58372Y-47752D02*
X59388D01*
X60077D02*
Y-49276D01*
X59569Y-47752D02*
X60585D01*
X61202D02*
X61057Y-47825D01*
X60912Y-47970D01*
X60839Y-48115D01*
X60767Y-48333D01*
Y-48696D01*
X60839Y-48913D01*
X60912Y-49058D01*
X61057Y-49203D01*
X61202Y-49276D01*
X61492D01*
X61637Y-49203D01*
X61782Y-49058D01*
X61855Y-48913D01*
X61927Y-48696D01*
Y-48333D01*
X61855Y-48115D01*
X61782Y-47970D01*
X61637Y-47825D01*
X61492Y-47752D01*
X61202D01*
X62283D02*
Y-49276D01*
Y-47752D02*
X62863Y-49276D01*
X63444Y-47752D02*
X62863Y-49276D01*
X63444Y-47752D02*
Y-49276D01*
X66092Y-47970D02*
X65947Y-47825D01*
X65729Y-47752D01*
X65439D01*
X65221Y-47825D01*
X65076Y-47970D01*
Y-48115D01*
X65149Y-48260D01*
X65221Y-48333D01*
X65367Y-48405D01*
X65802Y-48550D01*
X65947Y-48623D01*
X66020Y-48696D01*
X66092Y-48841D01*
Y-49058D01*
X65947Y-49203D01*
X65729Y-49276D01*
X65439D01*
X65221Y-49203D01*
X65076Y-49058D01*
X66869Y-47752D02*
X66723Y-47825D01*
X66578Y-47970D01*
X66506Y-48115D01*
X66433Y-48333D01*
Y-48696D01*
X66506Y-48913D01*
X66578Y-49058D01*
X66723Y-49203D01*
X66869Y-49276D01*
X67159D01*
X67304Y-49203D01*
X67449Y-49058D01*
X67522Y-48913D01*
X67594Y-48696D01*
Y-48333D01*
X67522Y-48115D01*
X67449Y-47970D01*
X67304Y-47825D01*
X67159Y-47752D01*
X66869D01*
X67950D02*
Y-49276D01*
X68820D01*
X68987Y-47752D02*
Y-49276D01*
Y-47752D02*
X69495D01*
X69713Y-47825D01*
X69858Y-47970D01*
X69930Y-48115D01*
X70003Y-48333D01*
Y-48696D01*
X69930Y-48913D01*
X69858Y-49058D01*
X69713Y-49203D01*
X69495Y-49276D01*
X68987D01*
X71287Y-47752D02*
X70344D01*
Y-49276D01*
X71287D01*
X70344Y-48478D02*
X70924D01*
X71541Y-47752D02*
Y-49276D01*
Y-47752D02*
X72194D01*
X72412Y-47825D01*
X72484Y-47897D01*
X72557Y-48043D01*
Y-48188D01*
X72484Y-48333D01*
X72412Y-48405D01*
X72194Y-48478D01*
X71541D01*
X72049D02*
X72557Y-49276D01*
X74095Y-47752D02*
Y-49276D01*
Y-47752D02*
X74676Y-49276D01*
X75256Y-47752D02*
X74676Y-49276D01*
X75256Y-47752D02*
Y-49276D01*
X76852D02*
X76272Y-47752D01*
X75691Y-49276D01*
X75909Y-48768D02*
X76635D01*
X78224Y-47970D02*
X78078Y-47825D01*
X77861Y-47752D01*
X77571D01*
X77353Y-47825D01*
X77208Y-47970D01*
Y-48115D01*
X77280Y-48260D01*
X77353Y-48333D01*
X77498Y-48405D01*
X77933Y-48550D01*
X78078Y-48623D01*
X78151Y-48696D01*
X78224Y-48841D01*
Y-49058D01*
X78078Y-49203D01*
X77861Y-49276D01*
X77571D01*
X77353Y-49203D01*
X77208Y-49058D01*
X78565Y-47752D02*
Y-49276D01*
X79580Y-47752D02*
X78565Y-48768D01*
X78927Y-48405D02*
X79580Y-49276D01*
D15*
X59746Y26797D02*
G03*
X60000Y27051I0J254D01*
G01*
X0Y29845D02*
G03*
X0Y41402I-25591J5779D01*
G01*
X60000Y16510D02*
G03*
X59746Y16764I-254J0D01*
G01*
X58713Y17018D02*
G03*
X58967Y16764I254J0D01*
G01*
Y26797D02*
G03*
X58713Y26543I0J-254D01*
G01*
X-90424Y-128016D02*
Y283464D01*
X458216D01*
Y-128016D02*
Y283464D01*
X-90424Y-128016D02*
X458216D01*
X183896Y275844D02*
Y283464D01*
Y-128016D02*
X188976Y-116586D01*
X178816D02*
X188976D01*
X178816D02*
X183896Y-128016D01*
Y-110236D01*
Y-121666D02*
X188976Y-116586D01*
X178816D02*
X183896Y-121666D01*
X450596Y176784D02*
X458216D01*
X450596Y77724D02*
X458216D01*
X450596Y-21336D02*
X458216D01*
X361696Y-128016D02*
Y-120396D01*
X272796Y-128016D02*
Y-120396D01*
X183896Y-128016D02*
Y-120396D01*
X94996Y-128016D02*
Y-120396D01*
X6096Y-128016D02*
Y-120396D01*
X361696Y275844D02*
Y283464D01*
X272796Y275844D02*
Y283464D01*
X94996Y275844D02*
Y283464D01*
X6096Y275844D02*
Y283464D01*
X-90424Y176784D02*
X-82804D01*
X-90424Y77724D02*
X-82804D01*
X-90424Y-21336D02*
X-82804D01*
X326136Y-120396D02*
X450596D01*
Y123444D01*
X-82804Y275844D02*
X450596D01*
Y82804D02*
Y275844D01*
Y123444D02*
Y219964D01*
X-82804Y-120396D02*
X326136D01*
X-82804D02*
Y275844D01*
X-90424Y-21336D02*
X-82804D01*
X450596Y77724D02*
X458216D01*
X361696Y275844D02*
Y283464D01*
X-90424Y176784D02*
X-82804D01*
X6096Y-128016D02*
Y-120396D01*
X450596Y-21336D02*
X458216D01*
X326136Y-120396D02*
X450596D01*
Y123444D01*
X-90424Y-128016D02*
Y283464D01*
X458216D01*
Y-128016D02*
Y283464D01*
X-90424Y-128016D02*
X458216D01*
X272796D02*
Y-120396D01*
X-82804D02*
Y275844D01*
X183896Y-128016D02*
Y-120396D01*
Y-121666D02*
X188976Y-116586D01*
X178816D02*
X183896Y-121666D01*
Y-128016D02*
X188976Y-116586D01*
X178816D02*
X188976D01*
X178816D02*
X183896Y-128016D01*
Y-110236D01*
X361696Y-128016D02*
Y-120396D01*
X-90424Y77724D02*
X-82804D01*
X272796Y275844D02*
Y283464D01*
X450596Y176784D02*
X458216D01*
X94996Y275844D02*
Y283464D01*
X183896Y275844D02*
Y283464D01*
X450596Y123444D02*
Y219964D01*
X-82804Y275844D02*
X450596D01*
Y82804D02*
Y275844D01*
X6096D02*
Y283464D01*
X-82804Y-120396D02*
X326136D01*
X94996Y-128016D02*
Y-120396D01*
X0Y41402D02*
Y127000D01*
X60000D01*
Y27051D02*
Y127000D01*
Y27051D02*
Y127000D01*
X0D02*
X60000D01*
X0Y41402D02*
Y127000D01*
Y0D02*
Y29845D01*
Y0D02*
X18917D01*
Y1785D01*
X19017Y1885D01*
X19667D01*
X19767Y1785D01*
Y0D02*
Y1785D01*
Y0D02*
X23667D01*
Y1785D01*
X23767Y1885D01*
X24417D01*
X24517Y1785D01*
Y0D02*
Y1785D01*
Y0D02*
X60000D01*
Y16510D01*
X58967Y16764D02*
X59746D01*
X58713Y17018D02*
Y26543D01*
X58967Y26797D02*
X59746D01*
X58967D02*
X59746D01*
D16*
X453136Y223265D02*
Y219964D01*
Y223265D02*
X454236D01*
X454708Y223108D01*
X455022Y222794D01*
X455180Y222479D01*
X455337Y222008D01*
Y221222D01*
X455180Y220750D01*
X455022Y220436D01*
X454708Y220121D01*
X454236Y219964D01*
X453136D01*
X455494Y123419D02*
X455337Y123734D01*
X455022Y124048D01*
X454708Y124205D01*
X454079D01*
X453765Y124048D01*
X453450Y123734D01*
X453293Y123419D01*
X453136Y122948D01*
Y122162D01*
X453293Y121690D01*
X453450Y121376D01*
X453765Y121061D01*
X454079Y120904D01*
X454708D01*
X455022Y121061D01*
X455337Y121376D01*
X455494Y121690D01*
X453136Y30225D02*
Y26924D01*
Y30225D02*
X454551D01*
X455022Y30068D01*
X455180Y29911D01*
X455337Y29596D01*
Y29282D01*
X455180Y28968D01*
X455022Y28810D01*
X454551Y28653D01*
X453136D02*
X454551D01*
X455022Y28496D01*
X455180Y28339D01*
X455337Y28024D01*
Y27553D01*
X455180Y27238D01*
X455022Y27081D01*
X454551Y26924D01*
X453136D01*
X455651Y-79756D02*
X454394Y-76455D01*
X453136Y-79756D01*
X453608Y-78656D02*
X455180D01*
X407416Y-122804D02*
X407730Y-122646D01*
X408202Y-122175D01*
Y-125476D01*
X318673Y-122961D02*
Y-122804D01*
X318830Y-122489D01*
X318988Y-122332D01*
X319302Y-122175D01*
X319931D01*
X320245Y-122332D01*
X320402Y-122489D01*
X320560Y-122804D01*
Y-123118D01*
X320402Y-123432D01*
X320088Y-123904D01*
X318516Y-125476D01*
X320717D01*
X229930Y-122175D02*
X231660D01*
X230716Y-123432D01*
X231188D01*
X231502Y-123590D01*
X231660Y-123747D01*
X231817Y-124218D01*
Y-124533D01*
X231660Y-125004D01*
X231345Y-125319D01*
X230874Y-125476D01*
X230402D01*
X229930Y-125319D01*
X229773Y-125162D01*
X229616Y-124847D01*
X142288Y-122175D02*
X140716Y-124376D01*
X143074D01*
X142288Y-122175D02*
Y-125476D01*
X53702Y-122175D02*
X52130D01*
X51973Y-123590D01*
X52130Y-123432D01*
X52602Y-123275D01*
X53074D01*
X53545Y-123432D01*
X53860Y-123747D01*
X54017Y-124218D01*
Y-124533D01*
X53860Y-125004D01*
X53545Y-125319D01*
X53074Y-125476D01*
X52602D01*
X52130Y-125319D01*
X51973Y-125162D01*
X51816Y-124847D01*
X-35198Y-122646D02*
X-35355Y-122332D01*
X-35826Y-122175D01*
X-36141D01*
X-36612Y-122332D01*
X-36927Y-122804D01*
X-37084Y-123590D01*
Y-124376D01*
X-36927Y-125004D01*
X-36612Y-125319D01*
X-36141Y-125476D01*
X-35984D01*
X-35512Y-125319D01*
X-35198Y-125004D01*
X-35040Y-124533D01*
Y-124376D01*
X-35198Y-123904D01*
X-35512Y-123590D01*
X-35984Y-123432D01*
X-36141D01*
X-36612Y-123590D01*
X-36927Y-123904D01*
X-37084Y-124376D01*
X407416Y281056D02*
X407730Y281214D01*
X408202Y281685D01*
Y278384D01*
X318673Y280899D02*
Y281056D01*
X318830Y281371D01*
X318988Y281528D01*
X319302Y281685D01*
X319931D01*
X320245Y281528D01*
X320402Y281371D01*
X320560Y281056D01*
Y280742D01*
X320402Y280428D01*
X320088Y279956D01*
X318516Y278384D01*
X320717D01*
X229930Y281685D02*
X231660D01*
X230716Y280428D01*
X231188D01*
X231502Y280270D01*
X231660Y280113D01*
X231817Y279642D01*
Y279327D01*
X231660Y278856D01*
X231345Y278541D01*
X230874Y278384D01*
X230402D01*
X229930Y278541D01*
X229773Y278698D01*
X229616Y279013D01*
X142288Y281685D02*
X140716Y279484D01*
X143074D01*
X142288Y281685D02*
Y278384D01*
X53702Y281685D02*
X52130D01*
X51973Y280270D01*
X52130Y280428D01*
X52602Y280585D01*
X53074D01*
X53545Y280428D01*
X53860Y280113D01*
X54017Y279642D01*
Y279327D01*
X53860Y278856D01*
X53545Y278541D01*
X53074Y278384D01*
X52602D01*
X52130Y278541D01*
X51973Y278698D01*
X51816Y279013D01*
X-35198Y281214D02*
X-35355Y281528D01*
X-35826Y281685D01*
X-36141D01*
X-36612Y281528D01*
X-36927Y281056D01*
X-37084Y280270D01*
Y279484D01*
X-36927Y278856D01*
X-36612Y278541D01*
X-36141Y278384D01*
X-35984D01*
X-35512Y278541D01*
X-35198Y278856D01*
X-35040Y279327D01*
Y279484D01*
X-35198Y279956D01*
X-35512Y280270D01*
X-35984Y280428D01*
X-36141D01*
X-36612Y280270D01*
X-36927Y279956D01*
X-37084Y279484D01*
X-85369Y-79756D02*
X-86626Y-76455D01*
X-87884Y-79756D01*
X-87412Y-78656D02*
X-85840D01*
X-87884Y30225D02*
Y26924D01*
Y30225D02*
X-86469D01*
X-85998Y30068D01*
X-85840Y29911D01*
X-85683Y29596D01*
Y29282D01*
X-85840Y28968D01*
X-85998Y28810D01*
X-86469Y28653D01*
X-87884D02*
X-86469D01*
X-85998Y28496D01*
X-85840Y28339D01*
X-85683Y28024D01*
Y27553D01*
X-85840Y27238D01*
X-85998Y27081D01*
X-86469Y26924D01*
X-87884D01*
X-85526Y123419D02*
X-85683Y123734D01*
X-85998Y124048D01*
X-86312Y124205D01*
X-86941D01*
X-87255Y124048D01*
X-87570Y123734D01*
X-87727Y123419D01*
X-87884Y122948D01*
Y122162D01*
X-87727Y121690D01*
X-87570Y121376D01*
X-87255Y121061D01*
X-86941Y120904D01*
X-86312D01*
X-85998Y121061D01*
X-85683Y121376D01*
X-85526Y121690D01*
X-87884Y223265D02*
Y219964D01*
Y223265D02*
X-86784D01*
X-86312Y223108D01*
X-85998Y222794D01*
X-85840Y222479D01*
X-85683Y222008D01*
Y221222D01*
X-85840Y220750D01*
X-85998Y220436D01*
X-86312Y220121D01*
X-86784Y219964D01*
X-87884D01*
X-85369Y-79756D02*
X-86626Y-76455D01*
X-87884Y-79756D01*
X-87412Y-78656D02*
X-85840D01*
X453136Y223265D02*
Y219964D01*
Y223265D02*
X454236D01*
X454708Y223108D01*
X455022Y222794D01*
X455180Y222479D01*
X455337Y222008D01*
Y221222D01*
X455180Y220750D01*
X455022Y220436D01*
X454708Y220121D01*
X454236Y219964D01*
X453136D01*
X-85526Y123419D02*
X-85683Y123734D01*
X-85998Y124048D01*
X-86312Y124205D01*
X-86941D01*
X-87255Y124048D01*
X-87570Y123734D01*
X-87727Y123419D01*
X-87884Y122948D01*
Y122162D01*
X-87727Y121690D01*
X-87570Y121376D01*
X-87255Y121061D01*
X-86941Y120904D01*
X-86312D01*
X-85998Y121061D01*
X-85683Y121376D01*
X-85526Y121690D01*
X407416Y281056D02*
X407730Y281214D01*
X408202Y281685D01*
Y278384D01*
X53702Y-122175D02*
X52130D01*
X51973Y-123590D01*
X52130Y-123432D01*
X52602Y-123275D01*
X53074D01*
X53545Y-123432D01*
X53860Y-123747D01*
X54017Y-124218D01*
Y-124533D01*
X53860Y-125004D01*
X53545Y-125319D01*
X53074Y-125476D01*
X52602D01*
X52130Y-125319D01*
X51973Y-125162D01*
X51816Y-124847D01*
X455494Y123419D02*
X455337Y123734D01*
X455022Y124048D01*
X454708Y124205D01*
X454079D01*
X453765Y124048D01*
X453450Y123734D01*
X453293Y123419D01*
X453136Y122948D01*
Y122162D01*
X453293Y121690D01*
X453450Y121376D01*
X453765Y121061D01*
X454079Y120904D01*
X454708D01*
X455022Y121061D01*
X455337Y121376D01*
X455494Y121690D01*
X142288Y-122175D02*
X140716Y-124376D01*
X143074D01*
X142288Y-122175D02*
Y-125476D01*
X318673Y280899D02*
Y281056D01*
X318830Y281371D01*
X318988Y281528D01*
X319302Y281685D01*
X319931D01*
X320245Y281528D01*
X320402Y281371D01*
X320560Y281056D01*
Y280742D01*
X320402Y280428D01*
X320088Y279956D01*
X318516Y278384D01*
X320717D01*
X-35198Y281214D02*
X-35355Y281528D01*
X-35826Y281685D01*
X-36141D01*
X-36612Y281528D01*
X-36927Y281056D01*
X-37084Y280270D01*
Y279484D01*
X-36927Y278856D01*
X-36612Y278541D01*
X-36141Y278384D01*
X-35984D01*
X-35512Y278541D01*
X-35198Y278856D01*
X-35040Y279327D01*
Y279484D01*
X-35198Y279956D01*
X-35512Y280270D01*
X-35984Y280428D01*
X-36141D01*
X-36612Y280270D01*
X-36927Y279956D01*
X-37084Y279484D01*
X-87884Y223265D02*
Y219964D01*
Y223265D02*
X-86784D01*
X-86312Y223108D01*
X-85998Y222794D01*
X-85840Y222479D01*
X-85683Y222008D01*
Y221222D01*
X-85840Y220750D01*
X-85998Y220436D01*
X-86312Y220121D01*
X-86784Y219964D01*
X-87884D01*
X53702Y281685D02*
X52130D01*
X51973Y280270D01*
X52130Y280428D01*
X52602Y280585D01*
X53074D01*
X53545Y280428D01*
X53860Y280113D01*
X54017Y279642D01*
Y279327D01*
X53860Y278856D01*
X53545Y278541D01*
X53074Y278384D01*
X52602D01*
X52130Y278541D01*
X51973Y278698D01*
X51816Y279013D01*
X-35198Y-122646D02*
X-35355Y-122332D01*
X-35826Y-122175D01*
X-36141D01*
X-36612Y-122332D01*
X-36927Y-122804D01*
X-37084Y-123590D01*
Y-124376D01*
X-36927Y-125004D01*
X-36612Y-125319D01*
X-36141Y-125476D01*
X-35984D01*
X-35512Y-125319D01*
X-35198Y-125004D01*
X-35040Y-124533D01*
Y-124376D01*
X-35198Y-123904D01*
X-35512Y-123590D01*
X-35984Y-123432D01*
X-36141D01*
X-36612Y-123590D01*
X-36927Y-123904D01*
X-37084Y-124376D01*
X229930Y-122175D02*
X231660D01*
X230716Y-123432D01*
X231188D01*
X231502Y-123590D01*
X231660Y-123747D01*
X231817Y-124218D01*
Y-124533D01*
X231660Y-125004D01*
X231345Y-125319D01*
X230874Y-125476D01*
X230402D01*
X229930Y-125319D01*
X229773Y-125162D01*
X229616Y-124847D01*
X453136Y30225D02*
Y26924D01*
Y30225D02*
X454551D01*
X455022Y30068D01*
X455180Y29911D01*
X455337Y29596D01*
Y29282D01*
X455180Y28968D01*
X455022Y28810D01*
X454551Y28653D01*
X453136D02*
X454551D01*
X455022Y28496D01*
X455180Y28339D01*
X455337Y28024D01*
Y27553D01*
X455180Y27238D01*
X455022Y27081D01*
X454551Y26924D01*
X453136D01*
X229930Y281685D02*
X231660D01*
X230716Y280428D01*
X231188D01*
X231502Y280270D01*
X231660Y280113D01*
X231817Y279642D01*
Y279327D01*
X231660Y278856D01*
X231345Y278541D01*
X230874Y278384D01*
X230402D01*
X229930Y278541D01*
X229773Y278698D01*
X229616Y279013D01*
X455651Y-79756D02*
X454394Y-76455D01*
X453136Y-79756D01*
X453608Y-78656D02*
X455180D01*
X-87884Y30225D02*
Y26924D01*
Y30225D02*
X-86469D01*
X-85998Y30068D01*
X-85840Y29911D01*
X-85683Y29596D01*
Y29282D01*
X-85840Y28968D01*
X-85998Y28810D01*
X-86469Y28653D01*
X-87884D02*
X-86469D01*
X-85998Y28496D01*
X-85840Y28339D01*
X-85683Y28024D01*
Y27553D01*
X-85840Y27238D01*
X-85998Y27081D01*
X-86469Y26924D01*
X-87884D01*
X407416Y-122804D02*
X407730Y-122646D01*
X408202Y-122175D01*
Y-125476D01*
X142288Y281685D02*
X140716Y279484D01*
X143074D01*
X142288Y281685D02*
Y278384D01*
X318673Y-122961D02*
Y-122804D01*
X318830Y-122489D01*
X318988Y-122332D01*
X319302Y-122175D01*
X319931D01*
X320245Y-122332D01*
X320402Y-122489D01*
X320560Y-122804D01*
Y-123118D01*
X320402Y-123432D01*
X320088Y-123904D01*
X318516Y-125476D01*
X320717D01*
D20*
X51308Y46736D02*
D03*
Y48260D02*
D03*
X11684Y90551D02*
D03*
Y92075D02*
D03*
X46736Y53975D02*
D03*
Y52451D02*
D03*
X48514Y53975D02*
D03*
Y52451D02*
D03*
X21971Y37592D02*
D03*
Y36068D02*
D03*
X22606Y112395D02*
D03*
Y110871D02*
D03*
X27686Y98298D02*
D03*
Y96774D02*
D03*
X20828Y91948D02*
D03*
Y90424D02*
D03*
X20955Y20066D02*
D03*
Y18542D02*
D03*
Y23114D02*
D03*
Y21590D02*
D03*
X15748Y91948D02*
D03*
Y90424D02*
D03*
X14351Y91948D02*
D03*
Y90424D02*
D03*
X36830Y66040D02*
D03*
Y64516D02*
D03*
X26162Y98298D02*
D03*
Y96774D02*
D03*
X15240Y80899D02*
D03*
Y79375D02*
D03*
X36703Y73279D02*
D03*
Y71755D02*
D03*
D21*
X19558Y118364D02*
D03*
X18034D02*
D03*
X24130Y18542D02*
D03*
X22606D02*
D03*
X30861Y110744D02*
D03*
Y112268D02*
D03*
X17399Y64516D02*
D03*
X15875D02*
D03*
X23749Y98298D02*
D03*
Y96774D02*
D03*
X47371Y61214D02*
D03*
X48895D02*
D03*
Y57912D02*
D03*
X47371D02*
D03*
X38989Y13208D02*
D03*
Y14732D02*
D03*
X50038Y52451D02*
D03*
Y53975D02*
D03*
X32512Y17780D02*
D03*
Y16256D02*
D03*
X49149Y28956D02*
D03*
Y27432D02*
D03*
X12192Y81407D02*
D03*
X10668D02*
D03*
X48895Y59563D02*
D03*
X47371D02*
D03*
Y56388D02*
D03*
X48895D02*
D03*
X38989Y16256D02*
D03*
Y17780D02*
D03*
X25781Y110871D02*
D03*
Y112395D02*
D03*
X19558Y116840D02*
D03*
X18034D02*
D03*
D22*
X15748Y94361D02*
D03*
Y93345D02*
D03*
X8636Y46355D02*
D03*
X9652D02*
D03*
X27305Y25273D02*
D03*
X26289D02*
D03*
X16129Y66294D02*
D03*
X17145D02*
D03*
X23876Y51562D02*
D03*
X22860D02*
D03*
X27305Y26543D02*
D03*
X26289D02*
D03*
X34036Y37084D02*
D03*
Y36068D02*
D03*
X20574Y37084D02*
D03*
Y36068D02*
D03*
X24892Y33655D02*
D03*
X25908D02*
D03*
X28829Y37084D02*
D03*
Y36068D02*
D03*
X38735Y37084D02*
D03*
Y36068D02*
D03*
X27305Y19054D02*
D03*
X26289D02*
D03*
X27305Y24003D02*
D03*
X26289D02*
D03*
X27559Y56642D02*
D03*
X26543D02*
D03*
X30861Y62611D02*
D03*
Y61595D02*
D03*
X27559Y57912D02*
D03*
X26543D02*
D03*
X27559Y53975D02*
D03*
X26543D02*
D03*
X42545Y49530D02*
D03*
Y48514D02*
D03*
X45974Y57658D02*
D03*
X44958D02*
D03*
X34925Y72771D02*
D03*
Y71755D02*
D03*
X11430Y86868D02*
D03*
X10414D02*
D03*
X11430Y85344D02*
D03*
X10414D02*
D03*
X49149Y43434D02*
D03*
X48133D02*
D03*
X50419Y17653D02*
D03*
X49403D02*
D03*
X48260Y51054D02*
D03*
X47244D02*
D03*
X23876Y52705D02*
D03*
X22860D02*
D03*
X21336Y46355D02*
D03*
X20320D02*
D03*
X58166Y108458D02*
D03*
Y107442D02*
D03*
X16510Y80899D02*
D03*
Y79883D02*
D03*
X17018Y91821D02*
D03*
Y90805D02*
D03*
X13081Y91821D02*
D03*
Y90805D02*
D03*
X25019Y98044D02*
D03*
Y97028D02*
D03*
X48641Y93599D02*
D03*
Y92583D02*
D03*
X35052Y64389D02*
D03*
X34036D02*
D03*
X31623Y98044D02*
D03*
Y97028D02*
D03*
X32258Y102489D02*
D03*
Y101473D02*
D03*
X29591Y110744D02*
D03*
X28575D02*
D03*
X19812Y107696D02*
D03*
X18796D02*
D03*
X40513Y62611D02*
D03*
Y61595D02*
D03*
X39116Y49530D02*
D03*
Y48514D02*
D03*
X37592Y62611D02*
D03*
Y61595D02*
D03*
X45974Y56515D02*
D03*
X44958D02*
D03*
X33528Y49530D02*
D03*
X32512D02*
D03*
X34163Y62611D02*
D03*
Y61595D02*
D03*
X39370Y62611D02*
D03*
Y61595D02*
D03*
X32639Y62611D02*
D03*
Y61595D02*
D03*
X36449Y37084D02*
D03*
Y36068D02*
D03*
X27305Y20320D02*
D03*
X26289D02*
D03*
X30353Y37084D02*
D03*
Y36068D02*
D03*
X27305Y21590D02*
D03*
X26289D02*
D03*
X41402Y37084D02*
D03*
Y36068D02*
D03*
X49022Y24892D02*
D03*
Y25908D02*
D03*
X27305Y22733D02*
D03*
X26289D02*
D03*
X31369Y37084D02*
D03*
Y36068D02*
D03*
X44069Y37084D02*
D03*
Y36068D02*
D03*
X24892Y35179D02*
D03*
X25908D02*
D03*
X14986Y118364D02*
D03*
Y117348D02*
D03*
X56642Y97409D02*
D03*
Y96393D02*
D03*
X29718Y14351D02*
D03*
Y13335D02*
D03*
X20701Y34290D02*
D03*
Y33274D02*
D03*
X30480Y98044D02*
D03*
Y97028D02*
D03*
X39370Y94488D02*
D03*
Y93472D02*
D03*
X27305Y116840D02*
D03*
X26289D02*
D03*
X13081Y12700D02*
D03*
Y11684D02*
D03*
X14351Y94361D02*
D03*
Y93345D02*
D03*
D23*
X57531Y115316D02*
D03*
X56007D02*
D03*
X20320Y109601D02*
D03*
X18796D02*
D03*
X24130Y24892D02*
D03*
X22606D02*
D03*
X7620Y108458D02*
D03*
X6096D02*
D03*
X20701Y9017D02*
D03*
X19177D02*
D03*
X23622D02*
D03*
X22098D02*
D03*
X12192Y80010D02*
D03*
X10668D02*
D03*
X44704Y90424D02*
D03*
X43180D02*
D03*
X19939Y105664D02*
D03*
X18415D02*
D03*
X39497Y117475D02*
D03*
X37973D02*
D03*
X18796Y34163D02*
D03*
X17272D02*
D03*
X18796Y32893D02*
D03*
X17272D02*
D03*
X50292Y95758D02*
D03*
X48768D02*
D03*
X24130Y21590D02*
D03*
X22606D02*
D03*
X24130Y20066D02*
D03*
X22606D02*
D03*
X18796Y38227D02*
D03*
X17272D02*
D03*
X18796Y35560D02*
D03*
X17272D02*
D03*
X6477Y44958D02*
D03*
X4953D02*
D03*
X18796Y41148D02*
D03*
X17272D02*
D03*
X19431Y115443D02*
D03*
X17907D02*
D03*
X18796Y39751D02*
D03*
X17272D02*
D03*
X4064Y108458D02*
D03*
X2540D02*
D03*
X43815Y117475D02*
D03*
X42291D02*
D03*
X18796Y36830D02*
D03*
X17272D02*
D03*
D24*
X28956Y113919D02*
D03*
Y115443D02*
D03*
X10033Y13259D02*
D03*
Y11735D02*
D03*
X47498Y40894D02*
D03*
Y39370D02*
D03*
X42418Y17780D02*
D03*
Y16256D02*
D03*
X21971Y34417D02*
D03*
Y32893D02*
D03*
X54229Y112268D02*
D03*
Y110744D02*
D03*
X11557Y10160D02*
D03*
Y8636D02*
D03*
Y13259D02*
D03*
Y11735D02*
D03*
X10287Y92202D02*
D03*
Y90678D02*
D03*
X54229Y115316D02*
D03*
Y113792D02*
D03*
X26289Y115443D02*
D03*
Y113919D02*
D03*
X31115Y17780D02*
D03*
Y16256D02*
D03*
X20955Y80772D02*
D03*
Y79248D02*
D03*
X24892Y7747D02*
D03*
Y6223D02*
D03*
X8509Y10160D02*
D03*
Y8636D02*
D03*
X27686Y12700D02*
D03*
Y11176D02*
D03*
X32258Y105410D02*
D03*
Y103886D02*
D03*
X22479Y98298D02*
D03*
Y96774D02*
D03*
X54356Y44958D02*
D03*
Y43434D02*
D03*
X29591Y17780D02*
D03*
Y16256D02*
D03*
X21209Y98298D02*
D03*
Y96774D02*
D03*
X51689Y36576D02*
D03*
Y35052D02*
D03*
X23876Y112395D02*
D03*
Y110871D02*
D03*
X20828Y12700D02*
D03*
Y11176D02*
D03*
X36068Y17780D02*
D03*
Y16256D02*
D03*
X33782Y17780D02*
D03*
Y16256D02*
D03*
X19558Y80772D02*
D03*
Y79248D02*
D03*
X18161Y80772D02*
D03*
Y79248D02*
D03*
X10033Y10160D02*
D03*
Y8636D02*
D03*
X19304Y12700D02*
D03*
Y11176D02*
D03*
X32258Y108458D02*
D03*
Y106934D02*
D03*
X18669Y98298D02*
D03*
Y96774D02*
D03*
X19939Y98298D02*
D03*
Y96774D02*
D03*
X53213Y36576D02*
D03*
Y35052D02*
D03*
X53594Y97663D02*
D03*
Y96139D02*
D03*
X32131Y112268D02*
D03*
Y110744D02*
D03*
X56388Y44958D02*
D03*
Y43434D02*
D03*
X54737Y36576D02*
D03*
Y35052D02*
D03*
X16129Y113792D02*
D03*
Y112268D02*
D03*
X14478Y113792D02*
D03*
Y112268D02*
D03*
X31115Y14478D02*
D03*
Y12954D02*
D03*
X24892Y115443D02*
D03*
Y113919D02*
D03*
X30226Y115443D02*
D03*
Y113919D02*
D03*
X27686Y115443D02*
D03*
Y113919D02*
D03*
X16510Y118364D02*
D03*
Y116840D02*
D03*
X29210Y98298D02*
D03*
Y96774D02*
D03*
D25*
X54610Y9271D02*
D03*
X54356Y118110D02*
D03*
X6604Y118491D02*
D03*
D26*
X7620Y16510D02*
D03*
Y21590D02*
D03*
D27*
X4953Y102108D02*
D03*
X11953D02*
D03*
D28*
X9271Y31242D02*
D03*
Y38792D02*
D03*
D29*
X25867Y1280D02*
D03*
X17567D02*
D03*
D30*
X19442Y4460D02*
D03*
X23992D02*
D03*
D31*
X29118Y122151D02*
D03*
X33518D02*
D03*
D32*
X4191Y4191D02*
D03*
Y122809D02*
D03*
X55809D02*
D03*
Y4191D02*
D03*
D33*
X31496Y84836D02*
D03*
X34036D02*
D03*
Y87376D02*
D03*
X36576D02*
D03*
D34*
X31496D02*
D03*
D35*
X25273Y31509D02*
D03*
X25019Y96012D02*
D03*
X24912Y99207D02*
D03*
X24663Y113081D02*
D03*
X24384Y38354D02*
D03*
X24130Y35179D02*
D03*
X24003Y82550D02*
D03*
Y81788D02*
D03*
Y80899D02*
D03*
Y33528D02*
D03*
X23931Y125802D02*
D03*
X23876Y50800D02*
D03*
X23749Y95631D02*
D03*
Y53696D02*
D03*
X23470Y11570D02*
D03*
X23368Y47879D02*
D03*
Y35179D02*
D03*
X23290Y84709D02*
D03*
X23114Y82550D02*
D03*
Y80899D02*
D03*
X23109Y81765D02*
D03*
X23017Y5334D02*
D03*
X22860Y8280D02*
D03*
Y53721D02*
D03*
Y31496D02*
D03*
X22479Y95885D02*
D03*
Y86360D02*
D03*
X22339Y32017D02*
D03*
X22174Y46736D02*
D03*
X22098Y51562D02*
D03*
Y50241D02*
D03*
Y49276D02*
D03*
X21565Y27813D02*
D03*
X21336Y111125D02*
D03*
X21209Y95885D02*
D03*
Y45644D02*
D03*
X21125Y113919D02*
D03*
X21082Y94996D02*
D03*
X20955Y124968D02*
D03*
X20828Y93091D02*
D03*
X20701Y106934D02*
D03*
X20447Y7620D02*
D03*
X20320Y24257D02*
D03*
X20193Y10033D02*
D03*
X20066Y11938D02*
D03*
Y73914D02*
D03*
Y73152D02*
D03*
X20041Y19202D02*
D03*
X19990Y112446D02*
D03*
X19964Y22301D02*
D03*
X19939Y34290D02*
D03*
X19788Y35790D02*
D03*
X19558Y78232D02*
D03*
X19431Y114427D02*
D03*
X19329Y108509D02*
D03*
X19177Y73914D02*
D03*
Y73152D02*
D03*
X18669Y94869D02*
D03*
X18415Y106553D02*
D03*
X18288Y124968D02*
D03*
Y8070D02*
D03*
Y7211D02*
D03*
X18161Y78232D02*
D03*
X18148Y44536D02*
D03*
X18136Y41986D02*
D03*
X18059Y34874D02*
D03*
X18058Y39083D02*
D03*
X18057Y40482D02*
D03*
X18034Y37465D02*
D03*
X17932Y103581D02*
D03*
X17907Y107696D02*
D03*
Y66294D02*
D03*
X17729Y93218D02*
D03*
Y90932D02*
D03*
X17379Y81808D02*
D03*
X17272Y11227D02*
D03*
X17018Y92837D02*
D03*
X16969Y89388D02*
D03*
X16764Y96774D02*
D03*
X16612Y32029D02*
D03*
X16510Y78842D02*
D03*
X16434Y20980D02*
D03*
X16383Y24765D02*
D03*
Y11227D02*
D03*
X15748Y95377D02*
D03*
X15723Y117678D02*
D03*
X15561Y77038D02*
D03*
X15367Y123546D02*
D03*
X15291Y76352D02*
D03*
X15037Y22860D02*
D03*
X14931Y125802D02*
D03*
X14920Y11049D02*
D03*
X14735Y77035D02*
D03*
X14478Y111125D02*
D03*
Y78613D02*
D03*
X14402Y76378D02*
D03*
X14351Y95377D02*
D03*
X14224Y65913D02*
D03*
Y65151D02*
D03*
X14199Y64389D02*
D03*
X14122Y117348D02*
D03*
X13970Y8636D02*
D03*
X13939Y77000D02*
D03*
X13843Y79629D02*
D03*
X13589Y5715D02*
D03*
Y4953D02*
D03*
X13462Y65913D02*
D03*
Y65151D02*
D03*
Y64389D02*
D03*
Y41275D02*
D03*
X13208Y120269D02*
D03*
X13081Y124841D02*
D03*
Y92837D02*
D03*
Y79121D02*
D03*
Y38217D02*
D03*
Y36017D02*
D03*
X12954Y122301D02*
D03*
X12827Y89916D02*
D03*
Y5715D02*
D03*
Y4953D02*
D03*
X12370Y76378D02*
D03*
X12319Y12446D02*
D03*
X12192Y120117D02*
D03*
X11989Y77013D02*
D03*
X11811Y125984D02*
D03*
Y95123D02*
D03*
X11608Y76378D02*
D03*
X11430Y84582D02*
D03*
X11422Y87681D02*
D03*
X11100Y77013D02*
D03*
X10795Y120117D02*
D03*
X10719Y76378D02*
D03*
X10541Y20320D02*
D03*
X10414Y1905D02*
D03*
Y84582D02*
D03*
Y2794D02*
D03*
X10160Y123825D02*
D03*
Y50139D02*
D03*
X10097Y111062D02*
D03*
X10084Y41275D02*
D03*
X9652Y1905D02*
D03*
Y2794D02*
D03*
X9601Y86868D02*
D03*
X9271Y123190D02*
D03*
X9169Y88519D02*
D03*
X8636Y45466D02*
D03*
X8534Y44628D02*
D03*
X8255Y14478D02*
D03*
X7620Y109601D02*
D03*
X7493Y80416D02*
D03*
X7366Y10414D02*
D03*
X6731Y69342D02*
D03*
X5994Y86995D02*
D03*
X59182Y107442D02*
D03*
X58801Y102362D02*
D03*
X58699Y110767D02*
D03*
X58674Y83820D02*
D03*
X58420Y109347D02*
D03*
Y78486D02*
D03*
X56642Y94996D02*
D03*
Y28067D02*
D03*
X56226Y22317D02*
D03*
Y21117D02*
D03*
Y19917D02*
D03*
Y18117D02*
D03*
X55499Y29464D02*
D03*
X54102Y23517D02*
D03*
Y70231D02*
D03*
X53594Y93345D02*
D03*
X5334Y74397D02*
D03*
X53086Y19431D02*
D03*
Y110744D02*
D03*
X52705Y29591D02*
D03*
X52426Y35839D02*
D03*
X51584Y4318D02*
D03*
X51460Y96215D02*
D03*
X51232Y24765D02*
D03*
X50648Y25730D02*
D03*
X50546Y22860D02*
D03*
Y124079D02*
D03*
Y122174D02*
D03*
Y120015D02*
D03*
X50419Y18669D02*
D03*
X50215Y72771D02*
D03*
X50038Y55347D02*
D03*
X49809Y4369D02*
D03*
X49759Y6807D02*
D03*
X49530Y94361D02*
D03*
Y93599D02*
D03*
Y92583D02*
D03*
X49403Y18644D02*
D03*
X49022Y70993D02*
D03*
Y70104D02*
D03*
X48743Y30886D02*
D03*
X48641Y3683D02*
D03*
X48387Y75565D02*
D03*
Y74803D02*
D03*
X48133Y117475D02*
D03*
Y70993D02*
D03*
Y70104D02*
D03*
X48108Y5613D02*
D03*
X47955Y23368D02*
D03*
X47879Y19050D02*
D03*
X47752Y17069D02*
D03*
Y89637D02*
D03*
X47625Y16256D02*
D03*
Y75565D02*
D03*
Y74803D02*
D03*
X47473Y38481D02*
D03*
X47244Y70993D02*
D03*
Y70104D02*
D03*
X47168Y23343D02*
D03*
X47117Y36271D02*
D03*
X46736Y54991D02*
D03*
X45974Y58547D02*
D03*
Y55753D02*
D03*
X45923Y32334D02*
D03*
X45720Y89611D02*
D03*
X45568Y54051D02*
D03*
X45212Y58547D02*
D03*
X44958Y55753D02*
D03*
X44907Y17551D02*
D03*
X44069Y37795D02*
D03*
X4381Y111062D02*
D03*
X43586Y48514D02*
D03*
X43561Y49530D02*
D03*
X43180Y95758D02*
D03*
X41402Y37795D02*
D03*
X41300Y61595D02*
D03*
X41148Y117856D02*
D03*
X4064Y109474D02*
D03*
X40513Y117475D02*
D03*
Y63627D02*
D03*
X39624Y72390D02*
D03*
X38735Y37846D02*
D03*
X38608Y118453D02*
D03*
X38557Y61595D02*
D03*
X38456Y62611D02*
D03*
X38303Y48514D02*
D03*
X38252Y49555D02*
D03*
X37719Y73279D02*
D03*
X36830Y63627D02*
D03*
X36703Y61595D02*
D03*
X36678Y62611D02*
D03*
X36449Y37846D02*
D03*
X36068Y15113D02*
D03*
X35814Y72771D02*
D03*
Y69215D02*
D03*
Y63881D02*
D03*
X35052Y63627D02*
D03*
Y62611D02*
D03*
Y61595D02*
D03*
X34519Y49733D02*
D03*
X34493Y48666D02*
D03*
X34036Y63627D02*
D03*
X33655Y66929D02*
D03*
X33401Y61574D02*
D03*
X33350Y62636D02*
D03*
X33325Y14910D02*
D03*
X33249Y37156D02*
D03*
X33020Y106172D02*
D03*
Y101854D02*
D03*
X32918Y120752D02*
D03*
X32893Y103124D02*
D03*
X32639Y124968D02*
D03*
X32512Y18796D02*
D03*
X32080Y37171D02*
D03*
X31877Y116840D02*
D03*
X31623Y99314D02*
D03*
Y96012D02*
D03*
Y62636D02*
D03*
Y61595D02*
D03*
X31369Y109220D02*
D03*
X31242Y5588D02*
D03*
X31115Y113411D02*
D03*
X30480Y96266D02*
D03*
X30353Y12192D02*
D03*
X29718Y111506D02*
D03*
Y10338D02*
D03*
Y840D02*
D03*
X29591Y15367D02*
D03*
Y12192D02*
D03*
Y37084D02*
D03*
X29337Y84455D02*
D03*
Y83693D02*
D03*
X29312Y95834D02*
D03*
X29007Y91846D02*
D03*
X28829Y111506D02*
D03*
X28575Y84455D02*
D03*
Y83693D02*
D03*
Y6858D02*
D03*
Y4318D02*
D03*
X28461Y14605D02*
D03*
X28412Y107986D02*
D03*
X28194Y9957D02*
D03*
Y2540D02*
D03*
X28016Y18339D02*
D03*
X27813Y84455D02*
D03*
Y83693D02*
D03*
X27737Y55651D02*
D03*
X27686Y95758D02*
D03*
X27559Y58674D02*
D03*
Y52832D02*
D03*
X27102Y5715D02*
D03*
X27068Y117619D02*
D03*
X26924Y91821D02*
D03*
X26543Y58674D02*
D03*
Y52832D02*
D03*
X26162Y95758D02*
D03*
X25654Y56642D02*
D03*
X25603Y18136D02*
D03*
X25531Y21590D02*
D03*
Y20320D02*
D03*
Y26543D02*
D03*
X25527Y25260D02*
D03*
Y24105D02*
D03*
Y22860D02*
D03*
X25502Y19054D02*
D03*
X25446Y119426D02*
D03*
X25412Y102096D02*
D03*
X25400Y124968D02*
D03*
D36*
X25150Y30289D02*
D03*
X25146Y29654D02*
D03*
X24954Y28257D02*
D03*
X24912Y108184D02*
D03*
X24765Y112395D02*
D03*
X24320Y114681D02*
D03*
X24232Y29604D02*
D03*
X24130Y23851D02*
D03*
Y17297D02*
D03*
X23876Y102108D02*
D03*
Y6858D02*
D03*
X23749Y44450D02*
D03*
X2375Y52451D02*
D03*
Y51689D02*
D03*
X23622Y45339D02*
D03*
X23153Y102152D02*
D03*
X23139Y7595D02*
D03*
X22606Y17272D02*
D03*
X22454Y42037D02*
D03*
X21768Y38684D02*
D03*
X21730Y10163D02*
D03*
X21717Y110236D02*
D03*
X21641Y29642D02*
D03*
X21387Y42012D02*
D03*
X21336Y41199D02*
D03*
X21285Y112395D02*
D03*
X21209Y30607D02*
D03*
X21069Y10147D02*
D03*
X20574Y37795D02*
D03*
X20523Y38456D02*
D03*
X20475Y103152D02*
D03*
X20472Y41961D02*
D03*
X20447Y115976D02*
D03*
X19939Y50139D02*
D03*
X19875Y47599D02*
D03*
X19851Y48869D02*
D03*
X18898Y119634D02*
D03*
X18796Y30861D02*
D03*
Y30226D02*
D03*
X18288Y104652D02*
D03*
X18161Y12497D02*
D03*
X17780Y87249D02*
D03*
Y85598D02*
D03*
Y83947D02*
D03*
X17145Y56134D02*
D03*
X17018Y115951D02*
D03*
X16510Y13589D02*
D03*
X16129Y124587D02*
D03*
Y111125D02*
D03*
Y87249D02*
D03*
Y85598D02*
D03*
Y83947D02*
D03*
X15240Y81788D02*
D03*
X14605Y85598D02*
D03*
X14478Y87249D02*
D03*
Y83947D02*
D03*
X13970Y14986D02*
D03*
X13462Y32639D02*
D03*
X13437Y33274D02*
D03*
X13335Y34036D02*
D03*
X13144Y81534D02*
D03*
X12929Y38961D02*
D03*
X12319Y11049D02*
D03*
Y83348D02*
D03*
X12294Y39014D02*
D03*
X12065Y34798D02*
D03*
X12040Y34036D02*
D03*
X11811Y93218D02*
D03*
X11557Y64389D02*
D03*
X11049Y83160D02*
D03*
X10795Y65405D02*
D03*
X10541Y119253D02*
D03*
X10312Y46329D02*
D03*
X10288Y47600D02*
D03*
X10287Y58293D02*
D03*
Y48869D02*
D03*
X9754Y79629D02*
D03*
X9601Y91516D02*
D03*
X9093Y83363D02*
D03*
Y82169D02*
D03*
X8763Y65151D02*
D03*
X8407Y82118D02*
D03*
X8382Y56261D02*
D03*
Y55626D02*
D03*
X8001Y77216D02*
D03*
X7899Y61519D02*
D03*
Y60833D02*
D03*
X7874Y76581D02*
D03*
X7798Y92075D02*
D03*
X7747Y85598D02*
D03*
Y75565D02*
D03*
X7722Y86233D02*
D03*
X7620Y73000D02*
D03*
X7556Y93345D02*
D03*
Y63881D02*
D03*
X6960Y60909D02*
D03*
X6350Y82677D02*
D03*
X57277Y43434D02*
D03*
X56896Y98552D02*
D03*
X56642Y94107D02*
D03*
X56515Y92964D02*
D03*
X56261Y19050D02*
D03*
Y47752D02*
D03*
X56134Y24892D02*
D03*
Y24117D02*
D03*
X54381Y61189D02*
D03*
X54229Y46101D02*
D03*
X54102Y54991D02*
D03*
Y35750D02*
D03*
X53975Y57531D02*
D03*
Y31242D02*
D03*
X53848Y80899D02*
D03*
Y80010D02*
D03*
Y79248D02*
D03*
X53594Y92456D02*
D03*
X53569Y46101D02*
D03*
X53543Y45466D02*
D03*
X53349Y20847D02*
D03*
Y20186D02*
D03*
X53340Y62611D02*
D03*
X53197Y23247D02*
D03*
Y22586D02*
D03*
X52832Y70231D02*
D03*
X52388Y61468D02*
D03*
X51308Y18669D02*
D03*
X51181Y8255D02*
D03*
X51054Y35750D02*
D03*
X51052Y22047D02*
D03*
Y21387D02*
D03*
X50292Y58801D02*
D03*
X4953Y70612D02*
D03*
Y67691D02*
D03*
X49403Y117729D02*
D03*
X49085Y85661D02*
D03*
X48387Y40640D02*
D03*
Y37465D02*
D03*
X48063Y14789D02*
D03*
X47676Y55220D02*
D03*
X47625Y62865D02*
D03*
X47269Y43891D02*
D03*
Y43028D02*
D03*
X47117Y5461D02*
D03*
X47015Y45288D02*
D03*
X4699Y58674D02*
D03*
X46431Y30607D02*
D03*
X46355Y5461D02*
D03*
X46203Y25679D02*
D03*
X46076Y33299D02*
D03*
X45974Y40513D02*
D03*
Y39497D02*
D03*
X45085Y60198D02*
D03*
X44958Y40513D02*
D03*
X44933Y39624D02*
D03*
X44856Y11659D02*
D03*
X44831Y18974D02*
D03*
X44298Y16282D02*
D03*
X44069Y35306D02*
D03*
X43332Y39141D02*
D03*
X43231Y11811D02*
D03*
X43180Y10795D02*
D03*
X43053Y14732D02*
D03*
X42545Y5461D02*
D03*
X42418Y14986D02*
D03*
X42393Y38964D02*
D03*
X42367Y41021D02*
D03*
Y40335D02*
D03*
X42291Y19583D02*
D03*
X41859Y20447D02*
D03*
X41783Y14351D02*
D03*
X41402Y38532D02*
D03*
Y35306D02*
D03*
X40615Y16053D02*
D03*
X40589Y15392D02*
D03*
X39878Y11303D02*
D03*
Y5461D02*
D03*
X39370Y95250D02*
D03*
Y40996D02*
D03*
X39116Y19431D02*
D03*
X38735Y35306D02*
D03*
X38481Y93218D02*
D03*
Y92456D02*
D03*
X38227Y41986D02*
D03*
Y41021D02*
D03*
X37973Y71755D02*
D03*
X37363Y18758D02*
D03*
Y15621D02*
D03*
X37338Y10490D02*
D03*
Y5588D02*
D03*
X37211Y41046D02*
D03*
X37186Y42037D02*
D03*
X36449Y35306D02*
D03*
X36170Y40919D02*
D03*
X36144Y39192D02*
D03*
X36119Y14326D02*
D03*
X3556Y53594D02*
D03*
X35433Y76327D02*
D03*
X35128Y10795D02*
D03*
X34823Y5563D02*
D03*
X34722Y40919D02*
D03*
X34569Y39167D02*
D03*
X34493Y18542D02*
D03*
X34290Y14859D02*
D03*
Y14148D02*
D03*
X33884Y18771D02*
D03*
X33274Y76327D02*
D03*
Y36068D02*
D03*
X32588Y38823D02*
D03*
X32258Y5639D02*
D03*
X32105Y36067D02*
D03*
X31877Y80391D02*
D03*
Y76454D02*
D03*
X31750Y18796D02*
D03*
X31572Y41783D02*
D03*
X31550Y41123D02*
D03*
X31115Y18796D02*
D03*
Y38799D02*
D03*
X30988Y914D02*
D03*
X30937Y6629D02*
D03*
X29591Y114681D02*
D03*
Y36068D02*
D03*
X29489Y41402D02*
D03*
X29362Y107925D02*
D03*
Y107152D02*
D03*
X28981Y39040D02*
D03*
X28321Y107188D02*
D03*
X28118Y25273D02*
D03*
Y24003D02*
D03*
Y21590D02*
D03*
Y19054D02*
D03*
Y26543D02*
D03*
X28092Y22936D02*
D03*
X28067Y117602D02*
D03*
X27991Y20320D02*
D03*
X27813Y7544D02*
D03*
X27483Y39040D02*
D03*
X27457Y40945D02*
D03*
X26924Y7544D02*
D03*
X26619Y40843D02*
D03*
X26035Y8509D02*
D03*
Y7874D02*
D03*
X25933Y43155D02*
D03*
X25912Y108081D02*
D03*
X25832Y30328D02*
D03*
X25527Y114681D02*
D03*
X25479Y27900D02*
D03*
X25451Y116357D02*
D03*
X25425Y38329D02*
D03*
D37*
X46863Y20828D02*
D03*
X46736Y21463D02*
D03*
X44399Y26060D02*
D03*
X44221Y24982D02*
D03*
X44145Y31267D02*
D03*
X44069Y29718D02*
D03*
X43853Y26061D02*
D03*
X43683Y24982D02*
D03*
X43180Y52959D02*
D03*
X43155Y53569D02*
D03*
X43078Y25019D02*
D03*
X42955Y30710D02*
D03*
X42582Y23851D02*
D03*
Y23051D02*
D03*
X42582Y22223D02*
D03*
X42545Y58776D02*
D03*
X42520Y25121D02*
D03*
X42426Y33028D02*
D03*
Y29028D02*
D03*
X42393Y29871D02*
D03*
X42172Y53649D02*
D03*
X42113Y59360D02*
D03*
X41732Y54737D02*
D03*
X41626Y33028D02*
D03*
Y29828D02*
D03*
Y29028D02*
D03*
Y27428D02*
D03*
X41372Y58403D02*
D03*
Y53649D02*
D03*
X40995Y59359D02*
D03*
X40869Y25874D02*
D03*
X40826Y24274D02*
D03*
Y23474D02*
D03*
Y33028D02*
D03*
Y32228D02*
D03*
Y30628D02*
D03*
Y29028D02*
D03*
Y28228D02*
D03*
X40640Y57658D02*
D03*
X40589Y53645D02*
D03*
X40572Y58403D02*
D03*
Y52049D02*
D03*
X40056Y27444D02*
D03*
Y25832D02*
D03*
X40030Y23442D02*
D03*
Y31428D02*
D03*
Y26670D02*
D03*
X40026Y25074D02*
D03*
Y24274D02*
D03*
Y22674D02*
D03*
Y32228D02*
D03*
Y29028D02*
D03*
Y28228D02*
D03*
X40005Y29845D02*
D03*
X39787Y52882D02*
D03*
X39772Y52049D02*
D03*
X39766Y57643D02*
D03*
X39370Y56693D02*
D03*
X39264Y31428D02*
D03*
X39260Y29062D02*
D03*
X39255Y28245D02*
D03*
X39243Y24232D02*
D03*
Y21844D02*
D03*
Y29845D02*
D03*
Y25832D02*
D03*
X39238Y22617D02*
D03*
X39226Y25074D02*
D03*
Y23474D02*
D03*
Y30628D02*
D03*
Y27428D02*
D03*
X38989Y57658D02*
D03*
Y53594D02*
D03*
X38972Y52849D02*
D03*
X38964Y54458D02*
D03*
X38595Y59385D02*
D03*
X38464Y31428D02*
D03*
X38445Y22702D02*
D03*
X38430Y24257D02*
D03*
Y25832D02*
D03*
X38426Y25074D02*
D03*
Y23474D02*
D03*
Y21874D02*
D03*
Y30628D02*
D03*
Y29828D02*
D03*
Y29028D02*
D03*
Y28228D02*
D03*
Y27428D02*
D03*
X38354Y20993D02*
D03*
Y54686D02*
D03*
X38176Y52019D02*
D03*
X37744Y51435D02*
D03*
X37672Y25874D02*
D03*
X37665Y22681D02*
D03*
X37664Y31428D02*
D03*
X37626Y25074D02*
D03*
Y24274D02*
D03*
Y23474D02*
D03*
Y21874D02*
D03*
Y30628D02*
D03*
Y29828D02*
D03*
Y29028D02*
D03*
X37414Y52832D02*
D03*
X37389Y57607D02*
D03*
X37372Y58403D02*
D03*
X37363Y19507D02*
D03*
X36855Y55524D02*
D03*
X36641Y55028D02*
D03*
X36614Y56845D02*
D03*
X36599Y53668D02*
D03*
X36576Y59258D02*
D03*
Y58445D02*
D03*
X36566Y57642D02*
D03*
X36072Y25074D02*
D03*
Y24274D02*
D03*
Y23474D02*
D03*
Y22674D02*
D03*
Y21874D02*
D03*
Y32228D02*
D03*
Y30628D02*
D03*
Y29828D02*
D03*
Y29028D02*
D03*
X36068Y31471D02*
D03*
X35839Y55905D02*
D03*
X35814Y57658D02*
D03*
Y56769D02*
D03*
X35789Y52823D02*
D03*
X35763Y52019D02*
D03*
X35757Y58434D02*
D03*
X35272Y25074D02*
D03*
Y24274D02*
D03*
Y33028D02*
D03*
Y32228D02*
D03*
Y30628D02*
D03*
Y29828D02*
D03*
Y29028D02*
D03*
X35255Y23444D02*
D03*
X35246Y22687D02*
D03*
X35234Y28228D02*
D03*
Y27428D02*
D03*
X34950Y55677D02*
D03*
X34492Y21846D02*
D03*
X34472Y25074D02*
D03*
Y24274D02*
D03*
Y23474D02*
D03*
Y22674D02*
D03*
Y33028D02*
D03*
Y32228D02*
D03*
Y31428D02*
D03*
Y30628D02*
D03*
Y29828D02*
D03*
Y29028D02*
D03*
Y25874D02*
D03*
X34434Y28228D02*
D03*
Y27428D02*
D03*
X34392Y59741D02*
D03*
X34218Y58403D02*
D03*
X34198Y57582D02*
D03*
X34188Y56845D02*
D03*
X34172Y53649D02*
D03*
X33833Y20921D02*
D03*
X33672Y25074D02*
D03*
Y24274D02*
D03*
Y23474D02*
D03*
Y22674D02*
D03*
Y32228D02*
D03*
Y31428D02*
D03*
Y30628D02*
D03*
Y29828D02*
D03*
Y29028D02*
D03*
Y25874D02*
D03*
X33655Y28270D02*
D03*
X33631Y21869D02*
D03*
X33630Y27435D02*
D03*
X33414Y53607D02*
D03*
X33401Y58420D02*
D03*
Y56769D02*
D03*
Y52832D02*
D03*
X33388Y57632D02*
D03*
X33249Y20918D02*
D03*
Y33195D02*
D03*
X32903Y30623D02*
D03*
X32872Y25074D02*
D03*
Y24274D02*
D03*
Y23474D02*
D03*
Y22674D02*
D03*
Y32228D02*
D03*
Y31428D02*
D03*
Y29845D02*
D03*
Y27428D02*
D03*
Y25874D02*
D03*
X32867Y29078D02*
D03*
X32765Y33551D02*
D03*
X32639Y52832D02*
D03*
Y51435D02*
D03*
X32618Y53649D02*
D03*
Y52049D02*
D03*
X32561Y57578D02*
D03*
X32530Y58442D02*
D03*
X32072Y25074D02*
D03*
Y24274D02*
D03*
Y23474D02*
D03*
Y22674D02*
D03*
Y21874D02*
D03*
Y21074D02*
D03*
Y33028D02*
D03*
Y32228D02*
D03*
Y31428D02*
D03*
Y29828D02*
D03*
Y29028D02*
D03*
Y28228D02*
D03*
Y27428D02*
D03*
Y25874D02*
D03*
X31876Y58422D02*
D03*
X31828Y53674D02*
D03*
X31818Y56849D02*
D03*
X31776Y52806D02*
D03*
X31765Y57641D02*
D03*
X31272Y25074D02*
D03*
Y24274D02*
D03*
Y22674D02*
D03*
Y21874D02*
D03*
Y21074D02*
D03*
Y32228D02*
D03*
Y31428D02*
D03*
Y28228D02*
D03*
Y27428D02*
D03*
Y25874D02*
D03*
X30988Y58445D02*
D03*
Y54574D02*
D03*
X30963Y57633D02*
D03*
X30940Y55601D02*
D03*
X30764Y33536D02*
D03*
X30472Y21874D02*
D03*
Y21074D02*
D03*
Y31428D02*
D03*
X30242Y23749D02*
D03*
X30226Y30251D02*
D03*
X30218Y53649D02*
D03*
Y52849D02*
D03*
X30201Y51943D02*
D03*
X29591Y30251D02*
D03*
X29185Y19964D02*
D03*
X27976Y27610D02*
D03*
D137*
X28836Y93980D02*
D03*
X26536D02*
D03*
D138*
X18288Y27185D02*
D03*
Y24885D02*
D03*
D139*
X18542Y19805D02*
D03*
Y22105D02*
D03*
D140*
X29718Y3113D02*
D03*
Y8063D02*
D03*
X32258Y3113D02*
D03*
Y8063D02*
D03*
X34798Y3113D02*
D03*
Y8063D02*
D03*
X37338Y3113D02*
D03*
Y8063D02*
D03*
X39878Y3113D02*
D03*
Y8063D02*
D03*
X42418Y3113D02*
D03*
Y8063D02*
D03*
X44958Y3113D02*
D03*
Y8063D02*
D03*
X47498Y3113D02*
D03*
Y8063D02*
D03*
D141*
X42229Y119634D02*
D03*
Y122174D02*
D03*
Y124714D02*
D03*
X47179Y119634D02*
D03*
Y122174D02*
D03*
Y124714D02*
D03*
D142*
X11811Y123761D02*
D03*
X9271Y120841D02*
D03*
D143*
X10351Y4953D02*
D03*
X13271Y2413D02*
D03*
D144*
X30988Y39878D02*
D03*
X8763Y48006D02*
D03*
X20955Y50546D02*
D03*
Y48514D02*
D03*
X19939Y43180D02*
D03*
X33020Y39878D02*
D03*
X26924Y59690D02*
D03*
D145*
X4128Y71755D02*
D03*
Y76835D02*
D03*
Y81915D02*
D03*
Y86995D02*
D03*
Y92075D02*
D03*
X7556Y74295D02*
D03*
Y79375D02*
D03*
Y84455D02*
D03*
Y89535D02*
D03*
Y94615D02*
D03*
X52388Y67691D02*
D03*
Y72771D02*
D03*
Y77851D02*
D03*
Y82931D02*
D03*
X55817Y70231D02*
D03*
Y75311D02*
D03*
Y80391D02*
D03*
Y85471D02*
D03*
X52388Y49911D02*
D03*
Y54991D02*
D03*
Y60071D02*
D03*
X55817Y52451D02*
D03*
Y57531D02*
D03*
Y62611D02*
D03*
X7556Y67691D02*
D03*
Y62611D02*
D03*
Y57531D02*
D03*
Y52451D02*
D03*
X4128Y65151D02*
D03*
Y60071D02*
D03*
Y54991D02*
D03*
Y49911D02*
D03*
D146*
X2922Y15240D02*
D03*
Y17780D02*
D03*
Y20320D02*
D03*
Y22860D02*
D03*
X12318Y15240D02*
D03*
Y17780D02*
D03*
Y20320D02*
D03*
Y22860D02*
D03*
D147*
X14920Y9963D02*
D03*
Y7563D02*
D03*
X13970D02*
D03*
X13020Y9963D02*
D03*
Y7563D02*
D03*
X34864Y67888D02*
D03*
Y70288D02*
D03*
X35814D02*
D03*
X36764Y67888D02*
D03*
Y70288D02*
D03*
D148*
X22395Y11115D02*
D03*
Y13015D02*
D03*
X24595Y12065D02*
D03*
X23325Y115885D02*
D03*
Y113985D02*
D03*
X21125Y114935D02*
D03*
D149*
X24751Y77445D02*
D03*
X29351D02*
D03*
X27051D02*
D03*
D150*
Y71145D02*
D03*
D151*
X39141Y66802D02*
D03*
X10566Y70485D02*
D03*
D152*
X45441Y64502D02*
D03*
Y66802D02*
D03*
Y69102D02*
D03*
X16866Y72785D02*
D03*
Y70485D02*
D03*
Y68185D02*
D03*
D153*
X54143Y38784D02*
D03*
Y41734D02*
D03*
X54793Y38784D02*
D03*
Y41734D02*
D03*
X55443Y38784D02*
D03*
Y41734D02*
D03*
X56093Y38784D02*
D03*
Y41734D02*
D03*
D154*
X55118Y40259D02*
D03*
D155*
X41318Y91948D02*
D03*
Y93218D02*
D03*
Y94488D02*
D03*
Y95758D02*
D03*
X46566Y91948D02*
D03*
Y93218D02*
D03*
Y94488D02*
D03*
Y95758D02*
D03*
D156*
X32131Y113556D02*
D03*
Y115806D02*
D03*
X45720Y88628D02*
D03*
Y86378D02*
D03*
X47752Y88628D02*
D03*
Y86378D02*
D03*
X43688Y88628D02*
D03*
Y86378D02*
D03*
D157*
X13179Y83348D02*
D03*
Y83848D02*
D03*
Y84348D02*
D03*
Y84848D02*
D03*
Y85348D02*
D03*
Y85848D02*
D03*
Y86348D02*
D03*
Y86848D02*
D03*
Y87348D02*
D03*
Y87848D02*
D03*
X19079Y83348D02*
D03*
Y83848D02*
D03*
Y84348D02*
D03*
Y84848D02*
D03*
Y85348D02*
D03*
Y85848D02*
D03*
Y86348D02*
D03*
Y86848D02*
D03*
Y87348D02*
D03*
Y87848D02*
D03*
D158*
X13879Y82648D02*
D03*
Y88548D02*
D03*
X14379Y82648D02*
D03*
Y88548D02*
D03*
X14879Y82648D02*
D03*
Y88548D02*
D03*
X15379Y82648D02*
D03*
Y88548D02*
D03*
X15879Y82648D02*
D03*
Y88548D02*
D03*
X16379Y82648D02*
D03*
Y88548D02*
D03*
X16879Y82648D02*
D03*
Y88548D02*
D03*
X17379Y82648D02*
D03*
Y88548D02*
D03*
X17879Y82648D02*
D03*
Y88548D02*
D03*
X18379Y82648D02*
D03*
Y88548D02*
D03*
D159*
X16129Y85598D02*
D03*
D160*
X2953Y98108D02*
D03*
X1053Y106108D02*
D03*
D161*
X3953D02*
D03*
X5753Y98108D02*
D03*
X13153Y106108D02*
D03*
D162*
X17203Y101308D02*
D03*
D163*
X23931Y124523D02*
D03*
Y120078D02*
D03*
X14931Y124523D02*
D03*
Y120078D02*
D03*
X11739Y115507D02*
D03*
Y111062D02*
D03*
X2739Y115507D02*
D03*
Y111062D02*
D03*
D164*
X4871Y42467D02*
D03*
D165*
X12921Y27842D02*
D03*
D166*
X13421Y42842D02*
D03*
D167*
X15071Y32717D02*
D03*
Y33817D02*
D03*
Y34917D02*
D03*
Y36017D02*
D03*
Y37117D02*
D03*
Y38217D02*
D03*
Y39317D02*
D03*
Y40417D02*
D03*
D168*
Y41567D02*
D03*
D169*
X1914Y27739D02*
D03*
D170*
X1921Y42692D02*
D03*
D171*
X20417Y4135D02*
D03*
X21067D02*
D03*
X21717D02*
D03*
X22367D02*
D03*
X23017D02*
D03*
D172*
X21717Y1460D02*
D03*
D173*
X27068Y119426D02*
D03*
Y124926D02*
D03*
X35568Y119426D02*
D03*
Y124926D02*
D03*
D174*
X29718Y119126D02*
D03*
X30518D02*
D03*
X31318D02*
D03*
X32118D02*
D03*
X32918D02*
D03*
D175*
X25412Y100552D02*
D03*
Y109252D02*
D03*
X25912Y100552D02*
D03*
Y109252D02*
D03*
X26412Y100552D02*
D03*
Y109252D02*
D03*
X26912Y100552D02*
D03*
Y109252D02*
D03*
X27412Y100552D02*
D03*
Y109252D02*
D03*
X27912Y100552D02*
D03*
Y109252D02*
D03*
X28412Y100552D02*
D03*
Y109252D02*
D03*
X28912Y100552D02*
D03*
Y109252D02*
D03*
X23412Y100552D02*
D03*
Y109252D02*
D03*
X23912Y100552D02*
D03*
Y109252D02*
D03*
X24412Y100552D02*
D03*
Y109252D02*
D03*
X24912Y100552D02*
D03*
Y109252D02*
D03*
D176*
X30512Y102152D02*
D03*
Y102652D02*
D03*
Y103152D02*
D03*
Y103652D02*
D03*
Y104152D02*
D03*
Y104652D02*
D03*
Y105152D02*
D03*
Y105652D02*
D03*
Y106152D02*
D03*
Y106652D02*
D03*
Y107152D02*
D03*
Y107652D02*
D03*
X21812Y102152D02*
D03*
Y102652D02*
D03*
Y103152D02*
D03*
Y103652D02*
D03*
Y104152D02*
D03*
Y104652D02*
D03*
Y105152D02*
D03*
Y105652D02*
D03*
Y106152D02*
D03*
Y106652D02*
D03*
Y107152D02*
D03*
Y107652D02*
D03*
D177*
X56055Y110767D02*
D03*
Y113767D02*
D03*
X57555Y110767D02*
D03*
Y113767D02*
D03*
D178*
X18700Y46350D02*
D03*
Y47620D02*
D03*
Y48890D02*
D03*
Y50160D02*
D03*
X11550Y46350D02*
D03*
Y47620D02*
D03*
Y48890D02*
D03*
Y50160D02*
D03*
D179*
X15125Y48255D02*
D03*
D180*
X30595Y58826D02*
D03*
Y58026D02*
D03*
Y57226D02*
D03*
Y54026D02*
D03*
Y53226D02*
D03*
Y52426D02*
D03*
X31395Y58826D02*
D03*
Y58026D02*
D03*
Y57226D02*
D03*
Y54026D02*
D03*
Y53226D02*
D03*
Y52426D02*
D03*
X32195Y58826D02*
D03*
Y58026D02*
D03*
Y57226D02*
D03*
Y54026D02*
D03*
Y53226D02*
D03*
Y52426D02*
D03*
X32995Y58826D02*
D03*
Y58026D02*
D03*
Y57226D02*
D03*
Y54026D02*
D03*
Y53226D02*
D03*
Y52426D02*
D03*
X33795Y58826D02*
D03*
Y58026D02*
D03*
Y57226D02*
D03*
Y54026D02*
D03*
Y53226D02*
D03*
Y52426D02*
D03*
X34595Y58826D02*
D03*
Y58026D02*
D03*
Y57226D02*
D03*
Y54026D02*
D03*
Y53226D02*
D03*
Y52426D02*
D03*
X35395Y58826D02*
D03*
Y58026D02*
D03*
Y57226D02*
D03*
Y54026D02*
D03*
Y53226D02*
D03*
Y52426D02*
D03*
X36195Y58826D02*
D03*
Y58026D02*
D03*
Y57226D02*
D03*
Y54026D02*
D03*
Y53226D02*
D03*
Y52426D02*
D03*
X36995Y58826D02*
D03*
Y58026D02*
D03*
Y57226D02*
D03*
Y54026D02*
D03*
Y53226D02*
D03*
Y52426D02*
D03*
X37795Y58826D02*
D03*
Y58026D02*
D03*
Y57226D02*
D03*
Y54026D02*
D03*
Y53226D02*
D03*
Y52426D02*
D03*
X38595Y58826D02*
D03*
Y58026D02*
D03*
Y57226D02*
D03*
Y54026D02*
D03*
Y53226D02*
D03*
Y52426D02*
D03*
X39395Y58826D02*
D03*
Y58026D02*
D03*
Y57226D02*
D03*
Y54026D02*
D03*
Y53226D02*
D03*
Y52426D02*
D03*
X40195Y58826D02*
D03*
Y58026D02*
D03*
Y57226D02*
D03*
Y54026D02*
D03*
Y53226D02*
D03*
Y52426D02*
D03*
X40995Y58826D02*
D03*
Y58026D02*
D03*
Y57226D02*
D03*
Y54026D02*
D03*
Y53226D02*
D03*
Y52426D02*
D03*
X41795Y58826D02*
D03*
Y58026D02*
D03*
Y57226D02*
D03*
Y54026D02*
D03*
Y53226D02*
D03*
Y52426D02*
D03*
D181*
X52175Y18417D02*
D03*
Y19017D02*
D03*
Y19617D02*
D03*
Y20217D02*
D03*
Y20817D02*
D03*
Y21417D02*
D03*
Y22017D02*
D03*
Y22617D02*
D03*
Y23217D02*
D03*
Y23817D02*
D03*
Y24417D02*
D03*
Y25017D02*
D03*
X55075Y18117D02*
D03*
Y18717D02*
D03*
Y19317D02*
D03*
Y19917D02*
D03*
Y20517D02*
D03*
Y21117D02*
D03*
Y21717D02*
D03*
Y22317D02*
D03*
Y22917D02*
D03*
Y23517D02*
D03*
Y24117D02*
D03*
Y24717D02*
D03*
Y25317D02*
D03*
D182*
X54725Y26017D02*
D03*
Y17417D02*
D03*
D183*
X54910Y100709D02*
D03*
Y106809D02*
D03*
D184*
X57635Y102509D02*
D03*
Y103009D02*
D03*
Y103509D02*
D03*
Y104009D02*
D03*
Y104509D02*
D03*
Y105009D02*
D03*
D185*
X49784Y32385D02*
D03*
D186*
X52070D02*
D03*
D187*
X48514Y68050D02*
D03*
Y65300D02*
D03*
D188*
X23368Y46958D02*
D03*
Y49308D02*
D03*
X26924Y14700D02*
D03*
Y17050D02*
D03*
X19000Y93375D02*
D03*
Y91025D02*
D03*
X46980Y24520D02*
D03*
Y26870D02*
D03*
X16891Y9938D02*
D03*
Y7588D02*
D03*
X21590Y72803D02*
D03*
Y70453D02*
D03*
D189*
X30849Y25451D02*
D03*
Y26251D02*
D03*
Y27051D02*
D03*
Y27851D02*
D03*
Y28651D02*
D03*
Y29451D02*
D03*
Y30251D02*
D03*
Y31051D02*
D03*
Y31851D02*
D03*
Y32651D02*
D03*
Y21451D02*
D03*
Y22251D02*
D03*
Y23051D02*
D03*
Y23851D02*
D03*
Y24651D02*
D03*
X31649Y25451D02*
D03*
Y26251D02*
D03*
Y27051D02*
D03*
Y27851D02*
D03*
Y28651D02*
D03*
Y29451D02*
D03*
Y30251D02*
D03*
Y31051D02*
D03*
Y31851D02*
D03*
Y32651D02*
D03*
Y21451D02*
D03*
Y22251D02*
D03*
Y23051D02*
D03*
Y23851D02*
D03*
Y24651D02*
D03*
X32449Y25451D02*
D03*
Y26251D02*
D03*
Y27051D02*
D03*
Y27851D02*
D03*
Y28651D02*
D03*
Y29451D02*
D03*
Y30251D02*
D03*
Y31051D02*
D03*
Y31851D02*
D03*
Y32651D02*
D03*
Y21451D02*
D03*
Y22251D02*
D03*
Y23051D02*
D03*
Y23851D02*
D03*
Y24651D02*
D03*
X33249Y25451D02*
D03*
Y26251D02*
D03*
Y27051D02*
D03*
Y27851D02*
D03*
Y28651D02*
D03*
Y29451D02*
D03*
Y30251D02*
D03*
Y31051D02*
D03*
Y31851D02*
D03*
Y32651D02*
D03*
Y21451D02*
D03*
Y22251D02*
D03*
Y23051D02*
D03*
Y23851D02*
D03*
Y24651D02*
D03*
X34049Y25451D02*
D03*
Y26251D02*
D03*
Y27051D02*
D03*
Y27851D02*
D03*
Y28651D02*
D03*
Y29451D02*
D03*
Y30251D02*
D03*
Y31051D02*
D03*
Y31851D02*
D03*
Y32651D02*
D03*
Y21451D02*
D03*
Y22251D02*
D03*
Y23051D02*
D03*
Y23851D02*
D03*
Y24651D02*
D03*
X34849Y25451D02*
D03*
Y26251D02*
D03*
Y27051D02*
D03*
Y27851D02*
D03*
Y28651D02*
D03*
Y29451D02*
D03*
Y30251D02*
D03*
Y31051D02*
D03*
Y31851D02*
D03*
Y32651D02*
D03*
Y21451D02*
D03*
Y22251D02*
D03*
Y23051D02*
D03*
Y23851D02*
D03*
Y24651D02*
D03*
X35649Y25451D02*
D03*
Y28651D02*
D03*
Y29451D02*
D03*
Y30251D02*
D03*
Y31051D02*
D03*
Y31851D02*
D03*
Y32651D02*
D03*
Y21451D02*
D03*
Y22251D02*
D03*
Y23051D02*
D03*
Y23851D02*
D03*
Y24651D02*
D03*
X36449Y25451D02*
D03*
Y28651D02*
D03*
Y29451D02*
D03*
Y30251D02*
D03*
Y31051D02*
D03*
Y31851D02*
D03*
Y32651D02*
D03*
Y21451D02*
D03*
Y22251D02*
D03*
Y23051D02*
D03*
Y23851D02*
D03*
Y24651D02*
D03*
X37249Y25451D02*
D03*
Y28651D02*
D03*
Y29451D02*
D03*
Y30251D02*
D03*
Y31051D02*
D03*
Y31851D02*
D03*
Y32651D02*
D03*
Y21451D02*
D03*
Y22251D02*
D03*
Y23051D02*
D03*
Y23851D02*
D03*
Y24651D02*
D03*
X38049Y25451D02*
D03*
Y26251D02*
D03*
Y27051D02*
D03*
Y27851D02*
D03*
Y28651D02*
D03*
Y29451D02*
D03*
Y30251D02*
D03*
Y31051D02*
D03*
Y31851D02*
D03*
Y32651D02*
D03*
Y21451D02*
D03*
Y22251D02*
D03*
Y23051D02*
D03*
Y23851D02*
D03*
Y24651D02*
D03*
X38849Y25451D02*
D03*
Y26251D02*
D03*
Y27051D02*
D03*
Y27851D02*
D03*
Y28651D02*
D03*
Y29451D02*
D03*
Y30251D02*
D03*
Y31051D02*
D03*
Y31851D02*
D03*
Y32651D02*
D03*
Y21451D02*
D03*
Y22251D02*
D03*
Y23051D02*
D03*
Y23851D02*
D03*
Y24651D02*
D03*
X39649Y25451D02*
D03*
Y26251D02*
D03*
Y27051D02*
D03*
Y27851D02*
D03*
Y28651D02*
D03*
Y29451D02*
D03*
Y30251D02*
D03*
Y31051D02*
D03*
Y31851D02*
D03*
Y32651D02*
D03*
Y21451D02*
D03*
Y22251D02*
D03*
Y23051D02*
D03*
Y23851D02*
D03*
Y24651D02*
D03*
X40449Y25451D02*
D03*
Y26251D02*
D03*
Y27051D02*
D03*
Y27851D02*
D03*
Y28651D02*
D03*
Y29451D02*
D03*
Y30251D02*
D03*
Y31051D02*
D03*
Y31851D02*
D03*
Y32651D02*
D03*
Y21451D02*
D03*
Y22251D02*
D03*
Y23051D02*
D03*
Y23851D02*
D03*
Y24651D02*
D03*
X41249Y25451D02*
D03*
Y26251D02*
D03*
Y27051D02*
D03*
Y27851D02*
D03*
Y28651D02*
D03*
Y29451D02*
D03*
Y30251D02*
D03*
Y31051D02*
D03*
Y31851D02*
D03*
Y32651D02*
D03*
Y21451D02*
D03*
Y22251D02*
D03*
Y23051D02*
D03*
Y23851D02*
D03*
Y24651D02*
D03*
X42049Y25451D02*
D03*
Y26251D02*
D03*
Y27051D02*
D03*
Y27851D02*
D03*
Y28651D02*
D03*
Y29451D02*
D03*
Y30251D02*
D03*
Y31051D02*
D03*
Y31851D02*
D03*
Y32651D02*
D03*
Y21451D02*
D03*
Y22251D02*
D03*
Y23051D02*
D03*
Y23851D02*
D03*
Y24651D02*
D03*
D190*
X21145Y6739D02*
D03*
Y7239D02*
D03*
Y7739D02*
D03*
X21645Y6739D02*
D03*
Y7239D02*
D03*
Y7739D02*
D03*
X22145Y6739D02*
D03*
Y7239D02*
D03*
Y7739D02*
D03*
X22645Y7239D02*
D03*
Y7739D02*
D03*
D191*
X51054Y38659D02*
D03*
Y41605D02*
D03*
D192*
X58115Y32385D02*
D03*
X55169D02*
D03*
X49352Y46736D02*
D03*
X46406D02*
D03*
D193*
X46228Y16688D02*
D03*
Y19634D02*
D03*
X47117Y32334D02*
D03*
Y29388D02*
D03*
Y37287D02*
D03*
Y34341D02*
D03*
D194*
X46863Y117475D02*
D03*
X45339D02*
D03*
X49403Y44831D02*
D03*
X47879D02*
D03*
X35179Y66040D02*
D03*
X33655D02*
D03*
X12192Y78613D02*
D03*
X10668D02*
D03*
X10033Y7112D02*
D03*
X8509D02*
D03*
X11811Y94107D02*
D03*
X10287D02*
D03*
X24130Y26289D02*
D03*
X22606D02*
D03*
X24130Y27813D02*
D03*
X22606D02*
D03*
X11684Y88519D02*
D03*
X10160D02*
D03*
X57785Y36576D02*
D03*
X56261D02*
D03*
X22479Y85344D02*
D03*
X20955D02*
D03*
X16002Y115443D02*
D03*
X14478D02*
D03*
X22479Y83947D02*
D03*
X20955D02*
D03*
D195*
X46704Y49149D02*
D03*
X49054D02*
D03*
X24225Y31623D02*
D03*
X26575D02*
D03*
X55277Y28067D02*
D03*
X52927D02*
D03*
X24225Y36957D02*
D03*
X26575D02*
D03*
X25368Y82296D02*
D03*
X27718D02*
D03*
X14129Y75184D02*
D03*
X11779D02*
D03*
X43339Y71501D02*
D03*
X40989D02*
D03*
M02*
