G04*
G04 #@! TF.GenerationSoftware,Altium Limited,Altium Designer,20.2.6 (244)*
G04*
G04 Layer_Color=2752767*
%FSLAX43Y43*%
%MOMM*%
G71*
G04*
G04 #@! TF.SameCoordinates,ADE9251E-79DE-46AD-AD66-6379AD971F3A*
G04*
G04*
G04 #@! TF.FilePolarity,Positive*
G04*
G01*
G75*
%ADD15C,0.025*%
%ADD16C,0.254*%
%ADD202C,0.051*%
%ADD203C,0.068*%
%ADD204C,0.034*%
D15*
X59746Y26797D02*
G03*
X60000Y27051I0J254D01*
G01*
X0Y29845D02*
G03*
X0Y41402I-25591J5779D01*
G01*
X60000Y16510D02*
G03*
X59746Y16764I-254J0D01*
G01*
X58713Y17018D02*
G03*
X58967Y16764I254J0D01*
G01*
Y26797D02*
G03*
X58713Y26543I0J-254D01*
G01*
X-90424Y-128016D02*
Y283464D01*
X458216D01*
Y-128016D02*
Y283464D01*
X-90424Y-128016D02*
X458216D01*
X183896Y275844D02*
Y283464D01*
Y-128016D02*
X188976Y-116586D01*
X178816D02*
X188976D01*
X178816D02*
X183896Y-128016D01*
Y-110236D01*
Y-121666D02*
X188976Y-116586D01*
X178816D02*
X183896Y-121666D01*
X450596Y176784D02*
X458216D01*
X450596Y77724D02*
X458216D01*
X450596Y-21336D02*
X458216D01*
X361696Y-128016D02*
Y-120396D01*
X272796Y-128016D02*
Y-120396D01*
X183896Y-128016D02*
Y-120396D01*
X94996Y-128016D02*
Y-120396D01*
X6096Y-128016D02*
Y-120396D01*
X361696Y275844D02*
Y283464D01*
X272796Y275844D02*
Y283464D01*
X94996Y275844D02*
Y283464D01*
X6096Y275844D02*
Y283464D01*
X-90424Y176784D02*
X-82804D01*
X-90424Y77724D02*
X-82804D01*
X-90424Y-21336D02*
X-82804D01*
X326136Y-120396D02*
X450596D01*
Y123444D01*
X-82804Y275844D02*
X450596D01*
Y82804D02*
Y275844D01*
Y123444D02*
Y219964D01*
X-82804Y-120396D02*
X326136D01*
X-82804D02*
Y275844D01*
X-90424Y-21336D02*
X-82804D01*
X450596Y77724D02*
X458216D01*
X361696Y275844D02*
Y283464D01*
X-90424Y176784D02*
X-82804D01*
X6096Y-128016D02*
Y-120396D01*
X450596Y-21336D02*
X458216D01*
X326136Y-120396D02*
X450596D01*
Y123444D01*
X-90424Y-128016D02*
Y283464D01*
X458216D01*
Y-128016D02*
Y283464D01*
X-90424Y-128016D02*
X458216D01*
X272796D02*
Y-120396D01*
X-82804D02*
Y275844D01*
X183896Y-128016D02*
Y-120396D01*
Y-121666D02*
X188976Y-116586D01*
X178816D02*
X183896Y-121666D01*
Y-128016D02*
X188976Y-116586D01*
X178816D02*
X188976D01*
X178816D02*
X183896Y-128016D01*
Y-110236D01*
X361696Y-128016D02*
Y-120396D01*
X-90424Y77724D02*
X-82804D01*
X272796Y275844D02*
Y283464D01*
X450596Y176784D02*
X458216D01*
X94996Y275844D02*
Y283464D01*
X183896Y275844D02*
Y283464D01*
X450596Y123444D02*
Y219964D01*
X-82804Y275844D02*
X450596D01*
Y82804D02*
Y275844D01*
X6096D02*
Y283464D01*
X-82804Y-120396D02*
X326136D01*
X94996Y-128016D02*
Y-120396D01*
X0Y41402D02*
Y127000D01*
X60000D01*
Y27051D02*
Y127000D01*
Y27051D02*
Y127000D01*
X0D02*
X60000D01*
X0Y41402D02*
Y127000D01*
Y0D02*
Y29845D01*
Y0D02*
X18917D01*
Y1785D01*
X19017Y1885D01*
X19667D01*
X19767Y1785D01*
Y0D02*
Y1785D01*
Y0D02*
X23667D01*
Y1785D01*
X23767Y1885D01*
X24417D01*
X24517Y1785D01*
Y0D02*
Y1785D01*
Y0D02*
X60000D01*
Y16510D01*
X58967Y16764D02*
X59746D01*
X58713Y17018D02*
Y26543D01*
X58967Y26797D02*
X59746D01*
X58967D02*
X59746D01*
D16*
X453136Y223265D02*
Y219964D01*
Y223265D02*
X454236D01*
X454708Y223108D01*
X455022Y222794D01*
X455180Y222479D01*
X455337Y222008D01*
Y221222D01*
X455180Y220750D01*
X455022Y220436D01*
X454708Y220121D01*
X454236Y219964D01*
X453136D01*
X455494Y123419D02*
X455337Y123734D01*
X455022Y124048D01*
X454708Y124205D01*
X454079D01*
X453765Y124048D01*
X453450Y123734D01*
X453293Y123419D01*
X453136Y122948D01*
Y122162D01*
X453293Y121690D01*
X453450Y121376D01*
X453765Y121061D01*
X454079Y120904D01*
X454708D01*
X455022Y121061D01*
X455337Y121376D01*
X455494Y121690D01*
X453136Y30225D02*
Y26924D01*
Y30225D02*
X454551D01*
X455022Y30068D01*
X455180Y29911D01*
X455337Y29596D01*
Y29282D01*
X455180Y28968D01*
X455022Y28810D01*
X454551Y28653D01*
X453136D02*
X454551D01*
X455022Y28496D01*
X455180Y28339D01*
X455337Y28024D01*
Y27553D01*
X455180Y27238D01*
X455022Y27081D01*
X454551Y26924D01*
X453136D01*
X455651Y-79756D02*
X454394Y-76455D01*
X453136Y-79756D01*
X453608Y-78656D02*
X455180D01*
X407416Y-122804D02*
X407730Y-122646D01*
X408202Y-122175D01*
Y-125476D01*
X318673Y-122961D02*
Y-122804D01*
X318830Y-122489D01*
X318988Y-122332D01*
X319302Y-122175D01*
X319931D01*
X320245Y-122332D01*
X320402Y-122489D01*
X320560Y-122804D01*
Y-123118D01*
X320402Y-123432D01*
X320088Y-123904D01*
X318516Y-125476D01*
X320717D01*
X229930Y-122175D02*
X231660D01*
X230716Y-123432D01*
X231188D01*
X231502Y-123590D01*
X231660Y-123747D01*
X231817Y-124218D01*
Y-124533D01*
X231660Y-125004D01*
X231345Y-125319D01*
X230874Y-125476D01*
X230402D01*
X229930Y-125319D01*
X229773Y-125162D01*
X229616Y-124847D01*
X142288Y-122175D02*
X140716Y-124376D01*
X143074D01*
X142288Y-122175D02*
Y-125476D01*
X53702Y-122175D02*
X52130D01*
X51973Y-123590D01*
X52130Y-123432D01*
X52602Y-123275D01*
X53074D01*
X53545Y-123432D01*
X53860Y-123747D01*
X54017Y-124218D01*
Y-124533D01*
X53860Y-125004D01*
X53545Y-125319D01*
X53074Y-125476D01*
X52602D01*
X52130Y-125319D01*
X51973Y-125162D01*
X51816Y-124847D01*
X-35198Y-122646D02*
X-35355Y-122332D01*
X-35826Y-122175D01*
X-36141D01*
X-36612Y-122332D01*
X-36927Y-122804D01*
X-37084Y-123590D01*
Y-124376D01*
X-36927Y-125004D01*
X-36612Y-125319D01*
X-36141Y-125476D01*
X-35984D01*
X-35512Y-125319D01*
X-35198Y-125004D01*
X-35040Y-124533D01*
Y-124376D01*
X-35198Y-123904D01*
X-35512Y-123590D01*
X-35984Y-123432D01*
X-36141D01*
X-36612Y-123590D01*
X-36927Y-123904D01*
X-37084Y-124376D01*
X407416Y281056D02*
X407730Y281214D01*
X408202Y281685D01*
Y278384D01*
X318673Y280899D02*
Y281056D01*
X318830Y281371D01*
X318988Y281528D01*
X319302Y281685D01*
X319931D01*
X320245Y281528D01*
X320402Y281371D01*
X320560Y281056D01*
Y280742D01*
X320402Y280428D01*
X320088Y279956D01*
X318516Y278384D01*
X320717D01*
X229930Y281685D02*
X231660D01*
X230716Y280428D01*
X231188D01*
X231502Y280270D01*
X231660Y280113D01*
X231817Y279642D01*
Y279327D01*
X231660Y278856D01*
X231345Y278541D01*
X230874Y278384D01*
X230402D01*
X229930Y278541D01*
X229773Y278698D01*
X229616Y279013D01*
X142288Y281685D02*
X140716Y279484D01*
X143074D01*
X142288Y281685D02*
Y278384D01*
X53702Y281685D02*
X52130D01*
X51973Y280270D01*
X52130Y280428D01*
X52602Y280585D01*
X53074D01*
X53545Y280428D01*
X53860Y280113D01*
X54017Y279642D01*
Y279327D01*
X53860Y278856D01*
X53545Y278541D01*
X53074Y278384D01*
X52602D01*
X52130Y278541D01*
X51973Y278698D01*
X51816Y279013D01*
X-35198Y281214D02*
X-35355Y281528D01*
X-35826Y281685D01*
X-36141D01*
X-36612Y281528D01*
X-36927Y281056D01*
X-37084Y280270D01*
Y279484D01*
X-36927Y278856D01*
X-36612Y278541D01*
X-36141Y278384D01*
X-35984D01*
X-35512Y278541D01*
X-35198Y278856D01*
X-35040Y279327D01*
Y279484D01*
X-35198Y279956D01*
X-35512Y280270D01*
X-35984Y280428D01*
X-36141D01*
X-36612Y280270D01*
X-36927Y279956D01*
X-37084Y279484D01*
X-85369Y-79756D02*
X-86626Y-76455D01*
X-87884Y-79756D01*
X-87412Y-78656D02*
X-85840D01*
X-87884Y30225D02*
Y26924D01*
Y30225D02*
X-86469D01*
X-85998Y30068D01*
X-85840Y29911D01*
X-85683Y29596D01*
Y29282D01*
X-85840Y28968D01*
X-85998Y28810D01*
X-86469Y28653D01*
X-87884D02*
X-86469D01*
X-85998Y28496D01*
X-85840Y28339D01*
X-85683Y28024D01*
Y27553D01*
X-85840Y27238D01*
X-85998Y27081D01*
X-86469Y26924D01*
X-87884D01*
X-85526Y123419D02*
X-85683Y123734D01*
X-85998Y124048D01*
X-86312Y124205D01*
X-86941D01*
X-87255Y124048D01*
X-87570Y123734D01*
X-87727Y123419D01*
X-87884Y122948D01*
Y122162D01*
X-87727Y121690D01*
X-87570Y121376D01*
X-87255Y121061D01*
X-86941Y120904D01*
X-86312D01*
X-85998Y121061D01*
X-85683Y121376D01*
X-85526Y121690D01*
X-87884Y223265D02*
Y219964D01*
Y223265D02*
X-86784D01*
X-86312Y223108D01*
X-85998Y222794D01*
X-85840Y222479D01*
X-85683Y222008D01*
Y221222D01*
X-85840Y220750D01*
X-85998Y220436D01*
X-86312Y220121D01*
X-86784Y219964D01*
X-87884D01*
X-85369Y-79756D02*
X-86626Y-76455D01*
X-87884Y-79756D01*
X-87412Y-78656D02*
X-85840D01*
X453136Y223265D02*
Y219964D01*
Y223265D02*
X454236D01*
X454708Y223108D01*
X455022Y222794D01*
X455180Y222479D01*
X455337Y222008D01*
Y221222D01*
X455180Y220750D01*
X455022Y220436D01*
X454708Y220121D01*
X454236Y219964D01*
X453136D01*
X-85526Y123419D02*
X-85683Y123734D01*
X-85998Y124048D01*
X-86312Y124205D01*
X-86941D01*
X-87255Y124048D01*
X-87570Y123734D01*
X-87727Y123419D01*
X-87884Y122948D01*
Y122162D01*
X-87727Y121690D01*
X-87570Y121376D01*
X-87255Y121061D01*
X-86941Y120904D01*
X-86312D01*
X-85998Y121061D01*
X-85683Y121376D01*
X-85526Y121690D01*
X407416Y281056D02*
X407730Y281214D01*
X408202Y281685D01*
Y278384D01*
X53702Y-122175D02*
X52130D01*
X51973Y-123590D01*
X52130Y-123432D01*
X52602Y-123275D01*
X53074D01*
X53545Y-123432D01*
X53860Y-123747D01*
X54017Y-124218D01*
Y-124533D01*
X53860Y-125004D01*
X53545Y-125319D01*
X53074Y-125476D01*
X52602D01*
X52130Y-125319D01*
X51973Y-125162D01*
X51816Y-124847D01*
X455494Y123419D02*
X455337Y123734D01*
X455022Y124048D01*
X454708Y124205D01*
X454079D01*
X453765Y124048D01*
X453450Y123734D01*
X453293Y123419D01*
X453136Y122948D01*
Y122162D01*
X453293Y121690D01*
X453450Y121376D01*
X453765Y121061D01*
X454079Y120904D01*
X454708D01*
X455022Y121061D01*
X455337Y121376D01*
X455494Y121690D01*
X142288Y-122175D02*
X140716Y-124376D01*
X143074D01*
X142288Y-122175D02*
Y-125476D01*
X318673Y280899D02*
Y281056D01*
X318830Y281371D01*
X318988Y281528D01*
X319302Y281685D01*
X319931D01*
X320245Y281528D01*
X320402Y281371D01*
X320560Y281056D01*
Y280742D01*
X320402Y280428D01*
X320088Y279956D01*
X318516Y278384D01*
X320717D01*
X-35198Y281214D02*
X-35355Y281528D01*
X-35826Y281685D01*
X-36141D01*
X-36612Y281528D01*
X-36927Y281056D01*
X-37084Y280270D01*
Y279484D01*
X-36927Y278856D01*
X-36612Y278541D01*
X-36141Y278384D01*
X-35984D01*
X-35512Y278541D01*
X-35198Y278856D01*
X-35040Y279327D01*
Y279484D01*
X-35198Y279956D01*
X-35512Y280270D01*
X-35984Y280428D01*
X-36141D01*
X-36612Y280270D01*
X-36927Y279956D01*
X-37084Y279484D01*
X-87884Y223265D02*
Y219964D01*
Y223265D02*
X-86784D01*
X-86312Y223108D01*
X-85998Y222794D01*
X-85840Y222479D01*
X-85683Y222008D01*
Y221222D01*
X-85840Y220750D01*
X-85998Y220436D01*
X-86312Y220121D01*
X-86784Y219964D01*
X-87884D01*
X53702Y281685D02*
X52130D01*
X51973Y280270D01*
X52130Y280428D01*
X52602Y280585D01*
X53074D01*
X53545Y280428D01*
X53860Y280113D01*
X54017Y279642D01*
Y279327D01*
X53860Y278856D01*
X53545Y278541D01*
X53074Y278384D01*
X52602D01*
X52130Y278541D01*
X51973Y278698D01*
X51816Y279013D01*
X-35198Y-122646D02*
X-35355Y-122332D01*
X-35826Y-122175D01*
X-36141D01*
X-36612Y-122332D01*
X-36927Y-122804D01*
X-37084Y-123590D01*
Y-124376D01*
X-36927Y-125004D01*
X-36612Y-125319D01*
X-36141Y-125476D01*
X-35984D01*
X-35512Y-125319D01*
X-35198Y-125004D01*
X-35040Y-124533D01*
Y-124376D01*
X-35198Y-123904D01*
X-35512Y-123590D01*
X-35984Y-123432D01*
X-36141D01*
X-36612Y-123590D01*
X-36927Y-123904D01*
X-37084Y-124376D01*
X229930Y-122175D02*
X231660D01*
X230716Y-123432D01*
X231188D01*
X231502Y-123590D01*
X231660Y-123747D01*
X231817Y-124218D01*
Y-124533D01*
X231660Y-125004D01*
X231345Y-125319D01*
X230874Y-125476D01*
X230402D01*
X229930Y-125319D01*
X229773Y-125162D01*
X229616Y-124847D01*
X453136Y30225D02*
Y26924D01*
Y30225D02*
X454551D01*
X455022Y30068D01*
X455180Y29911D01*
X455337Y29596D01*
Y29282D01*
X455180Y28968D01*
X455022Y28810D01*
X454551Y28653D01*
X453136D02*
X454551D01*
X455022Y28496D01*
X455180Y28339D01*
X455337Y28024D01*
Y27553D01*
X455180Y27238D01*
X455022Y27081D01*
X454551Y26924D01*
X453136D01*
X229930Y281685D02*
X231660D01*
X230716Y280428D01*
X231188D01*
X231502Y280270D01*
X231660Y280113D01*
X231817Y279642D01*
Y279327D01*
X231660Y278856D01*
X231345Y278541D01*
X230874Y278384D01*
X230402D01*
X229930Y278541D01*
X229773Y278698D01*
X229616Y279013D01*
X455651Y-79756D02*
X454394Y-76455D01*
X453136Y-79756D01*
X453608Y-78656D02*
X455180D01*
X-87884Y30225D02*
Y26924D01*
Y30225D02*
X-86469D01*
X-85998Y30068D01*
X-85840Y29911D01*
X-85683Y29596D01*
Y29282D01*
X-85840Y28968D01*
X-85998Y28810D01*
X-86469Y28653D01*
X-87884D02*
X-86469D01*
X-85998Y28496D01*
X-85840Y28339D01*
X-85683Y28024D01*
Y27553D01*
X-85840Y27238D01*
X-85998Y27081D01*
X-86469Y26924D01*
X-87884D01*
X407416Y-122804D02*
X407730Y-122646D01*
X408202Y-122175D01*
Y-125476D01*
X142288Y281685D02*
X140716Y279484D01*
X143074D01*
X142288Y281685D02*
Y278384D01*
X318673Y-122961D02*
Y-122804D01*
X318830Y-122489D01*
X318988Y-122332D01*
X319302Y-122175D01*
X319931D01*
X320245Y-122332D01*
X320402Y-122489D01*
X320560Y-122804D01*
Y-123118D01*
X320402Y-123432D01*
X320088Y-123904D01*
X318516Y-125476D01*
X320717D01*
D202*
X7417Y16307D02*
Y16713D01*
X7823D01*
Y16307D01*
X7417D01*
Y21387D02*
Y21793D01*
X7823D01*
Y21387D01*
X7417D01*
X9271Y31039D02*
X9068Y31445D01*
X9474D01*
X9271Y31039D01*
Y38589D02*
X9068Y38995D01*
X9474D01*
X9271Y38589D01*
X25867Y1077D02*
X25969Y1179D01*
X26070D01*
X25969Y1280D01*
X26070Y1382D01*
X25969D01*
X25867Y1483D01*
X25766Y1382D01*
X25664D01*
X25766Y1280D01*
X25664Y1179D01*
X25766D01*
X25867Y1077D01*
X17567D02*
X17668Y1179D01*
X17770D01*
X17668Y1280D01*
X17770Y1382D01*
X17668D01*
X17567Y1483D01*
X17465Y1382D01*
X17364D01*
X17465Y1280D01*
X17364Y1179D01*
X17465D01*
X17567Y1077D01*
X19239Y4257D02*
X19340Y4460D01*
X19239Y4663D01*
X19442Y4562D01*
X19645Y4663D01*
X19544Y4460D01*
X19645Y4257D01*
X19442Y4359D01*
X19239Y4257D01*
X23789D02*
X23890Y4460D01*
X23789Y4663D01*
X23992Y4562D01*
X24195Y4663D01*
X24094Y4460D01*
X24195Y4257D01*
X23992Y4359D01*
X23789Y4257D01*
X29016Y122049D02*
Y121948D01*
X29220D01*
Y122049D01*
X29321D01*
Y122252D01*
X29220D01*
Y122354D01*
X29016D01*
Y122252D01*
X28915D01*
Y122049D01*
X29016D01*
X33416D02*
Y121948D01*
X33620D01*
Y122049D01*
X33721D01*
Y122252D01*
X33620D01*
Y122354D01*
X33416D01*
Y122252D01*
X33315D01*
Y122049D01*
X33416D01*
X3988Y3988D02*
X4089D01*
X4191Y4089D01*
X4293Y3988D01*
X4394D01*
Y4089D01*
X4293Y4191D01*
X4394Y4293D01*
Y4394D01*
X4293D01*
X4191Y4293D01*
X4089Y4394D01*
X3988D01*
Y4293D01*
X4089Y4191D01*
X3988Y4089D01*
Y3988D01*
X31293Y84836D02*
X31496Y85039D01*
X31699Y84836D01*
X31496Y84633D01*
X31293Y84836D01*
Y87376D02*
X31496Y87579D01*
X31699Y87376D01*
X31496Y87173D01*
X31293Y87376D01*
X33833Y84836D02*
X34036Y85039D01*
X34239Y84836D01*
X34036Y84633D01*
X33833Y84836D01*
Y87376D02*
X34036Y87579D01*
X34239Y87376D01*
X34036Y87173D01*
X33833Y87376D01*
X36373D02*
X36576Y87579D01*
X36779Y87376D01*
X36576Y87173D01*
X36373Y87376D01*
X3988Y122606D02*
X4089D01*
X4191Y122707D01*
X4293Y122606D01*
X4394D01*
Y122707D01*
X4293Y122809D01*
X4394Y122910D01*
Y123012D01*
X4293D01*
X4191Y122910D01*
X4089Y123012D01*
X3988D01*
Y122910D01*
X4089Y122809D01*
X3988Y122707D01*
Y122606D01*
X55606D02*
X55707D01*
X55809Y122707D01*
X55910Y122606D01*
X56012D01*
Y122707D01*
X55910Y122809D01*
X56012Y122910D01*
Y123012D01*
X55910D01*
X55809Y122910D01*
X55707Y123012D01*
X55606D01*
Y122910D01*
X55707Y122809D01*
X55606Y122707D01*
Y122606D01*
Y3988D02*
X55707D01*
X55809Y4089D01*
X55910Y3988D01*
X56012D01*
Y4089D01*
X55910Y4191D01*
X56012Y4293D01*
Y4394D01*
X55910D01*
X55809Y4293D01*
X55707Y4394D01*
X55606D01*
Y4293D01*
X55707Y4191D01*
X55606Y4089D01*
Y3988D01*
X25070Y31306D02*
Y31712D01*
X25476D01*
Y31306D01*
X25070D01*
X25171Y31407D02*
Y31610D01*
X25375D01*
Y31407D01*
X25171D01*
X24816Y95809D02*
Y96215D01*
X25222D01*
Y95809D01*
X24816D01*
X24917Y95910D02*
Y96114D01*
X25121D01*
Y95910D01*
X24917D01*
X24709Y99004D02*
Y99410D01*
X25115D01*
Y99004D01*
X24709D01*
X24810Y99105D02*
Y99309D01*
X25014D01*
Y99105D01*
X24810D01*
X24460Y112878D02*
Y113284D01*
X24867D01*
Y112878D01*
X24460D01*
X24562Y112979D02*
Y113182D01*
X24765D01*
Y112979D01*
X24562D01*
X24181Y38151D02*
Y38557D01*
X24587D01*
Y38151D01*
X24181D01*
X24282Y38252D02*
Y38456D01*
X24486D01*
Y38252D01*
X24282D01*
X23927Y34976D02*
Y35382D01*
X24333D01*
Y34976D01*
X23927D01*
X24028Y35077D02*
Y35281D01*
X24232D01*
Y35077D01*
X24028D01*
X23800Y82347D02*
Y82753D01*
X24206D01*
Y82347D01*
X23800D01*
X23901Y82448D02*
Y82652D01*
X24105D01*
Y82448D01*
X23901D01*
X23800Y81585D02*
Y81991D01*
X24206D01*
Y81585D01*
X23800D01*
X23901Y81686D02*
Y81890D01*
X24105D01*
Y81686D01*
X23901D01*
X23800Y80696D02*
Y81102D01*
X24206D01*
Y80696D01*
X23800D01*
X23901Y80797D02*
Y81001D01*
X24105D01*
Y80797D01*
X23901D01*
X23800Y33325D02*
Y33731D01*
X24206D01*
Y33325D01*
X23800D01*
X23901Y33426D02*
Y33630D01*
X24105D01*
Y33426D01*
X23901D01*
X23728Y125599D02*
Y126005D01*
X24134D01*
Y125599D01*
X23728D01*
X23830Y125700D02*
Y125903D01*
X24033D01*
Y125700D01*
X23830D01*
X23673Y50597D02*
Y51003D01*
X24079D01*
Y50597D01*
X23673D01*
X23774Y50698D02*
Y50902D01*
X23978D01*
Y50698D01*
X23774D01*
X23546Y95428D02*
Y95834D01*
X23952D01*
Y95428D01*
X23546D01*
X23647Y95529D02*
Y95733D01*
X23851D01*
Y95529D01*
X23647D01*
X23546Y53492D02*
Y53899D01*
X23952D01*
Y53492D01*
X23546D01*
X23647Y53594D02*
Y53797D01*
X23851D01*
Y53594D01*
X23647D01*
X23266Y11366D02*
Y11773D01*
X23673D01*
Y11366D01*
X23266D01*
X23368Y11468D02*
Y11671D01*
X23571D01*
Y11468D01*
X23368D01*
X23165Y47676D02*
Y48082D01*
X23571D01*
Y47676D01*
X23165D01*
X23266Y47777D02*
Y47981D01*
X23470D01*
Y47777D01*
X23266D01*
X23165Y34976D02*
Y35382D01*
X23571D01*
Y34976D01*
X23165D01*
X23266Y35077D02*
Y35281D01*
X23470D01*
Y35077D01*
X23266D01*
X23087Y84506D02*
Y84912D01*
X23493D01*
Y84506D01*
X23087D01*
X23188Y84607D02*
Y84811D01*
X23392D01*
Y84607D01*
X23188D01*
X22911Y82347D02*
Y82753D01*
X23317D01*
Y82347D01*
X22911D01*
X23012Y82448D02*
Y82652D01*
X23216D01*
Y82448D01*
X23012D01*
X22911Y80696D02*
Y81102D01*
X23317D01*
Y80696D01*
X22911D01*
X23012Y80797D02*
Y81001D01*
X23216D01*
Y80797D01*
X23012D01*
X22906Y81562D02*
Y81968D01*
X23312D01*
Y81562D01*
X22906D01*
X23007Y81664D02*
Y81867D01*
X23211D01*
Y81664D01*
X23007D01*
X22814Y5131D02*
Y5537D01*
X23220D01*
Y5131D01*
X22814D01*
X22915Y5232D02*
Y5436D01*
X23119D01*
Y5232D01*
X22915D01*
X22657Y8077D02*
Y8484D01*
X23063D01*
Y8077D01*
X22657D01*
X22758Y8179D02*
Y8382D01*
X22962D01*
Y8179D01*
X22758D01*
X22657Y53518D02*
Y53924D01*
X23063D01*
Y53518D01*
X22657D01*
X22758Y53619D02*
Y53823D01*
X22962D01*
Y53619D01*
X22758D01*
X22657Y31293D02*
Y31699D01*
X23063D01*
Y31293D01*
X22657D01*
X22758Y31394D02*
Y31598D01*
X22962D01*
Y31394D01*
X22758D01*
X22276Y95682D02*
Y96088D01*
X22682D01*
Y95682D01*
X22276D01*
X22377Y95783D02*
Y95987D01*
X22581D01*
Y95783D01*
X22377D01*
X22276Y86157D02*
Y86563D01*
X22682D01*
Y86157D01*
X22276D01*
X22377Y86258D02*
Y86462D01*
X22581D01*
Y86258D01*
X22377D01*
X22136Y31814D02*
Y32220D01*
X22542D01*
Y31814D01*
X22136D01*
X22237Y31915D02*
Y32119D01*
X22441D01*
Y31915D01*
X22237D01*
X21971Y46533D02*
Y46939D01*
X22377D01*
Y46533D01*
X21971D01*
X22073Y46634D02*
Y46838D01*
X22276D01*
Y46634D01*
X22073D01*
X21895Y51359D02*
Y51765D01*
X22301D01*
Y51359D01*
X21895D01*
X21996Y51460D02*
Y51664D01*
X22200D01*
Y51460D01*
X21996D01*
X21895Y50038D02*
Y50444D01*
X22301D01*
Y50038D01*
X21895D01*
X21996Y50140D02*
Y50343D01*
X22200D01*
Y50140D01*
X21996D01*
X21895Y49073D02*
Y49479D01*
X22301D01*
Y49073D01*
X21895D01*
X21996Y49174D02*
Y49378D01*
X22200D01*
Y49174D01*
X21996D01*
X21361Y27610D02*
Y28016D01*
X21768D01*
Y27610D01*
X21361D01*
X21463Y27711D02*
Y27915D01*
X21666D01*
Y27711D01*
X21463D01*
X21133Y110922D02*
Y111328D01*
X21539D01*
Y110922D01*
X21133D01*
X21234Y111023D02*
Y111227D01*
X21438D01*
Y111023D01*
X21234D01*
X21006Y95682D02*
Y96088D01*
X21412D01*
Y95682D01*
X21006D01*
X21107Y95783D02*
Y95987D01*
X21311D01*
Y95783D01*
X21107D01*
X21006Y45441D02*
Y45847D01*
X21412D01*
Y45441D01*
X21006D01*
X21107Y45542D02*
Y45745D01*
X21311D01*
Y45542D01*
X21107D01*
X20922Y113716D02*
Y114122D01*
X21328D01*
Y113716D01*
X20922D01*
X21023Y113817D02*
Y114021D01*
X21227D01*
Y113817D01*
X21023D01*
X20879Y94793D02*
Y95199D01*
X21285D01*
Y94793D01*
X20879D01*
X20980Y94894D02*
Y95098D01*
X21184D01*
Y94894D01*
X20980D01*
X20752Y124765D02*
Y125171D01*
X21158D01*
Y124765D01*
X20752D01*
X20853Y124866D02*
Y125070D01*
X21057D01*
Y124866D01*
X20853D01*
X20625Y92888D02*
Y93294D01*
X21031D01*
Y92888D01*
X20625D01*
X20726Y92989D02*
Y93193D01*
X20930D01*
Y92989D01*
X20726D01*
X20498Y106731D02*
Y107137D01*
X20904D01*
Y106731D01*
X20498D01*
X20599Y106832D02*
Y107036D01*
X20803D01*
Y106832D01*
X20599D01*
X20244Y7417D02*
Y7823D01*
X20650D01*
Y7417D01*
X20244D01*
X20345Y7518D02*
Y7722D01*
X20549D01*
Y7518D01*
X20345D01*
X20117Y24054D02*
Y24460D01*
X20523D01*
Y24054D01*
X20117D01*
X20218Y24155D02*
Y24359D01*
X20422D01*
Y24155D01*
X20218D01*
X19990Y9830D02*
Y10236D01*
X20396D01*
Y9830D01*
X19990D01*
X20091Y9931D02*
Y10135D01*
X20295D01*
Y9931D01*
X20091D01*
X19863Y11735D02*
Y12141D01*
X20269D01*
Y11735D01*
X19863D01*
X19964Y11836D02*
Y12040D01*
X20168D01*
Y11836D01*
X19964D01*
X19863Y73711D02*
Y74117D01*
X20269D01*
Y73711D01*
X19863D01*
X19964Y73812D02*
Y74016D01*
X20168D01*
Y73812D01*
X19964D01*
X19863Y72949D02*
Y73355D01*
X20269D01*
Y72949D01*
X19863D01*
X19964Y73050D02*
Y73254D01*
X20168D01*
Y73050D01*
X19964D01*
X19837Y18999D02*
Y19406D01*
X20244D01*
Y18999D01*
X19837D01*
X19939Y19101D02*
Y19304D01*
X20142D01*
Y19101D01*
X19939D01*
X19787Y112243D02*
Y112649D01*
X20193D01*
Y112243D01*
X19787D01*
X19888Y112344D02*
Y112547D01*
X20091D01*
Y112344D01*
X19888D01*
X19761Y22098D02*
Y22504D01*
X20168D01*
Y22098D01*
X19761D01*
X19863Y22200D02*
Y22403D01*
X20066D01*
Y22200D01*
X19863D01*
X19736Y34087D02*
Y34493D01*
X20142D01*
Y34087D01*
X19736D01*
X19837Y34188D02*
Y34392D01*
X20041D01*
Y34188D01*
X19837D01*
X19585Y35587D02*
Y35993D01*
X19991D01*
Y35587D01*
X19585D01*
X19687Y35689D02*
Y35892D01*
X19890D01*
Y35689D01*
X19687D01*
X19355Y78029D02*
Y78435D01*
X19761D01*
Y78029D01*
X19355D01*
X19456Y78130D02*
Y78334D01*
X19660D01*
Y78130D01*
X19456D01*
X19228Y114224D02*
Y114630D01*
X19634D01*
Y114224D01*
X19228D01*
X19329Y114325D02*
Y114529D01*
X19533D01*
Y114325D01*
X19329D01*
X19126Y108306D02*
Y108712D01*
X19533D01*
Y108306D01*
X19126D01*
X19228Y108407D02*
Y108610D01*
X19431D01*
Y108407D01*
X19228D01*
X18974Y73711D02*
Y74117D01*
X19380D01*
Y73711D01*
X18974D01*
X19075Y73812D02*
Y74016D01*
X19279D01*
Y73812D01*
X19075D01*
X18974Y72949D02*
Y73355D01*
X19380D01*
Y72949D01*
X18974D01*
X19075Y73050D02*
Y73254D01*
X19279D01*
Y73050D01*
X19075D01*
X18466Y94666D02*
Y95072D01*
X18872D01*
Y94666D01*
X18466D01*
X18567Y94767D02*
Y94971D01*
X18771D01*
Y94767D01*
X18567D01*
X18212Y106350D02*
Y106756D01*
X18618D01*
Y106350D01*
X18212D01*
X18313Y106451D02*
Y106655D01*
X18517D01*
Y106451D01*
X18313D01*
X18085Y124765D02*
Y125171D01*
X18491D01*
Y124765D01*
X18085D01*
X18186Y124866D02*
Y125070D01*
X18390D01*
Y124866D01*
X18186D01*
X18085Y7867D02*
Y8273D01*
X18491D01*
Y7867D01*
X18085D01*
X18186Y7968D02*
Y8171D01*
X18390D01*
Y7968D01*
X18186D01*
X18085Y7008D02*
Y7414D01*
X18491D01*
Y7008D01*
X18085D01*
X18186Y7109D02*
Y7313D01*
X18390D01*
Y7109D01*
X18186D01*
X17958Y78029D02*
Y78435D01*
X18364D01*
Y78029D01*
X17958D01*
X18059Y78130D02*
Y78334D01*
X18263D01*
Y78130D01*
X18059D01*
X17945Y44333D02*
Y44740D01*
X18351D01*
Y44333D01*
X17945D01*
X18047Y44435D02*
Y44638D01*
X18250D01*
Y44435D01*
X18047D01*
X17932Y41783D02*
Y42189D01*
X18339D01*
Y41783D01*
X17932D01*
X18034Y41885D02*
Y42088D01*
X18237D01*
Y41885D01*
X18034D01*
X17856Y34671D02*
Y35077D01*
X18263D01*
Y34671D01*
X17856D01*
X17958Y34773D02*
Y34976D01*
X18161D01*
Y34773D01*
X17958D01*
X17855Y38880D02*
Y39286D01*
X18262D01*
Y38880D01*
X17855D01*
X17957Y38982D02*
Y39185D01*
X18160D01*
Y38982D01*
X17957D01*
X17854Y40279D02*
Y40685D01*
X18260D01*
Y40279D01*
X17854D01*
X17956Y40380D02*
Y40584D01*
X18159D01*
Y40380D01*
X17956D01*
X17831Y37262D02*
Y37668D01*
X18237D01*
Y37262D01*
X17831D01*
X17932Y37363D02*
Y37567D01*
X18136D01*
Y37363D01*
X17932D01*
X17729Y103378D02*
Y103784D01*
X18136D01*
Y103378D01*
X17729D01*
X17831Y103480D02*
Y103683D01*
X18034D01*
Y103480D01*
X17831D01*
X17704Y107493D02*
Y107899D01*
X18110D01*
Y107493D01*
X17704D01*
X17805Y107594D02*
Y107798D01*
X18009D01*
Y107594D01*
X17805D01*
X17704Y66091D02*
Y66497D01*
X18110D01*
Y66091D01*
X17704D01*
X17805Y66192D02*
Y66396D01*
X18009D01*
Y66192D01*
X17805D01*
X17526Y93015D02*
Y93421D01*
X17932D01*
Y93015D01*
X17526D01*
X17628Y93116D02*
Y93320D01*
X17831D01*
Y93116D01*
X17628D01*
X17526Y90729D02*
Y91135D01*
X17932D01*
Y90729D01*
X17526D01*
X17628Y90830D02*
Y91034D01*
X17831D01*
Y90830D01*
X17628D01*
X17176Y81605D02*
Y82011D01*
X17582D01*
Y81605D01*
X17176D01*
X17277Y81706D02*
Y81910D01*
X17481D01*
Y81706D01*
X17277D01*
X17069Y11024D02*
Y11430D01*
X17475D01*
Y11024D01*
X17069D01*
X17170Y11125D02*
Y11328D01*
X17374D01*
Y11125D01*
X17170D01*
X16815Y92634D02*
Y93040D01*
X17221D01*
Y92634D01*
X16815D01*
X16916Y92735D02*
Y92939D01*
X17120D01*
Y92735D01*
X16916D01*
X16766Y89185D02*
Y89591D01*
X17172D01*
Y89185D01*
X16766D01*
X16867Y89287D02*
Y89490D01*
X17071D01*
Y89287D01*
X16867D01*
X16561Y96571D02*
Y96977D01*
X16967D01*
Y96571D01*
X16561D01*
X16662Y96672D02*
Y96876D01*
X16866D01*
Y96672D01*
X16662D01*
X16408Y31826D02*
Y32233D01*
X16815D01*
Y31826D01*
X16408D01*
X16510Y31928D02*
Y32131D01*
X16713D01*
Y31928D01*
X16510D01*
X16307Y78638D02*
Y79045D01*
X16713D01*
Y78638D01*
X16307D01*
X16408Y78740D02*
Y78943D01*
X16612D01*
Y78740D01*
X16408D01*
X16231Y20777D02*
Y21184D01*
X16637D01*
Y20777D01*
X16231D01*
X16332Y20879D02*
Y21082D01*
X16535D01*
Y20879D01*
X16332D01*
X16180Y24562D02*
Y24968D01*
X16586D01*
Y24562D01*
X16180D01*
X16281Y24663D02*
Y24867D01*
X16485D01*
Y24663D01*
X16281D01*
X16180Y11024D02*
Y11430D01*
X16586D01*
Y11024D01*
X16180D01*
X16281Y11125D02*
Y11328D01*
X16485D01*
Y11125D01*
X16281D01*
X15545Y95174D02*
Y95580D01*
X15951D01*
Y95174D01*
X15545D01*
X15646Y95275D02*
Y95479D01*
X15850D01*
Y95275D01*
X15646D01*
X15519Y117475D02*
Y117881D01*
X15926D01*
Y117475D01*
X15519D01*
X15621Y117577D02*
Y117780D01*
X15824D01*
Y117577D01*
X15621D01*
X15358Y76835D02*
Y77241D01*
X15764D01*
Y76835D01*
X15358D01*
X15459Y76936D02*
Y77140D01*
X15662D01*
Y76936D01*
X15459D01*
X15164Y123342D02*
Y123749D01*
X15570D01*
Y123342D01*
X15164D01*
X15265Y123444D02*
Y123647D01*
X15469D01*
Y123444D01*
X15265D01*
X15088Y76149D02*
Y76556D01*
X15494D01*
Y76149D01*
X15088D01*
X15189Y76251D02*
Y76454D01*
X15392D01*
Y76251D01*
X15189D01*
X14834Y22657D02*
Y23063D01*
X15240D01*
Y22657D01*
X14834D01*
X14935Y22758D02*
Y22962D01*
X15138D01*
Y22758D01*
X14935D01*
X14728Y125599D02*
Y126005D01*
X15134D01*
Y125599D01*
X14728D01*
X14829Y125700D02*
Y125903D01*
X15032D01*
Y125700D01*
X14829D01*
X14717Y10846D02*
Y11252D01*
X15123D01*
Y10846D01*
X14717D01*
X14818Y10947D02*
Y11151D01*
X15022D01*
Y10947D01*
X14818D01*
X14532Y76832D02*
Y77238D01*
X14938D01*
Y76832D01*
X14532D01*
X14633Y76933D02*
Y77136D01*
X14837D01*
Y76933D01*
X14633D01*
X14275Y110922D02*
Y111328D01*
X14681D01*
Y110922D01*
X14275D01*
X14376Y111023D02*
Y111227D01*
X14580D01*
Y111023D01*
X14376D01*
X14275Y78410D02*
Y78816D01*
X14681D01*
Y78410D01*
X14275D01*
X14376Y78511D02*
Y78715D01*
X14580D01*
Y78511D01*
X14376D01*
X14199Y76175D02*
Y76581D01*
X14605D01*
Y76175D01*
X14199D01*
X14300Y76276D02*
Y76479D01*
X14503D01*
Y76276D01*
X14300D01*
X14148Y95174D02*
Y95580D01*
X14554D01*
Y95174D01*
X14148D01*
X14249Y95275D02*
Y95479D01*
X14453D01*
Y95275D01*
X14249D01*
X14021Y65710D02*
Y66116D01*
X14427D01*
Y65710D01*
X14021D01*
X14122Y65811D02*
Y66015D01*
X14326D01*
Y65811D01*
X14122D01*
X14021Y64948D02*
Y65354D01*
X14427D01*
Y64948D01*
X14021D01*
X14122Y65049D02*
Y65253D01*
X14326D01*
Y65049D01*
X14122D01*
X13995Y64186D02*
Y64592D01*
X14402D01*
Y64186D01*
X13995D01*
X14097Y64287D02*
Y64491D01*
X14300D01*
Y64287D01*
X14097D01*
X13919Y117145D02*
Y117551D01*
X14326D01*
Y117145D01*
X13919D01*
X14021Y117246D02*
Y117450D01*
X14224D01*
Y117246D01*
X14021D01*
X13767Y8433D02*
Y8839D01*
X14173D01*
Y8433D01*
X13767D01*
X13868Y8534D02*
Y8738D01*
X14072D01*
Y8534D01*
X13868D01*
X13736Y76797D02*
Y77203D01*
X14142D01*
Y76797D01*
X13736D01*
X13837Y76898D02*
Y77102D01*
X14041D01*
Y76898D01*
X13837D01*
X13640Y79426D02*
Y79832D01*
X14046D01*
Y79426D01*
X13640D01*
X13741Y79527D02*
Y79731D01*
X13945D01*
Y79527D01*
X13741D01*
X13386Y5512D02*
Y5918D01*
X13792D01*
Y5512D01*
X13386D01*
X13487Y5613D02*
Y5817D01*
X13691D01*
Y5613D01*
X13487D01*
X13386Y4750D02*
Y5156D01*
X13792D01*
Y4750D01*
X13386D01*
X13487Y4851D02*
Y5055D01*
X13691D01*
Y4851D01*
X13487D01*
X13259Y65710D02*
Y66116D01*
X13665D01*
Y65710D01*
X13259D01*
X13360Y65811D02*
Y66015D01*
X13564D01*
Y65811D01*
X13360D01*
X13259Y64948D02*
Y65354D01*
X13665D01*
Y64948D01*
X13259D01*
X13360Y65049D02*
Y65253D01*
X13564D01*
Y65049D01*
X13360D01*
X13259Y64186D02*
Y64592D01*
X13665D01*
Y64186D01*
X13259D01*
X13360Y64287D02*
Y64491D01*
X13564D01*
Y64287D01*
X13360D01*
X13259Y41072D02*
Y41478D01*
X13665D01*
Y41072D01*
X13259D01*
X13360Y41173D02*
Y41377D01*
X13564D01*
Y41173D01*
X13360D01*
X13005Y120066D02*
Y120472D01*
X13411D01*
Y120066D01*
X13005D01*
X13106Y120167D02*
Y120371D01*
X13310D01*
Y120167D01*
X13106D01*
X12878Y124638D02*
Y125044D01*
X13284D01*
Y124638D01*
X12878D01*
X12979Y124739D02*
Y124943D01*
X13183D01*
Y124739D01*
X12979D01*
X12878Y92634D02*
Y93040D01*
X13284D01*
Y92634D01*
X12878D01*
X12979Y92735D02*
Y92939D01*
X13183D01*
Y92735D01*
X12979D01*
X12878Y78918D02*
Y79324D01*
X13284D01*
Y78918D01*
X12878D01*
X12979Y79019D02*
Y79223D01*
X13183D01*
Y79019D01*
X12979D01*
X12878Y38014D02*
Y38420D01*
X13284D01*
Y38014D01*
X12878D01*
X12979Y38115D02*
Y38319D01*
X13183D01*
Y38115D01*
X12979D01*
X12878Y35814D02*
Y36220D01*
X13284D01*
Y35814D01*
X12878D01*
X12979Y35915D02*
Y36119D01*
X13183D01*
Y35915D01*
X12979D01*
X12751Y122098D02*
Y122504D01*
X13157D01*
Y122098D01*
X12751D01*
X12852Y122199D02*
Y122403D01*
X13056D01*
Y122199D01*
X12852D01*
X12624Y89713D02*
Y90119D01*
X13030D01*
Y89713D01*
X12624D01*
X12725Y89814D02*
Y90018D01*
X12929D01*
Y89814D01*
X12725D01*
X12624Y5512D02*
Y5918D01*
X13030D01*
Y5512D01*
X12624D01*
X12725Y5613D02*
Y5817D01*
X12929D01*
Y5613D01*
X12725D01*
X12624Y4750D02*
Y5156D01*
X13030D01*
Y4750D01*
X12624D01*
X12725Y4851D02*
Y5055D01*
X12929D01*
Y4851D01*
X12725D01*
X12167Y76175D02*
Y76581D01*
X12573D01*
Y76175D01*
X12167D01*
X12268Y76276D02*
Y76479D01*
X12471D01*
Y76276D01*
X12268D01*
X12116Y12243D02*
Y12649D01*
X12522D01*
Y12243D01*
X12116D01*
X12217Y12344D02*
Y12548D01*
X12421D01*
Y12344D01*
X12217D01*
X11989Y119913D02*
Y120320D01*
X12395D01*
Y119913D01*
X11989D01*
X12090Y120015D02*
Y120218D01*
X12294D01*
Y120015D01*
X12090D01*
X11786Y76810D02*
Y77216D01*
X12192D01*
Y76810D01*
X11786D01*
X11887Y76911D02*
Y77114D01*
X12090D01*
Y76911D01*
X11887D01*
X11608Y125781D02*
Y126187D01*
X12014D01*
Y125781D01*
X11608D01*
X11709Y125882D02*
Y126086D01*
X11913D01*
Y125882D01*
X11709D01*
X11608Y94920D02*
Y95326D01*
X12014D01*
Y94920D01*
X11608D01*
X11709Y95021D02*
Y95225D01*
X11913D01*
Y95021D01*
X11709D01*
X11405Y76175D02*
Y76581D01*
X11811D01*
Y76175D01*
X11405D01*
X11506Y76276D02*
Y76479D01*
X11709D01*
Y76276D01*
X11506D01*
X11227Y84379D02*
Y84785D01*
X11633D01*
Y84379D01*
X11227D01*
X11328Y84480D02*
Y84684D01*
X11532D01*
Y84480D01*
X11328D01*
X11219Y87478D02*
Y87884D01*
X11625D01*
Y87478D01*
X11219D01*
X11320Y87579D02*
Y87782D01*
X11523D01*
Y87579D01*
X11320D01*
X10897Y76810D02*
Y77216D01*
X11303D01*
Y76810D01*
X10897D01*
X10998Y76911D02*
Y77114D01*
X11201D01*
Y76911D01*
X10998D01*
X10592Y119913D02*
Y120320D01*
X10998D01*
Y119913D01*
X10592D01*
X10693Y120015D02*
Y120218D01*
X10897D01*
Y120015D01*
X10693D01*
X10516Y76175D02*
Y76581D01*
X10922D01*
Y76175D01*
X10516D01*
X10617Y76276D02*
Y76479D01*
X10820D01*
Y76276D01*
X10617D01*
X10338Y20117D02*
Y20523D01*
X10744D01*
Y20117D01*
X10338D01*
X10439Y20218D02*
Y20422D01*
X10643D01*
Y20218D01*
X10439D01*
X10211Y1702D02*
Y2108D01*
X10617D01*
Y1702D01*
X10211D01*
X10312Y1803D02*
Y2007D01*
X10516D01*
Y1803D01*
X10312D01*
X10211Y84379D02*
Y84785D01*
X10617D01*
Y84379D01*
X10211D01*
X10312Y84480D02*
Y84684D01*
X10516D01*
Y84480D01*
X10312D01*
X10211Y2591D02*
Y2997D01*
X10617D01*
Y2591D01*
X10211D01*
X10312Y2692D02*
Y2896D01*
X10516D01*
Y2692D01*
X10312D01*
X9957Y123622D02*
Y124028D01*
X10363D01*
Y123622D01*
X9957D01*
X10058Y123723D02*
Y123927D01*
X10262D01*
Y123723D01*
X10058D01*
X9957Y49936D02*
Y50342D01*
X10363D01*
Y49936D01*
X9957D01*
X10058Y50037D02*
Y50240D01*
X10262D01*
Y50037D01*
X10058D01*
X9893Y110858D02*
Y111265D01*
X10300D01*
Y110858D01*
X9893D01*
X9995Y110960D02*
Y111163D01*
X10198D01*
Y110960D01*
X9995D01*
X9881Y41072D02*
Y41478D01*
X10287D01*
Y41072D01*
X9881D01*
X9982Y41173D02*
Y41377D01*
X10185D01*
Y41173D01*
X9982D01*
X9449Y1702D02*
Y2108D01*
X9855D01*
Y1702D01*
X9449D01*
X9550Y1803D02*
Y2007D01*
X9754D01*
Y1803D01*
X9550D01*
X9449Y2591D02*
Y2997D01*
X9855D01*
Y2591D01*
X9449D01*
X9550Y2692D02*
Y2896D01*
X9754D01*
Y2692D01*
X9550D01*
X9398Y86665D02*
Y87071D01*
X9804D01*
Y86665D01*
X9398D01*
X9500Y86766D02*
Y86970D01*
X9703D01*
Y86766D01*
X9500D01*
X9068Y122987D02*
Y123393D01*
X9474D01*
Y122987D01*
X9068D01*
X9169Y123088D02*
Y123292D01*
X9373D01*
Y123088D01*
X9169D01*
X8966Y88316D02*
Y88722D01*
X9373D01*
Y88316D01*
X8966D01*
X9068Y88417D02*
Y88621D01*
X9271D01*
Y88417D01*
X9068D01*
X8433Y45263D02*
Y45669D01*
X8839D01*
Y45263D01*
X8433D01*
X8534Y45364D02*
Y45568D01*
X8738D01*
Y45364D01*
X8534D01*
X8331Y44425D02*
Y44831D01*
X8738D01*
Y44425D01*
X8331D01*
X8433Y44526D02*
Y44729D01*
X8636D01*
Y44526D01*
X8433D01*
X8052Y14275D02*
Y14681D01*
X8458D01*
Y14275D01*
X8052D01*
X8153Y14376D02*
Y14580D01*
X8357D01*
Y14376D01*
X8153D01*
X7417Y109398D02*
Y109804D01*
X7823D01*
Y109398D01*
X7417D01*
X7518Y109499D02*
Y109703D01*
X7722D01*
Y109499D01*
X7518D01*
X7290Y80213D02*
Y80620D01*
X7696D01*
Y80213D01*
X7290D01*
X7391Y80315D02*
Y80518D01*
X7595D01*
Y80315D01*
X7391D01*
X7163Y10211D02*
Y10617D01*
X7569D01*
Y10211D01*
X7163D01*
X7264Y10312D02*
Y10516D01*
X7468D01*
Y10312D01*
X7264D01*
X6528Y69139D02*
Y69545D01*
X6934D01*
Y69139D01*
X6528D01*
X6629Y69240D02*
Y69444D01*
X6833D01*
Y69240D01*
X6629D01*
X5791Y86792D02*
Y87198D01*
X6198D01*
Y86792D01*
X5791D01*
X5893Y86893D02*
Y87097D01*
X6096D01*
Y86893D01*
X5893D01*
X58979Y107239D02*
Y107645D01*
X59385D01*
Y107239D01*
X58979D01*
X59080Y107340D02*
Y107544D01*
X59284D01*
Y107340D01*
X59080D01*
X58598Y102159D02*
Y102565D01*
X59004D01*
Y102159D01*
X58598D01*
X58699Y102260D02*
Y102464D01*
X58903D01*
Y102260D01*
X58699D01*
X58496Y110564D02*
Y110970D01*
X58903D01*
Y110564D01*
X58496D01*
X58598Y110665D02*
Y110868D01*
X58801D01*
Y110665D01*
X58598D01*
X58471Y83617D02*
Y84023D01*
X58877D01*
Y83617D01*
X58471D01*
X58572Y83718D02*
Y83922D01*
X58776D01*
Y83718D01*
X58572D01*
X58217Y109144D02*
Y109550D01*
X58623D01*
Y109144D01*
X58217D01*
X58318Y109245D02*
Y109449D01*
X58522D01*
Y109245D01*
X58318D01*
X58217Y78283D02*
Y78689D01*
X58623D01*
Y78283D01*
X58217D01*
X58318Y78384D02*
Y78588D01*
X58522D01*
Y78384D01*
X58318D01*
X56439Y94793D02*
Y95199D01*
X56845D01*
Y94793D01*
X56439D01*
X56540Y94894D02*
Y95098D01*
X56744D01*
Y94894D01*
X56540D01*
X56439Y27864D02*
Y28270D01*
X56845D01*
Y27864D01*
X56439D01*
X56540Y27965D02*
Y28169D01*
X56744D01*
Y27965D01*
X56540D01*
X56022Y22113D02*
Y22520D01*
X56429D01*
Y22113D01*
X56022D01*
X56124Y22215D02*
Y22418D01*
X56327D01*
Y22215D01*
X56124D01*
X56022Y20914D02*
Y21320D01*
X56429D01*
Y20914D01*
X56022D01*
X56124Y21015D02*
Y21218D01*
X56327D01*
Y21015D01*
X56124D01*
X56022Y19713D02*
Y20120D01*
X56429D01*
Y19713D01*
X56022D01*
X56124Y19815D02*
Y20018D01*
X56327D01*
Y19815D01*
X56124D01*
X56022Y17914D02*
Y18320D01*
X56429D01*
Y17914D01*
X56022D01*
X56124Y18015D02*
Y18218D01*
X56327D01*
Y18015D01*
X56124D01*
X55296Y29261D02*
Y29667D01*
X55702D01*
Y29261D01*
X55296D01*
X55397Y29362D02*
Y29566D01*
X55601D01*
Y29362D01*
X55397D01*
X53899Y23314D02*
Y23720D01*
X54305D01*
Y23314D01*
X53899D01*
X54000Y23415D02*
Y23618D01*
X54204D01*
Y23415D01*
X54000D01*
X53899Y70028D02*
Y70434D01*
X54305D01*
Y70028D01*
X53899D01*
X54000Y70129D02*
Y70333D01*
X54204D01*
Y70129D01*
X54000D01*
X53391Y93142D02*
Y93548D01*
X53797D01*
Y93142D01*
X53391D01*
X53492Y93243D02*
Y93447D01*
X53696D01*
Y93243D01*
X53492D01*
X5131Y74193D02*
Y74600D01*
X5537D01*
Y74193D01*
X5131D01*
X5232Y74295D02*
Y74498D01*
X5436D01*
Y74295D01*
X5232D01*
X52883Y19228D02*
Y19634D01*
X53289D01*
Y19228D01*
X52883D01*
X52984Y19329D02*
Y19533D01*
X53188D01*
Y19329D01*
X52984D01*
X52883Y110541D02*
Y110947D01*
X53289D01*
Y110541D01*
X52883D01*
X52984Y110642D02*
Y110846D01*
X53188D01*
Y110642D01*
X52984D01*
X52502Y29388D02*
Y29794D01*
X52908D01*
Y29388D01*
X52502D01*
X52603Y29489D02*
Y29693D01*
X52807D01*
Y29489D01*
X52603D01*
X52222Y35636D02*
Y36043D01*
X52629D01*
Y35636D01*
X52222D01*
X52324Y35738D02*
Y35941D01*
X52527D01*
Y35738D01*
X52324D01*
X51380Y4115D02*
Y4521D01*
X51787D01*
Y4115D01*
X51380D01*
X51482Y4216D02*
Y4420D01*
X51685D01*
Y4216D01*
X51482D01*
X51257Y96012D02*
Y96418D01*
X51664D01*
Y96012D01*
X51257D01*
X51359Y96114D02*
Y96317D01*
X51562D01*
Y96114D01*
X51359D01*
X51029Y24562D02*
Y24968D01*
X51435D01*
Y24562D01*
X51029D01*
X51130Y24663D02*
Y24867D01*
X51333D01*
Y24663D01*
X51130D01*
X50444Y25527D02*
Y25933D01*
X50851D01*
Y25527D01*
X50444D01*
X50546Y25629D02*
Y25832D01*
X50749D01*
Y25629D01*
X50546D01*
X50343Y22657D02*
Y23063D01*
X50749D01*
Y22657D01*
X50343D01*
X50444Y22758D02*
Y22962D01*
X50648D01*
Y22758D01*
X50444D01*
X50343Y123876D02*
Y124282D01*
X50749D01*
Y123876D01*
X50343D01*
X50444Y123977D02*
Y124181D01*
X50648D01*
Y123977D01*
X50444D01*
X50343Y121971D02*
Y122377D01*
X50749D01*
Y121971D01*
X50343D01*
X50444Y122072D02*
Y122276D01*
X50648D01*
Y122072D01*
X50444D01*
X50343Y119812D02*
Y120218D01*
X50749D01*
Y119812D01*
X50343D01*
X50444Y119913D02*
Y120117D01*
X50648D01*
Y119913D01*
X50444D01*
X50216Y18466D02*
Y18872D01*
X50622D01*
Y18466D01*
X50216D01*
X50317Y18567D02*
Y18771D01*
X50521D01*
Y18567D01*
X50317D01*
X50012Y72568D02*
Y72974D01*
X50418D01*
Y72568D01*
X50012D01*
X50114Y72669D02*
Y72873D01*
X50317D01*
Y72669D01*
X50114D01*
X49835Y55143D02*
Y55550D01*
X50241D01*
Y55143D01*
X49835D01*
X49936Y55245D02*
Y55448D01*
X50140D01*
Y55245D01*
X49936D01*
X49606Y4166D02*
Y4572D01*
X50013D01*
Y4166D01*
X49606D01*
X49708Y4267D02*
Y4470D01*
X49911D01*
Y4267D01*
X49708D01*
X49555Y6604D02*
Y7010D01*
X49962D01*
Y6604D01*
X49555D01*
X49657Y6706D02*
Y6909D01*
X49860D01*
Y6706D01*
X49657D01*
X49327Y94158D02*
Y94564D01*
X49733D01*
Y94158D01*
X49327D01*
X49428Y94259D02*
Y94463D01*
X49632D01*
Y94259D01*
X49428D01*
X49327Y93396D02*
Y93802D01*
X49733D01*
Y93396D01*
X49327D01*
X49428Y93497D02*
Y93701D01*
X49632D01*
Y93497D01*
X49428D01*
X49327Y92380D02*
Y92786D01*
X49733D01*
Y92380D01*
X49327D01*
X49428Y92481D02*
Y92685D01*
X49632D01*
Y92481D01*
X49428D01*
X49200Y18440D02*
Y18847D01*
X49606D01*
Y18440D01*
X49200D01*
X49301Y18542D02*
Y18745D01*
X49505D01*
Y18542D01*
X49301D01*
X48819Y70790D02*
Y71196D01*
X49225D01*
Y70790D01*
X48819D01*
X48920Y70891D02*
Y71095D01*
X49124D01*
Y70891D01*
X48920D01*
X48819Y69901D02*
Y70307D01*
X49225D01*
Y69901D01*
X48819D01*
X48920Y70002D02*
Y70206D01*
X49124D01*
Y70002D01*
X48920D01*
X48539Y30683D02*
Y31090D01*
X48946D01*
Y30683D01*
X48539D01*
X48641Y30785D02*
Y30988D01*
X48844D01*
Y30785D01*
X48641D01*
X48438Y3480D02*
Y3886D01*
X48844D01*
Y3480D01*
X48438D01*
X48539Y3581D02*
Y3785D01*
X48743D01*
Y3581D01*
X48539D01*
X48184Y75362D02*
Y75768D01*
X48590D01*
Y75362D01*
X48184D01*
X48285Y75463D02*
Y75667D01*
X48489D01*
Y75463D01*
X48285D01*
X48184Y74600D02*
Y75006D01*
X48590D01*
Y74600D01*
X48184D01*
X48285Y74701D02*
Y74905D01*
X48489D01*
Y74701D01*
X48285D01*
X47930Y117272D02*
Y117678D01*
X48336D01*
Y117272D01*
X47930D01*
X48031Y117373D02*
Y117577D01*
X48235D01*
Y117373D01*
X48031D01*
X47930Y70790D02*
Y71196D01*
X48336D01*
Y70790D01*
X47930D01*
X48031Y70891D02*
Y71095D01*
X48235D01*
Y70891D01*
X48031D01*
X47930Y69901D02*
Y70307D01*
X48336D01*
Y69901D01*
X47930D01*
X48031Y70002D02*
Y70206D01*
X48235D01*
Y70002D01*
X48031D01*
X47904Y5410D02*
Y5817D01*
X48311D01*
Y5410D01*
X47904D01*
X48006Y5512D02*
Y5715D01*
X48209D01*
Y5512D01*
X48006D01*
X47752Y23165D02*
Y23571D01*
X48158D01*
Y23165D01*
X47752D01*
X47854Y23266D02*
Y23470D01*
X48057D01*
Y23266D01*
X47854D01*
X47676Y18847D02*
Y19253D01*
X48082D01*
Y18847D01*
X47676D01*
X47777Y18948D02*
Y19152D01*
X47981D01*
Y18948D01*
X47777D01*
X47549Y16866D02*
Y17272D01*
X47955D01*
Y16866D01*
X47549D01*
X47650Y16967D02*
Y17170D01*
X47854D01*
Y16967D01*
X47650D01*
X47549Y89433D02*
Y89840D01*
X47955D01*
Y89433D01*
X47549D01*
X47650Y89535D02*
Y89738D01*
X47854D01*
Y89535D01*
X47650D01*
X47422Y16053D02*
Y16459D01*
X47828D01*
Y16053D01*
X47422D01*
X47523Y16154D02*
Y16358D01*
X47727D01*
Y16154D01*
X47523D01*
X47422Y75362D02*
Y75768D01*
X47828D01*
Y75362D01*
X47422D01*
X47523Y75463D02*
Y75667D01*
X47727D01*
Y75463D01*
X47523D01*
X47422Y74600D02*
Y75006D01*
X47828D01*
Y74600D01*
X47422D01*
X47523Y74701D02*
Y74905D01*
X47727D01*
Y74701D01*
X47523D01*
X47269Y38278D02*
Y38684D01*
X47676D01*
Y38278D01*
X47269D01*
X47371Y38379D02*
Y38583D01*
X47574D01*
Y38379D01*
X47371D01*
X47041Y70790D02*
Y71196D01*
X47447D01*
Y70790D01*
X47041D01*
X47142Y70891D02*
Y71095D01*
X47346D01*
Y70891D01*
X47142D01*
X47041Y69901D02*
Y70307D01*
X47447D01*
Y69901D01*
X47041D01*
X47142Y70002D02*
Y70206D01*
X47346D01*
Y70002D01*
X47142D01*
X46965Y23139D02*
Y23546D01*
X47371D01*
Y23139D01*
X46965D01*
X47066Y23241D02*
Y23444D01*
X47269D01*
Y23241D01*
X47066D01*
X46914Y36068D02*
Y36474D01*
X47320D01*
Y36068D01*
X46914D01*
X47015Y36170D02*
Y36373D01*
X47219D01*
Y36170D01*
X47015D01*
X46863Y20625D02*
X46660Y21031D01*
X47066D01*
X46863Y20625D01*
Y20726D02*
X46761Y20930D01*
X46965D01*
X46863Y20726D01*
X46736Y21260D02*
X46533Y21666D01*
X46939D01*
X46736Y21260D01*
Y21361D02*
X46634Y21565D01*
X46838D01*
X46736Y21361D01*
X46533Y54788D02*
Y55194D01*
X46939D01*
Y54788D01*
X46533D01*
X46634Y54889D02*
Y55093D01*
X46838D01*
Y54889D01*
X46634D01*
X45771Y58344D02*
Y58750D01*
X46177D01*
Y58344D01*
X45771D01*
X45872Y58445D02*
Y58649D01*
X46076D01*
Y58445D01*
X45872D01*
X45771Y55550D02*
Y55956D01*
X46177D01*
Y55550D01*
X45771D01*
X45872Y55651D02*
Y55855D01*
X46076D01*
Y55651D01*
X45872D01*
X45720Y32131D02*
Y32537D01*
X46126D01*
Y32131D01*
X45720D01*
X45822Y32233D02*
Y32436D01*
X46025D01*
Y32233D01*
X45822D01*
X45517Y89408D02*
Y89814D01*
X45923D01*
Y89408D01*
X45517D01*
X45618Y89510D02*
Y89713D01*
X45822D01*
Y89510D01*
X45618D01*
X45364Y53848D02*
Y54254D01*
X45771D01*
Y53848D01*
X45364D01*
X45466Y53950D02*
Y54153D01*
X45669D01*
Y53950D01*
X45466D01*
X45009Y58344D02*
Y58750D01*
X45415D01*
Y58344D01*
X45009D01*
X45110Y58445D02*
Y58649D01*
X45314D01*
Y58445D01*
X45110D01*
X44755Y55550D02*
Y55956D01*
X45161D01*
Y55550D01*
X44755D01*
X44856Y55651D02*
Y55855D01*
X45060D01*
Y55651D01*
X44856D01*
X44704Y17348D02*
Y17755D01*
X45110D01*
Y17348D01*
X44704D01*
X44806Y17450D02*
Y17653D01*
X45009D01*
Y17450D01*
X44806D01*
X44399Y25857D02*
X44196Y26264D01*
X44602D01*
X44399Y25857D01*
Y25959D02*
X44298Y26162D01*
X44501D01*
X44399Y25959D01*
X44221Y24779D02*
X44018Y25185D01*
X44425D01*
X44221Y24779D01*
Y24881D02*
X44120Y25084D01*
X44323D01*
X44221Y24881D01*
X44145Y31064D02*
X43942Y31471D01*
X44348D01*
X44145Y31064D01*
Y31166D02*
X44044Y31369D01*
X44247D01*
X44145Y31166D01*
X43866Y37592D02*
Y37998D01*
X44272D01*
Y37592D01*
X43866D01*
X43967Y37694D02*
Y37897D01*
X44171D01*
Y37694D01*
X43967D01*
X44069Y29515D02*
X43866Y29921D01*
X44272D01*
X44069Y29515D01*
Y29616D02*
X43967Y29820D01*
X44171D01*
X44069Y29616D01*
X43853Y25858D02*
X43650Y26264D01*
X44056D01*
X43853Y25858D01*
Y25960D02*
X43751Y26163D01*
X43955D01*
X43853Y25960D01*
X4178Y110858D02*
Y111265D01*
X4585D01*
Y110858D01*
X4178D01*
X4280Y110960D02*
Y111163D01*
X4483D01*
Y110960D01*
X4280D01*
X43683Y24779D02*
X43480Y25185D01*
X43886D01*
X43683Y24779D01*
Y24881D02*
X43581Y25084D01*
X43785D01*
X43683Y24881D01*
X43383Y48311D02*
Y48717D01*
X43790D01*
Y48311D01*
X43383D01*
X43485Y48412D02*
Y48616D01*
X43688D01*
Y48412D01*
X43485D01*
X43358Y49327D02*
Y49733D01*
X43764D01*
Y49327D01*
X43358D01*
X43459Y49428D02*
Y49632D01*
X43663D01*
Y49428D01*
X43459D01*
X42977Y95555D02*
Y95961D01*
X43383D01*
Y95555D01*
X42977D01*
X43078Y95656D02*
Y95860D01*
X43282D01*
Y95656D01*
X43078D01*
X43180Y52756D02*
X42977Y53162D01*
X43383D01*
X43180Y52756D01*
Y52857D02*
X43078Y53061D01*
X43282D01*
X43180Y52857D01*
X43155Y53365D02*
X42951Y53772D01*
X43358D01*
X43155Y53365D01*
Y53467D02*
X43053Y53670D01*
X43256D01*
X43155Y53467D01*
X43078Y24816D02*
X42875Y25222D01*
X43282D01*
X43078Y24816D01*
Y24917D02*
X42977Y25121D01*
X43180D01*
X43078Y24917D01*
X42955Y30507D02*
X42751Y30914D01*
X43158D01*
X42955Y30507D01*
Y30609D02*
X42853Y30812D01*
X43056D01*
X42955Y30609D01*
X42582Y23648D02*
X42379Y24054D01*
X42786D01*
X42582Y23648D01*
Y23750D02*
X42481Y23953D01*
X42684D01*
X42582Y23750D01*
Y22848D02*
X42379Y23254D01*
X42786D01*
X42582Y22848D01*
Y22949D02*
X42481Y23153D01*
X42684D01*
X42582Y22949D01*
X42582Y22020D02*
X42379Y22426D01*
X42785D01*
X42582Y22020D01*
Y22121D02*
X42480Y22325D01*
X42683D01*
X42582Y22121D01*
X42545Y58572D02*
X42342Y58979D01*
X42748D01*
X42545Y58572D01*
Y58674D02*
X42443Y58877D01*
X42647D01*
X42545Y58674D01*
X42520Y24917D02*
X42316Y25324D01*
X42723D01*
X42520Y24917D01*
Y25019D02*
X42418Y25222D01*
X42621D01*
X42520Y25019D01*
X42426Y32825D02*
X42223Y33231D01*
X42629D01*
X42426Y32825D01*
Y32927D02*
X42325Y33130D01*
X42528D01*
X42426Y32927D01*
Y28825D02*
X42223Y29231D01*
X42629D01*
X42426Y28825D01*
Y28927D02*
X42325Y29130D01*
X42528D01*
X42426Y28927D01*
X42393Y29668D02*
X42189Y30075D01*
X42596D01*
X42393Y29668D01*
Y29770D02*
X42291Y29973D01*
X42494D01*
X42393Y29770D01*
X42172Y53446D02*
X41969Y53852D01*
X42376D01*
X42172Y53446D01*
Y53547D02*
X42071Y53750D01*
X42274D01*
X42172Y53547D01*
X42113Y59157D02*
X41910Y59563D01*
X42316D01*
X42113Y59157D01*
Y59258D02*
X42012Y59461D01*
X42215D01*
X42113Y59258D01*
X41732Y54534D02*
X41529Y54940D01*
X41935D01*
X41732Y54534D01*
Y54635D02*
X41631Y54839D01*
X41834D01*
X41732Y54635D01*
X41626Y32825D02*
X41423Y33231D01*
X41829D01*
X41626Y32825D01*
Y32927D02*
X41525Y33130D01*
X41728D01*
X41626Y32927D01*
Y29625D02*
X41423Y30031D01*
X41829D01*
X41626Y29625D01*
Y29727D02*
X41525Y29930D01*
X41728D01*
X41626Y29727D01*
Y28825D02*
X41423Y29231D01*
X41829D01*
X41626Y28825D01*
Y28927D02*
X41525Y29130D01*
X41728D01*
X41626Y28927D01*
Y27225D02*
X41423Y27631D01*
X41829D01*
X41626Y27225D01*
Y27327D02*
X41525Y27530D01*
X41728D01*
X41626Y27327D01*
X41199Y37592D02*
Y37998D01*
X41605D01*
Y37592D01*
X41199D01*
X41300Y37694D02*
Y37897D01*
X41504D01*
Y37694D01*
X41300D01*
X41372Y58200D02*
X41169Y58606D01*
X41575D01*
X41372Y58200D01*
Y58302D02*
X41271Y58505D01*
X41474D01*
X41372Y58302D01*
Y53446D02*
X41169Y53852D01*
X41575D01*
X41372Y53446D01*
Y53547D02*
X41271Y53750D01*
X41474D01*
X41372Y53547D01*
X41097Y61392D02*
Y61798D01*
X41504D01*
Y61392D01*
X41097D01*
X41199Y61493D02*
Y61697D01*
X41402D01*
Y61493D01*
X41199D01*
X40945Y117653D02*
Y118059D01*
X41351D01*
Y117653D01*
X40945D01*
X41046Y117754D02*
Y117958D01*
X41250D01*
Y117754D01*
X41046D01*
X40995Y59156D02*
X40792Y59562D01*
X41198D01*
X40995Y59156D01*
Y59258D02*
X40893Y59461D01*
X41097D01*
X40995Y59258D01*
X40869Y25671D02*
X40665Y26077D01*
X41072D01*
X40869Y25671D01*
Y25772D02*
X40767Y25975D01*
X40970D01*
X40869Y25772D01*
X40826Y24071D02*
X40623Y24477D01*
X41029D01*
X40826Y24071D01*
Y24172D02*
X40725Y24375D01*
X40928D01*
X40826Y24172D01*
Y23271D02*
X40623Y23677D01*
X41029D01*
X40826Y23271D01*
Y23372D02*
X40725Y23576D01*
X40928D01*
X40826Y23372D01*
Y32825D02*
X40623Y33231D01*
X41029D01*
X40826Y32825D01*
Y32927D02*
X40725Y33130D01*
X40928D01*
X40826Y32927D01*
Y32025D02*
X40623Y32431D01*
X41029D01*
X40826Y32025D01*
Y32127D02*
X40725Y32330D01*
X40928D01*
X40826Y32127D01*
Y30425D02*
X40623Y30831D01*
X41029D01*
X40826Y30425D01*
Y30526D02*
X40725Y30730D01*
X40928D01*
X40826Y30526D01*
Y28825D02*
X40623Y29231D01*
X41029D01*
X40826Y28825D01*
Y28927D02*
X40725Y29130D01*
X40928D01*
X40826Y28927D01*
Y28025D02*
X40623Y28431D01*
X41029D01*
X40826Y28025D01*
Y28127D02*
X40725Y28330D01*
X40928D01*
X40826Y28127D01*
X40640Y57455D02*
X40437Y57861D01*
X40843D01*
X40640Y57455D01*
Y57556D02*
X40538Y57760D01*
X40742D01*
X40640Y57556D01*
X3861Y109271D02*
Y109677D01*
X4267D01*
Y109271D01*
X3861D01*
X3962Y109372D02*
Y109576D01*
X4166D01*
Y109372D01*
X3962D01*
X40589Y53442D02*
X40386Y53848D01*
X40792D01*
X40589Y53442D01*
Y53543D02*
X40488Y53746D01*
X40691D01*
X40589Y53543D01*
X40572Y58200D02*
X40369Y58606D01*
X40775D01*
X40572Y58200D01*
Y58302D02*
X40471Y58505D01*
X40674D01*
X40572Y58302D01*
Y51846D02*
X40369Y52252D01*
X40775D01*
X40572Y51846D01*
Y51947D02*
X40471Y52151D01*
X40674D01*
X40572Y51947D01*
X40310Y117272D02*
Y117678D01*
X40716D01*
Y117272D01*
X40310D01*
X40411Y117373D02*
Y117577D01*
X40615D01*
Y117373D01*
X40411D01*
X40310Y63424D02*
Y63830D01*
X40716D01*
Y63424D01*
X40310D01*
X40411Y63525D02*
Y63729D01*
X40615D01*
Y63525D01*
X40411D01*
X40056Y27241D02*
X39853Y27647D01*
X40259D01*
X40056Y27241D01*
Y27343D02*
X39954Y27546D01*
X40157D01*
X40056Y27343D01*
Y25629D02*
X39853Y26035D01*
X40259D01*
X40056Y25629D01*
Y25730D02*
X39954Y25933D01*
X40157D01*
X40056Y25730D01*
X40030Y23238D02*
X39827Y23645D01*
X40234D01*
X40030Y23238D01*
Y23340D02*
X39929Y23543D01*
X40132D01*
X40030Y23340D01*
Y31225D02*
X39827Y31631D01*
X40234D01*
X40030Y31225D01*
Y31327D02*
X39929Y31530D01*
X40132D01*
X40030Y31327D01*
Y26467D02*
X39827Y26873D01*
X40234D01*
X40030Y26467D01*
Y26568D02*
X39929Y26772D01*
X40132D01*
X40030Y26568D01*
X40026Y24871D02*
X39823Y25277D01*
X40229D01*
X40026Y24871D01*
Y24972D02*
X39924Y25175D01*
X40128D01*
X40026Y24972D01*
Y24071D02*
X39823Y24477D01*
X40229D01*
X40026Y24071D01*
Y24172D02*
X39924Y24375D01*
X40128D01*
X40026Y24172D01*
Y22471D02*
X39823Y22877D01*
X40229D01*
X40026Y22471D01*
Y22572D02*
X39924Y22775D01*
X40128D01*
X40026Y22572D01*
Y32025D02*
X39823Y32431D01*
X40229D01*
X40026Y32025D01*
Y32127D02*
X39924Y32330D01*
X40128D01*
X40026Y32127D01*
Y28825D02*
X39823Y29231D01*
X40229D01*
X40026Y28825D01*
Y28927D02*
X39924Y29130D01*
X40128D01*
X40026Y28927D01*
Y28025D02*
X39823Y28431D01*
X40229D01*
X40026Y28025D01*
Y28127D02*
X39924Y28330D01*
X40128D01*
X40026Y28127D01*
X40005Y29642D02*
X39802Y30048D01*
X40208D01*
X40005Y29642D01*
Y29743D02*
X39903Y29947D01*
X40107D01*
X40005Y29743D01*
X39787Y52679D02*
X39584Y53085D01*
X39990D01*
X39787Y52679D01*
Y52781D02*
X39685Y52984D01*
X39888D01*
X39787Y52781D01*
X39772Y51846D02*
X39569Y52252D01*
X39976D01*
X39772Y51846D01*
Y51947D02*
X39671Y52151D01*
X39874D01*
X39772Y51947D01*
X39766Y57439D02*
X39563Y57846D01*
X39969D01*
X39766Y57439D01*
Y57541D02*
X39664Y57744D01*
X39868D01*
X39766Y57541D01*
X39421Y72187D02*
Y72593D01*
X39827D01*
Y72187D01*
X39421D01*
X39522Y72288D02*
Y72492D01*
X39726D01*
Y72288D01*
X39522D01*
X39370Y56489D02*
X39167Y56896D01*
X39573D01*
X39370Y56489D01*
Y56591D02*
X39268Y56794D01*
X39472D01*
X39370Y56591D01*
X39264Y31225D02*
X39061Y31631D01*
X39467D01*
X39264Y31225D01*
Y31327D02*
X39162Y31530D01*
X39366D01*
X39264Y31327D01*
X39260Y28858D02*
X39056Y29265D01*
X39463D01*
X39260Y28858D01*
Y28960D02*
X39158Y29163D01*
X39361D01*
X39260Y28960D01*
X39255Y28042D02*
X39051Y28449D01*
X39458D01*
X39255Y28042D01*
Y28144D02*
X39153Y28347D01*
X39356D01*
X39255Y28144D01*
X39243Y24028D02*
X39040Y24435D01*
X39446D01*
X39243Y24028D01*
Y24130D02*
X39141Y24333D01*
X39345D01*
X39243Y24130D01*
Y21641D02*
X39040Y22047D01*
X39446D01*
X39243Y21641D01*
Y21742D02*
X39141Y21946D01*
X39345D01*
X39243Y21742D01*
Y29642D02*
X39040Y30048D01*
X39446D01*
X39243Y29642D01*
Y29743D02*
X39141Y29947D01*
X39345D01*
X39243Y29743D01*
Y25629D02*
X39040Y26035D01*
X39446D01*
X39243Y25629D01*
Y25730D02*
X39141Y25933D01*
X39345D01*
X39243Y25730D01*
X39238Y22413D02*
X39034Y22820D01*
X39441D01*
X39238Y22413D01*
Y22515D02*
X39136Y22718D01*
X39339D01*
X39238Y22515D01*
X39226Y24871D02*
X39023Y25277D01*
X39429D01*
X39226Y24871D01*
Y24972D02*
X39125Y25175D01*
X39328D01*
X39226Y24972D01*
Y23271D02*
X39023Y23677D01*
X39429D01*
X39226Y23271D01*
Y23372D02*
X39125Y23576D01*
X39328D01*
X39226Y23372D01*
Y30425D02*
X39023Y30831D01*
X39429D01*
X39226Y30425D01*
Y30526D02*
X39125Y30730D01*
X39328D01*
X39226Y30526D01*
Y27225D02*
X39023Y27631D01*
X39429D01*
X39226Y27225D01*
Y27327D02*
X39125Y27530D01*
X39328D01*
X39226Y27327D01*
X38989Y57455D02*
X38786Y57861D01*
X39192D01*
X38989Y57455D01*
Y57556D02*
X38887Y57760D01*
X39091D01*
X38989Y57556D01*
Y53391D02*
X38786Y53797D01*
X39192D01*
X38989Y53391D01*
Y53492D02*
X38887Y53696D01*
X39091D01*
X38989Y53492D01*
X38972Y52646D02*
X38769Y53052D01*
X39175D01*
X38972Y52646D01*
Y52747D02*
X38871Y52950D01*
X39074D01*
X38972Y52747D01*
X38964Y54254D02*
X38760Y54661D01*
X39167D01*
X38964Y54254D01*
Y54356D02*
X38862Y54559D01*
X39065D01*
X38964Y54356D01*
X38532Y37643D02*
Y38049D01*
X38938D01*
Y37643D01*
X38532D01*
X38633Y37744D02*
Y37948D01*
X38837D01*
Y37744D01*
X38633D01*
X38405Y118250D02*
Y118656D01*
X38811D01*
Y118250D01*
X38405D01*
X38506Y118351D02*
Y118554D01*
X38710D01*
Y118351D01*
X38506D01*
X38595Y59182D02*
X38392Y59588D01*
X38798D01*
X38595Y59182D01*
Y59284D02*
X38493Y59487D01*
X38697D01*
X38595Y59284D01*
X38354Y61392D02*
Y61798D01*
X38760D01*
Y61392D01*
X38354D01*
X38456Y61493D02*
Y61697D01*
X38659D01*
Y61493D01*
X38456D01*
X38464Y31225D02*
X38261Y31631D01*
X38667D01*
X38464Y31225D01*
Y31327D02*
X38363Y31530D01*
X38566D01*
X38464Y31327D01*
X38252Y62408D02*
Y62814D01*
X38659D01*
Y62408D01*
X38252D01*
X38354Y62509D02*
Y62713D01*
X38557D01*
Y62509D01*
X38354D01*
X38445Y22499D02*
X38242Y22905D01*
X38648D01*
X38445Y22499D01*
Y22601D02*
X38344Y22804D01*
X38547D01*
X38445Y22601D01*
X38430Y24054D02*
X38227Y24460D01*
X38633D01*
X38430Y24054D01*
Y24155D02*
X38329Y24359D01*
X38532D01*
X38430Y24155D01*
Y25629D02*
X38227Y26035D01*
X38633D01*
X38430Y25629D01*
Y25730D02*
X38329Y25933D01*
X38532D01*
X38430Y25730D01*
X38426Y24871D02*
X38223Y25277D01*
X38629D01*
X38426Y24871D01*
Y24972D02*
X38325Y25175D01*
X38528D01*
X38426Y24972D01*
Y23271D02*
X38223Y23677D01*
X38629D01*
X38426Y23271D01*
Y23372D02*
X38325Y23576D01*
X38528D01*
X38426Y23372D01*
Y21671D02*
X38223Y22077D01*
X38629D01*
X38426Y21671D01*
Y21772D02*
X38325Y21975D01*
X38528D01*
X38426Y21772D01*
Y30425D02*
X38223Y30831D01*
X38629D01*
X38426Y30425D01*
Y30526D02*
X38325Y30730D01*
X38528D01*
X38426Y30526D01*
Y29625D02*
X38223Y30031D01*
X38629D01*
X38426Y29625D01*
Y29727D02*
X38325Y29930D01*
X38528D01*
X38426Y29727D01*
Y28825D02*
X38223Y29231D01*
X38629D01*
X38426Y28825D01*
Y28927D02*
X38325Y29130D01*
X38528D01*
X38426Y28927D01*
Y28025D02*
X38223Y28431D01*
X38629D01*
X38426Y28025D01*
Y28127D02*
X38325Y28330D01*
X38528D01*
X38426Y28127D01*
Y27225D02*
X38223Y27631D01*
X38629D01*
X38426Y27225D01*
Y27327D02*
X38325Y27530D01*
X38528D01*
X38426Y27327D01*
X38354Y20790D02*
X38151Y21196D01*
X38557D01*
X38354Y20790D01*
Y20892D02*
X38252Y21095D01*
X38456D01*
X38354Y20892D01*
Y54483D02*
X38151Y54889D01*
X38557D01*
X38354Y54483D01*
Y54585D02*
X38252Y54788D01*
X38456D01*
X38354Y54585D01*
X38100Y48311D02*
Y48717D01*
X38506D01*
Y48311D01*
X38100D01*
X38202Y48412D02*
Y48616D01*
X38405D01*
Y48412D01*
X38202D01*
X38049Y49352D02*
Y49759D01*
X38456D01*
Y49352D01*
X38049D01*
X38151Y49454D02*
Y49657D01*
X38354D01*
Y49454D01*
X38151D01*
X38176Y51816D02*
X37973Y52222D01*
X38379D01*
X38176Y51816D01*
Y51918D02*
X38075Y52121D01*
X38278D01*
X38176Y51918D01*
X37744Y51232D02*
X37541Y51638D01*
X37948D01*
X37744Y51232D01*
Y51333D02*
X37643Y51537D01*
X37846D01*
X37744Y51333D01*
X37516Y73076D02*
Y73482D01*
X37922D01*
Y73076D01*
X37516D01*
X37617Y73177D02*
Y73381D01*
X37821D01*
Y73177D01*
X37617D01*
X37672Y25671D02*
X37469Y26077D01*
X37875D01*
X37672Y25671D01*
Y25772D02*
X37570Y25975D01*
X37773D01*
X37672Y25772D01*
X37665Y22477D02*
X37461Y22884D01*
X37868D01*
X37665Y22477D01*
Y22579D02*
X37563Y22782D01*
X37766D01*
X37665Y22579D01*
X37664Y31225D02*
X37461Y31631D01*
X37867D01*
X37664Y31225D01*
Y31327D02*
X37563Y31530D01*
X37766D01*
X37664Y31327D01*
X37626Y24871D02*
X37423Y25277D01*
X37829D01*
X37626Y24871D01*
Y24972D02*
X37525Y25175D01*
X37728D01*
X37626Y24972D01*
Y24071D02*
X37423Y24477D01*
X37829D01*
X37626Y24071D01*
Y24172D02*
X37525Y24375D01*
X37728D01*
X37626Y24172D01*
Y23271D02*
X37423Y23677D01*
X37829D01*
X37626Y23271D01*
Y23372D02*
X37525Y23576D01*
X37728D01*
X37626Y23372D01*
Y21671D02*
X37423Y22077D01*
X37829D01*
X37626Y21671D01*
Y21772D02*
X37525Y21975D01*
X37728D01*
X37626Y21772D01*
Y30425D02*
X37423Y30831D01*
X37829D01*
X37626Y30425D01*
Y30526D02*
X37525Y30730D01*
X37728D01*
X37626Y30526D01*
Y29625D02*
X37423Y30031D01*
X37829D01*
X37626Y29625D01*
Y29727D02*
X37525Y29930D01*
X37728D01*
X37626Y29727D01*
Y28825D02*
X37423Y29231D01*
X37829D01*
X37626Y28825D01*
Y28927D02*
X37525Y29130D01*
X37728D01*
X37626Y28927D01*
X37414Y52629D02*
X37211Y53035D01*
X37617D01*
X37414Y52629D01*
Y52730D02*
X37313Y52934D01*
X37516D01*
X37414Y52730D01*
X37389Y57404D02*
X37186Y57810D01*
X37592D01*
X37389Y57404D01*
Y57506D02*
X37287Y57709D01*
X37490D01*
X37389Y57506D01*
X37372Y58200D02*
X37169Y58606D01*
X37575D01*
X37372Y58200D01*
Y58302D02*
X37271Y58505D01*
X37474D01*
X37372Y58302D01*
X37363Y19304D02*
X37160Y19710D01*
X37567D01*
X37363Y19304D01*
Y19406D02*
X37262Y19609D01*
X37465D01*
X37363Y19406D01*
X36855Y55321D02*
X36652Y55728D01*
X37059D01*
X36855Y55321D01*
Y55423D02*
X36754Y55626D01*
X36957D01*
X36855Y55423D01*
X36627Y63424D02*
Y63830D01*
X37033D01*
Y63424D01*
X36627D01*
X36728Y63525D02*
Y63729D01*
X36932D01*
Y63525D01*
X36728D01*
X36500Y61392D02*
Y61798D01*
X36906D01*
Y61392D01*
X36500D01*
X36601Y61493D02*
Y61697D01*
X36805D01*
Y61493D01*
X36601D01*
X36474Y62408D02*
Y62814D01*
X36881D01*
Y62408D01*
X36474D01*
X36576Y62509D02*
Y62713D01*
X36779D01*
Y62509D01*
X36576D01*
X36641Y54824D02*
X36438Y55231D01*
X36844D01*
X36641Y54824D01*
Y54926D02*
X36539Y55129D01*
X36743D01*
X36641Y54926D01*
X36614Y56642D02*
X36411Y57048D01*
X36818D01*
X36614Y56642D01*
Y56744D02*
X36513Y56947D01*
X36716D01*
X36614Y56744D01*
X36599Y53465D02*
X36396Y53871D01*
X36803D01*
X36599Y53465D01*
Y53567D02*
X36498Y53770D01*
X36701D01*
X36599Y53567D01*
X36576Y59055D02*
X36373Y59461D01*
X36779D01*
X36576Y59055D01*
Y59157D02*
X36474Y59360D01*
X36678D01*
X36576Y59157D01*
Y58242D02*
X36373Y58648D01*
X36779D01*
X36576Y58242D01*
Y58343D02*
X36474Y58546D01*
X36678D01*
X36576Y58343D01*
X36566Y57439D02*
X36363Y57845D01*
X36769D01*
X36566Y57439D01*
Y57541D02*
X36464Y57744D01*
X36667D01*
X36566Y57541D01*
X36246Y37643D02*
Y38049D01*
X36652D01*
Y37643D01*
X36246D01*
X36347Y37744D02*
Y37948D01*
X36551D01*
Y37744D01*
X36347D01*
X36072Y24871D02*
X35869Y25277D01*
X36275D01*
X36072Y24871D01*
Y24972D02*
X35970Y25175D01*
X36173D01*
X36072Y24972D01*
Y24071D02*
X35869Y24477D01*
X36275D01*
X36072Y24071D01*
Y24172D02*
X35970Y24375D01*
X36173D01*
X36072Y24172D01*
Y23271D02*
X35869Y23677D01*
X36275D01*
X36072Y23271D01*
Y23372D02*
X35970Y23576D01*
X36173D01*
X36072Y23372D01*
Y22471D02*
X35869Y22877D01*
X36275D01*
X36072Y22471D01*
Y22572D02*
X35970Y22775D01*
X36173D01*
X36072Y22572D01*
Y21671D02*
X35869Y22077D01*
X36275D01*
X36072Y21671D01*
Y21772D02*
X35970Y21975D01*
X36173D01*
X36072Y21772D01*
Y32025D02*
X35869Y32431D01*
X36275D01*
X36072Y32025D01*
Y32127D02*
X35970Y32330D01*
X36173D01*
X36072Y32127D01*
Y30425D02*
X35869Y30831D01*
X36275D01*
X36072Y30425D01*
Y30526D02*
X35970Y30730D01*
X36173D01*
X36072Y30526D01*
Y29625D02*
X35869Y30031D01*
X36275D01*
X36072Y29625D01*
Y29727D02*
X35970Y29930D01*
X36173D01*
X36072Y29727D01*
Y28825D02*
X35869Y29231D01*
X36275D01*
X36072Y28825D01*
Y28927D02*
X35970Y29130D01*
X36173D01*
X36072Y28927D01*
X35865Y14910D02*
Y15316D01*
X36271D01*
Y14910D01*
X35865D01*
X35966Y15011D02*
Y15215D01*
X36170D01*
Y15011D01*
X35966D01*
X36068Y31267D02*
X35865Y31674D01*
X36271D01*
X36068Y31267D01*
Y31369D02*
X35966Y31572D01*
X36170D01*
X36068Y31369D01*
X35839Y55702D02*
X35636Y56109D01*
X36043D01*
X35839Y55702D01*
Y55804D02*
X35738Y56007D01*
X35941D01*
X35839Y55804D01*
X35611Y72568D02*
Y72974D01*
X36017D01*
Y72568D01*
X35611D01*
X35712Y72669D02*
Y72873D01*
X35916D01*
Y72669D01*
X35712D01*
X35611Y69012D02*
Y69418D01*
X36017D01*
Y69012D01*
X35611D01*
X35712Y69113D02*
Y69317D01*
X35916D01*
Y69113D01*
X35712D01*
X35611Y63678D02*
Y64084D01*
X36017D01*
Y63678D01*
X35611D01*
X35712Y63779D02*
Y63983D01*
X35916D01*
Y63779D01*
X35712D01*
X35814Y57455D02*
X35611Y57861D01*
X36017D01*
X35814Y57455D01*
Y57556D02*
X35712Y57760D01*
X35916D01*
X35814Y57556D01*
Y56566D02*
X35611Y56972D01*
X36017D01*
X35814Y56566D01*
Y56667D02*
X35712Y56871D01*
X35916D01*
X35814Y56667D01*
X35789Y52620D02*
X35585Y53027D01*
X35992D01*
X35789Y52620D01*
Y52722D02*
X35687Y52925D01*
X35890D01*
X35789Y52722D01*
X35763Y51816D02*
X35560Y52222D01*
X35966D01*
X35763Y51816D01*
Y51918D02*
X35662Y52121D01*
X35865D01*
X35763Y51918D01*
X35757Y58231D02*
X35554Y58637D01*
X35961D01*
X35757Y58231D01*
Y58333D02*
X35656Y58536D01*
X35859D01*
X35757Y58333D01*
X35272Y24871D02*
X35069Y25277D01*
X35475D01*
X35272Y24871D01*
Y24972D02*
X35170Y25175D01*
X35373D01*
X35272Y24972D01*
Y24071D02*
X35069Y24477D01*
X35475D01*
X35272Y24071D01*
Y24172D02*
X35170Y24375D01*
X35373D01*
X35272Y24172D01*
Y32825D02*
X35069Y33231D01*
X35475D01*
X35272Y32825D01*
Y32927D02*
X35170Y33130D01*
X35373D01*
X35272Y32927D01*
Y32025D02*
X35069Y32431D01*
X35475D01*
X35272Y32025D01*
Y32127D02*
X35170Y32330D01*
X35373D01*
X35272Y32127D01*
Y30425D02*
X35069Y30831D01*
X35475D01*
X35272Y30425D01*
Y30526D02*
X35170Y30730D01*
X35373D01*
X35272Y30526D01*
Y29625D02*
X35069Y30031D01*
X35475D01*
X35272Y29625D01*
Y29727D02*
X35170Y29930D01*
X35373D01*
X35272Y29727D01*
Y28825D02*
X35069Y29231D01*
X35475D01*
X35272Y28825D01*
Y28927D02*
X35170Y29130D01*
X35373D01*
X35272Y28927D01*
X35255Y23241D02*
X35052Y23647D01*
X35458D01*
X35255Y23241D01*
Y23343D02*
X35154Y23546D01*
X35357D01*
X35255Y23343D01*
X35246Y22483D02*
X35043Y22890D01*
X35450D01*
X35246Y22483D01*
Y22585D02*
X35145Y22788D01*
X35348D01*
X35246Y22585D01*
X35234Y28025D02*
X35031Y28431D01*
X35437D01*
X35234Y28025D01*
Y28127D02*
X35132Y28330D01*
X35335D01*
X35234Y28127D01*
Y27225D02*
X35031Y27631D01*
X35437D01*
X35234Y27225D01*
Y27327D02*
X35132Y27530D01*
X35335D01*
X35234Y27327D01*
X34849Y63424D02*
Y63830D01*
X35255D01*
Y63424D01*
X34849D01*
X34950Y63525D02*
Y63729D01*
X35154D01*
Y63525D01*
X34950D01*
X34849Y62408D02*
Y62814D01*
X35255D01*
Y62408D01*
X34849D01*
X34950Y62509D02*
Y62713D01*
X35154D01*
Y62509D01*
X34950D01*
X34849Y61392D02*
Y61798D01*
X35255D01*
Y61392D01*
X34849D01*
X34950Y61493D02*
Y61697D01*
X35154D01*
Y61493D01*
X34950D01*
Y55474D02*
X34747Y55880D01*
X35154D01*
X34950Y55474D01*
Y55575D02*
X34849Y55778D01*
X35052D01*
X34950Y55575D01*
X34315Y49530D02*
Y49936D01*
X34722D01*
Y49530D01*
X34315D01*
X34417Y49632D02*
Y49835D01*
X34620D01*
Y49632D01*
X34417D01*
X34290Y48463D02*
Y48870D01*
X34696D01*
Y48463D01*
X34290D01*
X34392Y48565D02*
Y48768D01*
X34595D01*
Y48565D01*
X34392D01*
X34492Y21642D02*
X34288Y22049D01*
X34695D01*
X34492Y21642D01*
Y21744D02*
X34390Y21947D01*
X34593D01*
X34492Y21744D01*
X34472Y24871D02*
X34269Y25277D01*
X34675D01*
X34472Y24871D01*
Y24972D02*
X34370Y25175D01*
X34573D01*
X34472Y24972D01*
Y24071D02*
X34269Y24477D01*
X34675D01*
X34472Y24071D01*
Y24172D02*
X34370Y24375D01*
X34573D01*
X34472Y24172D01*
Y23271D02*
X34269Y23677D01*
X34675D01*
X34472Y23271D01*
Y23372D02*
X34370Y23576D01*
X34573D01*
X34472Y23372D01*
Y22471D02*
X34269Y22877D01*
X34675D01*
X34472Y22471D01*
Y22572D02*
X34370Y22775D01*
X34573D01*
X34472Y22572D01*
Y32825D02*
X34269Y33231D01*
X34675D01*
X34472Y32825D01*
Y32927D02*
X34370Y33130D01*
X34573D01*
X34472Y32927D01*
Y32025D02*
X34269Y32431D01*
X34675D01*
X34472Y32025D01*
Y32127D02*
X34370Y32330D01*
X34573D01*
X34472Y32127D01*
Y31225D02*
X34269Y31631D01*
X34675D01*
X34472Y31225D01*
Y31327D02*
X34370Y31530D01*
X34573D01*
X34472Y31327D01*
Y30425D02*
X34269Y30831D01*
X34675D01*
X34472Y30425D01*
Y30526D02*
X34370Y30730D01*
X34573D01*
X34472Y30526D01*
Y29625D02*
X34269Y30031D01*
X34675D01*
X34472Y29625D01*
Y29727D02*
X34370Y29930D01*
X34573D01*
X34472Y29727D01*
Y28825D02*
X34269Y29231D01*
X34675D01*
X34472Y28825D01*
Y28927D02*
X34370Y29130D01*
X34573D01*
X34472Y28927D01*
Y25671D02*
X34269Y26077D01*
X34675D01*
X34472Y25671D01*
Y25772D02*
X34370Y25975D01*
X34573D01*
X34472Y25772D01*
X34434Y28025D02*
X34231Y28431D01*
X34637D01*
X34434Y28025D01*
Y28127D02*
X34332Y28330D01*
X34535D01*
X34434Y28127D01*
Y27225D02*
X34231Y27631D01*
X34637D01*
X34434Y27225D01*
Y27327D02*
X34332Y27530D01*
X34535D01*
X34434Y27327D01*
X34392Y59538D02*
X34188Y59944D01*
X34595D01*
X34392Y59538D01*
Y59639D02*
X34290Y59842D01*
X34493D01*
X34392Y59639D01*
X34218Y58200D02*
X34014Y58606D01*
X34421D01*
X34218Y58200D01*
Y58302D02*
X34116Y58505D01*
X34319D01*
X34218Y58302D01*
X34198Y57379D02*
X33995Y57785D01*
X34402D01*
X34198Y57379D01*
Y57480D02*
X34097Y57683D01*
X34300D01*
X34198Y57480D01*
X34188Y56642D02*
X33985Y57048D01*
X34392D01*
X34188Y56642D01*
Y56744D02*
X34087Y56947D01*
X34290D01*
X34188Y56744D01*
X34172Y53446D02*
X33969Y53852D01*
X34375D01*
X34172Y53446D01*
Y53547D02*
X34071Y53750D01*
X34274D01*
X34172Y53547D01*
X33833Y63424D02*
Y63830D01*
X34239D01*
Y63424D01*
X33833D01*
X33934Y63525D02*
Y63729D01*
X34138D01*
Y63525D01*
X33934D01*
X33833Y20718D02*
X33630Y21124D01*
X34036D01*
X33833Y20718D01*
Y20819D02*
X33731Y21023D01*
X33934D01*
X33833Y20819D01*
X33672Y24871D02*
X33469Y25277D01*
X33875D01*
X33672Y24871D01*
Y24972D02*
X33570Y25175D01*
X33773D01*
X33672Y24972D01*
Y24071D02*
X33469Y24477D01*
X33875D01*
X33672Y24071D01*
Y24172D02*
X33570Y24375D01*
X33773D01*
X33672Y24172D01*
Y23271D02*
X33469Y23677D01*
X33875D01*
X33672Y23271D01*
Y23372D02*
X33570Y23576D01*
X33773D01*
X33672Y23372D01*
Y22471D02*
X33469Y22877D01*
X33875D01*
X33672Y22471D01*
Y22572D02*
X33570Y22775D01*
X33773D01*
X33672Y22572D01*
Y32025D02*
X33469Y32431D01*
X33875D01*
X33672Y32025D01*
Y32127D02*
X33570Y32330D01*
X33773D01*
X33672Y32127D01*
Y31225D02*
X33469Y31631D01*
X33875D01*
X33672Y31225D01*
Y31327D02*
X33570Y31530D01*
X33773D01*
X33672Y31327D01*
Y30425D02*
X33469Y30831D01*
X33875D01*
X33672Y30425D01*
Y30526D02*
X33570Y30730D01*
X33773D01*
X33672Y30526D01*
Y29625D02*
X33469Y30031D01*
X33875D01*
X33672Y29625D01*
Y29727D02*
X33570Y29930D01*
X33773D01*
X33672Y29727D01*
Y28825D02*
X33469Y29231D01*
X33875D01*
X33672Y28825D01*
Y28927D02*
X33570Y29130D01*
X33773D01*
X33672Y28927D01*
Y25671D02*
X33469Y26077D01*
X33875D01*
X33672Y25671D01*
Y25772D02*
X33570Y25975D01*
X33773D01*
X33672Y25772D01*
X33452Y66726D02*
Y67132D01*
X33858D01*
Y66726D01*
X33452D01*
X33553Y66827D02*
Y67031D01*
X33757D01*
Y66827D01*
X33553D01*
X33655Y28067D02*
X33452Y28473D01*
X33858D01*
X33655Y28067D01*
Y28169D02*
X33553Y28372D01*
X33757D01*
X33655Y28169D01*
X33631Y21666D02*
X33427Y22073D01*
X33834D01*
X33631Y21666D01*
Y21768D02*
X33529Y21971D01*
X33732D01*
X33631Y21768D01*
X33630Y27232D02*
X33426Y27639D01*
X33833D01*
X33630Y27232D01*
Y27334D02*
X33528Y27537D01*
X33731D01*
X33630Y27334D01*
X33414Y53404D02*
X33211Y53810D01*
X33617D01*
X33414Y53404D01*
Y53505D02*
X33312Y53709D01*
X33516D01*
X33414Y53505D01*
X33198Y61370D02*
Y61777D01*
X33604D01*
Y61370D01*
X33198D01*
X33299Y61472D02*
Y61675D01*
X33503D01*
Y61472D01*
X33299D01*
X33401Y58217D02*
X33198Y58623D01*
X33604D01*
X33401Y58217D01*
Y58318D02*
X33299Y58522D01*
X33503D01*
X33401Y58318D01*
Y56566D02*
X33198Y56972D01*
X33604D01*
X33401Y56566D01*
Y56667D02*
X33299Y56871D01*
X33503D01*
X33401Y56667D01*
Y52629D02*
X33198Y53035D01*
X33604D01*
X33401Y52629D01*
Y52730D02*
X33299Y52934D01*
X33503D01*
X33401Y52730D01*
X33388Y57429D02*
X33185Y57836D01*
X33591D01*
X33388Y57429D01*
Y57531D02*
X33286Y57734D01*
X33490D01*
X33388Y57531D01*
X33147Y62433D02*
Y62840D01*
X33553D01*
Y62433D01*
X33147D01*
X33249Y62535D02*
Y62738D01*
X33452D01*
Y62535D01*
X33249D01*
X33122Y14707D02*
Y15113D01*
X33528D01*
Y14707D01*
X33122D01*
X33223Y14808D02*
Y15011D01*
X33426D01*
Y14808D01*
X33223D01*
X33249Y20714D02*
X33046Y21121D01*
X33452D01*
X33249Y20714D01*
Y20816D02*
X33148Y21019D01*
X33351D01*
X33249Y20816D01*
Y32992D02*
X33046Y33398D01*
X33452D01*
X33249Y32992D01*
Y33094D02*
X33148Y33297D01*
X33351D01*
X33249Y33094D01*
X33045Y36952D02*
Y37359D01*
X33452D01*
Y36952D01*
X33045D01*
X33147Y37054D02*
Y37257D01*
X33350D01*
Y37054D01*
X33147D01*
X32817Y105969D02*
Y106375D01*
X33223D01*
Y105969D01*
X32817D01*
X32918Y106070D02*
Y106274D01*
X33122D01*
Y106070D01*
X32918D01*
X32817Y101651D02*
Y102057D01*
X33223D01*
Y101651D01*
X32817D01*
X32918Y101752D02*
Y101956D01*
X33122D01*
Y101752D01*
X32918D01*
X32715Y120549D02*
Y120955D01*
X33121D01*
Y120549D01*
X32715D01*
X32816Y120651D02*
Y120854D01*
X33019D01*
Y120651D01*
X32816D01*
X32903Y30420D02*
X32700Y30826D01*
X33107D01*
X32903Y30420D01*
Y30522D02*
X32802Y30725D01*
X33005D01*
X32903Y30522D01*
X32690Y102921D02*
Y103327D01*
X33096D01*
Y102921D01*
X32690D01*
X32791Y103022D02*
Y103226D01*
X32995D01*
Y103022D01*
X32791D01*
X32872Y24871D02*
X32669Y25277D01*
X33075D01*
X32872Y24871D01*
Y24972D02*
X32770Y25175D01*
X32974D01*
X32872Y24972D01*
Y24071D02*
X32669Y24477D01*
X33075D01*
X32872Y24071D01*
Y24172D02*
X32770Y24375D01*
X32974D01*
X32872Y24172D01*
Y23271D02*
X32669Y23677D01*
X33075D01*
X32872Y23271D01*
Y23372D02*
X32770Y23576D01*
X32974D01*
X32872Y23372D01*
Y22471D02*
X32669Y22877D01*
X33075D01*
X32872Y22471D01*
Y22572D02*
X32770Y22775D01*
X32974D01*
X32872Y22572D01*
Y32025D02*
X32669Y32431D01*
X33075D01*
X32872Y32025D01*
Y32127D02*
X32770Y32330D01*
X32974D01*
X32872Y32127D01*
Y31225D02*
X32669Y31631D01*
X33075D01*
X32872Y31225D01*
Y31327D02*
X32770Y31530D01*
X32974D01*
X32872Y31327D01*
Y29642D02*
X32669Y30048D01*
X33075D01*
X32872Y29642D01*
Y29743D02*
X32770Y29947D01*
X32974D01*
X32872Y29743D01*
Y27225D02*
X32669Y27631D01*
X33075D01*
X32872Y27225D01*
Y27327D02*
X32770Y27530D01*
X32974D01*
X32872Y27327D01*
Y25671D02*
X32669Y26077D01*
X33075D01*
X32872Y25671D01*
Y25772D02*
X32770Y25975D01*
X32974D01*
X32872Y25772D01*
X32867Y28875D02*
X32664Y29282D01*
X33070D01*
X32867Y28875D01*
Y28977D02*
X32765Y29180D01*
X32969D01*
X32867Y28977D01*
X32765Y33348D02*
X32562Y33754D01*
X32968D01*
X32765Y33348D01*
Y33449D02*
X32663Y33652D01*
X32866D01*
X32765Y33449D01*
X32436Y124765D02*
Y125171D01*
X32842D01*
Y124765D01*
X32436D01*
X32537Y124866D02*
Y125070D01*
X32741D01*
Y124866D01*
X32537D01*
X32639Y52629D02*
X32436Y53035D01*
X32842D01*
X32639Y52629D01*
Y52730D02*
X32537Y52934D01*
X32741D01*
X32639Y52730D01*
Y51232D02*
X32436Y51638D01*
X32842D01*
X32639Y51232D01*
Y51333D02*
X32537Y51537D01*
X32741D01*
X32639Y51333D01*
X32618Y53446D02*
X32415Y53852D01*
X32821D01*
X32618Y53446D01*
Y53547D02*
X32516Y53750D01*
X32720D01*
X32618Y53547D01*
Y51846D02*
X32415Y52252D01*
X32821D01*
X32618Y51846D01*
Y51947D02*
X32516Y52151D01*
X32720D01*
X32618Y51947D01*
X32561Y57375D02*
X32358Y57781D01*
X32764D01*
X32561Y57375D01*
Y57477D02*
X32460Y57680D01*
X32663D01*
X32561Y57477D01*
X32530Y58239D02*
X32326Y58645D01*
X32733D01*
X32530Y58239D01*
Y58340D02*
X32428Y58543D01*
X32631D01*
X32530Y58340D01*
X32309Y18593D02*
Y18999D01*
X32715D01*
Y18593D01*
X32309D01*
X32410Y18694D02*
Y18898D01*
X32614D01*
Y18694D01*
X32410D01*
X31877Y36968D02*
Y37374D01*
X32283D01*
Y36968D01*
X31877D01*
X31979Y37070D02*
Y37273D01*
X32182D01*
Y37070D01*
X31979D01*
X32072Y24871D02*
X31869Y25277D01*
X32275D01*
X32072Y24871D01*
Y24972D02*
X31970Y25175D01*
X32173D01*
X32072Y24972D01*
Y24071D02*
X31869Y24477D01*
X32275D01*
X32072Y24071D01*
Y24172D02*
X31970Y24375D01*
X32173D01*
X32072Y24172D01*
Y23271D02*
X31869Y23677D01*
X32275D01*
X32072Y23271D01*
Y23372D02*
X31970Y23576D01*
X32173D01*
X32072Y23372D01*
Y22471D02*
X31869Y22877D01*
X32275D01*
X32072Y22471D01*
Y22572D02*
X31970Y22775D01*
X32173D01*
X32072Y22572D01*
Y21671D02*
X31869Y22077D01*
X32275D01*
X32072Y21671D01*
Y21772D02*
X31970Y21975D01*
X32173D01*
X32072Y21772D01*
Y20871D02*
X31869Y21277D01*
X32275D01*
X32072Y20871D01*
Y20972D02*
X31970Y21175D01*
X32173D01*
X32072Y20972D01*
Y32825D02*
X31869Y33231D01*
X32275D01*
X32072Y32825D01*
Y32927D02*
X31970Y33130D01*
X32173D01*
X32072Y32927D01*
Y32025D02*
X31869Y32431D01*
X32275D01*
X32072Y32025D01*
Y32127D02*
X31970Y32330D01*
X32173D01*
X32072Y32127D01*
Y31225D02*
X31869Y31631D01*
X32275D01*
X32072Y31225D01*
Y31327D02*
X31970Y31530D01*
X32173D01*
X32072Y31327D01*
Y29625D02*
X31869Y30031D01*
X32275D01*
X32072Y29625D01*
Y29727D02*
X31970Y29930D01*
X32173D01*
X32072Y29727D01*
Y28825D02*
X31869Y29231D01*
X32275D01*
X32072Y28825D01*
Y28927D02*
X31970Y29130D01*
X32173D01*
X32072Y28927D01*
Y28025D02*
X31869Y28431D01*
X32275D01*
X32072Y28025D01*
Y28127D02*
X31970Y28330D01*
X32173D01*
X32072Y28127D01*
Y27225D02*
X31869Y27631D01*
X32275D01*
X32072Y27225D01*
Y27327D02*
X31970Y27530D01*
X32173D01*
X32072Y27327D01*
Y25671D02*
X31869Y26077D01*
X32275D01*
X32072Y25671D01*
Y25772D02*
X31970Y25975D01*
X32173D01*
X32072Y25772D01*
X31674Y116637D02*
Y117043D01*
X32080D01*
Y116637D01*
X31674D01*
X31775Y116738D02*
Y116942D01*
X31979D01*
Y116738D01*
X31775D01*
X31876Y58218D02*
X31673Y58625D01*
X32079D01*
X31876Y58218D01*
Y58320D02*
X31774Y58523D01*
X31977D01*
X31876Y58320D01*
X31828Y53471D02*
X31625Y53877D01*
X32031D01*
X31828Y53471D01*
Y53573D02*
X31727Y53776D01*
X31930D01*
X31828Y53573D01*
X31818Y56646D02*
X31615Y57052D01*
X32021D01*
X31818Y56646D01*
Y56747D02*
X31716Y56950D01*
X31919D01*
X31818Y56747D01*
X31776Y52603D02*
X31572Y53010D01*
X31979D01*
X31776Y52603D01*
Y52705D02*
X31674Y52908D01*
X31877D01*
X31776Y52705D01*
X31765Y57438D02*
X31562Y57845D01*
X31968D01*
X31765Y57438D01*
Y57540D02*
X31663Y57743D01*
X31867D01*
X31765Y57540D01*
X31420Y99111D02*
Y99517D01*
X31826D01*
Y99111D01*
X31420D01*
X31521Y99212D02*
Y99416D01*
X31725D01*
Y99212D01*
X31521D01*
X31420Y95809D02*
Y96215D01*
X31826D01*
Y95809D01*
X31420D01*
X31521Y95910D02*
Y96114D01*
X31725D01*
Y95910D01*
X31521D01*
X31420Y62433D02*
Y62840D01*
X31826D01*
Y62433D01*
X31420D01*
X31521Y62535D02*
Y62738D01*
X31725D01*
Y62535D01*
X31521D01*
X31420Y61392D02*
Y61798D01*
X31826D01*
Y61392D01*
X31420D01*
X31521Y61493D02*
Y61697D01*
X31725D01*
Y61493D01*
X31521D01*
X31166Y109017D02*
Y109423D01*
X31572D01*
Y109017D01*
X31166D01*
X31267Y109118D02*
Y109322D01*
X31471D01*
Y109118D01*
X31267D01*
X31272Y24871D02*
X31069Y25277D01*
X31475D01*
X31272Y24871D01*
Y24972D02*
X31170Y25175D01*
X31373D01*
X31272Y24972D01*
Y24071D02*
X31069Y24477D01*
X31475D01*
X31272Y24071D01*
Y24172D02*
X31170Y24375D01*
X31373D01*
X31272Y24172D01*
Y22471D02*
X31069Y22877D01*
X31475D01*
X31272Y22471D01*
Y22572D02*
X31170Y22775D01*
X31373D01*
X31272Y22572D01*
Y21671D02*
X31069Y22077D01*
X31475D01*
X31272Y21671D01*
Y21772D02*
X31170Y21975D01*
X31373D01*
X31272Y21772D01*
Y20871D02*
X31069Y21277D01*
X31475D01*
X31272Y20871D01*
Y20972D02*
X31170Y21175D01*
X31373D01*
X31272Y20972D01*
Y32025D02*
X31069Y32431D01*
X31475D01*
X31272Y32025D01*
Y32127D02*
X31170Y32330D01*
X31373D01*
X31272Y32127D01*
Y31225D02*
X31069Y31631D01*
X31475D01*
X31272Y31225D01*
Y31327D02*
X31170Y31530D01*
X31373D01*
X31272Y31327D01*
Y28025D02*
X31069Y28431D01*
X31475D01*
X31272Y28025D01*
Y28127D02*
X31170Y28330D01*
X31373D01*
X31272Y28127D01*
Y27225D02*
X31069Y27631D01*
X31475D01*
X31272Y27225D01*
Y27327D02*
X31170Y27530D01*
X31373D01*
X31272Y27327D01*
Y25671D02*
X31069Y26077D01*
X31475D01*
X31272Y25671D01*
Y25772D02*
X31170Y25975D01*
X31373D01*
X31272Y25772D01*
X31039Y5385D02*
Y5791D01*
X31445D01*
Y5385D01*
X31039D01*
X31140Y5486D02*
Y5690D01*
X31344D01*
Y5486D01*
X31140D01*
X30912Y113208D02*
Y113614D01*
X31318D01*
Y113208D01*
X30912D01*
X31013Y113309D02*
Y113513D01*
X31217D01*
Y113309D01*
X31013D01*
X30988Y58242D02*
X30785Y58649D01*
X31191D01*
X30988Y58242D01*
Y58344D02*
X30886Y58547D01*
X31090D01*
X30988Y58344D01*
Y54371D02*
X30785Y54777D01*
X31191D01*
X30988Y54371D01*
Y54473D02*
X30886Y54676D01*
X31090D01*
X30988Y54473D01*
X30963Y57429D02*
X30760Y57836D01*
X31166D01*
X30963Y57429D01*
Y57531D02*
X30862Y57734D01*
X31065D01*
X30963Y57531D01*
X30940Y55397D02*
X30737Y55804D01*
X31143D01*
X30940Y55397D01*
Y55499D02*
X30838Y55702D01*
X31041D01*
X30940Y55499D01*
X30764Y33333D02*
X30561Y33739D01*
X30967D01*
X30764Y33333D01*
Y33435D02*
X30662Y33638D01*
X30865D01*
X30764Y33435D01*
X30277Y96063D02*
Y96469D01*
X30683D01*
Y96063D01*
X30277D01*
X30378Y96164D02*
Y96368D01*
X30582D01*
Y96164D01*
X30378D01*
X30472Y21671D02*
X30269Y22077D01*
X30675D01*
X30472Y21671D01*
Y21772D02*
X30370Y21975D01*
X30573D01*
X30472Y21772D01*
Y20871D02*
X30269Y21277D01*
X30675D01*
X30472Y20871D01*
Y20972D02*
X30370Y21175D01*
X30573D01*
X30472Y20972D01*
Y31225D02*
X30269Y31631D01*
X30675D01*
X30472Y31225D01*
Y31327D02*
X30370Y31530D01*
X30573D01*
X30472Y31327D01*
X30150Y11989D02*
Y12395D01*
X30556D01*
Y11989D01*
X30150D01*
X30251Y12090D02*
Y12294D01*
X30455D01*
Y12090D01*
X30251D01*
X30242Y23546D02*
X30039Y23952D01*
X30445D01*
X30242Y23546D01*
Y23647D02*
X30141Y23851D01*
X30344D01*
X30242Y23647D01*
X30226Y30048D02*
X30023Y30454D01*
X30429D01*
X30226Y30048D01*
Y30149D02*
X30124Y30352D01*
X30328D01*
X30226Y30149D01*
X30218Y53446D02*
X30015Y53852D01*
X30421D01*
X30218Y53446D01*
Y53547D02*
X30116Y53750D01*
X30319D01*
X30218Y53547D01*
Y52646D02*
X30015Y53052D01*
X30421D01*
X30218Y52646D01*
Y52747D02*
X30116Y52950D01*
X30319D01*
X30218Y52747D01*
X30201Y51740D02*
X29997Y52146D01*
X30404D01*
X30201Y51740D01*
Y51841D02*
X30099Y52045D01*
X30302D01*
X30201Y51841D01*
X29515Y111303D02*
Y111709D01*
X29921D01*
Y111303D01*
X29515D01*
X29616Y111404D02*
Y111608D01*
X29820D01*
Y111404D01*
X29616D01*
X29515Y10135D02*
Y10541D01*
X29921D01*
Y10135D01*
X29515D01*
X29616Y10236D02*
Y10439D01*
X29820D01*
Y10236D01*
X29616D01*
X29515Y637D02*
Y1043D01*
X29921D01*
Y637D01*
X29515D01*
X29616Y738D02*
Y941D01*
X29820D01*
Y738D01*
X29616D01*
X29388Y15164D02*
Y15570D01*
X29794D01*
Y15164D01*
X29388D01*
X29489Y15265D02*
Y15469D01*
X29693D01*
Y15265D01*
X29489D01*
X29388Y11989D02*
Y12395D01*
X29794D01*
Y11989D01*
X29388D01*
X29489Y12090D02*
Y12294D01*
X29693D01*
Y12090D01*
X29489D01*
X29388Y36881D02*
Y37287D01*
X29794D01*
Y36881D01*
X29388D01*
X29489Y36982D02*
Y37186D01*
X29693D01*
Y36982D01*
X29489D01*
X29591Y30048D02*
X29388Y30454D01*
X29794D01*
X29591Y30048D01*
Y30149D02*
X29489Y30352D01*
X29693D01*
X29591Y30149D01*
X29134Y84252D02*
Y84658D01*
X29540D01*
Y84252D01*
X29134D01*
X29235Y84353D02*
Y84557D01*
X29439D01*
Y84353D01*
X29235D01*
X29134Y83490D02*
Y83896D01*
X29540D01*
Y83490D01*
X29134D01*
X29235Y83591D02*
Y83795D01*
X29439D01*
Y83591D01*
X29235D01*
X29108Y95631D02*
Y96037D01*
X29515D01*
Y95631D01*
X29108D01*
X29210Y95733D02*
Y95936D01*
X29413D01*
Y95733D01*
X29210D01*
X29185Y19761D02*
X28981Y20168D01*
X29388D01*
X29185Y19761D01*
Y19863D02*
X29083Y20066D01*
X29286D01*
X29185Y19863D01*
X28804Y91643D02*
Y92050D01*
X29210D01*
Y91643D01*
X28804D01*
X28905Y91745D02*
Y91948D01*
X29108D01*
Y91745D01*
X28905D01*
X28626Y111303D02*
Y111709D01*
X29032D01*
Y111303D01*
X28626D01*
X28727Y111404D02*
Y111608D01*
X28931D01*
Y111404D01*
X28727D01*
X28372Y84252D02*
Y84658D01*
X28778D01*
Y84252D01*
X28372D01*
X28473Y84353D02*
Y84557D01*
X28677D01*
Y84353D01*
X28473D01*
X28372Y83490D02*
Y83896D01*
X28778D01*
Y83490D01*
X28372D01*
X28473Y83591D02*
Y83795D01*
X28677D01*
Y83591D01*
X28473D01*
X28372Y6655D02*
Y7061D01*
X28778D01*
Y6655D01*
X28372D01*
X28473Y6756D02*
Y6960D01*
X28677D01*
Y6756D01*
X28473D01*
X28372Y4115D02*
Y4521D01*
X28778D01*
Y4115D01*
X28372D01*
X28473Y4216D02*
Y4420D01*
X28677D01*
Y4216D01*
X28473D01*
X28257Y14402D02*
Y14808D01*
X28664D01*
Y14402D01*
X28257D01*
X28359Y14503D02*
Y14707D01*
X28562D01*
Y14503D01*
X28359D01*
X28209Y107783D02*
Y108189D01*
X28615D01*
Y107783D01*
X28209D01*
X28310Y107884D02*
Y108088D01*
X28514D01*
Y107884D01*
X28310D01*
X27991Y9754D02*
Y10160D01*
X28397D01*
Y9754D01*
X27991D01*
X28092Y9855D02*
Y10058D01*
X28296D01*
Y9855D01*
X28092D01*
X27991Y2337D02*
Y2743D01*
X28397D01*
Y2337D01*
X27991D01*
X28092Y2438D02*
Y2642D01*
X28296D01*
Y2438D01*
X28092D01*
X27813Y18136D02*
Y18542D01*
X28219D01*
Y18136D01*
X27813D01*
X27915Y18237D02*
Y18440D01*
X28118D01*
Y18237D01*
X27915D01*
X27976Y27407D02*
X27773Y27813D01*
X28179D01*
X27976Y27407D01*
Y27508D02*
X27874Y27711D01*
X28078D01*
X27976Y27508D01*
X27610Y84252D02*
Y84658D01*
X28016D01*
Y84252D01*
X27610D01*
X27711Y84353D02*
Y84557D01*
X27915D01*
Y84353D01*
X27711D01*
X27610Y83490D02*
Y83896D01*
X28016D01*
Y83490D01*
X27610D01*
X27711Y83591D02*
Y83795D01*
X27915D01*
Y83591D01*
X27711D01*
X27534Y55448D02*
Y55855D01*
X27940D01*
Y55448D01*
X27534D01*
X27635Y55550D02*
Y55753D01*
X27838D01*
Y55550D01*
X27635D01*
X27483Y95555D02*
Y95961D01*
X27889D01*
Y95555D01*
X27483D01*
X27584Y95656D02*
Y95860D01*
X27788D01*
Y95656D01*
X27584D01*
X27356Y58471D02*
Y58877D01*
X27762D01*
Y58471D01*
X27356D01*
X27457Y58572D02*
Y58776D01*
X27661D01*
Y58572D01*
X27457D01*
X27356Y52629D02*
Y53035D01*
X27762D01*
Y52629D01*
X27356D01*
X27457Y52730D02*
Y52934D01*
X27661D01*
Y52730D01*
X27457D01*
X26899Y5512D02*
Y5918D01*
X27305D01*
Y5512D01*
X26899D01*
X27000Y5613D02*
Y5817D01*
X27203D01*
Y5613D01*
X27000D01*
X26865Y117416D02*
Y117822D01*
X27271D01*
Y117416D01*
X26865D01*
X26966Y117517D02*
Y117721D01*
X27170D01*
Y117517D01*
X26966D01*
X26721Y91618D02*
Y92024D01*
X27127D01*
Y91618D01*
X26721D01*
X26822Y91719D02*
Y91923D01*
X27026D01*
Y91719D01*
X26822D01*
X26340Y58471D02*
Y58877D01*
X26746D01*
Y58471D01*
X26340D01*
X26441Y58572D02*
Y58776D01*
X26645D01*
Y58572D01*
X26441D01*
X26340Y52629D02*
Y53035D01*
X26746D01*
Y52629D01*
X26340D01*
X26441Y52730D02*
Y52934D01*
X26645D01*
Y52730D01*
X26441D01*
X25959Y95555D02*
Y95961D01*
X26365D01*
Y95555D01*
X25959D01*
X26060Y95656D02*
Y95860D01*
X26264D01*
Y95656D01*
X26060D01*
X25451Y56439D02*
Y56845D01*
X25857D01*
Y56439D01*
X25451D01*
X25552Y56540D02*
Y56744D01*
X25756D01*
Y56540D01*
X25552D01*
X25400Y17932D02*
Y18339D01*
X25806D01*
Y17932D01*
X25400D01*
X25502Y18034D02*
Y18237D01*
X25705D01*
Y18034D01*
X25502D01*
X25327Y21387D02*
Y21793D01*
X25734D01*
Y21387D01*
X25327D01*
X25429Y21488D02*
Y21692D01*
X25632D01*
Y21488D01*
X25429D01*
X25327Y20117D02*
Y20523D01*
X25734D01*
Y20117D01*
X25327D01*
X25429Y20218D02*
Y20422D01*
X25632D01*
Y20218D01*
X25429D01*
X25327Y26340D02*
Y26746D01*
X25734D01*
Y26340D01*
X25327D01*
X25429Y26441D02*
Y26645D01*
X25632D01*
Y26441D01*
X25429D01*
X25324Y25057D02*
Y25463D01*
X25730D01*
Y25057D01*
X25324D01*
X25425Y25159D02*
Y25362D01*
X25629D01*
Y25159D01*
X25425D01*
X25324Y23901D02*
Y24308D01*
X25730D01*
Y23901D01*
X25324D01*
X25425Y24003D02*
Y24206D01*
X25629D01*
Y24003D01*
X25425D01*
X25324Y22657D02*
Y23063D01*
X25730D01*
Y22657D01*
X25324D01*
X25425Y22758D02*
Y22962D01*
X25629D01*
Y22758D01*
X25425D01*
X25298Y18850D02*
Y19257D01*
X25705D01*
Y18850D01*
X25298D01*
X25400Y18952D02*
Y19155D01*
X25603D01*
Y18952D01*
X25400D01*
X25243Y119223D02*
Y119629D01*
X25649D01*
Y119223D01*
X25243D01*
X25344Y119324D02*
Y119528D01*
X25548D01*
Y119324D01*
X25344D01*
X25209Y101893D02*
Y102299D01*
X25615D01*
Y101893D01*
X25209D01*
X25310Y101994D02*
Y102198D01*
X25514D01*
Y101994D01*
X25310D01*
X25197Y124765D02*
Y125171D01*
X25603D01*
Y124765D01*
X25197D01*
X25298Y124866D02*
Y125070D01*
X25502D01*
Y124866D01*
X25298D01*
D203*
X5156Y102108D02*
G03*
X5156Y102108I-203J0D01*
G01*
X12156D02*
G03*
X12156Y102108I-203J0D01*
G01*
X25353Y30289D02*
G03*
X25353Y30289I-203J0D01*
G01*
X25349Y29654D02*
G03*
X25349Y29654I-203J0D01*
G01*
X25157Y28257D02*
G03*
X25157Y28257I-203J0D01*
G01*
X25115Y108184D02*
G03*
X25115Y108184I-203J0D01*
G01*
X24968Y112395D02*
G03*
X24968Y112395I-203J0D01*
G01*
X24524Y114681D02*
G03*
X24524Y114681I-203J0D01*
G01*
X24435Y29604D02*
G03*
X24435Y29604I-203J0D01*
G01*
X24333Y23851D02*
G03*
X24333Y23851I-203J0D01*
G01*
Y17297D02*
G03*
X24333Y17297I-203J0D01*
G01*
X24079Y102108D02*
G03*
X24079Y102108I-203J0D01*
G01*
Y6858D02*
G03*
X24079Y6858I-203J0D01*
G01*
X23952Y44450D02*
G03*
X23952Y44450I-203J0D01*
G01*
X2578Y52451D02*
G03*
X2578Y52451I-203J0D01*
G01*
Y51689D02*
G03*
X2578Y51689I-203J0D01*
G01*
X23825Y45339D02*
G03*
X23825Y45339I-203J0D01*
G01*
X23356Y102152D02*
G03*
X23356Y102152I-203J0D01*
G01*
X23343Y7595D02*
G03*
X23343Y7595I-203J0D01*
G01*
X22809Y17272D02*
G03*
X22809Y17272I-203J0D01*
G01*
X22657Y42037D02*
G03*
X22657Y42037I-203J0D01*
G01*
X21971Y38684D02*
G03*
X21971Y38684I-203J0D01*
G01*
X21933Y10163D02*
G03*
X21933Y10163I-203J0D01*
G01*
X21920Y110236D02*
G03*
X21920Y110236I-203J0D01*
G01*
X21844Y29642D02*
G03*
X21844Y29642I-203J0D01*
G01*
X21590Y42012D02*
G03*
X21590Y42012I-203J0D01*
G01*
X21539Y41199D02*
G03*
X21539Y41199I-203J0D01*
G01*
X21488Y112395D02*
G03*
X21488Y112395I-203J0D01*
G01*
X21412Y30607D02*
G03*
X21412Y30607I-203J0D01*
G01*
X21272Y10147D02*
G03*
X21272Y10147I-203J0D01*
G01*
X20777Y37795D02*
G03*
X20777Y37795I-203J0D01*
G01*
X20726Y38456D02*
G03*
X20726Y38456I-203J0D01*
G01*
X20678Y103152D02*
G03*
X20678Y103152I-203J0D01*
G01*
X20676Y41961D02*
G03*
X20676Y41961I-203J0D01*
G01*
X20650Y115976D02*
G03*
X20650Y115976I-203J0D01*
G01*
X20142Y50139D02*
G03*
X20142Y50139I-203J0D01*
G01*
X20079Y47599D02*
G03*
X20079Y47599I-203J0D01*
G01*
X20054Y48869D02*
G03*
X20054Y48869I-203J0D01*
G01*
X19101Y119634D02*
G03*
X19101Y119634I-203J0D01*
G01*
X18999Y30861D02*
G03*
X18999Y30861I-203J0D01*
G01*
Y30226D02*
G03*
X18999Y30226I-203J0D01*
G01*
X18491Y104652D02*
G03*
X18491Y104652I-203J0D01*
G01*
X18364Y12497D02*
G03*
X18364Y12497I-203J0D01*
G01*
X17983Y87249D02*
G03*
X17983Y87249I-203J0D01*
G01*
Y85598D02*
G03*
X17983Y85598I-203J0D01*
G01*
Y83947D02*
G03*
X17983Y83947I-203J0D01*
G01*
X17348Y56134D02*
G03*
X17348Y56134I-203J0D01*
G01*
X17221Y115951D02*
G03*
X17221Y115951I-203J0D01*
G01*
X16713Y13589D02*
G03*
X16713Y13589I-203J0D01*
G01*
X16332Y124587D02*
G03*
X16332Y124587I-203J0D01*
G01*
Y111125D02*
G03*
X16332Y111125I-203J0D01*
G01*
Y87249D02*
G03*
X16332Y87249I-203J0D01*
G01*
Y85598D02*
G03*
X16332Y85598I-203J0D01*
G01*
Y83947D02*
G03*
X16332Y83947I-203J0D01*
G01*
X15443Y81788D02*
G03*
X15443Y81788I-203J0D01*
G01*
X14808Y85598D02*
G03*
X14808Y85598I-203J0D01*
G01*
X14681Y87249D02*
G03*
X14681Y87249I-203J0D01*
G01*
Y83947D02*
G03*
X14681Y83947I-203J0D01*
G01*
X14173Y14986D02*
G03*
X14173Y14986I-203J0D01*
G01*
X13665Y32639D02*
G03*
X13665Y32639I-203J0D01*
G01*
X13640Y33274D02*
G03*
X13640Y33274I-203J0D01*
G01*
X13538Y34036D02*
G03*
X13538Y34036I-203J0D01*
G01*
X13348Y81534D02*
G03*
X13348Y81534I-203J0D01*
G01*
X13132Y38961D02*
G03*
X13132Y38961I-203J0D01*
G01*
X12522Y11049D02*
G03*
X12522Y11049I-203J0D01*
G01*
Y83348D02*
G03*
X12522Y83348I-203J0D01*
G01*
X12497Y39014D02*
G03*
X12497Y39014I-203J0D01*
G01*
X12268Y34798D02*
G03*
X12268Y34798I-203J0D01*
G01*
X12243Y34036D02*
G03*
X12243Y34036I-203J0D01*
G01*
X12014Y93218D02*
G03*
X12014Y93218I-203J0D01*
G01*
X11760Y64389D02*
G03*
X11760Y64389I-203J0D01*
G01*
X11252Y83160D02*
G03*
X11252Y83160I-203J0D01*
G01*
X10998Y65405D02*
G03*
X10998Y65405I-203J0D01*
G01*
X10744Y119253D02*
G03*
X10744Y119253I-203J0D01*
G01*
X10516Y46329D02*
G03*
X10516Y46329I-203J0D01*
G01*
X10491Y47600D02*
G03*
X10491Y47600I-203J0D01*
G01*
X10490Y58293D02*
G03*
X10490Y58293I-203J0D01*
G01*
Y48869D02*
G03*
X10490Y48869I-203J0D01*
G01*
X9957Y79629D02*
G03*
X9957Y79629I-203J0D01*
G01*
X9804Y91516D02*
G03*
X9804Y91516I-203J0D01*
G01*
X9296Y83363D02*
G03*
X9296Y83363I-203J0D01*
G01*
Y82169D02*
G03*
X9296Y82169I-203J0D01*
G01*
X8966Y65151D02*
G03*
X8966Y65151I-203J0D01*
G01*
X8611Y82118D02*
G03*
X8611Y82118I-203J0D01*
G01*
X8585Y56261D02*
G03*
X8585Y56261I-203J0D01*
G01*
Y55626D02*
G03*
X8585Y55626I-203J0D01*
G01*
X8204Y77216D02*
G03*
X8204Y77216I-203J0D01*
G01*
X8103Y61519D02*
G03*
X8103Y61519I-203J0D01*
G01*
Y60833D02*
G03*
X8103Y60833I-203J0D01*
G01*
X8077Y76581D02*
G03*
X8077Y76581I-203J0D01*
G01*
X8001Y92075D02*
G03*
X8001Y92075I-203J0D01*
G01*
X7950Y85598D02*
G03*
X7950Y85598I-203J0D01*
G01*
Y75565D02*
G03*
X7950Y75565I-203J0D01*
G01*
X7925Y86233D02*
G03*
X7925Y86233I-203J0D01*
G01*
X7823Y73000D02*
G03*
X7823Y73000I-203J0D01*
G01*
X7760Y93345D02*
G03*
X7760Y93345I-203J0D01*
G01*
Y63881D02*
G03*
X7760Y63881I-203J0D01*
G01*
X7163Y60909D02*
G03*
X7163Y60909I-203J0D01*
G01*
X6553Y82677D02*
G03*
X6553Y82677I-203J0D01*
G01*
X57480Y43434D02*
G03*
X57480Y43434I-203J0D01*
G01*
X57099Y98552D02*
G03*
X57099Y98552I-203J0D01*
G01*
X56845Y94107D02*
G03*
X56845Y94107I-203J0D01*
G01*
X56718Y92964D02*
G03*
X56718Y92964I-203J0D01*
G01*
X56464Y19050D02*
G03*
X56464Y19050I-203J0D01*
G01*
Y47752D02*
G03*
X56464Y47752I-203J0D01*
G01*
X56337Y24892D02*
G03*
X56337Y24892I-203J0D01*
G01*
Y24117D02*
G03*
X56337Y24117I-203J0D01*
G01*
X54585Y61189D02*
G03*
X54585Y61189I-203J0D01*
G01*
X54432Y46101D02*
G03*
X54432Y46101I-203J0D01*
G01*
X54305Y54991D02*
G03*
X54305Y54991I-203J0D01*
G01*
Y35750D02*
G03*
X54305Y35750I-203J0D01*
G01*
X54178Y57531D02*
G03*
X54178Y57531I-203J0D01*
G01*
Y31242D02*
G03*
X54178Y31242I-203J0D01*
G01*
X54051Y80899D02*
G03*
X54051Y80899I-203J0D01*
G01*
Y80010D02*
G03*
X54051Y80010I-203J0D01*
G01*
Y79248D02*
G03*
X54051Y79248I-203J0D01*
G01*
X53797Y92456D02*
G03*
X53797Y92456I-203J0D01*
G01*
X53772Y46101D02*
G03*
X53772Y46101I-203J0D01*
G01*
X53746Y45466D02*
G03*
X53746Y45466I-203J0D01*
G01*
X53552Y20847D02*
G03*
X53552Y20847I-203J0D01*
G01*
Y20186D02*
G03*
X53552Y20186I-203J0D01*
G01*
X53543Y62611D02*
G03*
X53543Y62611I-203J0D01*
G01*
X53400Y23247D02*
G03*
X53400Y23247I-203J0D01*
G01*
Y22586D02*
G03*
X53400Y22586I-203J0D01*
G01*
X53035Y70231D02*
G03*
X53035Y70231I-203J0D01*
G01*
X52591Y61468D02*
G03*
X52591Y61468I-203J0D01*
G01*
X51511Y18669D02*
G03*
X51511Y18669I-203J0D01*
G01*
X51384Y8255D02*
G03*
X51384Y8255I-203J0D01*
G01*
X51257Y35750D02*
G03*
X51257Y35750I-203J0D01*
G01*
X51256Y22047D02*
G03*
X51256Y22047I-203J0D01*
G01*
Y21387D02*
G03*
X51256Y21387I-203J0D01*
G01*
X50495Y58801D02*
G03*
X50495Y58801I-203J0D01*
G01*
X5156Y70612D02*
G03*
X5156Y70612I-203J0D01*
G01*
Y67691D02*
G03*
X5156Y67691I-203J0D01*
G01*
X49606Y117729D02*
G03*
X49606Y117729I-203J0D01*
G01*
X49289Y85661D02*
G03*
X49289Y85661I-203J0D01*
G01*
X48590Y40640D02*
G03*
X48590Y40640I-203J0D01*
G01*
Y37465D02*
G03*
X48590Y37465I-203J0D01*
G01*
X48266Y14789D02*
G03*
X48266Y14789I-203J0D01*
G01*
X47879Y55220D02*
G03*
X47879Y55220I-203J0D01*
G01*
X47828Y62865D02*
G03*
X47828Y62865I-203J0D01*
G01*
X47473Y43891D02*
G03*
X47473Y43891I-203J0D01*
G01*
Y43028D02*
G03*
X47473Y43028I-203J0D01*
G01*
X47320Y5461D02*
G03*
X47320Y5461I-203J0D01*
G01*
X47219Y45288D02*
G03*
X47219Y45288I-203J0D01*
G01*
X4902Y58674D02*
G03*
X4902Y58674I-203J0D01*
G01*
X46634Y30607D02*
G03*
X46634Y30607I-203J0D01*
G01*
X46558Y5461D02*
G03*
X46558Y5461I-203J0D01*
G01*
X46406Y25679D02*
G03*
X46406Y25679I-203J0D01*
G01*
X46279Y33299D02*
G03*
X46279Y33299I-203J0D01*
G01*
X46177Y40513D02*
G03*
X46177Y40513I-203J0D01*
G01*
Y39497D02*
G03*
X46177Y39497I-203J0D01*
G01*
X45288Y60198D02*
G03*
X45288Y60198I-203J0D01*
G01*
X45161Y40513D02*
G03*
X45161Y40513I-203J0D01*
G01*
X45136Y39624D02*
G03*
X45136Y39624I-203J0D01*
G01*
X45060Y11659D02*
G03*
X45060Y11659I-203J0D01*
G01*
X45034Y18974D02*
G03*
X45034Y18974I-203J0D01*
G01*
X44501Y16282D02*
G03*
X44501Y16282I-203J0D01*
G01*
X44272Y35306D02*
G03*
X44272Y35306I-203J0D01*
G01*
X43536Y39141D02*
G03*
X43536Y39141I-203J0D01*
G01*
X43434Y11811D02*
G03*
X43434Y11811I-203J0D01*
G01*
X43383Y10795D02*
G03*
X43383Y10795I-203J0D01*
G01*
X43256Y14732D02*
G03*
X43256Y14732I-203J0D01*
G01*
X42748Y5461D02*
G03*
X42748Y5461I-203J0D01*
G01*
X42621Y14986D02*
G03*
X42621Y14986I-203J0D01*
G01*
X42596Y38964D02*
G03*
X42596Y38964I-203J0D01*
G01*
X42570Y41021D02*
G03*
X42570Y41021I-203J0D01*
G01*
Y40335D02*
G03*
X42570Y40335I-203J0D01*
G01*
X42494Y19583D02*
G03*
X42494Y19583I-203J0D01*
G01*
X42062Y20447D02*
G03*
X42062Y20447I-203J0D01*
G01*
X41986Y14351D02*
G03*
X41986Y14351I-203J0D01*
G01*
X41605Y38532D02*
G03*
X41605Y38532I-203J0D01*
G01*
Y35306D02*
G03*
X41605Y35306I-203J0D01*
G01*
X40818Y16053D02*
G03*
X40818Y16053I-203J0D01*
G01*
X40792Y15392D02*
G03*
X40792Y15392I-203J0D01*
G01*
X40081Y11303D02*
G03*
X40081Y11303I-203J0D01*
G01*
Y5461D02*
G03*
X40081Y5461I-203J0D01*
G01*
X39573Y95250D02*
G03*
X39573Y95250I-203J0D01*
G01*
Y40996D02*
G03*
X39573Y40996I-203J0D01*
G01*
X39319Y19431D02*
G03*
X39319Y19431I-203J0D01*
G01*
X38938Y35306D02*
G03*
X38938Y35306I-203J0D01*
G01*
X38684Y93218D02*
G03*
X38684Y93218I-203J0D01*
G01*
Y92456D02*
G03*
X38684Y92456I-203J0D01*
G01*
X38430Y41986D02*
G03*
X38430Y41986I-203J0D01*
G01*
Y41021D02*
G03*
X38430Y41021I-203J0D01*
G01*
X38176Y71755D02*
G03*
X38176Y71755I-203J0D01*
G01*
X37567Y18758D02*
G03*
X37567Y18758I-203J0D01*
G01*
Y15621D02*
G03*
X37567Y15621I-203J0D01*
G01*
X37541Y10490D02*
G03*
X37541Y10490I-203J0D01*
G01*
Y5588D02*
G03*
X37541Y5588I-203J0D01*
G01*
X37414Y41046D02*
G03*
X37414Y41046I-203J0D01*
G01*
X37389Y42037D02*
G03*
X37389Y42037I-203J0D01*
G01*
X36652Y35306D02*
G03*
X36652Y35306I-203J0D01*
G01*
X36373Y40919D02*
G03*
X36373Y40919I-203J0D01*
G01*
X36347Y39192D02*
G03*
X36347Y39192I-203J0D01*
G01*
X36322Y14326D02*
G03*
X36322Y14326I-203J0D01*
G01*
X3759Y53594D02*
G03*
X3759Y53594I-203J0D01*
G01*
X35636Y76327D02*
G03*
X35636Y76327I-203J0D01*
G01*
X35331Y10795D02*
G03*
X35331Y10795I-203J0D01*
G01*
X35027Y5563D02*
G03*
X35027Y5563I-203J0D01*
G01*
X34925Y40919D02*
G03*
X34925Y40919I-203J0D01*
G01*
X34773Y39167D02*
G03*
X34773Y39167I-203J0D01*
G01*
X34696Y18542D02*
G03*
X34696Y18542I-203J0D01*
G01*
X34493Y14859D02*
G03*
X34493Y14859I-203J0D01*
G01*
Y14148D02*
G03*
X34493Y14148I-203J0D01*
G01*
X34087Y18771D02*
G03*
X34087Y18771I-203J0D01*
G01*
X33477Y76327D02*
G03*
X33477Y76327I-203J0D01*
G01*
Y36068D02*
G03*
X33477Y36068I-203J0D01*
G01*
X32791Y38823D02*
G03*
X32791Y38823I-203J0D01*
G01*
X32461Y5639D02*
G03*
X32461Y5639I-203J0D01*
G01*
X32308Y36067D02*
G03*
X32308Y36067I-203J0D01*
G01*
X32080Y80391D02*
G03*
X32080Y80391I-203J0D01*
G01*
Y76454D02*
G03*
X32080Y76454I-203J0D01*
G01*
X31953Y18796D02*
G03*
X31953Y18796I-203J0D01*
G01*
X31775Y41783D02*
G03*
X31775Y41783I-203J0D01*
G01*
X31754Y41123D02*
G03*
X31754Y41123I-203J0D01*
G01*
X31318Y18796D02*
G03*
X31318Y18796I-203J0D01*
G01*
Y38799D02*
G03*
X31318Y38799I-203J0D01*
G01*
X31191Y914D02*
G03*
X31191Y914I-203J0D01*
G01*
X31140Y6629D02*
G03*
X31140Y6629I-203J0D01*
G01*
X29794Y114681D02*
G03*
X29794Y114681I-203J0D01*
G01*
Y36068D02*
G03*
X29794Y36068I-203J0D01*
G01*
X29693Y41402D02*
G03*
X29693Y41402I-203J0D01*
G01*
X29566Y107925D02*
G03*
X29566Y107925I-203J0D01*
G01*
Y107152D02*
G03*
X29566Y107152I-203J0D01*
G01*
X29185Y39040D02*
G03*
X29185Y39040I-203J0D01*
G01*
X28524Y107188D02*
G03*
X28524Y107188I-203J0D01*
G01*
X28321Y25273D02*
G03*
X28321Y25273I-203J0D01*
G01*
Y24003D02*
G03*
X28321Y24003I-203J0D01*
G01*
Y21590D02*
G03*
X28321Y21590I-203J0D01*
G01*
Y19054D02*
G03*
X28321Y19054I-203J0D01*
G01*
Y26543D02*
G03*
X28321Y26543I-203J0D01*
G01*
X28296Y22936D02*
G03*
X28296Y22936I-203J0D01*
G01*
X28270Y117602D02*
G03*
X28270Y117602I-203J0D01*
G01*
X28194Y20320D02*
G03*
X28194Y20320I-203J0D01*
G01*
X28016Y7544D02*
G03*
X28016Y7544I-203J0D01*
G01*
X27686Y39040D02*
G03*
X27686Y39040I-203J0D01*
G01*
X27661Y40945D02*
G03*
X27661Y40945I-203J0D01*
G01*
X27127Y7544D02*
G03*
X27127Y7544I-203J0D01*
G01*
X26822Y40843D02*
G03*
X26822Y40843I-203J0D01*
G01*
X26238Y8509D02*
G03*
X26238Y8509I-203J0D01*
G01*
Y7874D02*
G03*
X26238Y7874I-203J0D01*
G01*
X26137Y43155D02*
G03*
X26137Y43155I-203J0D01*
G01*
X26115Y108081D02*
G03*
X26115Y108081I-203J0D01*
G01*
X26035Y30328D02*
G03*
X26035Y30328I-203J0D01*
G01*
X25730Y114681D02*
G03*
X25730Y114681I-203J0D01*
G01*
X25682Y27900D02*
G03*
X25682Y27900I-203J0D01*
G01*
X25654Y116357D02*
G03*
X25654Y116357I-203J0D01*
G01*
X25629Y38329D02*
G03*
X25629Y38329I-203J0D01*
G01*
D204*
X25252Y30289D02*
G03*
X25252Y30289I-102J0D01*
G01*
X25248Y29654D02*
G03*
X25248Y29654I-102J0D01*
G01*
X25055Y28257D02*
G03*
X25055Y28257I-102J0D01*
G01*
X25014Y108184D02*
G03*
X25014Y108184I-102J0D01*
G01*
X24867Y112395D02*
G03*
X24867Y112395I-102J0D01*
G01*
X24422Y114681D02*
G03*
X24422Y114681I-102J0D01*
G01*
X24333Y29604D02*
G03*
X24333Y29604I-102J0D01*
G01*
X24232Y23851D02*
G03*
X24232Y23851I-102J0D01*
G01*
Y17297D02*
G03*
X24232Y17297I-102J0D01*
G01*
X23978Y102108D02*
G03*
X23978Y102108I-102J0D01*
G01*
Y6858D02*
G03*
X23978Y6858I-102J0D01*
G01*
X23851Y44450D02*
G03*
X23851Y44450I-102J0D01*
G01*
X2477Y52451D02*
G03*
X2477Y52451I-102J0D01*
G01*
Y51689D02*
G03*
X2477Y51689I-102J0D01*
G01*
X23724Y45339D02*
G03*
X23724Y45339I-102J0D01*
G01*
X23255Y102152D02*
G03*
X23255Y102152I-102J0D01*
G01*
X23241Y7595D02*
G03*
X23241Y7595I-102J0D01*
G01*
X22708Y17272D02*
G03*
X22708Y17272I-102J0D01*
G01*
X22555Y42037D02*
G03*
X22555Y42037I-102J0D01*
G01*
X21869Y38684D02*
G03*
X21869Y38684I-102J0D01*
G01*
X21831Y10163D02*
G03*
X21831Y10163I-102J0D01*
G01*
X21819Y110236D02*
G03*
X21819Y110236I-102J0D01*
G01*
X21742Y29642D02*
G03*
X21742Y29642I-102J0D01*
G01*
X21488Y42012D02*
G03*
X21488Y42012I-102J0D01*
G01*
X21438Y41199D02*
G03*
X21438Y41199I-102J0D01*
G01*
X21387Y112395D02*
G03*
X21387Y112395I-102J0D01*
G01*
X21311Y30607D02*
G03*
X21311Y30607I-102J0D01*
G01*
X21171Y10147D02*
G03*
X21171Y10147I-102J0D01*
G01*
X20676Y37795D02*
G03*
X20676Y37795I-102J0D01*
G01*
X20625Y38456D02*
G03*
X20625Y38456I-102J0D01*
G01*
X20577Y103152D02*
G03*
X20577Y103152I-102J0D01*
G01*
X20574Y41961D02*
G03*
X20574Y41961I-102J0D01*
G01*
X20549Y115976D02*
G03*
X20549Y115976I-102J0D01*
G01*
X20041Y50139D02*
G03*
X20041Y50139I-102J0D01*
G01*
X19977Y47599D02*
G03*
X19977Y47599I-102J0D01*
G01*
X19953Y48869D02*
G03*
X19953Y48869I-102J0D01*
G01*
X18999Y119634D02*
G03*
X18999Y119634I-102J0D01*
G01*
X18898Y30861D02*
G03*
X18898Y30861I-102J0D01*
G01*
Y30226D02*
G03*
X18898Y30226I-102J0D01*
G01*
X18390Y104652D02*
G03*
X18390Y104652I-102J0D01*
G01*
X18263Y12497D02*
G03*
X18263Y12497I-102J0D01*
G01*
X17882Y87249D02*
G03*
X17882Y87249I-102J0D01*
G01*
Y85598D02*
G03*
X17882Y85598I-102J0D01*
G01*
Y83947D02*
G03*
X17882Y83947I-102J0D01*
G01*
X17247Y56134D02*
G03*
X17247Y56134I-102J0D01*
G01*
X17120Y115951D02*
G03*
X17120Y115951I-102J0D01*
G01*
X16612Y13589D02*
G03*
X16612Y13589I-102J0D01*
G01*
X16231Y124587D02*
G03*
X16231Y124587I-102J0D01*
G01*
Y111125D02*
G03*
X16231Y111125I-102J0D01*
G01*
Y87249D02*
G03*
X16231Y87249I-102J0D01*
G01*
Y85598D02*
G03*
X16231Y85598I-102J0D01*
G01*
Y83947D02*
G03*
X16231Y83947I-102J0D01*
G01*
X15342Y81788D02*
G03*
X15342Y81788I-102J0D01*
G01*
X14707Y85598D02*
G03*
X14707Y85598I-102J0D01*
G01*
X14580Y87249D02*
G03*
X14580Y87249I-102J0D01*
G01*
Y83947D02*
G03*
X14580Y83947I-102J0D01*
G01*
X14072Y14986D02*
G03*
X14072Y14986I-102J0D01*
G01*
X13564Y32639D02*
G03*
X13564Y32639I-102J0D01*
G01*
X13538Y33274D02*
G03*
X13538Y33274I-102J0D01*
G01*
X13437Y34036D02*
G03*
X13437Y34036I-102J0D01*
G01*
X13246Y81534D02*
G03*
X13246Y81534I-102J0D01*
G01*
X13030Y38961D02*
G03*
X13030Y38961I-102J0D01*
G01*
X12421Y11049D02*
G03*
X12421Y11049I-102J0D01*
G01*
Y83348D02*
G03*
X12421Y83348I-102J0D01*
G01*
X12395Y39014D02*
G03*
X12395Y39014I-102J0D01*
G01*
X12167Y34798D02*
G03*
X12167Y34798I-102J0D01*
G01*
X12141Y34036D02*
G03*
X12141Y34036I-102J0D01*
G01*
X11913Y93218D02*
G03*
X11913Y93218I-102J0D01*
G01*
X11659Y64389D02*
G03*
X11659Y64389I-102J0D01*
G01*
X11151Y83160D02*
G03*
X11151Y83160I-102J0D01*
G01*
X10897Y65405D02*
G03*
X10897Y65405I-102J0D01*
G01*
X10643Y119253D02*
G03*
X10643Y119253I-102J0D01*
G01*
X10414Y46329D02*
G03*
X10414Y46329I-102J0D01*
G01*
X10389Y47600D02*
G03*
X10389Y47600I-102J0D01*
G01*
X10389Y58293D02*
G03*
X10389Y58293I-102J0D01*
G01*
Y48869D02*
G03*
X10389Y48869I-102J0D01*
G01*
X9855Y79629D02*
G03*
X9855Y79629I-102J0D01*
G01*
X9703Y91516D02*
G03*
X9703Y91516I-102J0D01*
G01*
X9195Y83363D02*
G03*
X9195Y83363I-102J0D01*
G01*
Y82169D02*
G03*
X9195Y82169I-102J0D01*
G01*
X8865Y65151D02*
G03*
X8865Y65151I-102J0D01*
G01*
X8509Y82118D02*
G03*
X8509Y82118I-102J0D01*
G01*
X8484Y56261D02*
G03*
X8484Y56261I-102J0D01*
G01*
Y55626D02*
G03*
X8484Y55626I-102J0D01*
G01*
X8103Y77216D02*
G03*
X8103Y77216I-102J0D01*
G01*
X8001Y61519D02*
G03*
X8001Y61519I-102J0D01*
G01*
Y60833D02*
G03*
X8001Y60833I-102J0D01*
G01*
X7976Y76581D02*
G03*
X7976Y76581I-102J0D01*
G01*
X7899Y92075D02*
G03*
X7899Y92075I-102J0D01*
G01*
X7849Y85598D02*
G03*
X7849Y85598I-102J0D01*
G01*
Y75565D02*
G03*
X7849Y75565I-102J0D01*
G01*
X7823Y86233D02*
G03*
X7823Y86233I-102J0D01*
G01*
X7722Y73000D02*
G03*
X7722Y73000I-102J0D01*
G01*
X7658Y93345D02*
G03*
X7658Y93345I-102J0D01*
G01*
Y63881D02*
G03*
X7658Y63881I-102J0D01*
G01*
X7061Y60909D02*
G03*
X7061Y60909I-102J0D01*
G01*
X6452Y82677D02*
G03*
X6452Y82677I-102J0D01*
G01*
X57379Y43434D02*
G03*
X57379Y43434I-102J0D01*
G01*
X56998Y98552D02*
G03*
X56998Y98552I-102J0D01*
G01*
X56744Y94107D02*
G03*
X56744Y94107I-102J0D01*
G01*
X56617Y92964D02*
G03*
X56617Y92964I-102J0D01*
G01*
X56363Y19050D02*
G03*
X56363Y19050I-102J0D01*
G01*
Y47752D02*
G03*
X56363Y47752I-102J0D01*
G01*
X56236Y24892D02*
G03*
X56236Y24892I-102J0D01*
G01*
Y24117D02*
G03*
X56236Y24117I-102J0D01*
G01*
X54483Y61189D02*
G03*
X54483Y61189I-102J0D01*
G01*
X54331Y46101D02*
G03*
X54331Y46101I-102J0D01*
G01*
X54204Y54991D02*
G03*
X54204Y54991I-102J0D01*
G01*
Y35750D02*
G03*
X54204Y35750I-102J0D01*
G01*
X54077Y57531D02*
G03*
X54077Y57531I-102J0D01*
G01*
Y31242D02*
G03*
X54077Y31242I-102J0D01*
G01*
X53950Y80899D02*
G03*
X53950Y80899I-102J0D01*
G01*
Y80010D02*
G03*
X53950Y80010I-102J0D01*
G01*
Y79248D02*
G03*
X53950Y79248I-102J0D01*
G01*
X53696Y92456D02*
G03*
X53696Y92456I-102J0D01*
G01*
X53670Y46101D02*
G03*
X53670Y46101I-102J0D01*
G01*
X53645Y45466D02*
G03*
X53645Y45466I-102J0D01*
G01*
X53451Y20847D02*
G03*
X53451Y20847I-102J0D01*
G01*
Y20186D02*
G03*
X53451Y20186I-102J0D01*
G01*
X53442Y62611D02*
G03*
X53442Y62611I-102J0D01*
G01*
X53298Y23247D02*
G03*
X53298Y23247I-102J0D01*
G01*
Y22586D02*
G03*
X53298Y22586I-102J0D01*
G01*
X52934Y70231D02*
G03*
X52934Y70231I-102J0D01*
G01*
X52489Y61468D02*
G03*
X52489Y61468I-102J0D01*
G01*
X51410Y18669D02*
G03*
X51410Y18669I-102J0D01*
G01*
X51283Y8255D02*
G03*
X51283Y8255I-102J0D01*
G01*
X51156Y35750D02*
G03*
X51156Y35750I-102J0D01*
G01*
X51154Y22047D02*
G03*
X51154Y22047I-102J0D01*
G01*
Y21387D02*
G03*
X51154Y21387I-102J0D01*
G01*
X50394Y58801D02*
G03*
X50394Y58801I-102J0D01*
G01*
X5055Y70612D02*
G03*
X5055Y70612I-102J0D01*
G01*
Y67691D02*
G03*
X5055Y67691I-102J0D01*
G01*
X49505Y117729D02*
G03*
X49505Y117729I-102J0D01*
G01*
X49187Y85661D02*
G03*
X49187Y85661I-102J0D01*
G01*
X48489Y40640D02*
G03*
X48489Y40640I-102J0D01*
G01*
Y37465D02*
G03*
X48489Y37465I-102J0D01*
G01*
X48165Y14789D02*
G03*
X48165Y14789I-102J0D01*
G01*
X47777Y55220D02*
G03*
X47777Y55220I-102J0D01*
G01*
X47727Y62865D02*
G03*
X47727Y62865I-102J0D01*
G01*
X47371Y43891D02*
G03*
X47371Y43891I-102J0D01*
G01*
Y43028D02*
G03*
X47371Y43028I-102J0D01*
G01*
X47219Y5461D02*
G03*
X47219Y5461I-102J0D01*
G01*
X47117Y45288D02*
G03*
X47117Y45288I-102J0D01*
G01*
X4801Y58674D02*
G03*
X4801Y58674I-102J0D01*
G01*
X46533Y30607D02*
G03*
X46533Y30607I-102J0D01*
G01*
X46457Y5461D02*
G03*
X46457Y5461I-102J0D01*
G01*
X46304Y25679D02*
G03*
X46304Y25679I-102J0D01*
G01*
X46177Y33299D02*
G03*
X46177Y33299I-102J0D01*
G01*
X46076Y40513D02*
G03*
X46076Y40513I-102J0D01*
G01*
Y39497D02*
G03*
X46076Y39497I-102J0D01*
G01*
X45187Y60198D02*
G03*
X45187Y60198I-102J0D01*
G01*
X45060Y40513D02*
G03*
X45060Y40513I-102J0D01*
G01*
X45035Y39624D02*
G03*
X45035Y39624I-102J0D01*
G01*
X44958Y11659D02*
G03*
X44958Y11659I-102J0D01*
G01*
X44933Y18974D02*
G03*
X44933Y18974I-102J0D01*
G01*
X44399Y16282D02*
G03*
X44399Y16282I-102J0D01*
G01*
X44171Y35306D02*
G03*
X44171Y35306I-102J0D01*
G01*
X43434Y39141D02*
G03*
X43434Y39141I-102J0D01*
G01*
X43332Y11811D02*
G03*
X43332Y11811I-102J0D01*
G01*
X43282Y10795D02*
G03*
X43282Y10795I-102J0D01*
G01*
X43155Y14732D02*
G03*
X43155Y14732I-102J0D01*
G01*
X42647Y5461D02*
G03*
X42647Y5461I-102J0D01*
G01*
X42520Y14986D02*
G03*
X42520Y14986I-102J0D01*
G01*
X42494Y38964D02*
G03*
X42494Y38964I-102J0D01*
G01*
X42469Y41021D02*
G03*
X42469Y41021I-102J0D01*
G01*
Y40335D02*
G03*
X42469Y40335I-102J0D01*
G01*
X42393Y19583D02*
G03*
X42393Y19583I-102J0D01*
G01*
X41961Y20447D02*
G03*
X41961Y20447I-102J0D01*
G01*
X41885Y14351D02*
G03*
X41885Y14351I-102J0D01*
G01*
X41504Y38532D02*
G03*
X41504Y38532I-102J0D01*
G01*
Y35306D02*
G03*
X41504Y35306I-102J0D01*
G01*
X40716Y16053D02*
G03*
X40716Y16053I-102J0D01*
G01*
X40691Y15392D02*
G03*
X40691Y15392I-102J0D01*
G01*
X39980Y11303D02*
G03*
X39980Y11303I-102J0D01*
G01*
Y5461D02*
G03*
X39980Y5461I-102J0D01*
G01*
X39472Y95250D02*
G03*
X39472Y95250I-102J0D01*
G01*
Y40996D02*
G03*
X39472Y40996I-102J0D01*
G01*
X39218Y19431D02*
G03*
X39218Y19431I-102J0D01*
G01*
X38837Y35306D02*
G03*
X38837Y35306I-102J0D01*
G01*
X38583Y93218D02*
G03*
X38583Y93218I-102J0D01*
G01*
Y92456D02*
G03*
X38583Y92456I-102J0D01*
G01*
X38329Y41986D02*
G03*
X38329Y41986I-102J0D01*
G01*
Y41021D02*
G03*
X38329Y41021I-102J0D01*
G01*
X38075Y71755D02*
G03*
X38075Y71755I-102J0D01*
G01*
X37465Y18758D02*
G03*
X37465Y18758I-102J0D01*
G01*
Y15621D02*
G03*
X37465Y15621I-102J0D01*
G01*
X37440Y10490D02*
G03*
X37440Y10490I-102J0D01*
G01*
Y5588D02*
G03*
X37440Y5588I-102J0D01*
G01*
X37313Y41046D02*
G03*
X37313Y41046I-102J0D01*
G01*
X37287Y42037D02*
G03*
X37287Y42037I-102J0D01*
G01*
X36551Y35306D02*
G03*
X36551Y35306I-102J0D01*
G01*
X36271Y40919D02*
G03*
X36271Y40919I-102J0D01*
G01*
X36246Y39192D02*
G03*
X36246Y39192I-102J0D01*
G01*
X36220Y14326D02*
G03*
X36220Y14326I-102J0D01*
G01*
X3658Y53594D02*
G03*
X3658Y53594I-102J0D01*
G01*
X35535Y76327D02*
G03*
X35535Y76327I-102J0D01*
G01*
X35230Y10795D02*
G03*
X35230Y10795I-102J0D01*
G01*
X34925Y5563D02*
G03*
X34925Y5563I-102J0D01*
G01*
X34823Y40919D02*
G03*
X34823Y40919I-102J0D01*
G01*
X34671Y39167D02*
G03*
X34671Y39167I-102J0D01*
G01*
X34595Y18542D02*
G03*
X34595Y18542I-102J0D01*
G01*
X34392Y14859D02*
G03*
X34392Y14859I-102J0D01*
G01*
Y14148D02*
G03*
X34392Y14148I-102J0D01*
G01*
X33985Y18771D02*
G03*
X33985Y18771I-102J0D01*
G01*
X33376Y76327D02*
G03*
X33376Y76327I-102J0D01*
G01*
Y36068D02*
G03*
X33376Y36068I-102J0D01*
G01*
X32690Y38823D02*
G03*
X32690Y38823I-102J0D01*
G01*
X32360Y5639D02*
G03*
X32360Y5639I-102J0D01*
G01*
X32207Y36067D02*
G03*
X32207Y36067I-102J0D01*
G01*
X31979Y80391D02*
G03*
X31979Y80391I-102J0D01*
G01*
Y76454D02*
G03*
X31979Y76454I-102J0D01*
G01*
X31852Y18796D02*
G03*
X31852Y18796I-102J0D01*
G01*
X31674Y41783D02*
G03*
X31674Y41783I-102J0D01*
G01*
X31652Y41123D02*
G03*
X31652Y41123I-102J0D01*
G01*
X31217Y18796D02*
G03*
X31217Y18796I-102J0D01*
G01*
Y38799D02*
G03*
X31217Y38799I-102J0D01*
G01*
X31090Y914D02*
G03*
X31090Y914I-102J0D01*
G01*
X31039Y6629D02*
G03*
X31039Y6629I-102J0D01*
G01*
X29693Y114681D02*
G03*
X29693Y114681I-102J0D01*
G01*
Y36068D02*
G03*
X29693Y36068I-102J0D01*
G01*
X29591Y41402D02*
G03*
X29591Y41402I-102J0D01*
G01*
X29464Y107925D02*
G03*
X29464Y107925I-102J0D01*
G01*
Y107152D02*
G03*
X29464Y107152I-102J0D01*
G01*
X29083Y39040D02*
G03*
X29083Y39040I-102J0D01*
G01*
X28423Y107188D02*
G03*
X28423Y107188I-102J0D01*
G01*
X28219Y25273D02*
G03*
X28219Y25273I-102J0D01*
G01*
Y24003D02*
G03*
X28219Y24003I-102J0D01*
G01*
Y21590D02*
G03*
X28219Y21590I-102J0D01*
G01*
Y19054D02*
G03*
X28219Y19054I-102J0D01*
G01*
Y26543D02*
G03*
X28219Y26543I-102J0D01*
G01*
X28194Y22936D02*
G03*
X28194Y22936I-102J0D01*
G01*
X28169Y117602D02*
G03*
X28169Y117602I-102J0D01*
G01*
X28092Y20320D02*
G03*
X28092Y20320I-102J0D01*
G01*
X27915Y7544D02*
G03*
X27915Y7544I-102J0D01*
G01*
X27584Y39040D02*
G03*
X27584Y39040I-102J0D01*
G01*
X27559Y40945D02*
G03*
X27559Y40945I-102J0D01*
G01*
X27026Y7544D02*
G03*
X27026Y7544I-102J0D01*
G01*
X26721Y40843D02*
G03*
X26721Y40843I-102J0D01*
G01*
X26137Y8509D02*
G03*
X26137Y8509I-102J0D01*
G01*
Y7874D02*
G03*
X26137Y7874I-102J0D01*
G01*
X26035Y43155D02*
G03*
X26035Y43155I-102J0D01*
G01*
X26014Y108081D02*
G03*
X26014Y108081I-102J0D01*
G01*
X25933Y30328D02*
G03*
X25933Y30328I-102J0D01*
G01*
X25629Y114681D02*
G03*
X25629Y114681I-102J0D01*
G01*
X25580Y27900D02*
G03*
X25580Y27900I-102J0D01*
G01*
X25552Y116357D02*
G03*
X25552Y116357I-102J0D01*
G01*
X25527Y38329D02*
G03*
X25527Y38329I-102J0D01*
G01*
M02*
