%FSLAX43Y43*%
%MOMM*%
G71*
G01*
G75*
G04 Layer_Color=2752767*
%ADD10R,3.600X1.800*%
%ADD11R,0.800X0.650*%
%ADD12R,0.650X0.800*%
%ADD13R,0.282X0.205*%
%ADD14R,0.205X0.282*%
%ADD15R,1.200X1.200*%
%ADD16R,0.900X0.600*%
%ADD17R,0.600X0.900*%
%ADD18R,0.350X0.350*%
%ADD19R,0.350X0.350*%
G04:AMPARAMS|DCode=20|XSize=0.205mm|YSize=0.282mm|CornerRadius=0mm|HoleSize=0mm|Usage=FLASHONLY|Rotation=315.000|XOffset=0mm|YOffset=0mm|HoleType=Round|Shape=Rectangle|*
%AMROTATEDRECTD20*
4,1,4,-0.172,-0.027,0.027,0.172,0.172,0.027,-0.027,-0.172,-0.172,-0.027,0.0*
%
%ADD20ROTATEDRECTD20*%

%ADD21R,0.350X0.700*%
%ADD22R,0.600X0.600*%
%ADD23R,0.950X1.750*%
%ADD24R,0.600X0.500*%
%ADD25R,0.762X0.762*%
%ADD26R,0.350X0.850*%
%ADD27R,1.100X0.700*%
%ADD28O,0.700X0.250*%
%ADD29O,0.250X0.700*%
%ADD30R,4.700X4.700*%
%ADD31R,1.600X1.400*%
%ADD32R,0.300X0.700*%
%ADD33R,1.300X1.100*%
%ADD34R,2.250X1.000*%
%ADD35R,2.200X1.050*%
%ADD36R,1.050X1.000*%
%ADD37R,1.200X3.200*%
%ADD38R,3.000X3.000*%
%ADD39R,3.200X1.200*%
%ADD40C,0.300*%
%ADD41C,0.254*%
%ADD42C,0.150*%
%ADD43C,0.203*%
%ADD44C,0.175*%
%ADD45C,0.152*%
%ADD46C,0.200*%
%ADD47C,0.400*%
%ADD48C,0.195*%
%ADD49C,0.170*%
%ADD50C,0.210*%
%ADD51C,0.190*%
%ADD52C,0.350*%
%ADD53R,1.547X1.240*%
%ADD54R,0.920X0.400*%
%ADD55R,0.920X0.400*%
%ADD56R,0.900X0.400*%
%ADD57R,0.002X0.195*%
%ADD58R,0.000X0.195*%
%ADD59R,0.486X1.169*%
%ADD60R,0.729X0.544*%
%ADD61R,0.428X1.195*%
%ADD62R,0.643X0.715*%
%ADD63C,2.000*%
%ADD64O,0.900X1.200*%
%ADD65O,0.900X1.250*%
%ADD66C,1.700*%
%ADD67R,4.200X1.350*%
%ADD68R,1.700X1.700*%
%ADD69C,1.800*%
%ADD70R,1.800X1.800*%
%ADD71C,0.550*%
%ADD72C,0.350*%
%ADD73C,0.800*%
%ADD74C,0.737*%
%ADD75C,0.250*%
%ADD76C,0.100*%
%ADD77C,0.102*%
%ADD78R,0.875X0.550*%
%ADD79R,1.750X1.750*%
%ADD80R,2.100X2.100*%
G04:AMPARAMS|DCode=81|XSize=1.65mm|YSize=1.65mm|CornerRadius=0.412mm|HoleSize=0mm|Usage=FLASHONLY|Rotation=0.000|XOffset=0mm|YOffset=0mm|HoleType=Round|Shape=RoundedRectangle|*
%AMROUNDEDRECTD81*
21,1,1.650,0.825,0,0,0.0*
21,1,0.825,1.650,0,0,0.0*
1,1,0.825,0.412,-0.412*
1,1,0.825,-0.412,-0.412*
1,1,0.825,-0.412,0.412*
1,1,0.825,0.412,0.412*
%
%ADD81ROUNDEDRECTD81*%
%ADD82R,2.100X2.100*%
%ADD83R,3.850X1.150*%
%ADD84R,3.599X1.806*%
%ADD85R,3.603X1.802*%
%ADD86R,1.550X1.350*%
%ADD87R,4.700X1.400*%
%ADD88R,1.400X4.700*%
%ADD89R,1.950X0.850*%
%ADD90R,0.900X0.750*%
%ADD91R,0.750X0.900*%
%ADD92R,0.408X0.332*%
%ADD93R,0.332X0.408*%
%ADD94R,1.300X1.300*%
%ADD95R,1.000X0.700*%
%ADD96R,0.700X1.000*%
G04:AMPARAMS|DCode=97|XSize=0.332mm|YSize=0.408mm|CornerRadius=0mm|HoleSize=0mm|Usage=FLASHONLY|Rotation=315.000|XOffset=0mm|YOffset=0mm|HoleType=Round|Shape=Rectangle|*
%AMROTATEDRECTD97*
4,1,4,-0.261,-0.027,0.027,0.261,0.261,0.027,-0.027,-0.261,-0.261,-0.027,0.0*
%
%ADD97ROTATEDRECTD97*%

%ADD98R,0.450X0.800*%
%ADD99R,0.700X0.700*%
%ADD100R,1.050X1.850*%
%ADD101R,0.700X0.600*%
%ADD102R,0.862X0.862*%
%ADD103R,0.450X0.950*%
%ADD104R,1.240X0.840*%
%ADD105O,0.800X0.350*%
%ADD106O,0.350X0.800*%
%ADD107R,1.750X1.550*%
%ADD108R,0.450X0.850*%
%ADD109R,1.400X1.200*%
%ADD110R,2.350X1.100*%
%ADD111R,2.300X1.150*%
%ADD112R,1.150X1.100*%
%ADD113R,1.300X3.300*%
%ADD114R,3.100X3.100*%
%ADD115R,3.300X1.300*%
%ADD116C,2.100*%
%ADD117O,1.000X1.300*%
%ADD118O,1.000X1.350*%
%ADD119R,1.800X1.800*%
%ADD120C,1.900*%
%ADD121R,1.900X1.900*%
%ADD122C,0.900*%
%ADD123C,0.650*%
%ADD124C,0.837*%
%ADD125C,0.127*%
%ADD126C,0.169*%
%ADD127C,0.406*%
%ADD128C,0.119*%
D41*
X11353Y-13566D02*
X11019Y-13733D01*
X10686Y-14066D01*
Y-14399D01*
X10853Y-14566D01*
X11186D01*
X11353Y-14399D01*
Y-14233D01*
X11186Y-14066D01*
X10686D01*
X11686Y-14399D02*
X11852Y-14566D01*
X12186D01*
X12352Y-14399D01*
Y-13733D01*
X12186Y-13566D01*
X11852D01*
X11686Y-13733D01*
Y-13900D01*
X11852Y-14066D01*
X12352D01*
X22702Y-13733D02*
X22869Y-13566D01*
X23202D01*
X23369Y-13733D01*
Y-14399D01*
X23202Y-14566D01*
X22869D01*
X22702Y-14399D01*
Y-13733D01*
X23702Y-14566D02*
Y-14399D01*
X23869D01*
Y-14566D01*
X23702D01*
X24535D02*
X24868D01*
X24702D01*
Y-13566D01*
X24535Y-13733D01*
X26034Y-13566D02*
X25368D01*
Y-14066D01*
X25701Y-13900D01*
X25868D01*
X26034Y-14066D01*
Y-14399D01*
X25868Y-14566D01*
X25535D01*
X25368Y-14399D01*
X26368Y-14566D02*
Y-13900D01*
X26534D01*
X26701Y-14066D01*
Y-14566D01*
Y-14066D01*
X26868Y-13900D01*
X27034Y-14066D01*
Y-14566D01*
X27367D02*
Y-13900D01*
X27534D01*
X27701Y-14066D01*
Y-14566D01*
Y-14066D01*
X27867Y-13900D01*
X28034Y-14066D01*
Y-14566D01*
X29700D02*
X29367Y-14233D01*
Y-13900D01*
X29700Y-13566D01*
X30866D02*
X30200D01*
Y-14066D01*
X30533Y-13900D01*
X30700D01*
X30866Y-14066D01*
Y-14399D01*
X30700Y-14566D01*
X30366D01*
X30200Y-14399D01*
X31199Y-14566D02*
Y-14399D01*
X31366D01*
Y-14566D01*
X31199D01*
X32033Y-14399D02*
X32199Y-14566D01*
X32532D01*
X32699Y-14399D01*
Y-13733D01*
X32532Y-13566D01*
X32199D01*
X32033Y-13733D01*
Y-13900D01*
X32199Y-14066D01*
X32699D01*
X33032Y-13733D02*
X33199Y-13566D01*
X33532D01*
X33699Y-13733D01*
Y-14399D01*
X33532Y-14566D01*
X33199D01*
X33032Y-14399D01*
Y-13733D01*
X34698Y-13566D02*
X34032D01*
Y-14066D01*
X34365Y-13900D01*
X34532D01*
X34698Y-14066D01*
Y-14399D01*
X34532Y-14566D01*
X34199D01*
X34032Y-14399D01*
X35032Y-14566D02*
Y-13900D01*
X35198D01*
X35365Y-14066D01*
Y-14566D01*
Y-14066D01*
X35531Y-13900D01*
X35698Y-14066D01*
Y-14566D01*
X36031D02*
X36364D01*
X36198D01*
Y-13900D01*
X36031D01*
X36864Y-14566D02*
X37198D01*
X37031D01*
Y-13566D01*
X36864D01*
X37697Y-14566D02*
X38031Y-14233D01*
Y-13900D01*
X37697Y-13566D01*
X45515Y-14566D02*
Y-13566D01*
X46015D01*
X46181Y-13733D01*
Y-14066D01*
X46015Y-14233D01*
X45515D01*
X46514Y-13566D02*
X47181D01*
X46848D01*
Y-14566D01*
X47514Y-13566D02*
Y-14566D01*
Y-14066D01*
X48181D01*
Y-13566D01*
Y-14566D01*
X54332D02*
Y-13566D01*
X54832D01*
X54998Y-13733D01*
Y-14066D01*
X54832Y-14233D01*
X54332D01*
X54665D02*
X54998Y-14566D01*
X55498D02*
X55831D01*
X55998Y-14399D01*
Y-14066D01*
X55831Y-13900D01*
X55498D01*
X55332Y-14066D01*
Y-14399D01*
X55498Y-14566D01*
X56331Y-13900D02*
Y-14399D01*
X56498Y-14566D01*
X56998D01*
Y-13900D01*
X57331Y-14566D02*
Y-13900D01*
X57831D01*
X57997Y-14066D01*
Y-14566D01*
X58997Y-13566D02*
Y-14566D01*
X58497D01*
X58331Y-14399D01*
Y-14066D01*
X58497Y-13900D01*
X58997D01*
X11353Y-16566D02*
X10686D01*
X11353Y-15900D01*
Y-15733D01*
X11186Y-15566D01*
X10853D01*
X10686Y-15733D01*
X12186Y-16566D02*
Y-15566D01*
X11686Y-16066D01*
X12352D01*
X12685Y-15566D02*
X13352D01*
Y-15733D01*
X12685Y-16399D01*
Y-16566D01*
X22702Y-15733D02*
X22869Y-15566D01*
X23202D01*
X23369Y-15733D01*
Y-16399D01*
X23202Y-16566D01*
X22869D01*
X22702Y-16399D01*
Y-15733D01*
X23702Y-16566D02*
Y-16399D01*
X23869D01*
Y-16566D01*
X23702D01*
X25201D02*
X24535D01*
X25201Y-15900D01*
Y-15733D01*
X25035Y-15566D01*
X24702D01*
X24535Y-15733D01*
X26201Y-15566D02*
X25535D01*
Y-16066D01*
X25868Y-15900D01*
X26034D01*
X26201Y-16066D01*
Y-16399D01*
X26034Y-16566D01*
X25701D01*
X25535Y-16399D01*
X26534Y-16566D02*
Y-15900D01*
X26701D01*
X26868Y-16066D01*
Y-16566D01*
Y-16066D01*
X27034Y-15900D01*
X27201Y-16066D01*
Y-16566D01*
X27534D02*
Y-15900D01*
X27701D01*
X27867Y-16066D01*
Y-16566D01*
Y-16066D01*
X28034Y-15900D01*
X28200Y-16066D01*
Y-16566D01*
X29867D02*
X29533Y-16233D01*
Y-15900D01*
X29867Y-15566D01*
X30366Y-16399D02*
X30533Y-16566D01*
X30866D01*
X31033Y-16399D01*
Y-15733D01*
X30866Y-15566D01*
X30533D01*
X30366Y-15733D01*
Y-15900D01*
X30533Y-16066D01*
X31033D01*
X31366Y-16566D02*
Y-16399D01*
X31533D01*
Y-16566D01*
X31366D01*
X32199Y-15733D02*
X32366Y-15566D01*
X32699D01*
X32866Y-15733D01*
Y-15900D01*
X32699Y-16066D01*
X32866Y-16233D01*
Y-16399D01*
X32699Y-16566D01*
X32366D01*
X32199Y-16399D01*
Y-16233D01*
X32366Y-16066D01*
X32199Y-15900D01*
Y-15733D01*
X32366Y-16066D02*
X32699D01*
X33699Y-16566D02*
Y-15566D01*
X33199Y-16066D01*
X33865D01*
X34865Y-16566D02*
X34199D01*
X34865Y-15900D01*
Y-15733D01*
X34698Y-15566D01*
X34365D01*
X34199Y-15733D01*
X35198Y-16566D02*
Y-15900D01*
X35365D01*
X35531Y-16066D01*
Y-16566D01*
Y-16066D01*
X35698Y-15900D01*
X35865Y-16066D01*
Y-16566D01*
X36198D02*
X36531D01*
X36364D01*
Y-15900D01*
X36198D01*
X37031Y-16566D02*
X37364D01*
X37198D01*
Y-15566D01*
X37031D01*
X37864Y-16566D02*
X38197Y-16233D01*
Y-15900D01*
X37864Y-15566D01*
X45515Y-16566D02*
Y-15566D01*
X46015D01*
X46181Y-15733D01*
Y-16066D01*
X46015Y-16233D01*
X45515D01*
X46514Y-15566D02*
X47181D01*
X46848D01*
Y-16566D01*
X47514Y-15566D02*
Y-16566D01*
Y-16066D01*
X48181D01*
Y-15566D01*
Y-16566D01*
X54332D02*
Y-15566D01*
X54832D01*
X54998Y-15733D01*
Y-16066D01*
X54832Y-16233D01*
X54332D01*
X54665D02*
X54998Y-16566D01*
X55498D02*
X55831D01*
X55998Y-16399D01*
Y-16066D01*
X55831Y-15900D01*
X55498D01*
X55332Y-16066D01*
Y-16399D01*
X55498Y-16566D01*
X56331Y-15900D02*
Y-16399D01*
X56498Y-16566D01*
X56998D01*
Y-15900D01*
X57331Y-16566D02*
Y-15900D01*
X57831D01*
X57997Y-16066D01*
Y-16566D01*
X58997Y-15566D02*
Y-16566D01*
X58497D01*
X58331Y-16399D01*
Y-16066D01*
X58497Y-15900D01*
X58997D01*
X11353Y-18566D02*
X10686D01*
X11353Y-17900D01*
Y-17733D01*
X11186Y-17566D01*
X10853D01*
X10686Y-17733D01*
X11686Y-18566D02*
X12019D01*
X11852D01*
Y-17566D01*
X11686Y-17733D01*
X22702D02*
X22869Y-17566D01*
X23202D01*
X23369Y-17733D01*
Y-18399D01*
X23202Y-18566D01*
X22869D01*
X22702Y-18399D01*
Y-17733D01*
X23702Y-18566D02*
Y-18399D01*
X23869D01*
Y-18566D01*
X23702D01*
X24535Y-17566D02*
X25201D01*
Y-17733D01*
X24535Y-18399D01*
Y-18566D01*
X26201Y-17566D02*
X25535D01*
Y-18066D01*
X25868Y-17900D01*
X26034D01*
X26201Y-18066D01*
Y-18399D01*
X26034Y-18566D01*
X25701D01*
X25535Y-18399D01*
X26534Y-18566D02*
Y-17900D01*
X26701D01*
X26868Y-18066D01*
Y-18566D01*
Y-18066D01*
X27034Y-17900D01*
X27201Y-18066D01*
Y-18566D01*
X27534D02*
Y-17900D01*
X27701D01*
X27867Y-18066D01*
Y-18566D01*
Y-18066D01*
X28034Y-17900D01*
X28200Y-18066D01*
Y-18566D01*
X29867D02*
X29533Y-18233D01*
Y-17900D01*
X29867Y-17566D01*
X31033Y-18566D02*
X30366D01*
X31033Y-17900D01*
Y-17733D01*
X30866Y-17566D01*
X30533D01*
X30366Y-17733D01*
X31366Y-18399D02*
X31533Y-18566D01*
X31866D01*
X32033Y-18399D01*
Y-17733D01*
X31866Y-17566D01*
X31533D01*
X31366Y-17733D01*
Y-17900D01*
X31533Y-18066D01*
X32033D01*
X32366Y-18566D02*
Y-18399D01*
X32532D01*
Y-18566D01*
X32366D01*
X33865Y-17566D02*
X33199D01*
Y-18066D01*
X33532Y-17900D01*
X33699D01*
X33865Y-18066D01*
Y-18399D01*
X33699Y-18566D01*
X33365D01*
X33199Y-18399D01*
X34865Y-18566D02*
X34199D01*
X34865Y-17900D01*
Y-17733D01*
X34698Y-17566D01*
X34365D01*
X34199Y-17733D01*
X35198D02*
X35365Y-17566D01*
X35698D01*
X35865Y-17733D01*
Y-17900D01*
X35698Y-18066D01*
X35865Y-18233D01*
Y-18399D01*
X35698Y-18566D01*
X35365D01*
X35198Y-18399D01*
Y-18233D01*
X35365Y-18066D01*
X35198Y-17900D01*
Y-17733D01*
X35365Y-18066D02*
X35698D01*
X36198Y-18566D02*
Y-17900D01*
X36364D01*
X36531Y-18066D01*
Y-18566D01*
Y-18066D01*
X36698Y-17900D01*
X36864Y-18066D01*
Y-18566D01*
X37198D02*
X37531D01*
X37364D01*
Y-17900D01*
X37198D01*
X38031Y-18566D02*
X38364D01*
X38197D01*
Y-17566D01*
X38031D01*
X38864Y-18566D02*
X39197Y-18233D01*
Y-17900D01*
X38864Y-17566D01*
X45515Y-18566D02*
Y-17566D01*
X46015D01*
X46181Y-17733D01*
Y-18066D01*
X46015Y-18233D01*
X45515D01*
X46514Y-17566D02*
X47181D01*
X46848D01*
Y-18566D01*
X47514Y-17566D02*
Y-18566D01*
Y-18066D01*
X48181D01*
Y-17566D01*
Y-18566D01*
X54332D02*
Y-17566D01*
X54832D01*
X54998Y-17733D01*
Y-18066D01*
X54832Y-18233D01*
X54332D01*
X54665D02*
X54998Y-18566D01*
X55498D02*
X55831D01*
X55998Y-18399D01*
Y-18066D01*
X55831Y-17900D01*
X55498D01*
X55332Y-18066D01*
Y-18399D01*
X55498Y-18566D01*
X56331Y-17900D02*
Y-18399D01*
X56498Y-18566D01*
X56998D01*
Y-17900D01*
X57331Y-18566D02*
Y-17900D01*
X57831D01*
X57997Y-18066D01*
Y-18566D01*
X58997Y-17566D02*
Y-18566D01*
X58497D01*
X58331Y-18399D01*
Y-18066D01*
X58497Y-17900D01*
X58997D01*
X11186Y-20566D02*
Y-19566D01*
X10686Y-20066D01*
X11353D01*
X22702Y-19733D02*
X22869Y-19566D01*
X23202D01*
X23369Y-19733D01*
Y-20399D01*
X23202Y-20566D01*
X22869D01*
X22702Y-20399D01*
Y-19733D01*
X23702Y-20566D02*
Y-20399D01*
X23869D01*
Y-20566D01*
X23702D01*
X24535Y-19733D02*
X24702Y-19566D01*
X25035D01*
X25201Y-19733D01*
Y-19900D01*
X25035Y-20066D01*
X25201Y-20233D01*
Y-20399D01*
X25035Y-20566D01*
X24702D01*
X24535Y-20399D01*
Y-20233D01*
X24702Y-20066D01*
X24535Y-19900D01*
Y-19733D01*
X24702Y-20066D02*
X25035D01*
X25535Y-20566D02*
Y-19900D01*
X25701D01*
X25868Y-20066D01*
Y-20566D01*
Y-20066D01*
X26034Y-19900D01*
X26201Y-20066D01*
Y-20566D01*
X26534D02*
Y-19900D01*
X26701D01*
X26868Y-20066D01*
Y-20566D01*
Y-20066D01*
X27034Y-19900D01*
X27201Y-20066D01*
Y-20566D01*
X28867D02*
X28534Y-20233D01*
Y-19900D01*
X28867Y-19566D01*
X29367Y-19733D02*
X29533Y-19566D01*
X29867D01*
X30033Y-19733D01*
Y-19900D01*
X29867Y-20066D01*
X29700D01*
X29867D01*
X30033Y-20233D01*
Y-20399D01*
X29867Y-20566D01*
X29533D01*
X29367Y-20399D01*
X30366Y-20566D02*
X30700D01*
X30533D01*
Y-19566D01*
X30366Y-19733D01*
X31199Y-20566D02*
Y-20399D01*
X31366D01*
Y-20566D01*
X31199D01*
X32532D02*
Y-19566D01*
X32033Y-20066D01*
X32699D01*
X33032Y-20399D02*
X33199Y-20566D01*
X33532D01*
X33699Y-20399D01*
Y-19733D01*
X33532Y-19566D01*
X33199D01*
X33032Y-19733D01*
Y-19900D01*
X33199Y-20066D01*
X33699D01*
X34698Y-19566D02*
X34365Y-19733D01*
X34032Y-20066D01*
Y-20399D01*
X34199Y-20566D01*
X34532D01*
X34698Y-20399D01*
Y-20233D01*
X34532Y-20066D01*
X34032D01*
X35032Y-20566D02*
Y-19900D01*
X35198D01*
X35365Y-20066D01*
Y-20566D01*
Y-20066D01*
X35531Y-19900D01*
X35698Y-20066D01*
Y-20566D01*
X36031D02*
X36364D01*
X36198D01*
Y-19900D01*
X36031D01*
X36864Y-20566D02*
X37198D01*
X37031D01*
Y-19566D01*
X36864D01*
X37697Y-20566D02*
X38031Y-20233D01*
Y-19900D01*
X37697Y-19566D01*
X45515Y-20566D02*
Y-19566D01*
X46015D01*
X46181Y-19733D01*
Y-20066D01*
X46015Y-20233D01*
X45515D01*
X46514Y-19566D02*
X47181D01*
X46848D01*
Y-20566D01*
X47514Y-19566D02*
Y-20566D01*
Y-20066D01*
X48181D01*
Y-19566D01*
Y-20566D01*
X54332D02*
Y-19566D01*
X54832D01*
X54998Y-19733D01*
Y-20066D01*
X54832Y-20233D01*
X54332D01*
X54665D02*
X54998Y-20566D01*
X55498D02*
X55831D01*
X55998Y-20399D01*
Y-20066D01*
X55831Y-19900D01*
X55498D01*
X55332Y-20066D01*
Y-20399D01*
X55498Y-20566D01*
X56331Y-19900D02*
Y-20399D01*
X56498Y-20566D01*
X56998D01*
Y-19900D01*
X57331Y-20566D02*
Y-19900D01*
X57831D01*
X57997Y-20066D01*
Y-20566D01*
X58997Y-19566D02*
Y-20566D01*
X58497D01*
X58331Y-20399D01*
Y-20066D01*
X58497Y-19900D01*
X58997D01*
X11353Y-22566D02*
X10686D01*
X11353Y-21900D01*
Y-21733D01*
X11186Y-21566D01*
X10853D01*
X10686Y-21733D01*
X11686D02*
X11852Y-21566D01*
X12186D01*
X12352Y-21733D01*
Y-21900D01*
X12186Y-22066D01*
X12352Y-22233D01*
Y-22399D01*
X12186Y-22566D01*
X11852D01*
X11686Y-22399D01*
Y-22233D01*
X11852Y-22066D01*
X11686Y-21900D01*
Y-21733D01*
X11852Y-22066D02*
X12186D01*
X22702Y-22566D02*
X23035D01*
X22869D01*
Y-21566D01*
X22702Y-21733D01*
X23535Y-22566D02*
Y-21900D01*
X23702D01*
X23869Y-22066D01*
Y-22566D01*
Y-22066D01*
X24035Y-21900D01*
X24202Y-22066D01*
Y-22566D01*
X24535D02*
Y-21900D01*
X24702D01*
X24868Y-22066D01*
Y-22566D01*
Y-22066D01*
X25035Y-21900D01*
X25201Y-22066D01*
Y-22566D01*
X26868D02*
X26534Y-22233D01*
Y-21900D01*
X26868Y-21566D01*
X27367Y-21733D02*
X27534Y-21566D01*
X27867D01*
X28034Y-21733D01*
Y-21900D01*
X27867Y-22066D01*
X27701D01*
X27867D01*
X28034Y-22233D01*
Y-22399D01*
X27867Y-22566D01*
X27534D01*
X27367Y-22399D01*
X28367D02*
X28534Y-22566D01*
X28867D01*
X29034Y-22399D01*
Y-21733D01*
X28867Y-21566D01*
X28534D01*
X28367Y-21733D01*
Y-21900D01*
X28534Y-22066D01*
X29034D01*
X29367Y-22566D02*
Y-22399D01*
X29533D01*
Y-22566D01*
X29367D01*
X30200Y-21733D02*
X30366Y-21566D01*
X30700D01*
X30866Y-21733D01*
Y-21900D01*
X30700Y-22066D01*
X30533D01*
X30700D01*
X30866Y-22233D01*
Y-22399D01*
X30700Y-22566D01*
X30366D01*
X30200Y-22399D01*
X31199Y-21566D02*
X31866D01*
Y-21733D01*
X31199Y-22399D01*
Y-22566D01*
X32199D02*
Y-21900D01*
X32366D01*
X32532Y-22066D01*
Y-22566D01*
Y-22066D01*
X32699Y-21900D01*
X32866Y-22066D01*
Y-22566D01*
X33199D02*
X33532D01*
X33365D01*
Y-21900D01*
X33199D01*
X34032Y-22566D02*
X34365D01*
X34199D01*
Y-21566D01*
X34032D01*
X34865Y-22566D02*
X35198Y-22233D01*
Y-21900D01*
X34865Y-21566D01*
X45515Y-22566D02*
Y-21566D01*
X46015D01*
X46181Y-21733D01*
Y-22066D01*
X46015Y-22233D01*
X45515D01*
X46514Y-21566D02*
X47181D01*
X46848D01*
Y-22566D01*
X47514Y-21566D02*
Y-22566D01*
Y-22066D01*
X48181D01*
Y-21566D01*
Y-22566D01*
X54332D02*
Y-21566D01*
X54832D01*
X54998Y-21733D01*
Y-22066D01*
X54832Y-22233D01*
X54332D01*
X54665D02*
X54998Y-22566D01*
X55498D02*
X55831D01*
X55998Y-22399D01*
Y-22066D01*
X55831Y-21900D01*
X55498D01*
X55332Y-22066D01*
Y-22399D01*
X55498Y-22566D01*
X56331Y-21900D02*
Y-22399D01*
X56498Y-22566D01*
X56998D01*
Y-21900D01*
X57331Y-22566D02*
Y-21900D01*
X57831D01*
X57997Y-22066D01*
Y-22566D01*
X58997Y-21566D02*
Y-22566D01*
X58497D01*
X58331Y-22399D01*
Y-22066D01*
X58497Y-21900D01*
X58997D01*
X11353Y-23566D02*
X11019Y-23733D01*
X10686Y-24066D01*
Y-24399D01*
X10853Y-24566D01*
X11186D01*
X11353Y-24399D01*
Y-24233D01*
X11186Y-24066D01*
X10686D01*
X22702Y-24566D02*
X23035D01*
X22869D01*
Y-23566D01*
X22702Y-23733D01*
X23535Y-24566D02*
Y-24399D01*
X23702D01*
Y-24566D01*
X23535D01*
X24868D02*
Y-23566D01*
X24368Y-24066D01*
X25035D01*
X26034Y-24566D02*
X25368D01*
X26034Y-23900D01*
Y-23733D01*
X25868Y-23566D01*
X25535D01*
X25368Y-23733D01*
X27034Y-23566D02*
X26368D01*
Y-24066D01*
X26701Y-23900D01*
X26868D01*
X27034Y-24066D01*
Y-24399D01*
X26868Y-24566D01*
X26534D01*
X26368Y-24399D01*
X27367Y-24566D02*
Y-23900D01*
X27534D01*
X27701Y-24066D01*
Y-24566D01*
Y-24066D01*
X27867Y-23900D01*
X28034Y-24066D01*
Y-24566D01*
X28367D02*
Y-23900D01*
X28534D01*
X28700Y-24066D01*
Y-24566D01*
Y-24066D01*
X28867Y-23900D01*
X29034Y-24066D01*
Y-24566D01*
X30700D02*
X30366Y-24233D01*
Y-23900D01*
X30700Y-23566D01*
X31866D02*
X31199D01*
Y-24066D01*
X31533Y-23900D01*
X31699D01*
X31866Y-24066D01*
Y-24399D01*
X31699Y-24566D01*
X31366D01*
X31199Y-24399D01*
X32866Y-23566D02*
X32532Y-23733D01*
X32199Y-24066D01*
Y-24399D01*
X32366Y-24566D01*
X32699D01*
X32866Y-24399D01*
Y-24233D01*
X32699Y-24066D01*
X32199D01*
X33199Y-24566D02*
Y-24399D01*
X33365D01*
Y-24566D01*
X33199D01*
X34032D02*
X34365D01*
X34199D01*
Y-23566D01*
X34032Y-23733D01*
X34865D02*
X35032Y-23566D01*
X35365D01*
X35531Y-23733D01*
Y-24399D01*
X35365Y-24566D01*
X35032D01*
X34865Y-24399D01*
Y-23733D01*
X36531Y-24566D02*
X35865D01*
X36531Y-23900D01*
Y-23733D01*
X36364Y-23566D01*
X36031D01*
X35865Y-23733D01*
X36864Y-24566D02*
Y-23900D01*
X37031D01*
X37198Y-24066D01*
Y-24566D01*
Y-24066D01*
X37364Y-23900D01*
X37531Y-24066D01*
Y-24566D01*
X37864D02*
X38197D01*
X38031D01*
Y-23900D01*
X37864D01*
X38697Y-24566D02*
X39030D01*
X38864D01*
Y-23566D01*
X38697D01*
X39530Y-24566D02*
X39863Y-24233D01*
Y-23900D01*
X39530Y-23566D01*
X45515Y-24566D02*
Y-23566D01*
X46015D01*
X46181Y-23733D01*
Y-24066D01*
X46015Y-24233D01*
X45515D01*
X46514Y-23566D02*
X47181D01*
X46848D01*
Y-24566D01*
X47514Y-23566D02*
Y-24566D01*
Y-24066D01*
X48181D01*
Y-23566D01*
Y-24566D01*
X54332D02*
Y-23566D01*
X54832D01*
X54998Y-23733D01*
Y-24066D01*
X54832Y-24233D01*
X54332D01*
X54665D02*
X54998Y-24566D01*
X55498D02*
X55831D01*
X55998Y-24399D01*
Y-24066D01*
X55831Y-23900D01*
X55498D01*
X55332Y-24066D01*
Y-24399D01*
X55498Y-24566D01*
X56331Y-23900D02*
Y-24399D01*
X56498Y-24566D01*
X56998D01*
Y-23900D01*
X57331Y-24566D02*
Y-23900D01*
X57831D01*
X57997Y-24066D01*
Y-24566D01*
X58997Y-23566D02*
Y-24566D01*
X58497D01*
X58331Y-24399D01*
Y-24066D01*
X58497Y-23900D01*
X58997D01*
X11353Y-26566D02*
X10686D01*
X11353Y-25900D01*
Y-25733D01*
X11186Y-25566D01*
X10853D01*
X10686Y-25733D01*
X23369Y-26566D02*
X22702D01*
X23369Y-25900D01*
Y-25733D01*
X23202Y-25566D01*
X22869D01*
X22702Y-25733D01*
X23702Y-26566D02*
Y-25900D01*
X23869D01*
X24035Y-26066D01*
Y-26566D01*
Y-26066D01*
X24202Y-25900D01*
X24368Y-26066D01*
Y-26566D01*
X24702D02*
Y-25900D01*
X24868D01*
X25035Y-26066D01*
Y-26566D01*
Y-26066D01*
X25201Y-25900D01*
X25368Y-26066D01*
Y-26566D01*
X27034D02*
X26701Y-26233D01*
Y-25900D01*
X27034Y-25566D01*
X27534D02*
X28200D01*
Y-25733D01*
X27534Y-26399D01*
Y-26566D01*
X28534Y-25733D02*
X28700Y-25566D01*
X29034D01*
X29200Y-25733D01*
Y-25900D01*
X29034Y-26066D01*
X29200Y-26233D01*
Y-26399D01*
X29034Y-26566D01*
X28700D01*
X28534Y-26399D01*
Y-26233D01*
X28700Y-26066D01*
X28534Y-25900D01*
Y-25733D01*
X28700Y-26066D02*
X29034D01*
X29533Y-26566D02*
Y-26399D01*
X29700D01*
Y-26566D01*
X29533D01*
X30366Y-25566D02*
X31033D01*
Y-25733D01*
X30366Y-26399D01*
Y-26566D01*
X31866D02*
Y-25566D01*
X31366Y-26066D01*
X32033D01*
X32366Y-26566D02*
Y-25900D01*
X32532D01*
X32699Y-26066D01*
Y-26566D01*
Y-26066D01*
X32866Y-25900D01*
X33032Y-26066D01*
Y-26566D01*
X33365D02*
X33699D01*
X33532D01*
Y-25900D01*
X33365D01*
X34199Y-26566D02*
X34532D01*
X34365D01*
Y-25566D01*
X34199D01*
X35032Y-26566D02*
X35365Y-26233D01*
Y-25900D01*
X35032Y-25566D01*
X45515Y-26566D02*
Y-25566D01*
X46181Y-26566D01*
Y-25566D01*
X46514Y-26566D02*
Y-25566D01*
X47014D01*
X47181Y-25733D01*
Y-26066D01*
X47014Y-26233D01*
X46514D01*
X47514Y-25566D02*
X48181D01*
X47847D01*
Y-26566D01*
X48514Y-25566D02*
Y-26566D01*
Y-26066D01*
X49180D01*
Y-25566D01*
Y-26566D01*
X54332D02*
Y-25566D01*
X54832D01*
X54998Y-25733D01*
Y-26066D01*
X54832Y-26233D01*
X54332D01*
X54665D02*
X54998Y-26566D01*
X55498D02*
X55831D01*
X55998Y-26399D01*
Y-26066D01*
X55831Y-25900D01*
X55498D01*
X55332Y-26066D01*
Y-26399D01*
X55498Y-26566D01*
X56331Y-25900D02*
Y-26399D01*
X56498Y-26566D01*
X56998D01*
Y-25900D01*
X57331Y-26566D02*
Y-25900D01*
X57831D01*
X57997Y-26066D01*
Y-26566D01*
X58997Y-25566D02*
Y-26566D01*
X58497D01*
X58331Y-26399D01*
Y-26066D01*
X58497Y-25900D01*
X58997D01*
X10686Y-27733D02*
X10853Y-27566D01*
X11186D01*
X11353Y-27733D01*
Y-27900D01*
X11186Y-28066D01*
X11019D01*
X11186D01*
X11353Y-28233D01*
Y-28399D01*
X11186Y-28566D01*
X10853D01*
X10686Y-28399D01*
X11686Y-27566D02*
X12352D01*
Y-27733D01*
X11686Y-28399D01*
Y-28566D01*
X12685Y-27566D02*
X13352D01*
Y-27733D01*
X12685Y-28399D01*
Y-28566D01*
X15466Y-27566D02*
X16133D01*
X15800D01*
Y-28566D01*
X16633D02*
X16966D01*
X17132Y-28399D01*
Y-28066D01*
X16966Y-27900D01*
X16633D01*
X16466Y-28066D01*
Y-28399D01*
X16633Y-28566D01*
X17632Y-27733D02*
Y-27900D01*
X17466D01*
X17799D01*
X17632D01*
Y-28399D01*
X17799Y-28566D01*
X18465Y-27900D02*
X18799D01*
X18965Y-28066D01*
Y-28566D01*
X18465D01*
X18299Y-28399D01*
X18465Y-28233D01*
X18965D01*
X19298Y-28566D02*
X19632D01*
X19465D01*
Y-27566D01*
X19298D01*
D125*
X7492Y6872D02*
Y7888D01*
X8508D01*
Y6872D01*
X7492D01*
Y22112D02*
Y23128D01*
X8508D01*
Y22112D01*
X7492D01*
X21213Y13088D02*
X20705Y14104D01*
X21721D01*
X21213Y13088D01*
X19943Y14588D02*
X19435Y15604D01*
X20451D01*
X19943Y14588D01*
X18673D02*
X18165Y15604D01*
X19181D01*
X18673Y14588D01*
X17403Y13088D02*
X16895Y14104D01*
X17911D01*
X17403Y13088D01*
X16133Y14588D02*
X15625Y15604D01*
X16641D01*
X16133Y14588D01*
X14863D02*
X14355Y15604D01*
X15371D01*
X14863Y14588D01*
X13593Y13088D02*
X13085Y14104D01*
X14101D01*
X13593Y13088D01*
X21213Y7942D02*
X20705Y8958D01*
X21721D01*
X21213Y7942D01*
X19943Y9442D02*
X19435Y10458D01*
X20451D01*
X19943Y9442D01*
X18673D02*
X18165Y10458D01*
X19181D01*
X18673Y9442D01*
X17403Y7942D02*
X16895Y8958D01*
X17911D01*
X17403Y7942D01*
X16133Y9442D02*
X15625Y10458D01*
X16641D01*
X16133Y9442D01*
X14863D02*
X14355Y10458D01*
X15371D01*
X14863Y9442D01*
X13593Y7942D02*
X13085Y8958D01*
X14101D01*
X13593Y7942D01*
X30873Y27402D02*
X31127Y27656D01*
X31381D01*
X31127Y27910D01*
X31381Y28164D01*
X31127D01*
X30873Y28418D01*
X30619Y28164D01*
X30365D01*
X30619Y27910D01*
X30365Y27656D01*
X30619D01*
X30873Y27402D01*
X62294Y24875D02*
X62548Y25383D01*
X62294Y25891D01*
X62802Y25637D01*
X63310Y25891D01*
X63056Y25383D01*
X63310Y24875D01*
X62802Y25129D01*
X62294Y24875D01*
Y19225D02*
X62548Y19733D01*
X62294Y20241D01*
X62802Y19987D01*
X63310Y20241D01*
X63056Y19733D01*
X63310Y19225D01*
X62802Y19479D01*
X62294Y19225D01*
X40869Y27402D02*
X41123Y27656D01*
X41377D01*
X41123Y27910D01*
X41377Y28164D01*
X41123D01*
X40869Y28418D01*
X40615Y28164D01*
X40361D01*
X40615Y27910D01*
X40361Y27656D01*
X40615D01*
X40869Y27402D01*
X38329D02*
X38583Y27656D01*
X38837D01*
X38583Y27910D01*
X38837Y28164D01*
X38583D01*
X38329Y28418D01*
X38075Y28164D01*
X37821D01*
X38075Y27910D01*
X37821Y27656D01*
X38075D01*
X38329Y27402D01*
X38272Y1827D02*
X38526Y2081D01*
X38780D01*
X38526Y2335D01*
X38780Y2589D01*
X38526D01*
X38272Y2843D01*
X38018Y2589D01*
X37764D01*
X38018Y2335D01*
X37764Y2081D01*
X38018D01*
X38272Y1827D01*
X40812D02*
X41066Y2081D01*
X41320D01*
X41066Y2335D01*
X41320Y2589D01*
X41066D01*
X40812Y2843D01*
X40558Y2589D01*
X40304D01*
X40558Y2335D01*
X40304Y2081D01*
X40558D01*
X40812Y1827D01*
X62318Y8317D02*
X62572Y8825D01*
X62318Y9333D01*
X62826Y9079D01*
X63334Y9333D01*
X63080Y8825D01*
X63334Y8317D01*
X62826Y8571D01*
X62318Y8317D01*
Y2667D02*
X62572Y3175D01*
X62318Y3683D01*
X62826Y3429D01*
X63334Y3683D01*
X63080Y3175D01*
X63334Y2667D01*
X62826Y2921D01*
X62318Y2667D01*
X2530Y25922D02*
X2784Y26176D01*
X3038D01*
X2784Y26430D01*
X3038Y26684D01*
X2784D01*
X2530Y26938D01*
X2276Y26684D01*
X2022D01*
X2276Y26430D01*
X2022Y26176D01*
X2276D01*
X2530Y25922D01*
X5070Y20842D02*
X5324Y21096D01*
X5578D01*
X5324Y21350D01*
X5578Y21604D01*
X5324D01*
X5070Y21858D01*
X4816Y21604D01*
X4562D01*
X4816Y21350D01*
X4562Y21096D01*
X4816D01*
X5070Y20842D01*
X2530D02*
X2784Y21096D01*
X3038D01*
X2784Y21350D01*
X3038Y21604D01*
X2784D01*
X2530Y21858D01*
X2276Y21604D01*
X2022D01*
X2276Y21350D01*
X2022Y21096D01*
X2276D01*
X2530Y20842D01*
Y23382D02*
X2784Y23636D01*
X3038D01*
X2784Y23890D01*
X3038Y24144D01*
X2784D01*
X2530Y24398D01*
X2276Y24144D01*
X2022D01*
X2276Y23890D01*
X2022Y23636D01*
X2276D01*
X2530Y23382D01*
X5070D02*
X5324Y23636D01*
X5578D01*
X5324Y23890D01*
X5578Y24144D01*
X5324D01*
X5070Y24398D01*
X4816Y24144D01*
X4562D01*
X4816Y23890D01*
X4562Y23636D01*
X4816D01*
X5070Y23382D01*
X2530Y3062D02*
X2784Y3316D01*
X3038D01*
X2784Y3570D01*
X3038Y3824D01*
X2784D01*
X2530Y4078D01*
X2276Y3824D01*
X2022D01*
X2276Y3570D01*
X2022Y3316D01*
X2276D01*
X2530Y3062D01*
Y5602D02*
X2784Y5856D01*
X3038D01*
X2784Y6110D01*
X3038Y6364D01*
X2784D01*
X2530Y6618D01*
X2276Y6364D01*
X2022D01*
X2276Y6110D01*
X2022Y5856D01*
X2276D01*
X2530Y5602D01*
X5070D02*
X5324Y5856D01*
X5578D01*
X5324Y6110D01*
X5578Y6364D01*
X5324D01*
X5070Y6618D01*
X4816Y6364D01*
X4562D01*
X4816Y6110D01*
X4562Y5856D01*
X4816D01*
X5070Y5602D01*
X2530Y13222D02*
X2784Y13476D01*
X3038D01*
X2784Y13730D01*
X3038Y13984D01*
X2784D01*
X2530Y14238D01*
X2276Y13984D01*
X2022D01*
X2276Y13730D01*
X2022Y13476D01*
X2276D01*
X2530Y13222D01*
X5070Y10682D02*
X5324Y10936D01*
X5578D01*
X5324Y11190D01*
X5578Y11444D01*
X5324D01*
X5070Y11698D01*
X4816Y11444D01*
X4562D01*
X4816Y11190D01*
X4562Y10936D01*
X4816D01*
X5070Y10682D01*
X2530D02*
X2784Y10936D01*
X3038D01*
X2784Y11190D01*
X3038Y11444D01*
X2784D01*
X2530Y11698D01*
X2276Y11444D01*
X2022D01*
X2276Y11190D01*
X2022Y10936D01*
X2276D01*
X2530Y10682D01*
Y8142D02*
X2784Y8396D01*
X3038D01*
X2784Y8650D01*
X3038Y8904D01*
X2784D01*
X2530Y9158D01*
X2276Y8904D01*
X2022D01*
X2276Y8650D01*
X2022Y8396D01*
X2276D01*
X2530Y8142D01*
X5070Y13222D02*
X5324Y13476D01*
X5578D01*
X5324Y13730D01*
X5578Y13984D01*
X5324D01*
X5070Y14238D01*
X4816Y13984D01*
X4562D01*
X4816Y13730D01*
X4562Y13476D01*
X4816D01*
X5070Y13222D01*
Y8142D02*
X5324Y8396D01*
X5578D01*
X5324Y8650D01*
X5578Y8904D01*
X5324D01*
X5070Y9158D01*
X4816Y8904D01*
X4562D01*
X4816Y8650D01*
X4562Y8396D01*
X4816D01*
X5070Y8142D01*
Y15762D02*
X5324Y16016D01*
X5578D01*
X5324Y16270D01*
X5578Y16524D01*
X5324D01*
X5070Y16778D01*
X4816Y16524D01*
X4562D01*
X4816Y16270D01*
X4562Y16016D01*
X4816D01*
X5070Y15762D01*
X2530Y18302D02*
X2784Y18556D01*
X3038D01*
X2784Y18810D01*
X3038Y19064D01*
X2784D01*
X2530Y19318D01*
X2276Y19064D01*
X2022D01*
X2276Y18810D01*
X2022Y18556D01*
X2276D01*
X2530Y18302D01*
X5070D02*
X5324Y18556D01*
X5578D01*
X5324Y18810D01*
X5578Y19064D01*
X5324D01*
X5070Y19318D01*
X4816Y19064D01*
X4562D01*
X4816Y18810D01*
X4562Y18556D01*
X4816D01*
X5070Y18302D01*
X2530Y15762D02*
X2784Y16016D01*
X3038D01*
X2784Y16270D01*
X3038Y16524D01*
X2784D01*
X2530Y16778D01*
X2276Y16524D01*
X2022D01*
X2276Y16270D01*
X2022Y16016D01*
X2276D01*
X2530Y15762D01*
X5070Y3062D02*
X5324Y3316D01*
X5578D01*
X5324Y3570D01*
X5578Y3824D01*
X5324D01*
X5070Y4078D01*
X4816Y3824D01*
X4562D01*
X4816Y3570D01*
X4562Y3316D01*
X4816D01*
X5070Y3062D01*
Y25922D02*
X5324Y26176D01*
X5578D01*
X5324Y26430D01*
X5578Y26684D01*
X5324D01*
X5070Y26938D01*
X4816Y26684D01*
X4562D01*
X4816Y26430D01*
X4562Y26176D01*
X4816D01*
X5070Y25922D01*
X33413Y27402D02*
X33667Y27656D01*
X33921D01*
X33667Y27910D01*
X33921Y28164D01*
X33667D01*
X33413Y28418D01*
X33159Y28164D01*
X32905D01*
X33159Y27910D01*
X32905Y27656D01*
X33159D01*
X33413Y27402D01*
X27931Y2074D02*
X28185Y2328D01*
X28439D01*
X28185Y2582D01*
X28439Y2836D01*
X28185D01*
X27931Y3090D01*
X27677Y2836D01*
X27423D01*
X27677Y2582D01*
X27423Y2328D01*
X27677D01*
X27931Y2074D01*
X30471D02*
X30725Y2328D01*
X30979D01*
X30725Y2582D01*
X30979Y2836D01*
X30725D01*
X30471Y3090D01*
X30217Y2836D01*
X29963D01*
X30217Y2582D01*
X29963Y2328D01*
X30217D01*
X30471Y2074D01*
X21213Y18184D02*
X20705Y19200D01*
X21721D01*
X21213Y18184D01*
X19943Y19684D02*
X19435Y20700D01*
X20451D01*
X19943Y19684D01*
X18673D02*
X18165Y20700D01*
X19181D01*
X18673Y19684D01*
X17403Y18184D02*
X16895Y19200D01*
X17911D01*
X17403Y18184D01*
X16133Y19684D02*
X15625Y20700D01*
X16641D01*
X16133Y19684D01*
X14863D02*
X14355Y20700D01*
X15371D01*
X14863Y19684D01*
X13593Y18184D02*
X13085Y19200D01*
X14101D01*
X13593Y18184D01*
X62666Y27266D02*
Y27012D01*
X63174D01*
Y27266D01*
X63428D01*
Y27774D01*
X63174D01*
Y28028D01*
X62666D01*
Y27774D01*
X62412D01*
Y27266D01*
X62666D01*
X61666Y17266D02*
Y17012D01*
X62174D01*
Y17266D01*
X62428D01*
Y17774D01*
X62174D01*
Y18028D01*
X61666D01*
Y17774D01*
X61412D01*
Y17266D01*
X61666D01*
X62666Y15266D02*
Y15012D01*
X63174D01*
Y15266D01*
X63428D01*
Y15774D01*
X63174D01*
Y16028D01*
X62666D01*
Y15774D01*
X62412D01*
Y15266D01*
X62666D01*
X61666Y13266D02*
Y13012D01*
X62174D01*
Y13266D01*
X62428D01*
Y13774D01*
X62174D01*
Y14028D01*
X61666D01*
Y13774D01*
X61412D01*
Y13266D01*
X61666D01*
X62666Y11266D02*
Y11012D01*
X63174D01*
Y11266D01*
X63428D01*
Y11774D01*
X63174D01*
Y12028D01*
X62666D01*
Y11774D01*
X62412D01*
Y11266D01*
X62666D01*
X61666Y1266D02*
Y1012D01*
X62174D01*
Y1266D01*
X62428D01*
Y1774D01*
X62174D01*
Y2028D01*
X61666D01*
Y1774D01*
X61412D01*
Y1266D01*
X61666D01*
X60666Y27266D02*
Y27012D01*
X61174D01*
Y27266D01*
X61428D01*
Y27774D01*
X61174D01*
Y28028D01*
X60666D01*
Y27774D01*
X60412D01*
Y27266D01*
X60666D01*
X59666Y25266D02*
Y25012D01*
X60174D01*
Y25266D01*
X60428D01*
Y25774D01*
X60174D01*
Y26028D01*
X59666D01*
Y25774D01*
X59412D01*
Y25266D01*
X59666D01*
Y17266D02*
Y17012D01*
X60174D01*
Y17266D01*
X60428D01*
Y17774D01*
X60174D01*
Y18028D01*
X59666D01*
Y17774D01*
X59412D01*
Y17266D01*
X59666D01*
X60666Y15266D02*
Y15012D01*
X61174D01*
Y15266D01*
X61428D01*
Y15774D01*
X61174D01*
Y16028D01*
X60666D01*
Y15774D01*
X60412D01*
Y15266D01*
X60666D01*
X59666Y13266D02*
Y13012D01*
X60174D01*
Y13266D01*
X60428D01*
Y13774D01*
X60174D01*
Y14028D01*
X59666D01*
Y13774D01*
X59412D01*
Y13266D01*
X59666D01*
X60666Y11266D02*
Y11012D01*
X61174D01*
Y11266D01*
X61428D01*
Y11774D01*
X61174D01*
Y12028D01*
X60666D01*
Y11774D01*
X60412D01*
Y11266D01*
X60666D01*
X59666Y9266D02*
Y9012D01*
X60174D01*
Y9266D01*
X60428D01*
Y9774D01*
X60174D01*
Y10028D01*
X59666D01*
Y9774D01*
X59412D01*
Y9266D01*
X59666D01*
Y1266D02*
Y1012D01*
X60174D01*
Y1266D01*
X60428D01*
Y1774D01*
X60174D01*
Y2028D01*
X59666D01*
Y1774D01*
X59412D01*
Y1266D01*
X59666D01*
X58666Y27266D02*
Y27012D01*
X59174D01*
Y27266D01*
X59428D01*
Y27774D01*
X59174D01*
Y28028D01*
X58666D01*
Y27774D01*
X58412D01*
Y27266D01*
X58666D01*
X57666Y25266D02*
Y25012D01*
X58174D01*
Y25266D01*
X58428D01*
Y25774D01*
X58174D01*
Y26028D01*
X57666D01*
Y25774D01*
X57412D01*
Y25266D01*
X57666D01*
X58666Y19266D02*
Y19012D01*
X59174D01*
Y19266D01*
X59428D01*
Y19774D01*
X59174D01*
Y20028D01*
X58666D01*
Y19774D01*
X58412D01*
Y19266D01*
X58666D01*
X57666Y17266D02*
Y17012D01*
X58174D01*
Y17266D01*
X58428D01*
Y17774D01*
X58174D01*
Y18028D01*
X57666D01*
Y17774D01*
X57412D01*
Y17266D01*
X57666D01*
X58666Y15266D02*
Y15012D01*
X59174D01*
Y15266D01*
X59428D01*
Y15774D01*
X59174D01*
Y16028D01*
X58666D01*
Y15774D01*
X58412D01*
Y15266D01*
X58666D01*
X57666Y13266D02*
Y13012D01*
X58174D01*
Y13266D01*
X58428D01*
Y13774D01*
X58174D01*
Y14028D01*
X57666D01*
Y13774D01*
X57412D01*
Y13266D01*
X57666D01*
X58666Y11266D02*
Y11012D01*
X59174D01*
Y11266D01*
X59428D01*
Y11774D01*
X59174D01*
Y12028D01*
X58666D01*
Y11774D01*
X58412D01*
Y11266D01*
X58666D01*
X57666Y9266D02*
Y9012D01*
X58174D01*
Y9266D01*
X58428D01*
Y9774D01*
X58174D01*
Y10028D01*
X57666D01*
Y9774D01*
X57412D01*
Y9266D01*
X57666D01*
X58666Y7266D02*
Y7012D01*
X59174D01*
Y7266D01*
X59428D01*
Y7774D01*
X59174D01*
Y8028D01*
X58666D01*
Y7774D01*
X58412D01*
Y7266D01*
X58666D01*
Y3266D02*
Y3012D01*
X59174D01*
Y3266D01*
X59428D01*
Y3774D01*
X59174D01*
Y4028D01*
X58666D01*
Y3774D01*
X58412D01*
Y3266D01*
X58666D01*
X57666Y1266D02*
Y1012D01*
X58174D01*
Y1266D01*
X58428D01*
Y1774D01*
X58174D01*
Y2028D01*
X57666D01*
Y1774D01*
X57412D01*
Y1266D01*
X57666D01*
X56666Y27266D02*
Y27012D01*
X57174D01*
Y27266D01*
X57428D01*
Y27774D01*
X57174D01*
Y28028D01*
X56666D01*
Y27774D01*
X56412D01*
Y27266D01*
X56666D01*
X55666Y25266D02*
Y25012D01*
X56174D01*
Y25266D01*
X56428D01*
Y25774D01*
X56174D01*
Y26028D01*
X55666D01*
Y25774D01*
X55412D01*
Y25266D01*
X55666D01*
X56666Y23266D02*
Y23012D01*
X57174D01*
Y23266D01*
X57428D01*
Y23774D01*
X57174D01*
Y24028D01*
X56666D01*
Y23774D01*
X56412D01*
Y23266D01*
X56666D01*
X55666Y21266D02*
Y21012D01*
X56174D01*
Y21266D01*
X56428D01*
Y21774D01*
X56174D01*
Y22028D01*
X55666D01*
Y21774D01*
X55412D01*
Y21266D01*
X55666D01*
X56666Y19266D02*
Y19012D01*
X57174D01*
Y19266D01*
X57428D01*
Y19774D01*
X57174D01*
Y20028D01*
X56666D01*
Y19774D01*
X56412D01*
Y19266D01*
X56666D01*
X55666Y17266D02*
Y17012D01*
X56174D01*
Y17266D01*
X56428D01*
Y17774D01*
X56174D01*
Y18028D01*
X55666D01*
Y17774D01*
X55412D01*
Y17266D01*
X55666D01*
X56666Y15266D02*
Y15012D01*
X57174D01*
Y15266D01*
X57428D01*
Y15774D01*
X57174D01*
Y16028D01*
X56666D01*
Y15774D01*
X56412D01*
Y15266D01*
X56666D01*
X55666Y13266D02*
Y13012D01*
X56174D01*
Y13266D01*
X56428D01*
Y13774D01*
X56174D01*
Y14028D01*
X55666D01*
Y13774D01*
X55412D01*
Y13266D01*
X55666D01*
X56666Y11266D02*
Y11012D01*
X57174D01*
Y11266D01*
X57428D01*
Y11774D01*
X57174D01*
Y12028D01*
X56666D01*
Y11774D01*
X56412D01*
Y11266D01*
X56666D01*
X55666Y9266D02*
Y9012D01*
X56174D01*
Y9266D01*
X56428D01*
Y9774D01*
X56174D01*
Y10028D01*
X55666D01*
Y9774D01*
X55412D01*
Y9266D01*
X55666D01*
X56666Y7266D02*
Y7012D01*
X57174D01*
Y7266D01*
X57428D01*
Y7774D01*
X57174D01*
Y8028D01*
X56666D01*
Y7774D01*
X56412D01*
Y7266D01*
X56666D01*
Y3266D02*
Y3012D01*
X57174D01*
Y3266D01*
X57428D01*
Y3774D01*
X57174D01*
Y4028D01*
X56666D01*
Y3774D01*
X56412D01*
Y3266D01*
X56666D01*
X55666Y1266D02*
Y1012D01*
X56174D01*
Y1266D01*
X56428D01*
Y1774D01*
X56174D01*
Y2028D01*
X55666D01*
Y1774D01*
X55412D01*
Y1266D01*
X55666D01*
X54666Y27266D02*
Y27012D01*
X55174D01*
Y27266D01*
X55428D01*
Y27774D01*
X55174D01*
Y28028D01*
X54666D01*
Y27774D01*
X54412D01*
Y27266D01*
X54666D01*
X53666Y25266D02*
Y25012D01*
X54174D01*
Y25266D01*
X54428D01*
Y25774D01*
X54174D01*
Y26028D01*
X53666D01*
Y25774D01*
X53412D01*
Y25266D01*
X53666D01*
X54666Y19266D02*
Y19012D01*
X55174D01*
Y19266D01*
X55428D01*
Y19774D01*
X55174D01*
Y20028D01*
X54666D01*
Y19774D01*
X54412D01*
Y19266D01*
X54666D01*
X53666Y17266D02*
Y17012D01*
X54174D01*
Y17266D01*
X54428D01*
Y17774D01*
X54174D01*
Y18028D01*
X53666D01*
Y17774D01*
X53412D01*
Y17266D01*
X53666D01*
X54666Y15266D02*
Y15012D01*
X55174D01*
Y15266D01*
X55428D01*
Y15774D01*
X55174D01*
Y16028D01*
X54666D01*
Y15774D01*
X54412D01*
Y15266D01*
X54666D01*
X53666Y13266D02*
Y13012D01*
X54174D01*
Y13266D01*
X54428D01*
Y13774D01*
X54174D01*
Y14028D01*
X53666D01*
Y13774D01*
X53412D01*
Y13266D01*
X53666D01*
X54666Y11266D02*
Y11012D01*
X55174D01*
Y11266D01*
X55428D01*
Y11774D01*
X55174D01*
Y12028D01*
X54666D01*
Y11774D01*
X54412D01*
Y11266D01*
X54666D01*
X53666Y9266D02*
Y9012D01*
X54174D01*
Y9266D01*
X54428D01*
Y9774D01*
X54174D01*
Y10028D01*
X53666D01*
Y9774D01*
X53412D01*
Y9266D01*
X53666D01*
X54666Y3266D02*
Y3012D01*
X55174D01*
Y3266D01*
X55428D01*
Y3774D01*
X55174D01*
Y4028D01*
X54666D01*
Y3774D01*
X54412D01*
Y3266D01*
X54666D01*
X53666Y1266D02*
Y1012D01*
X54174D01*
Y1266D01*
X54428D01*
Y1774D01*
X54174D01*
Y2028D01*
X53666D01*
Y1774D01*
X53412D01*
Y1266D01*
X53666D01*
X52666Y27266D02*
Y27012D01*
X53174D01*
Y27266D01*
X53428D01*
Y27774D01*
X53174D01*
Y28028D01*
X52666D01*
Y27774D01*
X52412D01*
Y27266D01*
X52666D01*
X51666Y25266D02*
Y25012D01*
X52174D01*
Y25266D01*
X52428D01*
Y25774D01*
X52174D01*
Y26028D01*
X51666D01*
Y25774D01*
X51412D01*
Y25266D01*
X51666D01*
X52666Y23266D02*
Y23012D01*
X53174D01*
Y23266D01*
X53428D01*
Y23774D01*
X53174D01*
Y24028D01*
X52666D01*
Y23774D01*
X52412D01*
Y23266D01*
X52666D01*
X51666Y21266D02*
Y21012D01*
X52174D01*
Y21266D01*
X52428D01*
Y21774D01*
X52174D01*
Y22028D01*
X51666D01*
Y21774D01*
X51412D01*
Y21266D01*
X51666D01*
Y17266D02*
Y17012D01*
X52174D01*
Y17266D01*
X52428D01*
Y17774D01*
X52174D01*
Y18028D01*
X51666D01*
Y17774D01*
X51412D01*
Y17266D01*
X51666D01*
X52666Y15266D02*
Y15012D01*
X53174D01*
Y15266D01*
X53428D01*
Y15774D01*
X53174D01*
Y16028D01*
X52666D01*
Y15774D01*
X52412D01*
Y15266D01*
X52666D01*
X51666Y13266D02*
Y13012D01*
X52174D01*
Y13266D01*
X52428D01*
Y13774D01*
X52174D01*
Y14028D01*
X51666D01*
Y13774D01*
X51412D01*
Y13266D01*
X51666D01*
X52666Y11266D02*
Y11012D01*
X53174D01*
Y11266D01*
X53428D01*
Y11774D01*
X53174D01*
Y12028D01*
X52666D01*
Y11774D01*
X52412D01*
Y11266D01*
X52666D01*
X51666Y9266D02*
Y9012D01*
X52174D01*
Y9266D01*
X52428D01*
Y9774D01*
X52174D01*
Y10028D01*
X51666D01*
Y9774D01*
X51412D01*
Y9266D01*
X51666D01*
X52666Y3266D02*
Y3012D01*
X53174D01*
Y3266D01*
X53428D01*
Y3774D01*
X53174D01*
Y4028D01*
X52666D01*
Y3774D01*
X52412D01*
Y3266D01*
X52666D01*
X51666Y1266D02*
Y1012D01*
X52174D01*
Y1266D01*
X52428D01*
Y1774D01*
X52174D01*
Y2028D01*
X51666D01*
Y1774D01*
X51412D01*
Y1266D01*
X51666D01*
X50666Y27266D02*
Y27012D01*
X51174D01*
Y27266D01*
X51428D01*
Y27774D01*
X51174D01*
Y28028D01*
X50666D01*
Y27774D01*
X50412D01*
Y27266D01*
X50666D01*
X49666Y25266D02*
Y25012D01*
X50174D01*
Y25266D01*
X50428D01*
Y25774D01*
X50174D01*
Y26028D01*
X49666D01*
Y25774D01*
X49412D01*
Y25266D01*
X49666D01*
X50666Y23266D02*
Y23012D01*
X51174D01*
Y23266D01*
X51428D01*
Y23774D01*
X51174D01*
Y24028D01*
X50666D01*
Y23774D01*
X50412D01*
Y23266D01*
X50666D01*
X49666Y21266D02*
Y21012D01*
X50174D01*
Y21266D01*
X50428D01*
Y21774D01*
X50174D01*
Y22028D01*
X49666D01*
Y21774D01*
X49412D01*
Y21266D01*
X49666D01*
X50666Y15266D02*
Y15012D01*
X51174D01*
Y15266D01*
X51428D01*
Y15774D01*
X51174D01*
Y16028D01*
X50666D01*
Y15774D01*
X50412D01*
Y15266D01*
X50666D01*
X49666Y13266D02*
Y13012D01*
X50174D01*
Y13266D01*
X50428D01*
Y13774D01*
X50174D01*
Y14028D01*
X49666D01*
Y13774D01*
X49412D01*
Y13266D01*
X49666D01*
X50666Y11266D02*
Y11012D01*
X51174D01*
Y11266D01*
X51428D01*
Y11774D01*
X51174D01*
Y12028D01*
X50666D01*
Y11774D01*
X50412D01*
Y11266D01*
X50666D01*
X49666Y5266D02*
Y5012D01*
X50174D01*
Y5266D01*
X50428D01*
Y5774D01*
X50174D01*
Y6028D01*
X49666D01*
Y5774D01*
X49412D01*
Y5266D01*
X49666D01*
X50666Y3266D02*
Y3012D01*
X51174D01*
Y3266D01*
X51428D01*
Y3774D01*
X51174D01*
Y4028D01*
X50666D01*
Y3774D01*
X50412D01*
Y3266D01*
X50666D01*
X49666Y1266D02*
Y1012D01*
X50174D01*
Y1266D01*
X50428D01*
Y1774D01*
X50174D01*
Y2028D01*
X49666D01*
Y1774D01*
X49412D01*
Y1266D01*
X49666D01*
X48666Y27266D02*
Y27012D01*
X49174D01*
Y27266D01*
X49428D01*
Y27774D01*
X49174D01*
Y28028D01*
X48666D01*
Y27774D01*
X48412D01*
Y27266D01*
X48666D01*
Y3266D02*
Y3012D01*
X49174D01*
Y3266D01*
X49428D01*
Y3774D01*
X49174D01*
Y4028D01*
X48666D01*
Y3774D01*
X48412D01*
Y3266D01*
X48666D01*
X47666Y1266D02*
Y1012D01*
X48174D01*
Y1266D01*
X48428D01*
Y1774D01*
X48174D01*
Y2028D01*
X47666D01*
Y1774D01*
X47412D01*
Y1266D01*
X47666D01*
X45666Y21266D02*
Y21012D01*
X46174D01*
Y21266D01*
X46428D01*
Y21774D01*
X46174D01*
Y22028D01*
X45666D01*
Y21774D01*
X45412D01*
Y21266D01*
X45666D01*
X46666Y19266D02*
Y19012D01*
X47174D01*
Y19266D01*
X47428D01*
Y19774D01*
X47174D01*
Y20028D01*
X46666D01*
Y19774D01*
X46412D01*
Y19266D01*
X46666D01*
X45666Y17266D02*
Y17012D01*
X46174D01*
Y17266D01*
X46428D01*
Y17774D01*
X46174D01*
Y18028D01*
X45666D01*
Y17774D01*
X45412D01*
Y17266D01*
X45666D01*
Y13266D02*
Y13012D01*
X46174D01*
Y13266D01*
X46428D01*
Y13774D01*
X46174D01*
Y14028D01*
X45666D01*
Y13774D01*
X45412D01*
Y13266D01*
X45666D01*
X46666Y3266D02*
Y3012D01*
X47174D01*
Y3266D01*
X47428D01*
Y3774D01*
X47174D01*
Y4028D01*
X46666D01*
Y3774D01*
X46412D01*
Y3266D01*
X46666D01*
X45666Y1266D02*
Y1012D01*
X46174D01*
Y1266D01*
X46428D01*
Y1774D01*
X46174D01*
Y2028D01*
X45666D01*
Y1774D01*
X45412D01*
Y1266D01*
X45666D01*
X44666Y27266D02*
Y27012D01*
X45174D01*
Y27266D01*
X45428D01*
Y27774D01*
X45174D01*
Y28028D01*
X44666D01*
Y27774D01*
X44412D01*
Y27266D01*
X44666D01*
Y23266D02*
Y23012D01*
X45174D01*
Y23266D01*
X45428D01*
Y23774D01*
X45174D01*
Y24028D01*
X44666D01*
Y23774D01*
X44412D01*
Y23266D01*
X44666D01*
Y19266D02*
Y19012D01*
X45174D01*
Y19266D01*
X45428D01*
Y19774D01*
X45174D01*
Y20028D01*
X44666D01*
Y19774D01*
X44412D01*
Y19266D01*
X44666D01*
X43666Y9266D02*
Y9012D01*
X44174D01*
Y9266D01*
X44428D01*
Y9774D01*
X44174D01*
Y10028D01*
X43666D01*
Y9774D01*
X43412D01*
Y9266D01*
X43666D01*
X44666Y7266D02*
Y7012D01*
X45174D01*
Y7266D01*
X45428D01*
Y7774D01*
X45174D01*
Y8028D01*
X44666D01*
Y7774D01*
X44412D01*
Y7266D01*
X44666D01*
Y3266D02*
Y3012D01*
X45174D01*
Y3266D01*
X45428D01*
Y3774D01*
X45174D01*
Y4028D01*
X44666D01*
Y3774D01*
X44412D01*
Y3266D01*
X44666D01*
X43666Y1266D02*
Y1012D01*
X44174D01*
Y1266D01*
X44428D01*
Y1774D01*
X44174D01*
Y2028D01*
X43666D01*
Y1774D01*
X43412D01*
Y1266D01*
X43666D01*
X34142Y9123D02*
Y8869D01*
X34650D01*
Y9123D01*
X34904D01*
Y9631D01*
X34650D01*
Y9885D01*
X34142D01*
Y9631D01*
X33888D01*
Y9123D01*
X34142D01*
X37175Y7018D02*
Y6764D01*
X37683D01*
Y7018D01*
X37937D01*
Y7526D01*
X37683D01*
Y7780D01*
X37175D01*
Y7526D01*
X36921D01*
Y7018D01*
X37175D01*
X37547Y18934D02*
X37801D01*
X38055Y19188D01*
X38309Y18934D01*
X38563D01*
Y19188D01*
X38309Y19442D01*
X38563Y19696D01*
Y19950D01*
X38309D01*
X38055Y19696D01*
X37801Y19950D01*
X37547D01*
Y19696D01*
X37801Y19442D01*
X37547Y19188D01*
Y18934D01*
X37626Y18172D02*
X37880D01*
X38134Y18426D01*
X38388Y18172D01*
X38642D01*
Y18426D01*
X38388Y18680D01*
X38642Y18934D01*
Y19188D01*
X38388D01*
X38134Y18934D01*
X37880Y19188D01*
X37626D01*
Y18934D01*
X37880Y18680D01*
X37626Y18426D01*
Y18172D01*
X41255Y8848D02*
Y8594D01*
X41763D01*
Y8848D01*
X42017D01*
Y9356D01*
X41763D01*
Y9610D01*
X41255D01*
Y9356D01*
X41001D01*
Y8848D01*
X41255D01*
X32274Y7666D02*
X32528D01*
X32782Y7920D01*
X33036Y7666D01*
X33290D01*
Y7920D01*
X33036Y8174D01*
X33290Y8428D01*
Y8682D01*
X33036D01*
X32782Y8428D01*
X32528Y8682D01*
X32274D01*
Y8428D01*
X32528Y8174D01*
X32274Y7920D01*
Y7666D01*
X5849Y28064D02*
Y27810D01*
X6357D01*
Y28064D01*
X6611D01*
Y28572D01*
X6357D01*
Y28826D01*
X5849D01*
Y28572D01*
X5595D01*
Y28064D01*
X5849D01*
X40767Y13340D02*
X41021D01*
X41275Y13594D01*
X41529Y13340D01*
X41783D01*
Y13594D01*
X41529Y13848D01*
X41783Y14102D01*
Y14356D01*
X41529D01*
X41275Y14102D01*
X41021Y14356D01*
X40767D01*
Y14102D01*
X41021Y13848D01*
X40767Y13594D01*
Y13340D01*
X43324Y14936D02*
X43578D01*
X43832Y15190D01*
X44086Y14936D01*
X44340D01*
Y15190D01*
X44086Y15444D01*
X44340Y15698D01*
Y15952D01*
X44086D01*
X43832Y15698D01*
X43578Y15952D01*
X43324D01*
Y15698D01*
X43578Y15444D01*
X43324Y15190D01*
Y14936D01*
X42699Y13381D02*
X42953D01*
X43207Y13635D01*
X43461Y13381D01*
X43715D01*
Y13635D01*
X43461Y13889D01*
X43715Y14143D01*
Y14397D01*
X43461D01*
X43207Y14143D01*
X42953Y14397D01*
X42699D01*
Y14143D01*
X42953Y13889D01*
X42699Y13635D01*
Y13381D01*
X42642Y16324D02*
X42896D01*
X43150Y16578D01*
X43404Y16324D01*
X43658D01*
Y16578D01*
X43404Y16832D01*
X43658Y17086D01*
Y17340D01*
X43404D01*
X43150Y17086D01*
X42896Y17340D01*
X42642D01*
Y17086D01*
X42896Y16832D01*
X42642Y16578D01*
Y16324D01*
X41367Y13343D02*
X41621D01*
X41875Y13597D01*
X42129Y13343D01*
X42383D01*
Y13597D01*
X42129Y13851D01*
X42383Y14105D01*
Y14359D01*
X42129D01*
X41875Y14105D01*
X41621Y14359D01*
X41367D01*
Y14105D01*
X41621Y13851D01*
X41367Y13597D01*
Y13343D01*
X41356Y12665D02*
X41610D01*
X41864Y12919D01*
X42118Y12665D01*
X42372D01*
Y12919D01*
X42118Y13173D01*
X42372Y13427D01*
Y13681D01*
X42118D01*
X41864Y13427D01*
X41610Y13681D01*
X41356D01*
Y13427D01*
X41610Y13173D01*
X41356Y12919D01*
Y12665D01*
X42020Y12636D02*
X42274D01*
X42528Y12890D01*
X42782Y12636D01*
X43036D01*
Y12890D01*
X42782Y13144D01*
X43036Y13398D01*
Y13652D01*
X42782D01*
X42528Y13398D01*
X42274Y13652D01*
X42020D01*
Y13398D01*
X42274Y13144D01*
X42020Y12890D01*
Y12636D01*
X40951Y10604D02*
X41205D01*
X41459Y10858D01*
X41713Y10604D01*
X41967D01*
Y10858D01*
X41713Y11112D01*
X41967Y11366D01*
Y11620D01*
X41713D01*
X41459Y11366D01*
X41205Y11620D01*
X40951D01*
Y11366D01*
X41205Y11112D01*
X40951Y10858D01*
Y10604D01*
X37533Y8093D02*
X37787D01*
X38041Y8347D01*
X38295Y8093D01*
X38549D01*
Y8347D01*
X38295Y8601D01*
X38549Y8855D01*
Y9109D01*
X38295D01*
X38041Y8855D01*
X37787Y9109D01*
X37533D01*
Y8855D01*
X37787Y8601D01*
X37533Y8347D01*
Y8093D01*
Y8534D02*
X37787D01*
X38041Y8788D01*
X38295Y8534D01*
X38549D01*
Y8788D01*
X38295Y9042D01*
X38549Y9296D01*
Y9550D01*
X38295D01*
X38041Y9296D01*
X37787Y9550D01*
X37533D01*
Y9296D01*
X37787Y9042D01*
X37533Y8788D01*
Y8534D01*
X40421Y15011D02*
X40675D01*
X40929Y15265D01*
X41183Y15011D01*
X41437D01*
Y15265D01*
X41183Y15519D01*
X41437Y15773D01*
Y16027D01*
X41183D01*
X40929Y15773D01*
X40675Y16027D01*
X40421D01*
Y15773D01*
X40675Y15519D01*
X40421Y15265D01*
Y15011D01*
X38692Y20120D02*
Y19866D01*
X39200D01*
Y20120D01*
X39454D01*
Y20628D01*
X39200D01*
Y20882D01*
X38692D01*
Y20628D01*
X38438D01*
Y20120D01*
X38692D01*
X41147Y18232D02*
Y17978D01*
X41655D01*
Y18232D01*
X41909D01*
Y18740D01*
X41655D01*
Y18994D01*
X41147D01*
Y18740D01*
X40893D01*
Y18232D01*
X41147D01*
X34311Y20843D02*
X34565D01*
X34819Y21097D01*
X35073Y20843D01*
X35327D01*
Y21097D01*
X35073Y21351D01*
X35327Y21605D01*
Y21859D01*
X35073D01*
X34819Y21605D01*
X34565Y21859D01*
X34311D01*
Y21605D01*
X34565Y21351D01*
X34311Y21097D01*
Y20843D01*
X33569Y22376D02*
Y22122D01*
X34077D01*
Y22376D01*
X34331D01*
Y22884D01*
X34077D01*
Y23138D01*
X33569D01*
Y22884D01*
X33315D01*
Y22376D01*
X33569D01*
X29704Y14886D02*
X29958D01*
X30212Y15140D01*
X30466Y14886D01*
X30720D01*
Y15140D01*
X30466Y15394D01*
X30720Y15648D01*
Y15902D01*
X30466D01*
X30212Y15648D01*
X29958Y15902D01*
X29704D01*
Y15648D01*
X29958Y15394D01*
X29704Y15140D01*
Y14886D01*
X29812Y15330D02*
X30066D01*
X30320Y15584D01*
X30574Y15330D01*
X30828D01*
Y15584D01*
X30574Y15838D01*
X30828Y16092D01*
Y16346D01*
X30574D01*
X30320Y16092D01*
X30066Y16346D01*
X29812D01*
Y16092D01*
X30066Y15838D01*
X29812Y15584D01*
Y15330D01*
X40459Y6662D02*
Y6408D01*
X40967D01*
Y6662D01*
X41221D01*
Y7170D01*
X40967D01*
Y7424D01*
X40459D01*
Y7170D01*
X40205D01*
Y6662D01*
X40459D01*
X38881Y4377D02*
Y4123D01*
X39389D01*
Y4377D01*
X39643D01*
Y4885D01*
X39389D01*
Y5139D01*
X38881D01*
Y4885D01*
X38627D01*
Y4377D01*
X38881D01*
X37262Y5586D02*
Y5332D01*
X37770D01*
Y5586D01*
X38024D01*
Y6094D01*
X37770D01*
Y6348D01*
X37262D01*
Y6094D01*
X37008D01*
Y5586D01*
X37262D01*
X35138Y4401D02*
Y4147D01*
X35646D01*
Y4401D01*
X35900D01*
Y4909D01*
X35646D01*
Y5163D01*
X35138D01*
Y4909D01*
X34884D01*
Y4401D01*
X35138D01*
X27273Y16130D02*
Y15876D01*
X27781D01*
Y16130D01*
X28035D01*
Y16638D01*
X27781D01*
Y16892D01*
X27273D01*
Y16638D01*
X27019D01*
Y16130D01*
X27273D01*
X31954Y7351D02*
X32208D01*
X32462Y7605D01*
X32716Y7351D01*
X32970D01*
Y7605D01*
X32716Y7859D01*
X32970Y8113D01*
Y8367D01*
X32716D01*
X32462Y8113D01*
X32208Y8367D01*
X31954D01*
Y8113D01*
X32208Y7859D01*
X31954Y7605D01*
Y7351D01*
X33465Y3509D02*
Y3255D01*
X33973D01*
Y3509D01*
X34227D01*
Y4017D01*
X33973D01*
Y4271D01*
X33465D01*
Y4017D01*
X33211D01*
Y3509D01*
X33465D01*
X41737Y6653D02*
Y6399D01*
X42245D01*
Y6653D01*
X42499D01*
Y7161D01*
X42245D01*
Y7415D01*
X41737D01*
Y7161D01*
X41483D01*
Y6653D01*
X41737D01*
X41156Y4452D02*
Y4198D01*
X41664D01*
Y4452D01*
X41918D01*
Y4960D01*
X41664D01*
Y5214D01*
X41156D01*
Y4960D01*
X40902D01*
Y4452D01*
X41156D01*
X27281Y8423D02*
Y8169D01*
X27789D01*
Y8423D01*
X28043D01*
Y8931D01*
X27789D01*
Y9185D01*
X27281D01*
Y8931D01*
X27027D01*
Y8423D01*
X27281D01*
X27227Y6495D02*
Y6241D01*
X27735D01*
Y6495D01*
X27989D01*
Y7003D01*
X27735D01*
Y7257D01*
X27227D01*
Y7003D01*
X26973D01*
Y6495D01*
X27227D01*
X27304Y19125D02*
Y18871D01*
X27812D01*
Y19125D01*
X28066D01*
Y19633D01*
X27812D01*
Y19887D01*
X27304D01*
Y19633D01*
X27050D01*
Y19125D01*
X27304D01*
X27279Y17380D02*
Y17126D01*
X27787D01*
Y17380D01*
X28041D01*
Y17888D01*
X27787D01*
Y18142D01*
X27279D01*
Y17888D01*
X27025D01*
Y17380D01*
X27279D01*
X27190Y13508D02*
Y13254D01*
X27698D01*
Y13508D01*
X27952D01*
Y14016D01*
X27698D01*
Y14270D01*
X27190D01*
Y14016D01*
X26936D01*
Y13508D01*
X27190D01*
X27121Y12082D02*
Y11828D01*
X27629D01*
Y12082D01*
X27883D01*
Y12590D01*
X27629D01*
Y12844D01*
X27121D01*
Y12590D01*
X26867D01*
Y12082D01*
X27121D01*
X54694Y4458D02*
X54948D01*
X55202Y4712D01*
X55456Y4458D01*
X55710D01*
Y4712D01*
X55456Y4966D01*
X55710Y5220D01*
Y5474D01*
X55456D01*
X55202Y5220D01*
X54948Y5474D01*
X54694D01*
Y5220D01*
X54948Y4966D01*
X54694Y4712D01*
Y4458D01*
X57047Y4441D02*
X57301D01*
X57555Y4695D01*
X57809Y4441D01*
X58063D01*
Y4695D01*
X57809Y4949D01*
X58063Y5203D01*
Y5457D01*
X57809D01*
X57555Y5203D01*
X57301Y5457D01*
X57047D01*
Y5203D01*
X57301Y4949D01*
X57047Y4695D01*
Y4441D01*
X57933Y4436D02*
X58187D01*
X58441Y4690D01*
X58695Y4436D01*
X58949D01*
Y4690D01*
X58695Y4944D01*
X58949Y5198D01*
Y5452D01*
X58695D01*
X58441Y5198D01*
X58187Y5452D01*
X57933D01*
Y5198D01*
X58187Y4944D01*
X57933Y4690D01*
Y4436D01*
X58088Y23019D02*
X58342D01*
X58596Y23273D01*
X58850Y23019D01*
X59104D01*
Y23273D01*
X58850Y23527D01*
X59104Y23781D01*
Y24035D01*
X58850D01*
X58596Y23781D01*
X58342Y24035D01*
X58088D01*
Y23781D01*
X58342Y23527D01*
X58088Y23273D01*
Y23019D01*
X25277Y6816D02*
X25531D01*
X25785Y7070D01*
X26039Y6816D01*
X26293D01*
Y7070D01*
X26039Y7324D01*
X26293Y7578D01*
Y7832D01*
X26039D01*
X25785Y7578D01*
X25531Y7832D01*
X25277D01*
Y7578D01*
X25531Y7324D01*
X25277Y7070D01*
Y6816D01*
X35104Y8129D02*
X35358D01*
X35612Y8383D01*
X35866Y8129D01*
X36120D01*
Y8383D01*
X35866Y8637D01*
X36120Y8891D01*
Y9145D01*
X35866D01*
X35612Y8891D01*
X35358Y9145D01*
X35104D01*
Y8891D01*
X35358Y8637D01*
X35104Y8383D01*
Y8129D01*
X41418Y7262D02*
X41672D01*
X41926Y7516D01*
X42180Y7262D01*
X42434D01*
Y7516D01*
X42180Y7770D01*
X42434Y8024D01*
Y8278D01*
X42180D01*
X41926Y8024D01*
X41672Y8278D01*
X41418D01*
Y8024D01*
X41672Y7770D01*
X41418Y7516D01*
Y7262D01*
X37300Y18544D02*
X37554D01*
X37808Y18798D01*
X38062Y18544D01*
X38316D01*
Y18798D01*
X38062Y19052D01*
X38316Y19306D01*
Y19560D01*
X38062D01*
X37808Y19306D01*
X37554Y19560D01*
X37300D01*
Y19306D01*
X37554Y19052D01*
X37300Y18798D01*
Y18544D01*
X39377Y6599D02*
Y6345D01*
X39885D01*
Y6599D01*
X40139D01*
Y7107D01*
X39885D01*
Y7361D01*
X39377D01*
Y7107D01*
X39123D01*
Y6599D01*
X39377D01*
X38361Y6629D02*
Y6375D01*
X38869D01*
Y6629D01*
X39123D01*
Y7137D01*
X38869D01*
Y7391D01*
X38361D01*
Y7137D01*
X38107D01*
Y6629D01*
X38361D01*
X35026Y17783D02*
X35280D01*
X35534Y18037D01*
X35788Y17783D01*
X36042D01*
Y18037D01*
X35788Y18291D01*
X36042Y18545D01*
Y18799D01*
X35788D01*
X35534Y18545D01*
X35280Y18799D01*
X35026D01*
Y18545D01*
X35280Y18291D01*
X35026Y18037D01*
Y17783D01*
X35560Y17269D02*
X35814D01*
X36068Y17523D01*
X36322Y17269D01*
X36576D01*
Y17523D01*
X36322Y17777D01*
X36576Y18031D01*
Y18285D01*
X36322D01*
X36068Y18031D01*
X35814Y18285D01*
X35560D01*
Y18031D01*
X35814Y17777D01*
X35560Y17523D01*
Y17269D01*
X35839Y19436D02*
X36093D01*
X36347Y19690D01*
X36601Y19436D01*
X36855D01*
Y19690D01*
X36601Y19944D01*
X36855Y20198D01*
Y20452D01*
X36601D01*
X36347Y20198D01*
X36093Y20452D01*
X35839D01*
Y20198D01*
X36093Y19944D01*
X35839Y19690D01*
Y19436D01*
X35849Y19052D02*
X36103D01*
X36357Y19306D01*
X36611Y19052D01*
X36865D01*
Y19306D01*
X36611Y19560D01*
X36865Y19814D01*
Y20068D01*
X36611D01*
X36357Y19814D01*
X36103Y20068D01*
X35849D01*
Y19814D01*
X36103Y19560D01*
X35849Y19306D01*
Y19052D01*
X35860Y18610D02*
X36114D01*
X36368Y18864D01*
X36622Y18610D01*
X36876D01*
Y18864D01*
X36622Y19118D01*
X36876Y19372D01*
Y19626D01*
X36622D01*
X36368Y19372D01*
X36114Y19626D01*
X35860D01*
Y19372D01*
X36114Y19118D01*
X35860Y18864D01*
Y18610D01*
X40920Y22396D02*
Y22142D01*
X41428D01*
Y22396D01*
X41682D01*
Y22904D01*
X41428D01*
Y23158D01*
X40920D01*
Y22904D01*
X40666D01*
Y22396D01*
X40920D01*
X42171Y22536D02*
Y22282D01*
X42679D01*
Y22536D01*
X42933D01*
Y23044D01*
X42679D01*
Y23298D01*
X42171D01*
Y23044D01*
X41917D01*
Y22536D01*
X42171D01*
X41052Y19914D02*
Y19660D01*
X41560D01*
Y19914D01*
X41814D01*
Y20422D01*
X41560D01*
Y20676D01*
X41052D01*
Y20422D01*
X40798D01*
Y19914D01*
X41052D01*
X35274Y19322D02*
X35528D01*
X35782Y19576D01*
X36036Y19322D01*
X36290D01*
Y19576D01*
X36036Y19830D01*
X36290Y20084D01*
Y20338D01*
X36036D01*
X35782Y20084D01*
X35528Y20338D01*
X35274D01*
Y20084D01*
X35528Y19830D01*
X35274Y19576D01*
Y19322D01*
X40462Y19650D02*
Y19396D01*
X40970D01*
Y19650D01*
X41224D01*
Y20158D01*
X40970D01*
Y20412D01*
X40462D01*
Y20158D01*
X40208D01*
Y19650D01*
X40462D01*
X40963Y18849D02*
X41217D01*
X41471Y19103D01*
X41725Y18849D01*
X41979D01*
Y19103D01*
X41725Y19357D01*
X41979Y19611D01*
Y19865D01*
X41725D01*
X41471Y19611D01*
X41217Y19865D01*
X40963D01*
Y19611D01*
X41217Y19357D01*
X40963Y19103D01*
Y18849D01*
X37632Y17591D02*
X37886D01*
X38140Y17845D01*
X38394Y17591D01*
X38648D01*
Y17845D01*
X38394Y18099D01*
X38648Y18353D01*
Y18607D01*
X38394D01*
X38140Y18353D01*
X37886Y18607D01*
X37632D01*
Y18353D01*
X37886Y18099D01*
X37632Y17845D01*
Y17591D01*
X38611Y11348D02*
Y11094D01*
X39119D01*
Y11348D01*
X39373D01*
Y11856D01*
X39119D01*
Y12110D01*
X38611D01*
Y11856D01*
X38357D01*
Y11348D01*
X38611D01*
X36591D02*
Y11094D01*
X37099D01*
Y11348D01*
X37353D01*
Y11856D01*
X37099D01*
Y12110D01*
X36591D01*
Y11856D01*
X36337D01*
Y11348D01*
X36591D01*
X34606Y11352D02*
Y11098D01*
X35114D01*
Y11352D01*
X35368D01*
Y11860D01*
X35114D01*
Y12114D01*
X34606D01*
Y11860D01*
X34352D01*
Y11352D01*
X34606D01*
X34595Y13350D02*
Y13096D01*
X35103D01*
Y13350D01*
X35357D01*
Y13858D01*
X35103D01*
Y14112D01*
X34595D01*
Y13858D01*
X34341D01*
Y13350D01*
X34595D01*
X36608Y13351D02*
Y13097D01*
X37116D01*
Y13351D01*
X37370D01*
Y13859D01*
X37116D01*
Y14113D01*
X36608D01*
Y13859D01*
X36354D01*
Y13351D01*
X36608D01*
X38605Y13357D02*
Y13103D01*
X39113D01*
Y13357D01*
X39367D01*
Y13865D01*
X39113D01*
Y14119D01*
X38605D01*
Y13865D01*
X38351D01*
Y13357D01*
X38605D01*
X38604Y15352D02*
Y15098D01*
X39112D01*
Y15352D01*
X39366D01*
Y15860D01*
X39112D01*
Y16114D01*
X38604D01*
Y15860D01*
X38350D01*
Y15352D01*
X38604D01*
X36607Y15350D02*
Y15096D01*
X37115D01*
Y15350D01*
X37369D01*
Y15858D01*
X37115D01*
Y16112D01*
X36607D01*
Y15858D01*
X36353D01*
Y15350D01*
X36607D01*
X34615Y15351D02*
Y15097D01*
X35123D01*
Y15351D01*
X35377D01*
Y15859D01*
X35123D01*
Y16113D01*
X34615D01*
Y15859D01*
X34361D01*
Y15351D01*
X34615D01*
X3564Y28040D02*
Y27786D01*
X4072D01*
Y28040D01*
X4326D01*
Y28548D01*
X4072D01*
Y28802D01*
X3564D01*
Y28548D01*
X3310D01*
Y28040D01*
X3564D01*
X38137Y22687D02*
Y22433D01*
X38645D01*
Y22687D01*
X38899D01*
Y23195D01*
X38645D01*
Y23449D01*
X38137D01*
Y23195D01*
X37883D01*
Y22687D01*
X38137D01*
X38124Y23413D02*
Y23159D01*
X38632D01*
Y23413D01*
X38886D01*
Y23921D01*
X38632D01*
Y24175D01*
X38124D01*
Y23921D01*
X37870D01*
Y23413D01*
X38124D01*
X34771Y19787D02*
Y19533D01*
X35279D01*
Y19787D01*
X35533D01*
Y20295D01*
X35279D01*
Y20549D01*
X34771D01*
Y20295D01*
X34517D01*
Y19787D01*
X34771D01*
X21666Y9266D02*
Y9012D01*
X22174D01*
Y9266D01*
X22428D01*
Y9774D01*
X22174D01*
Y10028D01*
X21666D01*
Y9774D01*
X21412D01*
Y9266D01*
X21666D01*
X19666Y25266D02*
Y25012D01*
X20174D01*
Y25266D01*
X20428D01*
Y25774D01*
X20174D01*
Y26028D01*
X19666D01*
Y25774D01*
X19412D01*
Y25266D01*
X19666D01*
Y13266D02*
Y13012D01*
X20174D01*
Y13266D01*
X20428D01*
Y13774D01*
X20174D01*
Y14028D01*
X19666D01*
Y13774D01*
X19412D01*
Y13266D01*
X19666D01*
X17666Y21266D02*
Y21012D01*
X18174D01*
Y21266D01*
X18428D01*
Y21774D01*
X18174D01*
Y22028D01*
X17666D01*
Y21774D01*
X17412D01*
Y21266D01*
X17666D01*
Y17266D02*
Y17012D01*
X18174D01*
Y17266D01*
X18428D01*
Y17774D01*
X18174D01*
Y18028D01*
X17666D01*
Y17774D01*
X17412D01*
Y17266D01*
X17666D01*
X15666Y25266D02*
Y25012D01*
X16174D01*
Y25266D01*
X16428D01*
Y25774D01*
X16174D01*
Y26028D01*
X15666D01*
Y25774D01*
X15412D01*
Y25266D01*
X15666D01*
Y17266D02*
Y17012D01*
X16174D01*
Y17266D01*
X16428D01*
Y17774D01*
X16174D01*
Y18028D01*
X15666D01*
Y17774D01*
X15412D01*
Y17266D01*
X15666D01*
Y13266D02*
Y13012D01*
X16174D01*
Y13266D01*
X16428D01*
Y13774D01*
X16174D01*
Y14028D01*
X15666D01*
Y13774D01*
X15412D01*
Y13266D01*
X15666D01*
X13666Y21266D02*
Y21012D01*
X14174D01*
Y21266D01*
X14428D01*
Y21774D01*
X14174D01*
Y22028D01*
X13666D01*
Y21774D01*
X13412D01*
Y21266D01*
X13666D01*
Y17266D02*
Y17012D01*
X14174D01*
Y17266D01*
X14428D01*
Y17774D01*
X14174D01*
Y18028D01*
X13666D01*
Y17774D01*
X13412D01*
Y17266D01*
X13666D01*
X12666Y19266D02*
Y19012D01*
X13174D01*
Y19266D01*
X13428D01*
Y19774D01*
X13174D01*
Y20028D01*
X12666D01*
Y19774D01*
X12412D01*
Y19266D01*
X12666D01*
X11666Y17266D02*
Y17012D01*
X12174D01*
Y17266D01*
X12428D01*
Y17774D01*
X12174D01*
Y18028D01*
X11666D01*
Y17774D01*
X11412D01*
Y17266D01*
X11666D01*
X12666Y15266D02*
Y15012D01*
X13174D01*
Y15266D01*
X13428D01*
Y15774D01*
X13174D01*
Y16028D01*
X12666D01*
Y15774D01*
X12412D01*
Y15266D01*
X12666D01*
X11666Y13266D02*
Y13012D01*
X12174D01*
Y13266D01*
X12428D01*
Y13774D01*
X12174D01*
Y14028D01*
X11666D01*
Y13774D01*
X11412D01*
Y13266D01*
X11666D01*
X12666Y11266D02*
Y11012D01*
X13174D01*
Y11266D01*
X13428D01*
Y11774D01*
X13174D01*
Y12028D01*
X12666D01*
Y11774D01*
X12412D01*
Y11266D01*
X12666D01*
X11666Y9266D02*
Y9012D01*
X12174D01*
Y9266D01*
X12428D01*
Y9774D01*
X12174D01*
Y10028D01*
X11666D01*
Y9774D01*
X11412D01*
Y9266D01*
X11666D01*
X10666Y23266D02*
Y23012D01*
X11174D01*
Y23266D01*
X11428D01*
Y23774D01*
X11174D01*
Y24028D01*
X10666D01*
Y23774D01*
X10412D01*
Y23266D01*
X10666D01*
Y19266D02*
Y19012D01*
X11174D01*
Y19266D01*
X11428D01*
Y19774D01*
X11174D01*
Y20028D01*
X10666D01*
Y19774D01*
X10412D01*
Y19266D01*
X10666D01*
X9666Y17266D02*
Y17012D01*
X10174D01*
Y17266D01*
X10428D01*
Y17774D01*
X10174D01*
Y18028D01*
X9666D01*
Y17774D01*
X9412D01*
Y17266D01*
X9666D01*
Y13266D02*
Y13012D01*
X10174D01*
Y13266D01*
X10428D01*
Y13774D01*
X10174D01*
Y14028D01*
X9666D01*
Y13774D01*
X9412D01*
Y13266D01*
X9666D01*
X8666Y19266D02*
Y19012D01*
X9174D01*
Y19266D01*
X9428D01*
Y19774D01*
X9174D01*
Y20028D01*
X8666D01*
Y19774D01*
X8412D01*
Y19266D01*
X8666D01*
Y15266D02*
Y15012D01*
X9174D01*
Y15266D01*
X9428D01*
Y15774D01*
X9174D01*
Y16028D01*
X8666D01*
Y15774D01*
X8412D01*
Y15266D01*
X8666D01*
X5666Y17266D02*
Y17012D01*
X6174D01*
Y17266D01*
X6428D01*
Y17774D01*
X6174D01*
Y18028D01*
X5666D01*
Y17774D01*
X5412D01*
Y17266D01*
X5666D01*
X1666Y1266D02*
Y1012D01*
X2174D01*
Y1266D01*
X2428D01*
Y1774D01*
X2174D01*
Y2028D01*
X1666D01*
Y1774D01*
X1412D01*
Y1266D01*
X1666D01*
X666Y27266D02*
Y27012D01*
X1174D01*
Y27266D01*
X1428D01*
Y27774D01*
X1174D01*
Y28028D01*
X666D01*
Y27774D01*
X412D01*
Y27266D01*
X666D01*
Y11266D02*
Y11012D01*
X1174D01*
Y11266D01*
X1428D01*
Y11774D01*
X1174D01*
Y12028D01*
X666D01*
Y11774D01*
X412D01*
Y11266D01*
X666D01*
Y3266D02*
Y3012D01*
X1174D01*
Y3266D01*
X1428D01*
Y3774D01*
X1174D01*
Y4028D01*
X666D01*
Y3774D01*
X412D01*
Y3266D01*
X666D01*
X18895Y1031D02*
Y777D01*
X19403D01*
Y1031D01*
X19657D01*
Y1539D01*
X19403D01*
Y1793D01*
X18895D01*
Y1539D01*
X18641D01*
Y1031D01*
X18895D01*
X36468Y1846D02*
Y1592D01*
X36976D01*
Y1846D01*
X37230D01*
Y2354D01*
X36976D01*
Y2608D01*
X36468D01*
Y2354D01*
X36214D01*
Y1846D01*
X36468D01*
X14840Y4409D02*
Y4155D01*
X15348D01*
Y4409D01*
X15602D01*
Y4917D01*
X15348D01*
Y5171D01*
X14840D01*
Y4917D01*
X14586D01*
Y4409D01*
X14840D01*
X13579Y1509D02*
Y1255D01*
X14087D01*
Y1509D01*
X14341D01*
Y2017D01*
X14087D01*
Y2271D01*
X13579D01*
Y2017D01*
X13325D01*
Y1509D01*
X13579D01*
X12736Y3352D02*
Y3098D01*
X13244D01*
Y3352D01*
X13498D01*
Y3860D01*
X13244D01*
Y4114D01*
X12736D01*
Y3860D01*
X12482D01*
Y3352D01*
X12736D01*
X11464Y3305D02*
Y3051D01*
X11972D01*
Y3305D01*
X12226D01*
Y3813D01*
X11972D01*
Y4067D01*
X11464D01*
Y3813D01*
X11210D01*
Y3305D01*
X11464D01*
X22385Y26177D02*
Y25923D01*
X22893D01*
Y26177D01*
X23147D01*
Y26685D01*
X22893D01*
Y26939D01*
X22385D01*
Y26685D01*
X22131D01*
Y26177D01*
X22385D01*
X6282Y1276D02*
Y1022D01*
X6790D01*
Y1276D01*
X7044D01*
Y1784D01*
X6790D01*
Y2038D01*
X6282D01*
Y1784D01*
X6028D01*
Y1276D01*
X6282D01*
X8664Y1266D02*
Y1012D01*
X9172D01*
Y1266D01*
X9426D01*
Y1774D01*
X9172D01*
Y2028D01*
X8664D01*
Y1774D01*
X8410D01*
Y1266D01*
X8664D01*
X12862Y27433D02*
Y27179D01*
X13370D01*
Y27433D01*
X13624D01*
Y27941D01*
X13370D01*
Y28195D01*
X12862D01*
Y27941D01*
X12608D01*
Y27433D01*
X12862D01*
X12927Y28489D02*
Y28235D01*
X13435D01*
Y28489D01*
X13689D01*
Y28997D01*
X13435D01*
Y29251D01*
X12927D01*
Y28997D01*
X12673D01*
Y28489D01*
X12927D01*
X10621Y24811D02*
Y24557D01*
X11129D01*
Y24811D01*
X11383D01*
Y25319D01*
X11129D01*
Y25573D01*
X10621D01*
Y25319D01*
X10367D01*
Y24811D01*
X10621D01*
X20995Y26606D02*
Y26352D01*
X21503D01*
Y26606D01*
X21757D01*
Y27114D01*
X21503D01*
Y27368D01*
X20995D01*
Y27114D01*
X20741D01*
Y26606D01*
X20995D01*
X16389Y28093D02*
Y27839D01*
X16897D01*
Y28093D01*
X17151D01*
Y28601D01*
X16897D01*
Y28855D01*
X16389D01*
Y28601D01*
X16135D01*
Y28093D01*
X16389D01*
X18422Y28014D02*
Y27760D01*
X18930D01*
Y28014D01*
X19184D01*
Y28522D01*
X18930D01*
Y28776D01*
X18422D01*
Y28522D01*
X18168D01*
Y28014D01*
X18422D01*
X17079Y3359D02*
Y3105D01*
X17587D01*
Y3359D01*
X17841D01*
Y3867D01*
X17587D01*
Y4121D01*
X17079D01*
Y3867D01*
X16825D01*
Y3359D01*
X17079D01*
X15873Y4344D02*
Y4090D01*
X16381D01*
Y4344D01*
X16635D01*
Y4852D01*
X16381D01*
Y5106D01*
X15873D01*
Y4852D01*
X15619D01*
Y4344D01*
X15873D01*
X16167Y1212D02*
Y958D01*
X16675D01*
Y1212D01*
X16929D01*
Y1720D01*
X16675D01*
Y1974D01*
X16167D01*
Y1720D01*
X15913D01*
Y1212D01*
X16167D01*
X17984Y3490D02*
Y3236D01*
X18492D01*
Y3490D01*
X18746D01*
Y3998D01*
X18492D01*
Y4252D01*
X17984D01*
Y3998D01*
X17730D01*
Y3490D01*
X17984D01*
X20821Y2756D02*
Y2502D01*
X21329D01*
Y2756D01*
X21583D01*
Y3264D01*
X21329D01*
Y3518D01*
X20821D01*
Y3264D01*
X20567D01*
Y2756D01*
X20821D01*
X21246Y3721D02*
Y3467D01*
X21754D01*
Y3721D01*
X22008D01*
Y4229D01*
X21754D01*
Y4483D01*
X21246D01*
Y4229D01*
X20992D01*
Y3721D01*
X21246D01*
X23295Y4531D02*
Y4277D01*
X23803D01*
Y4531D01*
X24057D01*
Y5039D01*
X23803D01*
Y5293D01*
X23295D01*
Y5039D01*
X23041D01*
Y4531D01*
X23295D01*
X25312Y697D02*
Y443D01*
X25820D01*
Y697D01*
X26074D01*
Y1205D01*
X25820D01*
Y1459D01*
X25312D01*
Y1205D01*
X25058D01*
Y697D01*
X25312D01*
X26040Y3549D02*
Y3295D01*
X26548D01*
Y3549D01*
X26802D01*
Y4057D01*
X26548D01*
Y4311D01*
X26040D01*
Y4057D01*
X25786D01*
Y3549D01*
X26040D01*
X12936Y22272D02*
Y22018D01*
X13444D01*
Y22272D01*
X13698D01*
Y22780D01*
X13444D01*
Y23034D01*
X12936D01*
Y22780D01*
X12682D01*
Y22272D01*
X12936D01*
X7767Y11918D02*
Y11664D01*
X8275D01*
Y11918D01*
X8529D01*
Y12426D01*
X8275D01*
Y12680D01*
X7767D01*
Y12426D01*
X7513D01*
Y11918D01*
X7767D01*
X530Y16009D02*
Y15755D01*
X1038D01*
Y16009D01*
X1292D01*
Y16517D01*
X1038D01*
Y16771D01*
X530D01*
Y16517D01*
X276D01*
Y16009D01*
X530D01*
X510Y13774D02*
Y13520D01*
X1018D01*
Y13774D01*
X1272D01*
Y14282D01*
X1018D01*
Y14536D01*
X510D01*
Y14282D01*
X256D01*
Y13774D01*
X510D01*
X7173Y12926D02*
Y12672D01*
X7681D01*
Y12926D01*
X7935D01*
Y13434D01*
X7681D01*
Y13688D01*
X7173D01*
Y13434D01*
X6919D01*
Y12926D01*
X7173D01*
X36214Y929D02*
X36468D01*
X36722Y1183D01*
X36976Y929D01*
X37230D01*
Y1183D01*
X36976Y1437D01*
X37230Y1691D01*
Y1945D01*
X36976D01*
X36722Y1691D01*
X36468Y1945D01*
X36214D01*
Y1691D01*
X36468Y1437D01*
X36214Y1183D01*
Y929D01*
X33107Y9175D02*
Y8921D01*
X33615D01*
Y9175D01*
X33869D01*
Y9683D01*
X33615D01*
Y9937D01*
X33107D01*
Y9683D01*
X32853D01*
Y9175D01*
X33107D01*
X30586Y8655D02*
X30840D01*
X31094Y8909D01*
X31348Y8655D01*
X31602D01*
Y8909D01*
X31348Y9163D01*
X31602Y9417D01*
Y9671D01*
X31348D01*
X31094Y9417D01*
X30840Y9671D01*
X30586D01*
Y9417D01*
X30840Y9163D01*
X30586Y8909D01*
Y8655D01*
X32217Y12391D02*
X32471D01*
X32725Y12645D01*
X32979Y12391D01*
X33233D01*
Y12645D01*
X32979Y12899D01*
X33233Y13153D01*
Y13407D01*
X32979D01*
X32725Y13153D01*
X32471Y13407D01*
X32217D01*
Y13153D01*
X32471Y12899D01*
X32217Y12645D01*
Y12391D01*
X31829Y12339D02*
X32083D01*
X32337Y12593D01*
X32591Y12339D01*
X32845D01*
Y12593D01*
X32591Y12847D01*
X32845Y13101D01*
Y13355D01*
X32591D01*
X32337Y13101D01*
X32083Y13355D01*
X31829D01*
Y13101D01*
X32083Y12847D01*
X31829Y12593D01*
Y12339D01*
X24369Y4594D02*
Y4340D01*
X24877D01*
Y4594D01*
X25131D01*
Y5102D01*
X24877D01*
Y5356D01*
X24369D01*
Y5102D01*
X24115D01*
Y4594D01*
X24369D01*
X39104Y9622D02*
X39358D01*
X39612Y9876D01*
X39866Y9622D01*
X40120D01*
Y9876D01*
X39866Y10130D01*
X40120Y10384D01*
Y10638D01*
X39866D01*
X39612Y10384D01*
X39358Y10638D01*
X39104D01*
Y10384D01*
X39358Y10130D01*
X39104Y9876D01*
Y9622D01*
X39753Y9415D02*
X40007D01*
X40261Y9669D01*
X40515Y9415D01*
X40769D01*
Y9669D01*
X40515Y9923D01*
X40769Y10177D01*
Y10431D01*
X40515D01*
X40261Y10177D01*
X40007Y10431D01*
X39753D01*
Y10177D01*
X40007Y9923D01*
X39753Y9669D01*
Y9415D01*
X39828Y9045D02*
X40082D01*
X40336Y9299D01*
X40590Y9045D01*
X40844D01*
Y9299D01*
X40590Y9553D01*
X40844Y9807D01*
Y10061D01*
X40590D01*
X40336Y9807D01*
X40082Y10061D01*
X39828D01*
Y9807D01*
X40082Y9553D01*
X39828Y9299D01*
Y9045D01*
X40227Y9304D02*
X40481D01*
X40735Y9558D01*
X40989Y9304D01*
X41243D01*
Y9558D01*
X40989Y9812D01*
X41243Y10066D01*
Y10320D01*
X40989D01*
X40735Y10066D01*
X40481Y10320D01*
X40227D01*
Y10066D01*
X40481Y9812D01*
X40227Y9558D01*
Y9304D01*
X37593Y8934D02*
X37847D01*
X38101Y9188D01*
X38355Y8934D01*
X38609D01*
Y9188D01*
X38355Y9442D01*
X38609Y9696D01*
Y9950D01*
X38355D01*
X38101Y9696D01*
X37847Y9950D01*
X37593D01*
Y9696D01*
X37847Y9442D01*
X37593Y9188D01*
Y8934D01*
X23044Y27409D02*
X23298D01*
X23552Y27663D01*
X23806Y27409D01*
X24060D01*
Y27663D01*
X23806Y27917D01*
X24060Y28171D01*
Y28425D01*
X23806D01*
X23552Y28171D01*
X23298Y28425D01*
X23044D01*
Y28171D01*
X23298Y27917D01*
X23044Y27663D01*
Y27409D01*
X25953Y27672D02*
X26207D01*
X26461Y27926D01*
X26715Y27672D01*
X26969D01*
Y27926D01*
X26715Y28180D01*
X26969Y28434D01*
Y28688D01*
X26715D01*
X26461Y28434D01*
X26207Y28688D01*
X25953D01*
Y28434D01*
X26207Y28180D01*
X25953Y27926D01*
Y27672D01*
X25961Y27189D02*
X26215D01*
X26469Y27443D01*
X26723Y27189D01*
X26977D01*
Y27443D01*
X26723Y27697D01*
X26977Y27951D01*
Y28205D01*
X26723D01*
X26469Y27951D01*
X26215Y28205D01*
X25961D01*
Y27951D01*
X26215Y27697D01*
X25961Y27443D01*
Y27189D01*
X23031Y24556D02*
X23285D01*
X23539Y24810D01*
X23793Y24556D01*
X24047D01*
Y24810D01*
X23793Y25064D01*
X24047Y25318D01*
Y25572D01*
X23793D01*
X23539Y25318D01*
X23285Y25572D01*
X23031D01*
Y25318D01*
X23285Y25064D01*
X23031Y24810D01*
Y24556D01*
X23853Y23693D02*
X24107D01*
X24361Y23947D01*
X24615Y23693D01*
X24869D01*
Y23947D01*
X24615Y24201D01*
X24869Y24455D01*
Y24709D01*
X24615D01*
X24361Y24455D01*
X24107Y24709D01*
X23853D01*
Y24455D01*
X24107Y24201D01*
X23853Y23947D01*
Y23693D01*
X25072Y23684D02*
X25326D01*
X25580Y23938D01*
X25834Y23684D01*
X26088D01*
Y23938D01*
X25834Y24192D01*
X26088Y24446D01*
Y24700D01*
X25834D01*
X25580Y24446D01*
X25326Y24700D01*
X25072D01*
Y24446D01*
X25326Y24192D01*
X25072Y23938D01*
Y23684D01*
X32974Y17222D02*
X33228D01*
X33482Y17476D01*
X33736Y17222D01*
X33990D01*
Y17476D01*
X33736Y17730D01*
X33990Y17984D01*
Y18238D01*
X33736D01*
X33482Y17984D01*
X33228Y18238D01*
X32974D01*
Y17984D01*
X33228Y17730D01*
X32974Y17476D01*
Y17222D01*
X32664Y16880D02*
X32918D01*
X33172Y17134D01*
X33426Y16880D01*
X33680D01*
Y17134D01*
X33426Y17388D01*
X33680Y17642D01*
Y17896D01*
X33426D01*
X33172Y17642D01*
X32918Y17896D01*
X32664D01*
Y17642D01*
X32918Y17388D01*
X32664Y17134D01*
Y16880D01*
X32517Y17448D02*
X32771D01*
X33025Y17702D01*
X33279Y17448D01*
X33533D01*
Y17702D01*
X33279Y17956D01*
X33533Y18210D01*
Y18464D01*
X33279D01*
X33025Y18210D01*
X32771Y18464D01*
X32517D01*
Y18210D01*
X32771Y17956D01*
X32517Y17702D01*
Y17448D01*
X32259Y17905D02*
X32513D01*
X32767Y18159D01*
X33021Y17905D01*
X33275D01*
Y18159D01*
X33021Y18413D01*
X33275Y18667D01*
Y18921D01*
X33021D01*
X32767Y18667D01*
X32513Y18921D01*
X32259D01*
Y18667D01*
X32513Y18413D01*
X32259Y18159D01*
Y17905D01*
X31991Y17453D02*
X32245D01*
X32499Y17707D01*
X32753Y17453D01*
X33007D01*
Y17707D01*
X32753Y17961D01*
X33007Y18215D01*
Y18469D01*
X32753D01*
X32499Y18215D01*
X32245Y18469D01*
X31991D01*
Y18215D01*
X32245Y17961D01*
X31991Y17707D01*
Y17453D01*
X40360Y13078D02*
X40614D01*
X40868Y13332D01*
X41122Y13078D01*
X41376D01*
Y13332D01*
X41122Y13586D01*
X41376Y13840D01*
Y14094D01*
X41122D01*
X40868Y13840D01*
X40614Y14094D01*
X40360D01*
Y13840D01*
X40614Y13586D01*
X40360Y13332D01*
Y13078D01*
X42073Y13389D02*
X42327D01*
X42581Y13643D01*
X42835Y13389D01*
X43089D01*
Y13643D01*
X42835Y13897D01*
X43089Y14151D01*
Y14405D01*
X42835D01*
X42581Y14151D01*
X42327Y14405D01*
X42073D01*
Y14151D01*
X42327Y13897D01*
X42073Y13643D01*
Y13389D01*
X43506Y17051D02*
X43760D01*
X44014Y17305D01*
X44268Y17051D01*
X44522D01*
Y17305D01*
X44268Y17559D01*
X44522Y17813D01*
Y18067D01*
X44268D01*
X44014Y17813D01*
X43760Y18067D01*
X43506D01*
Y17813D01*
X43760Y17559D01*
X43506Y17305D01*
Y17051D01*
X41781Y16350D02*
X42035D01*
X42289Y16604D01*
X42543Y16350D01*
X42797D01*
Y16604D01*
X42543Y16858D01*
X42797Y17112D01*
Y17366D01*
X42543D01*
X42289Y17112D01*
X42035Y17366D01*
X41781D01*
Y17112D01*
X42035Y16858D01*
X41781Y16604D01*
Y16350D01*
X42625Y9754D02*
X42879D01*
X43133Y10008D01*
X43387Y9754D01*
X43641D01*
Y10008D01*
X43387Y10262D01*
X43641Y10516D01*
Y10770D01*
X43387D01*
X43133Y10516D01*
X42879Y10770D01*
X42625D01*
Y10516D01*
X42879Y10262D01*
X42625Y10008D01*
Y9754D01*
X43279Y9747D02*
X43533D01*
X43787Y10001D01*
X44041Y9747D01*
X44295D01*
Y10001D01*
X44041Y10255D01*
X44295Y10509D01*
Y10763D01*
X44041D01*
X43787Y10509D01*
X43533Y10763D01*
X43279D01*
Y10509D01*
X43533Y10255D01*
X43279Y10001D01*
Y9747D01*
X43439Y11547D02*
X43693D01*
X43947Y11801D01*
X44201Y11547D01*
X44455D01*
Y11801D01*
X44201Y12055D01*
X44455Y12309D01*
Y12563D01*
X44201D01*
X43947Y12309D01*
X43693Y12563D01*
X43439D01*
Y12309D01*
X43693Y12055D01*
X43439Y11801D01*
Y11547D01*
X57159Y23086D02*
X57413D01*
X57667Y23340D01*
X57921Y23086D01*
X58175D01*
Y23340D01*
X57921Y23594D01*
X58175Y23848D01*
Y24102D01*
X57921D01*
X57667Y23848D01*
X57413Y24102D01*
X57159D01*
Y23848D01*
X57413Y23594D01*
X57159Y23340D01*
Y23086D01*
X55174Y23102D02*
X55428D01*
X55682Y23356D01*
X55936Y23102D01*
X56190D01*
Y23356D01*
X55936Y23610D01*
X56190Y23864D01*
Y24118D01*
X55936D01*
X55682Y23864D01*
X55428Y24118D01*
X55174D01*
Y23864D01*
X55428Y23610D01*
X55174Y23356D01*
Y23102D01*
X33141Y20755D02*
X33395D01*
X33649Y21009D01*
X33903Y20755D01*
X34157D01*
Y21009D01*
X33903Y21263D01*
X34157Y21517D01*
Y21771D01*
X33903D01*
X33649Y21517D01*
X33395Y21771D01*
X33141D01*
Y21517D01*
X33395Y21263D01*
X33141Y21009D01*
Y20755D01*
X27254Y24283D02*
Y24029D01*
X27762D01*
Y24283D01*
X28016D01*
Y24791D01*
X27762D01*
Y25045D01*
X27254D01*
Y24791D01*
X27000D01*
Y24283D01*
X27254D01*
Y23361D02*
Y23107D01*
X27762D01*
Y23361D01*
X28016D01*
Y23869D01*
X27762D01*
Y24123D01*
X27254D01*
Y23869D01*
X27000D01*
Y23361D01*
X27254D01*
X29263Y26292D02*
Y26038D01*
X29771D01*
Y26292D01*
X30025D01*
Y26800D01*
X29771D01*
Y27054D01*
X29263D01*
Y26800D01*
X29009D01*
Y26292D01*
X29263D01*
X27336Y26210D02*
Y25956D01*
X27844D01*
Y26210D01*
X28098D01*
Y26718D01*
X27844D01*
Y26972D01*
X27336D01*
Y26718D01*
X27082D01*
Y26210D01*
X27336D01*
X31558Y21291D02*
Y21037D01*
X32066D01*
Y21291D01*
X32320D01*
Y21799D01*
X32066D01*
Y22053D01*
X31558D01*
Y21799D01*
X31304D01*
Y21291D01*
X31558D01*
X32869Y25083D02*
Y24829D01*
X33377D01*
Y25083D01*
X33631D01*
Y25591D01*
X33377D01*
Y25845D01*
X32869D01*
Y25591D01*
X32615D01*
Y25083D01*
X32869D01*
X35144Y26333D02*
Y26079D01*
X35652D01*
Y26333D01*
X35906D01*
Y26841D01*
X35652D01*
Y27095D01*
X35144D01*
Y26841D01*
X34890D01*
Y26333D01*
X35144D01*
X35492Y22439D02*
Y22185D01*
X36000D01*
Y22439D01*
X36254D01*
Y22947D01*
X36000D01*
Y23201D01*
X35492D01*
Y22947D01*
X35238D01*
Y22439D01*
X35492D01*
X36148Y28423D02*
Y28169D01*
X36656D01*
Y28423D01*
X36910D01*
Y28931D01*
X36656D01*
Y29185D01*
X36148D01*
Y28931D01*
X35894D01*
Y28423D01*
X36148D01*
X38874Y25287D02*
Y25033D01*
X39382D01*
Y25287D01*
X39636D01*
Y25795D01*
X39382D01*
Y26049D01*
X38874D01*
Y25795D01*
X38620D01*
Y25287D01*
X38874D01*
X38239Y26087D02*
Y25833D01*
X38747D01*
Y26087D01*
X39001D01*
Y26595D01*
X38747D01*
Y26849D01*
X38239D01*
Y26595D01*
X37985D01*
Y26087D01*
X38239D01*
X41210Y23914D02*
Y23660D01*
X41718D01*
Y23914D01*
X41972D01*
Y24422D01*
X41718D01*
Y24676D01*
X41210D01*
Y24422D01*
X40956D01*
Y23914D01*
X41210D01*
X42378Y23873D02*
Y23619D01*
X42886D01*
Y23873D01*
X43140D01*
Y24381D01*
X42886D01*
Y24635D01*
X42378D01*
Y24381D01*
X42124D01*
Y23873D01*
X42378D01*
X44873Y24250D02*
Y23996D01*
X45381D01*
Y24250D01*
X45635D01*
Y24758D01*
X45381D01*
Y25012D01*
X44873D01*
Y24758D01*
X44619D01*
Y24250D01*
X44873D01*
X47001Y22123D02*
Y21869D01*
X47509D01*
Y22123D01*
X47763D01*
Y22631D01*
X47509D01*
Y22885D01*
X47001D01*
Y22631D01*
X46747D01*
Y22123D01*
X47001D01*
X49030Y24333D02*
Y24079D01*
X49538D01*
Y24333D01*
X49792D01*
Y24841D01*
X49538D01*
Y25095D01*
X49030D01*
Y24841D01*
X48776D01*
Y24333D01*
X49030D01*
X46931Y18393D02*
Y18139D01*
X47439D01*
Y18393D01*
X47693D01*
Y18901D01*
X47439D01*
Y19155D01*
X46931D01*
Y18901D01*
X46677D01*
Y18393D01*
X46931D01*
X49089Y18343D02*
Y18089D01*
X49597D01*
Y18343D01*
X49851D01*
Y18851D01*
X49597D01*
Y19105D01*
X49089D01*
Y18851D01*
X48835D01*
Y18343D01*
X49089D01*
X47898Y20600D02*
Y20346D01*
X48406D01*
Y20600D01*
X48660D01*
Y21108D01*
X48406D01*
Y21362D01*
X47898D01*
Y21108D01*
X47644D01*
Y20600D01*
X47898D01*
X46953Y16367D02*
Y16113D01*
X47461D01*
Y16367D01*
X47715D01*
Y16875D01*
X47461D01*
Y17129D01*
X46953D01*
Y16875D01*
X46699D01*
Y16367D01*
X46953D01*
X46807Y12318D02*
Y12064D01*
X47315D01*
Y12318D01*
X47569D01*
Y12826D01*
X47315D01*
Y13080D01*
X46807D01*
Y12826D01*
X46553D01*
Y12318D01*
X46807D01*
X46733Y13706D02*
Y13452D01*
X47241D01*
Y13706D01*
X47495D01*
Y14214D01*
X47241D01*
Y14468D01*
X46733D01*
Y14214D01*
X46479D01*
Y13706D01*
X46733D01*
X49138Y12392D02*
Y12138D01*
X49646D01*
Y12392D01*
X49900D01*
Y12900D01*
X49646D01*
Y13154D01*
X49138D01*
Y12900D01*
X48884D01*
Y12392D01*
X49138D01*
X49113Y14178D02*
Y13924D01*
X49621D01*
Y14178D01*
X49875D01*
Y14686D01*
X49621D01*
Y14940D01*
X49113D01*
Y14686D01*
X48859D01*
Y14178D01*
X49113D01*
X45215Y10670D02*
Y10416D01*
X45723D01*
Y10670D01*
X45977D01*
Y11178D01*
X45723D01*
Y11432D01*
X45215D01*
Y11178D01*
X44961D01*
Y10670D01*
X45215D01*
X46262Y9516D02*
Y9262D01*
X46770D01*
Y9516D01*
X47024D01*
Y10024D01*
X46770D01*
Y10278D01*
X46262D01*
Y10024D01*
X46008D01*
Y9516D01*
X46262D01*
X47254Y8499D02*
Y8245D01*
X47762D01*
Y8499D01*
X48016D01*
Y9007D01*
X47762D01*
Y9261D01*
X47254D01*
Y9007D01*
X47000D01*
Y8499D01*
X47254D01*
X49386Y6540D02*
Y6286D01*
X49894D01*
Y6540D01*
X50148D01*
Y7048D01*
X49894D01*
Y7302D01*
X49386D01*
Y7048D01*
X49132D01*
Y6540D01*
X49386D01*
X51023Y4854D02*
Y4600D01*
X51531D01*
Y4854D01*
X51785D01*
Y5362D01*
X51531D01*
Y5616D01*
X51023D01*
Y5362D01*
X50769D01*
Y4854D01*
X51023D01*
X53006Y4730D02*
Y4476D01*
X53514D01*
Y4730D01*
X53768D01*
Y5238D01*
X53514D01*
Y5492D01*
X53006D01*
Y5238D01*
X52752D01*
Y4730D01*
X53006D01*
X48617Y10235D02*
Y9981D01*
X49125D01*
Y10235D01*
X49379D01*
Y10743D01*
X49125D01*
Y10997D01*
X48617D01*
Y10743D01*
X48363D01*
Y10235D01*
X48617D01*
X49808Y9144D02*
Y8890D01*
X50316D01*
Y9144D01*
X50570D01*
Y9652D01*
X50316D01*
Y9906D01*
X49808D01*
Y9652D01*
X49554D01*
Y9144D01*
X49808D01*
X51246Y7755D02*
Y7501D01*
X51754D01*
Y7755D01*
X52008D01*
Y8263D01*
X51754D01*
Y8517D01*
X51246D01*
Y8263D01*
X50992D01*
Y7755D01*
X51246D01*
X53056Y6639D02*
Y6385D01*
X53564D01*
Y6639D01*
X53818D01*
Y7147D01*
X53564D01*
Y7401D01*
X53056D01*
Y7147D01*
X52802D01*
Y6639D01*
X53056D01*
X55015D02*
Y6385D01*
X55523D01*
Y6639D01*
X55777D01*
Y7147D01*
X55523D01*
Y7401D01*
X55015D01*
Y7147D01*
X54761D01*
Y6639D01*
X55015D01*
X59519Y4613D02*
Y4359D01*
X60027D01*
Y4613D01*
X60281D01*
Y5121D01*
X60027D01*
Y5375D01*
X59519D01*
Y5121D01*
X59265D01*
Y4613D01*
X59519D01*
X55974Y4587D02*
Y4333D01*
X56482D01*
Y4587D01*
X56736D01*
Y5095D01*
X56482D01*
Y5349D01*
X55974D01*
Y5095D01*
X55720D01*
Y4587D01*
X55974D01*
X49498Y15704D02*
Y15450D01*
X50006D01*
Y15704D01*
X50260D01*
Y16212D01*
X50006D01*
Y16466D01*
X49498D01*
Y16212D01*
X49244D01*
Y15704D01*
X49498D01*
X50900Y17106D02*
Y16852D01*
X51408D01*
Y17106D01*
X51662D01*
Y17614D01*
X51408D01*
Y17868D01*
X50900D01*
Y17614D01*
X50646D01*
Y17106D01*
X50900D01*
X50544Y19303D02*
Y19049D01*
X51052D01*
Y19303D01*
X51306D01*
Y19811D01*
X51052D01*
Y20065D01*
X50544D01*
Y19811D01*
X50290D01*
Y19303D01*
X50544D01*
X53244Y21919D02*
Y21665D01*
X53752D01*
Y21919D01*
X54006D01*
Y22427D01*
X53752D01*
Y22681D01*
X53244D01*
Y22427D01*
X52990D01*
Y21919D01*
X53244D01*
X52197Y18383D02*
Y18129D01*
X52705D01*
Y18383D01*
X52959D01*
Y18891D01*
X52705D01*
Y19145D01*
X52197D01*
Y18891D01*
X51943D01*
Y18383D01*
X52197D01*
X53432Y19617D02*
Y19363D01*
X53940D01*
Y19617D01*
X54194D01*
Y20125D01*
X53940D01*
Y20379D01*
X53432D01*
Y20125D01*
X53178D01*
Y19617D01*
X53432D01*
X54345Y23135D02*
Y22881D01*
X54853D01*
Y23135D01*
X55107D01*
Y23643D01*
X54853D01*
Y23897D01*
X54345D01*
Y23643D01*
X54091D01*
Y23135D01*
X54345D01*
X57173Y21352D02*
Y21098D01*
X57681D01*
Y21352D01*
X57935D01*
Y21860D01*
X57681D01*
Y22114D01*
X57173D01*
Y21860D01*
X56919D01*
Y21352D01*
X57173D01*
X59468Y21250D02*
Y20996D01*
X59976D01*
Y21250D01*
X60230D01*
Y21758D01*
X59976D01*
Y22012D01*
X59468D01*
Y21758D01*
X59214D01*
Y21250D01*
X59468D01*
X59550Y23463D02*
Y23209D01*
X60058D01*
Y23463D01*
X60312D01*
Y23971D01*
X60058D01*
Y24225D01*
X59550D01*
Y23971D01*
X59296D01*
Y23463D01*
X59550D01*
X47280Y4433D02*
Y4179D01*
X47788D01*
Y4433D01*
X48042D01*
Y4941D01*
X47788D01*
Y5195D01*
X47280D01*
Y4941D01*
X47026D01*
Y4433D01*
X47280D01*
X44880Y8363D02*
Y8109D01*
X45388D01*
Y8363D01*
X45642D01*
Y8871D01*
X45388D01*
Y9125D01*
X44880D01*
Y8871D01*
X44626D01*
Y8363D01*
X44880D01*
X45151Y4487D02*
Y4233D01*
X45659D01*
Y4487D01*
X45913D01*
Y4995D01*
X45659D01*
Y5249D01*
X45151D01*
Y4995D01*
X44897D01*
Y4487D01*
X45151D01*
X41172Y15740D02*
X41426D01*
X41680Y15994D01*
X41934Y15740D01*
X42188D01*
Y15994D01*
X41934Y16248D01*
X42188Y16502D01*
Y16756D01*
X41934D01*
X41680Y16502D01*
X41426Y16756D01*
X41172D01*
Y16502D01*
X41426Y16248D01*
X41172Y15994D01*
Y15740D01*
X44831Y20936D02*
Y20682D01*
X45339D01*
Y20936D01*
X45593D01*
Y21444D01*
X45339D01*
Y21698D01*
X44831D01*
Y21444D01*
X44577D01*
Y20936D01*
X44831D01*
X30762Y15284D02*
Y15030D01*
X31270D01*
Y15284D01*
X31524D01*
Y15792D01*
X31270D01*
Y16046D01*
X30762D01*
Y15792D01*
X30508D01*
Y15284D01*
X30762D01*
X31505Y7394D02*
X31759D01*
X32013Y7648D01*
X32267Y7394D01*
X32521D01*
Y7648D01*
X32267Y7902D01*
X32521Y8156D01*
Y8410D01*
X32267D01*
X32013Y8156D01*
X31759Y8410D01*
X31505D01*
Y8156D01*
X31759Y7902D01*
X31505Y7648D01*
Y7394D01*
X43324Y16286D02*
X43578D01*
X43832Y16540D01*
X44086Y16286D01*
X44340D01*
Y16540D01*
X44086Y16794D01*
X44340Y17048D01*
Y17302D01*
X44086D01*
X43832Y17048D01*
X43578Y17302D01*
X43324D01*
Y17048D01*
X43578Y16794D01*
X43324Y16540D01*
Y16286D01*
X24257Y827D02*
Y573D01*
X24765D01*
Y827D01*
X25019D01*
Y1335D01*
X24765D01*
Y1589D01*
X24257D01*
Y1335D01*
X24003D01*
Y827D01*
X24257D01*
X40745Y12794D02*
X40999D01*
X41253Y13048D01*
X41507Y12794D01*
X41761D01*
Y13048D01*
X41507Y13302D01*
X41761Y13556D01*
Y13810D01*
X41507D01*
X41253Y13556D01*
X40999Y13810D01*
X40745D01*
Y13556D01*
X40999Y13302D01*
X40745Y13048D01*
Y12794D01*
X43443Y13394D02*
X43697D01*
X43951Y13648D01*
X44205Y13394D01*
X44459D01*
Y13648D01*
X44205Y13902D01*
X44459Y14156D01*
Y14410D01*
X44205D01*
X43951Y14156D01*
X43697Y14410D01*
X43443D01*
Y14156D01*
X43697Y13902D01*
X43443Y13648D01*
Y13394D01*
X45949Y14562D02*
Y14308D01*
X46457D01*
Y14562D01*
X46711D01*
Y15070D01*
X46457D01*
Y15324D01*
X45949D01*
Y15070D01*
X45695D01*
Y14562D01*
X45949D01*
X44556Y13675D02*
Y13421D01*
X45064D01*
Y13675D01*
X45318D01*
Y14183D01*
X45064D01*
Y14437D01*
X44556D01*
Y14183D01*
X44302D01*
Y13675D01*
X44556D01*
X38608Y11351D02*
Y11097D01*
X39116D01*
Y11351D01*
X39370D01*
Y11859D01*
X39116D01*
Y12113D01*
X38608D01*
Y11859D01*
X38354D01*
Y11351D01*
X38608D01*
X36608D02*
Y11097D01*
X37116D01*
Y11351D01*
X37370D01*
Y11859D01*
X37116D01*
Y12113D01*
X36608D01*
Y11859D01*
X36354D01*
Y11351D01*
X36608D01*
X34608D02*
Y11097D01*
X35116D01*
Y11351D01*
X35370D01*
Y11859D01*
X35116D01*
Y12113D01*
X34608D01*
Y11859D01*
X34354D01*
Y11351D01*
X34608D01*
Y13351D02*
Y13097D01*
X35116D01*
Y13351D01*
X35370D01*
Y13859D01*
X35116D01*
Y14113D01*
X34608D01*
Y13859D01*
X34354D01*
Y13351D01*
X34608D01*
Y15351D02*
Y15097D01*
X35116D01*
Y15351D01*
X35370D01*
Y15859D01*
X35116D01*
Y16113D01*
X34608D01*
Y15859D01*
X34354D01*
Y15351D01*
X34608D01*
X36608D02*
Y15097D01*
X37116D01*
Y15351D01*
X37370D01*
Y15859D01*
X37116D01*
Y16113D01*
X36608D01*
Y15859D01*
X36354D01*
Y15351D01*
X36608D01*
X38608Y13351D02*
Y13097D01*
X39116D01*
Y13351D01*
X39370D01*
Y13859D01*
X39116D01*
Y14113D01*
X38608D01*
Y13859D01*
X38354D01*
Y13351D01*
X38608D01*
Y15351D02*
Y15097D01*
X39116D01*
Y15351D01*
X39370D01*
Y15859D01*
X39116D01*
Y16113D01*
X38608D01*
Y15859D01*
X38354D01*
Y15351D01*
X38608D01*
X36608Y13351D02*
Y13097D01*
X37116D01*
Y13351D01*
X37370D01*
Y13859D01*
X37116D01*
Y14113D01*
X36608D01*
Y13859D01*
X36354D01*
Y13351D01*
X36608D01*
X1869Y-14422D02*
X2047D01*
X2225Y-14244D01*
X2402Y-14422D01*
X2580D01*
Y-14244D01*
X2402Y-14066D01*
X2580Y-13888D01*
Y-13710D01*
X2402D01*
X2225Y-13888D01*
X2047Y-13710D01*
X1869D01*
Y-13888D01*
X2047Y-14066D01*
X1869Y-14244D01*
Y-14422D01*
X2047Y-16244D02*
Y-16422D01*
X2402D01*
Y-16244D01*
X2580D01*
Y-15888D01*
X2402D01*
Y-15710D01*
X2047D01*
Y-15888D01*
X1869D01*
Y-16244D01*
X2047D01*
X2225Y-18422D02*
X1869Y-17710D01*
X2580D01*
X2225Y-18422D01*
X1869Y-20422D02*
X2047Y-20066D01*
X1869Y-19710D01*
X2225Y-19888D01*
X2580Y-19710D01*
X2402Y-20066D01*
X2580Y-20422D01*
X2225Y-20244D01*
X1869Y-20422D01*
X2225Y-22422D02*
X2402Y-22244D01*
X2580D01*
X2402Y-22066D01*
X2580Y-21888D01*
X2402D01*
X2225Y-21710D01*
X2047Y-21888D01*
X1869D01*
X2047Y-22066D01*
X1869Y-22244D01*
X2047D01*
X2225Y-22422D01*
X1869Y-26422D02*
Y-25710D01*
X2580D01*
Y-26422D01*
X1869D01*
D126*
X24181Y15096D02*
G03*
X24181Y15096I-508J0D01*
G01*
X11351Y16096D02*
G03*
X11351Y16096I-508J0D01*
G01*
X24181Y9950D02*
G03*
X24181Y9950I-508J0D01*
G01*
X11351Y10950D02*
G03*
X11351Y10950I-508J0D01*
G01*
X24181Y20192D02*
G03*
X24181Y20192I-508J0D01*
G01*
X11351Y21192D02*
G03*
X11351Y21192I-508J0D01*
G01*
D127*
X2669Y-11166D02*
X2469Y-10966D01*
X2069D01*
X1869Y-11166D01*
Y-11366D01*
X2069Y-11566D01*
X2469D01*
X2669Y-11766D01*
Y-11966D01*
X2469Y-12166D01*
X2069D01*
X1869Y-11966D01*
X3069Y-11366D02*
Y-11966D01*
X3269Y-12166D01*
X3868D01*
Y-12366D01*
X3668Y-12566D01*
X3468D01*
X3868Y-12166D02*
Y-11366D01*
X4268Y-12166D02*
Y-11366D01*
X4468D01*
X4668Y-11566D01*
Y-12166D01*
Y-11566D01*
X4868Y-11366D01*
X5068Y-11566D01*
Y-12166D01*
X5468Y-10966D02*
Y-12166D01*
X6068D01*
X6268Y-11966D01*
Y-11766D01*
Y-11566D01*
X6068Y-11366D01*
X5468D01*
X6867Y-12166D02*
X7267D01*
X7467Y-11966D01*
Y-11566D01*
X7267Y-11366D01*
X6867D01*
X6667Y-11566D01*
Y-11966D01*
X6867Y-12166D01*
X7867D02*
X8267D01*
X8067D01*
Y-10966D01*
X7867D01*
X10686D02*
Y-12166D01*
Y-11566D01*
X11486D01*
Y-10966D01*
Y-12166D01*
X11886D02*
X12286D01*
X12086D01*
Y-11366D01*
X11886D01*
X13085Y-11166D02*
Y-11366D01*
X12885D01*
X13285D01*
X13085D01*
Y-11966D01*
X13285Y-12166D01*
X15884Y-11166D02*
X15685Y-10966D01*
X15285D01*
X15085Y-11166D01*
Y-11966D01*
X15285Y-12166D01*
X15685D01*
X15884Y-11966D01*
X16484Y-12166D02*
X16884D01*
X17084Y-11966D01*
Y-11566D01*
X16884Y-11366D01*
X16484D01*
X16284Y-11566D01*
Y-11966D01*
X16484Y-12166D01*
X17484Y-11366D02*
Y-11966D01*
X17684Y-12166D01*
X18284D01*
Y-11366D01*
X18684Y-12166D02*
Y-11366D01*
X19283D01*
X19483Y-11566D01*
Y-12166D01*
X20083Y-11166D02*
Y-11366D01*
X19883D01*
X20283D01*
X20083D01*
Y-11966D01*
X20283Y-12166D01*
X23502Y-10966D02*
X22702D01*
Y-11566D01*
X23102D01*
X22702D01*
Y-12166D01*
X23902D02*
X24302D01*
X24102D01*
Y-11366D01*
X23902D01*
X24902Y-12166D02*
Y-11366D01*
X25501D01*
X25701Y-11566D01*
Y-12166D01*
X26101D02*
X26501D01*
X26301D01*
Y-11366D01*
X26101D01*
X27101Y-12166D02*
X27701D01*
X27901Y-11966D01*
X27701Y-11766D01*
X27301D01*
X27101Y-11566D01*
X27301Y-11366D01*
X27901D01*
X28300Y-10966D02*
Y-12166D01*
Y-11566D01*
X28500Y-11366D01*
X28900D01*
X29100Y-11566D01*
Y-12166D01*
X30100D02*
X29700D01*
X29500Y-11966D01*
Y-11566D01*
X29700Y-11366D01*
X30100D01*
X30300Y-11566D01*
Y-11766D01*
X29500D01*
X31499Y-10966D02*
Y-12166D01*
X30900D01*
X30700Y-11966D01*
Y-11566D01*
X30900Y-11366D01*
X31499D01*
X33099Y-10966D02*
Y-12166D01*
Y-11566D01*
X33899D01*
Y-10966D01*
Y-12166D01*
X34498D02*
X34898D01*
X35098Y-11966D01*
Y-11566D01*
X34898Y-11366D01*
X34498D01*
X34298Y-11566D01*
Y-11966D01*
X34498Y-12166D01*
X35498D02*
X35898D01*
X35698D01*
Y-10966D01*
X35498D01*
X37098Y-12166D02*
X36698D01*
X36498Y-11966D01*
Y-11566D01*
X36698Y-11366D01*
X37098D01*
X37298Y-11566D01*
Y-11766D01*
X36498D01*
X39697Y-11166D02*
X39497Y-10966D01*
X39097D01*
X38897Y-11166D01*
Y-11366D01*
X39097Y-11566D01*
X39497D01*
X39697Y-11766D01*
Y-11966D01*
X39497Y-12166D01*
X39097D01*
X38897Y-11966D01*
X40097Y-12166D02*
X40496D01*
X40297D01*
Y-11366D01*
X40097D01*
X41096D02*
X41896D01*
X41096Y-12166D01*
X41896D01*
X42896D02*
X42496D01*
X42296Y-11966D01*
Y-11566D01*
X42496Y-11366D01*
X42896D01*
X43096Y-11566D01*
Y-11766D01*
X42296D01*
X45515Y-12166D02*
Y-10966D01*
X46115D01*
X46315Y-11166D01*
Y-11566D01*
X46115Y-11766D01*
X45515D01*
X46714Y-12166D02*
X47114D01*
X46914D01*
Y-10966D01*
X46714D01*
X47914Y-11366D02*
X48314D01*
X48514Y-11566D01*
Y-12166D01*
X47914D01*
X47714Y-11966D01*
X47914Y-11766D01*
X48514D01*
X49114Y-11166D02*
Y-11366D01*
X48914D01*
X49314D01*
X49114D01*
Y-11966D01*
X49314Y-12166D01*
X50513D02*
X50113D01*
X49913Y-11966D01*
Y-11566D01*
X50113Y-11366D01*
X50513D01*
X50713Y-11566D01*
Y-11766D01*
X49913D01*
X51913Y-10966D02*
Y-12166D01*
X51313D01*
X51113Y-11966D01*
Y-11566D01*
X51313Y-11366D01*
X51913D01*
X54332Y-10966D02*
Y-12166D01*
Y-11566D01*
X55132D01*
Y-10966D01*
Y-12166D01*
X55732D02*
X56131D01*
X56331Y-11966D01*
Y-11566D01*
X56131Y-11366D01*
X55732D01*
X55532Y-11566D01*
Y-11966D01*
X55732Y-12166D01*
X56731D02*
X57131D01*
X56931D01*
Y-10966D01*
X56731D01*
X58331Y-12166D02*
X57931D01*
X57731Y-11966D01*
Y-11566D01*
X57931Y-11366D01*
X58331D01*
X58531Y-11566D01*
Y-11766D01*
X57731D01*
X60130Y-10966D02*
X60930D01*
X60530D01*
Y-12166D01*
X61330Y-11366D02*
Y-11966D01*
X61530Y-12166D01*
X62129D01*
Y-12366D01*
X61930Y-12566D01*
X61730D01*
X62129Y-12166D02*
Y-11366D01*
X62529Y-12566D02*
Y-11366D01*
X63129D01*
X63329Y-11566D01*
Y-11966D01*
X63129Y-12166D01*
X62529D01*
X64329D02*
X63929D01*
X63729Y-11966D01*
Y-11566D01*
X63929Y-11366D01*
X64329D01*
X64529Y-11566D01*
Y-11766D01*
X63729D01*
X263Y-10366D02*
X66948D01*
X263Y-13066D02*
X66948D01*
X263Y-10366D02*
Y-29066D01*
X66948Y-10366D02*
Y-29066D01*
X9883Y-10366D02*
Y-29066D01*
X21899Y-10366D02*
Y-29066D01*
X44712Y-10366D02*
Y-29066D01*
X53529Y-10366D02*
Y-29066D01*
X263Y-27066D02*
X66948D01*
X263Y-29066D02*
X66948D01*
D128*
X2580Y-24066D02*
G03*
X2580Y-24066I-356J0D01*
G01*
M02*
