%FSLAX43Y43*%
%MOMM*%
G71*
G01*
G75*
G04 Layer_Physical_Order=3*
G04 Layer_Color=16440176*
%ADD10R,3.600X1.800*%
%ADD11R,0.800X0.650*%
%ADD12R,0.650X0.800*%
%ADD13R,0.282X0.205*%
%ADD14R,0.205X0.282*%
%ADD15R,1.200X1.200*%
%ADD16R,0.900X0.600*%
%ADD17R,0.600X0.900*%
%ADD18R,0.350X0.350*%
%ADD19R,0.350X0.350*%
G04:AMPARAMS|DCode=20|XSize=0.205mm|YSize=0.282mm|CornerRadius=0mm|HoleSize=0mm|Usage=FLASHONLY|Rotation=315.000|XOffset=0mm|YOffset=0mm|HoleType=Round|Shape=Rectangle|*
%AMROTATEDRECTD20*
4,1,4,-0.172,-0.027,0.027,0.172,0.172,0.027,-0.027,-0.172,-0.172,-0.027,0.0*
%
%ADD20ROTATEDRECTD20*%

%ADD21R,0.350X0.700*%
%ADD22R,0.600X0.600*%
%ADD23R,0.950X1.750*%
%ADD24R,0.600X0.500*%
%ADD25R,0.762X0.762*%
%ADD26R,0.350X0.850*%
%ADD27R,1.100X0.700*%
%ADD28O,0.700X0.250*%
%ADD29O,0.250X0.700*%
%ADD30R,4.700X4.700*%
%ADD31R,1.600X1.400*%
%ADD32R,0.300X0.700*%
%ADD33R,1.300X1.100*%
%ADD34R,2.250X1.000*%
%ADD35R,2.200X1.050*%
%ADD36R,1.050X1.000*%
%ADD37R,1.200X3.200*%
%ADD38R,3.000X3.000*%
%ADD39R,3.200X1.200*%
%ADD40C,0.300*%
%ADD41C,0.254*%
%ADD42C,0.150*%
%ADD43C,0.203*%
%ADD44C,0.175*%
%ADD45C,0.152*%
%ADD46C,0.200*%
%ADD47C,0.400*%
%ADD48C,0.195*%
%ADD49C,0.170*%
%ADD50C,0.210*%
%ADD51C,0.190*%
%ADD52C,0.350*%
%ADD53R,1.547X1.240*%
%ADD54R,0.920X0.400*%
%ADD55R,0.920X0.400*%
%ADD56R,0.900X0.400*%
%ADD57R,0.002X0.195*%
%ADD58R,0.000X0.195*%
%ADD59R,0.486X1.169*%
%ADD60R,0.729X0.544*%
%ADD61R,0.428X1.195*%
%ADD62R,0.643X0.715*%
%ADD63C,2.000*%
%ADD64O,0.900X1.200*%
%ADD65O,0.900X1.250*%
%ADD66C,1.700*%
%ADD67R,4.200X1.350*%
%ADD68R,1.700X1.700*%
%ADD69C,1.800*%
%ADD70R,1.800X1.800*%
%ADD71C,0.550*%
%ADD72C,0.350*%
%ADD73C,0.800*%
G36*
X26033Y4502D02*
Y4140D01*
X25988Y4109D01*
X25894Y3969D01*
X25861Y3803D01*
X25894Y3637D01*
X25988Y3497D01*
X26033Y3466D01*
Y1236D01*
X25911Y1199D01*
X25872Y1257D01*
X25732Y1351D01*
X25566Y1384D01*
X25400Y1351D01*
X25260Y1257D01*
X25166Y1117D01*
X25133Y951D01*
X25166Y785D01*
X25260Y645D01*
X25288Y625D01*
X25251Y504D01*
X456D01*
Y3231D01*
X578Y3268D01*
X614Y3214D01*
X754Y3120D01*
X920Y3087D01*
X1086Y3120D01*
X1226Y3214D01*
X1320Y3354D01*
X1353Y3520D01*
X1320Y3686D01*
X1226Y3826D01*
X1086Y3920D01*
X920Y3953D01*
X754Y3920D01*
X614Y3826D01*
X578Y3772D01*
X456Y3809D01*
Y5258D01*
X1913Y5260D01*
X2000Y5193D01*
X2256Y5087D01*
X2530Y5051D01*
X2804Y5087D01*
X3060Y5193D01*
X3148Y5261D01*
X4450Y5262D01*
X4540Y5193D01*
X4796Y5087D01*
X5070Y5051D01*
X5344Y5087D01*
X5600Y5193D01*
X5692Y5263D01*
X25252Y5283D01*
X26033Y4502D01*
D02*
G37*
%LPC*%
G36*
X2467Y3507D02*
X1504D01*
X1531Y3302D01*
X1635Y3053D01*
X1799Y2839D01*
X2013Y2675D01*
X2262Y2571D01*
X2467Y2544D01*
Y3507D01*
D02*
G37*
G36*
X3556D02*
X2592D01*
Y2544D01*
X2798Y2571D01*
X3047Y2675D01*
X3261Y2839D01*
X3425Y3053D01*
X3529Y3302D01*
X3556Y3507D01*
D02*
G37*
G36*
X21075Y3443D02*
X20909Y3410D01*
X20769Y3316D01*
X20675Y3176D01*
X20642Y3010D01*
X20675Y2844D01*
X20769Y2704D01*
X20909Y2610D01*
X21075Y2577D01*
X21241Y2610D01*
X21381Y2704D01*
X21475Y2844D01*
X21508Y3010D01*
X21475Y3176D01*
X21381Y3316D01*
X21241Y3410D01*
X21075Y3443D01*
D02*
G37*
G36*
X5070Y4629D02*
X4796Y4593D01*
X4540Y4487D01*
X4321Y4319D01*
X4153Y4100D01*
X4047Y3844D01*
X4011Y3570D01*
X4047Y3296D01*
X4153Y3040D01*
X4321Y2821D01*
X4540Y2653D01*
X4796Y2547D01*
X5070Y2511D01*
X5344Y2547D01*
X5600Y2653D01*
X5819Y2821D01*
X5987Y3040D01*
X6093Y3296D01*
X6129Y3570D01*
X6093Y3844D01*
X5987Y4100D01*
X5819Y4319D01*
X5600Y4487D01*
X5344Y4593D01*
X5070Y4629D01*
D02*
G37*
G36*
X16421Y1899D02*
X16255Y1866D01*
X16115Y1772D01*
X16021Y1632D01*
X15988Y1466D01*
X16021Y1300D01*
X16115Y1160D01*
X16255Y1066D01*
X16421Y1033D01*
X16587Y1066D01*
X16727Y1160D01*
X16821Y1300D01*
X16854Y1466D01*
X16821Y1632D01*
X16727Y1772D01*
X16587Y1866D01*
X16421Y1899D01*
D02*
G37*
G36*
X1920Y1953D02*
X1754Y1920D01*
X1614Y1826D01*
X1520Y1686D01*
X1487Y1520D01*
X1520Y1354D01*
X1614Y1214D01*
X1754Y1120D01*
X1920Y1087D01*
X2086Y1120D01*
X2227Y1214D01*
X2320Y1354D01*
X2353Y1520D01*
X2320Y1686D01*
X2227Y1826D01*
X2086Y1920D01*
X1920Y1953D01*
D02*
G37*
G36*
X13833Y2196D02*
X13667Y2163D01*
X13527Y2069D01*
X13433Y1929D01*
X13400Y1763D01*
X13433Y1597D01*
X13527Y1457D01*
X13667Y1363D01*
X13833Y1330D01*
X13999Y1363D01*
X14139Y1457D01*
X14233Y1597D01*
X14266Y1763D01*
X14233Y1929D01*
X14139Y2069D01*
X13999Y2163D01*
X13833Y2196D01*
D02*
G37*
G36*
X2592Y4596D02*
Y3632D01*
X3556D01*
X3529Y3838D01*
X3425Y4087D01*
X3261Y4301D01*
X3047Y4465D01*
X2798Y4569D01*
X2592Y4596D01*
D02*
G37*
G36*
X18238Y4177D02*
X18072Y4144D01*
X17932Y4050D01*
X17838Y3910D01*
X17826Y3851D01*
X17701Y3827D01*
X17639Y3919D01*
X17499Y4013D01*
X17333Y4046D01*
X17167Y4013D01*
X17027Y3919D01*
X16933Y3779D01*
X16900Y3613D01*
X16933Y3447D01*
X17027Y3307D01*
X17167Y3213D01*
X17333Y3180D01*
X17499Y3213D01*
X17639Y3307D01*
X17733Y3447D01*
X17745Y3506D01*
X17870Y3530D01*
X17932Y3438D01*
X18072Y3344D01*
X18238Y3311D01*
X18404Y3344D01*
X18544Y3438D01*
X18638Y3578D01*
X18671Y3744D01*
X18638Y3910D01*
X18544Y4050D01*
X18404Y4144D01*
X18238Y4177D01*
D02*
G37*
G36*
X15094Y5096D02*
X14928Y5063D01*
X14788Y4969D01*
X14694Y4829D01*
X14661Y4663D01*
X14694Y4497D01*
X14788Y4357D01*
X14928Y4263D01*
X15094Y4230D01*
X15260Y4263D01*
X15400Y4357D01*
X15494Y4497D01*
X15527Y4663D01*
X15494Y4829D01*
X15400Y4969D01*
X15260Y5063D01*
X15094Y5096D01*
D02*
G37*
G36*
X2467Y4596D02*
X2262Y4569D01*
X2013Y4465D01*
X1799Y4301D01*
X1635Y4087D01*
X1531Y3838D01*
X1504Y3632D01*
X2467D01*
Y4596D01*
D02*
G37*
G36*
X11718Y3992D02*
X11552Y3959D01*
X11412Y3865D01*
X11318Y3725D01*
X11285Y3559D01*
X11318Y3393D01*
X11412Y3253D01*
X11552Y3159D01*
X11718Y3126D01*
X11884Y3159D01*
X12024Y3253D01*
X12118Y3393D01*
X12151Y3559D01*
X12118Y3725D01*
X12024Y3865D01*
X11884Y3959D01*
X11718Y3992D01*
D02*
G37*
G36*
X12990Y4039D02*
X12824Y4006D01*
X12684Y3912D01*
X12590Y3772D01*
X12557Y3606D01*
X12590Y3440D01*
X12684Y3300D01*
X12824Y3206D01*
X12990Y3173D01*
X13156Y3206D01*
X13296Y3300D01*
X13390Y3440D01*
X13423Y3606D01*
X13390Y3772D01*
X13296Y3912D01*
X13156Y4006D01*
X12990Y4039D01*
D02*
G37*
G36*
X21500Y4408D02*
X21334Y4375D01*
X21194Y4281D01*
X21100Y4141D01*
X21067Y3975D01*
X21100Y3809D01*
X21194Y3669D01*
X21334Y3575D01*
X21500Y3542D01*
X21666Y3575D01*
X21806Y3669D01*
X21900Y3809D01*
X21933Y3975D01*
X21900Y4141D01*
X21806Y4281D01*
X21666Y4375D01*
X21500Y4408D01*
D02*
G37*
%LPD*%
D40*
X37375Y21945D02*
X38889Y20431D01*
X33359Y21945D02*
X37375D01*
X28414Y17000D02*
X33359Y21945D01*
X33361Y9367D02*
Y9429D01*
X31202Y24586D02*
X39238D01*
X26609Y19993D02*
X31202Y24586D01*
X27931Y2582D02*
Y4784D01*
X26609Y6106D02*
X27931Y4784D01*
X26609Y6106D02*
Y19993D01*
X39238Y24586D02*
X41174Y22650D01*
X32968Y20041D02*
X35025D01*
X29379Y16452D02*
X32968Y20041D01*
X38615Y5444D02*
Y6883D01*
X38946Y20374D02*
X40009D01*
X42425Y22790D01*
X38879Y20420D02*
X38889Y20431D01*
X38946Y20487D01*
X38889Y20431D02*
X38946Y20374D01*
X33361Y9367D02*
X34777Y7951D01*
X33719Y3763D02*
X34006D01*
X34777Y4534D01*
Y7951D01*
X33719Y3763D02*
X34324Y3158D01*
X36329D01*
X38615Y5444D01*
X33439Y3200D02*
X33719Y3480D01*
Y3763D01*
X29379Y7830D02*
Y16452D01*
Y7830D02*
X33446Y3763D01*
X33719D01*
X28414Y6573D02*
Y17000D01*
Y6573D02*
X31787Y3200D01*
X33439D01*
D41*
X30471Y2582D02*
X30831Y2942D01*
X30338Y14860D02*
X31016Y15538D01*
X30338Y8731D02*
Y14860D01*
Y8731D02*
X33719Y5350D01*
Y3763D02*
Y5350D01*
D66*
X27931Y2582D02*
D03*
X30471D02*
D03*
D69*
X2530Y3570D02*
D03*
D71*
X38946Y20374D02*
D03*
X38615Y6883D02*
D03*
X41174Y22650D02*
D03*
X42425Y22790D02*
D03*
X38865Y11602D02*
D03*
X36845D02*
D03*
X34860Y11606D02*
D03*
X34849Y13604D02*
D03*
X36862Y13605D02*
D03*
X38859Y13611D02*
D03*
X38858Y15606D02*
D03*
X36861Y15604D02*
D03*
X34869Y15605D02*
D03*
X35025Y20041D02*
D03*
X19149Y1285D02*
D03*
X6536Y1530D02*
D03*
X8918Y1520D02*
D03*
X16127Y4598D02*
D03*
X23549Y4785D02*
D03*
X33361Y9429D02*
D03*
X24623Y4848D02*
D03*
X31016Y15538D02*
D03*
X24511Y1081D02*
D03*
X38862Y11605D02*
D03*
X36862D02*
D03*
X34862D02*
D03*
Y13605D02*
D03*
Y15605D02*
D03*
X36862D02*
D03*
X38862Y13605D02*
D03*
Y15605D02*
D03*
X36862Y13605D02*
D03*
D73*
X33719Y3763D02*
D03*
M02*
