%FSLAX43Y43*%
%MOMM*%
G71*
G01*
G75*
G04 Layer_Color=32768*
%ADD10R,3.600X1.800*%
%ADD11R,0.800X0.650*%
%ADD12R,0.650X0.800*%
%ADD13R,0.282X0.205*%
%ADD14R,0.205X0.282*%
%ADD15R,1.200X1.200*%
%ADD16R,0.900X0.600*%
%ADD17R,0.600X0.900*%
%ADD18R,0.350X0.350*%
%ADD19R,0.350X0.350*%
G04:AMPARAMS|DCode=20|XSize=0.205mm|YSize=0.282mm|CornerRadius=0mm|HoleSize=0mm|Usage=FLASHONLY|Rotation=315.000|XOffset=0mm|YOffset=0mm|HoleType=Round|Shape=Rectangle|*
%AMROTATEDRECTD20*
4,1,4,-0.172,-0.027,0.027,0.172,0.172,0.027,-0.027,-0.172,-0.172,-0.027,0.0*
%
%ADD20ROTATEDRECTD20*%

%ADD21R,0.350X0.700*%
%ADD22R,0.600X0.600*%
%ADD23R,0.950X1.750*%
%ADD24R,0.600X0.500*%
%ADD25R,0.762X0.762*%
%ADD26R,0.350X0.850*%
%ADD27R,1.100X0.700*%
%ADD28O,0.700X0.250*%
%ADD29O,0.250X0.700*%
%ADD30R,4.700X4.700*%
%ADD31R,1.600X1.400*%
%ADD32R,0.300X0.700*%
%ADD33R,1.300X1.100*%
%ADD34R,2.250X1.000*%
%ADD35R,2.200X1.050*%
%ADD36R,1.050X1.000*%
%ADD37R,1.200X3.200*%
%ADD38R,3.000X3.000*%
%ADD39R,3.200X1.200*%
%ADD40C,0.300*%
%ADD41C,0.254*%
%ADD42C,0.150*%
%ADD43C,0.203*%
%ADD44C,0.175*%
%ADD45C,0.152*%
%ADD46C,0.200*%
%ADD47C,0.400*%
%ADD48C,0.195*%
%ADD49C,0.170*%
%ADD50C,0.210*%
%ADD51C,0.190*%
%ADD52C,0.350*%
%ADD53R,1.547X1.240*%
%ADD54R,0.920X0.400*%
%ADD55R,0.920X0.400*%
%ADD56R,0.900X0.400*%
%ADD57R,0.002X0.195*%
%ADD58R,0.000X0.195*%
%ADD59R,0.486X1.169*%
%ADD60R,0.729X0.544*%
%ADD61R,0.428X1.195*%
%ADD62R,0.643X0.715*%
%ADD63C,2.000*%
%ADD64O,0.900X1.200*%
%ADD65O,0.900X1.250*%
%ADD66C,1.700*%
%ADD67R,4.200X1.350*%
%ADD68R,1.700X1.700*%
%ADD69C,1.800*%
%ADD70R,1.800X1.800*%
%ADD71C,0.550*%
%ADD72C,0.350*%
%ADD73C,0.800*%
%ADD74C,0.737*%
%ADD75C,0.250*%
%ADD76C,0.100*%
%ADD77C,0.102*%
%ADD78R,0.875X0.550*%
%ADD79R,1.750X1.750*%
%ADD80R,2.100X2.100*%
G04:AMPARAMS|DCode=81|XSize=1.65mm|YSize=1.65mm|CornerRadius=0.412mm|HoleSize=0mm|Usage=FLASHONLY|Rotation=0.000|XOffset=0mm|YOffset=0mm|HoleType=Round|Shape=RoundedRectangle|*
%AMROUNDEDRECTD81*
21,1,1.650,0.825,0,0,0.0*
21,1,0.825,1.650,0,0,0.0*
1,1,0.825,0.412,-0.412*
1,1,0.825,-0.412,-0.412*
1,1,0.825,-0.412,0.412*
1,1,0.825,0.412,0.412*
%
%ADD81ROUNDEDRECTD81*%
%ADD82R,2.100X2.100*%
%ADD83R,3.850X1.150*%
%ADD84R,3.599X1.806*%
%ADD85R,3.603X1.802*%
%ADD86R,1.550X1.350*%
%ADD87R,4.700X1.400*%
%ADD88R,1.400X4.700*%
%ADD89R,1.950X0.850*%
%ADD90R,0.900X0.750*%
%ADD91R,0.750X0.900*%
%ADD92R,0.408X0.332*%
%ADD93R,0.332X0.408*%
%ADD94R,1.300X1.300*%
%ADD95R,1.000X0.700*%
%ADD96R,0.700X1.000*%
G04:AMPARAMS|DCode=97|XSize=0.332mm|YSize=0.408mm|CornerRadius=0mm|HoleSize=0mm|Usage=FLASHONLY|Rotation=315.000|XOffset=0mm|YOffset=0mm|HoleType=Round|Shape=Rectangle|*
%AMROTATEDRECTD97*
4,1,4,-0.261,-0.027,0.027,0.261,0.261,0.027,-0.027,-0.261,-0.261,-0.027,0.0*
%
%ADD97ROTATEDRECTD97*%

%ADD98R,0.450X0.800*%
%ADD99R,0.700X0.700*%
%ADD100R,1.050X1.850*%
%ADD101R,0.700X0.600*%
%ADD102R,0.862X0.862*%
%ADD103R,0.450X0.950*%
%ADD104R,1.240X0.840*%
%ADD105O,0.800X0.350*%
%ADD106O,0.350X0.800*%
%ADD107R,1.750X1.550*%
%ADD108R,0.450X0.850*%
%ADD109R,1.400X1.200*%
%ADD110R,2.350X1.100*%
%ADD111R,2.300X1.150*%
%ADD112R,1.150X1.100*%
%ADD113R,1.300X3.300*%
%ADD114R,3.100X3.100*%
%ADD115R,3.300X1.300*%
%ADD116C,2.100*%
%ADD117O,1.000X1.300*%
%ADD118O,1.000X1.350*%
%ADD119R,1.800X1.800*%
%ADD120C,1.900*%
%ADD121R,1.900X1.900*%
%ADD122C,0.900*%
%ADD123C,0.650*%
%ADD124C,0.837*%
D67*
X62802Y25383D02*
D03*
Y19733D02*
D03*
X62826Y8825D02*
D03*
Y3175D02*
D03*
D69*
X30873Y27910D02*
D03*
X40869D02*
D03*
X38272Y2335D02*
D03*
X33413Y27910D02*
D03*
X27931Y2582D02*
D03*
D116*
X8000Y7380D02*
D03*
Y22620D02*
D03*
X23673Y15096D02*
D03*
X10843Y16096D02*
D03*
X23673Y9950D02*
D03*
X10843Y10950D02*
D03*
X23673Y20192D02*
D03*
X10843Y21192D02*
D03*
D117*
X21213Y13596D02*
D03*
X19943Y15096D02*
D03*
X18673D02*
D03*
X17403Y13596D02*
D03*
X16133Y15096D02*
D03*
X13593Y13596D02*
D03*
X21213Y8450D02*
D03*
X19943Y9950D02*
D03*
X18673D02*
D03*
X17403Y8450D02*
D03*
X16133Y9950D02*
D03*
X13593Y8450D02*
D03*
X21213Y18692D02*
D03*
X19943Y20192D02*
D03*
X18673D02*
D03*
X17403Y18692D02*
D03*
X16133Y20192D02*
D03*
X13593Y18692D02*
D03*
D118*
X14863Y15096D02*
D03*
Y9950D02*
D03*
Y20192D02*
D03*
D119*
X38329Y27910D02*
D03*
X40812Y2335D02*
D03*
X30471Y2582D02*
D03*
D120*
X2530Y26430D02*
D03*
X5070Y21350D02*
D03*
X2530D02*
D03*
Y23890D02*
D03*
X5070D02*
D03*
X2530Y3570D02*
D03*
Y6110D02*
D03*
X5070D02*
D03*
X2530Y13730D02*
D03*
X5070Y11190D02*
D03*
X2530D02*
D03*
Y8650D02*
D03*
X5070Y13730D02*
D03*
Y8650D02*
D03*
Y16270D02*
D03*
X2530Y18810D02*
D03*
X5070D02*
D03*
X2530Y16270D02*
D03*
X5070Y3570D02*
D03*
D121*
Y26430D02*
D03*
D122*
X33719Y3763D02*
D03*
X10875Y25065D02*
D03*
D123*
X27481Y6749D02*
D03*
X41926Y7770D02*
D03*
X41174Y22650D02*
D03*
X41471Y19357D02*
D03*
X38865Y11602D02*
D03*
X36845D02*
D03*
X34860Y11606D02*
D03*
X34849Y13604D02*
D03*
X36862Y13605D02*
D03*
X38859Y13611D02*
D03*
X38858Y15606D02*
D03*
X36861Y15604D02*
D03*
X34869Y15605D02*
D03*
X31094Y9163D02*
D03*
X38862Y11605D02*
D03*
X36862D02*
D03*
X34862D02*
D03*
Y13605D02*
D03*
Y15605D02*
D03*
X36862D02*
D03*
X38862Y13605D02*
D03*
Y15605D02*
D03*
X36862Y13605D02*
D03*
D124*
X7290Y10296D02*
D03*
X8021Y12172D02*
D03*
X19534Y2074D02*
D03*
X19404Y3933D02*
D03*
X13190Y22526D02*
D03*
X41926Y7770D02*
D03*
X41471Y19357D02*
D03*
M02*
