%FSLAX43Y43*%
%MOMM*%
G71*
G01*
G75*
G04 Layer_Physical_Order=1*
G04 Layer_Color=2232046*
%ADD10R,3.600X1.800*%
%ADD11R,0.800X0.650*%
%ADD12R,0.650X0.800*%
%ADD13R,0.282X0.205*%
%ADD14R,0.205X0.282*%
%ADD15R,1.200X1.200*%
%ADD16R,0.900X0.600*%
%ADD17R,0.600X0.900*%
%ADD18R,0.350X0.350*%
%ADD19R,0.350X0.350*%
G04:AMPARAMS|DCode=20|XSize=0.205mm|YSize=0.282mm|CornerRadius=0mm|HoleSize=0mm|Usage=FLASHONLY|Rotation=315.000|XOffset=0mm|YOffset=0mm|HoleType=Round|Shape=Rectangle|*
%AMROTATEDRECTD20*
4,1,4,-0.172,-0.027,0.027,0.172,0.172,0.027,-0.027,-0.172,-0.172,-0.027,0.0*
%
%ADD20ROTATEDRECTD20*%

%ADD21R,0.350X0.700*%
%ADD22R,0.600X0.600*%
%ADD23R,0.950X1.750*%
%ADD24R,0.600X0.500*%
%ADD25R,0.762X0.762*%
%ADD26R,0.350X0.850*%
%ADD27R,1.100X0.700*%
%ADD28O,0.700X0.250*%
%ADD29O,0.250X0.700*%
%ADD30R,4.700X4.700*%
%ADD31R,1.600X1.400*%
%ADD32R,0.300X0.700*%
%ADD33R,1.300X1.100*%
%ADD34R,2.250X1.000*%
%ADD35R,2.200X1.050*%
%ADD36R,1.050X1.000*%
%ADD37R,1.200X3.200*%
%ADD38R,3.000X3.000*%
%ADD39R,3.200X1.200*%
%ADD40C,0.300*%
%ADD41C,0.254*%
%ADD42C,0.150*%
%ADD43C,0.203*%
%ADD44C,0.175*%
%ADD45C,0.152*%
%ADD46C,0.200*%
%ADD47C,0.400*%
%ADD48C,0.195*%
%ADD49C,0.170*%
%ADD50C,0.210*%
%ADD51C,0.190*%
%ADD52C,0.350*%
%ADD53R,1.547X1.240*%
%ADD54R,0.920X0.400*%
%ADD55R,0.920X0.400*%
%ADD56R,0.900X0.400*%
%ADD57R,0.002X0.195*%
%ADD58R,0.000X0.195*%
%ADD59R,0.486X1.169*%
%ADD60R,0.729X0.544*%
%ADD61R,0.428X1.195*%
%ADD62R,0.643X0.715*%
%ADD63C,2.000*%
%ADD64O,0.900X1.200*%
%ADD65O,0.900X1.250*%
%ADD66C,1.700*%
%ADD67R,4.200X1.350*%
%ADD68R,1.700X1.700*%
%ADD69C,1.800*%
%ADD70R,1.800X1.800*%
%ADD71C,0.550*%
%ADD72C,0.350*%
%ADD73C,0.800*%
G36*
X60727Y6104D02*
X60592D01*
X60725Y6237D01*
X60727D01*
Y6104D01*
D02*
G37*
G36*
X41207Y11712D02*
X41258Y11678D01*
X41292Y11655D01*
X41392Y11635D01*
X41466D01*
Y11554D01*
X41701D01*
Y11314D01*
X42074D01*
Y11296D01*
X42727D01*
Y10619D01*
X43877D01*
Y10846D01*
X44953D01*
Y11913D01*
X45091Y11970D01*
X45281Y11780D01*
X45617Y11444D01*
X45617D01*
X45653D01*
X48594Y8503D01*
X48537Y8364D01*
X47355D01*
Y6801D01*
X48918D01*
Y7983D01*
X49057Y8040D01*
X51460Y5637D01*
X51627Y5525D01*
X51824Y5486D01*
X54925D01*
Y5301D01*
X55457D01*
Y5458D01*
X55597D01*
Y5458D01*
X57077D01*
Y5485D01*
X57291D01*
Y5300D01*
X57823D01*
Y5485D01*
X58175D01*
Y5300D01*
X58707D01*
Y5485D01*
X60326D01*
Y4700D01*
X64496D01*
Y3975D01*
X60601D01*
Y2375D01*
X62764D01*
Y3175D01*
X62889D01*
Y2375D01*
X64496D01*
Y504D01*
X24553D01*
X24539Y653D01*
X24677Y681D01*
X24817Y775D01*
X24911Y915D01*
X24944Y1081D01*
X24943Y1088D01*
X25038Y1204D01*
X25068D01*
Y1239D01*
X25496D01*
Y1664D01*
X25621D01*
Y1239D01*
X26133D01*
Y2089D01*
X26306D01*
Y2569D01*
X26924D01*
X26957Y2321D01*
X27058Y2078D01*
X27218Y1869D01*
X27427Y1709D01*
X27670Y1608D01*
X27931Y1573D01*
X28192Y1608D01*
X28435Y1709D01*
X28644Y1869D01*
X28804Y2078D01*
X28905Y2321D01*
X28940Y2582D01*
X28905Y2843D01*
X28804Y3086D01*
X28644Y3295D01*
X28544Y3372D01*
X28592Y3514D01*
X29471D01*
Y1582D01*
X31471D01*
Y1721D01*
X32219D01*
Y1053D01*
X33489D01*
Y1215D01*
X35204D01*
Y1088D01*
X35742D01*
Y2088D01*
Y3088D01*
X35204D01*
Y3053D01*
X35183Y3040D01*
X33711D01*
X33695Y3079D01*
X33766Y3211D01*
X33934Y3245D01*
X34116Y3366D01*
X34237Y3548D01*
X34280Y3763D01*
X34237Y3978D01*
X34116Y4160D01*
X33934Y4281D01*
X33719Y4324D01*
X33504Y4281D01*
X33322Y4160D01*
X33201Y3978D01*
X33158Y3763D01*
X33165Y3728D01*
X32594Y3158D01*
X32571Y3123D01*
X32219D01*
Y2455D01*
X31471D01*
Y3514D01*
X32104D01*
X32196Y3533D01*
X32273Y3585D01*
X33425Y4737D01*
X33477Y4814D01*
X33496Y4906D01*
X33496Y4906D01*
Y6084D01*
X33620Y6167D01*
X33668Y6147D01*
Y5951D01*
X37118D01*
Y6614D01*
X36411D01*
X36354Y6753D01*
X37781Y8180D01*
X37833Y8257D01*
X37851Y8349D01*
X37851Y8349D01*
X37851Y8349D01*
Y8349D01*
Y9619D01*
X37984Y9690D01*
X38004Y9676D01*
X38025Y9697D01*
X38049Y9684D01*
Y10130D01*
X38174D01*
Y9662D01*
X38203Y9668D01*
X38218Y9655D01*
X38319Y9505D01*
Y8058D01*
X37947D01*
Y7138D01*
X38114D01*
X38209Y7022D01*
X38182Y6883D01*
X38215Y6717D01*
X38309Y6577D01*
X38449Y6483D01*
X38615Y6450D01*
X38781Y6483D01*
X38921Y6577D01*
X39015Y6717D01*
X39048Y6883D01*
X39021Y7022D01*
X39116Y7138D01*
X39167D01*
Y7173D01*
X39595D01*
Y7598D01*
X39720D01*
Y7173D01*
X40232D01*
Y7578D01*
X40371Y7635D01*
X40424Y7581D01*
X40424D01*
X40424Y7581D01*
X40424Y7581D01*
Y7581D01*
X40511Y7524D01*
X40613Y7503D01*
X41740D01*
X41799Y7464D01*
X41926Y7439D01*
X42053Y7464D01*
X42160Y7536D01*
X42232Y7643D01*
X42257Y7770D01*
X42232Y7897D01*
X42160Y8004D01*
X42059Y8072D01*
Y8396D01*
X41738D01*
X41596Y8253D01*
X41577Y8234D01*
X41065D01*
X41036Y8263D01*
Y8883D01*
X40994D01*
Y8918D01*
X39774D01*
Y8801D01*
X39635Y8744D01*
X39378Y9001D01*
Y9601D01*
X39511Y9672D01*
X39514Y9669D01*
X39549Y9662D01*
Y10130D01*
X39612D01*
Y10192D01*
X39867D01*
Y10355D01*
X39856Y10406D01*
X39952Y10522D01*
X40102D01*
Y10556D01*
X40112Y10564D01*
X40562D01*
X40585Y10569D01*
X43132Y8022D01*
Y6564D01*
X43132D01*
X43118D01*
X43026Y6564D01*
X43026Y6564D01*
Y6564D01*
X41456D01*
Y5839D01*
Y5114D01*
X43026D01*
X43026Y5114D01*
Y5114D01*
X43118Y5114D01*
X43132Y5100D01*
Y4891D01*
X42460Y4219D01*
X39916D01*
X39824Y4200D01*
X39747Y4148D01*
X38793Y3195D01*
X38776Y3208D01*
X38533Y3309D01*
X38272Y3344D01*
X38011Y3309D01*
X37768Y3208D01*
X37559Y3048D01*
X37399Y2839D01*
X37298Y2596D01*
X37263Y2335D01*
X37298Y2074D01*
X37399Y1831D01*
X37559Y1622D01*
X37768Y1462D01*
X38011Y1361D01*
X38272Y1326D01*
X38533Y1361D01*
X38776Y1462D01*
X38985Y1622D01*
X39146Y1831D01*
X39246Y2074D01*
X39281Y2335D01*
X39246Y2596D01*
X39146Y2839D01*
X39132Y2856D01*
X40015Y3739D01*
X42559D01*
X42651Y3758D01*
X42728Y3810D01*
X43306Y4387D01*
X43444Y4330D01*
Y3976D01*
X42043Y2575D01*
X41812D01*
Y3335D01*
X39812D01*
Y1335D01*
X41812D01*
Y2095D01*
X42142D01*
X42234Y2114D01*
X42311Y2166D01*
X43853Y3708D01*
X43905Y3785D01*
X43924Y3877D01*
X43924Y3877D01*
Y8257D01*
X43905Y8349D01*
X43853Y8426D01*
X40834Y11446D01*
X40830Y11466D01*
X40767Y11560D01*
X40744Y11575D01*
X40742Y11675D01*
X40742Y11675D01*
X40742D01*
D01*
D01*
D01*
X40797Y11757D01*
X40804Y11792D01*
X40337D01*
Y11917D01*
X40819D01*
X40938Y11981D01*
X41207Y11712D01*
D02*
G37*
G36*
X32996Y12919D02*
Y12755D01*
X32876Y12635D01*
X31736D01*
Y13095D01*
X32820D01*
X32996Y12919D01*
D02*
G37*
G36*
X23133Y29358D02*
X22775Y29000D01*
X22207D01*
Y28337D01*
X21814Y27943D01*
X21675Y28001D01*
Y28235D01*
X20487D01*
Y27672D01*
X21346D01*
X21404Y27533D01*
X21142Y27272D01*
X21083Y27260D01*
X20943Y27166D01*
X20906Y27112D01*
X14877D01*
X14780Y27093D01*
X14699Y27038D01*
X12096Y24436D01*
X9728D01*
X8847Y25316D01*
X8905Y25455D01*
X9160D01*
Y25505D01*
X9290D01*
Y25505D01*
X10210D01*
Y25863D01*
X10390D01*
Y25505D01*
X10479D01*
X10569Y25371D01*
X10475Y25231D01*
X10442Y25065D01*
X10475Y24899D01*
X10569Y24759D01*
X10709Y24665D01*
X10875Y24632D01*
X11041Y24665D01*
X11181Y24759D01*
X11275Y24899D01*
X11308Y25065D01*
X11275Y25231D01*
X11181Y25371D01*
X11271Y25505D01*
X11360D01*
Y26625D01*
X11325D01*
Y26740D01*
X11325D01*
Y27202D01*
X10425D01*
Y26740D01*
X10425D01*
Y26660D01*
X10390Y26625D01*
X10390D01*
Y26367D01*
X10210D01*
Y26725D01*
X10175D01*
Y27153D01*
X9325D01*
Y26725D01*
X9290D01*
Y26475D01*
X9160D01*
Y26475D01*
X9025Y26475D01*
Y26590D01*
X9025D01*
Y27353D01*
X7175D01*
Y26590D01*
X7175D01*
Y26581D01*
X7069Y26475D01*
X7040D01*
Y26206D01*
X6120D01*
Y27480D01*
X4020D01*
Y25459D01*
X3182D01*
X3134Y25601D01*
X3261Y25699D01*
X3425Y25913D01*
X3529Y26162D01*
X3556Y26368D01*
X1504D01*
X1531Y26162D01*
X1635Y25913D01*
X1799Y25699D01*
X1945Y25587D01*
X1911Y25441D01*
X1907Y25440D01*
X1826Y25385D01*
X788Y24347D01*
X733Y24266D01*
X714Y24169D01*
Y18399D01*
X733Y18302D01*
X788Y18221D01*
X1625Y17384D01*
X1706Y17329D01*
X1803Y17310D01*
X1927D01*
X1975Y17168D01*
X1781Y17019D01*
X1613Y16800D01*
X1507Y16544D01*
X1471Y16270D01*
X1507Y15996D01*
X1613Y15740D01*
X1781Y15521D01*
X2000Y15353D01*
X2256Y15247D01*
X2530Y15211D01*
X2804Y15247D01*
X3060Y15353D01*
X3279Y15521D01*
X3447Y15740D01*
X3553Y15996D01*
X3589Y16270D01*
X3553Y16544D01*
X3447Y16800D01*
X3279Y17019D01*
X3085Y17168D01*
X3133Y17310D01*
X3822D01*
X3919Y17329D01*
X4000Y17384D01*
X4000Y17384D01*
X4000Y17384D01*
X4523Y17906D01*
X4540Y17893D01*
X4796Y17787D01*
X5070Y17751D01*
X5344Y17787D01*
X5600Y17893D01*
X5819Y18061D01*
X5987Y18280D01*
X6093Y18536D01*
X6129Y18810D01*
X6093Y19084D01*
X5987Y19340D01*
X5819Y19559D01*
X5637Y19699D01*
X5685Y19841D01*
X6093D01*
X7201Y18733D01*
Y13540D01*
X7121Y13486D01*
X7027Y13346D01*
X6994Y13180D01*
X7027Y13014D01*
X7121Y12874D01*
X7261Y12780D01*
X7427Y12747D01*
X7593Y12780D01*
X7658Y12823D01*
X7791Y12753D01*
Y12529D01*
X7715Y12478D01*
X7621Y12338D01*
X7588Y12172D01*
X7621Y12006D01*
X7715Y11866D01*
X7855Y11772D01*
X8021Y11739D01*
X8187Y11772D01*
X8327Y11866D01*
X8421Y12006D01*
X8454Y12172D01*
X8421Y12338D01*
X8327Y12478D01*
X8295Y12500D01*
Y19650D01*
X8276Y19747D01*
X8221Y19828D01*
X6521Y21528D01*
X6440Y21583D01*
X6343Y21602D01*
X6096D01*
X6093Y21624D01*
X5987Y21880D01*
X5819Y22099D01*
X5600Y22267D01*
X5344Y22373D01*
X5070Y22409D01*
X4796Y22373D01*
X4540Y22267D01*
X4321Y22099D01*
X4153Y21880D01*
X4047Y21624D01*
X4011Y21350D01*
X4047Y21076D01*
X4153Y20820D01*
X4321Y20601D01*
X4469Y20487D01*
X4421Y20345D01*
X3892D01*
X3434Y20803D01*
X3447Y20820D01*
X3553Y21076D01*
X3589Y21350D01*
X3553Y21624D01*
X3447Y21880D01*
X3279Y22099D01*
X3060Y22267D01*
X2804Y22373D01*
X2530Y22409D01*
X2256Y22373D01*
X2000Y22267D01*
X1781Y22099D01*
X1613Y21880D01*
X1507Y21624D01*
X1471Y21350D01*
X1507Y21076D01*
X1613Y20820D01*
X1781Y20601D01*
X2000Y20433D01*
X2256Y20327D01*
X2530Y20291D01*
X2804Y20327D01*
X3060Y20433D01*
X3077Y20446D01*
X3609Y19915D01*
X3690Y19860D01*
X3787Y19841D01*
X4455D01*
X4503Y19699D01*
X4321Y19559D01*
X4153Y19340D01*
X4047Y19084D01*
X4011Y18810D01*
X4047Y18536D01*
X4153Y18280D01*
X4166Y18263D01*
X3717Y17814D01*
X3191D01*
X3142Y17956D01*
X3279Y18061D01*
X3447Y18280D01*
X3553Y18536D01*
X3589Y18810D01*
X3553Y19084D01*
X3447Y19340D01*
X3279Y19559D01*
X3060Y19727D01*
X2804Y19833D01*
X2530Y19869D01*
X2256Y19833D01*
X2000Y19727D01*
X1781Y19559D01*
X1613Y19340D01*
X1507Y19084D01*
X1471Y18810D01*
X1507Y18536D01*
X1587Y18343D01*
X1462Y18260D01*
X1218Y18504D01*
Y24064D01*
X1371Y24217D01*
X1505Y24150D01*
X1471Y23890D01*
X1507Y23616D01*
X1613Y23360D01*
X1781Y23141D01*
X2000Y22973D01*
X2256Y22867D01*
X2530Y22831D01*
X2804Y22867D01*
X3060Y22973D01*
X3279Y23141D01*
X3447Y23360D01*
X3553Y23616D01*
X3589Y23890D01*
X3553Y24164D01*
X3447Y24420D01*
X3279Y24639D01*
X3060Y24807D01*
X3059Y24808D01*
X3088Y24955D01*
X4512D01*
X4541Y24808D01*
X4540Y24807D01*
X4321Y24639D01*
X4153Y24420D01*
X4047Y24164D01*
X4011Y23890D01*
X4047Y23616D01*
X4153Y23360D01*
X4321Y23141D01*
X4540Y22973D01*
X4796Y22867D01*
X5070Y22831D01*
X5344Y22867D01*
X5600Y22973D01*
X5819Y23141D01*
X5987Y23360D01*
X6093Y23616D01*
X6129Y23890D01*
X6093Y24164D01*
X5987Y24420D01*
X5819Y24639D01*
X5600Y24807D01*
X5599Y24808D01*
X5628Y24955D01*
X8495D01*
X9445Y24006D01*
X9445D01*
X9445Y24006D01*
X9445D01*
X9445Y24006D01*
Y24006D01*
X9445Y24006D01*
Y24006D01*
X9526Y23951D01*
X9623Y23932D01*
X12201D01*
X12298Y23951D01*
X12379Y24006D01*
X14982Y26608D01*
X20906D01*
X20943Y26554D01*
X20997Y26517D01*
Y26123D01*
X21016Y26026D01*
X21071Y25945D01*
X21638Y25378D01*
X21638D01*
X21638Y25378D01*
X21638D01*
X21638Y25378D01*
Y25378D01*
X21638Y25378D01*
Y25378D01*
X21719Y25323D01*
X21816Y25304D01*
X22148D01*
Y24996D01*
X22148Y24996D01*
X22148Y24916D01*
X22148D01*
Y24549D01*
X21710D01*
Y24957D01*
X19140D01*
Y24549D01*
X16210D01*
Y24957D01*
X13640D01*
Y24547D01*
X13554Y24530D01*
X13473Y24475D01*
X13012Y24014D01*
X12957Y23933D01*
X12938Y23836D01*
Y22869D01*
X12884Y22832D01*
X12790Y22692D01*
X12757Y22526D01*
X12790Y22360D01*
X12884Y22220D01*
X13024Y22126D01*
X13190Y22093D01*
X13356Y22126D01*
X13496Y22220D01*
X13590Y22360D01*
X13623Y22526D01*
X13590Y22692D01*
X13496Y22832D01*
X13442Y22869D01*
Y23680D01*
X13567Y23763D01*
X13640Y23733D01*
Y23637D01*
X16002D01*
X16059Y23498D01*
X14962Y22401D01*
X14855Y22241D01*
X14817Y22052D01*
Y21218D01*
X14641Y21195D01*
X14434Y21109D01*
X14257Y20973D01*
X14121Y20796D01*
X14035Y20589D01*
X14006Y20367D01*
Y20017D01*
X14035Y19795D01*
X14121Y19588D01*
X14257Y19411D01*
X14434Y19275D01*
X14641Y19189D01*
X14863Y19160D01*
X15085Y19189D01*
X15292Y19275D01*
X15469Y19411D01*
X15469Y19411D01*
Y19411D01*
X15527Y19436D01*
Y19436D01*
X15527Y19436D01*
X15704Y19300D01*
X15911Y19214D01*
X16133Y19185D01*
X16355Y19214D01*
X16562Y19300D01*
X16739Y19436D01*
X16875Y19613D01*
X16961Y19820D01*
X16990Y20042D01*
Y20342D01*
X16961Y20564D01*
X16875Y20771D01*
X16739Y20948D01*
X16562Y21084D01*
X16355Y21170D01*
X16179Y21193D01*
Y21692D01*
X16831Y22344D01*
X19229D01*
X19287Y22206D01*
X18772Y21691D01*
X18665Y21531D01*
X18627Y21341D01*
Y21193D01*
X18451Y21170D01*
X18244Y21084D01*
X18067Y20948D01*
X17931Y20771D01*
X17845Y20564D01*
X17816Y20342D01*
Y20042D01*
X17845Y19820D01*
X17931Y19613D01*
X18067Y19436D01*
X18244Y19300D01*
X18451Y19214D01*
X18673Y19185D01*
X18895Y19214D01*
X19102Y19300D01*
X19279Y19436D01*
X19337D01*
X19514Y19300D01*
X19721Y19214D01*
X19943Y19185D01*
X20165Y19214D01*
X20372Y19300D01*
X20549Y19436D01*
X20685Y19613D01*
X20771Y19820D01*
X20800Y20042D01*
Y20342D01*
X20771Y20564D01*
X20685Y20771D01*
X20549Y20948D01*
X20415Y21051D01*
X20463Y21194D01*
X22897D01*
X22945Y21051D01*
X22871Y20994D01*
X22690Y20759D01*
X22577Y20486D01*
X22547Y20254D01*
X24799D01*
X24769Y20486D01*
X24656Y20759D01*
X24475Y20994D01*
X24401Y21051D01*
X24449Y21194D01*
X25041D01*
X25805Y20429D01*
X25805D01*
X25805Y20429D01*
X25805Y20429D01*
Y20429D01*
X25965Y20322D01*
X26154Y20285D01*
X27868D01*
Y18701D01*
X29318D01*
Y19703D01*
X29457Y19761D01*
X29577Y19640D01*
Y17394D01*
X29615Y17205D01*
X29722Y17044D01*
X29722Y17044D01*
X29722Y17044D01*
X29881Y16885D01*
X29881Y16885D01*
X29881Y16885D01*
X29881Y16885D01*
X30753Y16013D01*
X30739Y15864D01*
X30710Y15844D01*
X30616Y15704D01*
X30583Y15538D01*
X30616Y15372D01*
X30669Y15292D01*
X30598Y15160D01*
X30424D01*
X30357Y15093D01*
Y14993D01*
X30218Y14935D01*
X29408Y15746D01*
X29248Y15853D01*
X29059Y15891D01*
X27298D01*
X25664Y17525D01*
X25503Y17632D01*
X25314Y17670D01*
X19969D01*
X19780Y17632D01*
X19619Y17525D01*
X18772Y16677D01*
X18665Y16517D01*
X18627Y16327D01*
Y16097D01*
X18451Y16074D01*
X18244Y15988D01*
X18067Y15852D01*
X17931Y15675D01*
X17845Y15468D01*
X17816Y15246D01*
Y14946D01*
X17845Y14724D01*
X17931Y14517D01*
X18067Y14340D01*
X18244Y14204D01*
X18451Y14118D01*
X18673Y14089D01*
X18895Y14118D01*
X19102Y14204D01*
X19279Y14340D01*
X19337D01*
X19514Y14204D01*
X19721Y14118D01*
X19943Y14089D01*
X20165Y14118D01*
X20372Y14204D01*
X20549Y14340D01*
X20685Y14517D01*
X20771Y14724D01*
X20800Y14946D01*
Y15246D01*
X20771Y15468D01*
X20685Y15675D01*
X20549Y15852D01*
X20372Y15988D01*
X20240Y16043D01*
X20211Y16190D01*
X20328Y16308D01*
X23274D01*
X23303Y16160D01*
X23106Y16079D01*
X22871Y15898D01*
X22690Y15663D01*
X22577Y15390D01*
X22547Y15158D01*
X24799D01*
X24769Y15390D01*
X24656Y15663D01*
X24475Y15898D01*
X24240Y16079D01*
X24043Y16160D01*
X24072Y16308D01*
X24955D01*
X26589Y14673D01*
X26589D01*
X26589Y14673D01*
X26589D01*
X26589Y14673D01*
Y14673D01*
X26589Y14673D01*
Y14673D01*
X26749Y14566D01*
X26938Y14528D01*
X28601D01*
X28684Y14404D01*
X28668Y14364D01*
X28656D01*
Y12701D01*
X29318D01*
Y13714D01*
X29457Y13771D01*
X30159Y13069D01*
X30319Y12961D01*
X30509Y12924D01*
X31471D01*
X31486Y12775D01*
X31312Y12740D01*
X31151Y12633D01*
X29777Y11259D01*
X29318D01*
Y12576D01*
X27868D01*
Y11328D01*
X27729Y11270D01*
X26082Y12918D01*
X25922Y13025D01*
X25733Y13062D01*
X21807D01*
X21737Y13195D01*
X21755Y13222D01*
X21799Y13446D01*
Y13533D01*
X20627D01*
Y13446D01*
X20671Y13222D01*
X20689Y13195D01*
X20619Y13062D01*
X17997D01*
X17927Y13195D01*
X17945Y13222D01*
X17989Y13446D01*
Y13533D01*
X16817D01*
Y13446D01*
X16861Y13222D01*
X16879Y13195D01*
X16809Y13062D01*
X16505D01*
X16316Y13025D01*
X16155Y12918D01*
X14962Y11724D01*
X14855Y11564D01*
X14817Y11375D01*
Y10976D01*
X14641Y10953D01*
X14434Y10867D01*
X14257Y10731D01*
X14121Y10554D01*
X14035Y10347D01*
X14006Y10125D01*
Y9775D01*
X14035Y9553D01*
X14121Y9346D01*
X14257Y9169D01*
X14434Y9033D01*
X14641Y8947D01*
X14863Y8918D01*
X15085Y8947D01*
X15292Y9033D01*
X15469Y9169D01*
X15469Y9169D01*
Y9169D01*
X15527Y9194D01*
Y9194D01*
X15527Y9194D01*
X15704Y9058D01*
X15911Y8972D01*
X16133Y8943D01*
X16355Y8972D01*
X16562Y9058D01*
X16739Y9194D01*
X16875Y9371D01*
X16961Y9578D01*
X16990Y9800D01*
Y10100D01*
X16961Y10322D01*
X16875Y10529D01*
X16739Y10706D01*
X16562Y10842D01*
X16355Y10928D01*
X16291Y10937D01*
X16242Y11079D01*
X16864Y11700D01*
X18849D01*
X18907Y11562D01*
X18772Y11427D01*
X18772Y11427D01*
X18665Y11267D01*
X18627Y11078D01*
Y10951D01*
X18451Y10928D01*
X18244Y10842D01*
X18067Y10706D01*
X17931Y10529D01*
X17845Y10322D01*
X17816Y10100D01*
Y9800D01*
X17845Y9578D01*
X17931Y9371D01*
X18067Y9194D01*
X18244Y9058D01*
X18451Y8972D01*
X18673Y8943D01*
X18895Y8972D01*
X19102Y9058D01*
X19279Y9194D01*
X19337D01*
X19514Y9058D01*
X19721Y8972D01*
X19943Y8943D01*
X20165Y8972D01*
X20372Y9058D01*
X20549Y9194D01*
X20685Y9371D01*
X20771Y9578D01*
X20800Y9800D01*
Y10100D01*
X20771Y10322D01*
X20685Y10529D01*
X20549Y10706D01*
X20523Y10726D01*
X20571Y10868D01*
X22790D01*
X22857Y10734D01*
X22690Y10517D01*
X22577Y10244D01*
X22547Y10012D01*
X24799D01*
X24769Y10244D01*
X24656Y10517D01*
X24489Y10734D01*
X24556Y10868D01*
X24864D01*
X26438Y9294D01*
X26438Y9294D01*
X26438D01*
X26438Y9294D01*
X26438D01*
X26438Y9294D01*
Y9294D01*
Y9294D01*
D01*
D01*
X26438D01*
Y9294D01*
X26599Y9187D01*
X26788Y9149D01*
X30621D01*
X30670Y9116D01*
X30694Y8997D01*
X30788Y8857D01*
X30928Y8763D01*
X31094Y8730D01*
X31260Y8763D01*
X31289Y8782D01*
X31421Y8711D01*
Y8604D01*
X32271D01*
Y9032D01*
X32306D01*
Y9638D01*
X32505Y9837D01*
X32963D01*
X33034Y9705D01*
X32961Y9595D01*
X32928Y9429D01*
X32961Y9263D01*
X32999Y9206D01*
X32928Y9074D01*
X32479D01*
Y8712D01*
X33054D01*
Y8587D01*
X32479D01*
Y8224D01*
X32544D01*
X32771Y8451D01*
X32783D01*
X33010Y8224D01*
X33020D01*
X33028Y8206D01*
X33050Y8184D01*
X33041Y8175D01*
X33078Y8085D01*
X31917Y6924D01*
X31865Y6847D01*
X31846Y6755D01*
Y5641D01*
X31377Y5172D01*
X31118D01*
Y6676D01*
X27868D01*
Y5382D01*
X27729Y5324D01*
X26027Y7026D01*
X26019Y7032D01*
X26019Y7090D01*
X26091Y7197D01*
X26116Y7324D01*
X26091Y7451D01*
X26019Y7558D01*
X25912Y7630D01*
X25785Y7655D01*
X25658Y7630D01*
X25559Y7564D01*
X12294D01*
X9346Y10511D01*
X9269Y10563D01*
X9177Y10582D01*
X7569D01*
X6812Y11339D01*
Y14768D01*
X6812Y14768D01*
X6793Y14860D01*
X6741Y14937D01*
X5966Y15713D01*
X5987Y15740D01*
X6093Y15996D01*
X6129Y16270D01*
X6093Y16544D01*
X5987Y16800D01*
X5819Y17019D01*
X5600Y17187D01*
X5344Y17293D01*
X5070Y17329D01*
X4796Y17293D01*
X4540Y17187D01*
X4321Y17019D01*
X4153Y16800D01*
X4047Y16544D01*
X4011Y16270D01*
X4047Y15996D01*
X4153Y15740D01*
X4321Y15521D01*
X4540Y15353D01*
X4796Y15247D01*
X5070Y15211D01*
X5344Y15247D01*
X5600Y15353D01*
X5627Y15374D01*
X6332Y14669D01*
Y11240D01*
X6332Y11240D01*
X6332D01*
X6351Y11148D01*
X6403Y11071D01*
X7167Y10306D01*
X7110Y10168D01*
X5696D01*
X5648Y10310D01*
X5819Y10441D01*
X5987Y10660D01*
X6093Y10916D01*
X6129Y11190D01*
X6093Y11464D01*
X5987Y11720D01*
X5819Y11939D01*
X5600Y12107D01*
X5344Y12213D01*
X5070Y12249D01*
X4796Y12213D01*
X4540Y12107D01*
X4321Y11939D01*
X4153Y11720D01*
X4047Y11464D01*
X4011Y11190D01*
X4047Y10916D01*
X4153Y10660D01*
X4321Y10441D01*
X4492Y10310D01*
X4444Y10168D01*
X3156D01*
X3108Y10310D01*
X3279Y10441D01*
X3447Y10660D01*
X3553Y10916D01*
X3589Y11190D01*
X3553Y11464D01*
X3447Y11720D01*
X3279Y11939D01*
X3060Y12107D01*
X2804Y12213D01*
X2530Y12249D01*
X2256Y12213D01*
X2000Y12107D01*
X1781Y11939D01*
X1613Y11720D01*
X1507Y11464D01*
X1471Y11190D01*
X1507Y10916D01*
X1613Y10660D01*
X1781Y10441D01*
X1952Y10310D01*
X1904Y10168D01*
X1709D01*
X1617Y10149D01*
X1540Y10097D01*
X1027Y9584D01*
X975Y9507D01*
X956Y9415D01*
Y6355D01*
X956Y6355D01*
X956D01*
X975Y6263D01*
X1027Y6186D01*
X1272Y5941D01*
X1349Y5889D01*
X1441Y5870D01*
X1502D01*
X1507Y5836D01*
X1613Y5580D01*
X1781Y5361D01*
X2000Y5193D01*
X2256Y5087D01*
X2530Y5051D01*
X2804Y5087D01*
X3060Y5193D01*
X3279Y5361D01*
X3447Y5580D01*
X3553Y5836D01*
X3589Y6110D01*
X3553Y6384D01*
X3447Y6640D01*
X3279Y6859D01*
X3060Y7027D01*
X2804Y7133D01*
X2530Y7169D01*
X2256Y7133D01*
X2000Y7027D01*
X1781Y6859D01*
X1613Y6640D01*
X1607Y6626D01*
X1574Y6593D01*
X1436Y6650D01*
Y8164D01*
X1583Y8193D01*
X1613Y8120D01*
X1781Y7901D01*
X2000Y7733D01*
X2256Y7627D01*
X2530Y7591D01*
X2804Y7627D01*
X3060Y7733D01*
X3087Y7754D01*
X3627Y7215D01*
X3704Y7163D01*
X3796Y7144D01*
X4460D01*
X4508Y7002D01*
X4321Y6859D01*
X4153Y6640D01*
X4047Y6384D01*
X4011Y6110D01*
X4047Y5836D01*
X4153Y5580D01*
X4321Y5361D01*
X4540Y5193D01*
X4796Y5087D01*
X5070Y5051D01*
X5344Y5087D01*
X5600Y5193D01*
X5640Y5224D01*
X5649Y5218D01*
X5741Y5199D01*
X23156D01*
X23226Y5067D01*
X23149Y4951D01*
X23116Y4785D01*
X23149Y4619D01*
X23167Y4592D01*
X23096Y4460D01*
X22712D01*
Y4048D01*
X23324D01*
Y4073D01*
X23463Y4130D01*
X23737Y3855D01*
X23840Y3787D01*
X23893Y3776D01*
Y3619D01*
X24036D01*
Y3426D01*
X23811D01*
Y2401D01*
X23359D01*
Y2595D01*
X21939D01*
Y1575D01*
X23359D01*
Y1769D01*
X23754D01*
X23848Y1675D01*
Y1204D01*
X23984D01*
X24079Y1088D01*
X24078Y1081D01*
X24111Y915D01*
X24205Y775D01*
X24345Y681D01*
X24483Y653D01*
X24469Y504D01*
X456D01*
Y13523D01*
X456Y13523D01*
X441Y13601D01*
X396Y13667D01*
X396Y13667D01*
X394Y13669D01*
X328Y13713D01*
X250Y13729D01*
X-6021D01*
Y16271D01*
X250D01*
X328Y16287D01*
X394Y16331D01*
Y16331D01*
X394D01*
X438Y16397D01*
X454Y16475D01*
Y29496D01*
X7540D01*
Y29375D01*
X7540D01*
X7540Y29340D01*
X7412D01*
Y28865D01*
Y28390D01*
X7540D01*
X7540Y28355D01*
X7540D01*
Y28346D01*
X7434Y28240D01*
X7175D01*
Y27478D01*
X9025D01*
Y28240D01*
X9025D01*
Y28249D01*
X9131Y28355D01*
X9160D01*
Y29375D01*
X9160D01*
Y29390D01*
X9266Y29496D01*
X23075D01*
X23133Y29358D01*
D02*
G37*
G36*
X30424Y28807D02*
X30369Y28784D01*
X30160Y28623D01*
X30000Y28414D01*
X29899Y28171D01*
X29898Y28162D01*
X27935D01*
X27838Y28143D01*
X27757Y28088D01*
X26801Y27133D01*
X25813D01*
Y25813D01*
X27183D01*
Y26801D01*
X28040Y27658D01*
X29898D01*
X29899Y27649D01*
X30000Y27406D01*
X30160Y27197D01*
X30369Y27037D01*
X30612Y26936D01*
X30873Y26901D01*
X31134Y26936D01*
X31377Y27037D01*
X31384Y27042D01*
X31693Y26733D01*
Y22598D01*
X31712Y22502D01*
X31767Y22420D01*
X31767Y22420D01*
X31767Y22420D01*
X32306Y21882D01*
X32305Y21861D01*
X32305Y21860D01*
X32305Y21860D01*
Y21072D01*
X32495D01*
Y20163D01*
X32495Y20163D01*
X32495D01*
X32495Y20137D01*
Y20097D01*
Y20057D01*
X32495Y20031D01*
X32495Y20031D01*
X32495D01*
Y18937D01*
X33274D01*
X34475Y17736D01*
X34511Y17554D01*
X34510Y17537D01*
X34431Y17485D01*
X34376Y17402D01*
D01*
X34292Y17485D01*
X34292Y17485D01*
Y17485D01*
X34209Y17540D01*
X34174Y17547D01*
Y17080D01*
X34112D01*
Y17017D01*
X33857D01*
Y16960D01*
X33741Y16864D01*
X33612Y16890D01*
X33162D01*
X33052Y16868D01*
X32252Y17668D01*
Y20482D01*
X32215Y20671D01*
X32108Y20831D01*
X30317Y22622D01*
X30157Y22729D01*
X29976Y22765D01*
X29991Y22914D01*
X31118D01*
Y24476D01*
X27868D01*
Y22934D01*
X27729Y22876D01*
X27044Y23562D01*
X26884Y23669D01*
X26694Y23706D01*
X23118D01*
Y23796D01*
X23118D01*
Y24916D01*
D01*
Y24916D01*
X23118Y24916D01*
Y24996D01*
X23118D01*
Y26116D01*
X22148D01*
Y25808D01*
X21921D01*
X21501Y26228D01*
Y26517D01*
X21555Y26554D01*
X21649Y26694D01*
X21682Y26860D01*
X21649Y27026D01*
X21633Y27050D01*
X22103Y27520D01*
X22242Y27462D01*
Y27353D01*
X23092D01*
Y27780D01*
X23127D01*
Y28638D01*
X23443Y28954D01*
X30395D01*
X30424Y28807D01*
D02*
G37*
G36*
X60727Y5760D02*
X60590Y5897D01*
X60727D01*
Y5760D01*
D02*
G37*
G36*
X60705Y22655D02*
X60570D01*
X60703Y22788D01*
X60705D01*
Y22655D01*
D02*
G37*
G36*
X60703Y22325D02*
X60570Y22458D01*
Y22460D01*
X60703D01*
Y22325D01*
D02*
G37*
G36*
X60302Y21258D02*
X64496D01*
Y20533D01*
X60577D01*
Y18933D01*
X62739D01*
Y19733D01*
X62864D01*
Y18933D01*
X64496D01*
Y9625D01*
X62889D01*
Y8825D01*
X62764D01*
Y9625D01*
X60601D01*
Y8025D01*
X64496D01*
Y7300D01*
X60326D01*
Y6515D01*
X57077D01*
Y6540D01*
X55597D01*
Y6516D01*
X52037D01*
X47778Y10775D01*
X47835Y10914D01*
X48131D01*
Y12576D01*
X47468D01*
Y11281D01*
X47329Y11224D01*
X46363Y12190D01*
X46382Y12209D01*
X45671Y12920D01*
X45335Y13256D01*
X45317Y13237D01*
X45177Y13331D01*
Y13619D01*
X44027D01*
Y13396D01*
X43877D01*
Y13619D01*
X42727D01*
Y12946D01*
X42074D01*
Y12928D01*
X41702D01*
Y12787D01*
X41563Y12730D01*
X41279Y13015D01*
X41193Y13072D01*
X41093Y13092D01*
X41088Y13091D01*
X40845D01*
X40774Y13223D01*
X40797Y13257D01*
X40804Y13292D01*
X40337D01*
Y13417D01*
X40763D01*
X40674Y13506D01*
Y13744D01*
X40722Y13792D01*
X40337D01*
Y13917D01*
X40804D01*
X40797Y13952D01*
X40771Y13992D01*
X40841Y14125D01*
X41379D01*
X41478Y14144D01*
X41563Y14201D01*
X41564Y14202D01*
X42024Y14663D01*
X42163Y14605D01*
Y14093D01*
X45828D01*
Y15202D01*
X45842D01*
Y15202D01*
X46992D01*
Y15268D01*
X48401D01*
X48596Y15307D01*
X48761Y15418D01*
X55315Y21971D01*
X56259D01*
Y22017D01*
X57104D01*
Y21971D01*
X58254D01*
Y22048D01*
X60302D01*
Y21258D01*
D02*
G37*
G36*
X64496Y26183D02*
X62864D01*
Y25383D01*
X62739D01*
Y26183D01*
X60577D01*
Y24583D01*
X64496D01*
Y23858D01*
X60302D01*
Y23068D01*
X58862D01*
Y23261D01*
X58330D01*
Y23121D01*
X58254D01*
Y23121D01*
X57979D01*
Y23346D01*
X57379D01*
Y23121D01*
X57104D01*
Y23099D01*
X56259D01*
Y23121D01*
X55984D01*
Y23346D01*
X55384D01*
Y23121D01*
X55109D01*
Y23053D01*
X54986Y23029D01*
X54821Y22918D01*
X49057Y17155D01*
X48918Y17212D01*
Y18576D01*
X48256D01*
Y16914D01*
X48620D01*
X48677Y16775D01*
X48190Y16288D01*
X46992D01*
Y16352D01*
X45842D01*
D01*
X45842D01*
X45828Y16366D01*
Y16613D01*
X42163D01*
Y15869D01*
X41979D01*
X41879Y15849D01*
X41851Y15830D01*
X41795Y15793D01*
X41087Y15085D01*
X40841D01*
X40770Y15217D01*
X40797Y15257D01*
X40804Y15292D01*
X40337D01*
Y15417D01*
X40726D01*
Y15571D01*
X40770Y15615D01*
X40780Y15668D01*
X40806Y15685D01*
X43863Y18743D01*
X43915Y18820D01*
X43934Y18912D01*
X43934Y18912D01*
Y26465D01*
X43915Y26557D01*
X43863Y26634D01*
X42418Y28079D01*
X42341Y28131D01*
X42249Y28150D01*
X41846D01*
X41843Y28171D01*
X41742Y28414D01*
X41582Y28623D01*
X41373Y28784D01*
X41130Y28884D01*
X40869Y28919D01*
X40608Y28884D01*
X40365Y28784D01*
X40156Y28623D01*
X39995Y28414D01*
X39895Y28171D01*
X39860Y27910D01*
X39895Y27649D01*
X39995Y27406D01*
X40156Y27197D01*
X40325Y27067D01*
X40277Y26925D01*
X39653D01*
X39329Y27249D01*
Y28910D01*
X37329D01*
Y26910D01*
X38990D01*
X39385Y26516D01*
X39462Y26464D01*
X39554Y26445D01*
X42721D01*
X42914Y26253D01*
X42856Y26114D01*
X41456D01*
Y25389D01*
Y24664D01*
X43118D01*
D01*
X43118D01*
X43154Y24628D01*
Y19207D01*
X42837Y18890D01*
X42698Y18947D01*
Y20193D01*
X42931D01*
Y21313D01*
D01*
Y21313D01*
X42931Y21313D01*
Y21393D01*
X42931D01*
Y22513D01*
X42921D01*
X42826Y22629D01*
X42858Y22790D01*
X42825Y22956D01*
X42731Y23096D01*
X42591Y23190D01*
X42425Y23223D01*
X42259Y23190D01*
X42119Y23096D01*
X42115Y23091D01*
X42014D01*
X40694Y24411D01*
X40613Y24466D01*
X40516Y24485D01*
X39508D01*
X34635Y29358D01*
X34693Y29496D01*
X64496D01*
Y26183D01*
D02*
G37*
G36*
X40803Y21491D02*
Y21354D01*
X40838D01*
Y20927D01*
X41688D01*
Y21047D01*
X41827Y21105D01*
X41961Y20970D01*
Y20193D01*
X42194D01*
Y18723D01*
X41589Y18118D01*
X41221D01*
Y18163D01*
X41221D01*
Y18525D01*
X40646D01*
Y18650D01*
X41221D01*
Y18906D01*
X41343D01*
X41438Y18925D01*
X41520Y18979D01*
X41589Y19049D01*
X41598Y19051D01*
X41705Y19123D01*
X41777Y19230D01*
X41785Y19270D01*
X41788Y19275D01*
X41807Y19371D01*
X41788Y19466D01*
X41777Y19483D01*
X41777Y19484D01*
X41705Y19591D01*
X41598Y19663D01*
X41471Y19688D01*
X41344Y19663D01*
X41237Y19591D01*
X41165Y19484D01*
X41149Y19406D01*
X40528D01*
Y19677D01*
X39953D01*
Y19739D01*
X39890D01*
Y20164D01*
X39463D01*
X39463Y20199D01*
X39463D01*
X39368Y20315D01*
X39379Y20374D01*
X39346Y20540D01*
X39302Y20606D01*
X39373Y20738D01*
X40532D01*
X40557Y20713D01*
Y21441D01*
X40664Y21549D01*
X40803Y21491D01*
D02*
G37*
G36*
X38590Y20606D02*
X38546Y20540D01*
X38513Y20374D01*
X38524Y20315D01*
X38429Y20199D01*
X38243D01*
Y19279D01*
X38528D01*
X38585Y19140D01*
X38423Y18978D01*
X38365Y18892D01*
X38345Y18790D01*
Y17609D01*
X38213Y17538D01*
X38209Y17540D01*
X38174Y17547D01*
Y17080D01*
X38049D01*
Y17547D01*
X38014Y17540D01*
X37996Y17528D01*
X37864Y17599D01*
Y18214D01*
X37845Y18311D01*
X37790Y18393D01*
X37670Y18513D01*
Y18863D01*
X37577D01*
Y18931D01*
X37577D01*
Y19533D01*
X37566D01*
Y19725D01*
X37601D01*
Y20200D01*
Y20725D01*
D01*
Y20725D01*
X37614Y20738D01*
X38519D01*
X38590Y20606D01*
D02*
G37*
G36*
X37027Y26253D02*
X36969Y26114D01*
X35456D01*
Y25451D01*
X37118D01*
Y25965D01*
X37257Y26023D01*
X38993Y24286D01*
X38936Y24147D01*
X36384Y24147D01*
Y20903D01*
X36497Y20790D01*
Y20784D01*
X36503D01*
X36549Y20738D01*
X36999D01*
Y20725D01*
X36999D01*
Y20200D01*
Y19725D01*
X37061D01*
Y19533D01*
X37052D01*
Y19498D01*
X36902D01*
Y19232D01*
X36839D01*
Y19169D01*
X36612D01*
Y18966D01*
X36612D01*
Y18905D01*
X36535Y18828D01*
X36535D01*
Y18598D01*
X36396Y18541D01*
X36155Y18783D01*
Y19164D01*
X36120D01*
Y19314D01*
X35588D01*
Y19164D01*
X35553D01*
Y18639D01*
X35619D01*
X35621Y18630D01*
X35676Y18548D01*
X35676Y18548D01*
X35676Y18548D01*
X36472Y17752D01*
X36514Y17540D01*
X36431Y17485D01*
X36376Y17402D01*
D01*
X36292Y17485D01*
X36292Y17485D01*
Y17485D01*
X36209Y17540D01*
X36174Y17547D01*
Y17080D01*
X36049D01*
Y17547D01*
X36014Y17540D01*
X36003Y17533D01*
X35865Y17591D01*
X35858Y17625D01*
X35800Y17712D01*
X34668Y18844D01*
X34712Y18951D01*
X34712D01*
X34712Y18951D01*
Y19300D01*
X34769Y19337D01*
X35042Y19611D01*
X35191Y19641D01*
X35331Y19735D01*
X35425Y19875D01*
X35458Y20041D01*
X35425Y20207D01*
X35331Y20347D01*
X35191Y20441D01*
X35025Y20474D01*
X34859Y20441D01*
X34809Y20408D01*
X34677Y20479D01*
Y20598D01*
X33827D01*
Y20171D01*
X33792D01*
Y19329D01*
X33653Y19271D01*
X33465Y19460D01*
Y20031D01*
X33465Y20031D01*
D01*
D01*
X33465Y20057D01*
Y20072D01*
Y20097D01*
Y20108D01*
Y20137D01*
X33465Y20156D01*
X33465Y20163D01*
X33465Y20163D01*
X33465D01*
Y21257D01*
X33405D01*
Y21389D01*
X33412Y21473D01*
X33511Y21473D01*
X33511Y21473D01*
Y21473D01*
X33775D01*
Y21848D01*
Y22223D01*
X33511D01*
X33511Y22223D01*
Y22223D01*
X33466Y22223D01*
X33412D01*
D01*
D01*
D01*
X33412D01*
D01*
D01*
X33408Y22219D01*
X33325D01*
X33306Y22219D01*
X33306Y22219D01*
Y22219D01*
X33247D01*
Y22258D01*
X32643D01*
X32198Y22703D01*
Y26837D01*
X32198Y26837D01*
X32198Y26838D01*
X32179Y26934D01*
X32160Y26962D01*
X32160Y26962D01*
X32124Y27016D01*
Y27016D01*
X32124Y27016D01*
X31741Y27399D01*
X31747Y27406D01*
X31847Y27649D01*
X31882Y27910D01*
X31847Y28171D01*
X31747Y28414D01*
X31586Y28623D01*
X31377Y28784D01*
X31322Y28807D01*
X31351Y28954D01*
X33000D01*
X33030Y28807D01*
X32921Y28762D01*
X32718Y28605D01*
X32561Y28402D01*
X32463Y28165D01*
X32438Y27972D01*
X34388D01*
X34363Y28165D01*
X34265Y28402D01*
X34108Y28605D01*
X33905Y28762D01*
X33796Y28807D01*
X33826Y28954D01*
X34325D01*
X37027Y26253D01*
D02*
G37*
%LPC*%
G36*
X10781Y16034D02*
X9717D01*
X9747Y15802D01*
X9860Y15529D01*
X10041Y15294D01*
X10276Y15113D01*
X10549Y15000D01*
X10781Y14970D01*
Y16034D01*
D02*
G37*
G36*
X39867Y10067D02*
X39674D01*
Y9662D01*
X39709Y9669D01*
X39792Y9725D01*
X39847Y9807D01*
X39867Y9905D01*
Y10067D01*
D02*
G37*
G36*
X10781Y10887D02*
X9717D01*
X9747Y10656D01*
X9860Y10383D01*
X10041Y10148D01*
X10276Y9967D01*
X10549Y9854D01*
X10781Y9824D01*
Y10887D01*
D02*
G37*
G36*
Y12076D02*
X10549Y12046D01*
X10276Y11933D01*
X10041Y11752D01*
X9860Y11517D01*
X9747Y11244D01*
X9717Y11012D01*
X10781D01*
Y12076D01*
D02*
G37*
G36*
X10906D02*
Y11012D01*
X11969D01*
X11939Y11244D01*
X11826Y11517D01*
X11645Y11752D01*
X11410Y11933D01*
X11137Y12046D01*
X10906Y12076D01*
D02*
G37*
G36*
X11969Y10887D02*
X10906D01*
Y9824D01*
X11137Y9854D01*
X11410Y9967D01*
X11645Y10148D01*
X11826Y10383D01*
X11939Y10656D01*
X11969Y10887D01*
D02*
G37*
G36*
X48918Y12576D02*
X48256D01*
Y10914D01*
X48918D01*
Y12576D01*
D02*
G37*
G36*
X10781Y17222D02*
X10549Y17192D01*
X10276Y17079D01*
X10041Y16898D01*
X9860Y16663D01*
X9747Y16390D01*
X9717Y16159D01*
X10781D01*
Y17222D01*
D02*
G37*
G36*
X21275Y9174D02*
Y8512D01*
X21799D01*
Y8600D01*
X21755Y8824D01*
X21628Y9015D01*
X21437Y9142D01*
X21275Y9174D01*
D02*
G37*
G36*
X28531Y18576D02*
X27868D01*
Y16914D01*
X28531D01*
Y18576D01*
D02*
G37*
G36*
X10906Y17222D02*
Y16159D01*
X11969D01*
X11939Y16390D01*
X11826Y16663D01*
X11645Y16898D01*
X11410Y17079D01*
X11137Y17192D01*
X10906Y17222D01*
D02*
G37*
G36*
X24799Y9887D02*
X23736D01*
Y8824D01*
X23967Y8854D01*
X24240Y8967D01*
X24475Y9148D01*
X24656Y9383D01*
X24769Y9656D01*
X24799Y9887D01*
D02*
G37*
G36*
X11969Y16034D02*
X10906D01*
Y14970D01*
X11137Y15000D01*
X11410Y15113D01*
X11645Y15294D01*
X11826Y15529D01*
X11939Y15802D01*
X11969Y16034D01*
D02*
G37*
G36*
X42059Y8883D02*
X41834D01*
Y8521D01*
X42059D01*
Y8883D01*
D02*
G37*
G36*
X23611Y9887D02*
X22547D01*
X22577Y9656D01*
X22690Y9383D01*
X22871Y9148D01*
X23106Y8967D01*
X23379Y8854D01*
X23611Y8824D01*
Y9887D01*
D02*
G37*
G36*
X14863Y15883D02*
X14629Y15836D01*
X14430Y15704D01*
X14298Y15505D01*
X14251Y15271D01*
Y14921D01*
X14298Y14687D01*
X14430Y14488D01*
X14629Y14356D01*
X14863Y14309D01*
X15097Y14356D01*
X15296Y14488D01*
X15428Y14687D01*
X15475Y14921D01*
D01*
D01*
X15568Y14712D01*
Y14712D01*
X15568Y14712D01*
X15700Y14513D01*
X15899Y14381D01*
X16133Y14334D01*
X16367Y14381D01*
X16566Y14513D01*
X16698Y14712D01*
X16745Y14946D01*
Y15246D01*
X16698Y15480D01*
X16566Y15679D01*
X16367Y15811D01*
X16133Y15858D01*
X15899Y15811D01*
X15700Y15679D01*
X15568Y15480D01*
X15568Y15480D01*
D01*
D01*
X15430Y15495D01*
X15428Y15505D01*
X15296Y15704D01*
X15097Y15836D01*
X14863Y15883D01*
D02*
G37*
G36*
X13531Y14320D02*
X13369Y14288D01*
X13178Y14161D01*
X13051Y13970D01*
X13007Y13746D01*
Y13658D01*
X13531D01*
Y14320D01*
D02*
G37*
G36*
X14179Y13533D02*
X13656D01*
Y12872D01*
X13817Y12904D01*
X14008Y13031D01*
X14135Y13222D01*
X14179Y13446D01*
Y13533D01*
D02*
G37*
G36*
X13531D02*
X13007D01*
Y13446D01*
X13051Y13222D01*
X13178Y13031D01*
X13369Y12904D01*
X13531Y12872D01*
Y13533D01*
D02*
G37*
G36*
X13656Y14320D02*
Y13658D01*
X14179D01*
Y13746D01*
X14135Y13970D01*
X14008Y14161D01*
X13817Y14288D01*
X13656Y14320D01*
D02*
G37*
G36*
X17465D02*
Y13658D01*
X17989D01*
Y13746D01*
X17945Y13970D01*
X17818Y14161D01*
X17627Y14288D01*
X17465Y14320D01*
D02*
G37*
G36*
X21150D02*
X20989Y14288D01*
X20798Y14161D01*
X20671Y13970D01*
X20627Y13746D01*
Y13658D01*
X21150D01*
Y14320D01*
D02*
G37*
G36*
X17340D02*
X17179Y14288D01*
X16988Y14161D01*
X16861Y13970D01*
X16817Y13746D01*
Y13658D01*
X17340D01*
Y14320D01*
D02*
G37*
G36*
X48918Y14364D02*
X48256D01*
Y12701D01*
X48918D01*
Y14364D01*
D02*
G37*
G36*
X5070Y14789D02*
X4796Y14753D01*
X4540Y14647D01*
X4321Y14479D01*
X4153Y14260D01*
X4047Y14004D01*
X4011Y13730D01*
X4047Y13456D01*
X4153Y13200D01*
X4321Y12981D01*
X4540Y12813D01*
X4796Y12707D01*
X5070Y12671D01*
X5344Y12707D01*
X5600Y12813D01*
X5819Y12981D01*
X5987Y13200D01*
X6093Y13456D01*
X6129Y13730D01*
X6093Y14004D01*
X5987Y14260D01*
X5819Y14479D01*
X5600Y14647D01*
X5344Y14753D01*
X5070Y14789D01*
D02*
G37*
G36*
X2530D02*
X2256Y14753D01*
X2000Y14647D01*
X1781Y14479D01*
X1613Y14260D01*
X1507Y14004D01*
X1471Y13730D01*
X1507Y13456D01*
X1613Y13200D01*
X1781Y12981D01*
X2000Y12813D01*
X2256Y12707D01*
X2530Y12671D01*
X2804Y12707D01*
X3060Y12813D01*
X3279Y12981D01*
X3447Y13200D01*
X3553Y13456D01*
X3589Y13730D01*
X3553Y14004D01*
X3447Y14260D01*
X3279Y14479D01*
X3060Y14647D01*
X2804Y14753D01*
X2530Y14789D01*
D02*
G37*
G36*
X24799Y15033D02*
X23736D01*
Y13970D01*
X23967Y14000D01*
X24240Y14113D01*
X24475Y14294D01*
X24656Y14529D01*
X24769Y14802D01*
X24799Y15033D01*
D02*
G37*
G36*
X23611D02*
X22547D01*
X22577Y14802D01*
X22690Y14529D01*
X22871Y14294D01*
X23106Y14113D01*
X23379Y14000D01*
X23611Y13970D01*
Y15033D01*
D02*
G37*
G36*
X48131Y14364D02*
X47468D01*
Y12701D01*
X48131D01*
Y14364D01*
D02*
G37*
G36*
X21275Y14320D02*
Y13658D01*
X21799D01*
Y13746D01*
X21755Y13970D01*
X21628Y14161D01*
X21437Y14288D01*
X21275Y14320D01*
D02*
G37*
G36*
X28531Y14364D02*
X27868D01*
Y12701D01*
X28531D01*
Y14364D01*
D02*
G37*
G36*
X21150Y9174D02*
X20989Y9142D01*
X20798Y9015D01*
X20671Y8824D01*
X20627Y8600D01*
Y8512D01*
X21150D01*
Y9174D01*
D02*
G37*
G36*
X5133Y4596D02*
Y3632D01*
X6096D01*
X6069Y3838D01*
X5965Y4087D01*
X5801Y4301D01*
X5587Y4465D01*
X5338Y4569D01*
X5133Y4596D01*
D02*
G37*
G36*
X22587Y4460D02*
X21974D01*
Y4048D01*
X22587D01*
Y4460D01*
D02*
G37*
G36*
X16127Y5031D02*
X15961Y4998D01*
X15821Y4904D01*
X15727Y4764D01*
X15694Y4598D01*
X15727Y4432D01*
X15821Y4292D01*
X15837Y4281D01*
X15802Y4163D01*
Y3587D01*
X15677D01*
Y4137D01*
X15439D01*
D01*
X15439D01*
X15424Y4152D01*
Y4172D01*
X14686D01*
X14672Y4242D01*
X14617Y4323D01*
X14367Y4573D01*
X14286Y4628D01*
X14189Y4647D01*
X13570D01*
Y4880D01*
X12476D01*
X12476Y4880D01*
Y4880D01*
X12450Y4880D01*
X12410D01*
X12370D01*
X12344Y4880D01*
X12344Y4880D01*
Y4880D01*
X11250D01*
Y4874D01*
X11111Y4816D01*
X11055Y4872D01*
X10974Y4927D01*
X10877Y4946D01*
X8668D01*
X8571Y4927D01*
X8490Y4872D01*
X8123Y4506D01*
X7267D01*
X7267Y4519D01*
X6945Y4521D01*
Y2037D01*
X6917Y2009D01*
X6917Y2009D01*
X6960Y1917D01*
X6828Y1846D01*
X6702Y1930D01*
X6536Y1963D01*
X6370Y1930D01*
X6229Y1836D01*
X6135Y1696D01*
X6102Y1530D01*
X6135Y1364D01*
X6229Y1224D01*
X6370Y1130D01*
X6536Y1097D01*
X6702Y1130D01*
X6828Y1214D01*
X6960Y1143D01*
Y886D01*
X8480D01*
Y1126D01*
X8603Y1208D01*
X8612Y1213D01*
X8752Y1120D01*
X8918Y1087D01*
X9084Y1120D01*
X9202Y1056D01*
Y922D01*
X10722D01*
Y1703D01*
X10861Y1761D01*
X11114Y1508D01*
X11195Y1453D01*
X11207Y1451D01*
Y1201D01*
X12301D01*
X12301Y1201D01*
Y1201D01*
X12327Y1201D01*
X12367D01*
X12407D01*
X12433Y1201D01*
X12433Y1201D01*
Y1201D01*
X13095D01*
X13525Y772D01*
X13606Y717D01*
X13703Y698D01*
X15580D01*
X15677Y717D01*
X15758Y772D01*
X15917Y931D01*
X15972Y1012D01*
X15988Y1094D01*
X16127Y1151D01*
X16255Y1066D01*
X16421Y1033D01*
X16587Y1066D01*
X16716Y1152D01*
X17733D01*
Y1152D01*
X17733D01*
X17733Y1152D01*
X17813D01*
Y1152D01*
X18361D01*
X18451Y1062D01*
D01*
X18451D01*
Y1061D01*
D01*
X18451D01*
Y1061D01*
X18451D01*
X18451Y1061D01*
Y1061D01*
X18452Y1061D01*
Y1061D01*
X18554Y993D01*
X18675Y969D01*
X18857D01*
X18983Y885D01*
X19149Y852D01*
X19315Y885D01*
X19455Y979D01*
X19549Y1119D01*
X19582Y1285D01*
X19549Y1451D01*
X19616Y1575D01*
X20759D01*
Y2595D01*
X20724D01*
Y2973D01*
X20049D01*
Y3098D01*
X20724D01*
Y3475D01*
X20759D01*
Y4495D01*
X19339D01*
X19339Y4495D01*
Y4495D01*
X19269Y4466D01*
X19136Y4598D01*
X19055Y4653D01*
X18958Y4672D01*
X18790D01*
Y4919D01*
X17670D01*
D01*
D01*
X17670Y4919D01*
X17590D01*
Y4919D01*
X16470D01*
Y4919D01*
X16433Y4904D01*
X16433Y4904D01*
Y4904D01*
X16433D01*
X16293Y4998D01*
X16127Y5031D01*
D02*
G37*
G36*
X5008Y4596D02*
X4802Y4569D01*
X4553Y4465D01*
X4339Y4301D01*
X4175Y4087D01*
X4071Y3838D01*
X4044Y3632D01*
X5008D01*
Y4596D01*
D02*
G37*
G36*
X48918Y6676D02*
X47355D01*
Y5114D01*
X48918D01*
Y6676D01*
D02*
G37*
G36*
X35331Y5826D02*
X33668D01*
Y5164D01*
X35331D01*
Y5826D01*
D02*
G37*
G36*
X41331Y5777D02*
X39668D01*
Y5114D01*
X41331D01*
Y5777D01*
D02*
G37*
G36*
X47230Y6676D02*
X45668D01*
Y5114D01*
X47230D01*
Y6676D01*
D02*
G37*
G36*
X23324Y3922D02*
X22712D01*
Y3510D01*
X23324D01*
Y3922D01*
D02*
G37*
G36*
X36404Y2026D02*
X35867D01*
Y1088D01*
X36404D01*
Y2026D01*
D02*
G37*
G36*
X4925Y1700D02*
X4412D01*
Y1337D01*
X4925D01*
Y1700D01*
D02*
G37*
G36*
X2530Y4629D02*
X2256Y4593D01*
X2000Y4487D01*
X1781Y4319D01*
X1613Y4100D01*
X1507Y3844D01*
X1471Y3570D01*
X1507Y3296D01*
X1613Y3040D01*
X1781Y2821D01*
X2000Y2653D01*
X2256Y2547D01*
X2278Y2544D01*
Y2011D01*
X2297Y1914D01*
X2352Y1833D01*
X2352Y1833D01*
X2352Y1833D01*
X2640Y1544D01*
Y815D01*
X3860D01*
Y850D01*
X4287D01*
Y1275D01*
Y1700D01*
X3860D01*
Y1735D01*
X3163D01*
X2782Y2116D01*
Y2544D01*
X2804Y2547D01*
X3060Y2653D01*
X3279Y2821D01*
X3447Y3040D01*
X3553Y3296D01*
X3589Y3570D01*
X3553Y3844D01*
X3447Y4100D01*
X3279Y4319D01*
X3060Y4487D01*
X2804Y4593D01*
X2530Y4629D01*
D02*
G37*
G36*
X4925Y1212D02*
X4412D01*
Y850D01*
X4925D01*
Y1212D01*
D02*
G37*
G36*
X6096Y3507D02*
X5133D01*
Y2544D01*
X5338Y2571D01*
X5587Y2675D01*
X5801Y2839D01*
X5965Y3053D01*
X6069Y3302D01*
X6096Y3507D01*
D02*
G37*
G36*
X22587Y3922D02*
X21974D01*
Y3510D01*
X22587D01*
Y3922D01*
D02*
G37*
G36*
X36404Y3088D02*
X35867D01*
Y2151D01*
X36404D01*
Y3088D01*
D02*
G37*
G36*
X5008Y3507D02*
X4044D01*
X4071Y3302D01*
X4175Y3053D01*
X4339Y2839D01*
X4553Y2675D01*
X4802Y2571D01*
X5008Y2544D01*
Y3507D01*
D02*
G37*
G36*
X31784Y8479D02*
X31421D01*
Y8126D01*
X31784D01*
Y8479D01*
D02*
G37*
G36*
X32271D02*
X31909D01*
Y8126D01*
X32271D01*
Y8479D01*
D02*
G37*
G36*
X21150Y8387D02*
X20627D01*
Y8300D01*
X20671Y8076D01*
X20798Y7885D01*
X20989Y7758D01*
X21150Y7726D01*
Y8387D01*
D02*
G37*
G36*
X21799D02*
X21275D01*
Y7726D01*
X21437Y7758D01*
X21628Y7885D01*
X21755Y8076D01*
X21799Y8300D01*
Y8387D01*
D02*
G37*
G36*
X17340Y9174D02*
X17179Y9142D01*
X16988Y9015D01*
X16861Y8824D01*
X16817Y8600D01*
Y8512D01*
X17340D01*
Y9174D01*
D02*
G37*
G36*
X17465D02*
Y8512D01*
X17989D01*
Y8600D01*
X17945Y8824D01*
X17818Y9015D01*
X17627Y9142D01*
X17465Y9174D01*
D02*
G37*
G36*
X13531D02*
X13369Y9142D01*
X13178Y9015D01*
X13051Y8824D01*
X13007Y8600D01*
Y8512D01*
X13531D01*
Y9174D01*
D02*
G37*
G36*
X13656D02*
Y8512D01*
X14179D01*
Y8600D01*
X14135Y8824D01*
X14008Y9015D01*
X13817Y9142D01*
X13656Y9174D01*
D02*
G37*
G36*
X17989Y8387D02*
X17465D01*
Y7726D01*
X17627Y7758D01*
X17818Y7885D01*
X17945Y8076D01*
X17989Y8300D01*
Y8387D01*
D02*
G37*
G36*
X29431Y8364D02*
X27868D01*
Y6801D01*
X29431D01*
Y8364D01*
D02*
G37*
G36*
X31118D02*
X29556D01*
Y6801D01*
X31118D01*
Y8364D01*
D02*
G37*
G36*
X37118Y5826D02*
X35456D01*
Y5164D01*
X37118D01*
Y5826D01*
D02*
G37*
G36*
X41331Y6564D02*
X39668D01*
Y5902D01*
X41331D01*
Y6564D01*
D02*
G37*
G36*
X14179Y8387D02*
X13656D01*
Y7726D01*
X13817Y7758D01*
X14008Y7885D01*
X14135Y8076D01*
X14179Y8300D01*
Y8387D01*
D02*
G37*
G36*
X17340D02*
X16817D01*
Y8300D01*
X16861Y8076D01*
X16988Y7885D01*
X17179Y7758D01*
X17340Y7726D01*
Y8387D01*
D02*
G37*
G36*
X47230Y8364D02*
X45668D01*
Y6801D01*
X47230D01*
Y8364D01*
D02*
G37*
G36*
X13531Y8387D02*
X13007D01*
Y8300D01*
X13051Y8076D01*
X13178Y7885D01*
X13369Y7758D01*
X13531Y7726D01*
Y8387D01*
D02*
G37*
G36*
X29318Y18576D02*
X28656D01*
Y16914D01*
X29318D01*
Y18576D01*
D02*
G37*
G36*
X41331Y26114D02*
X39668D01*
Y25451D01*
X41331D01*
Y26114D01*
D02*
G37*
G36*
X2467Y27456D02*
X2262Y27429D01*
X2013Y27325D01*
X1799Y27161D01*
X1635Y26947D01*
X1531Y26698D01*
X1504Y26493D01*
X2467D01*
Y27456D01*
D02*
G37*
G36*
X26198Y25648D02*
X25035D01*
Y25060D01*
X26198D01*
Y25648D01*
D02*
G37*
G36*
X35331Y26114D02*
X33668D01*
Y25451D01*
X35331D01*
Y26114D01*
D02*
G37*
G36*
X23092Y27228D02*
X22729D01*
Y26715D01*
X23092D01*
Y27228D01*
D02*
G37*
G36*
X33350Y27847D02*
X32438D01*
X32463Y27655D01*
X32561Y27418D01*
X32718Y27215D01*
X32921Y27058D01*
X33158Y26960D01*
X33350Y26935D01*
Y27847D01*
D02*
G37*
G36*
X2592Y27456D02*
Y26493D01*
X3556D01*
X3529Y26698D01*
X3425Y26947D01*
X3261Y27161D01*
X3047Y27325D01*
X2798Y27429D01*
X2592Y27456D01*
D02*
G37*
G36*
X22604Y27228D02*
X22242D01*
Y26715D01*
X22604D01*
Y27228D01*
D02*
G37*
G36*
X24910Y25648D02*
X23748D01*
Y25060D01*
X24910D01*
Y25648D01*
D02*
G37*
G36*
X29431Y26164D02*
X27868D01*
Y24601D01*
X29431D01*
Y26164D01*
D02*
G37*
G36*
X31118D02*
X29556D01*
Y24601D01*
X31118D01*
Y26164D01*
D02*
G37*
G36*
X24910Y24935D02*
X23748D01*
Y24348D01*
X24910D01*
Y24935D01*
D02*
G37*
G36*
X26198D02*
X25035D01*
Y24348D01*
X26198D01*
Y24935D01*
D02*
G37*
G36*
X37118Y25326D02*
X35456D01*
Y24664D01*
X37118D01*
Y25326D01*
D02*
G37*
G36*
X41331D02*
X39668D01*
Y24664D01*
X41331D01*
Y25326D01*
D02*
G37*
G36*
X46887Y29293D02*
X46588Y29264D01*
X46301Y29177D01*
X46036Y29035D01*
X45803Y28845D01*
X45613Y28612D01*
X45471Y28347D01*
X45384Y28060D01*
X45355Y27761D01*
X45384Y27462D01*
X45471Y27175D01*
X45613Y26910D01*
X45803Y26677D01*
X46036Y26487D01*
X46301Y26345D01*
X46409Y26312D01*
X46387Y26164D01*
X45668D01*
Y24601D01*
X48918D01*
Y26164D01*
X47387D01*
X47365Y26312D01*
X47473Y26345D01*
X47738Y26487D01*
X47971Y26677D01*
X48161Y26910D01*
X48303Y27175D01*
X48390Y27462D01*
X48420Y27761D01*
X48390Y28060D01*
X48303Y28347D01*
X48161Y28612D01*
X47971Y28845D01*
X47738Y29035D01*
X47473Y29177D01*
X47186Y29264D01*
X46887Y29293D01*
D02*
G37*
G36*
X35331Y25326D02*
X33668D01*
Y24664D01*
X35331D01*
Y25326D01*
D02*
G37*
G36*
X34388Y27847D02*
X33475D01*
Y26935D01*
X33668Y26960D01*
X33905Y27058D01*
X34108Y27215D01*
X34265Y27418D01*
X34363Y27655D01*
X34388Y27847D01*
D02*
G37*
G36*
X14863Y28922D02*
X13675D01*
Y28360D01*
X14863D01*
Y28922D01*
D02*
G37*
G36*
X16175D02*
X14988D01*
Y28360D01*
X16175D01*
Y28922D01*
D02*
G37*
G36*
X24910Y28598D02*
X23748D01*
Y28010D01*
X24910D01*
Y28598D01*
D02*
G37*
G36*
X26198D02*
X25035D01*
Y28010D01*
X26198D01*
Y28598D01*
D02*
G37*
G36*
X7287Y28802D02*
X7075D01*
Y28390D01*
X7287D01*
Y28802D01*
D02*
G37*
G36*
Y29340D02*
X7075D01*
Y28927D01*
X7287D01*
Y29340D01*
D02*
G37*
G36*
X20362Y28922D02*
X19175D01*
Y28360D01*
X20362D01*
Y28922D01*
D02*
G37*
G36*
X21675D02*
X20487D01*
Y28360D01*
X21675D01*
Y28922D01*
D02*
G37*
G36*
X20362Y28235D02*
X19175D01*
Y27672D01*
X20362D01*
Y28235D01*
D02*
G37*
G36*
X24910Y27885D02*
X23748D01*
Y27298D01*
X24910D01*
Y27885D01*
D02*
G37*
G36*
X26198D02*
X25035D01*
Y27298D01*
X26198D01*
Y27885D01*
D02*
G37*
G36*
X9688Y27790D02*
X9325D01*
Y27278D01*
X9688D01*
Y27790D01*
D02*
G37*
G36*
X10175D02*
X9812D01*
Y27278D01*
X10175D01*
Y27790D01*
D02*
G37*
G36*
X14863Y28235D02*
X13675D01*
Y27672D01*
X14863D01*
Y28235D01*
D02*
G37*
G36*
X16175D02*
X14988D01*
Y27672D01*
X16175D01*
Y28235D01*
D02*
G37*
G36*
X10812Y27790D02*
X10425D01*
Y27327D01*
X10812D01*
Y27790D01*
D02*
G37*
G36*
X11325D02*
X10938D01*
Y27327D01*
X11325D01*
Y27790D01*
D02*
G37*
G36*
X13656Y19416D02*
Y18754D01*
X14179D01*
Y18842D01*
X14135Y19066D01*
X14008Y19257D01*
X13817Y19384D01*
X13656Y19416D01*
D02*
G37*
G36*
X17340D02*
X17179Y19384D01*
X16988Y19257D01*
X16861Y19066D01*
X16817Y18842D01*
Y18754D01*
X17340D01*
Y19416D01*
D02*
G37*
G36*
X48918Y20364D02*
X48256D01*
Y18701D01*
X48918D01*
Y20364D01*
D02*
G37*
G36*
X13531Y19416D02*
X13369Y19384D01*
X13178Y19257D01*
X13051Y19066D01*
X13007Y18842D01*
Y18754D01*
X13531D01*
Y19416D01*
D02*
G37*
G36*
X21275D02*
Y18754D01*
X21799D01*
Y18842D01*
X21755Y19066D01*
X21628Y19257D01*
X21437Y19384D01*
X21275Y19416D01*
D02*
G37*
G36*
X23611Y20129D02*
X22547D01*
X22577Y19898D01*
X22690Y19625D01*
X22871Y19390D01*
X23106Y19209D01*
X23379Y19096D01*
X23611Y19066D01*
Y20129D01*
D02*
G37*
G36*
X17465Y19416D02*
Y18754D01*
X17989D01*
Y18842D01*
X17945Y19066D01*
X17818Y19257D01*
X17627Y19384D01*
X17465Y19416D01*
D02*
G37*
G36*
X21150D02*
X20989Y19384D01*
X20798Y19257D01*
X20671Y19066D01*
X20627Y18842D01*
Y18754D01*
X21150D01*
Y19416D01*
D02*
G37*
G36*
X48131Y20364D02*
X47468D01*
Y18701D01*
X48131D01*
Y20364D01*
D02*
G37*
G36*
X13531Y18629D02*
X13007D01*
Y18542D01*
X13051Y18318D01*
X13178Y18127D01*
X13369Y18000D01*
X13531Y17968D01*
Y18629D01*
D02*
G37*
G36*
X14179D02*
X13656D01*
Y17968D01*
X13817Y18000D01*
X14008Y18127D01*
X14135Y18318D01*
X14179Y18542D01*
Y18629D01*
D02*
G37*
G36*
X48131Y18576D02*
X47468D01*
Y16914D01*
X48131D01*
Y18576D01*
D02*
G37*
G36*
X34049Y17547D02*
X34014Y17540D01*
X33931Y17485D01*
X33876Y17402D01*
X33857Y17305D01*
Y17142D01*
X34049D01*
Y17547D01*
D02*
G37*
G36*
X21150Y18629D02*
X20627D01*
Y18542D01*
X20671Y18318D01*
X20798Y18127D01*
X20989Y18000D01*
X21150Y17968D01*
Y18629D01*
D02*
G37*
G36*
X21799D02*
X21275D01*
Y17968D01*
X21437Y18000D01*
X21628Y18127D01*
X21755Y18318D01*
X21799Y18542D01*
Y18629D01*
D02*
G37*
G36*
X17340D02*
X16817D01*
Y18542D01*
X16861Y18318D01*
X16988Y18127D01*
X17179Y18000D01*
X17340Y17968D01*
Y18629D01*
D02*
G37*
G36*
X17989D02*
X17465D01*
Y17968D01*
X17627Y18000D01*
X17818Y18127D01*
X17945Y18318D01*
X17989Y18542D01*
Y18629D01*
D02*
G37*
G36*
X24799Y20129D02*
X23736D01*
Y19066D01*
X23967Y19096D01*
X24240Y19209D01*
X24475Y19390D01*
X24656Y19625D01*
X24769Y19898D01*
X24799Y20129D01*
D02*
G37*
G36*
X10781Y22318D02*
X10549Y22288D01*
X10276Y22175D01*
X10041Y21994D01*
X9860Y21759D01*
X9747Y21486D01*
X9717Y21254D01*
X10781D01*
Y22318D01*
D02*
G37*
G36*
X10906D02*
Y21254D01*
X11969D01*
X11939Y21486D01*
X11826Y21759D01*
X11645Y21994D01*
X11410Y22175D01*
X11137Y22288D01*
X10906Y22318D01*
D02*
G37*
G36*
X34677Y21236D02*
X34314D01*
Y20723D01*
X34677D01*
Y21236D01*
D02*
G37*
G36*
X8000Y24035D02*
X7634Y23987D01*
X7292Y23846D01*
X6999Y23621D01*
X6774Y23328D01*
X6633Y22986D01*
X6585Y22620D01*
X6633Y22254D01*
X6774Y21912D01*
X6999Y21619D01*
X7292Y21394D01*
X7634Y21253D01*
X8000Y21205D01*
X8366Y21253D01*
X8708Y21394D01*
X9001Y21619D01*
X9226Y21912D01*
X9367Y22254D01*
X9415Y22620D01*
X9367Y22986D01*
X9226Y23328D01*
X9001Y23621D01*
X8708Y23846D01*
X8366Y23987D01*
X8000Y24035D01*
D02*
G37*
G36*
X47230Y24476D02*
X45668D01*
Y22914D01*
X47230D01*
Y24476D01*
D02*
G37*
G36*
X48918D02*
X47355D01*
Y22914D01*
X48918D01*
Y24476D01*
D02*
G37*
G36*
X34262Y21786D02*
X33900D01*
Y21473D01*
X34262D01*
Y21786D01*
D02*
G37*
G36*
Y22223D02*
X33900D01*
Y21910D01*
X34262D01*
Y22223D01*
D02*
G37*
G36*
X34189Y21236D02*
X33827D01*
Y20723D01*
X34189D01*
Y21236D01*
D02*
G37*
G36*
X36120Y19604D02*
X35917D01*
Y19439D01*
X36120D01*
Y19604D01*
D02*
G37*
G36*
X40528Y20164D02*
X40015D01*
Y19802D01*
X40528D01*
Y20164D01*
D02*
G37*
G36*
X36777Y19498D02*
X36612D01*
Y19294D01*
X36777D01*
Y19498D01*
D02*
G37*
G36*
X35792Y19604D02*
X35588D01*
Y19439D01*
X35792D01*
Y19604D01*
D02*
G37*
G36*
X41201Y20802D02*
X40838D01*
Y20289D01*
X41201D01*
Y20802D01*
D02*
G37*
G36*
X41688D02*
X41326D01*
Y20289D01*
X41688D01*
Y20802D01*
D02*
G37*
G36*
X10781Y21129D02*
X9717D01*
X9747Y20898D01*
X9860Y20625D01*
X10041Y20390D01*
X10276Y20209D01*
X10549Y20096D01*
X10781Y20066D01*
Y21129D01*
D02*
G37*
G36*
X11969D02*
X10906D01*
Y20066D01*
X11137Y20096D01*
X11410Y20209D01*
X11645Y20390D01*
X11826Y20625D01*
X11939Y20898D01*
X11969Y21129D01*
D02*
G37*
%LPD*%
D10*
X62502Y22558D02*
D03*
X62526Y6000D02*
D03*
D11*
X17030Y2789D02*
D03*
X18230D02*
D03*
X11772Y2793D02*
D03*
X12972D02*
D03*
X11810Y4395D02*
D03*
X13010D02*
D03*
X11767Y1686D02*
D03*
X12967D02*
D03*
X18373Y1637D02*
D03*
X17173D02*
D03*
X17030Y4434D02*
D03*
X18230D02*
D03*
D12*
X32980Y19497D02*
D03*
Y20697D02*
D03*
X22633Y25556D02*
D03*
Y24356D02*
D03*
X42446Y21953D02*
D03*
Y20753D02*
D03*
X10875Y26065D02*
D03*
Y27265D02*
D03*
D13*
X58596Y22558D02*
D03*
Y23033D02*
D03*
X58441Y6002D02*
D03*
Y5528D02*
D03*
X35854Y19376D02*
D03*
Y18902D02*
D03*
X55191Y5529D02*
D03*
Y6003D02*
D03*
X57557Y5528D02*
D03*
Y6002D02*
D03*
X37300Y19988D02*
D03*
Y20462D02*
D03*
D14*
X56906Y22558D02*
D03*
X56432D02*
D03*
X56574Y5999D02*
D03*
X56100D02*
D03*
X42203Y11854D02*
D03*
X41729D02*
D03*
X42204Y12388D02*
D03*
X41730D02*
D03*
X37314Y19232D02*
D03*
X36839D02*
D03*
D15*
X9962Y1682D02*
D03*
Y3782D02*
D03*
X7720Y1646D02*
D03*
Y3746D02*
D03*
D16*
X41484Y8458D02*
D03*
X40384D02*
D03*
X39657Y7598D02*
D03*
X38557D02*
D03*
X33054Y8649D02*
D03*
X34154D02*
D03*
X39953Y19739D02*
D03*
X38853D02*
D03*
X24503Y4079D02*
D03*
X25603D02*
D03*
X24458Y1664D02*
D03*
X25558D02*
D03*
X4350Y1275D02*
D03*
X3250D02*
D03*
X40646Y18588D02*
D03*
X39546D02*
D03*
D17*
X31846Y8542D02*
D03*
Y9642D02*
D03*
X34252Y20661D02*
D03*
Y19561D02*
D03*
X41263Y20864D02*
D03*
Y21964D02*
D03*
X22667Y27290D02*
D03*
Y28390D02*
D03*
X9750Y27215D02*
D03*
Y26115D02*
D03*
D18*
X37335Y18528D02*
D03*
X36835D02*
D03*
X45917Y15777D02*
D03*
X46417D02*
D03*
D19*
X57679Y22546D02*
D03*
Y23046D02*
D03*
X55684Y22546D02*
D03*
Y23046D02*
D03*
X42649Y11871D02*
D03*
Y12371D02*
D03*
D20*
X45644Y12182D02*
D03*
X45308Y12518D02*
D03*
D21*
X44482Y16103D02*
D03*
X43832D02*
D03*
X43182D02*
D03*
X44482Y14603D02*
D03*
X43832D02*
D03*
X43182D02*
D03*
X44602Y12869D02*
D03*
X43952D02*
D03*
X43302D02*
D03*
X44602Y11369D02*
D03*
X43952D02*
D03*
X43302D02*
D03*
D22*
X30782Y14735D02*
D03*
X31782D02*
D03*
D23*
X32854Y2088D02*
D03*
X35804D02*
D03*
D24*
X32787Y21848D02*
D03*
X33837Y21848D02*
D03*
D25*
X25749Y2885D02*
D03*
X24352D02*
D03*
D26*
X15739Y3587D02*
D03*
X15089D02*
D03*
X14439D02*
D03*
Y1737D02*
D03*
X15089D02*
D03*
X15739D02*
D03*
D27*
X20049Y3985D02*
D03*
Y3035D02*
D03*
Y2085D02*
D03*
X22649D02*
D03*
Y3985D02*
D03*
D28*
X33387Y10855D02*
D03*
Y11355D02*
D03*
Y11855D02*
D03*
Y12355D02*
D03*
Y12855D02*
D03*
Y13355D02*
D03*
Y13855D02*
D03*
Y14355D02*
D03*
Y14855D02*
D03*
Y15355D02*
D03*
Y15855D02*
D03*
Y16355D02*
D03*
X40337D02*
D03*
Y15855D02*
D03*
Y15355D02*
D03*
Y14855D02*
D03*
Y14355D02*
D03*
Y13855D02*
D03*
Y13355D02*
D03*
Y12855D02*
D03*
Y12355D02*
D03*
Y11855D02*
D03*
Y11355D02*
D03*
Y10855D02*
D03*
D29*
X34112Y10130D02*
D03*
X34612D02*
D03*
X35112D02*
D03*
X35612D02*
D03*
X36112D02*
D03*
X36612D02*
D03*
X37112D02*
D03*
X37612D02*
D03*
X38112D02*
D03*
X38612D02*
D03*
X39112D02*
D03*
X39612D02*
D03*
X34112Y17080D02*
D03*
X34612D02*
D03*
X35112D02*
D03*
X35612D02*
D03*
X36112D02*
D03*
X36612D02*
D03*
X37112D02*
D03*
X37612D02*
D03*
X38112D02*
D03*
X38612D02*
D03*
X39112D02*
D03*
X39612D02*
D03*
D30*
X36862Y13605D02*
D03*
D31*
X8100Y27415D02*
D03*
D32*
X8850Y28865D02*
D03*
X8350D02*
D03*
X7850D02*
D03*
X7350D02*
D03*
Y25965D02*
D03*
X7850D02*
D03*
X8350D02*
D03*
X8850D02*
D03*
D33*
X39607Y21494D02*
D03*
X37307D02*
D03*
Y23294D02*
D03*
X39607D02*
D03*
D34*
X14925Y28297D02*
D03*
X20425D02*
D03*
Y24297D02*
D03*
X14925D02*
D03*
D35*
X24973Y27948D02*
D03*
Y24998D02*
D03*
D36*
X26498Y26473D02*
D03*
D37*
X48193Y12639D02*
D03*
Y18639D02*
D03*
X28593Y12639D02*
D03*
Y18639D02*
D03*
D38*
X47293Y24539D02*
D03*
Y6739D02*
D03*
X29493Y24539D02*
D03*
Y6739D02*
D03*
D39*
X41393Y5839D02*
D03*
X35393Y25389D02*
D03*
X41393D02*
D03*
X35393Y5889D02*
D03*
D40*
X33448Y9429D02*
X34154Y8723D01*
Y8649D02*
Y8723D01*
X38181Y18727D02*
Y18866D01*
X38134Y18680D02*
X38181Y18727D01*
X34545Y19561D02*
X35025Y20041D01*
X28593Y11439D02*
Y13001D01*
X28347Y11193D02*
X28593Y11439D01*
X28547Y7185D02*
X29493Y6239D01*
X40757Y25026D02*
X40894Y24889D01*
X31782Y14735D02*
Y14772D01*
Y14655D02*
Y14735D01*
X40056Y19780D02*
X40592D01*
X39983Y19854D02*
X40056Y19780D01*
X40822Y18546D02*
X41339D01*
X40653Y18716D02*
X40822Y18546D01*
X33823Y22532D02*
Y22630D01*
Y22532D02*
X33872Y22483D01*
X33820Y22431D02*
X33872Y22483D01*
X24352Y3827D02*
X24623Y4098D01*
X24352Y2885D02*
Y3827D01*
X39607Y6877D02*
Y7598D01*
Y6877D02*
X39631Y6853D01*
X41263Y20211D02*
Y20914D01*
X38122Y18069D02*
X38172Y18119D01*
Y18070D02*
X38210Y18108D01*
X38084Y18333D02*
Y18801D01*
X38181Y18866D02*
X38182Y18867D01*
Y18852D02*
Y18867D01*
X38166Y18836D02*
X38182Y18852D01*
X38172Y18070D02*
Y18119D01*
X27628Y2885D02*
X27931Y2582D01*
X25749Y2885D02*
X27628D01*
X18675Y1285D02*
X19149D01*
X18323Y1637D02*
X18675Y1285D01*
X37680Y23667D02*
X38378D01*
X22667Y26431D02*
Y27290D01*
X24623Y4098D02*
Y4848D01*
X23549Y4491D02*
Y4785D01*
Y4491D02*
X23961Y4079D01*
X22649Y2085D02*
X23885D01*
X24306Y1664D01*
X24458D01*
X23961Y4079D02*
X24503D01*
X25558Y959D02*
Y1664D01*
Y959D02*
X25566Y951D01*
X37660Y22941D02*
X38391D01*
X37307Y23294D02*
X37680Y23667D01*
X37307Y23294D02*
X37660Y22941D01*
X35785Y2107D02*
X35804Y2088D01*
X31846Y8031D02*
Y8592D01*
X31784Y7969D02*
X31815D01*
X31784D02*
X31846Y8031D01*
X32396Y7872D02*
X33101Y8577D01*
Y8695D01*
X31016Y15538D02*
X31782Y14772D01*
X24458Y1664D02*
X24514Y1608D01*
Y1088D02*
Y1608D01*
D41*
X34662Y8695D02*
X35112Y9145D01*
Y10130D01*
X34357Y8695D02*
X34662D01*
X40616Y21914D02*
X41263D01*
X40196Y21494D02*
X40616Y21914D01*
X39607Y21494D02*
X40196D01*
X31782Y14655D02*
X32082Y14355D01*
X30212Y15394D02*
Y15547D01*
X30220Y15555D01*
Y15197D02*
Y15555D01*
X38607Y7598D02*
X38615Y7590D01*
Y6883D02*
Y7590D01*
X36112Y17080D02*
Y17715D01*
X38607Y7598D02*
X38612Y7603D01*
Y10130D01*
X42425Y22790D02*
X42446Y22769D01*
Y21903D02*
Y22769D01*
X41174Y22650D02*
X41263Y22561D01*
Y21914D02*
Y22561D01*
X38112Y17080D02*
Y18010D01*
X32082Y14355D02*
X33387D01*
X34396Y9377D02*
X34612Y9593D01*
Y10130D01*
X31846Y9592D02*
X32384Y10130D01*
X34112D01*
X32769Y12855D02*
X33387D01*
X32725Y12899D02*
X32769Y12855D01*
X30220Y15197D02*
X30782Y14635D01*
X25553Y4079D02*
X26018D01*
X26294Y3803D01*
X55191Y4977D02*
Y5493D01*
X57557Y4951D02*
Y5489D01*
X58441Y4944D02*
Y5503D01*
X33830Y21764D02*
Y22421D01*
X33820Y22431D02*
X33830Y22421D01*
D42*
X35580Y7972D02*
X36112Y8504D01*
X33303Y7972D02*
X35580D01*
X36112Y8504D02*
Y10130D01*
X35742Y7582D02*
X36612Y8452D01*
X33465Y7582D02*
X35742D01*
X35903Y7192D02*
X37112Y8401D01*
X33626Y7192D02*
X35903D01*
X36065Y6802D02*
X37612Y8349D01*
X33788Y6802D02*
X36065D01*
X36612Y8452D02*
Y10130D01*
X35612Y8574D02*
Y10130D01*
X37112Y8401D02*
Y10130D01*
X37612Y8349D02*
Y10130D01*
X43394Y19108D02*
Y26111D01*
X40641Y16355D02*
X43394Y19108D01*
X40337Y16355D02*
X40641D01*
X43694Y18912D02*
Y26465D01*
X40637Y15855D02*
X43694Y18912D01*
X40337Y15855D02*
X40637D01*
X12195Y7324D02*
X25785D01*
X31476Y4932D02*
X32086Y5542D01*
Y6755D01*
X32104Y3754D02*
X33256Y4906D01*
X31942Y4144D02*
X32866Y5068D01*
X31630Y4534D02*
X32476Y5380D01*
Y6593D01*
X32866Y5068D02*
Y6432D01*
X33256Y4906D02*
Y6270D01*
X40869Y27910D02*
X42249D01*
X39554Y26685D02*
X42820D01*
X38329Y27910D02*
X39554Y26685D01*
X5673Y7384D02*
X7168Y5889D01*
X3796Y7384D02*
X5673D01*
X2530Y8650D02*
X3796Y7384D01*
X9177Y10342D02*
X12195Y7324D01*
X7470Y10342D02*
X9177D01*
X5422Y9002D02*
X9158D01*
X1709Y9928D02*
X8868D01*
X1196Y9415D02*
X1709Y9928D01*
X5070Y8650D02*
X5422Y9002D01*
X5070Y6110D02*
X5741Y5439D01*
X1441Y6110D02*
X2530D01*
X1196Y6355D02*
X1441Y6110D01*
X1196Y6355D02*
Y9415D01*
X9158Y9002D02*
X11759Y6401D01*
X8868Y9928D02*
X11939Y6857D01*
X5070Y16270D02*
X6572Y14768D01*
Y11240D02*
X7470Y10342D01*
X6572Y11240D02*
Y14768D01*
X33256Y6270D02*
X33788Y6802D01*
X32866Y6432D02*
X33626Y7192D01*
X32476Y6593D02*
X33465Y7582D01*
X32086Y6755D02*
X33303Y7972D01*
X11939Y6857D02*
X25858D01*
X27783Y4932D01*
X31476D01*
X11759Y6401D02*
X25762D01*
X7168Y5889D02*
X25723D01*
X5741Y5439D02*
X25621D01*
X27306Y3754D01*
X25723Y5889D02*
X27468Y4144D01*
X25762Y6401D02*
X27629Y4534D01*
X31630D01*
X27468Y4144D02*
X31942D01*
X27306Y3754D02*
X32104D01*
X42559Y3979D02*
X43372Y4792D01*
X39916Y3979D02*
X42559D01*
X38272Y2335D02*
X39916Y3979D01*
X42249Y27910D02*
X43694Y26465D01*
X42820Y26685D02*
X43394Y26111D01*
X40812Y2335D02*
X42142D01*
X43684Y3877D01*
X43372Y4792D02*
Y8121D01*
X40638Y10855D02*
X43372Y8121D01*
X40337Y10855D02*
X40638D01*
X43684Y3877D02*
Y8257D01*
X40337Y11355D02*
X40586D01*
X43684Y8257D01*
X24219Y579D02*
X24918D01*
D43*
X34252Y20611D02*
X34336D01*
X34252Y20784D02*
X34819Y21351D01*
X34252Y20661D02*
Y20784D01*
X41509Y8483D02*
Y9102D01*
X41484Y8458D02*
X41509Y8483D01*
X38919Y20460D02*
X38946Y20487D01*
X38919Y19097D02*
Y20460D01*
X38612Y18790D02*
X38919Y19097D01*
X38612Y17080D02*
Y18790D01*
X40613Y7770D02*
X41926D01*
X40402Y7981D02*
X40613Y7770D01*
X40402Y7981D02*
Y8458D01*
X39544D02*
X40402D01*
X39112Y8890D02*
X39544Y8458D01*
X39112Y8890D02*
Y10130D01*
X47324Y11369D02*
X47966Y10726D01*
X48508Y8446D02*
X49125Y7829D01*
X58596Y23033D02*
Y23518D01*
X57667Y23085D02*
Y23594D01*
Y23085D02*
X57694Y23058D01*
X7350Y28165D02*
X8100Y27415D01*
X7350Y28165D02*
Y28865D01*
X3350D02*
X7350D01*
X2530Y28045D02*
X3350Y28865D01*
X2530Y26430D02*
Y28045D01*
X8350Y27165D02*
X9750D01*
X9800Y27215D01*
X10875D01*
X40929Y15418D02*
Y15519D01*
Y15418D02*
X40930Y15417D01*
X40868Y15355D02*
X40930Y15417D01*
X40592Y19780D02*
X40716Y19904D01*
X41339Y18546D02*
X41401Y18608D01*
Y18486D02*
Y18608D01*
X36787Y18480D02*
Y18518D01*
X36368Y18937D02*
X36787Y18518D01*
X36368Y18937D02*
Y19118D01*
X35612Y17080D02*
Y17523D01*
X38865Y11602D02*
X39612Y10855D01*
Y10130D02*
Y10855D01*
X36368Y19080D02*
Y19118D01*
Y19080D02*
X36377Y19071D01*
X36373Y19698D02*
X36839Y19232D01*
X36377Y19071D02*
X36461D01*
X39112Y18175D02*
X39653Y18716D01*
X39112Y17080D02*
Y18175D01*
X36612Y15604D02*
Y17080D01*
X34612Y15855D02*
X35719Y14747D01*
X16580Y2793D02*
X17189D01*
X16191Y3182D02*
X16580Y2793D01*
X16191Y3182D02*
Y4535D01*
X38112Y15850D02*
Y17053D01*
X39109Y15355D02*
X40337D01*
X39118Y11855D02*
X40337D01*
X6536Y1530D02*
X7604D01*
X9800Y1520D02*
X9962Y1682D01*
X8918Y1520D02*
X9800D01*
X18676Y28268D02*
X20396D01*
X20425Y28297D01*
X14975Y28347D02*
X16643D01*
X14925Y28297D02*
X14975Y28347D01*
X13833Y1763D02*
X14413D01*
X11772Y2793D02*
Y3559D01*
X20049Y3035D02*
X21050D01*
X21075Y3010D01*
X16127Y4598D02*
X17045D01*
X17206Y4437D01*
X16127Y4598D02*
X16191Y4535D01*
X15094Y4663D02*
X15282D01*
X15739Y4206D01*
Y3587D02*
Y4206D01*
X21500Y3975D02*
X22639D01*
X22649Y3985D01*
X34617Y12855D02*
X34849Y13087D01*
Y13604D01*
X38112Y11332D02*
X38382Y11602D01*
X38865D01*
X39118Y11855D01*
X38112Y15850D02*
X38356Y15606D01*
X38858D01*
X39109Y15355D01*
X35719Y14197D02*
Y14747D01*
Y14197D02*
X36311Y13605D01*
X36862D01*
X38101Y9442D02*
X38112Y9453D01*
Y11332D01*
X39612Y9692D02*
X39805Y9499D01*
X40261D01*
X39612Y9692D02*
Y10130D01*
X40261Y9499D02*
Y9923D01*
X24361Y24201D02*
Y24717D01*
X25451Y24998D02*
X25580Y24869D01*
Y24192D02*
Y24869D01*
X24973Y24998D02*
X25451D01*
X24642D02*
X24973D01*
X25205Y28180D02*
X26461D01*
X24973Y27948D02*
X25205Y28180D01*
X25224Y27697D02*
X26469D01*
X24973Y27948D02*
X25224Y27697D01*
X23552Y27917D02*
X24942D01*
X24973Y27948D01*
X34112Y17080D02*
Y17095D01*
X34103Y17104D02*
X34112Y17095D01*
X33456Y17104D02*
X34103D01*
X33172Y17388D02*
X33456Y17104D01*
X34252Y18883D02*
Y19561D01*
Y18883D02*
X35612Y17523D01*
X40337Y15355D02*
X40868D01*
X55191Y4977D02*
X55202Y4966D01*
X57555Y4949D02*
X57557Y4951D01*
X55687Y23058D02*
Y23605D01*
X55682Y23610D02*
X55687Y23605D01*
X31374Y12847D02*
X32337D01*
X40337Y11855D02*
X40643D01*
X41423Y11075D01*
X34612Y17080D02*
Y17367D01*
X34249Y17730D02*
X34612Y17367D01*
X33482Y17730D02*
X34249D01*
X23539Y25064D02*
X24907D01*
X35836Y19410D02*
Y19795D01*
X35772Y19859D02*
X35836Y19795D01*
D44*
X22567Y28340D02*
X22667D01*
X21249Y27022D02*
X22567Y28340D01*
X21249Y26860D02*
Y27022D01*
X36819Y26299D02*
X37249Y25869D01*
X36576Y26299D02*
X36819D01*
X37249Y25807D02*
Y25869D01*
X34430Y29206D02*
X39403Y24233D01*
X23338Y29206D02*
X34430D01*
X9000Y26115D02*
X10875D01*
Y25115D02*
Y26115D01*
X9623Y24184D02*
X12201D01*
X8600Y25207D02*
X9623Y24184D01*
X2004Y25207D02*
X8600D01*
X966Y24169D02*
X2004Y25207D01*
X12201Y24184D02*
X14877Y26860D01*
X41694Y17866D02*
X42446Y18618D01*
X39917Y17866D02*
X41694D01*
X39612Y17561D02*
X39917Y17866D01*
X31094Y9163D02*
Y9197D01*
X31489Y9592D01*
X39612Y17080D02*
Y17561D01*
X35854Y18727D02*
X37112Y17469D01*
X35854Y18727D02*
Y18902D01*
X37112Y17080D02*
Y17469D01*
X37314Y18512D02*
X37612Y18214D01*
Y17080D02*
Y18214D01*
X37314Y18512D02*
Y19988D01*
X26498Y26473D02*
X27935Y27910D01*
X30873D01*
X40516Y24233D02*
X41836Y22913D01*
X39403Y24233D02*
X40516D01*
X41836Y21452D02*
Y22913D01*
X22594Y28462D02*
X23338Y29206D01*
X41836Y21452D02*
X42446Y20842D01*
Y18618D02*
Y20842D01*
X10877Y4694D02*
X11176Y4395D01*
X8668Y4694D02*
X10877D01*
X7720Y3746D02*
X8668Y4694D01*
X11176Y4395D02*
X11810D01*
X14877Y26860D02*
X21249D01*
X18329Y3835D02*
X18423Y3741D01*
X17002Y1466D02*
X17173Y1637D01*
X16421Y1466D02*
X17002D01*
X18238Y4420D02*
X18958D01*
X18238Y3926D02*
Y4420D01*
X18180Y2789D02*
Y2790D01*
X17357Y3613D02*
X18180Y2790D01*
X17333Y3613D02*
X17357D01*
X19414Y2040D02*
X20004D01*
X18661Y2793D02*
X19414Y2040D01*
X18389Y2793D02*
X18661D01*
X18389D02*
Y2847D01*
X1803Y17562D02*
X3822D01*
X966Y18399D02*
X1803Y17562D01*
X966Y18399D02*
Y24169D01*
X3822Y17562D02*
X5070Y18810D01*
X21816Y25556D02*
X22633D01*
X21249Y26123D02*
X21816Y25556D01*
X21249Y26123D02*
Y26860D01*
X14925Y24297D02*
X20425D01*
X22574D02*
X22633Y24356D01*
X20425Y24297D02*
X22574D01*
X9962Y3782D02*
X10924Y2820D01*
Y2054D02*
Y2820D01*
Y2054D02*
X11292Y1686D01*
X11767D01*
X12967D02*
X13703Y950D01*
X15580D01*
X15739Y1109D01*
Y1737D01*
X13010Y4395D02*
X14189D01*
X14439Y4145D01*
Y3587D02*
Y4145D01*
X15089Y3029D02*
Y3587D01*
Y3029D02*
X15690Y2428D01*
X16279D01*
X17070Y1637D01*
X17173D01*
X12990Y2811D02*
Y3606D01*
Y2811D02*
X13008Y2793D01*
X14594D01*
X15089Y2298D01*
Y1737D02*
Y2298D01*
X2530Y21350D02*
X3787Y20093D01*
X6198D01*
X18958Y4420D02*
X19393Y3985D01*
X20049D01*
X13651Y24297D02*
X14925D01*
X13190Y23836D02*
X13651Y24297D01*
X13190Y22526D02*
Y23836D01*
X5070Y21350D02*
X6343D01*
X37307Y20462D02*
Y21494D01*
X8043Y12178D02*
Y19650D01*
X6343Y21350D02*
X8043Y19650D01*
X7405Y13196D02*
X7453Y13244D01*
Y18838D01*
X6198Y20093D02*
X7453Y18838D01*
X4350Y1275D02*
X4725D01*
X5070Y1620D01*
Y3570D01*
X31489Y9592D02*
X31846D01*
X30873Y27910D02*
X31945Y26837D01*
Y22598D02*
Y26837D01*
X36862Y13605D02*
X37112Y13855D01*
X40337D02*
X40891D01*
X40919Y13827D01*
X37112Y13855D02*
X40337D01*
Y13355D02*
X40902D01*
X37112D02*
X40234D01*
X35112Y17080D02*
Y17456D01*
X32981Y19587D02*
X35112Y17456D01*
X32837Y19587D02*
X32981D01*
X32800Y20530D02*
X33047Y20777D01*
Y21497D01*
X31945Y22598D02*
X33047Y21497D01*
X2530Y2011D02*
Y3570D01*
Y2011D02*
X3250Y1291D01*
Y1275D02*
Y1291D01*
D45*
X5535Y25965D02*
X7350D01*
D46*
X45179Y15777D02*
X45930D01*
X48401Y15778D02*
X55181Y22558D01*
X46404Y15778D02*
X48401D01*
X41263Y20211D02*
X41306Y20168D01*
X35463Y18362D02*
X35534Y18291D01*
X36099Y17067D02*
X36112Y17080D01*
X55181Y22558D02*
X56432D01*
X56906D02*
X62502D01*
D47*
X30965Y2088D02*
X32854D01*
X30471Y2582D02*
X30965Y2088D01*
X36710D02*
X36722Y2100D01*
X35804Y2088D02*
X36710D01*
X32854Y2898D02*
X33719Y3763D01*
X32854Y2088D02*
Y2898D01*
X35500Y18327D02*
X36112Y17715D01*
X35500Y18327D02*
Y18419D01*
D48*
X42235Y12392D02*
X42283Y12344D01*
X43088D01*
X43303Y12559D01*
X41686Y12344D02*
X41730Y12388D01*
X42297Y11898D02*
X43088D01*
X42253Y11854D02*
X42297Y11898D01*
X43088D02*
X43303Y11683D01*
X40533Y12828D02*
X41093D01*
Y12829D02*
X41578Y12344D01*
X40909Y12381D02*
X41392Y11898D01*
X40363Y12382D02*
X40909D01*
X43303Y11371D02*
Y11683D01*
X41392Y11898D02*
X41701D01*
X41578Y12344D02*
X41686D01*
X43303Y12559D02*
Y12871D01*
D49*
X40337Y12855D02*
X40359Y12832D01*
X40337Y12355D02*
X40363Y12381D01*
X30231Y17235D02*
X32547Y14919D01*
X30445Y17549D02*
X32702Y15292D01*
X41343Y19156D02*
X41558Y19371D01*
X40030Y19156D02*
X41343D01*
X39653Y18779D02*
X40030Y19156D01*
X39653Y18716D02*
Y18779D01*
X19494Y10399D02*
X19943Y9950D01*
X19494Y10399D02*
Y10923D01*
X18673Y9950D02*
X19122Y10399D01*
Y11078D01*
X19494Y10923D02*
X19934Y11363D01*
X19122Y11078D02*
X19122D01*
X19780Y11736D01*
X19934Y11363D02*
X25069D01*
X19780Y11736D02*
X19780Y11736D01*
X25224D01*
X25069Y11363D02*
X26788Y9644D01*
X25224Y11736D02*
X26943Y10017D01*
X30466D01*
X26788Y9644D02*
X30621D01*
X15684Y10399D02*
X16133Y9950D01*
X15684Y10399D02*
Y11220D01*
X14863Y9950D02*
X15311Y10399D01*
X15684Y11220D02*
X16660Y12195D01*
X15311Y10399D02*
Y11375D01*
X16505Y12568D01*
X16660Y12195D02*
X25578D01*
X27063Y10710D01*
X16505Y12568D02*
X25733D01*
X27537Y10764D01*
X29982D01*
X27063Y10710D02*
X27063D01*
X27382Y10391D01*
X30136D01*
X30455Y10710D01*
X30456D01*
X31656Y11910D01*
X29982Y10764D02*
X31501Y12283D01*
X19494Y15545D02*
X19943Y15096D01*
X18673D02*
X19122Y15545D01*
X25160Y16802D02*
X26938Y15023D01*
X32734Y13418D02*
X32734Y13418D01*
X33323D01*
X32888Y13791D02*
X32888Y13791D01*
X33323D01*
X33387Y13855D01*
X33323Y13418D02*
X33387Y13355D01*
X30466Y10017D02*
X31743Y11294D01*
X33326D01*
X33387Y11355D01*
X30621Y9644D02*
X31898Y10921D01*
X33320D01*
X33387Y10855D01*
X31656Y11910D02*
X33331D01*
X31501Y12283D02*
X32880D01*
X32880Y12283D01*
X33315D01*
X33387Y12355D01*
X33331Y11910D02*
X33387Y11855D01*
X18673Y20192D02*
X19122Y20640D01*
X19494D02*
X19943Y20192D01*
X32547Y14919D02*
X33322D01*
X33387Y14855D01*
X32702Y15292D02*
X33324D01*
X33387Y15355D01*
X15684Y20640D02*
Y21897D01*
Y20640D02*
X16133Y20192D01*
X16626Y22839D02*
X26540D01*
X15684Y21897D02*
X16626Y22839D01*
X15311Y20640D02*
Y22052D01*
X14863Y20192D02*
X15311Y20640D01*
Y22052D02*
X16472Y23212D01*
X26694D01*
X33325Y15916D02*
X33387Y15855D01*
X33321Y16289D02*
X33387Y16355D01*
X19122Y20640D02*
Y21341D01*
X19494Y20640D02*
Y21187D01*
X19122Y21341D02*
X19841Y22061D01*
X19494Y21187D02*
X19996Y21688D01*
X19841Y22061D02*
X25400D01*
X19996Y21688D02*
X25246D01*
X26540Y22839D02*
X27480Y21899D01*
X29813D01*
X26694Y23212D02*
X27635Y22272D01*
X29968D01*
X31758Y20482D01*
X32778Y15916D02*
X33325D01*
X32932Y16289D02*
X33321D01*
X30445Y17549D02*
Y19999D01*
X30231Y17235D02*
Y17235D01*
X30072Y17394D02*
X30231Y17235D01*
X30072Y17394D02*
Y19844D01*
X31385Y17309D02*
X32778Y15916D01*
X31385Y17309D02*
Y20327D01*
X29813Y21899D02*
X31385Y20327D01*
X31758Y17463D02*
X32932Y16289D01*
X31758Y17463D02*
Y20482D01*
X19122Y15545D02*
Y16327D01*
X19969Y17175D01*
X25314D01*
X19494Y15545D02*
Y16173D01*
X20124Y16802D01*
X25160D01*
X30509Y13418D02*
X32734D01*
X30663Y13791D02*
X32888D01*
X25314Y17175D02*
X27093Y15396D01*
X29059D01*
X30663Y13791D01*
X26938Y15023D02*
X28904D01*
X30509Y13418D01*
X25246Y21688D02*
X26154Y20779D01*
X29138D01*
X30072Y19844D01*
X25400Y22061D02*
X26309Y21152D01*
X29292D01*
X30445Y19999D01*
X42706Y14935D02*
X43003D01*
D50*
X51824Y6001D02*
X56087D01*
X44956Y12871D02*
X45282Y12545D01*
X44622Y12871D02*
X44956D01*
X56647Y6000D02*
X62526D01*
X45661Y12164D02*
X51824Y6001D01*
D51*
X40337Y14384D02*
X41379D01*
X42474Y15609D02*
X42656Y15791D01*
X42854D01*
X42472Y15169D02*
X42706Y14935D01*
X41379Y14385D02*
X42163Y15169D01*
X42472D01*
X40377Y14825D02*
X41195D01*
X41979Y15609D01*
X42474D01*
D52*
X43956Y12060D02*
X45050D01*
X43953Y10651D02*
Y13892D01*
X43832Y14032D02*
Y15444D01*
Y16794D01*
D53*
X44433Y14557D02*
D03*
D54*
X42897Y15778D02*
D03*
D55*
Y14978D02*
D03*
D56*
X44757Y15778D02*
D03*
D57*
X60704Y22558D02*
D03*
D58*
X60570D02*
D03*
D59*
X38112Y18517D02*
D03*
D60*
X35921Y19851D02*
D03*
D61*
X36383Y19526D02*
D03*
D62*
X38017Y18903D02*
D03*
D63*
X8000Y7380D02*
D03*
Y22620D02*
D03*
X23673Y15096D02*
D03*
X10843Y16096D02*
D03*
X23673Y9950D02*
D03*
X10843Y10950D02*
D03*
X23673Y20192D02*
D03*
X10843Y21192D02*
D03*
D64*
X21213Y13596D02*
D03*
X19943Y15096D02*
D03*
X18673D02*
D03*
X17403Y13596D02*
D03*
X16133Y15096D02*
D03*
X13593Y13596D02*
D03*
X21213Y8450D02*
D03*
X19943Y9950D02*
D03*
X18673D02*
D03*
X17403Y8450D02*
D03*
X16133Y9950D02*
D03*
X13593Y8450D02*
D03*
X21213Y18692D02*
D03*
X19943Y20192D02*
D03*
X18673D02*
D03*
X17403Y18692D02*
D03*
X16133Y20192D02*
D03*
X13593Y18692D02*
D03*
D65*
X14863Y15096D02*
D03*
Y9950D02*
D03*
Y20192D02*
D03*
D66*
X30873Y27910D02*
D03*
X40869D02*
D03*
X38272Y2335D02*
D03*
X33413Y27910D02*
D03*
X27931Y2582D02*
D03*
D67*
X62802Y25383D02*
D03*
Y19733D02*
D03*
X62826Y8825D02*
D03*
Y3175D02*
D03*
D68*
X38329Y27910D02*
D03*
X40812Y2335D02*
D03*
X30471Y2582D02*
D03*
D69*
X2530Y26430D02*
D03*
X5070Y21350D02*
D03*
X2530D02*
D03*
Y23890D02*
D03*
X5070D02*
D03*
X2530Y3570D02*
D03*
Y6110D02*
D03*
X5070D02*
D03*
X2530Y13730D02*
D03*
X5070Y11190D02*
D03*
X2530D02*
D03*
Y8650D02*
D03*
X5070Y13730D02*
D03*
Y8650D02*
D03*
Y16270D02*
D03*
X2530Y18810D02*
D03*
X5070D02*
D03*
X2530Y16270D02*
D03*
X5070Y3570D02*
D03*
D70*
Y26430D02*
D03*
D71*
X62920Y27520D02*
D03*
X61920Y17520D02*
D03*
X62920Y15520D02*
D03*
X61920Y13520D02*
D03*
X62920Y11520D02*
D03*
X61920Y1520D02*
D03*
X60920Y27520D02*
D03*
X59920Y25520D02*
D03*
Y17520D02*
D03*
X60920Y15520D02*
D03*
X59920Y13520D02*
D03*
X60920Y11520D02*
D03*
X59920Y9520D02*
D03*
Y1520D02*
D03*
X58920Y27520D02*
D03*
X57920Y25520D02*
D03*
X58920Y19520D02*
D03*
X57920Y17520D02*
D03*
X58920Y15520D02*
D03*
X57920Y13520D02*
D03*
X58920Y11520D02*
D03*
X57920Y9520D02*
D03*
X58920Y7520D02*
D03*
Y3520D02*
D03*
X57920Y1520D02*
D03*
X56920Y27520D02*
D03*
X55920Y25520D02*
D03*
X56920Y23520D02*
D03*
X55920Y21520D02*
D03*
X56920Y19520D02*
D03*
X55920Y17520D02*
D03*
X56920Y15520D02*
D03*
X55920Y13520D02*
D03*
X56920Y11520D02*
D03*
X55920Y9520D02*
D03*
X56920Y7520D02*
D03*
Y3520D02*
D03*
X55920Y1520D02*
D03*
X54920Y27520D02*
D03*
X53920Y25520D02*
D03*
X54920Y19520D02*
D03*
X53920Y17520D02*
D03*
X54920Y15520D02*
D03*
X53920Y13520D02*
D03*
X54920Y11520D02*
D03*
X53920Y9520D02*
D03*
X54920Y3520D02*
D03*
X53920Y1520D02*
D03*
X52920Y27520D02*
D03*
X51920Y25520D02*
D03*
X52920Y23520D02*
D03*
X51920Y21520D02*
D03*
Y17520D02*
D03*
X52920Y15520D02*
D03*
X51920Y13520D02*
D03*
X52920Y11520D02*
D03*
X51920Y9520D02*
D03*
X52920Y3520D02*
D03*
X51920Y1520D02*
D03*
X50920Y27520D02*
D03*
X49920Y25520D02*
D03*
X50920Y23520D02*
D03*
X49920Y21520D02*
D03*
X50920Y15520D02*
D03*
X49920Y13520D02*
D03*
X50920Y11520D02*
D03*
X49920Y5520D02*
D03*
X50920Y3520D02*
D03*
X49920Y1520D02*
D03*
X48920Y27520D02*
D03*
Y3520D02*
D03*
X47920Y1520D02*
D03*
X45920Y21520D02*
D03*
X46920Y19520D02*
D03*
X45920Y17520D02*
D03*
Y13520D02*
D03*
X46920Y3520D02*
D03*
X45920Y1520D02*
D03*
X44920Y27520D02*
D03*
Y23520D02*
D03*
Y19520D02*
D03*
X43920Y9520D02*
D03*
X44920Y7520D02*
D03*
Y3520D02*
D03*
X43920Y1520D02*
D03*
X34396Y9377D02*
D03*
X37429Y7272D02*
D03*
X41509Y9102D02*
D03*
X6103Y28318D02*
D03*
X38946Y20374D02*
D03*
X41401Y18486D02*
D03*
X33823Y22630D02*
D03*
X40713Y6916D02*
D03*
X39135Y4631D02*
D03*
X37516Y5840D02*
D03*
X35392Y4655D02*
D03*
X27527Y16384D02*
D03*
X41991Y6907D02*
D03*
X41410Y4706D02*
D03*
X27535Y8677D02*
D03*
X27481Y6749D02*
D03*
X27558Y19379D02*
D03*
X27533Y17634D02*
D03*
X27444Y13762D02*
D03*
X27375Y12336D02*
D03*
X39631Y6853D02*
D03*
X38615Y6883D02*
D03*
X41174Y22650D02*
D03*
X42425Y22790D02*
D03*
X41306Y20168D02*
D03*
X40716Y19904D02*
D03*
X38865Y11602D02*
D03*
X36845D02*
D03*
X34860Y11606D02*
D03*
X34849Y13604D02*
D03*
X36862Y13605D02*
D03*
X38859Y13611D02*
D03*
X38858Y15606D02*
D03*
X36861Y15604D02*
D03*
X34869Y15605D02*
D03*
X3818Y28294D02*
D03*
X38391Y22941D02*
D03*
X38378Y23667D02*
D03*
X35025Y20041D02*
D03*
X21920Y9520D02*
D03*
X19920Y25520D02*
D03*
Y13520D02*
D03*
X17920Y21520D02*
D03*
Y17520D02*
D03*
X15920Y25520D02*
D03*
Y17520D02*
D03*
Y13520D02*
D03*
X13920Y21520D02*
D03*
Y17520D02*
D03*
X12920Y19520D02*
D03*
X11920Y17520D02*
D03*
X12920Y15520D02*
D03*
X11920Y13520D02*
D03*
X12920Y11520D02*
D03*
X11920Y9520D02*
D03*
X10920Y23520D02*
D03*
Y19520D02*
D03*
X9920Y17520D02*
D03*
Y13520D02*
D03*
X8920Y19520D02*
D03*
Y15520D02*
D03*
X5920Y17520D02*
D03*
X1920Y1520D02*
D03*
X920Y27520D02*
D03*
Y11520D02*
D03*
Y3520D02*
D03*
X19149Y1285D02*
D03*
X36722Y2100D02*
D03*
X15094Y4663D02*
D03*
X13833Y1763D02*
D03*
X12990Y3606D02*
D03*
X11718Y3559D02*
D03*
X22639Y26431D02*
D03*
X6536Y1530D02*
D03*
X8918Y1520D02*
D03*
X13116Y27687D02*
D03*
X13181Y28743D02*
D03*
X10875Y25065D02*
D03*
X21249Y26860D02*
D03*
X16643Y28347D02*
D03*
X18676Y28268D02*
D03*
X17333Y3613D02*
D03*
X16127Y4598D02*
D03*
X16421Y1466D02*
D03*
X18238Y3744D02*
D03*
X21075Y3010D02*
D03*
X21500Y3975D02*
D03*
X23549Y4785D02*
D03*
X25566Y951D02*
D03*
X26294Y3803D02*
D03*
X13190Y22526D02*
D03*
X8021Y12172D02*
D03*
X784Y16263D02*
D03*
X764Y14028D02*
D03*
X7427Y13180D02*
D03*
X33361Y9429D02*
D03*
X31094Y9163D02*
D03*
X24623Y4848D02*
D03*
X27508Y24537D02*
D03*
Y23615D02*
D03*
X29517Y26546D02*
D03*
X27590Y26464D02*
D03*
X31812Y21545D02*
D03*
X33123Y25337D02*
D03*
X35398Y26587D02*
D03*
X35746Y22693D02*
D03*
X36402Y28677D02*
D03*
X39128Y25541D02*
D03*
X38493Y26341D02*
D03*
X41464Y24168D02*
D03*
X42632Y24127D02*
D03*
X45127Y24504D02*
D03*
X47255Y22377D02*
D03*
X49284Y24587D02*
D03*
X47185Y18647D02*
D03*
X49343Y18597D02*
D03*
X48152Y20854D02*
D03*
X47207Y16621D02*
D03*
X47061Y12572D02*
D03*
X46987Y13960D02*
D03*
X49392Y12646D02*
D03*
X49367Y14432D02*
D03*
X45469Y10924D02*
D03*
X46516Y9770D02*
D03*
X47508Y8753D02*
D03*
X49640Y6794D02*
D03*
X51277Y5108D02*
D03*
X53260Y4984D02*
D03*
X48871Y10489D02*
D03*
X50062Y9398D02*
D03*
X51500Y8009D02*
D03*
X53310Y6893D02*
D03*
X55269D02*
D03*
X59773Y4867D02*
D03*
X56228Y4841D02*
D03*
X49752Y15958D02*
D03*
X51154Y17360D02*
D03*
X50798Y19557D02*
D03*
X53498Y22173D02*
D03*
X52451Y18637D02*
D03*
X53686Y19871D02*
D03*
X54599Y23389D02*
D03*
X57427Y21606D02*
D03*
X59722Y21504D02*
D03*
X59804Y23717D02*
D03*
X47534Y4687D02*
D03*
X45134Y8617D02*
D03*
X45405Y4741D02*
D03*
X45085Y21190D02*
D03*
X31016Y15538D02*
D03*
X24511Y1081D02*
D03*
X46203Y14816D02*
D03*
X44810Y13929D02*
D03*
X38862Y11605D02*
D03*
X36862D02*
D03*
X34862D02*
D03*
Y13605D02*
D03*
Y15605D02*
D03*
X36862D02*
D03*
X38862Y13605D02*
D03*
Y15605D02*
D03*
X36862Y13605D02*
D03*
D72*
X38055Y19442D02*
D03*
X38134Y18680D02*
D03*
X32782Y8174D02*
D03*
X41275Y13848D02*
D03*
X43832Y15444D02*
D03*
X43207Y13889D02*
D03*
X43150Y16832D02*
D03*
X41875Y13851D02*
D03*
X41864Y13173D02*
D03*
X42528Y13144D02*
D03*
X41459Y11112D02*
D03*
X38041Y8601D02*
D03*
Y9042D02*
D03*
X40929Y15519D02*
D03*
X34819Y21351D02*
D03*
X30212Y15394D02*
D03*
X30320Y15838D02*
D03*
X32462Y7859D02*
D03*
X55202Y4966D02*
D03*
X57555Y4949D02*
D03*
X58441Y4944D02*
D03*
X58596Y23527D02*
D03*
X25785Y7324D02*
D03*
X35612Y8637D02*
D03*
X41926Y7770D02*
D03*
X37808Y19052D02*
D03*
X35534Y18291D02*
D03*
X36068Y17777D02*
D03*
X36347Y19944D02*
D03*
X36357Y19560D02*
D03*
X36368Y19118D02*
D03*
X35782Y19830D02*
D03*
X41471Y19357D02*
D03*
X38140Y18099D02*
D03*
X36722Y1437D02*
D03*
X32725Y12899D02*
D03*
X32337Y12847D02*
D03*
X39612Y10130D02*
D03*
X40261Y9923D02*
D03*
X40336Y9553D02*
D03*
X40735Y9812D02*
D03*
X38101Y9442D02*
D03*
X23552Y27917D02*
D03*
X26461Y28180D02*
D03*
X26469Y27697D02*
D03*
X23539Y25064D02*
D03*
X24361Y24201D02*
D03*
X25580Y24192D02*
D03*
X33482Y17730D02*
D03*
X33172Y17388D02*
D03*
X33025Y17956D02*
D03*
X32767Y18413D02*
D03*
X32499Y17961D02*
D03*
X40868Y13586D02*
D03*
X42581Y13897D02*
D03*
X44014Y17559D02*
D03*
X42289Y16858D02*
D03*
X43133Y10262D02*
D03*
X43787Y10255D02*
D03*
X43947Y12055D02*
D03*
X57667Y23594D02*
D03*
X55682Y23610D02*
D03*
X33649Y21263D02*
D03*
X41680Y16248D02*
D03*
X32013Y7902D02*
D03*
X43832Y16794D02*
D03*
X41253Y13302D02*
D03*
X43951Y13902D02*
D03*
D73*
X33719Y3763D02*
D03*
M02*
