%FSLAX43Y43*%
%MOMM*%
G71*
G01*
G75*
%ADD10R,3.600X1.800*%
%ADD11R,0.800X0.650*%
%ADD12R,0.650X0.800*%
%ADD13R,0.282X0.205*%
%ADD14R,0.205X0.282*%
%ADD15R,1.200X1.200*%
%ADD16R,0.900X0.600*%
%ADD17R,0.600X0.900*%
%ADD18R,0.350X0.350*%
%ADD19R,0.350X0.350*%
G04:AMPARAMS|DCode=20|XSize=0.205mm|YSize=0.282mm|CornerRadius=0mm|HoleSize=0mm|Usage=FLASHONLY|Rotation=315.000|XOffset=0mm|YOffset=0mm|HoleType=Round|Shape=Rectangle|*
%AMROTATEDRECTD20*
4,1,4,-0.172,-0.027,0.027,0.172,0.172,0.027,-0.027,-0.172,-0.172,-0.027,0.0*
%
%ADD20ROTATEDRECTD20*%

%ADD21R,0.350X0.700*%
%ADD22R,0.600X0.600*%
%ADD23R,0.950X1.750*%
%ADD24R,0.600X0.500*%
%ADD25R,0.762X0.762*%
%ADD26R,0.350X0.850*%
%ADD27R,1.100X0.700*%
%ADD28O,0.700X0.250*%
%ADD29O,0.250X0.700*%
%ADD30R,4.700X4.700*%
%ADD31R,1.600X1.400*%
%ADD32R,0.300X0.700*%
%ADD33R,1.300X1.100*%
%ADD34R,2.250X1.000*%
%ADD35R,2.200X1.050*%
%ADD36R,1.050X1.000*%
%ADD37R,1.200X3.200*%
%ADD38R,3.000X3.000*%
%ADD39R,3.200X1.200*%
%ADD40C,0.300*%
%ADD41C,0.254*%
%ADD42C,0.150*%
%ADD43C,0.203*%
%ADD44C,0.175*%
%ADD45C,0.152*%
%ADD46C,0.200*%
%ADD47C,0.400*%
%ADD48C,0.195*%
%ADD49C,0.170*%
%ADD50C,0.210*%
%ADD51C,0.190*%
%ADD52C,0.350*%
%ADD53R,1.547X1.240*%
%ADD54R,0.920X0.400*%
%ADD55R,0.920X0.400*%
%ADD56R,0.900X0.400*%
%ADD57R,0.002X0.195*%
%ADD58R,0.000X0.195*%
%ADD59R,0.486X1.169*%
%ADD60R,0.729X0.544*%
%ADD61R,0.428X1.195*%
%ADD62R,0.643X0.715*%
%ADD63C,2.000*%
%ADD64O,0.900X1.200*%
%ADD65O,0.900X1.250*%
%ADD66C,1.700*%
%ADD67R,4.200X1.350*%
%ADD68R,1.700X1.700*%
%ADD69C,1.800*%
%ADD70R,1.800X1.800*%
%ADD71C,0.550*%
%ADD72C,0.350*%
%ADD73C,0.800*%
%ADD74C,0.737*%
%ADD75C,0.250*%
%ADD76C,0.100*%
%ADD77C,0.102*%
%ADD78R,0.875X0.550*%
%ADD79R,1.750X1.750*%
%ADD80R,2.100X2.100*%
G04:AMPARAMS|DCode=81|XSize=1.65mm|YSize=1.65mm|CornerRadius=0.412mm|HoleSize=0mm|Usage=FLASHONLY|Rotation=0.000|XOffset=0mm|YOffset=0mm|HoleType=Round|Shape=RoundedRectangle|*
%AMROUNDEDRECTD81*
21,1,1.650,0.825,0,0,0.0*
21,1,0.825,1.650,0,0,0.0*
1,1,0.825,0.412,-0.412*
1,1,0.825,-0.412,-0.412*
1,1,0.825,-0.412,0.412*
1,1,0.825,0.412,0.412*
%
%ADD81ROUNDEDRECTD81*%
%ADD82R,2.100X2.100*%
%ADD83R,3.850X1.150*%
%ADD84R,3.599X1.806*%
%ADD85R,3.603X1.802*%
%ADD86R,1.550X1.350*%
%ADD87R,4.700X1.400*%
%ADD88R,1.400X4.700*%
%ADD89R,1.950X0.850*%
%ADD90R,0.900X0.750*%
%ADD91R,0.750X0.900*%
%ADD92R,0.408X0.332*%
%ADD93R,0.332X0.408*%
%ADD94R,1.300X1.300*%
%ADD95R,1.000X0.700*%
%ADD96R,0.700X1.000*%
G04:AMPARAMS|DCode=97|XSize=0.332mm|YSize=0.408mm|CornerRadius=0mm|HoleSize=0mm|Usage=FLASHONLY|Rotation=315.000|XOffset=0mm|YOffset=0mm|HoleType=Round|Shape=Rectangle|*
%AMROTATEDRECTD97*
4,1,4,-0.261,-0.027,0.027,0.261,0.261,0.027,-0.027,-0.261,-0.261,-0.027,0.0*
%
%ADD97ROTATEDRECTD97*%

%ADD98R,0.450X0.800*%
%ADD99R,0.700X0.700*%
%ADD100R,1.050X1.850*%
%ADD101R,0.700X0.600*%
%ADD102R,0.862X0.862*%
%ADD103R,0.450X0.950*%
%ADD104R,1.240X0.840*%
%ADD105O,0.800X0.350*%
%ADD106O,0.350X0.800*%
%ADD107R,1.750X1.550*%
%ADD108R,0.450X0.850*%
%ADD109R,1.400X1.200*%
%ADD110R,2.350X1.100*%
%ADD111R,2.300X1.150*%
%ADD112R,1.150X1.100*%
%ADD113R,1.300X3.300*%
%ADD114R,3.100X3.100*%
%ADD115R,3.300X1.300*%
%ADD116C,2.100*%
%ADD117O,1.000X1.300*%
%ADD118O,1.000X1.350*%
%ADD119R,1.800X1.800*%
%ADD120C,1.900*%
%ADD121R,1.900X1.900*%
%ADD122C,0.900*%
%ADD123C,0.650*%
%ADD124C,0.837*%
%ADD125C,0.127*%
%ADD126C,0.169*%
%ADD127C,0.406*%
%ADD128C,0.119*%
D125*
X7000Y7380D02*
X9000D01*
X8000Y6380D02*
Y8380D01*
X7000Y22620D02*
X9000D01*
X8000Y21620D02*
Y23620D01*
X22961Y15096D02*
X24385D01*
X23673Y14384D02*
Y15809D01*
X20838Y13596D02*
X21588D01*
X21213Y13221D02*
Y13971D01*
X19568Y15096D02*
X20318D01*
X19943Y14721D02*
Y15471D01*
X18298Y15096D02*
X19048D01*
X18673Y14721D02*
Y15471D01*
X17028Y13596D02*
X17778D01*
X17403Y13221D02*
Y13971D01*
X15758Y15096D02*
X16508D01*
X16133Y14721D02*
Y15471D01*
X14488Y15096D02*
X15238D01*
X14863Y14721D02*
Y15471D01*
X13218Y13596D02*
X13968D01*
X13593Y13221D02*
Y13971D01*
X10130Y16096D02*
X11556D01*
X10843Y15384D02*
Y16809D01*
X22961Y9950D02*
X24385D01*
X23673Y9238D02*
Y10663D01*
X20838Y8450D02*
X21588D01*
X21213Y8075D02*
Y8825D01*
X19568Y9950D02*
X20318D01*
X19943Y9575D02*
Y10325D01*
X18298Y9950D02*
X19048D01*
X18673Y9575D02*
Y10325D01*
X17028Y8450D02*
X17778D01*
X17403Y8075D02*
Y8825D01*
X15758Y9950D02*
X16508D01*
X16133Y9575D02*
Y10325D01*
X14488Y9950D02*
X15238D01*
X14863Y9575D02*
Y10325D01*
X13218Y8450D02*
X13968D01*
X13593Y8075D02*
Y8825D01*
X10130Y10950D02*
X11556D01*
X10843Y10238D02*
Y11663D01*
X30373Y27910D02*
X31373D01*
X30873Y27410D02*
Y28410D01*
X62402Y25383D02*
X63202D01*
X62802Y24983D02*
Y25783D01*
X62402Y19733D02*
X63202D01*
X62802Y19333D02*
Y20133D01*
X40369Y27910D02*
X41369D01*
X40869Y27410D02*
Y28410D01*
X37829Y27910D02*
X38829D01*
X38329Y27410D02*
Y28410D01*
X37772Y2335D02*
X38772D01*
X38272Y1835D02*
Y2835D01*
X40312Y2335D02*
X41312D01*
X40812Y1835D02*
Y2835D01*
X62426Y8825D02*
X63226D01*
X62826Y8425D02*
Y9225D01*
X62426Y3175D02*
X63226D01*
X62826Y2775D02*
Y3575D01*
X2030Y26430D02*
X3030D01*
X2530Y25930D02*
Y26930D01*
X4570Y21350D02*
X5570D01*
X5070Y20850D02*
Y21850D01*
X2030Y21350D02*
X3030D01*
X2530Y20850D02*
Y21850D01*
X2030Y23890D02*
X3030D01*
X2530Y23390D02*
Y24390D01*
X4570Y23890D02*
X5570D01*
X5070Y23390D02*
Y24390D01*
X2030Y3570D02*
X3030D01*
X2530Y3070D02*
Y4070D01*
X2030Y6110D02*
X3030D01*
X2530Y5610D02*
Y6610D01*
X4570Y6110D02*
X5570D01*
X5070Y5610D02*
Y6610D01*
X2030Y13730D02*
X3030D01*
X2530Y13230D02*
Y14230D01*
X4570Y11190D02*
X5570D01*
X5070Y10690D02*
Y11690D01*
X2030Y11190D02*
X3030D01*
X2530Y10690D02*
Y11690D01*
X2030Y8650D02*
X3030D01*
X2530Y8150D02*
Y9150D01*
X4570Y13730D02*
X5570D01*
X5070Y13230D02*
Y14230D01*
X4570Y8650D02*
X5570D01*
X5070Y8150D02*
Y9150D01*
X4570Y16270D02*
X5570D01*
X5070Y15770D02*
Y16770D01*
X2030Y18810D02*
X3030D01*
X2530Y18310D02*
Y19310D01*
X4570Y18810D02*
X5570D01*
X5070Y18310D02*
Y19310D01*
X2030Y16270D02*
X3030D01*
X2530Y15770D02*
Y16770D01*
X4570Y3570D02*
X5570D01*
X5070Y3070D02*
Y4070D01*
X4570Y26430D02*
X5570D01*
X5070Y25930D02*
Y26930D01*
X32913Y27910D02*
X33913D01*
X33413Y27410D02*
Y28410D01*
X27431Y2582D02*
X28431D01*
X27931Y2082D02*
Y3082D01*
X29971Y2582D02*
X30971D01*
X30471Y2082D02*
Y3082D01*
X22961Y20192D02*
X24385D01*
X23673Y19479D02*
Y20904D01*
X20838Y18692D02*
X21588D01*
X21213Y18317D02*
Y19067D01*
X19568Y20192D02*
X20318D01*
X19943Y19817D02*
Y20567D01*
X18298Y20192D02*
X19048D01*
X18673Y19817D02*
Y20567D01*
X17028Y18692D02*
X17778D01*
X17403Y18317D02*
Y19067D01*
X15758Y20192D02*
X16508D01*
X16133Y19817D02*
Y20567D01*
X14488Y20192D02*
X15238D01*
X14863Y19817D02*
Y20567D01*
X13218Y18692D02*
X13968D01*
X13593Y18317D02*
Y19067D01*
X10130Y21192D02*
X11556D01*
X10843Y20479D02*
Y21904D01*
X62795Y27520D02*
X63045D01*
X62920Y27395D02*
Y27645D01*
X61795Y17520D02*
X62045D01*
X61920Y17395D02*
Y17645D01*
X62795Y15520D02*
X63045D01*
X62920Y15395D02*
Y15645D01*
X61795Y13520D02*
X62045D01*
X61920Y13395D02*
Y13645D01*
X62795Y11520D02*
X63045D01*
X62920Y11395D02*
Y11645D01*
X61795Y1520D02*
X62045D01*
X61920Y1395D02*
Y1645D01*
X60795Y27520D02*
X61045D01*
X60920Y27395D02*
Y27645D01*
X59795Y25520D02*
X60045D01*
X59920Y25395D02*
Y25645D01*
X59795Y17520D02*
X60045D01*
X59920Y17395D02*
Y17645D01*
X60795Y15520D02*
X61045D01*
X60920Y15395D02*
Y15645D01*
X59795Y13520D02*
X60045D01*
X59920Y13395D02*
Y13645D01*
X60795Y11520D02*
X61045D01*
X60920Y11395D02*
Y11645D01*
X59795Y9520D02*
X60045D01*
X59920Y9395D02*
Y9645D01*
X59795Y1520D02*
X60045D01*
X59920Y1395D02*
Y1645D01*
X58795Y27520D02*
X59045D01*
X58920Y27395D02*
Y27645D01*
X57795Y25520D02*
X58045D01*
X57920Y25395D02*
Y25645D01*
X58795Y19520D02*
X59045D01*
X58920Y19395D02*
Y19645D01*
X57795Y17520D02*
X58045D01*
X57920Y17395D02*
Y17645D01*
X58795Y15520D02*
X59045D01*
X58920Y15395D02*
Y15645D01*
X57795Y13520D02*
X58045D01*
X57920Y13395D02*
Y13645D01*
X58795Y11520D02*
X59045D01*
X58920Y11395D02*
Y11645D01*
X57795Y9520D02*
X58045D01*
X57920Y9395D02*
Y9645D01*
X58795Y7520D02*
X59045D01*
X58920Y7395D02*
Y7645D01*
X58795Y3520D02*
X59045D01*
X58920Y3395D02*
Y3645D01*
X57795Y1520D02*
X58045D01*
X57920Y1395D02*
Y1645D01*
X56795Y27520D02*
X57045D01*
X56920Y27395D02*
Y27645D01*
X55795Y25520D02*
X56045D01*
X55920Y25395D02*
Y25645D01*
X56795Y23520D02*
X57045D01*
X56920Y23395D02*
Y23645D01*
X55795Y21520D02*
X56045D01*
X55920Y21395D02*
Y21645D01*
X56795Y19520D02*
X57045D01*
X56920Y19395D02*
Y19645D01*
X55795Y17520D02*
X56045D01*
X55920Y17395D02*
Y17645D01*
X56795Y15520D02*
X57045D01*
X56920Y15395D02*
Y15645D01*
X55795Y13520D02*
X56045D01*
X55920Y13395D02*
Y13645D01*
X56795Y11520D02*
X57045D01*
X56920Y11395D02*
Y11645D01*
X55795Y9520D02*
X56045D01*
X55920Y9395D02*
Y9645D01*
X56795Y7520D02*
X57045D01*
X56920Y7395D02*
Y7645D01*
X56795Y3520D02*
X57045D01*
X56920Y3395D02*
Y3645D01*
X55795Y1520D02*
X56045D01*
X55920Y1395D02*
Y1645D01*
X54795Y27520D02*
X55045D01*
X54920Y27395D02*
Y27645D01*
X53795Y25520D02*
X54045D01*
X53920Y25395D02*
Y25645D01*
X54795Y19520D02*
X55045D01*
X54920Y19395D02*
Y19645D01*
X53795Y17520D02*
X54045D01*
X53920Y17395D02*
Y17645D01*
X54795Y15520D02*
X55045D01*
X54920Y15395D02*
Y15645D01*
X53795Y13520D02*
X54045D01*
X53920Y13395D02*
Y13645D01*
X54795Y11520D02*
X55045D01*
X54920Y11395D02*
Y11645D01*
X53795Y9520D02*
X54045D01*
X53920Y9395D02*
Y9645D01*
X54795Y3520D02*
X55045D01*
X54920Y3395D02*
Y3645D01*
X53795Y1520D02*
X54045D01*
X53920Y1395D02*
Y1645D01*
X52795Y27520D02*
X53045D01*
X52920Y27395D02*
Y27645D01*
X51795Y25520D02*
X52045D01*
X51920Y25395D02*
Y25645D01*
X52795Y23520D02*
X53045D01*
X52920Y23395D02*
Y23645D01*
X51795Y21520D02*
X52045D01*
X51920Y21395D02*
Y21645D01*
X51795Y17520D02*
X52045D01*
X51920Y17395D02*
Y17645D01*
X52795Y15520D02*
X53045D01*
X52920Y15395D02*
Y15645D01*
X51795Y13520D02*
X52045D01*
X51920Y13395D02*
Y13645D01*
X52795Y11520D02*
X53045D01*
X52920Y11395D02*
Y11645D01*
X51795Y9520D02*
X52045D01*
X51920Y9395D02*
Y9645D01*
X52795Y3520D02*
X53045D01*
X52920Y3395D02*
Y3645D01*
X51795Y1520D02*
X52045D01*
X51920Y1395D02*
Y1645D01*
X50795Y27520D02*
X51045D01*
X50920Y27395D02*
Y27645D01*
X49795Y25520D02*
X50045D01*
X49920Y25395D02*
Y25645D01*
X50795Y23520D02*
X51045D01*
X50920Y23395D02*
Y23645D01*
X49795Y21520D02*
X50045D01*
X49920Y21395D02*
Y21645D01*
X50795Y15520D02*
X51045D01*
X50920Y15395D02*
Y15645D01*
X49795Y13520D02*
X50045D01*
X49920Y13395D02*
Y13645D01*
X50795Y11520D02*
X51045D01*
X50920Y11395D02*
Y11645D01*
X49795Y5520D02*
X50045D01*
X49920Y5395D02*
Y5645D01*
X50795Y3520D02*
X51045D01*
X50920Y3395D02*
Y3645D01*
X49795Y1520D02*
X50045D01*
X49920Y1395D02*
Y1645D01*
X48795Y27520D02*
X49045D01*
X48920Y27395D02*
Y27645D01*
X48795Y3520D02*
X49045D01*
X48920Y3395D02*
Y3645D01*
X47795Y1520D02*
X48045D01*
X47920Y1395D02*
Y1645D01*
X45795Y21520D02*
X46045D01*
X45920Y21395D02*
Y21645D01*
X46795Y19520D02*
X47045D01*
X46920Y19395D02*
Y19645D01*
X45795Y17520D02*
X46045D01*
X45920Y17395D02*
Y17645D01*
X45795Y13520D02*
X46045D01*
X45920Y13395D02*
Y13645D01*
X46795Y3520D02*
X47045D01*
X46920Y3395D02*
Y3645D01*
X45795Y1520D02*
X46045D01*
X45920Y1395D02*
Y1645D01*
X44795Y27520D02*
X45045D01*
X44920Y27395D02*
Y27645D01*
X44795Y23520D02*
X45045D01*
X44920Y23395D02*
Y23645D01*
X44795Y19520D02*
X45045D01*
X44920Y19395D02*
Y19645D01*
X43795Y9520D02*
X44045D01*
X43920Y9395D02*
Y9645D01*
X44795Y7520D02*
X45045D01*
X44920Y7395D02*
Y7645D01*
X44795Y3520D02*
X45045D01*
X44920Y3395D02*
Y3645D01*
X43795Y1520D02*
X44045D01*
X43920Y1395D02*
Y1645D01*
X34271Y9377D02*
X34521D01*
X34396Y9252D02*
Y9502D01*
X37304Y7272D02*
X37554D01*
X37429Y7147D02*
Y7397D01*
X37980Y19442D02*
X38130D01*
X38055Y19367D02*
Y19517D01*
X38059Y18680D02*
X38209D01*
X38134Y18605D02*
Y18755D01*
X41384Y9102D02*
X41634D01*
X41509Y8977D02*
Y9227D01*
X32707Y8174D02*
X32857D01*
X32782Y8099D02*
Y8249D01*
X5978Y28318D02*
X6228D01*
X6103Y28193D02*
Y28443D01*
X41200Y13848D02*
X41350D01*
X41275Y13773D02*
Y13923D01*
X43757Y15444D02*
X43907D01*
X43832Y15369D02*
Y15519D01*
X43132Y13889D02*
X43282D01*
X43207Y13814D02*
Y13964D01*
X43075Y16832D02*
X43225D01*
X43150Y16757D02*
Y16907D01*
X41800Y13851D02*
X41950D01*
X41875Y13776D02*
Y13926D01*
X41789Y13173D02*
X41939D01*
X41864Y13098D02*
Y13248D01*
X42453Y13144D02*
X42603D01*
X42528Y13069D02*
Y13219D01*
X41384Y11112D02*
X41534D01*
X41459Y11037D02*
Y11187D01*
X37966Y8601D02*
X38116D01*
X38041Y8526D02*
Y8676D01*
X37966Y9042D02*
X38116D01*
X38041Y8967D02*
Y9117D01*
X40854Y15519D02*
X41004D01*
X40929Y15444D02*
Y15594D01*
X38821Y20374D02*
X39071D01*
X38946Y20249D02*
Y20499D01*
X41276Y18486D02*
X41526D01*
X41401Y18361D02*
Y18611D01*
X34744Y21351D02*
X34894D01*
X34819Y21276D02*
Y21426D01*
X33698Y22630D02*
X33948D01*
X33823Y22505D02*
Y22755D01*
X30137Y15394D02*
X30287D01*
X30212Y15319D02*
Y15469D01*
X30245Y15838D02*
X30395D01*
X30320Y15763D02*
Y15913D01*
X40588Y6916D02*
X40838D01*
X40713Y6791D02*
Y7041D01*
X39010Y4631D02*
X39260D01*
X39135Y4506D02*
Y4756D01*
X37391Y5840D02*
X37641D01*
X37516Y5715D02*
Y5965D01*
X35267Y4655D02*
X35517D01*
X35392Y4530D02*
Y4780D01*
X27402Y16384D02*
X27652D01*
X27527Y16259D02*
Y16509D01*
X32387Y7859D02*
X32537D01*
X32462Y7784D02*
Y7934D01*
X33594Y3763D02*
X33844D01*
X33719Y3638D02*
Y3888D01*
X41866Y6907D02*
X42116D01*
X41991Y6782D02*
Y7032D01*
X41285Y4706D02*
X41535D01*
X41410Y4581D02*
Y4831D01*
X27410Y8677D02*
X27660D01*
X27535Y8552D02*
Y8802D01*
X27356Y6749D02*
X27606D01*
X27481Y6624D02*
Y6874D01*
X27433Y19379D02*
X27683D01*
X27558Y19254D02*
Y19504D01*
X27408Y17634D02*
X27658D01*
X27533Y17509D02*
Y17759D01*
X27319Y13762D02*
X27569D01*
X27444Y13637D02*
Y13887D01*
X27250Y12336D02*
X27500D01*
X27375Y12211D02*
Y12461D01*
X55127Y4966D02*
X55277D01*
X55202Y4891D02*
Y5041D01*
X57480Y4949D02*
X57630D01*
X57555Y4874D02*
Y5024D01*
X58366Y4944D02*
X58516D01*
X58441Y4869D02*
Y5019D01*
X58521Y23527D02*
X58671D01*
X58596Y23452D02*
Y23602D01*
X25710Y7324D02*
X25860D01*
X25785Y7249D02*
Y7399D01*
X35537Y8637D02*
X35687D01*
X35612Y8562D02*
Y8712D01*
X41851Y7770D02*
X42001D01*
X41926Y7695D02*
Y7845D01*
X37733Y19052D02*
X37883D01*
X37808Y18977D02*
Y19127D01*
X39506Y6853D02*
X39756D01*
X39631Y6728D02*
Y6978D01*
X38490Y6883D02*
X38740D01*
X38615Y6758D02*
Y7008D01*
X35459Y18291D02*
X35609D01*
X35534Y18216D02*
Y18366D01*
X35993Y17777D02*
X36143D01*
X36068Y17702D02*
Y17852D01*
X36272Y19944D02*
X36422D01*
X36347Y19869D02*
Y20019D01*
X36282Y19560D02*
X36432D01*
X36357Y19485D02*
Y19635D01*
X36293Y19118D02*
X36443D01*
X36368Y19043D02*
Y19193D01*
X41049Y22650D02*
X41299D01*
X41174Y22525D02*
Y22775D01*
X42300Y22790D02*
X42550D01*
X42425Y22665D02*
Y22915D01*
X41181Y20168D02*
X41431D01*
X41306Y20043D02*
Y20293D01*
X35707Y19830D02*
X35857D01*
X35782Y19755D02*
Y19905D01*
X40591Y19904D02*
X40841D01*
X40716Y19779D02*
Y20029D01*
X41396Y19357D02*
X41546D01*
X41471Y19282D02*
Y19432D01*
X38065Y18099D02*
X38215D01*
X38140Y18024D02*
Y18174D01*
X38740Y11602D02*
X38990D01*
X38865Y11477D02*
Y11727D01*
X36720Y11602D02*
X36970D01*
X36845Y11477D02*
Y11727D01*
X34735Y11606D02*
X34985D01*
X34860Y11481D02*
Y11731D01*
X34724Y13604D02*
X34974D01*
X34849Y13479D02*
Y13729D01*
X36737Y13605D02*
X36987D01*
X36862Y13480D02*
Y13730D01*
X38734Y13611D02*
X38984D01*
X38859Y13486D02*
Y13736D01*
X38733Y15606D02*
X38983D01*
X38858Y15481D02*
Y15731D01*
X36736Y15604D02*
X36986D01*
X36861Y15479D02*
Y15729D01*
X34744Y15605D02*
X34994D01*
X34869Y15480D02*
Y15730D01*
X3693Y28294D02*
X3943D01*
X3818Y28169D02*
Y28419D01*
X38266Y22941D02*
X38516D01*
X38391Y22816D02*
Y23066D01*
X38253Y23667D02*
X38503D01*
X38378Y23542D02*
Y23792D01*
X34900Y20041D02*
X35150D01*
X35025Y19916D02*
Y20166D01*
X21795Y9520D02*
X22045D01*
X21920Y9395D02*
Y9645D01*
X19795Y25520D02*
X20045D01*
X19920Y25395D02*
Y25645D01*
X19795Y13520D02*
X20045D01*
X19920Y13395D02*
Y13645D01*
X17795Y21520D02*
X18045D01*
X17920Y21395D02*
Y21645D01*
X17795Y17520D02*
X18045D01*
X17920Y17395D02*
Y17645D01*
X15795Y25520D02*
X16045D01*
X15920Y25395D02*
Y25645D01*
X15795Y17520D02*
X16045D01*
X15920Y17395D02*
Y17645D01*
X15795Y13520D02*
X16045D01*
X15920Y13395D02*
Y13645D01*
X13795Y21520D02*
X14045D01*
X13920Y21395D02*
Y21645D01*
X13795Y17520D02*
X14045D01*
X13920Y17395D02*
Y17645D01*
X12795Y19520D02*
X13045D01*
X12920Y19395D02*
Y19645D01*
X11795Y17520D02*
X12045D01*
X11920Y17395D02*
Y17645D01*
X12795Y15520D02*
X13045D01*
X12920Y15395D02*
Y15645D01*
X11795Y13520D02*
X12045D01*
X11920Y13395D02*
Y13645D01*
X12795Y11520D02*
X13045D01*
X12920Y11395D02*
Y11645D01*
X11795Y9520D02*
X12045D01*
X11920Y9395D02*
Y9645D01*
X10795Y23520D02*
X11045D01*
X10920Y23395D02*
Y23645D01*
X10795Y19520D02*
X11045D01*
X10920Y19395D02*
Y19645D01*
X9795Y17520D02*
X10045D01*
X9920Y17395D02*
Y17645D01*
X9795Y13520D02*
X10045D01*
X9920Y13395D02*
Y13645D01*
X8795Y19520D02*
X9045D01*
X8920Y19395D02*
Y19645D01*
X8795Y15520D02*
X9045D01*
X8920Y15395D02*
Y15645D01*
X5795Y17520D02*
X6045D01*
X5920Y17395D02*
Y17645D01*
X1795Y1520D02*
X2045D01*
X1920Y1395D02*
Y1645D01*
X795Y27520D02*
X1045D01*
X920Y27395D02*
Y27645D01*
X795Y11520D02*
X1045D01*
X920Y11395D02*
Y11645D01*
X795Y3520D02*
X1045D01*
X920Y3395D02*
Y3645D01*
X19024Y1285D02*
X19274D01*
X19149Y1160D02*
Y1410D01*
X36597Y2100D02*
X36847D01*
X36722Y1975D02*
Y2225D01*
X14969Y4663D02*
X15219D01*
X15094Y4538D02*
Y4788D01*
X13708Y1763D02*
X13958D01*
X13833Y1638D02*
Y1888D01*
X12865Y3606D02*
X13115D01*
X12990Y3481D02*
Y3731D01*
X11593Y3559D02*
X11843D01*
X11718Y3434D02*
Y3684D01*
X22514Y26431D02*
X22764D01*
X22639Y26306D02*
Y26556D01*
X6411Y1530D02*
X6661D01*
X6536Y1405D02*
Y1655D01*
X8793Y1520D02*
X9043D01*
X8918Y1395D02*
Y1645D01*
X12991Y27687D02*
X13241D01*
X13116Y27562D02*
Y27812D01*
X13056Y28743D02*
X13306D01*
X13181Y28618D02*
Y28868D01*
X10750Y25065D02*
X11000D01*
X10875Y24940D02*
Y25190D01*
X21124Y26860D02*
X21374D01*
X21249Y26735D02*
Y26985D01*
X16518Y28347D02*
X16768D01*
X16643Y28222D02*
Y28472D01*
X18551Y28268D02*
X18801D01*
X18676Y28143D02*
Y28393D01*
X17208Y3613D02*
X17458D01*
X17333Y3488D02*
Y3738D01*
X16002Y4598D02*
X16252D01*
X16127Y4473D02*
Y4723D01*
X16296Y1466D02*
X16546D01*
X16421Y1341D02*
Y1591D01*
X18113Y3744D02*
X18363D01*
X18238Y3619D02*
Y3869D01*
X20950Y3010D02*
X21200D01*
X21075Y2885D02*
Y3135D01*
X21375Y3975D02*
X21625D01*
X21500Y3850D02*
Y4100D01*
X23424Y4785D02*
X23674D01*
X23549Y4660D02*
Y4910D01*
X25441Y951D02*
X25691D01*
X25566Y826D02*
Y1076D01*
X26169Y3803D02*
X26419D01*
X26294Y3678D02*
Y3928D01*
X13065Y22526D02*
X13315D01*
X13190Y22401D02*
Y22651D01*
X7896Y12172D02*
X8146D01*
X8021Y12047D02*
Y12297D01*
X659Y16263D02*
X909D01*
X784Y16138D02*
Y16388D01*
X639Y14028D02*
X889D01*
X764Y13903D02*
Y14153D01*
X7302Y13180D02*
X7552D01*
X7427Y13055D02*
Y13305D01*
X36647Y1437D02*
X36797D01*
X36722Y1362D02*
Y1512D01*
X33236Y9429D02*
X33486D01*
X33361Y9304D02*
Y9554D01*
X31019Y9163D02*
X31169D01*
X31094Y9088D02*
Y9238D01*
X32650Y12899D02*
X32800D01*
X32725Y12824D02*
Y12974D01*
X32262Y12847D02*
X32412D01*
X32337Y12772D02*
Y12922D01*
X24498Y4848D02*
X24748D01*
X24623Y4723D02*
Y4973D01*
X39537Y10130D02*
X39687D01*
X39612Y10055D02*
Y10205D01*
X40186Y9923D02*
X40336D01*
X40261Y9848D02*
Y9998D01*
Y9553D02*
X40411D01*
X40336Y9478D02*
Y9628D01*
X40660Y9812D02*
X40810D01*
X40735Y9737D02*
Y9887D01*
X38026Y9442D02*
X38176D01*
X38101Y9367D02*
Y9517D01*
X23477Y27917D02*
X23627D01*
X23552Y27842D02*
Y27992D01*
X26386Y28180D02*
X26536D01*
X26461Y28105D02*
Y28255D01*
X26394Y27697D02*
X26544D01*
X26469Y27622D02*
Y27772D01*
X23464Y25064D02*
X23614D01*
X23539Y24989D02*
Y25139D01*
X24286Y24201D02*
X24436D01*
X24361Y24126D02*
Y24276D01*
X25505Y24192D02*
X25655D01*
X25580Y24117D02*
Y24267D01*
X33407Y17730D02*
X33557D01*
X33482Y17655D02*
Y17805D01*
X33097Y17388D02*
X33247D01*
X33172Y17313D02*
Y17463D01*
X32950Y17956D02*
X33100D01*
X33025Y17881D02*
Y18031D01*
X32692Y18413D02*
X32842D01*
X32767Y18338D02*
Y18488D01*
X32424Y17961D02*
X32574D01*
X32499Y17886D02*
Y18036D01*
X40793Y13586D02*
X40943D01*
X40868Y13511D02*
Y13661D01*
X42506Y13897D02*
X42656D01*
X42581Y13822D02*
Y13972D01*
X43939Y17559D02*
X44089D01*
X44014Y17484D02*
Y17634D01*
X42214Y16858D02*
X42364D01*
X42289Y16783D02*
Y16933D01*
X43058Y10262D02*
X43208D01*
X43133Y10187D02*
Y10337D01*
X43712Y10255D02*
X43862D01*
X43787Y10180D02*
Y10330D01*
X43872Y12055D02*
X44022D01*
X43947Y11980D02*
Y12130D01*
X57592Y23594D02*
X57742D01*
X57667Y23519D02*
Y23669D01*
X55607Y23610D02*
X55757D01*
X55682Y23535D02*
Y23685D01*
X33574Y21263D02*
X33724D01*
X33649Y21188D02*
Y21338D01*
X27383Y24537D02*
X27633D01*
X27508Y24412D02*
Y24662D01*
X27383Y23615D02*
X27633D01*
X27508Y23490D02*
Y23740D01*
X29392Y26546D02*
X29642D01*
X29517Y26421D02*
Y26671D01*
X27465Y26464D02*
X27715D01*
X27590Y26339D02*
Y26589D01*
X31687Y21545D02*
X31937D01*
X31812Y21420D02*
Y21670D01*
X32998Y25337D02*
X33248D01*
X33123Y25212D02*
Y25462D01*
X35273Y26587D02*
X35523D01*
X35398Y26462D02*
Y26712D01*
X35621Y22693D02*
X35871D01*
X35746Y22568D02*
Y22818D01*
X36277Y28677D02*
X36527D01*
X36402Y28552D02*
Y28802D01*
X39003Y25541D02*
X39253D01*
X39128Y25416D02*
Y25666D01*
X38368Y26341D02*
X38618D01*
X38493Y26216D02*
Y26466D01*
X41339Y24168D02*
X41589D01*
X41464Y24043D02*
Y24293D01*
X42507Y24127D02*
X42757D01*
X42632Y24002D02*
Y24252D01*
X45002Y24504D02*
X45252D01*
X45127Y24379D02*
Y24629D01*
X47130Y22377D02*
X47380D01*
X47255Y22252D02*
Y22502D01*
X49159Y24587D02*
X49409D01*
X49284Y24462D02*
Y24712D01*
X47060Y18647D02*
X47310D01*
X47185Y18522D02*
Y18772D01*
X49218Y18597D02*
X49468D01*
X49343Y18472D02*
Y18722D01*
X48027Y20854D02*
X48277D01*
X48152Y20729D02*
Y20979D01*
X47082Y16621D02*
X47332D01*
X47207Y16496D02*
Y16746D01*
X46936Y12572D02*
X47186D01*
X47061Y12447D02*
Y12697D01*
X46862Y13960D02*
X47112D01*
X46987Y13835D02*
Y14085D01*
X49267Y12646D02*
X49517D01*
X49392Y12521D02*
Y12771D01*
X49242Y14432D02*
X49492D01*
X49367Y14307D02*
Y14557D01*
X45344Y10924D02*
X45594D01*
X45469Y10799D02*
Y11049D01*
X46391Y9770D02*
X46641D01*
X46516Y9645D02*
Y9895D01*
X47383Y8753D02*
X47633D01*
X47508Y8628D02*
Y8878D01*
X49515Y6794D02*
X49765D01*
X49640Y6669D02*
Y6919D01*
X51152Y5108D02*
X51402D01*
X51277Y4983D02*
Y5233D01*
X53135Y4984D02*
X53385D01*
X53260Y4859D02*
Y5109D01*
X48746Y10489D02*
X48996D01*
X48871Y10364D02*
Y10614D01*
X49937Y9398D02*
X50187D01*
X50062Y9273D02*
Y9523D01*
X51375Y8009D02*
X51625D01*
X51500Y7884D02*
Y8134D01*
X53185Y6893D02*
X53435D01*
X53310Y6768D02*
Y7018D01*
X55144Y6893D02*
X55394D01*
X55269Y6768D02*
Y7018D01*
X59648Y4867D02*
X59898D01*
X59773Y4742D02*
Y4992D01*
X56103Y4841D02*
X56353D01*
X56228Y4716D02*
Y4966D01*
X49627Y15958D02*
X49877D01*
X49752Y15833D02*
Y16083D01*
X51029Y17360D02*
X51279D01*
X51154Y17235D02*
Y17485D01*
X50673Y19557D02*
X50923D01*
X50798Y19432D02*
Y19682D01*
X53373Y22173D02*
X53623D01*
X53498Y22048D02*
Y22298D01*
X52326Y18637D02*
X52576D01*
X52451Y18512D02*
Y18762D01*
X53561Y19871D02*
X53811D01*
X53686Y19746D02*
Y19996D01*
X54474Y23389D02*
X54724D01*
X54599Y23264D02*
Y23514D01*
X57302Y21606D02*
X57552D01*
X57427Y21481D02*
Y21731D01*
X59597Y21504D02*
X59847D01*
X59722Y21379D02*
Y21629D01*
X59679Y23717D02*
X59929D01*
X59804Y23592D02*
Y23842D01*
X47409Y4687D02*
X47659D01*
X47534Y4562D02*
Y4812D01*
X45009Y8617D02*
X45259D01*
X45134Y8492D02*
Y8742D01*
X45280Y4741D02*
X45530D01*
X45405Y4616D02*
Y4866D01*
X41605Y16248D02*
X41755D01*
X41680Y16173D02*
Y16323D01*
X44960Y21190D02*
X45210D01*
X45085Y21065D02*
Y21315D01*
X30891Y15538D02*
X31141D01*
X31016Y15413D02*
Y15663D01*
X31938Y7902D02*
X32088D01*
X32013Y7827D02*
Y7977D01*
X43757Y16794D02*
X43907D01*
X43832Y16719D02*
Y16869D01*
X24386Y1081D02*
X24636D01*
X24511Y956D02*
Y1206D01*
X41178Y13302D02*
X41328D01*
X41253Y13227D02*
Y13377D01*
X43876Y13902D02*
X44026D01*
X43951Y13827D02*
Y13977D01*
X46078Y14816D02*
X46328D01*
X46203Y14691D02*
Y14941D01*
X44685Y13929D02*
X44935D01*
X44810Y13804D02*
Y14054D01*
X38737Y11605D02*
X38987D01*
X38862Y11480D02*
Y11730D01*
X36737Y11605D02*
X36987D01*
X36862Y11480D02*
Y11730D01*
X34737Y11605D02*
X34987D01*
X34862Y11480D02*
Y11730D01*
X34737Y13605D02*
X34987D01*
X34862Y13480D02*
Y13730D01*
X34737Y15605D02*
X34987D01*
X34862Y15480D02*
Y15730D01*
X36737Y15605D02*
X36987D01*
X36862Y15480D02*
Y15730D01*
X38737Y13605D02*
X38987D01*
X38862Y13480D02*
Y13730D01*
X38737Y15605D02*
X38987D01*
X38862Y15480D02*
Y15730D01*
X36737Y13605D02*
X36987D01*
X36862Y13480D02*
Y13730D01*
M02*
