%FSLAX43Y43*%
%MOMM*%
G71*
G01*
G75*
G04 Layer_Color=9306309*
%ADD10R,3.600X1.800*%
%ADD11R,0.800X0.650*%
%ADD12R,0.650X0.800*%
%ADD13R,0.282X0.205*%
%ADD14R,0.205X0.282*%
%ADD15R,1.200X1.200*%
%ADD16R,0.900X0.600*%
%ADD17R,0.600X0.900*%
%ADD18R,0.350X0.350*%
%ADD19R,0.350X0.350*%
G04:AMPARAMS|DCode=20|XSize=0.205mm|YSize=0.282mm|CornerRadius=0mm|HoleSize=0mm|Usage=FLASHONLY|Rotation=315.000|XOffset=0mm|YOffset=0mm|HoleType=Round|Shape=Rectangle|*
%AMROTATEDRECTD20*
4,1,4,-0.172,-0.027,0.027,0.172,0.172,0.027,-0.027,-0.172,-0.172,-0.027,0.0*
%
%ADD20ROTATEDRECTD20*%

%ADD21R,0.350X0.700*%
%ADD22R,0.600X0.600*%
%ADD23R,0.950X1.750*%
%ADD24R,0.600X0.500*%
%ADD25R,0.762X0.762*%
%ADD26R,0.350X0.850*%
%ADD27R,1.100X0.700*%
%ADD28O,0.700X0.250*%
%ADD29O,0.250X0.700*%
%ADD30R,4.700X4.700*%
%ADD31R,1.600X1.400*%
%ADD32R,0.300X0.700*%
%ADD33R,1.300X1.100*%
%ADD34R,2.250X1.000*%
%ADD35R,2.200X1.050*%
%ADD36R,1.050X1.000*%
%ADD37R,1.200X3.200*%
%ADD38R,3.000X3.000*%
%ADD39R,3.200X1.200*%
%ADD40C,0.300*%
%ADD41C,0.254*%
%ADD42C,0.150*%
%ADD43C,0.203*%
%ADD44C,0.175*%
%ADD45C,0.152*%
%ADD46C,0.200*%
%ADD47C,0.400*%
%ADD48C,0.195*%
%ADD49C,0.170*%
%ADD50C,0.210*%
%ADD51C,0.190*%
%ADD52C,0.350*%
%ADD53R,1.547X1.240*%
%ADD54R,0.920X0.400*%
%ADD55R,0.920X0.400*%
%ADD56R,0.900X0.400*%
%ADD57R,0.002X0.195*%
%ADD58R,0.000X0.195*%
%ADD59R,0.486X1.169*%
%ADD60R,0.729X0.544*%
%ADD61R,0.428X1.195*%
%ADD62R,0.643X0.715*%
%ADD63C,2.000*%
%ADD64O,0.900X1.200*%
%ADD65O,0.900X1.250*%
%ADD66C,1.700*%
%ADD67R,4.200X1.350*%
%ADD68R,1.700X1.700*%
%ADD69C,1.800*%
%ADD70R,1.800X1.800*%
%ADD71C,0.550*%
%ADD72C,0.350*%
%ADD73C,0.800*%
%ADD74C,0.737*%
%ADD75C,0.250*%
%ADD76C,0.100*%
%ADD77C,0.102*%
%ADD78R,0.875X0.550*%
%ADD79R,1.750X1.750*%
%ADD80R,2.100X2.100*%
G04:AMPARAMS|DCode=81|XSize=1.65mm|YSize=1.65mm|CornerRadius=0.412mm|HoleSize=0mm|Usage=FLASHONLY|Rotation=0.000|XOffset=0mm|YOffset=0mm|HoleType=Round|Shape=RoundedRectangle|*
%AMROUNDEDRECTD81*
21,1,1.650,0.825,0,0,0.0*
21,1,0.825,1.650,0,0,0.0*
1,1,0.825,0.412,-0.412*
1,1,0.825,-0.412,-0.412*
1,1,0.825,-0.412,0.412*
1,1,0.825,0.412,0.412*
%
%ADD81ROUNDEDRECTD81*%
%ADD82R,2.100X2.100*%
%ADD83R,3.850X1.150*%
%ADD84R,3.599X1.806*%
%ADD85R,3.603X1.802*%
%ADD86R,1.550X1.350*%
%ADD87R,4.700X1.400*%
%ADD88R,1.400X4.700*%
%ADD89R,1.950X0.850*%
%ADD90R,0.900X0.750*%
%ADD91R,0.750X0.900*%
%ADD92R,0.408X0.332*%
%ADD93R,0.332X0.408*%
%ADD94R,1.300X1.300*%
%ADD95R,1.000X0.700*%
%ADD96R,0.700X1.000*%
G04:AMPARAMS|DCode=97|XSize=0.332mm|YSize=0.408mm|CornerRadius=0mm|HoleSize=0mm|Usage=FLASHONLY|Rotation=315.000|XOffset=0mm|YOffset=0mm|HoleType=Round|Shape=Rectangle|*
%AMROTATEDRECTD97*
4,1,4,-0.261,-0.027,0.027,0.261,0.261,0.027,-0.027,-0.261,-0.261,-0.027,0.0*
%
%ADD97ROTATEDRECTD97*%

%ADD98R,0.450X0.800*%
%ADD99R,0.700X0.700*%
%ADD100R,1.050X1.850*%
%ADD101R,0.700X0.600*%
%ADD102R,0.862X0.862*%
%ADD103R,0.450X0.950*%
%ADD104R,1.240X0.840*%
%ADD105O,0.800X0.350*%
%ADD106O,0.350X0.800*%
%ADD107R,1.750X1.550*%
%ADD108R,0.450X0.850*%
%ADD109R,1.400X1.200*%
%ADD110R,2.350X1.100*%
%ADD111R,2.300X1.150*%
%ADD112R,1.150X1.100*%
%ADD113R,1.300X3.300*%
%ADD114R,3.100X3.100*%
%ADD115R,3.300X1.300*%
%ADD116C,2.100*%
%ADD117O,1.000X1.300*%
%ADD118O,1.000X1.350*%
%ADD119R,1.800X1.800*%
%ADD120C,1.900*%
%ADD121R,1.900X1.900*%
%ADD122C,0.900*%
%ADD123C,0.650*%
G36*
X46617Y15577D02*
X46217D01*
Y15977D01*
X46617D01*
Y15577D01*
D02*
G37*
G36*
X37035Y18328D02*
X36635D01*
Y18728D01*
X37035D01*
Y18328D01*
D02*
G37*
G36*
X46117Y15577D02*
X45717D01*
Y15977D01*
X46117D01*
Y15577D01*
D02*
G37*
G36*
X42849Y11671D02*
X42449D01*
Y12071D01*
X42849D01*
Y11671D01*
D02*
G37*
G36*
Y12171D02*
X42449D01*
Y12571D01*
X42849D01*
Y12171D01*
D02*
G37*
G36*
X55884Y22846D02*
X55484D01*
Y23246D01*
X55884D01*
Y22846D01*
D02*
G37*
G36*
X57879D02*
X57479D01*
Y23246D01*
X57879D01*
Y22846D01*
D02*
G37*
G36*
Y22346D02*
X57479D01*
Y22746D01*
X57879D01*
Y22346D01*
D02*
G37*
G36*
X37535Y18328D02*
X37135D01*
Y18728D01*
X37535D01*
Y18328D01*
D02*
G37*
G36*
X55884Y22346D02*
X55484D01*
Y22746D01*
X55884D01*
Y22346D01*
D02*
G37*
G36*
X32996Y12919D02*
Y12755D01*
X32876Y12635D01*
X31736D01*
Y13095D01*
X32820D01*
X32996Y12919D01*
D02*
G37*
G36*
X38272Y9566D02*
Y8389D01*
X37871D01*
X37872Y9544D01*
X38025Y9697D01*
X38272Y9566D01*
D02*
G37*
G36*
X41834Y8932D02*
Y8491D01*
X41596Y8253D01*
X41577Y8234D01*
X41065D01*
X41036Y8263D01*
Y8952D01*
X40745Y9243D01*
X40339D01*
X40055Y9527D01*
Y9966D01*
X40074Y9985D01*
X40425Y10336D01*
X41834Y8932D01*
D02*
G37*
G36*
X41628Y13302D02*
X40878D01*
X40674Y13506D01*
Y13744D01*
X40822Y13892D01*
X41628D01*
Y13302D01*
D02*
G37*
G36*
X33674Y17880D02*
Y17544D01*
X33212Y17082D01*
X32962D01*
X32281Y17763D01*
X32283Y18247D01*
X32718Y18653D01*
X32900Y18654D01*
X33674Y17880D01*
D02*
G37*
G36*
X41885Y16328D02*
X40941Y15309D01*
X40826D01*
X40726Y15412D01*
Y15571D01*
X41753Y16598D01*
X41885Y16328D01*
D02*
G37*
G36*
X30439Y15596D02*
Y15175D01*
X30217Y14953D01*
X29468Y15702D01*
X29881Y16111D01*
X29924D01*
X30439Y15596D01*
D02*
G37*
D10*
X62502Y22558D02*
D03*
X62526Y6000D02*
D03*
D43*
X40643Y11855D02*
X41423Y11075D01*
D47*
X35500Y18327D02*
X36112Y17715D01*
D49*
X30231Y17235D02*
X32547Y14919D01*
X30445Y17549D02*
X32702Y15292D01*
X19494Y10399D02*
X19943Y9950D01*
X19494Y10399D02*
Y10923D01*
X18673Y9950D02*
X19122Y10399D01*
Y11078D01*
X19494Y10923D02*
X19934Y11363D01*
X19122Y11078D02*
X19122D01*
X19780Y11736D01*
X19934Y11363D02*
X25069D01*
X19780Y11736D02*
X19780Y11736D01*
X25224D01*
X25069Y11363D02*
X26788Y9644D01*
X25224Y11736D02*
X26943Y10017D01*
X30466D01*
X26788Y9644D02*
X30621D01*
X15684Y10399D02*
X16133Y9950D01*
X15684Y10399D02*
Y11220D01*
X14863Y9950D02*
X15311Y10399D01*
X15684Y11220D02*
X16660Y12195D01*
X15311Y10399D02*
Y11375D01*
X16505Y12568D01*
X16660Y12195D02*
X25578D01*
X27063Y10710D01*
X16505Y12568D02*
X25733D01*
X27537Y10764D01*
X29982D01*
X27063Y10710D02*
X27063D01*
X27382Y10391D01*
X30136D01*
X30455Y10710D01*
X30456D01*
X31656Y11910D01*
X29982Y10764D02*
X31501Y12283D01*
X19494Y15545D02*
X19943Y15096D01*
X18673D02*
X19122Y15545D01*
X25160Y16802D02*
X26938Y15023D01*
X32734Y13418D02*
X32734Y13418D01*
X33323D01*
X32888Y13791D02*
X32888Y13791D01*
X33323D01*
X33387Y13855D01*
X33323Y13418D02*
X33387Y13355D01*
X30466Y10017D02*
X31743Y11294D01*
X33326D01*
X33387Y11355D01*
X30621Y9644D02*
X31898Y10921D01*
X33320D01*
X33387Y10855D01*
X31656Y11910D02*
X33331D01*
X31501Y12283D02*
X32880D01*
X32880Y12283D01*
X33315D01*
X33387Y12355D01*
X33331Y11910D02*
X33387Y11855D01*
X18673Y20192D02*
X19122Y20640D01*
X19494D02*
X19943Y20192D01*
X32547Y14919D02*
X33322D01*
X33387Y14855D01*
X32702Y15292D02*
X33324D01*
X33387Y15355D01*
X15684Y20640D02*
Y21897D01*
Y20640D02*
X16133Y20192D01*
X16626Y22839D02*
X26540D01*
X15684Y21897D02*
X16626Y22839D01*
X15311Y20640D02*
Y22052D01*
X14863Y20192D02*
X15311Y20640D01*
Y22052D02*
X16472Y23212D01*
X26694D01*
X33325Y15916D02*
X33387Y15855D01*
X33321Y16289D02*
X33387Y16355D01*
X19122Y20640D02*
Y21341D01*
X19494Y20640D02*
Y21187D01*
X19122Y21341D02*
X19841Y22061D01*
X19494Y21187D02*
X19996Y21688D01*
X19841Y22061D02*
X25400D01*
X19996Y21688D02*
X25246D01*
X26540Y22839D02*
X27480Y21899D01*
X29813D01*
X26694Y23212D02*
X27635Y22272D01*
X29968D01*
X31758Y20482D01*
X32778Y15916D02*
X33325D01*
X32932Y16289D02*
X33321D01*
X30445Y17549D02*
Y19999D01*
X30231Y17235D02*
Y17235D01*
X30072Y17394D02*
X30231Y17235D01*
X30072Y17394D02*
Y19844D01*
X31385Y17309D02*
X32778Y15916D01*
X31385Y17309D02*
Y20327D01*
X29813Y21899D02*
X31385Y20327D01*
X31758Y17463D02*
X32932Y16289D01*
X31758Y17463D02*
Y20482D01*
X19122Y15545D02*
Y16327D01*
X19969Y17175D01*
X25314D01*
X19494Y15545D02*
Y16173D01*
X20124Y16802D01*
X25160D01*
X30509Y13418D02*
X32734D01*
X30663Y13791D02*
X32888D01*
X25314Y17175D02*
X27093Y15396D01*
X29059D01*
X30663Y13791D01*
X26938Y15023D02*
X28904D01*
X30509Y13418D01*
X25246Y21688D02*
X26154Y20779D01*
X29138D01*
X30072Y19844D01*
X25400Y22061D02*
X26309Y21152D01*
X29292D01*
X30445Y19999D01*
D50*
X58973Y5999D02*
X62526Y6000D01*
X51824Y6001D02*
X54657D01*
X45960Y11865D02*
X51824Y6001D01*
X59181Y22558D02*
X62502D01*
X46855Y15735D02*
X48358D01*
X55181Y22558D01*
D59*
X38112Y18517D02*
D03*
D62*
X38017Y18903D02*
D03*
D67*
X62802Y25383D02*
D03*
Y19733D02*
D03*
X62826Y8825D02*
D03*
Y3175D02*
D03*
D69*
X30873Y27910D02*
D03*
X40869D02*
D03*
X38272Y2335D02*
D03*
X33413Y27910D02*
D03*
X27931Y2582D02*
D03*
D87*
X36862Y12605D02*
D03*
Y14605D02*
D03*
D88*
X37862Y13605D02*
D03*
X35862D02*
D03*
D89*
X8100Y28865D02*
D03*
X8100Y25965D02*
D03*
D90*
X17030Y2789D02*
D03*
X18230D02*
D03*
X11772Y2793D02*
D03*
X12972D02*
D03*
X11810Y4395D02*
D03*
X13010D02*
D03*
X11767Y1686D02*
D03*
X12967D02*
D03*
X18373Y1637D02*
D03*
X17173D02*
D03*
X17030Y4434D02*
D03*
X18230D02*
D03*
D91*
X32980Y19497D02*
D03*
Y20697D02*
D03*
X22633Y25556D02*
D03*
Y24356D02*
D03*
X42446Y21953D02*
D03*
Y20753D02*
D03*
X10875Y26065D02*
D03*
Y27265D02*
D03*
D92*
X58596Y22558D02*
D03*
Y23033D02*
D03*
X58441Y6002D02*
D03*
Y5528D02*
D03*
X35854Y19376D02*
D03*
Y18902D02*
D03*
X55191Y5529D02*
D03*
Y6003D02*
D03*
X57557Y5528D02*
D03*
Y6002D02*
D03*
X37300Y19988D02*
D03*
Y20462D02*
D03*
D93*
X56906Y22558D02*
D03*
X56432D02*
D03*
X56574Y5999D02*
D03*
X56100D02*
D03*
X42203Y11854D02*
D03*
X41729D02*
D03*
X42204Y12388D02*
D03*
X41730D02*
D03*
X37314Y19232D02*
D03*
X36839D02*
D03*
D94*
X9962Y1682D02*
D03*
Y3782D02*
D03*
X7720Y1646D02*
D03*
Y3746D02*
D03*
D95*
X41484Y8458D02*
D03*
X40384D02*
D03*
X39657Y7598D02*
D03*
X38557D02*
D03*
X33054Y8649D02*
D03*
X34154D02*
D03*
X39953Y19739D02*
D03*
X38853D02*
D03*
X24503Y4079D02*
D03*
X25603D02*
D03*
X24458Y1664D02*
D03*
X25558D02*
D03*
X4350Y1275D02*
D03*
X3250D02*
D03*
X40646Y18588D02*
D03*
X39546D02*
D03*
D96*
X31846Y8542D02*
D03*
Y9642D02*
D03*
X34252Y20661D02*
D03*
Y19561D02*
D03*
X41263Y20864D02*
D03*
Y21964D02*
D03*
X22667Y27290D02*
D03*
Y28390D02*
D03*
X9750Y27215D02*
D03*
Y26115D02*
D03*
D97*
X45644Y12182D02*
D03*
X45308Y12518D02*
D03*
D98*
X44482Y16103D02*
D03*
X43832D02*
D03*
X43182D02*
D03*
X44482Y14603D02*
D03*
X43832D02*
D03*
X43182D02*
D03*
X44602Y12869D02*
D03*
X43952D02*
D03*
X43302D02*
D03*
X44602Y11369D02*
D03*
X43952D02*
D03*
X43302D02*
D03*
D99*
X30782Y14735D02*
D03*
X31782D02*
D03*
D100*
X32854Y2088D02*
D03*
X35804D02*
D03*
D101*
X32787Y21848D02*
D03*
X33837Y21848D02*
D03*
D102*
X25749Y2885D02*
D03*
X24352D02*
D03*
D103*
X15739Y3587D02*
D03*
X15089D02*
D03*
X14439D02*
D03*
Y1737D02*
D03*
X15089D02*
D03*
X15739D02*
D03*
D104*
X20049Y3985D02*
D03*
Y3035D02*
D03*
Y2085D02*
D03*
X22649D02*
D03*
Y3985D02*
D03*
D105*
X33387Y10855D02*
D03*
Y11355D02*
D03*
Y11855D02*
D03*
Y12355D02*
D03*
Y12855D02*
D03*
Y13355D02*
D03*
Y13855D02*
D03*
Y14355D02*
D03*
Y14855D02*
D03*
Y15355D02*
D03*
Y15855D02*
D03*
Y16355D02*
D03*
X40337D02*
D03*
Y15855D02*
D03*
Y15355D02*
D03*
Y14855D02*
D03*
Y14355D02*
D03*
Y13855D02*
D03*
Y13355D02*
D03*
Y12855D02*
D03*
Y12355D02*
D03*
Y11855D02*
D03*
Y11355D02*
D03*
Y10855D02*
D03*
D106*
X34112Y10130D02*
D03*
X34612D02*
D03*
X35112D02*
D03*
X35612D02*
D03*
X36112D02*
D03*
X36612D02*
D03*
X37112D02*
D03*
X37612D02*
D03*
X38112D02*
D03*
X38612D02*
D03*
X39112D02*
D03*
X39612D02*
D03*
X34112Y17080D02*
D03*
X34612D02*
D03*
X35112D02*
D03*
X35612D02*
D03*
X36112D02*
D03*
X36612D02*
D03*
X37112D02*
D03*
X37612D02*
D03*
X38112D02*
D03*
X38612D02*
D03*
X39112D02*
D03*
X39612D02*
D03*
D107*
X8100Y27415D02*
D03*
D108*
X8850Y28865D02*
D03*
X8350D02*
D03*
X7850D02*
D03*
X7350D02*
D03*
Y25965D02*
D03*
X7850D02*
D03*
X8350D02*
D03*
X8850D02*
D03*
D109*
X39607Y21494D02*
D03*
X37307D02*
D03*
Y23294D02*
D03*
X39607D02*
D03*
D110*
X14925Y28297D02*
D03*
X20425D02*
D03*
Y24297D02*
D03*
X14925D02*
D03*
D111*
X24973Y27948D02*
D03*
Y24998D02*
D03*
D112*
X26498Y26473D02*
D03*
D113*
X48193Y12639D02*
D03*
Y18639D02*
D03*
X28593Y12639D02*
D03*
Y18639D02*
D03*
D114*
X47293Y24539D02*
D03*
Y6739D02*
D03*
X29493Y24539D02*
D03*
Y6739D02*
D03*
D115*
X41393Y5839D02*
D03*
X35393Y25389D02*
D03*
X41393D02*
D03*
X35393Y5889D02*
D03*
D116*
X8000Y7380D02*
D03*
Y22620D02*
D03*
X23673Y15096D02*
D03*
X10843Y16096D02*
D03*
X23673Y9950D02*
D03*
X10843Y10950D02*
D03*
X23673Y20192D02*
D03*
X10843Y21192D02*
D03*
D117*
X21213Y13596D02*
D03*
X19943Y15096D02*
D03*
X18673D02*
D03*
X17403Y13596D02*
D03*
X16133Y15096D02*
D03*
X13593Y13596D02*
D03*
X21213Y8450D02*
D03*
X19943Y9950D02*
D03*
X18673D02*
D03*
X17403Y8450D02*
D03*
X16133Y9950D02*
D03*
X13593Y8450D02*
D03*
X21213Y18692D02*
D03*
X19943Y20192D02*
D03*
X18673D02*
D03*
X17403Y18692D02*
D03*
X16133Y20192D02*
D03*
X13593Y18692D02*
D03*
D118*
X14863Y15096D02*
D03*
Y9950D02*
D03*
Y20192D02*
D03*
D119*
X38329Y27910D02*
D03*
X40812Y2335D02*
D03*
X30471Y2582D02*
D03*
D120*
X2530Y26430D02*
D03*
X5070Y21350D02*
D03*
X2530D02*
D03*
Y23890D02*
D03*
X5070D02*
D03*
X2530Y3570D02*
D03*
Y6110D02*
D03*
X5070D02*
D03*
X2530Y13730D02*
D03*
X5070Y11190D02*
D03*
X2530D02*
D03*
Y8650D02*
D03*
X5070Y13730D02*
D03*
Y8650D02*
D03*
Y16270D02*
D03*
X2530Y18810D02*
D03*
X5070D02*
D03*
X2530Y16270D02*
D03*
X5070Y3570D02*
D03*
D121*
Y26430D02*
D03*
D122*
X33719Y3763D02*
D03*
D123*
X27481Y6749D02*
D03*
X41174Y22650D02*
D03*
M02*
